<svg width="24" height="24" viewBox="0 0 24 24" fill="none" xmlns="http://www.w3.org/2000/svg">
<path d="M15.8779 11.7335C15.7621 11.7607 15.8779 11.7698 15.9845 11.8176L15.8779 11.7335Z" fill="#242424"/>
<path d="M15.985 11.8176L16.0622 11.879C16.042 11.8523 16.0155 11.8312 15.985 11.8176Z" fill="#242424"/>
<path d="M16.7043 12.3543C16.4994 12.2907 16.3537 12.0701 16.1876 12.0905C16.3333 12.2406 16.595 12.4157 16.7043 12.3543Z" fill="#242424"/>
<path d="M16.4879 12.1246L16.438 12.1542L16.6309 12.1906L16.4879 12.1246Z" fill="#242424"/>
<path d="M16.4084 12.0087L16.4197 12.0405L16.683 12.161L16.4084 12.0087Z" fill="#242424"/>
<path d="M17.2232 12.816L17.0548 12.6955C16.9524 12.5181 17.2164 12.6955 17.1459 12.5818C16.9433 12.4203 16.9865 12.6386 16.7475 12.4271C16.7316 12.4885 17.1436 12.7478 17.0366 12.7955C17.221 12.9911 17.0798 12.7569 17.2232 12.816Z" fill="#242424"/>
<path d="M16.5835 20.6803H16.554C16.5654 20.6826 16.5767 20.6917 16.5835 20.6803Z" fill="#242424"/>
<path d="M13.1393 20.7576C13.0929 20.7469 13.0459 20.7393 12.9986 20.7349C13.0151 20.7475 13.0335 20.7575 13.053 20.7645L13.1393 20.7576Z" fill="#242424"/>
<path d="M18.7392 20.4802C18.7841 20.491 18.8296 20.4994 18.8754 20.5052C18.8327 20.4858 18.786 20.4772 18.7392 20.4802Z" fill="#242424"/>
<path d="M6.04692 13.9599C6.04739 13.9726 6.0522 13.9846 6.06055 13.9941V13.9463L6.04692 13.9599Z" fill="#242424"/>
<path d="M9.28101 20.9237C9.22654 20.9237 9.17434 20.9237 9.12668 20.935C9.17839 20.9405 9.23066 20.9367 9.28101 20.9237Z" fill="#242424"/>
<path d="M14.2638 20.9032C14.2227 20.8948 14.1809 20.8902 14.1389 20.8895C14.1801 20.8973 14.2219 20.9019 14.2638 20.9032Z" fill="#242424"/>
<path d="M19.0807 15.2995C19.0954 15.3471 19.1219 15.3901 19.1578 15.4246C19.1548 15.3993 19.1463 15.3751 19.133 15.3535C19.1197 15.3319 19.1018 15.3135 19.0807 15.2995Z" fill="#242424"/>
<path d="M19.611 16.3729C19.5974 16.3775 19.6019 16.3797 19.611 16.3729V16.3729Z" fill="#242424"/>
<path d="M19.8614 17.0961V17.0825C19.8614 17.0825 19.8478 17.1007 19.8614 17.0961Z" fill="#242424"/>
<path d="M19.158 15.4245C19.158 15.5337 19.0581 15.6224 19.251 15.6656V15.6338C19.251 15.7179 19.3645 15.7907 19.4031 15.8612C19.4126 15.8474 19.4195 15.832 19.4235 15.8157C19.4054 15.7748 19.3827 15.7202 19.3486 15.636C19.3146 15.5519 19.2329 15.5019 19.158 15.4245Z" fill="#242424"/>
<path d="M16.5973 20.653C16.6086 20.6803 16.6904 20.6667 16.5973 20.653V20.653Z" fill="#242424"/>
<path d="M17.6577 20.5416H17.5533C17.5879 20.5474 17.6231 20.5474 17.6577 20.5416Z" fill="#242424"/>
<path d="M20.8994 19.2134V19.2339C20.9107 19.2385 20.9062 19.2225 20.8994 19.2134Z" fill="#242424"/>
<path d="M17.4577 20.5348H17.553C17.5215 20.529 17.4892 20.529 17.4577 20.5348Z" fill="#242424"/>
<path d="M14.0132 4.71062C13.9452 4.69016 13.9315 4.63557 13.8793 4.59464C13.7046 4.61283 14.1403 4.73791 13.9111 4.71517C13.9679 4.74246 14.0178 4.75838 14.0632 4.77658C14.0632 4.73337 14.0473 4.68561 14.0359 4.64467C13.9043 4.62193 14.095 4.72199 14.0132 4.71062Z" fill="#242424"/>
<path d="M6.83662 13.3664L6.80711 13.3823C6.8525 13.3982 6.84796 13.421 6.95463 13.3505C6.98868 13.2299 6.79803 13.2777 6.88655 13.0935C6.85603 13.1314 6.81916 13.1637 6.7776 13.189C6.8752 13.1776 6.86158 13.2731 6.83662 13.3664Z" fill="#242424"/>
<path d="M6.77732 13.189H6.741C6.72149 13.2064 6.70018 13.2216 6.67744 13.2345C6.7133 13.2257 6.74719 13.2103 6.77732 13.189Z" fill="#242424"/>
<path d="M11.8443 4.16936H11.7671C11.779 4.17554 11.7923 4.17876 11.8057 4.17876C11.8191 4.17876 11.8324 4.17554 11.8443 4.16936Z" fill="#242424"/>
<path d="M9.52956 19.7342C9.56637 19.7263 9.60274 19.7164 9.63852 19.7047C9.6004 19.7059 9.56309 19.716 9.52956 19.7342Z" fill="#242424"/>
<path d="M5.60964 14.7286C5.58564 14.7486 5.56429 14.7715 5.5461 14.7969L5.52113 14.8514C5.55064 14.8105 5.5756 14.7673 5.60964 14.7286Z" fill="#242424"/>
<path d="M7.08702 9.87997C7.20505 9.93455 7.06432 9.82539 7.10517 9.66619C7.07794 9.62525 7.05297 9.58205 7.028 9.53656C7.03407 9.65296 7.05388 9.76824 7.08702 9.87997Z" fill="#242424"/>
<path d="M7.62894 5.84774L7.67431 5.79543C7.65602 5.80983 7.64063 5.82758 7.62894 5.84774Z" fill="#242424"/>
<path d="M6.24182 13.6893L5.93996 14.0509L6.04663 13.9599C6.0489 13.8758 6.24636 13.778 6.24182 13.6893Z" fill="#242424"/>
<path d="M7.53332 11.4424H7.4969L7.4491 11.431C7.49463 11.4446 7.49918 11.456 7.4969 11.4628C7.4969 11.4628 7.48324 11.4628 7.4969 11.4628C7.51056 11.4628 7.4969 11.4628 7.4969 11.4628L7.47642 11.4765L7.43544 11.5038C7.21892 11.6192 7.03794 11.7914 6.91191 12.0018C6.27911 12.2292 6.73436 12.4135 6.18124 12.65H6.21766C5.52407 13.2985 4.92695 14.0429 4.44447 14.8605C3.97594 15.6503 3.64282 16.5128 3.45886 17.4122L3.41561 17.3963C3.32175 17.7332 3.24577 18.0748 3.18799 18.4197C3.16067 18.5926 3.12197 18.7631 3.10832 18.936L3.05141 19.5045L3.01955 20.4483L3.00361 20.9214C2.9854 20.976 3.04003 20.9623 3.07872 20.9623H4.93386C6.23132 20.9623 7.52649 20.9373 8.83533 20.9623C9.07889 20.9214 8.93093 20.8213 9.14262 20.7713C9.23367 20.7713 9.43853 20.7713 9.44081 20.8236C9.26326 20.8554 9.36341 20.9055 9.30196 20.9259C9.61297 20.958 9.92648 20.958 10.2375 20.9259L10.0099 20.8532C10.1276 20.8361 10.2472 20.8361 10.365 20.8532C10.3263 20.8895 10.4606 20.9669 10.3809 20.9851C10.934 20.8054 10.8111 21.0624 11.2777 20.9851C11.3711 20.8327 11.9606 20.7076 12.3385 20.5984L12.5388 20.6371C12.2724 20.6371 12.5388 20.7485 12.2133 20.7417C12.4887 20.7849 12.7482 20.719 13.0099 20.7417C12.9576 20.7031 12.9713 20.653 13.076 20.6371C13.2376 20.6576 13.2512 20.7349 13.4356 20.7417L13.2558 20.7895C13.3764 20.8463 13.4834 20.7713 13.5972 20.7622C13.6336 20.8259 13.9091 20.8372 13.859 20.9077C14.0573 20.8609 14.259 20.8297 14.4622 20.8145C14.1845 20.7485 14.5327 20.7303 14.5032 20.678L14.189 20.7031C14.6306 20.7463 14.0456 20.7144 14.0798 20.8236C13.8726 20.7736 14.3643 20.6439 14.016 20.6621C14.3264 20.6459 14.6356 20.6133 14.9425 20.5643C14.6875 20.5848 14.9926 20.4938 14.8537 20.4597C15.1792 20.4597 14.9356 20.4984 15.0358 20.5689C15.2133 20.5689 15.2771 20.628 15.441 20.5461C15.7278 20.5802 15.3977 20.628 15.5434 20.6735C15.4364 20.7485 14.7444 20.5802 14.8218 20.819C14.6739 20.819 14.4895 20.9146 14.2755 20.91C14.4977 20.9709 14.7294 20.9894 14.9584 20.9646V20.8304C15.136 20.8304 15.1724 20.7349 15.2998 20.7463C15.2316 20.7849 15.3545 20.8418 15.4956 20.8304C15.4546 20.8122 15.3977 20.8168 15.4137 20.794C15.6777 20.7827 15.7141 20.6917 16.0282 20.6644C15.8403 20.633 15.6548 20.589 15.4728 20.5325C15.5388 20.437 15.6436 20.5166 15.787 20.5052C15.7642 20.5188 15.7346 20.5211 15.787 20.5393L15.9372 20.4938C16.2604 20.5348 15.8985 20.6326 16.1648 20.678C16.3492 20.7576 16.4175 20.6326 16.5586 20.678L16.5313 20.653H16.6018C16.7748 20.6394 16.9569 20.653 17.007 20.578C17.023 20.6098 17.155 20.578 17.2119 20.5461C17.3075 20.5166 17.5351 20.4347 17.6671 20.5461C17.8788 20.5598 18.045 20.5962 17.9995 20.6326L18.3432 20.6621L18.3068 20.7531C18.6209 20.7281 18.589 20.6758 18.803 20.5802C19.058 20.6184 19.3178 20.6107 19.5701 20.5575C19.611 20.5607 19.6521 20.5607 19.693 20.5575L19.5632 20.5211C19.6397 20.5265 19.7166 20.5196 19.7909 20.5006C19.8483 20.4828 19.9084 20.4752 19.9684 20.4779C19.9274 20.4779 19.9183 20.462 20.0367 20.4779H20.1551C20.1214 20.4857 20.0863 20.4857 20.0526 20.4779L20.0982 20.5097C20.2074 20.5477 20.3254 20.5524 20.4373 20.5234C20.5389 20.4887 20.6469 20.4763 20.7537 20.487C20.7309 20.487 20.6922 20.487 20.6649 20.487L20.8197 20.5188L20.9085 20.5416C20.9358 20.5416 20.9813 20.5666 20.9768 20.5416C20.9921 20.5104 21 20.4762 21 20.4415C21 20.4068 20.9921 20.3726 20.9768 20.3415C20.9788 20.283 20.9679 20.2247 20.9449 20.1709V20.0594C20.9469 20.0958 20.9469 20.1322 20.9449 20.1686C20.9153 20.0776 20.8789 19.9958 20.8994 19.9958V19.6001C20.9048 19.5184 20.8939 19.4365 20.8675 19.359L20.9017 19.3044C20.8857 19.193 20.9017 19.1884 20.9199 19.2021C21.02 18.795 20.7787 18.613 20.8265 18.1764C20.7514 18.1082 20.7492 18.2855 20.7173 18.306C20.6406 18.1802 20.5707 18.0504 20.5079 17.9171C20.5275 17.7663 20.5381 17.6144 20.5397 17.4623C20.5397 17.3031 20.5534 17.1712 20.6285 17.1985C20.5397 16.8596 20.5853 17.3258 20.4919 17.1689V17.1302C20.51 17.2298 20.5022 17.3324 20.4692 17.4282C20.41 17.4691 20.3053 17.1871 20.2985 17.0916L20.41 17.1257C20.2871 16.8323 20.1687 16.9392 20.0094 16.7891C19.9616 16.5458 20.0936 16.6481 20.1573 16.5617L20.0435 16.3229L20.1118 16.2956C20.0344 16.1409 19.9479 16.1341 19.8842 15.9044C20.0185 16.0363 19.8022 15.5496 19.9821 15.7293C19.9502 15.5951 19.8091 15.6201 19.8637 15.5178C19.7522 15.47 19.8842 15.6406 19.8865 15.7157C19.8455 15.7634 19.8068 15.702 19.7613 15.6156C19.7161 15.5242 19.666 15.4354 19.611 15.3495C19.6566 15.3108 19.7203 15.4132 19.6679 15.229C19.6243 15.2092 19.5872 15.1772 19.5614 15.1368C19.5355 15.0965 19.5219 15.0495 19.5223 15.0015C19.4585 15.0379 19.3993 14.8264 19.347 14.7332C19.3971 14.8424 19.4403 15.0175 19.347 14.9834C19.2516 14.8961 19.1742 14.791 19.1194 14.6741L19.1649 14.8151C18.9805 14.7173 19.0761 14.5171 18.9009 14.3329C18.9731 14.3916 19.0492 14.4456 19.1285 14.4944C19.0306 14.4148 18.8576 14.267 18.7256 14.1328C18.7256 14.0532 18.7005 13.9781 18.6846 13.9054C18.6254 13.919 18.5389 13.7166 18.482 13.7644C18.3546 13.5369 18.6823 13.8712 18.7415 13.8599C18.5685 13.571 18.4843 13.728 18.3637 13.405C18.4046 13.405 18.4479 13.4255 18.4866 13.4391C18.4206 13.355 18.243 13.2254 18.259 13.1913C18.2407 13.2094 18.284 13.2413 18.3295 13.2913C18.1747 13.3391 17.9221 13.0002 17.8401 13.1344L17.9312 13.2481C17.7627 13.1026 17.5693 13.0798 17.4873 12.9229C17.4258 12.8001 17.6239 12.9115 17.7149 12.9365C17.567 12.7864 17.4873 12.9365 17.3075 12.766C17.3894 12.8683 17.3325 12.8933 17.2506 12.8706C17.3485 12.9729 17.5374 13.1935 17.5442 13.1117L17.5192 13.0662C17.5556 13.048 17.6216 13.0889 17.6626 13.1026C17.8037 13.2345 17.6785 13.2117 17.6876 13.2595C17.8879 13.5074 17.8128 13.1731 18.0108 13.3914V13.4414C18.1383 13.5165 18.2885 13.6688 18.3819 13.6529C18.3819 13.8167 18.6254 13.8803 18.6687 14.0395C18.5139 14.1942 18.3659 13.6325 18.1634 13.5847C18.2339 13.728 18.0245 13.5847 17.9357 13.5733C18.0701 13.6686 18.1993 13.7711 18.3227 13.8803C18.3227 13.9304 18.3227 14.1078 18.4456 14.126L18.4251 14.0941C18.5662 14.226 18.6004 14.1373 18.6732 14.292C18.6732 14.3238 18.6163 14.292 18.5958 14.292C18.6687 14.4307 18.7096 14.3693 18.7848 14.4421C18.8576 14.5808 18.6687 14.4421 18.7233 14.549C18.8963 14.6445 18.8622 14.7923 18.9509 14.9197C19.0192 14.7969 19.4062 15.3631 19.3333 15.022C19.4267 15.113 19.5018 15.2153 19.586 15.3154C19.586 15.4473 19.3151 15.1653 19.2742 15.3154C19.2332 15.2267 19.1831 15.1425 19.133 15.0561C19.0351 15.1653 19.5154 15.5542 19.454 15.8044C19.5155 15.9314 19.5533 16.0686 19.5655 16.2092L19.6702 16.1091C19.7044 16.2637 19.6566 16.3365 19.6361 16.3524C19.673 16.4252 19.7027 16.5013 19.7248 16.5799C19.6897 16.5614 19.6617 16.5318 19.6452 16.4957C19.6156 16.6322 19.6452 16.6526 19.7044 16.6754C19.7593 16.7415 19.7982 16.8193 19.8182 16.9028L19.7408 16.8391C19.7704 16.8892 19.8091 16.9506 19.8341 16.9506C19.8475 16.9855 19.8627 17.0196 19.8796 17.0529C19.9281 16.9765 19.9482 16.8856 19.9365 16.7959C19.9798 16.971 20.0094 17.128 20.0435 17.2781C20.08 17.4268 20.0908 17.5806 20.0754 17.7329C20.0344 17.7329 19.9593 17.6192 19.9639 17.6579C19.9775 17.8102 20.0799 17.9535 20.1346 17.9285C20.146 17.9603 20.1528 17.9853 20.1596 18.0081C20.1416 18.0283 20.1281 18.0522 20.1203 18.0781C20.1124 18.104 20.1103 18.1314 20.1141 18.1582C20.107 18.1904 20.107 18.2238 20.1141 18.256C20.2279 18.2855 20.2233 18.5835 20.2803 18.6381C20.2771 18.5614 20.2664 18.4852 20.2484 18.4106C20.3394 18.5175 20.4373 18.6153 20.3963 18.7199C20.2916 18.4925 20.3235 18.9746 20.2393 18.6403C20.1391 18.8973 20.3645 18.7495 20.3417 19.011L20.303 19.1816C20.2233 19.1634 20.2393 18.9201 20.2142 18.9542L20.2347 19.0656C20.1755 18.9587 20.1368 18.5312 20.0071 18.2901L20.0481 18.8109C20.0925 18.9789 20.1245 19.1499 20.1437 19.3226C20.1437 19.384 20.1573 19.4454 20.1664 19.5091V19.616C20.1664 19.6546 20.1664 19.691 20.1664 19.7274V19.757C20.1664 19.7683 20.1664 19.7797 20.1664 19.7774H20.1209C20.0556 19.7962 19.9935 19.8245 19.9365 19.8616H19.9502C19.9472 19.8789 19.9472 19.8966 19.9502 19.9139L19.932 19.8934C19.9116 19.9149 19.8895 19.9346 19.866 19.9526C19.6737 19.8883 19.4765 19.8396 19.2764 19.807C19.4084 19.857 19.4085 19.857 19.4221 19.9139C19.3948 19.9935 19.3743 20.0253 19.1786 19.998C19.1786 19.9412 19.2992 19.9435 19.1535 19.898C19.2286 19.9253 19.1535 19.9662 19.0761 19.973C18.9669 19.9366 18.7825 19.9298 18.7802 19.873C18.8229 19.8645 18.8672 19.8684 18.9077 19.8843C18.9578 19.8707 18.7005 19.8343 18.8508 19.7888L18.6527 19.8047C18.5367 19.7592 18.7301 19.732 18.6823 19.7024C18.3523 19.7411 18.1816 19.8684 17.8834 19.9048C17.8929 19.8669 17.8975 19.8279 17.897 19.7888C17.6694 19.7502 17.4031 19.923 17.139 19.9321C17.1777 19.8957 17.2756 19.9116 17.3553 19.8934C16.554 19.8457 15.8962 19.8434 15.1428 19.7251L14.947 19.8525L14.7513 19.7683C14.0329 19.7206 13.3118 19.7335 12.5957 19.807C12.368 19.807 12.4545 19.7183 12.3453 19.6819C11.8309 19.6683 11.7034 19.8116 11.2072 19.8411C11.2755 19.8025 11.3893 19.691 11.1776 19.6865C11.157 19.7184 11.1265 19.7428 11.0907 19.756C11.055 19.7691 11.016 19.7703 10.9795 19.7592L11.0478 19.7183C10.9249 19.6615 10.8088 19.7183 10.5562 19.691C10.1331 19.692 9.71365 19.769 9.31789 19.9184C8.9241 19.9048 9.35886 19.782 9.28375 19.7547C9.56145 19.8002 9.47723 19.732 9.53641 19.6865C9.39073 19.7229 9.21091 19.7456 9.13579 19.6546C8.9666 19.6468 8.79729 19.6676 8.63502 19.716C8.73745 19.6865 8.82623 19.7342 8.73062 19.7774C8.56218 19.7456 8.13425 19.7774 8.15929 19.666C7.18733 19.6887 6.11068 19.666 5.06133 19.666C4.88606 19.7251 5.19335 19.6887 5.09775 19.732C4.84281 19.807 4.89516 19.691 4.69258 19.7524L4.7768 19.691C4.70067 19.6889 4.62451 19.6935 4.54918 19.7047C4.52521 19.7046 4.50166 19.7109 4.48089 19.7229L4.43537 19.7456C4.35084 19.791 4.26151 19.8268 4.16904 19.8525C4.24871 19.782 4.11897 19.7956 4.25782 19.7524C4.24189 19.7524 4.24189 19.7388 4.25782 19.7115C4.2857 19.6697 4.31773 19.6308 4.35342 19.5955C4.42626 19.5159 4.48999 19.475 4.45812 19.4932C4.34541 19.5649 4.24217 19.6504 4.15084 19.7479C4.12125 19.7661 4.15083 19.6546 4.12352 19.6774C4.18497 19.5773 4.25554 19.5091 4.25782 19.4841C4.33294 19.4659 4.31472 19.5227 4.31245 19.5546C4.43992 19.4886 4.39439 19.4659 4.51048 19.4613C4.47335 19.4639 4.43608 19.4639 4.39895 19.4613V19.4454C4.4005 19.4348 4.4005 19.4241 4.39895 19.4136L4.42398 19.3089L4.39439 19.3885C4.39439 19.4158 4.37618 19.4431 4.36708 19.4454V19.434V19.4067L4.35342 19.3499C4.35342 19.3158 4.33293 19.2839 4.3261 19.2498C4.31229 19.1627 4.32416 19.0734 4.36025 18.9928C4.3261 18.9064 4.29879 18.82 4.27375 18.7336C4.3739 18.7336 4.31928 18.5585 4.36253 18.4356L4.4126 18.5243C4.42075 18.4098 4.45668 18.299 4.51731 18.2014C4.57877 18.3083 4.47178 18.3469 4.54462 18.4015C4.56094 18.3421 4.5807 18.2836 4.60381 18.2264C4.54918 18.2264 4.53324 18.0945 4.47178 18.2264C4.42085 18.1135 4.3932 17.9914 4.39046 17.8676C4.38773 17.7437 4.40997 17.6206 4.45585 17.5055C4.60381 17.344 4.47634 17.7329 4.59243 17.676C4.75859 17.2644 4.50138 17.0779 4.60608 16.8323C4.76314 16.5298 4.65843 16.5094 4.79501 16.1932C4.80867 16.3183 4.95434 15.9999 5.03629 15.9658V16.1159C5.05905 16.0136 5.12279 15.934 5.15238 15.9817C5.05678 15.959 5.27529 15.5565 5.34813 15.3268H5.26391C5.33347 15.1243 5.42749 14.9311 5.54389 14.7514C5.6873 14.4944 5.59852 14.524 5.66225 14.2806C5.78972 14.2169 5.84435 14.2806 5.88988 14.3579C5.81476 14.3989 5.75558 14.5194 5.66225 14.6126C5.59606 14.775 5.54279 14.9423 5.50292 15.113C5.45771 15.2764 5.39112 15.4332 5.30488 15.5792C5.39593 15.8066 5.39138 15.3518 5.54389 15.2335C5.54389 15.2335 5.54389 15.2563 5.54389 15.2676C5.5523 15.2557 5.56142 15.2443 5.57121 15.2335C5.51885 15.3518 5.45057 15.5542 5.51658 15.627C5.59852 15.4314 5.42552 15.3995 5.63266 15.2108C5.69412 15.0175 5.88988 14.9515 5.97183 14.8628C5.99004 14.7195 5.87395 14.6354 6.08336 14.3807V14.5581C6.29505 14.2579 6.06515 14.3306 6.28139 14.0623C6.19489 14.1487 6.2814 13.9076 6.12889 14.0873C6.19385 13.9077 6.30825 13.75 6.45894 13.6325C6.4817 13.5847 6.44073 13.6006 6.42252 13.5711C6.22221 13.6779 6.25635 13.869 6.0697 13.9372V14.1191C5.91492 14.2465 5.84208 14.2124 5.87394 14.0896C5.84208 14.1351 5.82842 14.1874 5.78745 14.2078C5.63267 14.1351 5.97638 14.0509 5.91264 13.9145L5.83297 14.0327C5.70778 14.0168 5.96727 13.7166 6.08791 13.5779C6.26318 13.4551 6.40659 13.33 6.47032 13.3732L6.31098 13.6006C6.45211 13.5392 6.5204 13.3209 6.62966 13.2049C6.64707 13.2036 6.66407 13.199 6.67973 13.1913C6.67159 13.1939 6.66284 13.1939 6.6547 13.1913C6.68053 13.1711 6.71107 13.1578 6.74347 13.1526C6.84727 13.0323 6.95824 12.9184 7.0758 12.8115L7.01889 12.7705L7.03028 12.8137C6.93695 12.8979 6.77989 12.9888 6.81631 12.8842C6.85464 12.8137 6.91592 12.7584 6.99001 12.7273C7.06409 12.6963 7.14655 12.6915 7.22376 12.7137C7.22376 12.7751 7.17823 12.8183 7.11222 12.8638C7.04356 12.907 6.98212 12.9607 6.93012 13.023C7.06214 13.0389 7.14636 12.8296 7.42179 12.7C7.40813 12.8638 7.15547 12.9092 7.19416 13.0389C7.38082 12.8956 7.38081 12.8115 7.58795 12.6659C7.58795 12.7273 7.41496 12.8933 7.47187 12.9252L7.61299 12.8524C7.32391 13.098 7.75412 12.9206 7.54698 13.1276C7.68128 13.0775 7.63575 12.9343 7.83151 12.866C7.76094 12.866 7.57885 12.8911 7.69949 12.7341C7.76095 12.6955 7.82924 12.6636 7.89297 12.6318C7.99768 12.6318 7.78371 12.8592 7.92711 12.816L8.08417 12.6568C8.05914 12.6318 7.96125 12.6796 7.98857 12.6045C8.0523 12.5818 8.07507 12.5226 8.09783 12.4544C8.09783 12.4203 8.11832 12.3816 8.13197 12.3452C8.16375 12.2949 8.20117 12.2484 8.24351 12.2065C8.36787 12.1219 8.50561 12.0589 8.65095 12.02C8.73973 11.9291 8.85809 11.8472 8.94231 11.7585C8.81484 11.5879 8.6942 11.4173 8.58494 11.2627C8.50028 11.1311 8.40834 11.0043 8.30952 10.8829C8.4552 11.033 8.40967 10.8283 8.41422 10.701C8.51438 10.9011 8.61681 10.8511 8.67144 10.8101C8.60543 10.6987 8.47341 10.66 8.46658 10.7374C8.42106 10.5099 8.33683 10.6214 8.33683 10.4121C8.33683 10.2802 8.45747 10.4372 8.48024 10.3826C8.40967 10.1551 8.33456 10.3621 8.28221 10.1074C8.30042 10.1074 8.31179 10.1392 8.32318 10.1074C8.32004 10.05 8.30435 9.99398 8.27721 9.94329C8.25008 9.89261 8.21215 9.84848 8.16612 9.81401C8.26855 9.64117 8.07506 9.4001 8.21391 9.4092C8.13652 9.07943 8.14791 9.46833 8.091 9.4092C8.0315 9.25633 8.0196 9.08907 8.05685 8.92933C8.0788 9.0079 8.09104 9.08886 8.09327 9.1704L8.18205 9.0908C8.19518 9.03169 8.19397 8.9703 8.17853 8.91175C8.16309 8.8532 8.13385 8.79919 8.09327 8.75422C8.03864 8.69054 7.99084 8.62459 8.0432 8.41763C8.08189 8.63141 8.11149 8.49041 8.17294 8.59502C8.15246 8.53362 8.19343 8.2175 8.11149 8.40626C8.11874 8.28386 8.14248 8.16299 8.18205 8.04693C8.17561 7.91756 8.15109 7.78972 8.10921 7.66713C8.15486 7.50774 8.23229 7.35922 8.33683 7.23048C8.40057 6.77563 8.66916 6.44132 8.83988 6.00239L8.81712 6.02968C9.04475 5.73176 8.61681 6.10018 8.83305 5.77951C8.90589 5.88868 9.01743 5.62487 9.15173 5.57483C9.22879 5.49814 9.30029 5.41606 9.36569 5.32922C9.43625 5.25417 9.49544 5.17684 9.5569 5.10179C9.61664 5.02424 9.68456 4.95333 9.75948 4.89029C9.83395 4.8202 9.91928 4.7626 10.0121 4.71972C10.0235 4.74246 10.0121 4.77658 9.95524 4.82888C10.0835 4.75953 10.2081 4.68362 10.3285 4.60146C10.4492 4.53778 10.5562 4.46501 10.6905 4.40588V4.42407C11.1321 4.324 11.4826 4.11705 11.9538 4.04882C11.9174 4.06474 11.9105 4.11022 11.8832 4.12614C12.0016 4.12614 12.1495 4.12614 12.2907 4.12614C12.4138 4.13333 12.5371 4.11474 12.6526 4.07156C12.7173 4.12299 12.7975 4.15105 12.8802 4.15116C12.9142 4.14637 12.9487 4.14637 12.9826 4.15116C13.0459 4.17473 13.1057 4.20687 13.1602 4.24668C13.1738 4.2717 13.1215 4.24668 13.0964 4.24668C13.1651 4.28515 13.2376 4.3164 13.3127 4.33992C13.385 4.3686 13.4557 4.40125 13.5244 4.43772L13.9796 4.51276C14.1496 4.54474 14.3073 4.6235 14.4349 4.74019C14.3598 4.87892 14.1754 4.61056 14.1003 4.71062C14.1989 4.72827 14.2882 4.77974 14.3529 4.85617C14.255 4.85617 14.3165 4.87892 14.2414 4.89484C14.2937 4.97216 14.6375 5.01082 14.6306 5.01992C14.6238 5.02902 14.642 4.96761 14.5669 4.91076C14.7217 4.91076 14.9152 5.21323 15.0927 5.3656C15.0517 5.3042 14.9038 5.11999 15.0199 5.13818C15.0964 5.23165 15.1908 5.30896 15.2976 5.3656C15.3971 5.40567 15.4917 5.45678 15.5798 5.51798C15.6345 5.6658 15.5798 5.63624 15.4979 5.58848C15.4159 5.54072 15.3112 5.48159 15.2862 5.5339C15.2611 5.58621 15.2862 5.7363 15.1747 5.67035C15.2365 5.76549 15.3091 5.85324 15.3909 5.93189L15.5093 6.04333C15.5464 6.08406 15.5806 6.12738 15.6117 6.17296H15.5821C15.6232 6.24311 15.6696 6.31002 15.7209 6.37309C15.771 6.43904 15.812 6.50954 15.8575 6.5755C15.9019 6.64117 15.9422 6.70953 15.9782 6.78018C16.0052 6.84797 16.0228 6.91913 16.0305 6.99168V6.84158C16.0647 6.88707 16.1079 7.04626 16.1967 7.11449C16.1489 7.11449 16.158 7.34191 16.092 7.26459C16.1876 7.31235 16.2559 7.49201 16.3196 7.6694C16.3438 7.83435 16.4087 7.99068 16.5085 8.12425C16.4698 8.2175 16.4015 8.15154 16.3606 8.12425C16.3469 7.9173 16.3606 7.83997 16.29 7.74218C16.315 7.91502 16.29 8.04465 16.249 8.02191C16.3197 8.13038 16.3705 8.2505 16.3993 8.37669C16.4238 8.48672 16.4694 8.59097 16.5336 8.68372C16.4812 8.81335 16.4448 8.93388 16.3606 8.88385C16.3765 9.42512 16.6519 8.62913 16.5996 9.24773C16.4812 9.51836 16.5199 8.96345 16.4448 9.34552V9.27274C16.1876 9.51381 16.5791 9.48652 16.5085 9.80491C16.3833 9.82083 16.4676 9.57749 16.3401 9.76625C16.3082 10.0505 16.4448 10.2211 16.3105 10.494L16.2786 10.4326C16.1952 10.666 16.0971 10.8938 15.985 11.1149C15.9577 11.1149 15.9736 11.0899 15.985 11.0557C15.7847 11.3355 15.9736 11.2127 15.7574 11.4128V11.5129C15.917 11.3842 16.0285 11.2055 16.0738 11.0057C16.0578 11.2036 16.3333 10.8124 16.3879 10.9329L16.3651 10.8829C16.7248 10.5008 16.9342 9.86632 17.048 9.22953C17.0185 9.04497 17.0185 8.8569 17.048 8.67234C17.0722 8.48117 17.063 8.28725 17.0207 8.09924C16.875 8.04465 16.9843 8.02191 16.9069 7.65576C16.9501 7.84907 17.0161 7.65576 17.0161 7.53295C16.9664 7.46329 16.9273 7.38665 16.9 7.30553C16.9194 7.1934 16.9194 7.07879 16.9 6.96667C16.8879 6.83005 16.8383 6.69942 16.7566 6.58914C16.7248 6.36172 16.8158 6.62326 16.8591 6.66419C16.8978 6.54821 16.7498 6.50045 16.7612 6.41403C16.7676 6.41397 16.774 6.41562 16.7796 6.41882C16.7852 6.42202 16.7898 6.42664 16.7931 6.43222C16.7202 6.26848 16.6701 6.13202 16.6223 5.99329C16.5745 5.85456 16.5062 5.72266 16.4243 5.55209C16.2946 5.59303 16.1785 5.27009 16.0464 5.15865C16.117 5.17457 15.9577 4.96079 15.9099 4.86072L15.705 4.77203C15.5047 4.68788 15.5593 4.53096 15.3454 4.38086L15.3727 4.44226C15.2546 4.35813 15.1476 4.25957 15.054 4.14889C14.9425 4.01698 14.815 3.89872 14.7604 3.8123C14.0839 3.48197 13.369 3.23675 12.6321 3.08227C11.8473 2.91221 11.0282 3.00741 10.3035 3.3529C10.2056 3.43705 10.415 3.38247 10.3513 3.47571C10.1806 3.55759 10.1487 3.58715 9.99849 3.66675C10.1487 3.62809 10.1055 3.59852 10.1055 3.64173C10.1779 3.58592 10.2539 3.53502 10.3331 3.48936C10.349 3.48936 10.3331 3.50983 10.3559 3.51665C10.4401 3.45892 10.5301 3.41013 10.6245 3.3711C10.4856 3.46662 10.4856 3.5735 10.2716 3.62809C10.2716 3.60534 10.3035 3.5917 10.3536 3.55986C10.1829 3.62581 10.2033 3.68267 10.0713 3.72133C9.9393 3.75999 9.96662 3.78728 9.92565 3.75999C9.76404 3.82595 9.61836 3.91919 9.4704 3.98742C9.40352 4.10481 9.30798 4.20339 9.1927 4.27397C9.09027 4.33992 8.99467 4.38541 8.96508 4.4127C8.93549 4.29899 9.1927 4.16253 9.24505 4.00789L9.05385 4.08066L9.09482 4.14434C9.01504 4.19496 8.93898 4.2512 8.8672 4.31263V4.29216C8.86945 4.31709 8.86357 4.34207 8.85045 4.36339C8.83732 4.3847 8.81764 4.4012 8.79436 4.41042C8.77843 4.41042 8.74656 4.41042 8.76477 4.39223L8.65778 4.56052C8.68055 4.42634 8.52121 4.66741 8.47796 4.59236C8.3099 4.76451 8.17078 4.96265 8.06596 5.17912C8.021 5.26693 7.97083 5.35199 7.91573 5.43383C7.8555 5.53882 7.78538 5.63781 7.70632 5.72948C7.78826 5.67035 7.73591 5.94326 7.66307 6.09563C7.60616 6.17523 7.57657 6.19115 7.57202 6.12065L7.52649 6.34807C7.41553 6.451 7.33652 6.58362 7.29887 6.73015C7.24652 6.87797 7.21465 7.04627 7.14864 7.24185L7.11449 7.21228C7.12136 7.29629 7.12136 7.38072 7.11449 7.46472C7.11275 7.56553 7.10208 7.66599 7.08262 7.76492L7.01206 7.71262C6.92556 7.9878 7.1327 7.94004 7.07125 8.24479C7.15547 8.24479 7.20099 8.06057 7.28749 8.04011C7.19417 8.10151 7.1714 8.42445 7.23286 8.35168C7.25334 8.6496 7.22148 8.55863 7.20099 8.5791C7.21465 8.63823 7.23514 8.69509 7.25107 8.75194C7.25107 8.96117 7.14409 8.82472 7.09629 8.75194C7.15414 8.95971 7.17266 9.17644 7.15092 9.391L7.10312 9.30458C7.10312 9.40465 7.11449 9.50471 7.12815 9.60251C7.22438 9.82466 7.28653 10.06 7.31253 10.3007C7.26245 10.2529 7.21009 10.2075 7.16229 10.1574C7.15091 10.3462 7.22148 10.2393 7.25107 10.2802C7.29787 10.3671 7.32572 10.4629 7.33278 10.5613C7.33984 10.6597 7.32596 10.7584 7.29204 10.8511C7.35355 10.9472 7.40178 11.0513 7.43544 11.1604C7.45365 11.2127 7.46959 11.2695 7.48324 11.3218L7.50601 11.4037V11.4151C7.47414 11.4333 7.42179 11.4083 7.53332 11.4424ZM20.8561 19.318V19.3567C20.8174 19.2657 20.7947 19.2248 20.8561 19.318ZM19.3197 20.4984C19.5905 20.4552 19.5041 20.4984 19.5245 20.537C19.2582 20.5075 19.1103 20.537 18.8758 20.5052C18.901 20.5229 18.9208 20.5473 18.9327 20.5757C18.8394 20.5757 18.7461 20.5461 18.7051 20.4893C18.8303 20.3801 19.4358 20.5621 19.3197 20.4984ZM19.7021 16.7163L19.7362 16.7368L19.7021 16.7163ZM20.1573 17.9353C20.1379 17.964 20.1291 17.9986 20.1323 18.0331C20.1469 18.0219 20.1577 18.0066 20.1634 17.9891C20.1691 17.9717 20.1693 17.9529 20.1642 17.9353H20.1573ZM20.1277 19.9184C20.1029 19.9018 20.0745 19.8912 20.0448 19.8877C20.0152 19.8841 19.9851 19.8877 19.957 19.898C20.0153 19.9111 20.0748 19.9179 20.1346 19.9184H20.1277ZM4.01881 19.8912C4.01881 19.9093 4.04157 19.9298 4.05978 19.9253C4.07524 19.9192 4.08921 19.9099 4.10076 19.898C4.10076 19.898 4.10075 19.8843 4.11669 19.8548C4.07799 19.8548 4.14856 19.7411 4.08937 19.7547C4.06385 19.7981 4.04251 19.8438 4.02564 19.8912H4.01881ZM6.60917 12.9797C6.62966 13.023 6.62055 13.098 6.67063 13.0957L6.65242 13.1094C6.67746 13.1094 6.69794 13.1094 6.69567 13.1094C6.74578 13.0792 6.79041 13.0407 6.82769 12.9957C6.73208 12.8842 6.81631 12.7728 6.60917 12.9797Z" fill="#242424"/>
<path d="M5.50746 15.3745L5.54151 15.3131C5.52911 15.333 5.51775 15.3535 5.50746 15.3745Z" fill="#242424"/>
<path d="M6.80678 13.0139C6.75453 13.0337 6.70556 13.0613 6.66151 13.0957C6.68875 13.0957 6.73188 13.0775 6.80678 13.0139Z" fill="#242424"/>
<path d="M17.7832 12.8547L17.8515 12.9001L17.765 12.7591C17.5374 12.6113 17.4873 12.6454 17.3894 12.6614C17.586 12.7803 17.7659 12.9248 17.9243 13.0912C17.8788 13.0116 17.831 12.9343 17.7832 12.8547Z" fill="#242424"/>
<path d="M17.5351 13.2959C17.5405 13.3439 17.5536 13.3907 17.5737 13.4346H17.6304C17.6019 13.3862 17.57 13.3398 17.5351 13.2959Z" fill="#242424"/>
<path d="M19.0849 15.8066L19.0123 15.5792C18.9442 15.5337 19.0078 15.8066 19.0849 15.8066Z" fill="#242424"/>
<path d="M19.2192 14.4898C19.1829 14.4603 19.142 14.433 19.1034 14.4057C19.1443 14.524 19.2237 14.6604 19.285 14.6536C19.1783 14.5262 19.2895 14.5967 19.2192 14.4898Z" fill="#242424"/>
<path d="M19.3402 16.3843C19.4536 16.4161 19.3946 16.6117 19.4877 16.6322C19.4468 16.5799 19.4287 16.3593 19.3402 16.3843Z" fill="#242424"/>
<path d="M20.0386 15.8976C20.0817 15.7884 19.9637 15.6952 19.9115 15.5405C19.9705 15.6634 19.9637 15.8726 20.0386 15.8976Z" fill="#242424"/>
<path d="M19.9928 17.5078C19.927 17.5078 19.9043 17.4145 19.8861 17.3008C19.9156 17.3326 19.9496 17.3486 19.9746 17.394C19.9133 17.2904 19.858 17.1833 19.8089 17.0734C19.8089 17.2326 19.8453 17.4577 19.7635 17.4555C19.8498 17.5441 19.9746 17.6579 19.9928 17.5078Z" fill="#242424"/>
<path d="M20.2024 16.2501C20.1962 16.121 20.1702 15.9937 20.1252 15.8726C20.0957 15.9158 20.0594 15.9908 20.1457 16.1591L20.0503 16.125C20.0685 16.3092 20.1162 16.0227 20.2024 16.2501Z" fill="#242424"/>
<path d="M19.9883 18.2196L20.0042 18.14C19.9066 17.9808 19.8861 17.7557 19.7772 17.6852C19.8213 17.8726 19.8924 18.0526 19.9883 18.2196Z" fill="#242424"/>
<path d="M20.2961 16.9119H20.4005C20.3619 16.7277 20.3733 16.9369 20.3302 16.8801C20.3306 16.8213 20.3123 16.7639 20.2779 16.7163C20.3619 16.9028 20.2076 16.7482 20.2961 16.9119Z" fill="#242424"/>
<path d="M20.5784 17.4691L20.676 17.6965L20.7418 17.485C20.6284 17.2189 20.6783 17.4827 20.5784 17.4691Z" fill="#242424"/>
<path d="M20.5784 17.7716L20.5648 17.8034L20.7917 18.1218C20.7349 17.9969 20.6633 17.8793 20.5784 17.7716Z" fill="#242424"/>
<path d="M18.8461 19.8297C18.8075 19.873 19.0118 19.9275 18.9255 19.8798C18.9641 19.8434 18.6917 19.7865 18.8461 19.8297Z" fill="#242424"/>
<path d="M19.6862 20.6507C19.4938 20.6409 19.3011 20.6609 19.1148 20.7099C19.2855 20.6894 19.7089 20.7099 19.6862 20.6507Z" fill="#242424"/>
<path d="M19.0579 20.7213L19.1146 20.7099C19.0953 20.7112 19.0763 20.7151 19.0579 20.7213Z" fill="#242424"/>
<path d="M13.0303 20.9487C13.0161 20.9453 13.0014 20.9453 12.9872 20.9487H13.0303Z" fill="#242424"/>
<path d="M13.1738 20.9214C13.2859 20.9391 13.4007 20.9182 13.4993 20.8623C13.3412 20.88 13.1845 20.9089 13.0304 20.9487C13.0987 20.9418 13.1807 20.976 13.1738 20.9214Z" fill="#242424"/>
<path d="M11.7899 20.8986C11.8625 20.8714 11.9601 20.885 11.9351 20.8441C11.9101 20.8031 11.7422 20.8691 11.7899 20.8986Z" fill="#242424"/>
<path d="M4.43296 19.0929C4.46473 18.9724 4.46019 18.8973 4.3921 18.9223C4.37621 19.0633 4.42388 18.9906 4.43296 19.0929Z" fill="#242424"/>
<path d="M4.40347 18.7609L4.43752 18.7495L4.4988 18.6767L4.40347 18.7609Z" fill="#242424"/>
<path d="M4.66071 17.933C4.67066 17.9503 4.6754 17.97 4.67432 17.9899C4.67659 17.9399 4.67886 17.9012 4.66071 17.933Z" fill="#242424"/>
<path d="M4.64249 18.0649L4.67201 18.0809C4.67201 18.0672 4.67201 18.0399 4.67201 18.0126C4.67201 18.0376 4.66065 18.0604 4.64249 18.0649Z" fill="#242424"/>
<path d="M4.73088 17.6852C4.68095 17.7284 4.64236 17.7738 4.59697 17.8193C4.59697 17.999 4.68776 17.6419 4.75131 17.8307C4.7445 17.7829 4.73315 17.7329 4.73088 17.6852Z" fill="#242424"/>
<path d="M4.86556 17.1302C4.94954 16.9938 4.88372 16.73 5.02217 16.6754C5.12658 16.2387 4.7952 16.6981 4.96089 16.2069C4.83152 16.4184 4.86102 16.5003 4.89507 16.5708C4.92911 16.6413 4.96089 16.7072 4.85875 16.896C4.9972 16.7391 4.86329 17.0574 4.86556 17.1302Z" fill="#242424"/>
<path d="M4.66069 17.1439C4.70609 17.1848 4.77191 16.996 4.76057 16.9164C4.7356 16.9778 4.61983 17.0461 4.66069 17.1439Z" fill="#242424"/>
<path d="M5.1319 16.3024L5.22722 16.1978L5.20679 16.15L5.1319 16.3024Z" fill="#242424"/>
<path d="M5.36861 15.8544V15.9999C5.36407 15.9431 5.47077 15.7702 5.36861 15.8544Z" fill="#242424"/>
<path d="M5.78717 15.2631C5.86888 15.1721 5.78717 14.9925 5.68958 15.2358L5.72589 15.188C5.73724 15.2131 5.85753 15.1221 5.78717 15.2631Z" fill="#242424"/>
<path d="M6.57249 13.7871C6.51348 13.8508 6.45674 13.9372 6.49532 13.9463L6.63151 13.7507L6.57249 13.7871Z" fill="#242424"/>
<path d="M6.26694 13.5642C6.13756 13.5642 6.1194 13.7439 5.99457 13.8531C6.09127 13.7626 6.18224 13.6661 6.26694 13.5642Z" fill="#242424"/>
<path d="M6.85459 13.6802C6.8387 13.7553 6.75473 13.8076 6.71161 13.8485C6.77062 13.8621 6.86821 13.7371 6.85459 13.6802Z" fill="#242424"/>
<path d="M7.09401 13.3959C7.17595 13.3709 7.11904 13.446 7.17823 13.4232C7.30738 13.3576 7.41369 13.2546 7.48323 13.1276C7.42405 13.1276 7.30797 13.0798 7.32845 13.0002C7.14864 13.2003 7.17823 13.4232 6.98931 13.4141C6.97565 13.5028 6.95971 13.5892 6.95061 13.6825C7.11222 13.5506 6.98475 13.4892 7.09401 13.3959Z" fill="#242424"/>
<path d="M6.49535 13.5642L6.63379 13.4937C6.57478 13.4778 6.63379 13.3914 6.68372 13.3209C6.57024 13.2663 6.54528 13.4983 6.49535 13.5642Z" fill="#242424"/>
<path d="M8.21391 12.4066L8.6373 12.1178L8.48934 12.1997L8.21391 12.4066Z" fill="#242424"/>
<path d="M8.53487 12.2565L8.57799 12.2725L8.87077 12.02L8.53487 12.2565Z" fill="#242424"/>
<path d="M9.0734 11.9791L9.00986 12.0109L8.75793 12.1974L9.0734 11.9791Z" fill="#242424"/>
<path d="M8.74883 11.0103V11.1149C8.8328 11.2377 8.91224 11.4833 8.97579 11.4605C8.86893 11.3284 8.79154 11.1749 8.74883 11.0103Z" fill="#242424"/>
<path d="M6.92784 9.1272C6.96416 9.19088 6.99139 9.14994 7.01863 9.109L6.92784 9.01349C6.93465 9.04305 6.946 9.10218 6.92784 9.1272Z" fill="#242424"/>
<path d="M7.06415 8.69963L6.9779 8.4381C6.94839 8.74057 7.02556 8.7815 7.0528 9.04077C7.07777 8.92933 7.00286 8.77696 7.03464 8.63823L7.06415 8.69963Z" fill="#242424"/>
<path d="M9.18587 4.16708C9.20864 4.23076 9.24733 4.18755 9.12897 4.33992C9.21142 4.2442 9.30289 4.15662 9.40211 4.07838L9.73444 3.85096C9.66843 3.85096 9.82777 3.66674 9.73444 3.73952L9.47495 3.96694L9.49089 3.90099C9.26554 3.98969 9.39984 4.02835 9.18587 4.16708Z" fill="#242424"/>
<path d="M16.292 10.3962C16.2716 10.3621 16.2353 10.3962 16.1989 10.4121C16.1694 10.5782 16.2988 10.353 16.292 10.3962Z" fill="#242424"/>
</svg>
