<svg width="35" height="35" viewBox="0 0 35 35" fill="none" xmlns="http://www.w3.org/2000/svg">
<path d="M18.6653 26.9972C18.7869 27.0265 18.6957 26.9972 18.6957 26.9678L18.6653 26.9972Z" fill="black"/>
<path d="M18.6958 26.9679L18.7262 26.9385C18.6958 26.9385 18.6958 26.9385 18.6958 26.9679Z" fill="black"/>
<path d="M18.7871 26.6738C18.8784 26.7326 18.7567 26.8207 18.8784 26.8501C18.9392 26.7914 18.9088 26.7032 18.7871 26.6738Z" fill="black"/>
<path d="M18.6957 26.7618L18.7565 26.7912L18.6653 26.7324L18.6957 26.7618Z" fill="black"/>
<path d="M18.6351 26.8206H18.6655L18.5742 26.7324L18.6351 26.8206Z" fill="black"/>
<path d="M18.8174 26.4678L18.8478 26.5265C18.7565 26.5853 18.7261 26.4972 18.6653 26.5265C18.6653 26.6147 18.8782 26.5559 18.8478 26.6441C18.939 26.6441 18.8478 26.4972 18.9999 26.4972C18.9999 26.4384 18.8782 26.4972 18.8174 26.4678Z" fill="black"/>
<path d="M17.9353 21.502L17.9657 21.4727C17.9657 21.4727 17.9657 21.4727 17.9353 21.502Z" fill="black"/>
<path d="M18.3307 23.2363C18.3003 23.2657 18.3003 23.2657 18.3003 23.2657C18.3003 23.2657 18.3307 23.2657 18.3307 23.2363Z" fill="black"/>
<path d="M17.7529 21.8546L17.7833 21.8252C17.7529 21.8252 17.7529 21.8546 17.7529 21.8546Z" fill="black"/>
<path d="M19 25.4689C19 25.4395 19 25.4395 19 25.4102C18.9391 25.4395 18.9391 25.4395 19 25.4689Z" fill="black"/>
<path d="M18.9696 25.44C19.0304 25.4106 19.2129 25.4106 19 25.3518H18.9696C19.0304 25.3224 18.9391 25.2931 18.9391 25.2637C18.9087 25.2637 18.9087 25.2637 18.8783 25.2637C18.8783 25.2637 18.8783 25.2931 18.8479 25.3224C18.8479 25.3812 18.9391 25.3812 18.9696 25.44Z" fill="black"/>
<path d="M18.0887 22.5898C18.0567 22.5898 18.0567 22.6208 18.0887 22.5898V22.5898Z" fill="black"/>
<path d="M18.2395 22.8535V22.8829C18.2395 22.8535 18.2699 22.8535 18.2395 22.8535Z" fill="black"/>
<path d="M19.4865 11.3653C19.5169 11.3947 19.4561 11.3947 19.4257 11.4241C19.5473 11.4829 19.4257 11.3066 19.5473 11.3947C19.5473 11.3653 19.5169 11.3653 19.5169 11.3359L19.3953 11.3653C19.4257 11.4241 19.4257 11.3359 19.4865 11.3653Z" fill="black"/>
<path d="M19.0911 16.1545C19.1519 16.1545 19.1519 16.1545 19.1823 16.1251C19.0911 16.0957 18.9694 16.1545 18.8782 16.0957C18.8782 16.0957 18.8782 16.1251 18.8782 16.1545C18.939 16.0957 19.0302 16.1251 19.0911 16.1545Z" fill="black"/>
<path d="M18.8783 16.125C18.8479 16.125 18.8479 16.125 18.8479 16.125V16.1544L18.8783 16.125Z" fill="black"/>
<path d="M19.3042 20.3857L19.3346 20.4151C19.3346 20.4151 19.3346 20.3857 19.3042 20.3857Z" fill="black"/>
<path d="M18.9696 16.7422L18.9392 16.7716C18.9392 16.7716 18.9392 16.7716 18.9392 16.801L18.9696 16.7422Z" fill="black"/>
<path d="M17.7833 14.7737C17.9354 14.8031 17.7833 14.7443 17.8441 14.7149L17.7833 14.6855C17.7529 14.7149 17.7833 14.7443 17.7833 14.7737Z" fill="black"/>
<path d="M18.8174 16.3604V16.5073L18.8478 16.4779C18.7566 16.4485 18.9086 16.3604 18.8174 16.3604Z" fill="black"/>
<path d="M17.6921 15.42H17.6008C17.7833 15.5669 17.5096 15.7432 17.7833 15.8607C17.4792 16.037 18.0571 15.9783 17.7833 16.1546H17.8137C17.7529 16.6835 17.6008 17.2711 17.7529 17.7706H17.6921C17.6008 18.5934 17.7225 19.3867 17.6617 20.1801C17.7225 20.2682 17.8442 20.2094 17.905 20.2682C17.905 20.2976 17.905 20.3564 17.8442 20.3564C17.8137 20.2976 17.7225 20.327 17.7225 20.327C17.7225 20.4151 17.6312 20.5327 17.7225 20.6208L17.8137 20.562C17.8442 20.5914 17.8137 20.6502 17.8137 20.6796C17.7529 20.6796 17.6617 20.709 17.6312 20.6796C17.8746 20.8559 17.54 20.8265 17.6312 20.944C17.8442 20.9734 17.9962 21.1497 18.1483 21.2672L18.0875 21.326C18.0875 21.2379 17.9354 21.326 17.9354 21.2379C17.8746 21.326 17.9658 21.4142 17.9354 21.4729C17.9962 21.4435 18.0571 21.4729 18.0875 21.5023C18.0571 21.5611 17.9658 21.5611 17.9354 21.6198L17.905 21.5317C17.8137 21.5611 17.9354 21.5904 17.9354 21.6492C17.8442 21.6492 17.8442 21.7374 17.7529 21.7374C17.8746 21.8255 17.8137 21.8549 17.8746 21.9137C17.9658 21.8255 17.9962 21.943 18.0571 21.9137L18.0266 21.8255C17.9658 21.9724 17.9962 21.7667 17.8746 21.7961C17.9354 21.7374 18.1179 21.8843 18.0875 21.7667C18.1483 21.8843 18.0875 21.9137 18.2091 22.0606C18.1787 21.9724 18.3004 22.09 18.3612 22.0312C18.3612 22.1193 18.3004 22.0606 18.2091 22.09C18.2091 22.1487 18.1179 22.1781 18.2396 22.2075C18.2091 22.2956 18.1179 22.2075 18.0571 22.2369C17.9658 22.2075 18.1787 22.0018 17.8746 22.0018C17.8746 21.943 17.7529 21.9137 17.7529 21.8255C17.7225 21.8843 17.6008 21.9724 17.6921 22.0312H17.8746C17.8746 22.09 17.9962 22.09 17.9962 22.1487C17.9354 22.1193 17.8746 22.1781 17.8746 22.2075C17.905 22.2075 17.905 22.1781 17.9354 22.1781C17.9354 22.2663 18.0571 22.2663 18.1179 22.3544C18.1787 22.2663 18.2091 22.2663 18.3004 22.1781C18.422 22.2075 18.3308 22.2369 18.3308 22.2663C18.3004 22.2663 18.3004 22.2369 18.27 22.2663L18.3308 22.325C18.27 22.4132 18.1483 22.325 18.0875 22.3838C17.9962 22.4426 18.1483 22.4719 18.0875 22.5013H18.1179V22.5307C18.1483 22.5895 18.1179 22.6482 18.2091 22.6482C18.1787 22.6482 18.2091 22.707 18.2396 22.707C18.27 22.7364 18.3916 22.7952 18.2396 22.8539C18.2091 22.9127 18.1787 22.9715 18.1179 22.9715L18.0875 23.089H17.9658C17.9962 23.1771 18.0571 23.1771 18.2091 23.2359C18.1483 23.2947 18.2091 23.4122 18.2396 23.471V23.5004L18.3004 23.471C18.3004 23.5591 18.3612 23.5297 18.3612 23.5885C18.3612 23.5885 18.3916 23.5885 18.3612 23.6179V23.6473C18.3612 23.6473 18.3612 23.6473 18.3612 23.6179H18.3308C18.2091 23.6767 18.3916 23.706 18.3612 23.7648V23.7354C18.3308 23.7648 18.1483 23.8236 18.27 23.853C18.27 23.853 18.27 23.8823 18.3004 23.8823L18.2091 23.9411C18.2091 23.9411 18.2091 23.9117 18.2396 23.9117C18.27 23.9411 18.3308 23.9411 18.3004 23.9411L18.27 24.0293C18.2396 24.0586 18.27 24.0586 18.27 24.088L18.2091 24.1174C18.2091 24.1468 18.1787 24.1468 18.1787 24.1468C17.9962 24.2643 18.27 24.3231 18.1179 24.47C18.2091 24.4994 18.2396 24.4406 18.3004 24.4406C18.3612 24.47 18.422 24.5288 18.4829 24.5581C18.3612 24.6169 18.27 24.7932 18.0875 24.7638C18.0875 24.8814 18.1787 24.7344 18.2396 24.7932C18.27 24.7638 18.3308 24.7344 18.3916 24.7051C18.4829 24.7051 18.5133 24.7932 18.4829 24.8226L18.3612 24.7932C18.422 24.8814 18.6045 24.8814 18.7262 24.9401C18.6654 25.0283 18.5437 24.9695 18.4525 24.9989L18.4829 25.087H18.3916C18.422 25.1458 18.5133 25.1458 18.4829 25.234C18.3916 25.1752 18.3916 25.3515 18.27 25.2633C18.2396 25.2927 18.422 25.3221 18.3004 25.3221C18.3916 25.3515 18.3612 25.2927 18.3916 25.2633C18.5437 25.234 18.4525 25.3515 18.5133 25.4103C18.422 25.4103 18.422 25.3809 18.3612 25.4396C18.422 25.4396 18.4525 25.4984 18.3916 25.5278C18.4829 25.5278 18.422 25.5866 18.3916 25.6159C18.422 25.5866 18.4829 25.5278 18.5741 25.5572C18.6045 25.5866 18.635 25.6159 18.635 25.6747L18.6958 25.6159C18.8479 25.6747 18.6045 25.7041 18.635 25.7922C18.5741 25.7629 18.5741 25.7335 18.5133 25.7041C18.5741 25.7335 18.635 25.8216 18.6654 25.851L18.5133 25.9098C18.5741 25.9098 18.5133 25.9685 18.6045 25.9685C18.5437 26.0567 18.4829 25.9098 18.422 25.9098C18.3612 25.9979 18.5741 25.9979 18.422 26.0861L18.3308 26.0567C18.3308 26.0861 18.3916 26.1448 18.3308 26.1448C18.3612 26.1448 18.3612 26.1155 18.3612 26.1155C18.5437 26.1448 18.5133 26.2624 18.6958 26.2624V26.2036C18.7262 26.2624 18.8783 26.3211 18.787 26.3799C18.7262 26.4093 18.635 26.3505 18.6045 26.3211C18.6045 26.3799 18.8174 26.3799 18.8174 26.4387C18.8479 26.4093 18.9087 26.4093 18.9695 26.4387C18.9695 26.3799 19.0304 26.2918 18.9391 26.3211L18.9087 26.3505C18.8479 26.3505 18.8479 26.3211 18.8174 26.3211C18.8174 26.2624 18.9087 26.2918 18.9391 26.2918C18.9695 26.2036 18.7262 26.2918 18.7566 26.2036H18.787C18.7262 26.1448 18.7262 26.0861 18.6045 26.0861C18.7262 26.0567 18.5437 25.9685 18.635 25.9392C18.9087 25.9392 18.6045 26.0861 18.787 26.1448C18.8479 26.0861 18.9391 26.1742 18.9999 26.2036L18.8783 26.0567C18.9087 26.0567 19.0608 25.9979 18.9695 25.9685C18.9391 25.9098 18.8174 25.9098 18.8479 25.8804C18.8783 25.8804 18.9087 25.8804 18.9391 25.8804C18.9695 25.8216 18.8783 25.851 18.8479 25.8216C18.8783 25.7629 18.9695 25.851 18.9999 25.7922C18.8783 25.7335 19.0304 25.7041 19.0304 25.6453C18.8783 25.6747 18.8174 25.4396 18.6654 25.5572L18.5437 25.4396C18.635 25.4103 18.787 25.5278 18.9087 25.4984V25.5866C19.1216 25.5572 18.787 25.3809 18.9999 25.3221C18.9999 25.2633 18.9695 25.2927 19.0912 25.2046L18.9087 25.234C18.9391 25.1752 19.0608 25.1752 19.0912 25.1752C19.0912 25.1458 19.0912 25.1164 19.0912 25.087C19.1216 25.087 19.152 25.1164 19.152 25.1164C19.2433 25.087 19.2128 25.0577 19.152 25.0577C19.0912 25.0283 19.1216 24.9989 19.1216 24.9695L19.1824 24.9989C19.1824 24.9695 19.152 24.9695 19.1216 24.9695C19.1216 24.9695 19.1216 24.9401 19.0912 24.9401C19.0608 24.9401 18.9391 24.9695 18.9087 24.9989C18.9695 24.8814 18.9391 24.7932 19.0912 24.7051C19.152 24.7051 19.2128 24.7344 19.2128 24.7344C19.2433 24.6757 19.152 24.6463 19.0608 24.6463V24.6169C19.0912 24.6169 19.152 24.5875 19.152 24.5875C19.1824 24.5875 19.1824 24.5875 19.1824 24.5581C19.0304 24.5288 19.1216 24.4406 19.0304 24.4406C19.0304 24.47 19.0304 24.4994 19.0304 24.5288C18.9391 24.4994 18.8174 24.4406 18.9087 24.4112C18.9999 24.47 19.0608 24.3231 19.0912 24.4406C19.2737 24.3525 18.9695 24.4112 19.0304 24.3231L19.0912 24.2643C19.1824 24.2643 19.152 24.3525 19.1824 24.3231V24.2937C19.2737 24.3231 19.2128 24.47 19.3345 24.5581L19.3953 24.3818C19.2737 24.1762 19.4257 23.9117 19.1824 23.7354C19.1824 23.7354 19.152 23.7354 19.1216 23.7354H19.152L19.0608 23.706C19.152 23.6767 19.1824 23.5885 19.2433 23.5297C19.1824 23.5591 19.1824 23.5591 19.0912 23.5885C18.9999 23.5885 18.9391 23.5885 18.9695 23.5004C19.0303 23.5004 19.0304 23.5297 19.0912 23.5004C19.0608 23.5297 18.9999 23.5004 18.9999 23.471C19.0608 23.4416 19.0608 23.3828 19.1216 23.3828C19.152 23.4122 19.1216 23.4122 19.0912 23.4122C19.1216 23.4416 19.152 23.3534 19.2128 23.3828L19.1824 23.3241C19.2433 23.2947 19.2737 23.3534 19.3345 23.3241C19.2737 23.2359 19.1216 23.1771 19.0608 23.089C19.0912 23.089 19.2737 23.089 19.2128 23.089C19.2737 23.0302 19.0304 22.9421 19.0304 22.8539C19.0912 22.8539 19.0608 22.8833 19.0912 22.9127C19.152 22.6776 19.152 22.4719 19.3041 22.2369L19.1216 22.1781L19.2433 22.1193C19.3649 21.8843 19.2433 21.6786 19.1824 21.4435C19.1824 21.3848 19.3041 21.4141 19.3345 21.3554C19.3649 21.2085 19.152 21.1497 19.1216 21.0028C19.1824 21.0322 19.3345 21.0616 19.3345 21.0028C19.2737 21.0028 19.2128 20.9734 19.2433 20.944L19.3041 20.9734C19.3953 20.944 19.3041 20.8853 19.3345 20.8265C19.3345 20.6796 19.2128 20.562 19.0304 20.4445C19.0608 20.327 19.2128 20.4445 19.2433 20.4445C19.1824 20.5327 19.2737 20.5033 19.3345 20.5327C19.2737 20.4739 19.2433 20.4445 19.3649 20.4151C19.3649 20.3564 19.3649 20.327 19.2737 20.2682C19.3041 20.2976 19.2433 20.327 19.1824 20.2976C19.2128 20.2388 19.1824 20.1213 19.3345 20.1213C19.3041 19.8275 19.3345 19.4749 19.3345 19.1516C19.2433 19.0929 19.3041 19.181 19.2433 19.1516C19.152 19.0635 19.3041 19.0929 19.2128 19.0341L19.3041 19.0635C19.3041 18.9753 19.152 18.8578 19.0912 18.7697C19.1824 18.799 19.1824 18.6815 19.2128 18.7697C19.1824 18.7109 19.6082 18.6815 19.5474 18.6227L19.152 18.6815C19.1216 18.6815 19.152 18.6227 19.1216 18.6227C19.2128 18.5934 19.3041 18.5346 19.3041 18.5052C19.3953 18.5052 19.3953 18.564 19.3649 18.5934C19.517 18.5934 19.4562 18.4758 19.6387 18.5346C19.6082 18.4464 19.5474 18.5346 19.4866 18.5052L19.517 18.4464L19.4562 18.5052C19.3953 18.4464 19.2737 18.4171 19.3649 18.3583L19.2128 18.2701C19.3345 18.2701 19.2433 18.2114 19.2737 18.182L19.3649 18.2114C19.3649 18.1526 19.3953 18.1232 19.4257 18.0939C19.5474 18.1232 19.3953 18.1526 19.517 18.1526L19.5474 18.0939C19.4866 18.0939 19.4257 18.0645 19.3649 18.0939C19.2128 18.0351 19.1216 18.0057 19.1216 17.8588C19.2433 17.8 19.2433 17.9176 19.3649 17.8882C19.4257 17.7413 19.0303 17.7119 19.0608 17.6237C19.1216 17.5062 18.9999 17.5356 18.9999 17.418C19.0912 17.4474 19.0912 17.3299 19.1824 17.3299L19.2737 17.3593C19.2433 17.3299 19.2737 17.3005 19.3345 17.3005C19.2128 17.3005 19.2128 17.1536 19.1824 17.0948H19.0912C19.0608 17.0361 18.9999 16.9479 19.0304 16.8891C18.9999 16.801 18.9087 16.8304 18.787 16.7422C18.8783 16.7128 18.9695 16.7128 19.0912 16.7128C19.0304 16.7422 19.0608 16.7716 19.0304 16.8304C19.1216 16.9479 19.3345 17.0361 19.2737 17.1536C19.517 17.2124 19.2433 17.0654 19.3345 17.0067H19.3649C19.3953 17.0361 19.4257 17.1242 19.5474 17.1242C19.517 17.0654 19.3041 17.0654 19.3953 16.9773C19.3345 16.9185 19.517 16.8598 19.5474 16.8304C19.4562 16.801 19.2737 16.7716 19.3041 16.6835L19.4257 16.7422C19.4257 16.6247 19.2128 16.6835 19.2433 16.5659C19.2128 16.5953 19.1216 16.5365 19.1216 16.5953C19.0608 16.5659 19.0303 16.4778 19.0608 16.419C19.0303 16.3896 18.9999 16.419 18.9695 16.419C18.8783 16.4778 19.0608 16.5365 18.9391 16.5659L19.0912 16.6247C19.0304 16.6835 18.9087 16.6835 18.8479 16.6541C18.8479 16.6835 18.8783 16.6835 18.8479 16.7128C18.635 16.7128 18.9391 16.6247 18.7262 16.6247L18.7566 16.6541C18.6045 16.6835 18.635 16.5659 18.635 16.5072C18.6958 16.4484 18.7262 16.3896 18.8174 16.3896L18.8479 16.4778C18.9391 16.419 18.787 16.3602 18.8174 16.3309H18.8479H18.8174L18.8479 16.3015C18.8479 16.2721 18.787 16.1839 18.8174 16.1546H18.7262H18.787C18.787 16.1839 18.7262 16.2427 18.6654 16.2133C18.6045 16.1252 18.787 16.0958 18.8479 16.0958C18.9999 16.1252 18.8479 16.1839 18.9087 16.2427C19.0608 16.2133 18.9087 16.1546 19.0304 16.0664C19.1824 16.0958 19.0304 16.1839 19.1824 16.1839C19.2128 16.0958 19.0912 16.0958 19.152 16.0076C19.2128 16.0076 19.2433 16.0958 19.3345 16.0958L19.3649 16.037C19.3649 16.1546 19.5474 16.0076 19.6082 16.1252C19.6691 16.0664 19.4866 16.0664 19.5778 16.0076C19.517 16.037 19.3953 16.0664 19.3345 16.0076L19.3649 15.9489C19.4257 15.9195 19.517 16.037 19.5778 15.9783L19.517 15.8901C19.4562 15.8901 19.4562 15.9195 19.3953 15.9195C19.4562 15.8901 19.2128 15.8607 19.152 15.802C19.152 15.7726 19.152 15.7432 19.2128 15.7138C19.0912 15.6257 19.0912 15.4787 18.9391 15.3906C19.0304 15.4494 19.0912 15.3906 19.152 15.3612C19.1824 15.4494 19.3041 15.4494 19.3953 15.42C19.3649 15.3612 19.2433 15.3318 19.1824 15.3612C19.2433 15.2731 19.0912 15.3024 19.1824 15.2437C19.2433 15.2143 19.3345 15.2731 19.3649 15.2437C19.3649 15.1555 19.1824 15.2143 19.2128 15.1261C19.2433 15.1261 19.2433 15.1261 19.2737 15.1261C19.3041 15.0674 19.2433 15.038 19.152 15.0086C19.3345 14.9499 19.1216 14.8617 19.3041 14.8911C19.2433 14.7736 19.2128 14.9205 19.152 14.8911C19.0608 14.8323 19.152 14.7442 19.152 14.7442C19.152 14.7736 19.2128 14.8029 19.1824 14.8323L19.3041 14.8029C19.3953 14.656 19.0303 14.7148 19.1216 14.5679C19.1824 14.6266 19.2128 14.5973 19.3041 14.6266C19.2737 14.5973 19.3041 14.5091 19.2128 14.5679C19.2128 14.5091 19.2433 14.4797 19.2737 14.4503C19.2128 14.3916 19.1824 14.3622 19.1216 14.3328C19.1216 14.274 19.2128 14.2153 19.2737 14.1859C19.1824 14.039 19.3345 13.8921 19.2433 13.7451C19.2737 13.6276 19.0608 13.8039 19.0912 13.657C19.2433 13.6864 19.1824 13.5688 19.2737 13.5395C19.3649 13.3925 19.152 13.275 19.2737 13.1281C19.3041 13.1281 19.3345 13.1281 19.3345 13.1575C19.3953 13.0399 19.3649 12.9518 19.3649 12.8636H19.3953C19.517 12.7167 19.3649 12.5698 19.3345 12.3935C19.3649 12.3935 19.4257 12.4229 19.4257 12.4229C19.4562 12.3347 19.4866 12.2172 19.3345 12.1584C19.4866 12.0703 19.2737 12.0997 19.4257 11.9528C19.4562 11.9528 19.4562 11.9528 19.4562 11.9821C19.517 11.9234 19.4866 11.8646 19.517 11.8059C19.4257 11.6589 19.2128 11.6296 19.2737 11.4533C19.4866 11.4533 19.3345 11.5414 19.4866 11.5708C19.4562 11.5414 19.3953 11.512 19.4562 11.4533C19.5474 11.4826 19.517 11.4533 19.5778 11.4826C19.6387 11.4533 19.3649 11.3357 19.3649 11.3357C19.3345 11.3357 19.3041 11.3357 19.3041 11.3651C19.1824 11.3357 19.3041 11.2182 19.2433 11.13C19.2433 11.1594 19.2128 11.2476 19.0912 11.2182C19.1216 11.1007 18.9391 11.0713 18.8479 11.0125C18.9391 10.9244 19.0304 11.0713 19.1824 11.0713C19.2433 11.0419 19.3649 11.0125 19.4257 11.0713C19.4562 10.9831 19.3345 10.9244 19.3041 10.8362H19.3345C19.3041 10.7187 19.1216 10.6011 19.2128 10.513L19.152 10.5718C19.1216 10.5424 19.152 10.513 19.0608 10.4542C19.1216 10.4542 19.1824 10.3955 19.2433 10.4248C19.0304 10.3661 19.1216 10.1898 18.9087 10.131C18.9695 10.1016 19.0608 10.131 19.0912 10.131C19.1216 9.95471 19.0912 9.95471 19.1824 10.0135C19.1824 9.95471 19.2433 9.92533 19.2737 9.92533C19.1216 9.86656 19.0912 9.71965 18.9391 9.69026C18.9999 9.66088 19.0608 9.60211 19.152 9.6315C19.0912 9.4552 18.787 9.71964 18.787 9.51396C18.9087 9.42581 18.9391 9.60211 18.9695 9.48458L18.9999 9.51396C19.3041 9.42581 18.787 9.4552 18.787 9.33766C18.9391 9.33766 18.9087 9.39643 19.0304 9.33766C18.9999 9.24951 18.7566 9.19075 18.787 9.1026L18.8479 9.13198C18.8479 9.07322 18.8783 8.95568 18.8479 8.89692C18.8783 8.89692 18.8783 8.89692 18.8783 8.9263C18.9391 8.80877 18.787 8.86753 18.9087 8.77938L18.8174 8.75C18.7566 8.80877 18.6958 8.89692 18.787 8.95568C18.6958 8.89692 18.5741 9.04383 18.4525 9.01445H18.5133C18.27 9.16136 18.2396 9.36705 18.1483 9.54335C18.3004 9.66088 18.0875 9.74903 18.2091 9.86656C18.3916 9.89594 18.2396 9.89594 18.27 10.0135C18.2396 9.95471 18.1179 10.0135 18.0875 10.0429C18.1483 10.0722 18.1483 10.1016 18.1787 10.131C18.1179 10.1604 17.9658 10.3073 18.0875 10.3367C18.0266 10.3955 18.0266 10.3073 17.9962 10.3073C17.905 10.3367 18.0571 10.3661 17.9962 10.3955H17.9658C17.9658 10.513 17.9354 10.5718 17.905 10.6599C18.0875 10.6599 17.9658 10.7774 18.0266 10.8068C17.9658 10.7774 17.9658 10.8656 17.9354 10.895L18.0875 10.9537C18.2091 11.0125 17.9962 11.0419 18.0571 11.1007L18.0875 11.0713C18.1483 11.13 18.0266 11.277 17.9354 11.3063C18.3004 11.8059 17.7225 12.0703 17.8442 12.5992C17.905 12.6286 17.9354 12.5698 18.0266 12.5992C18.0571 12.658 18.0266 12.658 18.0571 12.7167C18.1179 12.6873 18.0571 12.6873 18.0875 12.6873L18.0266 12.5992C18.0266 12.5992 18.0571 12.5992 18.0875 12.5992C18.0571 12.5698 18.0266 12.5404 18.0571 12.511C18.1179 12.5698 18.2396 12.5698 18.1787 12.6286C18.1483 12.6286 18.1483 12.6286 18.1483 12.5992C18.1483 12.658 18.2091 12.658 18.1787 12.6873C18.1483 12.7461 18.1787 12.7167 18.1179 12.7167L18.0571 12.893C18.2091 12.9812 18.0571 13.0693 18.0571 13.0693C17.9354 13.0399 18.0266 12.9812 17.905 12.9224L17.8137 12.9812H17.905L17.8746 13.0693H17.8442C17.8746 13.0693 17.9354 13.0987 17.8746 13.0987C17.8746 13.0987 17.8442 13.0987 17.8137 13.0987L17.905 13.1869C17.8137 13.1575 17.8746 13.2456 17.7529 13.2162C17.6921 13.3925 17.905 13.4513 17.7529 13.5982C17.8137 13.5688 17.9354 13.657 17.905 13.6864C17.8746 13.7158 17.8442 13.7158 17.8137 13.7158L17.8746 13.7745C17.6921 13.8627 17.8137 13.9214 17.7529 14.039H17.6921C17.7529 14.0684 17.8137 14.1271 17.7833 14.1859H17.6921C17.6312 14.274 17.905 14.2447 17.8442 14.3328C17.9658 14.3328 18.0266 14.274 18.1179 14.274C17.9962 14.3034 17.9962 14.3916 18.0571 14.3622C18.0875 14.4503 18.0571 14.421 18.0266 14.421L18.0875 14.4797C18.0875 14.5385 17.9354 14.5091 17.8746 14.4797C17.9962 14.5385 17.905 14.5973 17.905 14.656L17.8442 14.6266L17.8137 14.7148C17.905 14.7736 17.905 14.8323 17.8746 14.9205L17.7225 14.8617C17.6312 14.9205 17.7833 14.8911 17.7833 14.8911C17.8442 14.9792 17.7529 14.9792 17.6617 15.038C17.8746 15.1849 17.4792 15.3024 17.6921 15.42ZM18.27 24.1174C18.3004 24.1174 18.3308 24.1468 18.27 24.1174V24.1174ZM18.3004 23.4122C18.3612 23.5004 18.3004 23.471 18.2396 23.471C18.27 23.3828 18.2396 23.3534 18.27 23.2653C18.2396 23.2653 18.2091 23.2653 18.1787 23.2947C18.1787 23.2653 18.2091 23.2359 18.3004 23.2359C18.4525 23.2653 18.2091 23.4416 18.3004 23.4122ZM19.0304 24.9695H18.9999H19.0304ZM18.8783 24.5581C18.9087 24.5581 18.9391 24.5288 18.9391 24.5288C18.9087 24.5581 18.8783 24.5581 18.8783 24.5581ZM19.0608 23.7354C19.1216 23.706 19.0912 23.6767 19.0912 23.6473C19.0912 23.6767 19.0608 23.706 19.0608 23.7354ZM18.9999 18.564C19.0303 18.5934 19.0912 18.6227 19.1216 18.5934C19.0608 18.564 19.152 18.5346 19.0912 18.5052C19.0608 18.5346 18.9999 18.5346 18.9999 18.564ZM18.5133 16.1252C18.5741 16.1252 18.635 16.1546 18.6958 16.1252C18.7262 16.1252 18.7262 16.1252 18.7566 16.1252C18.7566 16.0958 18.787 16.0958 18.7566 16.0664C18.5437 16.0664 18.5133 16.0076 18.5133 16.1252Z" fill="black"/>
<path d="M18.7261 16.0664C18.7261 16.0664 18.6957 16.0958 18.6653 16.1252C18.6957 16.1252 18.7261 16.0958 18.7261 16.0664Z" fill="black"/>
<path d="M18.3613 26.3215L18.27 26.3508C18.3309 26.439 18.4221 26.439 18.5133 26.4684C18.4221 26.4096 18.4525 26.3508 18.4525 26.2627L18.3613 26.3215Z" fill="black"/>
<path d="M19 26.2921C19.0304 26.2921 19.0912 26.2627 19.0912 26.2627H19.0304L19 26.2921Z" fill="black"/>
<path d="M19.304 25.3223L19.2432 25.4104C19.304 25.4398 19.3952 25.3516 19.304 25.3223Z" fill="black"/>
<path d="M18.27 25.675L18.3309 25.7044C18.3917 25.675 18.3917 25.6162 18.3004 25.6162C18.3309 25.675 18.27 25.6162 18.27 25.675Z" fill="black"/>
<path d="M19.304 25.1165C19.1823 25.0871 19.3648 25.0283 19.2431 25.0283C19.2736 25.0577 19.1823 25.1165 19.304 25.1165Z" fill="black"/>
<path d="M18.1788 25.1748C18.0571 25.2042 18.1788 25.2336 18.1484 25.2923C18.1484 25.263 18.2701 25.2042 18.1788 25.1748Z" fill="black"/>
<path d="M18.9696 24.7055C19.0609 24.7055 19.0609 24.7349 19.0305 24.7643C19 24.7643 18.9696 24.7349 18.9392 24.7349C19 24.7937 19 24.7937 19.0305 24.8524C19.0913 24.7937 19.1217 24.7349 19.2434 24.7349C19.1825 24.7055 19.0609 24.6761 18.9696 24.7055Z" fill="black"/>
<path d="M18.1787 25.0576C18.1483 25.087 18.057 25.1164 18.0874 25.1751C18.1483 25.1751 18.2395 25.1458 18.2091 25.087L18.3003 25.1164C18.3612 25.0576 18.1787 25.1458 18.1787 25.0576Z" fill="black"/>
<path d="M19.2128 24.499L19.1824 24.5284C19.2736 24.5872 19.2128 24.6459 19.3344 24.6753C19.304 24.6166 19.2736 24.5284 19.2128 24.499Z" fill="black"/>
<path d="M18.3613 24.8516H18.2092C18.1788 24.9103 18.2701 24.8516 18.3005 24.8809C18.2701 24.9103 18.2701 24.9103 18.3005 24.9397C18.2701 24.8516 18.3917 24.9103 18.3613 24.8516Z" fill="black"/>
<path d="M18.2092 24.676L18.1484 24.6172L17.9963 24.6466C18.0572 24.7347 18.0876 24.676 18.2092 24.676Z" fill="black"/>
<path d="M18.3004 24.5873L18.1179 24.4697C18.2092 24.5285 18.2092 24.5285 18.3004 24.5873Z" fill="black"/>
<path d="M19.1825 23.2651C19.1216 23.2651 19.0608 23.3238 19.1216 23.2944C19.1825 23.2944 19.2433 23.2357 19.1825 23.2651Z" fill="black"/>
<path d="M18.0876 23.5298C18.118 23.5004 18.0572 23.4123 17.9963 23.3535C18.0268 23.4123 18.0268 23.5298 18.0876 23.5298Z" fill="black"/>
<path d="M17.7226 21.5314C17.6922 21.5608 17.753 21.6196 17.8138 21.6196C17.7834 21.5608 17.753 21.5314 17.6922 21.4727C17.6922 21.502 17.6618 21.5314 17.7226 21.5314Z" fill="black"/>
<path d="M17.7529 21.091C17.7833 21.1204 17.7833 21.1498 17.8138 21.1498C17.8746 21.1204 17.8138 21.0616 17.7529 21.091Z" fill="black"/>
<path d="M19.4865 18.2111C19.5169 18.1817 19.4865 18.1523 19.3953 18.1523C19.3953 18.2111 19.4561 18.1817 19.4865 18.2111Z" fill="black"/>
<path d="M19.365 18.0938H19.4258L19.4867 18.0645L19.365 18.0938Z" fill="black"/>
<path d="M19.5171 17.8296C19.5171 17.8296 19.5475 17.8296 19.5475 17.8589C19.5171 17.8296 19.5171 17.8002 19.5171 17.8296Z" fill="black"/>
<path d="M19.5169 17.7412L19.3953 17.8C19.4561 17.8587 19.4561 17.7412 19.6082 17.8L19.5169 17.7412Z" fill="black"/>
<path d="M19.4866 17.536C19.517 17.4773 19.3346 17.4185 19.4866 17.3891C19.3954 17.2422 19.2433 17.4185 19.1825 17.2422C19.0912 17.3891 19.4866 17.3303 19.3954 17.4773C19.4562 17.4185 19.4562 17.5066 19.4866 17.536Z" fill="black"/>
<path d="M19.2128 17.5647C19.3041 17.5647 19.3041 17.5059 19.2432 17.4766C19.2432 17.5059 19.152 17.5353 19.2128 17.5647Z" fill="black"/>
<path d="M19.4258 17.2707L19.4866 17.2119H19.4258V17.2707Z" fill="black"/>
<path d="M19.4561 17.0944L19.5473 17.1238C19.4865 17.1238 19.5169 17.0357 19.4561 17.0944Z" fill="black"/>
<path d="M19.5474 16.86C19.5779 16.8306 19.365 16.7719 19.4258 16.86V16.8306C19.4562 16.8306 19.5474 16.8013 19.5474 16.86Z" fill="black"/>
<path d="M19.2432 16.3018C19.2432 16.3311 19.2736 16.3605 19.304 16.3605L19.2432 16.3018Z" fill="black"/>
<path d="M18.7262 16.3018C18.6045 16.3311 18.7262 16.3605 18.6958 16.4193C18.7262 16.3899 18.7262 16.3899 18.7262 16.3018Z" fill="black"/>
<path d="M19.3953 16.2129C19.4561 16.2423 19.4257 16.2717 19.3953 16.2717C19.4865 16.2717 19.4865 16.2129 19.3953 16.2129Z" fill="black"/>
<path d="M19.365 16.0961C19.4258 16.0668 19.4258 16.0961 19.4563 16.0961C19.5171 16.0374 19.5171 15.9786 19.4258 15.9492C19.365 15.9492 19.2129 15.9786 19.1521 15.9492C19.1825 16.0374 19.4258 16.0668 19.2433 16.1255L19.4563 16.1843C19.5475 16.1255 19.365 16.1549 19.365 16.0961Z" fill="black"/>
<path d="M18.9391 16.2718L18.9999 16.2131C18.9391 16.2131 18.9087 16.1837 18.8782 16.1543C18.7566 16.1837 18.9391 16.2425 18.9391 16.2718Z" fill="black"/>
<path d="M19.2737 15.6253L19.2433 15.5078L19.2129 15.5372L19.2737 15.6253Z" fill="black"/>
<path d="M19.3345 15.5373H19.3649L19.2737 15.4785L19.3345 15.5373Z" fill="black"/>
<path d="M19.365 15.4492L19.3954 15.508L19.365 15.4492Z" fill="black"/>
<path d="M19.3954 15.2441L19.3346 15.2735C19.365 15.3029 19.2738 15.3617 19.365 15.3323C19.3346 15.3029 19.365 15.2441 19.3954 15.2441Z" fill="black"/>
<path d="M17.6921 14.5675C17.7226 14.5969 17.7834 14.5675 17.8138 14.5675L17.6921 14.5381C17.6921 14.5381 17.7226 14.5675 17.6921 14.5675Z" fill="black"/>
<path d="M17.8746 14.4505L17.7529 14.3623C17.7225 14.4505 17.8442 14.4505 17.8442 14.5386C17.8746 14.5092 17.7833 14.4505 17.8138 14.4211L17.8746 14.4505Z" fill="black"/>
<path d="M17.9658 12.9815C18.057 12.9815 18.0266 12.9815 18.0875 13.0403C18.0266 12.9521 18.057 12.8933 18.0266 12.8052C17.9658 12.8052 17.8746 12.7464 17.905 12.7758L17.9658 12.864H17.905C17.8746 12.9227 18.0266 12.9227 17.9658 12.9815Z" fill="black"/>
<path d="M18.8782 9.16088C18.9086 9.16088 18.9694 9.16088 18.9998 9.16088C18.939 9.10212 18.8782 9.16088 18.8782 9.16088Z" fill="black"/>
<path d="M27.6381 17.9762C27.6685 17.8586 27.6381 17.9468 27.6077 17.9468L27.6381 17.9762Z" fill="black"/>
<path d="M27.6076 17.9474L27.5771 17.918C27.5771 17.9474 27.5771 17.9474 27.6076 17.9474Z" fill="black"/>
<path d="M27.3035 17.8877C27.3643 17.7996 27.4555 17.9171 27.486 17.7996C27.4251 17.7114 27.3339 17.7408 27.3035 17.8877Z" fill="black"/>
<path d="M27.4251 17.9465V17.8877L27.3643 18.0052L27.4251 17.9465Z" fill="black"/>
<path d="M27.4555 18.0059L27.3643 18.0646L27.4555 18.0059Z" fill="black"/>
<path d="M27.0906 17.8296L27.1514 17.8002C27.2122 17.8884 27.121 17.9178 27.1514 17.9765C27.2427 17.9765 27.1818 17.7709 27.2731 17.8002C27.2731 17.7121 27.121 17.8002 27.121 17.6533C27.0602 17.6533 27.121 17.7709 27.0906 17.8296Z" fill="black"/>
<path d="M21.9503 18.6817L21.9199 18.6523C21.9199 18.6523 21.9199 18.6817 21.9503 18.6817Z" fill="black"/>
<path d="M23.7449 18.3291C23.7753 18.3585 23.7753 18.3585 23.7753 18.3585C23.7753 18.3291 23.7753 18.3291 23.7449 18.3291Z" fill="black"/>
<path d="M20.7337 18.8867C20.7033 18.8867 20.7033 18.8867 20.6729 18.8867C20.7033 18.9161 20.7033 18.8867 20.7337 18.8867Z" fill="black"/>
<path d="M22.3153 18.8575L22.2849 18.8281C22.2849 18.8575 22.3153 18.8575 22.3153 18.8575Z" fill="black"/>
<path d="M26.0564 17.6826C26.026 17.6826 26.026 17.6826 25.9956 17.6826C26.026 17.712 26.0564 17.712 26.0564 17.6826Z" fill="black"/>
<path d="M26.026 17.6821C25.9956 17.6233 25.9956 17.447 25.9348 17.6527V17.6821C25.9043 17.6233 25.8739 17.7114 25.8435 17.7114C25.8435 17.7408 25.8435 17.7408 25.8435 17.7702C25.8435 17.7702 25.8739 17.7702 25.9043 17.7996C25.9652 17.829 25.9652 17.7114 26.026 17.6821Z" fill="black"/>
<path d="M23.0757 18.5342C23.0757 18.5651 23.1077 18.5651 23.0757 18.5342V18.5342Z" fill="black"/>
<path d="M23.4103 18.3877H23.3799C23.3799 18.3877 23.3799 18.4171 23.4103 18.3877Z" fill="black"/>
<path d="M11.4572 17.1828C11.4876 17.1534 11.4876 17.2122 11.518 17.2416C11.5788 17.124 11.3963 17.2416 11.4876 17.124C11.4572 17.124 11.4572 17.1534 11.4268 17.1534L11.4572 17.2709C11.518 17.2416 11.4268 17.2416 11.4572 17.1828Z" fill="black"/>
<path d="M16.4148 17.5647C16.4148 17.5059 16.4148 17.5059 16.3844 17.4766C16.354 17.5647 16.4148 17.6822 16.354 17.7704C16.354 17.7704 16.3844 17.7704 16.4148 17.7704C16.354 17.7116 16.3844 17.6235 16.4148 17.5647Z" fill="black"/>
<path d="M16.3843 17.7705C16.3843 17.7999 16.3843 17.7999 16.3843 17.7999H16.4147C16.4147 17.7999 16.3843 17.7999 16.3843 17.7705Z" fill="black"/>
<path d="M12.3086 17.2422C12.3406 17.2422 12.3406 17.2731 12.3086 17.2422C12.3406 17.2422 12.3086 17.2422 12.3086 17.2422Z" fill="black"/>
<path d="M20.7947 17.3595L20.8251 17.3301C20.8251 17.3301 20.7947 17.3301 20.7947 17.3595Z" fill="black"/>
<path d="M17.0229 17.6826L17.0534 17.712C17.0534 17.712 17.0534 17.712 17.0838 17.712L17.0229 17.6826Z" fill="black"/>
<path d="M14.9853 18.8578C15.0157 18.7109 14.9549 18.8578 14.9245 18.799L14.894 18.8578C14.9245 18.8578 14.9549 18.8578 14.9853 18.8578Z" fill="black"/>
<path d="M13.7999 18.8884C13.7999 18.8575 13.7679 18.8575 13.7999 18.8884C13.7679 18.8575 13.7999 18.8575 13.7999 18.8884Z" fill="black"/>
<path d="M16.6277 17.8292H16.7798L16.7493 17.7998C16.7189 17.888 16.6277 17.7704 16.6277 17.8292Z" fill="black"/>
<path d="M15.6544 18.9166V19.0047C15.8065 18.8284 15.9889 19.0929 16.1106 18.8284C16.2931 19.1223 16.2323 18.564 16.4148 18.8284V18.799C16.9622 18.8578 17.5705 19.0047 18.0876 18.8578V18.9166C18.9392 19.0047 19.7604 18.8872 20.5817 18.946C20.6729 18.8872 20.6121 18.7697 20.6729 18.7109C20.7033 18.7109 20.7641 18.7109 20.7641 18.7697C20.7033 18.799 20.7337 18.8872 20.7337 18.8872C20.825 18.8872 20.9466 18.9753 21.0379 18.8872L20.9466 18.7697C20.9771 18.7403 21.0379 18.7697 21.0683 18.7697C21.0683 18.8284 21.0987 18.9166 21.0683 18.946C21.2508 18.7109 21.2204 19.0341 21.342 18.946C21.3724 18.7403 21.5549 18.5934 21.6766 18.4464L21.7374 18.5052C21.6462 18.5052 21.7374 18.6521 21.6462 18.6521C21.7374 18.7109 21.8287 18.6227 21.8895 18.6521C21.8591 18.5934 21.8895 18.5346 21.9199 18.5052C21.9808 18.5346 21.9808 18.6227 22.0416 18.6521L21.9808 18.7109C22.0112 18.799 22.0416 18.6815 22.1024 18.6815C22.1024 18.7697 22.1937 18.7697 22.1937 18.8578C22.2849 18.7403 22.3153 18.799 22.3762 18.7403C22.2849 18.6521 22.4066 18.6227 22.3762 18.564L22.2849 18.5934C22.437 18.6521 22.2241 18.6227 22.2545 18.7403C22.1937 18.6815 22.3457 18.5052 22.2241 18.5346C22.3457 18.4758 22.3762 18.5346 22.5282 18.4171C22.437 18.4464 22.5586 18.3289 22.4978 18.2701C22.5891 18.2701 22.5282 18.3289 22.5586 18.4171C22.6195 18.4171 22.6499 18.5052 22.6803 18.3877C22.7716 18.4171 22.6803 18.5052 22.7107 18.564C22.6803 18.6521 22.4674 18.4464 22.4674 18.7403C22.4066 18.7403 22.3762 18.8578 22.2849 18.8578C22.3457 18.8872 22.437 19.0047 22.4978 18.9166V18.7403C22.5586 18.7403 22.5586 18.6227 22.6195 18.6227C22.5891 18.6815 22.6499 18.7403 22.6803 18.7403C22.6803 18.7109 22.6499 18.7109 22.6499 18.6815C22.7411 18.6815 22.7411 18.564 22.8324 18.5052C22.7411 18.4464 22.7411 18.4171 22.6499 18.3289C22.6803 18.2114 22.7107 18.2995 22.7411 18.2995C22.7411 18.3289 22.7107 18.3289 22.7411 18.3583L22.802 18.2995C22.8932 18.3583 22.802 18.4758 22.8628 18.5346C22.9236 18.6227 22.954 18.4758 22.9845 18.5346V18.5052H23.0149C23.0757 18.4758 23.1365 18.5052 23.1365 18.4171C23.1365 18.4464 23.1974 18.4171 23.1974 18.3877C23.2278 18.3583 23.2886 18.2408 23.3494 18.3877C23.4103 18.4171 23.4711 18.4464 23.4711 18.5052L23.5928 18.5346V18.6521C23.684 18.6227 23.684 18.564 23.7448 18.4171C23.8057 18.4758 23.9273 18.4171 23.9882 18.3877H24.0186L23.9882 18.3289C24.0794 18.3289 24.049 18.2701 24.1098 18.2701C24.1098 18.2701 24.1098 18.2408 24.1402 18.2701H24.1707C24.1707 18.2701 24.1707 18.2701 24.1402 18.2701V18.2995C24.2011 18.4171 24.2315 18.2408 24.2923 18.2701H24.2619C24.2923 18.2995 24.3531 18.4758 24.3836 18.3583C24.3836 18.3583 24.414 18.3583 24.414 18.3289L24.4444 18.3583C24.4444 18.3583 24.414 18.3583 24.414 18.3289C24.4444 18.2995 24.4444 18.2408 24.4444 18.2701L24.5356 18.2995C24.5661 18.3289 24.5661 18.2995 24.5965 18.2995L24.6269 18.3583C24.6573 18.3583 24.6573 18.3877 24.6573 18.3877C24.779 18.564 24.8398 18.2995 24.9919 18.4464C25.0223 18.3583 24.9615 18.3289 24.9615 18.2701C24.9919 18.2114 25.0527 18.1526 25.0831 18.0938C25.1439 18.2114 25.3264 18.2995 25.296 18.4758C25.4177 18.4758 25.2656 18.3877 25.3264 18.3289C25.296 18.2995 25.2656 18.2408 25.2352 18.182C25.2352 18.0938 25.3264 18.0645 25.3569 18.0938L25.3264 18.2114C25.4177 18.1526 25.4177 17.9763 25.4785 17.8588C25.5698 17.9175 25.5089 18.0351 25.5393 18.1232L25.6306 18.0938V18.182C25.6914 18.1526 25.6914 18.0645 25.7827 18.0938C25.7218 18.182 25.9043 18.182 25.8131 18.2995C25.8435 18.3289 25.8739 18.1526 25.8739 18.2701C25.9043 18.182 25.8435 18.2114 25.8131 18.182C25.7827 18.0351 25.9043 18.1232 25.9652 18.0645C25.9652 18.1526 25.9347 18.1526 25.9956 18.2114C25.9956 18.1526 26.0564 18.1232 26.0868 18.182C26.0868 18.0938 26.1477 18.1526 26.1781 18.182C26.1477 18.1526 26.0868 18.0938 26.1172 18.0057C26.1477 17.9763 26.1781 17.9469 26.2389 17.9469L26.1781 17.8882C26.2389 17.7412 26.2693 17.9763 26.3606 17.9469C26.3301 18.0057 26.2997 18.0057 26.2693 18.0645C26.2997 18.0057 26.391 17.9469 26.4214 17.9175L26.4822 18.0645C26.4822 18.0057 26.5431 18.0645 26.5431 17.9763C26.6343 18.0351 26.4822 18.0938 26.4822 18.1526C26.5735 18.2114 26.5735 18.0057 26.6647 18.1526L26.6343 18.2408C26.6647 18.2408 26.7255 18.182 26.7255 18.2408C26.7255 18.2114 26.6951 18.2114 26.6951 18.2114C26.7255 18.0351 26.8472 18.0645 26.8472 17.8882H26.7864C26.8472 17.8588 26.908 17.7119 26.9689 17.8C26.9993 17.8588 26.9384 17.9469 26.908 17.9763C26.9689 17.9763 26.9689 17.7706 27.0297 17.7706C26.9993 17.7412 26.9993 17.6825 27.0297 17.6237C26.9689 17.6237 26.8776 17.5649 26.908 17.6531L26.9384 17.6825C26.9384 17.7412 26.908 17.7412 26.908 17.7706C26.8472 17.7706 26.8776 17.6825 26.8776 17.6531C26.7864 17.6237 26.8776 17.8588 26.7864 17.8294V17.8C26.7255 17.8588 26.6647 17.8588 26.6647 17.9763C26.6343 17.8588 26.5431 18.0351 26.5126 17.9469C26.5126 17.6825 26.6647 17.9763 26.7255 17.8C26.6647 17.7412 26.756 17.6531 26.7864 17.5943L26.6343 17.7119C26.6343 17.6825 26.5735 17.5356 26.5431 17.6237C26.4822 17.6531 26.4822 17.7706 26.4518 17.7412C26.4518 17.7119 26.4518 17.6825 26.4518 17.6531C26.391 17.6237 26.4214 17.7119 26.391 17.7412C26.3301 17.7119 26.4214 17.6237 26.3606 17.5943C26.2997 17.7119 26.2693 17.5649 26.2085 17.5649C26.2389 17.7119 25.9956 17.7706 26.1172 17.9175L25.9652 18.182C25.9347 18.0938 26.0564 17.9469 26.026 17.8294H26.1172C26.0868 17.6237 25.9043 17.9469 25.8435 17.7412C25.7827 17.7412 25.8131 17.7706 25.7218 17.6531L25.7523 17.8294C25.6914 17.8 25.6914 17.6825 25.6914 17.6531C25.661 17.6531 25.6306 17.6531 25.6002 17.6531C25.6002 17.6237 25.6306 17.5943 25.6306 17.5943C25.6002 17.5062 25.5698 17.5356 25.5698 17.5943C25.5393 17.6531 25.5089 17.6237 25.4785 17.6237L25.5089 17.5943C25.4785 17.5943 25.4785 17.6237 25.4785 17.6531C25.4785 17.6531 25.4481 17.6531 25.4481 17.6825C25.4481 17.7119 25.4785 17.8294 25.5089 17.8588C25.3873 17.8 25.296 17.8294 25.2048 17.6825C25.2048 17.6237 25.2352 17.5649 25.2352 17.5649C25.1744 17.5356 25.1439 17.6237 25.1439 17.7119H25.1135C25.1135 17.6825 25.0831 17.6237 25.0831 17.6237C25.0831 17.5943 25.0831 17.5943 25.0527 17.5943C25.0223 17.7412 24.931 17.6531 24.931 17.7412C24.9615 17.7412 24.9919 17.7412 25.0223 17.7412C24.9919 17.8294 24.931 17.9469 24.9006 17.8588C24.9615 17.7706 24.8094 17.7119 24.931 17.6825C24.8398 17.5062 24.9006 17.8 24.8094 17.7412L24.7485 17.6825C24.7485 17.5943 24.8398 17.6237 24.8094 17.5943H24.779C24.8094 17.5062 24.9615 17.5649 25.0527 17.4474L24.8702 17.3886C24.6573 17.5062 24.3836 17.3593 24.2011 17.5943C24.2011 17.5943 24.2011 17.6237 24.2011 17.6531V17.6237L24.1707 17.7119C24.1402 17.6237 24.049 17.5943 23.9882 17.5356C24.0186 17.5943 24.0186 17.5943 24.049 17.6825C24.049 17.7706 24.049 17.8294 23.9578 17.8C23.9578 17.7412 23.9882 17.7412 23.9578 17.6825C23.9882 17.7119 23.9578 17.7706 23.9273 17.7706C23.8969 17.7119 23.8361 17.7119 23.8361 17.6531C23.8665 17.6237 23.8665 17.6531 23.8665 17.6825C23.8969 17.6531 23.8057 17.6237 23.8361 17.5649L23.7753 17.5943C23.7448 17.5356 23.8057 17.5062 23.7753 17.4474C23.684 17.5062 23.6232 17.6531 23.5319 17.7119C23.5319 17.6825 23.5319 17.5062 23.5319 17.5649C23.4711 17.5062 23.3799 17.7412 23.2886 17.7412C23.2886 17.6825 23.319 17.7119 23.3494 17.6825C23.1061 17.6237 22.8932 17.6237 22.6499 17.4768L22.5891 17.6531L22.4674 17.4474C22.2241 17.3299 22.0112 17.4474 21.7678 17.5062C21.707 17.5062 21.7374 17.3886 21.6766 17.3593C21.5245 17.3299 21.4637 17.5356 21.3116 17.5649C21.342 17.5062 21.3725 17.3593 21.3116 17.3593C21.3116 17.418 21.2812 17.4768 21.2508 17.4474L21.2812 17.3886C21.2508 17.3005 21.19 17.3886 21.1291 17.3593C20.9771 17.3593 20.8554 17.4768 20.7337 17.6531C20.6121 17.6237 20.7337 17.4768 20.7337 17.4474C20.825 17.5062 20.7946 17.418 20.825 17.3593C20.7641 17.418 20.7337 17.4474 20.7033 17.3299C20.6425 17.3299 20.6121 17.3299 20.5512 17.418C20.5817 17.3886 20.6121 17.4474 20.5817 17.5062C20.5208 17.4768 20.3992 17.5062 20.3992 17.3593C20.095 17.3886 19.73 17.3593 19.3955 17.3593C19.3346 17.4474 19.4259 17.3886 19.3955 17.4474C19.3042 17.5356 19.3346 17.3886 19.2738 17.4768L19.3042 17.3886C19.213 17.3886 19.0913 17.5356 19.0001 17.5943C19.0305 17.5062 18.9088 17.5062 19.0001 17.4768C18.9392 17.5062 18.9088 17.0948 18.848 17.1536L18.9088 17.5356C18.9088 17.5649 18.848 17.5356 18.848 17.5649C18.8176 17.4768 18.7567 17.3886 18.7263 17.3886C18.7263 17.3005 18.7872 17.3005 18.8176 17.3299C18.8176 17.183 18.6959 17.2417 18.7567 17.0654C18.6655 17.0948 18.7567 17.1536 18.7263 17.2123L18.6655 17.183L18.7263 17.2417C18.6655 17.3005 18.6351 17.418 18.5742 17.3299L18.483 17.4768C18.483 17.3593 18.4222 17.4474 18.3918 17.418L18.4222 17.3299C18.3613 17.3299 18.3309 17.3005 18.3005 17.2711C18.3309 17.1536 18.3613 17.3005 18.3613 17.183L18.3005 17.1536C18.3005 17.2123 18.2701 17.2711 18.3005 17.3299C18.2397 17.4768 18.2093 17.5649 18.0572 17.5649C17.9964 17.4474 18.118 17.4474 18.0876 17.3299C17.9355 17.2711 17.9051 17.6531 17.8139 17.6237C17.6922 17.5649 17.7226 17.6825 17.601 17.6825C17.6314 17.5943 17.5097 17.5943 17.5097 17.5062L17.5401 17.418C17.5097 17.4474 17.4793 17.418 17.4793 17.3593C17.4793 17.4768 17.3272 17.4768 17.2664 17.5062V17.5943C17.2056 17.6237 17.1143 17.6825 17.0535 17.6531C16.9622 17.6825 16.9926 17.7706 16.9014 17.8882C16.871 17.8 16.871 17.7119 16.871 17.5943C16.9014 17.6531 16.9318 17.6237 16.9926 17.6531C17.1143 17.5649 17.2056 17.3593 17.3272 17.418C17.388 17.183 17.236 17.4474 17.1751 17.3593V17.3299C17.2056 17.3005 17.2968 17.2711 17.2968 17.1536C17.236 17.183 17.236 17.3886 17.1447 17.3005C17.0839 17.3593 17.0231 17.183 16.9926 17.1536C16.9622 17.2417 16.9318 17.418 16.8406 17.3886L16.9014 17.2711C16.7797 17.2711 16.8406 17.4768 16.7189 17.4474C16.7493 17.4768 16.6885 17.5649 16.7493 17.5649C16.7189 17.6237 16.6277 17.6531 16.5668 17.6237C16.5364 17.6531 16.5668 17.6825 16.5668 17.7119C16.6277 17.8 16.6885 17.6237 16.7189 17.7412L16.7797 17.5943C16.8406 17.6531 16.8406 17.7706 16.8102 17.8294C16.8406 17.8294 16.8406 17.8 16.871 17.8294C16.871 18.0351 16.7797 17.7412 16.7797 17.9469L16.8102 17.9175C16.8406 18.0645 16.7189 18.0351 16.6581 18.0351C16.5972 17.9763 16.5364 17.9469 16.5364 17.8588L16.6277 17.8294C16.5668 17.7412 16.506 17.8882 16.4756 17.8588V17.8294V17.8588L16.4452 17.8294C16.4148 17.8294 16.3235 17.8882 16.2931 17.8588V17.9469V17.8882C16.3235 17.8882 16.3843 17.9469 16.3539 18.0057C16.2627 18.0645 16.2323 17.8882 16.2323 17.8294C16.2627 17.6825 16.3235 17.8294 16.3843 17.7706C16.3539 17.6237 16.2931 17.7706 16.2019 17.6531C16.2323 17.5062 16.3235 17.6531 16.3235 17.5062C16.2323 17.4768 16.2323 17.5943 16.141 17.5356C16.141 17.4768 16.2323 17.4474 16.2323 17.3593L16.1714 17.3299C16.2931 17.3299 16.141 17.1536 16.2627 17.0948C16.2018 17.036 16.2018 17.2123 16.141 17.1242C16.1714 17.183 16.2018 17.3005 16.141 17.3593L16.0802 17.3299C16.0498 17.2711 16.1714 17.183 16.1106 17.1242L16.0194 17.183C16.0194 17.2417 16.0498 17.2417 16.0498 17.3005C16.0194 17.2417 15.9889 17.4768 15.9281 17.5356C15.8977 17.5356 15.8673 17.5356 15.8369 17.4768C15.7456 17.5943 15.5935 17.5943 15.5023 17.7412C15.5631 17.6531 15.5023 17.5943 15.4719 17.5356C15.5631 17.5062 15.5631 17.3886 15.5327 17.3005C15.4719 17.3299 15.4415 17.4474 15.4719 17.5062C15.3806 17.4474 15.4111 17.5943 15.3502 17.5062C15.3198 17.4474 15.3806 17.3593 15.3502 17.3299C15.259 17.3299 15.3198 17.5062 15.2286 17.4768C15.2286 17.4474 15.2286 17.4474 15.2286 17.418C15.1677 17.3886 15.1373 17.4474 15.1069 17.5356C15.0461 17.3593 14.9548 17.5649 14.9852 17.3886C14.8636 17.4474 15.0157 17.4768 14.9852 17.5356C14.9244 17.6237 14.8332 17.5356 14.8332 17.5356C14.8636 17.5356 14.894 17.4768 14.9244 17.5062L14.894 17.3886C14.7419 17.3005 14.8027 17.6531 14.6507 17.5649C14.7115 17.5062 14.6811 17.4768 14.7115 17.3886C14.6811 17.418 14.5898 17.3886 14.6507 17.4768C14.5898 17.4768 14.5594 17.4474 14.529 17.418C14.4682 17.4768 14.4378 17.5062 14.4073 17.5649C14.3465 17.5649 14.2857 17.4768 14.2553 17.418C14.1032 17.5062 13.9511 17.3593 13.799 17.4474C13.6774 17.418 13.8599 17.6237 13.7078 17.5943C13.7382 17.4474 13.6165 17.5062 13.5861 17.418C13.4341 17.3299 13.3124 17.5356 13.1603 17.418C13.1603 17.3886 13.1603 17.3593 13.1907 17.3593C13.0691 17.3005 12.9778 17.3299 12.8866 17.3299V17.3005C12.7345 17.183 12.5824 17.3299 12.3999 17.3593C12.3999 17.3299 12.4304 17.2711 12.4304 17.2711C12.3391 17.2417 12.2174 17.2123 12.1566 17.3593C12.0654 17.2123 12.0958 17.418 11.9437 17.2711C11.9437 17.2417 11.9437 17.2417 11.9741 17.2417C11.9133 17.183 11.8525 17.2123 11.7916 17.183C11.6396 17.2711 11.6091 17.4768 11.4266 17.418C11.4266 17.2123 11.5179 17.3593 11.5483 17.2123C11.5179 17.2417 11.4875 17.3005 11.4266 17.2417C11.4571 17.1536 11.4266 17.183 11.4571 17.1242C11.305 17.0067 11.2137 17.2711 11.2137 17.2711C11.2137 17.3005 11.2137 17.3299 11.2442 17.3299C11.2137 17.4474 11.0921 17.3299 11.0008 17.3886C11.0312 17.3886 11.1225 17.418 11.0921 17.5356C10.9704 17.5062 10.94 17.6825 10.8792 17.7706C10.7879 17.6825 10.94 17.5943 10.94 17.4474C10.9096 17.3886 10.8792 17.2711 10.94 17.2123C10.8488 17.183 10.7879 17.3005 10.6967 17.3299V17.3005C10.575 17.3299 10.4534 17.5062 10.3621 17.418L10.4229 17.4768C10.3925 17.5062 10.3621 17.4768 10.3013 17.5649C10.3013 17.5062 10.2405 17.4474 10.2709 17.3886C10.21 17.5943 10.0275 17.5062 9.96671 17.7119C9.9363 17.6531 9.96671 17.5649 9.96671 17.5356C10.0275 17.5649 10.058 17.5943 10.0884 17.5062C10.0275 17.5062 9.99713 17.4474 9.99713 17.418C9.9363 17.5649 9.78422 17.5943 9.75381 17.7412C9.72339 17.6825 9.66256 17.6237 9.69298 17.5356C9.51048 17.5943 9.78422 17.8882 9.57132 17.8882C9.48007 17.7706 9.66256 17.7412 9.5409 17.7119L9.57132 17.6825C9.48007 17.3886 9.51048 17.8882 9.38882 17.8882C9.38882 17.7412 9.44965 17.7706 9.38882 17.6531C9.29758 17.6825 9.23675 17.9175 9.1455 17.8882L9.17592 17.8294C9.11509 17.8294 8.99342 17.8 8.93259 17.8294C8.93259 17.8 8.93259 17.8 8.96301 17.8C8.84135 17.7412 8.90218 17.8882 8.81093 17.7706L8.78052 17.8588C8.84135 17.9175 8.93259 17.9763 8.99342 17.8882C8.93259 17.9763 9.08467 18.0938 9.05426 18.2114V18.1526C9.20633 18.3877 9.41924 18.4171 9.60173 18.5052C9.72339 18.3583 9.81464 18.564 9.9363 18.4464C9.96671 18.2701 9.96671 18.4171 10.0884 18.3877C10.0275 18.4171 10.0884 18.5346 10.1188 18.564C10.1492 18.5052 10.1796 18.5052 10.21 18.4758C10.2405 18.5346 10.3925 18.6815 10.4229 18.564C10.4838 18.6227 10.3925 18.6227 10.3925 18.6521C10.4229 18.7403 10.4534 18.5934 10.4838 18.6521V18.6815C10.6054 18.6815 10.6663 18.7109 10.7575 18.7403C10.7575 18.564 10.8792 18.6815 10.9096 18.6227C10.8792 18.6815 10.9704 18.6815 11.0008 18.7109L11.0617 18.564C11.1225 18.4464 11.1529 18.6521 11.2137 18.5934L11.1529 18.4758C11.2137 18.4171 11.3658 18.5346 11.3962 18.6227C11.9133 18.2701 12.187 18.8284 12.7345 18.7109C12.7649 18.6521 12.7041 18.6227 12.7345 18.5346C12.7953 18.5052 12.7953 18.5346 12.8562 18.5052C12.8258 18.4464 12.8258 18.5052 12.8258 18.4758L12.7345 18.5346C12.7345 18.5346 12.7345 18.5052 12.7345 18.4758C12.7041 18.5052 12.6737 18.5346 12.6433 18.5052C12.7041 18.4464 12.7041 18.3289 12.7649 18.3877C12.7649 18.4171 12.7649 18.4171 12.7345 18.4171C12.7953 18.4171 12.7953 18.3583 12.8258 18.3877C12.8866 18.4171 12.8562 18.3877 12.8562 18.4464L13.0082 18.5052C13.0995 18.3583 13.1907 18.5052 13.1907 18.5052C13.1603 18.6227 13.0995 18.5346 13.0387 18.6521L13.0995 18.7403V18.6521L13.1907 18.6815V18.7109C13.1907 18.6815 13.2212 18.6227 13.2212 18.6815C13.2212 18.6815 13.2212 18.7109 13.2212 18.7403L13.282 18.6815C13.2516 18.7697 13.3428 18.7109 13.3124 18.8284C13.4949 18.8872 13.5557 18.6815 13.7078 18.8284C13.6774 18.7697 13.7686 18.6521 13.799 18.6815C13.8295 18.7109 13.8295 18.7403 13.8295 18.7697L13.8903 18.7109C13.9815 18.8872 14.0424 18.7697 14.164 18.8284V18.8872C14.1944 18.8284 14.2553 18.7697 14.3161 18.799V18.8872C14.4073 18.946 14.3769 18.6815 14.4682 18.7403C14.4682 18.6227 14.4073 18.564 14.4073 18.4758C14.4378 18.5934 14.529 18.5934 14.4986 18.5346C14.5898 18.5052 14.5594 18.5346 14.5594 18.564L14.6203 18.5052C14.6811 18.5052 14.6507 18.6521 14.6203 18.7109C14.6811 18.5934 14.7419 18.6815 14.8027 18.6815L14.8332 18.7697L14.9244 18.799C14.9852 18.7109 15.0461 18.7109 15.1373 18.7403L15.0765 18.8872C15.1373 18.9753 15.1069 18.8284 15.1069 18.8284C15.1981 18.7697 15.1981 18.8578 15.259 18.946C15.4111 18.7697 15.5327 19.1223 15.6544 18.9166ZM24.6573 18.3877C24.6573 18.3289 24.6877 18.2995 24.6573 18.3877V18.3877ZM23.9273 18.3289C24.0186 18.2701 23.9882 18.3289 23.9882 18.3877C23.8969 18.3583 23.8665 18.3877 23.7753 18.3583C23.7753 18.3877 23.7753 18.4171 23.8057 18.4464C23.7753 18.4464 23.7448 18.4171 23.7448 18.3289C23.7753 18.182 23.9578 18.4171 23.9273 18.3289ZM25.5393 17.6531V17.6825V17.6531ZM25.1135 17.7706C25.1135 17.7412 25.0831 17.7119 25.0831 17.7119C25.1135 17.7412 25.1135 17.7706 25.1135 17.7706ZM24.2619 17.5943C24.2315 17.5356 24.2011 17.5649 24.1707 17.5649C24.2011 17.5649 24.2315 17.5943 24.2619 17.5943ZM18.9088 17.6531C18.9392 17.6237 18.9696 17.5649 18.9392 17.5356C18.9088 17.5943 18.8784 17.5062 18.848 17.5649C18.8784 17.6237 18.8784 17.6531 18.9088 17.6531ZM16.3843 18.1232C16.3843 18.0645 16.4148 18.0057 16.3843 17.9469C16.3843 17.9175 16.3843 17.9175 16.3843 17.8882C16.3539 17.8882 16.3539 17.8588 16.3235 17.8882C16.3235 18.0938 16.2931 18.1232 16.3843 18.1232Z" fill="black"/>
<path d="M16.3235 17.918C16.3235 17.918 16.3539 17.9474 16.3843 17.9767C16.3843 17.9474 16.3539 17.918 16.3235 17.918Z" fill="black"/>
<path d="M26.9385 18.27L26.9689 18.3581C27.0602 18.2993 27.0602 18.2112 27.0906 18.123C27.0298 18.2112 26.9689 18.1818 26.8777 18.1818L26.9385 18.27Z" fill="black"/>
<path d="M26.9081 17.6536C26.9081 17.6242 26.8777 17.5654 26.8777 17.5654V17.6242L26.9081 17.6536Z" fill="black"/>
<path d="M25.9043 17.3596L25.9955 17.4183C26.026 17.3596 25.9347 17.2714 25.9043 17.3596Z" fill="black"/>
<path d="M26.2693 18.3585L26.2997 18.2997C26.2693 18.241 26.2085 18.241 26.2085 18.3291C26.2693 18.2997 26.2085 18.3585 26.2693 18.3585Z" fill="black"/>
<path d="M25.6913 17.3594C25.6609 17.4769 25.6001 17.3006 25.6001 17.4181C25.6305 17.3888 25.6913 17.4769 25.6913 17.3594Z" fill="black"/>
<path d="M25.7522 18.4468C25.7826 18.5644 25.813 18.4468 25.8739 18.4762C25.8434 18.4762 25.7826 18.3587 25.7522 18.4468Z" fill="black"/>
<path d="M25.2655 17.6824C25.2655 17.5943 25.2959 17.5943 25.3264 17.6237C25.3264 17.653 25.2959 17.6824 25.2959 17.7118C25.3568 17.653 25.3568 17.653 25.4176 17.6237C25.3568 17.5649 25.2959 17.5355 25.2959 17.418C25.2655 17.5061 25.2351 17.5943 25.2655 17.6824Z" fill="black"/>
<path d="M25.6306 18.4469C25.661 18.4763 25.6914 18.5644 25.7523 18.5351C25.7523 18.4763 25.7219 18.3881 25.661 18.4175L25.6914 18.3294C25.6306 18.2706 25.7219 18.4469 25.6306 18.4469Z" fill="black"/>
<path d="M25.0527 17.4769L25.0831 17.5063C25.144 17.4181 25.2048 17.4769 25.2352 17.3594C25.1744 17.3594 25.0831 17.4181 25.0527 17.4769Z" fill="black"/>
<path d="M25.4177 18.2704V18.4173C25.4786 18.4467 25.4177 18.3585 25.4481 18.3291C25.4786 18.3585 25.4786 18.3585 25.509 18.3291C25.4177 18.3585 25.4786 18.241 25.4177 18.2704Z" fill="black"/>
<path d="M25.2351 18.417L25.1743 18.4758L25.2351 18.6227C25.296 18.5639 25.2351 18.5345 25.2351 18.417Z" fill="black"/>
<path d="M25.1439 18.3291L25.0222 18.5054C25.083 18.4173 25.083 18.4466 25.1439 18.3291Z" fill="black"/>
<path d="M23.7753 17.4768C23.7753 17.5356 23.8362 17.5943 23.8058 17.5356C23.8362 17.5062 23.7449 17.418 23.7753 17.4768Z" fill="black"/>
<path d="M24.0489 18.5342C24.0185 18.5048 23.9273 18.5636 23.8665 18.6223C23.9273 18.5929 24.0489 18.6223 24.0489 18.5342Z" fill="black"/>
<path d="M21.9808 18.887C22.0112 18.9164 22.072 18.8576 22.072 18.7988C22.0112 18.8282 21.9808 18.8576 21.9199 18.9164C21.9503 18.9164 21.9808 18.9457 21.9808 18.887Z" fill="black"/>
<path d="M21.5244 18.8578C21.5548 18.8284 21.5852 18.8284 21.5852 18.799C21.5548 18.7696 21.5244 18.8284 21.5244 18.8578Z" fill="black"/>
<path d="M18.5437 17.2122C18.5133 17.1828 18.4829 17.2122 18.4829 17.3003C18.5437 17.271 18.5133 17.2122 18.5437 17.2122Z" fill="black"/>
<path d="M18.4223 17.3001V17.2414L18.3918 17.1826L18.4223 17.3001Z" fill="black"/>
<path d="M18.1483 17.1827C18.1483 17.1827 18.1483 17.1533 18.1788 17.1533C18.1483 17.1533 18.1179 17.1533 18.1483 17.1827Z" fill="black"/>
<path d="M18.0571 17.1536L18.118 17.2711C18.1788 17.2123 18.0571 17.2123 18.118 17.0654L18.0571 17.1536Z" fill="black"/>
<path d="M17.8442 17.1831C17.7834 17.1537 17.7225 17.33 17.6921 17.1831C17.54 17.2712 17.7225 17.4181 17.54 17.4769C17.6921 17.565 17.6313 17.1831 17.7834 17.2712C17.7225 17.2124 17.8442 17.2418 17.8442 17.1831Z" fill="black"/>
<path d="M17.8747 17.4473C17.8747 17.3591 17.8139 17.3591 17.7834 17.4179C17.8139 17.4179 17.8443 17.5354 17.8747 17.4473Z" fill="black"/>
<path d="M17.5706 17.2707L17.5098 17.2119V17.2413L17.5706 17.2707Z" fill="black"/>
<path d="M17.3882 17.2415L17.4186 17.1533C17.4186 17.1827 17.3577 17.1827 17.3882 17.2415Z" fill="black"/>
<path d="M17.1446 17.124C17.1142 17.0946 17.0534 17.3003 17.1446 17.2415H17.1142C17.1446 17.2121 17.0838 17.1534 17.1446 17.124Z" fill="black"/>
<path d="M16.5669 17.4474C16.5973 17.4474 16.6277 17.4181 16.6277 17.3887L16.5669 17.4474Z" fill="black"/>
<path d="M16.5669 17.918C16.5973 18.0355 16.6277 17.918 16.6886 17.9474C16.6581 17.918 16.6581 17.918 16.5669 17.918Z" fill="black"/>
<path d="M16.4756 17.2715C16.506 17.2127 16.5364 17.2421 16.5364 17.2715C16.5364 17.1833 16.4756 17.2127 16.4756 17.2715Z" fill="black"/>
<path d="M16.354 17.301C16.3236 17.2422 16.354 17.2422 16.354 17.2128C16.2931 17.1541 16.2323 17.1541 16.2019 17.2422C16.2019 17.301 16.2323 17.4479 16.2019 17.5067C16.2931 17.4773 16.3236 17.2422 16.3844 17.4185L16.4452 17.2128C16.3844 17.1247 16.4148 17.3304 16.354 17.301Z" fill="black"/>
<path d="M16.5365 17.7121L16.4756 17.6533C16.4756 17.7121 16.4452 17.7415 16.4148 17.7709C16.4452 17.8884 16.506 17.7121 16.5365 17.7121Z" fill="black"/>
<path d="M15.8673 17.3887L15.7456 17.4474H15.776L15.8673 17.3887Z" fill="black"/>
<path d="M15.7759 17.3595V17.3008L15.7151 17.3889L15.7759 17.3595Z" fill="black"/>
<path d="M15.6848 17.3009L15.7456 17.2715L15.6848 17.3009Z" fill="black"/>
<path d="M15.4719 17.2715L15.5023 17.3302C15.5328 17.3009 15.5936 17.389 15.5632 17.3009C15.5328 17.3302 15.4719 17.3302 15.4719 17.2715Z" fill="black"/>
<path d="M14.7724 18.9164C14.8028 18.887 14.7724 18.8282 14.7724 18.7988L14.7419 18.9164C14.7419 18.9164 14.7724 18.887 14.7724 18.9164Z" fill="black"/>
<path d="M14.6506 18.7402L14.5593 18.8872C14.6506 18.9165 14.6506 18.799 14.7418 18.799C14.7114 18.7696 14.6506 18.8578 14.6202 18.8284L14.6506 18.7402Z" fill="black"/>
<path d="M13.1299 18.6517C13.1299 18.5636 13.1299 18.5929 13.1907 18.5342C13.0995 18.5929 13.0386 18.5636 12.9474 18.5929C12.9474 18.6517 12.8865 18.7399 12.917 18.7105L13.0082 18.6517V18.7105C13.069 18.7692 13.069 18.5929 13.1299 18.6517Z" fill="black"/>
<path d="M9.17596 17.7709C9.17596 17.7415 9.17596 17.6827 9.17596 17.6533C9.11513 17.7121 9.17596 17.7709 9.17596 17.7709Z" fill="black"/>
</svg>
