<svg width="24" height="24" viewBox="0 0 24 24" fill="none" xmlns="http://www.w3.org/2000/svg">
<path d="M12.7991 18.5122C12.8826 18.5323 12.82 18.5122 12.82 18.492L12.7991 18.5122Z" fill="black"/>
<path d="M12.8199 18.492L12.8408 18.4719C12.8199 18.4719 12.8199 18.4719 12.8199 18.492Z" fill="black"/>
<path d="M12.8826 18.2906C12.9451 18.3309 12.8617 18.3913 12.9451 18.4114C12.9869 18.3712 12.966 18.3107 12.8826 18.2906Z" fill="black"/>
<path d="M12.82 18.351L12.8617 18.3712L12.7991 18.3309L12.82 18.351Z" fill="black"/>
<path d="M12.7783 18.3913H12.7991L12.7366 18.3309L12.7783 18.3913Z" fill="black"/>
<path d="M12.9034 18.1495L12.9243 18.1898C12.8617 18.2301 12.8408 18.1697 12.7991 18.1898C12.7991 18.2502 12.9451 18.21 12.9243 18.2704C12.9868 18.2704 12.9243 18.1697 13.0286 18.1697C13.0286 18.1294 12.9451 18.1697 12.9034 18.1495Z" fill="black"/>
<path d="M12.2986 14.7444L12.3194 14.7243C12.3194 14.7243 12.3194 14.7243 12.2986 14.7444Z" fill="black"/>
<path d="M12.5697 15.9332C12.5488 15.9533 12.5488 15.9533 12.5488 15.9533C12.5488 15.9533 12.5697 15.9533 12.5697 15.9332Z" fill="black"/>
<path d="M12.1735 14.9862L12.1943 14.9661C12.1735 14.9661 12.1735 14.9862 12.1735 14.9862Z" fill="black"/>
<path d="M13.0285 17.4645C13.0285 17.4443 13.0285 17.4443 13.0285 17.4242C12.9868 17.4443 12.9868 17.4443 13.0285 17.4645Z" fill="black"/>
<path d="M13.0077 17.4443C13.0494 17.4242 13.1745 17.4242 13.0285 17.3839H13.0077C13.0494 17.3637 12.9868 17.3436 12.9868 17.3234C12.966 17.3234 12.966 17.3234 12.9451 17.3234C12.9451 17.3234 12.9451 17.3436 12.9243 17.3637C12.9243 17.404 12.9868 17.404 13.0077 17.4443Z" fill="black"/>
<path d="M12.4037 15.4899C12.3817 15.4899 12.3817 15.5111 12.4037 15.4899V15.4899Z" fill="black"/>
<path d="M12.5071 15.6713V15.6914C12.5071 15.6713 12.528 15.6713 12.5071 15.6713Z" fill="black"/>
<path d="M13.3623 7.79322C13.3831 7.81337 13.3414 7.81337 13.3205 7.83352C13.404 7.87382 13.3205 7.75292 13.404 7.81337C13.404 7.79322 13.3831 7.79322 13.3831 7.77307L13.2997 7.79322C13.3205 7.83352 13.3205 7.77307 13.3623 7.79322Z" fill="black"/>
<path d="M13.0911 11.0774C13.1328 11.0774 13.1328 11.0774 13.1537 11.0573C13.0911 11.0371 13.0077 11.0774 12.9451 11.0371C12.9451 11.0371 12.9451 11.0573 12.9451 11.0774C12.9868 11.0371 13.0494 11.0573 13.0911 11.0774Z" fill="black"/>
<path d="M12.9451 11.0573C12.9243 11.0573 12.9243 11.0573 12.9243 11.0573V11.0774L12.9451 11.0573Z" fill="black"/>
<path d="M13.2371 13.9788L13.258 13.9989C13.258 13.9989 13.258 13.9788 13.2371 13.9788Z" fill="black"/>
<path d="M13.0077 11.4804L12.9868 11.5005C12.9868 11.5005 12.9868 11.5005 12.9868 11.5207L13.0077 11.4804Z" fill="black"/>
<path d="M12.1943 10.1304C12.2985 10.1506 12.1943 10.1103 12.236 10.0901L12.1943 10.07C12.1734 10.0901 12.1943 10.1103 12.1943 10.1304Z" fill="black"/>
<path d="M12.9034 11.2184V11.3192L12.9242 11.299C12.8617 11.2789 12.9659 11.2184 12.9034 11.2184Z" fill="black"/>
<path d="M12.1317 10.5737H12.0692C12.1943 10.6744 12.0066 10.7953 12.1943 10.8759C11.9857 10.9968 12.382 10.9565 12.1943 11.0774H12.2151C12.1734 11.4401 12.0692 11.8431 12.1734 12.1856H12.1317C12.0692 12.7497 12.1526 13.2937 12.1109 13.8378C12.1526 13.8982 12.236 13.8579 12.2777 13.8982C12.2777 13.9183 12.2777 13.9586 12.236 13.9586C12.2151 13.9183 12.1526 13.9385 12.1526 13.9385C12.1526 13.9989 12.09 14.0795 12.1526 14.14L12.2151 14.0997C12.236 14.1198 12.2151 14.1601 12.2151 14.1803C12.1734 14.1803 12.1109 14.2004 12.09 14.1803C12.2569 14.3012 12.0274 14.281 12.09 14.3616C12.236 14.3818 12.3403 14.5027 12.4446 14.5832L12.4029 14.6235C12.4029 14.5631 12.2986 14.6235 12.2986 14.5631C12.2569 14.6235 12.3194 14.684 12.2986 14.7243C12.3403 14.7041 12.382 14.7243 12.4029 14.7444C12.382 14.7847 12.3194 14.7847 12.2986 14.825L12.2777 14.7646C12.2151 14.7847 12.2986 14.8049 12.2986 14.8452C12.236 14.8452 12.236 14.9056 12.1734 14.9056C12.2569 14.9661 12.2151 14.9862 12.2569 15.0265C12.3194 14.9661 12.3403 15.0467 12.382 15.0265L12.3611 14.9661C12.3194 15.0668 12.3403 14.9258 12.2569 14.9459C12.2986 14.9056 12.4237 15.0064 12.4029 14.9258C12.4446 15.0064 12.4029 15.0265 12.4863 15.1273C12.4654 15.0668 12.5488 15.1474 12.5906 15.1071C12.5906 15.1675 12.5488 15.1273 12.4863 15.1474C12.4863 15.1877 12.4237 15.2078 12.5071 15.228C12.4863 15.2884 12.4237 15.228 12.382 15.2481C12.3194 15.228 12.4654 15.087 12.2569 15.087C12.2569 15.0467 12.1734 15.0265 12.1734 14.9661C12.1526 15.0064 12.0692 15.0668 12.1317 15.1071H12.2569C12.2569 15.1474 12.3403 15.1474 12.3403 15.1877C12.2986 15.1675 12.2569 15.2078 12.2569 15.228C12.2777 15.228 12.2777 15.2078 12.2986 15.2078C12.2986 15.2683 12.382 15.2683 12.4237 15.3287C12.4654 15.2683 12.4863 15.2683 12.5488 15.2078C12.6323 15.228 12.5697 15.2481 12.5697 15.2683C12.5488 15.2683 12.5488 15.2481 12.528 15.2683L12.5697 15.3086C12.528 15.369 12.4446 15.3086 12.4029 15.3489C12.3403 15.3892 12.4446 15.4093 12.4029 15.4295H12.4237V15.4496C12.4446 15.4899 12.4237 15.5302 12.4863 15.5302C12.4654 15.5302 12.4863 15.5705 12.5071 15.5705C12.528 15.5907 12.6114 15.631 12.5071 15.6713C12.4863 15.7116 12.4654 15.7519 12.4237 15.7519L12.4029 15.8324H12.3194C12.3403 15.8929 12.382 15.8929 12.4863 15.9332C12.4446 15.9735 12.4863 16.0541 12.5071 16.0944V16.1145L12.5488 16.0944C12.5488 16.1548 12.5906 16.1347 12.5906 16.175C12.5906 16.175 12.6114 16.175 12.5906 16.1951V16.2153C12.5906 16.2153 12.5906 16.2153 12.5906 16.1951H12.5697C12.4863 16.2354 12.6114 16.2556 12.5906 16.2959V16.2757C12.5697 16.2959 12.4446 16.3362 12.528 16.3563C12.528 16.3563 12.528 16.3765 12.5488 16.3765L12.4863 16.4168C12.4863 16.4168 12.4863 16.3966 12.5071 16.3966C12.528 16.4168 12.5697 16.4168 12.5488 16.4168L12.528 16.4772C12.5071 16.4973 12.528 16.4973 12.528 16.5175L12.4863 16.5376C12.4863 16.5578 12.4654 16.5578 12.4654 16.5578C12.3403 16.6384 12.528 16.6787 12.4237 16.7794C12.4863 16.7996 12.5071 16.7593 12.5488 16.7593C12.5906 16.7794 12.6323 16.8197 12.674 16.8399C12.5906 16.8802 12.528 17.0011 12.4029 16.9809C12.4029 17.0615 12.4654 16.9608 12.5071 17.0011C12.528 16.9809 12.5697 16.9608 12.6114 16.9406C12.674 16.9406 12.6948 17.0011 12.674 17.0212L12.5906 17.0011C12.6323 17.0615 12.7574 17.0615 12.8408 17.1018C12.7991 17.1622 12.7157 17.1219 12.6531 17.1421L12.674 17.2025H12.6114C12.6323 17.2428 12.6948 17.2428 12.674 17.3033C12.6114 17.263 12.6114 17.3839 12.528 17.3234C12.5071 17.3436 12.6323 17.3637 12.5488 17.3637C12.6114 17.3839 12.5906 17.3436 12.6114 17.3234C12.7157 17.3033 12.6531 17.3839 12.6948 17.4242C12.6323 17.4242 12.6323 17.404 12.5906 17.4443C12.6323 17.4443 12.6531 17.4846 12.6114 17.5048C12.674 17.5048 12.6323 17.5451 12.6114 17.5652C12.6323 17.5451 12.674 17.5048 12.7366 17.5249C12.7574 17.5451 12.7783 17.5652 12.7783 17.6055L12.82 17.5652C12.9243 17.6055 12.7574 17.6257 12.7783 17.6861C12.7366 17.666 12.7366 17.6458 12.6948 17.6257C12.7366 17.6458 12.7783 17.7063 12.7991 17.7264L12.6948 17.7667C12.7366 17.7667 12.6948 17.807 12.7574 17.807C12.7157 17.8674 12.674 17.7667 12.6323 17.7667C12.5906 17.8271 12.7366 17.8271 12.6323 17.8876L12.5697 17.8674C12.5697 17.8876 12.6114 17.9279 12.5697 17.9279C12.5906 17.9279 12.5906 17.9077 12.5906 17.9077C12.7157 17.9279 12.6948 18.0085 12.82 18.0085V17.9682C12.8408 18.0085 12.9451 18.0488 12.8825 18.0891C12.8408 18.1092 12.7783 18.0689 12.7574 18.0488C12.7574 18.0891 12.9034 18.0891 12.9034 18.1294C12.9243 18.1092 12.966 18.1092 13.0077 18.1294C13.0077 18.0891 13.0494 18.0286 12.9868 18.0488L12.966 18.0689C12.9243 18.0689 12.9243 18.0488 12.9034 18.0488C12.9034 18.0085 12.966 18.0286 12.9868 18.0286C13.0077 17.9682 12.8408 18.0286 12.8617 17.9682H12.8825C12.8408 17.9279 12.8408 17.8876 12.7574 17.8876C12.8408 17.8674 12.7157 17.807 12.7783 17.7868C12.966 17.7868 12.7574 17.8876 12.8825 17.9279C12.9243 17.8876 12.9868 17.948 13.0285 17.9682L12.9451 17.8674C12.966 17.8674 13.0703 17.8271 13.0077 17.807C12.9868 17.7667 12.9034 17.7667 12.9243 17.7466C12.9451 17.7466 12.966 17.7466 12.9868 17.7466C13.0077 17.7063 12.9451 17.7264 12.9243 17.7063C12.9451 17.666 13.0077 17.7264 13.0285 17.6861C12.9451 17.6458 13.0494 17.6257 13.0494 17.5854C12.9451 17.6055 12.9034 17.4443 12.7991 17.5249L12.7157 17.4443C12.7783 17.4242 12.8825 17.5048 12.966 17.4846V17.5451C13.112 17.5249 12.8825 17.404 13.0285 17.3637C13.0285 17.3234 13.0077 17.3436 13.0911 17.2831L12.966 17.3033C12.9868 17.263 13.0703 17.263 13.0911 17.263C13.0911 17.2428 13.0911 17.2227 13.0911 17.2025C13.112 17.2025 13.1328 17.2227 13.1328 17.2227C13.1954 17.2025 13.1745 17.1824 13.1328 17.1824C13.0911 17.1622 13.112 17.1421 13.112 17.1219L13.1537 17.1421C13.1537 17.1219 13.1328 17.1219 13.112 17.1219C13.112 17.1219 13.112 17.1018 13.0911 17.1018C13.0703 17.1018 12.9868 17.1219 12.966 17.1421C13.0077 17.0615 12.9868 17.0011 13.0911 16.9406C13.1328 16.9406 13.1745 16.9608 13.1745 16.9608C13.1954 16.9205 13.1328 16.9003 13.0703 16.9003V16.8802C13.0911 16.8802 13.1328 16.86 13.1328 16.86C13.1537 16.86 13.1537 16.86 13.1537 16.8399C13.0494 16.8197 13.112 16.7593 13.0494 16.7593C13.0494 16.7794 13.0494 16.7996 13.0494 16.8197C12.9868 16.7996 12.9034 16.7593 12.966 16.7391C13.0285 16.7794 13.0703 16.6787 13.0911 16.7593C13.2162 16.6988 13.0077 16.7391 13.0494 16.6787L13.0911 16.6384C13.1537 16.6384 13.1328 16.6988 13.1537 16.6787V16.6585C13.2162 16.6787 13.1745 16.7794 13.258 16.8399L13.2997 16.719C13.2162 16.5779 13.3205 16.3966 13.1537 16.2757C13.1537 16.2757 13.1328 16.2757 13.112 16.2757H13.1328L13.0703 16.2556C13.1328 16.2354 13.1537 16.175 13.1954 16.1347C13.1537 16.1548 13.1537 16.1548 13.0911 16.175C13.0285 16.175 12.9868 16.175 13.0077 16.1145C13.0494 16.1145 13.0494 16.1347 13.0911 16.1145C13.0703 16.1347 13.0285 16.1145 13.0285 16.0944C13.0703 16.0742 13.0703 16.0339 13.112 16.0339C13.1328 16.0541 13.112 16.0541 13.0911 16.0541C13.112 16.0742 13.1328 16.0138 13.1745 16.0339L13.1537 15.9936C13.1954 15.9735 13.2162 16.0138 13.258 15.9936C13.2162 15.9332 13.112 15.8929 13.0703 15.8324C13.0911 15.8324 13.2162 15.8324 13.1745 15.8324C13.2162 15.7922 13.0494 15.7317 13.0494 15.6713C13.0911 15.6713 13.0703 15.6914 13.0911 15.7116C13.1328 15.5504 13.1328 15.4093 13.2371 15.2481L13.112 15.2078L13.1954 15.1675C13.2788 15.0064 13.1954 14.8653 13.1537 14.7041C13.1537 14.6638 13.2371 14.684 13.258 14.6437C13.2788 14.5429 13.1328 14.5026 13.112 14.4019C13.1537 14.4221 13.258 14.4422 13.258 14.4019C13.2162 14.4019 13.1745 14.3818 13.1954 14.3616L13.2371 14.3818C13.2997 14.3616 13.2371 14.3213 13.258 14.281C13.258 14.1803 13.1745 14.0997 13.0494 14.0191C13.0703 13.9385 13.1745 14.0191 13.1954 14.0191C13.1537 14.0795 13.2162 14.0594 13.258 14.0795C13.2162 14.0392 13.1954 14.0191 13.2788 13.9989C13.2788 13.9586 13.2788 13.9385 13.2162 13.8982C13.2371 13.9183 13.1954 13.9385 13.1537 13.9183C13.1745 13.878 13.1537 13.7975 13.258 13.7975C13.2371 13.596 13.258 13.3542 13.258 13.1326C13.1954 13.0923 13.2371 13.1527 13.1954 13.1326C13.1328 13.0721 13.2371 13.0923 13.1745 13.052L13.2371 13.0721C13.2371 13.0117 13.1328 12.9311 13.0911 12.8706C13.1537 12.8908 13.1537 12.8102 13.1745 12.8706C13.1537 12.8303 13.4457 12.8102 13.404 12.7699L13.1328 12.8102C13.112 12.8102 13.1328 12.7699 13.112 12.7699C13.1745 12.7497 13.2371 12.7094 13.2371 12.6893C13.2997 12.6893 13.2997 12.7296 13.2788 12.7497C13.3831 12.7497 13.3414 12.6691 13.4665 12.7094C13.4457 12.649 13.404 12.7094 13.3622 12.6893L13.3831 12.649L13.3414 12.6893C13.2997 12.649 13.2162 12.6288 13.2788 12.5885L13.1745 12.5281C13.258 12.5281 13.1954 12.4878 13.2162 12.4677L13.2788 12.4878C13.2788 12.4475 13.2997 12.4274 13.3205 12.4072C13.404 12.4274 13.2997 12.4475 13.3831 12.4475L13.404 12.4072C13.3622 12.4072 13.3205 12.3871 13.2788 12.4072C13.1745 12.3669 13.112 12.3468 13.112 12.246C13.1954 12.2057 13.1954 12.2863 13.2788 12.2662C13.3205 12.1654 13.0494 12.1453 13.0703 12.0848C13.112 12.0042 13.0285 12.0244 13.0285 11.9438C13.0911 11.9639 13.0911 11.8834 13.1537 11.8834L13.2162 11.9035C13.1954 11.8834 13.2162 11.8632 13.258 11.8632C13.1745 11.8632 13.1745 11.7625 13.1537 11.7222H13.0911C13.0703 11.6819 13.0285 11.6214 13.0494 11.5811C13.0285 11.5207 12.966 11.5408 12.8825 11.4804C12.9451 11.4602 13.0077 11.4602 13.0911 11.4602C13.0494 11.4804 13.0703 11.5005 13.0494 11.5408C13.112 11.6214 13.258 11.6819 13.2162 11.7625C13.3831 11.8028 13.1954 11.702 13.258 11.6617H13.2788C13.2997 11.6819 13.3205 11.7423 13.404 11.7423C13.3831 11.702 13.2371 11.702 13.2997 11.6416C13.258 11.6013 13.3831 11.561 13.404 11.5408C13.3414 11.5207 13.2162 11.5005 13.2371 11.4401L13.3205 11.4804C13.3205 11.3998 13.1745 11.4401 13.1954 11.3595C13.1745 11.3796 13.112 11.3393 13.112 11.3796C13.0703 11.3595 13.0494 11.299 13.0703 11.2587C13.0494 11.2386 13.0285 11.2587 13.0077 11.2587C12.9451 11.299 13.0703 11.3393 12.9868 11.3595L13.0911 11.3998C13.0494 11.4401 12.966 11.4401 12.9243 11.4199C12.9243 11.4401 12.9451 11.4401 12.9243 11.4602C12.7783 11.4602 12.9868 11.3998 12.8408 11.3998L12.8617 11.4199C12.7574 11.4401 12.7783 11.3595 12.7783 11.3192C12.82 11.2789 12.8408 11.2386 12.9034 11.2386L12.9243 11.299C12.9868 11.2587 12.8825 11.2185 12.9034 11.1983H12.9243H12.9034L12.9243 11.1782C12.9243 11.158 12.8825 11.0976 12.9034 11.0774H12.8408H12.8825C12.8825 11.0976 12.8408 11.1379 12.7991 11.1177C12.7574 11.0573 12.8825 11.0371 12.9243 11.0371C13.0285 11.0573 12.9243 11.0976 12.966 11.1379C13.0703 11.1177 12.966 11.0774 13.0494 11.017C13.1537 11.0371 13.0494 11.0976 13.1537 11.0976C13.1745 11.0371 13.0911 11.0371 13.1328 10.9767C13.1745 10.9767 13.1954 11.0371 13.258 11.0371L13.2788 10.9968C13.2788 11.0774 13.404 10.9767 13.4457 11.0573C13.4874 11.017 13.3622 11.017 13.4248 10.9767C13.3831 10.9968 13.2997 11.017 13.258 10.9767L13.2788 10.9364C13.3205 10.9162 13.3831 10.9968 13.4248 10.9565L13.3831 10.8961C13.3414 10.8961 13.3414 10.9162 13.2997 10.9162C13.3414 10.8961 13.1745 10.8759 13.1328 10.8356C13.1328 10.8155 13.1328 10.7953 13.1745 10.7752C13.0911 10.7147 13.0911 10.614 12.9868 10.5536C13.0494 10.5938 13.0911 10.5536 13.1328 10.5334C13.1537 10.5938 13.2371 10.5938 13.2997 10.5737C13.2788 10.5334 13.1954 10.5133 13.1537 10.5334C13.1954 10.473 13.0911 10.4931 13.1537 10.4528C13.1954 10.4327 13.258 10.473 13.2788 10.4528C13.2788 10.3924 13.1537 10.4327 13.1745 10.3722C13.1954 10.3722 13.1954 10.3722 13.2162 10.3722C13.2371 10.3319 13.1954 10.3118 13.1328 10.2916C13.258 10.2513 13.112 10.1909 13.2371 10.211C13.1954 10.1304 13.1745 10.2312 13.1328 10.211C13.0703 10.1707 13.1328 10.1103 13.1328 10.1103C13.1328 10.1304 13.1745 10.1506 13.1537 10.1707L13.2371 10.1506C13.2997 10.0498 13.0494 10.0901 13.112 9.9894C13.1537 10.0297 13.1745 10.0095 13.2371 10.0297C13.2162 10.0095 13.2371 9.9491 13.1745 9.9894C13.1745 9.9491 13.1954 9.92895 13.2162 9.9088C13.1745 9.8685 13.1537 9.84836 13.112 9.82821C13.112 9.78791 13.1745 9.74761 13.2162 9.72747C13.1537 9.62672 13.258 9.52598 13.1954 9.42524C13.2162 9.34464 13.0703 9.46554 13.0911 9.36479C13.1954 9.38494 13.1537 9.30435 13.2162 9.2842C13.2788 9.18346 13.1328 9.10286 13.2162 9.00212C13.2371 9.00212 13.258 9.00212 13.258 9.02227C13.2997 8.94168 13.2788 8.88123 13.2788 8.82078H13.2997C13.3831 8.72004 13.2788 8.6193 13.258 8.49841C13.2788 8.49841 13.3205 8.51856 13.3205 8.51856C13.3414 8.45811 13.3622 8.37752 13.258 8.33722C13.3622 8.27678 13.2162 8.29692 13.3205 8.19618C13.3414 8.19618 13.3414 8.19618 13.3414 8.21633C13.3831 8.17603 13.3622 8.13574 13.3831 8.09544C13.3205 7.9947 13.1745 7.97455 13.2162 7.85366C13.3622 7.85366 13.258 7.9141 13.3622 7.93425C13.3414 7.9141 13.2997 7.89396 13.3414 7.85366C13.404 7.87381 13.3831 7.85366 13.4248 7.87381C13.4665 7.85366 13.2788 7.77306 13.2788 7.77306C13.258 7.77306 13.2371 7.77306 13.2371 7.79321C13.1537 7.77306 13.2371 7.69247 13.1954 7.63203C13.1954 7.65217 13.1745 7.71262 13.0911 7.69247C13.112 7.61188 12.9868 7.59173 12.9243 7.55143C12.9868 7.49099 13.0494 7.59173 13.1537 7.59173C13.1954 7.57158 13.2788 7.55143 13.3205 7.59173C13.3414 7.53128 13.258 7.49099 13.2371 7.43054H13.258C13.2371 7.34995 13.112 7.26935 13.1745 7.20891L13.1328 7.2492C13.112 7.22906 13.1328 7.20891 13.0703 7.16861C13.112 7.16861 13.1537 7.12831 13.1954 7.14846C13.0494 7.10817 13.112 6.98727 12.966 6.94698C13.0077 6.92683 13.0703 6.94698 13.0911 6.94698C13.112 6.82609 13.0911 6.82609 13.1537 6.86638C13.1537 6.82609 13.1954 6.80594 13.2162 6.80594C13.112 6.76564 13.0911 6.6649 12.9868 6.64475C13.0285 6.6246 13.0703 6.58431 13.1328 6.60445C13.0911 6.48356 12.8825 6.6649 12.8825 6.52386C12.966 6.46341 12.9868 6.58431 13.0077 6.50371L13.0285 6.52386C13.2371 6.46341 12.8825 6.48356 12.8825 6.40297C12.9868 6.40297 12.966 6.44327 13.0494 6.40297C13.0285 6.34252 12.8617 6.30223 12.8825 6.24178L12.9243 6.26193C12.9243 6.22163 12.9451 6.14104 12.9243 6.10074C12.9451 6.10074 12.9451 6.10074 12.9451 6.12089C12.9868 6.0403 12.8825 6.08059 12.966 6.02015L12.9034 6C12.8617 6.0403 12.82 6.10074 12.8825 6.14104C12.82 6.10074 12.7366 6.20148 12.6531 6.18134H12.6948C12.528 6.28208 12.5071 6.42312 12.4446 6.54401C12.5488 6.6246 12.4029 6.68505 12.4863 6.76564C12.6114 6.78579 12.5071 6.78579 12.528 6.86638C12.5071 6.82609 12.4237 6.86638 12.4029 6.88653C12.4446 6.90668 12.4446 6.92683 12.4654 6.94698C12.4237 6.96713 12.3194 7.06787 12.4029 7.08802C12.3611 7.12831 12.3611 7.06787 12.3403 7.06787C12.2777 7.08802 12.382 7.10817 12.3403 7.12831H12.3194C12.3194 7.20891 12.2986 7.2492 12.2777 7.30965C12.4029 7.30965 12.3194 7.39024 12.3611 7.41039C12.3194 7.39024 12.3194 7.45069 12.2986 7.47084L12.4029 7.51113C12.4863 7.55143 12.3403 7.57158 12.382 7.61188L12.4029 7.59173C12.4446 7.63203 12.3611 7.73277 12.2986 7.75292C12.5488 8.09544 12.1526 8.27678 12.236 8.63945C12.2777 8.6596 12.2986 8.6193 12.3611 8.63945C12.382 8.67975 12.3611 8.67975 12.382 8.72004C12.4237 8.69989 12.382 8.69989 12.4029 8.69989L12.3611 8.63945C12.3611 8.63945 12.382 8.63945 12.4029 8.63945C12.382 8.6193 12.3611 8.59915 12.382 8.579C12.4237 8.6193 12.5071 8.6193 12.4654 8.6596C12.4446 8.6596 12.4446 8.6596 12.4446 8.63945C12.4446 8.67975 12.4863 8.67975 12.4654 8.69989C12.4446 8.74019 12.4654 8.72004 12.4237 8.72004L12.382 8.84093C12.4863 8.90138 12.382 8.96182 12.382 8.96182C12.2986 8.94168 12.3611 8.90138 12.2777 8.86108L12.2151 8.90138H12.2777L12.2569 8.96182H12.236C12.2569 8.96182 12.2986 8.98197 12.2569 8.98197C12.2569 8.98197 12.236 8.98197 12.2151 8.98197L12.2777 9.04242C12.2151 9.02227 12.2569 9.08271 12.1734 9.06257C12.1317 9.18346 12.2777 9.22375 12.1734 9.3245C12.2151 9.30435 12.2986 9.36479 12.2777 9.38494C12.2569 9.40509 12.236 9.40509 12.2151 9.40509L12.2569 9.44539C12.1317 9.50583 12.2151 9.54613 12.1734 9.62672H12.1317C12.1734 9.64687 12.2151 9.68717 12.1943 9.72747H12.1317C12.09 9.78791 12.2777 9.76776 12.236 9.82821C12.3194 9.82821 12.3611 9.78791 12.4237 9.78791C12.3403 9.80806 12.3403 9.8685 12.382 9.84836C12.4029 9.9088 12.382 9.88865 12.3611 9.88865L12.4029 9.92895C12.4029 9.96925 12.2986 9.9491 12.2569 9.92895C12.3403 9.96925 12.2777 10.0095 12.2777 10.0498L12.236 10.0297L12.2151 10.0901C12.2777 10.1304 12.2777 10.1707 12.2569 10.2312L12.1526 10.1909C12.09 10.2312 12.1943 10.211 12.1943 10.211C12.236 10.2715 12.1734 10.2715 12.1109 10.3118C12.2569 10.4125 11.9857 10.4931 12.1317 10.5737ZM12.528 16.5376C12.5488 16.5376 12.5697 16.5578 12.528 16.5376V16.5376ZM12.5488 16.0541C12.5906 16.1145 12.5488 16.0944 12.5071 16.0944C12.528 16.0339 12.5071 16.0138 12.528 15.9533C12.5071 15.9533 12.4863 15.9533 12.4654 15.9735C12.4654 15.9533 12.4863 15.9332 12.5488 15.9332C12.6531 15.9533 12.4863 16.0742 12.5488 16.0541ZM13.0494 17.1219H13.0285H13.0494ZM12.9451 16.8399C12.966 16.8399 12.9868 16.8197 12.9868 16.8197C12.966 16.8399 12.9451 16.8399 12.9451 16.8399ZM13.0703 16.2757C13.112 16.2556 13.0911 16.2354 13.0911 16.2153C13.0911 16.2354 13.0703 16.2556 13.0703 16.2757ZM13.0285 12.7296C13.0494 12.7497 13.0911 12.7699 13.112 12.7497C13.0703 12.7296 13.1328 12.7094 13.0911 12.6893C13.0703 12.7094 13.0285 12.7094 13.0285 12.7296ZM12.6948 11.0573C12.7366 11.0573 12.7783 11.0774 12.82 11.0573C12.8408 11.0573 12.8408 11.0573 12.8617 11.0573C12.8617 11.0371 12.8825 11.0371 12.8617 11.017C12.7157 11.017 12.6948 10.9767 12.6948 11.0573Z" fill="black"/>
<path d="M12.8408 11.017C12.8408 11.017 12.82 11.0371 12.7991 11.0573C12.82 11.0573 12.8408 11.0371 12.8408 11.017Z" fill="black"/>
<path d="M12.5906 18.0488L12.528 18.0689C12.5697 18.1294 12.6323 18.1294 12.6949 18.1495C12.6323 18.1092 12.6532 18.0689 12.6532 18.0085L12.5906 18.0488Z" fill="black"/>
<path d="M13.0285 18.0286C13.0494 18.0286 13.0911 18.0085 13.0911 18.0085H13.0494L13.0285 18.0286Z" fill="black"/>
<path d="M13.2371 17.3637L13.1954 17.4242C13.2371 17.4443 13.2997 17.3839 13.2371 17.3637Z" fill="black"/>
<path d="M12.528 17.6055L12.5697 17.6257C12.6114 17.6055 12.6114 17.5652 12.5489 17.5652C12.5697 17.6055 12.528 17.5652 12.528 17.6055Z" fill="black"/>
<path d="M13.2371 17.2227C13.1537 17.2026 13.2788 17.1623 13.1954 17.1623C13.2162 17.1824 13.1537 17.2227 13.2371 17.2227Z" fill="black"/>
<path d="M12.4654 17.263C12.382 17.2831 12.4654 17.3033 12.4445 17.3436C12.4445 17.3234 12.528 17.2831 12.4654 17.263Z" fill="black"/>
<path d="M13.0077 16.9406C13.0702 16.9406 13.0702 16.9608 13.0494 16.9809C13.0285 16.9809 13.0077 16.9608 12.9868 16.9608C13.0285 17.0011 13.0285 17.0011 13.0494 17.0414C13.0911 17.0011 13.112 16.9608 13.1954 16.9608C13.1537 16.9406 13.0702 16.9205 13.0077 16.9406Z" fill="black"/>
<path d="M12.4654 17.1824C12.4446 17.2026 12.382 17.2227 12.4029 17.263C12.4446 17.263 12.5072 17.2428 12.4863 17.2026L12.5489 17.2227C12.5906 17.1824 12.4654 17.2428 12.4654 17.1824Z" fill="black"/>
<path d="M13.1745 16.7996L13.1537 16.8197C13.2163 16.86 13.1745 16.9003 13.258 16.9205C13.2371 16.8802 13.2163 16.8197 13.1745 16.7996Z" fill="black"/>
<path d="M12.5905 17.0414H12.4863C12.4654 17.0816 12.528 17.0414 12.5488 17.0615C12.528 17.0816 12.528 17.0816 12.5488 17.1018C12.528 17.0414 12.6114 17.0816 12.5905 17.0414Z" fill="black"/>
<path d="M12.4863 16.9205L12.4446 16.8802L12.3403 16.9003C12.382 16.9607 12.4028 16.9205 12.4863 16.9205Z" fill="black"/>
<path d="M12.5488 16.86L12.4237 16.7794C12.4863 16.8197 12.4863 16.8197 12.5488 16.86Z" fill="black"/>
<path d="M13.1537 15.9533C13.1119 15.9533 13.0702 15.9936 13.1119 15.9735C13.1537 15.9735 13.1954 15.9332 13.1537 15.9533Z" fill="black"/>
<path d="M12.4028 16.1347C12.4237 16.1145 12.382 16.0541 12.3403 16.0138C12.3611 16.0541 12.3611 16.1347 12.4028 16.1347Z" fill="black"/>
<path d="M12.1526 14.7646C12.1317 14.7847 12.1735 14.825 12.2152 14.825C12.1943 14.7847 12.1735 14.7646 12.1317 14.7243C12.1317 14.7444 12.1109 14.7646 12.1526 14.7646Z" fill="black"/>
<path d="M12.1735 14.4623C12.1943 14.4825 12.1943 14.5026 12.2152 14.5026C12.2569 14.4825 12.2152 14.4422 12.1735 14.4623Z" fill="black"/>
<path d="M13.3623 12.4878C13.3831 12.4677 13.3623 12.4475 13.2997 12.4475C13.2997 12.4878 13.3414 12.4677 13.3623 12.4878Z" fill="black"/>
<path d="M13.2788 12.4072H13.3205L13.3622 12.3871L13.2788 12.4072Z" fill="black"/>
<path d="M13.3831 12.2259C13.3831 12.2259 13.404 12.2259 13.404 12.246C13.3831 12.2259 13.3831 12.2057 13.3831 12.2259Z" fill="black"/>
<path d="M13.3831 12.1654L13.2997 12.2057C13.3414 12.246 13.3414 12.1654 13.4457 12.2057L13.3831 12.1654Z" fill="black"/>
<path d="M13.3622 12.0244C13.3831 11.9841 13.258 11.9438 13.3622 11.9237C13.2997 11.8229 13.1954 11.9438 13.1537 11.8229C13.0911 11.9237 13.3622 11.8834 13.2997 11.9841C13.3414 11.9438 13.3414 12.0042 13.3622 12.0244Z" fill="black"/>
<path d="M13.1746 12.0445C13.2371 12.0445 13.2371 12.0042 13.1954 11.9841C13.1954 12.0042 13.1328 12.0244 13.1746 12.0445Z" fill="black"/>
<path d="M13.3205 11.8431L13.3622 11.8028H13.3205V11.8431Z" fill="black"/>
<path d="M13.3414 11.7222L13.4039 11.7423C13.3622 11.7423 13.3831 11.6819 13.3414 11.7222Z" fill="black"/>
<path d="M13.4039 11.561C13.4248 11.5408 13.2788 11.5005 13.3205 11.561V11.5408C13.3414 11.5408 13.4039 11.5207 13.4039 11.561Z" fill="black"/>
<path d="M13.1954 11.1782C13.1954 11.1983 13.2162 11.2185 13.2371 11.2185L13.1954 11.1782Z" fill="black"/>
<path d="M12.8408 11.1782C12.7574 11.1983 12.8408 11.2185 12.82 11.2588C12.8408 11.2386 12.8408 11.2386 12.8408 11.1782Z" fill="black"/>
<path d="M13.2997 11.1177C13.3414 11.1379 13.3205 11.158 13.2997 11.158C13.3622 11.158 13.3622 11.1177 13.2997 11.1177Z" fill="black"/>
<path d="M13.2788 11.0371C13.3205 11.017 13.3205 11.0371 13.3414 11.0371C13.3831 10.9968 13.3831 10.9565 13.3205 10.9364C13.2788 10.9364 13.1745 10.9565 13.1328 10.9364C13.1537 10.9968 13.3205 11.017 13.1954 11.0573L13.3414 11.0976C13.4039 11.0573 13.2788 11.0774 13.2788 11.0371Z" fill="black"/>
<path d="M12.9868 11.158L13.0285 11.1177C12.9868 11.1177 12.966 11.0976 12.9451 11.0774C12.8617 11.0976 12.9868 11.1379 12.9868 11.158Z" fill="black"/>
<path d="M13.2162 10.7147L13.1954 10.6342L13.1745 10.6543L13.2162 10.7147Z" fill="black"/>
<path d="M13.258 10.6543H13.2788L13.2162 10.614L13.258 10.6543Z" fill="black"/>
<path d="M13.2788 10.5938L13.2997 10.6341L13.2788 10.5938Z" fill="black"/>
<path d="M13.2997 10.4528L13.258 10.473C13.2788 10.4931 13.2163 10.5334 13.2788 10.5133C13.258 10.4931 13.2788 10.4528 13.2997 10.4528Z" fill="black"/>
<path d="M12.1317 9.98939C12.1526 10.0095 12.1943 9.98939 12.2151 9.98939L12.1317 9.96924C12.1317 9.96924 12.1526 9.98939 12.1317 9.98939Z" fill="black"/>
<path d="M12.2569 9.9088L12.1735 9.84836C12.1526 9.9088 12.236 9.9088 12.236 9.96924C12.2569 9.9491 12.1943 9.9088 12.2152 9.88865L12.2569 9.9088Z" fill="black"/>
<path d="M12.3194 8.90138C12.382 8.90138 12.3611 8.90138 12.4028 8.94168C12.3611 8.88123 12.382 8.84093 12.3611 8.78049C12.3194 8.78049 12.2568 8.74019 12.2777 8.76034L12.3194 8.82079H12.2777C12.2568 8.86108 12.3611 8.86108 12.3194 8.90138Z" fill="black"/>
<path d="M12.9451 6.28207C12.966 6.28207 13.0077 6.28207 13.0286 6.28207C12.9868 6.24177 12.9451 6.28207 12.9451 6.28207Z" fill="black"/>
<path d="M18.9517 12.3266C18.9726 12.246 18.9517 12.3065 18.9308 12.3065L18.9517 12.3266Z" fill="black"/>
<path d="M18.9309 12.3065L18.91 12.2863C18.91 12.3065 18.91 12.3065 18.9309 12.3065Z" fill="black"/>
<path d="M18.7223 12.2662C18.764 12.2057 18.8266 12.2863 18.8474 12.2057C18.8057 12.1453 18.7431 12.1654 18.7223 12.2662Z" fill="black"/>
<path d="M18.8058 12.3065V12.2662L18.764 12.3468L18.8058 12.3065Z" fill="black"/>
<path d="M18.8266 12.3468L18.764 12.3871L18.8266 12.3468Z" fill="black"/>
<path d="M18.5763 12.2259L18.618 12.2057C18.6597 12.2662 18.5972 12.2863 18.618 12.3266C18.6806 12.3266 18.6389 12.1856 18.7014 12.2057C18.7014 12.1453 18.5972 12.2057 18.5972 12.105C18.5554 12.105 18.5971 12.1856 18.5763 12.2259Z" fill="black"/>
<path d="M15.0516 12.8102L15.0308 12.79C15.0308 12.79 15.0308 12.8102 15.0516 12.8102Z" fill="black"/>
<path d="M16.2821 12.5684C16.303 12.5886 16.303 12.5886 16.303 12.5886C16.303 12.5684 16.303 12.5684 16.2821 12.5684Z" fill="black"/>
<path d="M14.2174 12.9512C14.1965 12.9512 14.1965 12.9512 14.1757 12.9512C14.1965 12.9714 14.1965 12.9512 14.2174 12.9512Z" fill="black"/>
<path d="M15.3019 12.9311L15.2811 12.9109C15.2811 12.9311 15.3019 12.9311 15.3019 12.9311Z" fill="black"/>
<path d="M17.8672 12.1252C17.8464 12.1252 17.8464 12.1252 17.8255 12.1252C17.8464 12.1453 17.8672 12.1453 17.8672 12.1252Z" fill="black"/>
<path d="M17.8463 12.1251C17.8255 12.0849 17.8255 11.964 17.7838 12.105V12.1251C17.7629 12.0849 17.742 12.1453 17.7212 12.1453C17.7212 12.1654 17.7212 12.1654 17.7212 12.1856C17.7212 12.1856 17.742 12.1856 17.7629 12.2057C17.8046 12.2259 17.8046 12.1453 17.8463 12.1251Z" fill="black"/>
<path d="M15.8233 12.7094C15.8233 12.7307 15.8453 12.7307 15.8233 12.7094V12.7094Z" fill="black"/>
<path d="M16.0527 12.6087H16.0319C16.0319 12.6087 16.0319 12.6288 16.0527 12.6087Z" fill="black"/>
<path d="M7.85624 11.7826C7.8771 11.7625 7.8771 11.8028 7.89796 11.8229C7.93967 11.7423 7.81453 11.8229 7.8771 11.7423C7.85624 11.7423 7.85624 11.7625 7.83539 11.7625L7.85624 11.8431C7.89796 11.8229 7.83539 11.8229 7.85624 11.7826Z" fill="black"/>
<path d="M11.2558 12.0445C11.2558 12.0042 11.2558 12.0042 11.2349 11.9841C11.214 12.0445 11.2558 12.1251 11.2141 12.1856C11.2141 12.1856 11.2349 12.1856 11.2558 12.1856C11.214 12.1453 11.2349 12.0848 11.2558 12.0445Z" fill="black"/>
<path d="M11.2349 12.1856C11.2349 12.2057 11.2349 12.2057 11.2349 12.2057H11.2558C11.2558 12.2057 11.2349 12.2057 11.2349 12.1856Z" fill="black"/>
<path d="M8.44019 11.8229C8.46214 11.8229 8.46214 11.8441 8.44019 11.8229C8.46214 11.8229 8.44019 11.8229 8.44019 11.8229Z" fill="black"/>
<path d="M14.2591 11.9035L14.28 11.8834C14.28 11.8834 14.2591 11.8834 14.2591 11.9035Z" fill="black"/>
<path d="M11.6729 12.1252L11.6938 12.1453C11.6938 12.1453 11.6938 12.1453 11.7146 12.1453L11.6729 12.1252Z" fill="black"/>
<path d="M10.2755 12.9311C10.2964 12.8303 10.2547 12.9311 10.2338 12.8908L10.213 12.9311C10.2338 12.9311 10.2547 12.9311 10.2755 12.9311Z" fill="black"/>
<path d="M9.46264 12.952C9.46264 12.9308 9.44068 12.9308 9.46264 12.952C9.44068 12.9308 9.46264 12.9308 9.46264 12.952Z" fill="black"/>
<path d="M11.4018 12.2259H11.5061L11.4852 12.2057C11.4644 12.2662 11.4018 12.1856 11.4018 12.2259Z" fill="black"/>
<path d="M10.7344 12.9714V13.0318C10.8387 12.9109 10.9638 13.0923 11.0472 12.9109C11.1724 13.1124 11.1306 12.7296 11.2558 12.9109V12.8908C11.6312 12.9311 12.0483 13.0318 12.4029 12.9311V12.9714C12.9868 13.0318 13.55 12.9512 14.1131 12.9915C14.1756 12.9512 14.1339 12.8706 14.1756 12.8303C14.1965 12.8303 14.2382 12.8303 14.2382 12.8706C14.1965 12.8908 14.2174 12.9512 14.2174 12.9512C14.2799 12.9512 14.3634 13.0117 14.4259 12.9512L14.3634 12.8706C14.3842 12.8505 14.4259 12.8706 14.4468 12.8706C14.4468 12.9109 14.4676 12.9714 14.4468 12.9915C14.5719 12.8303 14.5511 13.052 14.6345 12.9915C14.6553 12.8505 14.7805 12.7497 14.8639 12.649L14.9056 12.6893C14.843 12.6893 14.9056 12.79 14.843 12.79C14.9056 12.8303 14.9682 12.7699 15.0099 12.79C14.989 12.7497 15.0099 12.7095 15.0308 12.6893C15.0725 12.7095 15.0725 12.7699 15.1142 12.79L15.0725 12.8303C15.0933 12.8908 15.1142 12.8102 15.1559 12.8102C15.1559 12.8706 15.2185 12.8706 15.2185 12.9311C15.281 12.8505 15.3019 12.8908 15.3436 12.8505C15.281 12.79 15.3645 12.7699 15.3436 12.7296L15.281 12.7497C15.3853 12.79 15.2393 12.7699 15.2602 12.8505C15.2185 12.8102 15.3227 12.6893 15.2393 12.7095C15.3227 12.6692 15.3436 12.7095 15.4479 12.6289C15.3853 12.649 15.4687 12.5684 15.427 12.5281C15.4896 12.5281 15.4479 12.5684 15.4687 12.6289C15.5104 12.6289 15.5313 12.6893 15.5522 12.6087C15.6147 12.6289 15.5522 12.6893 15.573 12.7296C15.5522 12.79 15.4062 12.649 15.4062 12.8505C15.3645 12.8505 15.3436 12.9311 15.281 12.9311C15.3227 12.9512 15.3853 13.0318 15.427 12.9714V12.8505C15.4687 12.8505 15.4687 12.7699 15.5104 12.7699C15.4896 12.8102 15.5313 12.8505 15.5522 12.8505C15.5522 12.8303 15.5313 12.8303 15.5313 12.8102C15.5939 12.8102 15.5939 12.7296 15.6564 12.6893C15.5939 12.649 15.5939 12.6289 15.5313 12.5684C15.5522 12.4878 15.573 12.5483 15.5939 12.5483C15.5939 12.5684 15.573 12.5684 15.5939 12.5886L15.6356 12.5483C15.6982 12.5886 15.6356 12.6692 15.6773 12.7095C15.719 12.7699 15.7399 12.6692 15.7607 12.7095V12.6893H15.7816C15.8233 12.6692 15.865 12.6893 15.865 12.6289C15.865 12.649 15.9067 12.6289 15.9067 12.6087C15.9276 12.5886 15.9693 12.508 16.011 12.6087C16.0527 12.6289 16.0944 12.649 16.0944 12.6893L16.1778 12.7095V12.79C16.2404 12.7699 16.2404 12.7296 16.2821 12.6289C16.3238 12.6692 16.4073 12.6289 16.449 12.6087H16.4698L16.449 12.5684C16.5115 12.5684 16.4907 12.5281 16.5324 12.5281C16.5324 12.5281 16.5324 12.508 16.5533 12.5281H16.5741C16.5741 12.5281 16.5741 12.5281 16.5533 12.5281V12.5483C16.595 12.6289 16.6158 12.508 16.6575 12.5281H16.6367C16.6575 12.5483 16.6993 12.6692 16.7201 12.5886C16.7201 12.5886 16.741 12.5886 16.741 12.5684L16.7618 12.5886C16.7618 12.5886 16.741 12.5886 16.741 12.5684C16.7618 12.5483 16.7618 12.508 16.7618 12.5281L16.8244 12.5483C16.8452 12.5684 16.8452 12.5483 16.8661 12.5483L16.887 12.5886C16.9078 12.5886 16.9078 12.6087 16.9078 12.6087C16.9912 12.7296 17.0329 12.5483 17.1372 12.649C17.1581 12.5886 17.1164 12.5684 17.1164 12.5281C17.1372 12.4878 17.1789 12.4475 17.1998 12.4072C17.2415 12.4878 17.3666 12.5483 17.3458 12.6692C17.4292 12.6692 17.3249 12.6087 17.3666 12.5684C17.3458 12.5483 17.3249 12.508 17.3041 12.4677C17.3041 12.4072 17.3666 12.3871 17.3875 12.4072L17.3666 12.4878C17.4292 12.4475 17.4292 12.3266 17.4709 12.246C17.5335 12.2863 17.4918 12.3669 17.5126 12.4274L17.5752 12.4072V12.4677C17.6169 12.4475 17.6169 12.3871 17.6795 12.4072C17.6378 12.4677 17.7629 12.4677 17.7003 12.5483C17.7212 12.5684 17.7421 12.4475 17.7421 12.5281C17.7629 12.4677 17.7212 12.4878 17.7003 12.4677C17.6795 12.3669 17.7629 12.4274 17.8046 12.3871C17.8046 12.4475 17.7838 12.4475 17.8255 12.4878C17.8255 12.4475 17.8672 12.4274 17.8881 12.4677C17.8881 12.4072 17.9298 12.4475 17.9506 12.4677C17.9298 12.4475 17.8881 12.4072 17.9089 12.3468C17.9298 12.3266 17.9506 12.3065 17.9923 12.3065L17.9506 12.2662C17.9923 12.1654 18.0132 12.3266 18.0758 12.3065C18.0549 12.3468 18.034 12.3468 18.0132 12.3871C18.034 12.3468 18.0966 12.3065 18.1175 12.2863L18.1592 12.3871C18.1592 12.3468 18.2009 12.3871 18.2009 12.3266C18.2635 12.3669 18.1592 12.4072 18.1592 12.4475C18.2218 12.4878 18.2218 12.3468 18.2843 12.4475L18.2635 12.508C18.2843 12.508 18.326 12.4677 18.326 12.508C18.326 12.4878 18.3052 12.4878 18.3052 12.4878C18.326 12.3669 18.4095 12.3871 18.4095 12.2662H18.3677C18.4095 12.246 18.4512 12.1453 18.4929 12.2057C18.5137 12.246 18.472 12.3065 18.4512 12.3266C18.4929 12.3266 18.4929 12.1856 18.5346 12.1856C18.5137 12.1654 18.5137 12.1251 18.5346 12.0848C18.4929 12.0848 18.4303 12.0446 18.4512 12.105L18.472 12.1251C18.472 12.1654 18.4512 12.1654 18.4512 12.1856C18.4095 12.1856 18.4303 12.1251 18.4303 12.105C18.3677 12.0848 18.4303 12.246 18.3677 12.2259V12.2057C18.326 12.246 18.2843 12.246 18.2843 12.3266C18.2635 12.246 18.2009 12.3669 18.18 12.3065C18.18 12.1251 18.2843 12.3266 18.326 12.2057C18.2843 12.1654 18.3469 12.105 18.3677 12.0647L18.2635 12.1453C18.2635 12.1251 18.2218 12.0244 18.2009 12.0848C18.1592 12.105 18.1592 12.1856 18.1383 12.1654C18.1383 12.1453 18.1383 12.1251 18.1383 12.105C18.0966 12.0848 18.1175 12.1453 18.0966 12.1654C18.0549 12.1453 18.1175 12.0848 18.0758 12.0647C18.034 12.1453 18.0132 12.0446 17.9715 12.0446C17.9923 12.1453 17.8255 12.1856 17.9089 12.2863L17.8046 12.4677C17.7838 12.4072 17.8672 12.3065 17.8463 12.2259H17.9089C17.8881 12.0848 17.7629 12.3065 17.7212 12.1654C17.6795 12.1654 17.7003 12.1856 17.6378 12.105L17.6586 12.2259C17.6169 12.2057 17.6169 12.1251 17.6169 12.105C17.5961 12.105 17.5752 12.105 17.5544 12.105C17.5544 12.0848 17.5752 12.0647 17.5752 12.0647C17.5544 12.0043 17.5335 12.0244 17.5335 12.0647C17.5126 12.105 17.4918 12.0848 17.4709 12.0848L17.4918 12.0647C17.4709 12.0647 17.4709 12.0848 17.4709 12.105C17.4709 12.105 17.4501 12.105 17.4501 12.1251C17.4501 12.1453 17.4709 12.2259 17.4918 12.246C17.4084 12.2057 17.3458 12.2259 17.2832 12.1251C17.2832 12.0848 17.3041 12.0446 17.3041 12.0446C17.2624 12.0244 17.2415 12.0848 17.2415 12.1453H17.2207C17.2207 12.1251 17.1998 12.0848 17.1998 12.0848C17.1998 12.0647 17.1998 12.0647 17.1789 12.0647C17.1581 12.1654 17.0955 12.105 17.0955 12.1654C17.1164 12.1654 17.1372 12.1654 17.1581 12.1654C17.1372 12.2259 17.0955 12.3065 17.0747 12.246C17.1164 12.1856 17.0121 12.1453 17.0955 12.1251C17.0329 12.0043 17.0747 12.2057 17.0121 12.1654L16.9704 12.1251C16.9704 12.0647 17.033 12.0848 17.0121 12.0647H16.9912C17.0121 12.0043 17.1164 12.0446 17.1789 11.964L17.0538 11.9237C16.9078 12.0043 16.7201 11.9035 16.595 12.0647C16.595 12.0647 16.595 12.0848 16.595 12.105V12.0848L16.5741 12.1453C16.5533 12.0848 16.4907 12.0647 16.449 12.0244C16.4698 12.0647 16.4698 12.0647 16.4907 12.1251C16.4907 12.1856 16.4907 12.2259 16.4281 12.2057C16.4281 12.1654 16.449 12.1654 16.4281 12.1251C16.449 12.1453 16.4281 12.1856 16.4073 12.1856C16.3864 12.1453 16.3447 12.1453 16.3447 12.105C16.3656 12.0848 16.3656 12.105 16.3656 12.1251C16.3864 12.105 16.3238 12.0848 16.3447 12.0446L16.303 12.0647C16.2821 12.0244 16.3238 12.0043 16.303 11.964C16.2404 12.0043 16.1987 12.105 16.1361 12.1453C16.1361 12.1251 16.1361 12.0043 16.1361 12.0446C16.0944 12.0043 16.0319 12.1654 15.9693 12.1654C15.9693 12.1251 15.9901 12.1453 16.011 12.1251C15.8441 12.0848 15.6982 12.0848 15.5313 11.9841L15.4896 12.105L15.4062 11.964C15.2393 11.8834 15.0933 11.964 14.9265 12.0043C14.8848 12.0043 14.9056 11.9237 14.8639 11.9035C14.7596 11.8834 14.7179 12.0244 14.6136 12.0446C14.6345 12.0043 14.6553 11.9035 14.6136 11.9035C14.6136 11.9438 14.5928 11.9841 14.5719 11.964L14.5928 11.9237C14.5719 11.8632 14.5302 11.9237 14.4885 11.9035C14.3842 11.9035 14.3008 11.9841 14.2174 12.105C14.1339 12.0848 14.2174 11.9841 14.2174 11.964C14.2799 12.0043 14.2591 11.9438 14.2799 11.9035C14.2382 11.9438 14.2174 11.964 14.1965 11.8834C14.1548 11.8834 14.1339 11.8834 14.0922 11.9438C14.1131 11.9237 14.1339 11.964 14.1131 12.0043C14.0714 11.9841 13.9879 12.0043 13.9879 11.9035C13.7794 11.9237 13.5291 11.9035 13.2997 11.9035C13.258 11.964 13.3205 11.9237 13.2997 11.964C13.2371 12.0244 13.258 11.9237 13.2163 11.9841L13.2371 11.9237C13.1746 11.9237 13.0911 12.0244 13.0286 12.0647C13.0494 12.0043 12.966 12.0043 13.0286 11.9841C12.9868 12.0043 12.966 11.7222 12.9243 11.7625L12.966 12.0244C12.966 12.0446 12.9243 12.0244 12.9243 12.0446C12.9034 11.9841 12.8617 11.9237 12.8409 11.9237C12.8409 11.8632 12.8826 11.8632 12.9034 11.8834C12.9034 11.7826 12.82 11.8229 12.8617 11.702C12.7991 11.7222 12.8617 11.7625 12.8409 11.8028L12.7991 11.7826L12.8409 11.8229C12.7991 11.8632 12.7783 11.9438 12.7366 11.8834L12.674 11.9841C12.674 11.9035 12.6323 11.964 12.6114 11.9438L12.6323 11.8834C12.5906 11.8834 12.5697 11.8632 12.5489 11.8431C12.5697 11.7625 12.5906 11.8632 12.5906 11.7826L12.5489 11.7625C12.5489 11.8028 12.528 11.8431 12.5489 11.8834C12.5072 11.9841 12.4863 12.0446 12.382 12.0446C12.3403 11.964 12.4237 11.964 12.4029 11.8834C12.2986 11.8431 12.2777 12.105 12.2152 12.0848C12.1317 12.0446 12.1526 12.1251 12.0692 12.1251C12.09 12.0647 12.0066 12.0647 12.0066 12.0043L12.0275 11.9438C12.0066 11.964 11.9857 11.9438 11.9857 11.9035C11.9857 11.9841 11.8815 11.9841 11.8398 12.0043V12.0647C11.798 12.0848 11.7355 12.1251 11.6938 12.105C11.6312 12.1251 11.652 12.1856 11.5895 12.2662C11.5686 12.2057 11.5686 12.1453 11.5686 12.0647C11.5895 12.105 11.6103 12.0848 11.652 12.105C11.7355 12.0446 11.798 11.9035 11.8815 11.9438C11.9232 11.7826 11.8189 11.964 11.7772 11.9035V11.8834C11.798 11.8632 11.8606 11.8431 11.8606 11.7625C11.8189 11.7826 11.8189 11.9237 11.7563 11.8632C11.7146 11.9035 11.6729 11.7826 11.652 11.7625C11.6312 11.8229 11.6103 11.9438 11.5478 11.9237L11.5895 11.8431C11.5061 11.8431 11.5478 11.9841 11.4643 11.964C11.4852 11.9841 11.4435 12.0446 11.4852 12.0446C11.4643 12.0848 11.4018 12.105 11.3601 12.0848C11.3392 12.105 11.3601 12.1251 11.3601 12.1453C11.4018 12.2057 11.4435 12.0848 11.4643 12.1654L11.5061 12.0647C11.5478 12.105 11.5478 12.1856 11.5269 12.2259C11.5478 12.2259 11.5478 12.2057 11.5686 12.2259C11.5686 12.3669 11.5061 12.1654 11.5061 12.3065L11.5269 12.2863C11.5478 12.3871 11.4643 12.3669 11.4226 12.3669C11.3809 12.3266 11.3392 12.3065 11.3392 12.246L11.4018 12.2259C11.3601 12.1654 11.3183 12.2662 11.2975 12.246V12.2259V12.246L11.2766 12.2259C11.2558 12.2259 11.1932 12.2662 11.1724 12.246V12.3065V12.2662C11.1932 12.2662 11.2349 12.3065 11.2141 12.3468C11.1515 12.3871 11.1306 12.2662 11.1306 12.2259C11.1515 12.1251 11.1932 12.2259 11.2349 12.1856C11.2141 12.0848 11.1724 12.1856 11.1098 12.105C11.1306 12.0043 11.1932 12.105 11.1932 12.0043C11.1306 11.9841 11.1306 12.0647 11.0681 12.0244C11.0681 11.9841 11.1306 11.964 11.1306 11.9035L11.0889 11.8834C11.1724 11.8834 11.0681 11.7625 11.1515 11.7222C11.1098 11.6819 11.1098 11.8028 11.0681 11.7423C11.0889 11.7826 11.1098 11.8632 11.0681 11.9035L11.0264 11.8834C11.0055 11.8431 11.0889 11.7826 11.0472 11.7423L10.9847 11.7826C10.9847 11.8229 11.0055 11.8229 11.0055 11.8632C10.9847 11.8229 10.9638 11.9841 10.9221 12.0244C10.9012 12.0244 10.8804 12.0244 10.8595 11.9841C10.7969 12.0647 10.6927 12.0647 10.6301 12.1654C10.6718 12.105 10.6301 12.0647 10.6092 12.0244C10.6718 12.0043 10.6718 11.9237 10.651 11.8632C10.6092 11.8834 10.5884 11.964 10.6092 12.0043C10.5467 11.964 10.5675 12.0647 10.5258 12.0043C10.505 11.964 10.5467 11.9035 10.5258 11.8834C10.4632 11.8834 10.505 12.0043 10.4424 11.9841C10.4424 11.964 10.4424 11.964 10.4424 11.9438C10.4007 11.9237 10.3798 11.964 10.359 12.0244C10.3173 11.9035 10.2547 12.0446 10.2755 11.9237C10.1921 11.964 10.2964 11.9841 10.2755 12.0244C10.2338 12.0848 10.1713 12.0244 10.1713 12.0244C10.1921 12.0244 10.213 11.9841 10.2338 12.0043L10.213 11.9237C10.1087 11.8632 10.1504 12.105 10.0461 12.0446C10.0878 12.0043 10.067 11.9841 10.0878 11.9237C10.067 11.9438 10.0044 11.9237 10.0461 11.9841C10.0044 11.9841 9.98355 11.964 9.9627 11.9438C9.92098 11.9841 9.90013 12.0043 9.87927 12.0446C9.83756 12.0446 9.79585 11.9841 9.77499 11.9438C9.67071 12.0043 9.56643 11.9035 9.46215 11.964C9.37872 11.9438 9.50386 12.0848 9.39958 12.0647C9.42044 11.964 9.33701 12.0043 9.31615 11.9438C9.21187 11.8834 9.12845 12.0244 9.02417 11.9438C9.02417 11.9237 9.02417 11.9035 9.04502 11.9035C8.9616 11.8632 8.89903 11.8834 8.83646 11.8834V11.8632C8.73218 11.7826 8.6279 11.8834 8.50276 11.9035C8.50276 11.8834 8.52362 11.8431 8.52362 11.8431C8.46105 11.8229 8.37763 11.8028 8.33591 11.9035C8.27334 11.8028 8.2942 11.9438 8.18992 11.8431C8.18992 11.8229 8.18992 11.8229 8.21078 11.8229C8.16906 11.7826 8.12735 11.8028 8.08564 11.7826C7.98136 11.8431 7.9605 11.9841 7.83536 11.9438C7.83536 11.8028 7.89793 11.9035 7.91879 11.8028C7.89793 11.8229 7.87708 11.8632 7.83536 11.8229C7.85622 11.7625 7.83536 11.7826 7.85622 11.7423C7.75194 11.6617 7.68937 11.8431 7.68937 11.8431C7.68937 11.8632 7.68937 11.8834 7.71023 11.8834C7.68937 11.964 7.60595 11.8834 7.54338 11.9237C7.56423 11.9237 7.6268 11.9438 7.60595 12.0244C7.52252 12.0043 7.50166 12.1251 7.45995 12.1856C7.39738 12.1251 7.50166 12.0647 7.50166 11.964C7.48081 11.9237 7.45995 11.8431 7.50166 11.8028C7.4391 11.7826 7.39738 11.8632 7.33481 11.8834V11.8632C7.25139 11.8834 7.16797 12.0043 7.1054 11.9438L7.14711 11.9841C7.12625 12.0043 7.1054 11.9841 7.06368 12.0446C7.06368 12.0043 7.02197 11.964 7.04283 11.9237C7.00112 12.0647 6.87598 12.0043 6.83427 12.1453C6.81341 12.105 6.83427 12.0446 6.83427 12.0244C6.87598 12.0446 6.89683 12.0647 6.91769 12.0043C6.87598 12.0043 6.85512 11.964 6.85512 11.9438C6.81341 12.0446 6.70913 12.0647 6.68827 12.1654C6.66742 12.1251 6.6257 12.0848 6.64656 12.0244C6.52142 12.0647 6.70913 12.2662 6.56314 12.2662C6.50057 12.1856 6.6257 12.1654 6.54228 12.1453L6.56314 12.1251C6.50057 11.9237 6.52142 12.2662 6.438 12.2662C6.438 12.1654 6.47971 12.1856 6.438 12.105C6.37543 12.1251 6.33372 12.2863 6.27115 12.2662L6.292 12.2259C6.25029 12.2259 6.16687 12.2057 6.12516 12.2259C6.12516 12.2057 6.12516 12.2057 6.14601 12.2057C6.06259 12.1654 6.1043 12.2662 6.04173 12.1856L6.02087 12.246C6.06259 12.2863 6.12516 12.3266 6.16687 12.2662C6.12516 12.3266 6.22944 12.4072 6.20858 12.4878V12.4475C6.31286 12.6087 6.45885 12.6289 6.58399 12.6893C6.66742 12.5886 6.72998 12.7296 6.81341 12.649C6.83427 12.5281 6.83427 12.6289 6.91769 12.6087C6.87598 12.6289 6.91769 12.7095 6.93855 12.7296C6.9594 12.6893 6.98026 12.6893 7.00112 12.6692C7.02197 12.7095 7.12625 12.8102 7.14711 12.7296C7.18882 12.7699 7.12625 12.7699 7.12625 12.79C7.14711 12.8505 7.16797 12.7497 7.18882 12.79V12.8102C7.27225 12.8102 7.31396 12.8303 7.37653 12.8505C7.37653 12.7296 7.45995 12.8102 7.48081 12.7699C7.45995 12.8102 7.52252 12.8102 7.54338 12.8303L7.58509 12.7296C7.6268 12.649 7.64766 12.79 7.68937 12.7497L7.64766 12.6692C7.68937 12.6289 7.79365 12.7095 7.81451 12.7699C8.16906 12.5281 8.35677 12.9109 8.73218 12.8303C8.75304 12.79 8.71132 12.7699 8.73218 12.7095C8.77389 12.6893 8.77389 12.7095 8.81561 12.6893C8.79475 12.649 8.79475 12.6893 8.79475 12.6692L8.73218 12.7095C8.73218 12.7095 8.73218 12.6893 8.73218 12.6692C8.71132 12.6893 8.69047 12.7095 8.66961 12.6893C8.71132 12.649 8.71132 12.5684 8.75304 12.6087C8.75304 12.6289 8.75304 12.6289 8.73218 12.6289C8.77389 12.6289 8.77389 12.5886 8.79475 12.6087C8.83646 12.6289 8.81561 12.6087 8.81561 12.649L8.91989 12.6893C8.98246 12.5886 9.04502 12.6893 9.04502 12.6893C9.02417 12.7699 8.98246 12.7095 8.94074 12.79L8.98246 12.8505V12.79L9.04502 12.8102V12.8303C9.04502 12.8102 9.06588 12.7699 9.06588 12.8102C9.06588 12.8102 9.06588 12.8303 9.06588 12.8505L9.10759 12.8102C9.08674 12.8706 9.1493 12.8303 9.12845 12.9109C9.25359 12.9512 9.2953 12.8102 9.39958 12.9109C9.37872 12.8706 9.44129 12.79 9.46215 12.8102C9.483 12.8303 9.483 12.8505 9.483 12.8706L9.52472 12.8303C9.58728 12.9512 9.629 12.8706 9.71242 12.9109V12.9512C9.73328 12.9109 9.77499 12.8706 9.8167 12.8908V12.9512C9.87927 12.9915 9.85842 12.8102 9.92098 12.8505C9.92098 12.7699 9.87927 12.7296 9.87927 12.6692C9.90013 12.7497 9.9627 12.7497 9.94184 12.7095C10.0044 12.6893 9.98355 12.7095 9.98355 12.7296L10.0253 12.6893C10.067 12.6893 10.0461 12.79 10.0253 12.8303C10.067 12.7497 10.1087 12.8102 10.1504 12.8102L10.1713 12.8706L10.2338 12.8908C10.2755 12.8303 10.3173 12.8303 10.3798 12.8505L10.3381 12.9512C10.3798 13.0117 10.359 12.9109 10.359 12.9109C10.4215 12.8706 10.4215 12.9311 10.4632 12.9915C10.5675 12.8706 10.651 13.1124 10.7344 12.9714ZM16.9078 12.6087C16.9078 12.5684 16.9287 12.5483 16.9078 12.6087V12.6087ZM16.4073 12.5684C16.4698 12.5281 16.449 12.5684 16.449 12.6087C16.3864 12.5886 16.3656 12.6087 16.303 12.5886C16.303 12.6087 16.303 12.6289 16.3238 12.649C16.303 12.649 16.2821 12.6289 16.2821 12.5684C16.303 12.4677 16.4281 12.6289 16.4073 12.5684ZM17.5126 12.105V12.1251V12.105ZM17.2207 12.1856C17.2207 12.1654 17.1998 12.1453 17.1998 12.1453C17.2207 12.1654 17.2207 12.1856 17.2207 12.1856ZM16.6367 12.0647C16.6158 12.0244 16.595 12.0446 16.5741 12.0446C16.595 12.0446 16.6158 12.0647 16.6367 12.0647ZM12.966 12.105C12.9868 12.0848 13.0077 12.0446 12.9868 12.0244C12.966 12.0647 12.9451 12.0043 12.9243 12.0446C12.9451 12.0848 12.9451 12.105 12.966 12.105ZM11.2349 12.4274C11.2349 12.3871 11.2558 12.3468 11.2349 12.3065C11.2349 12.2863 11.2349 12.2863 11.2349 12.2662C11.2141 12.2662 11.2141 12.246 11.1932 12.2662C11.1932 12.4072 11.1724 12.4274 11.2349 12.4274Z" fill="black"/>
<path d="M11.1932 12.2863C11.1932 12.2863 11.2141 12.3065 11.2349 12.3266C11.2349 12.3065 11.2141 12.2863 11.1932 12.2863Z" fill="black"/>
<path d="M18.472 12.5281L18.4929 12.5886C18.5554 12.5483 18.5554 12.4878 18.5763 12.4274C18.5346 12.4878 18.4929 12.4677 18.4303 12.4677L18.472 12.5281Z" fill="black"/>
<path d="M18.4512 12.105C18.4512 12.0849 18.4303 12.0446 18.4303 12.0446V12.0849L18.4512 12.105Z" fill="black"/>
<path d="M17.7629 11.9035L17.8255 11.9438C17.8464 11.9035 17.7838 11.8431 17.7629 11.9035Z" fill="black"/>
<path d="M18.0132 12.5886L18.0341 12.5483C18.0132 12.508 17.9715 12.508 17.9715 12.5684C18.0132 12.5483 17.9715 12.5886 18.0132 12.5886Z" fill="black"/>
<path d="M17.617 11.9035C17.5961 11.9841 17.5544 11.8632 17.5544 11.9438C17.5752 11.9237 17.617 11.9841 17.617 11.9035Z" fill="black"/>
<path d="M17.6586 12.649C17.6795 12.7296 17.7003 12.649 17.7421 12.6692C17.7212 12.6692 17.6795 12.5886 17.6586 12.649Z" fill="black"/>
<path d="M17.3249 12.1252C17.3249 12.0647 17.3458 12.0647 17.3666 12.0849C17.3666 12.105 17.3458 12.1252 17.3458 12.1453C17.3875 12.105 17.3875 12.105 17.4292 12.0849C17.3875 12.0446 17.3458 12.0244 17.3458 11.9438C17.3249 12.0043 17.3041 12.0647 17.3249 12.1252Z" fill="black"/>
<path d="M17.5752 12.649C17.5961 12.6691 17.6169 12.7296 17.6586 12.7094C17.6586 12.6691 17.6378 12.6087 17.5961 12.6288L17.6169 12.5684C17.5752 12.5281 17.6378 12.649 17.5752 12.649Z" fill="black"/>
<path d="M17.179 11.9841L17.1998 12.0042C17.2415 11.9438 17.2832 11.9841 17.3041 11.9035C17.2624 11.9035 17.1998 11.9438 17.179 11.9841Z" fill="black"/>
<path d="M17.4292 12.5281V12.6288C17.4709 12.649 17.4292 12.5885 17.4501 12.5684C17.4709 12.5885 17.4709 12.5885 17.4918 12.5684C17.4292 12.5885 17.4709 12.508 17.4292 12.5281Z" fill="black"/>
<path d="M17.3041 12.6288L17.2624 12.6691L17.3041 12.7699C17.3458 12.7296 17.3041 12.7094 17.3041 12.6288Z" fill="black"/>
<path d="M17.2415 12.5684L17.1581 12.6893C17.1998 12.6289 17.1998 12.649 17.2415 12.5684Z" fill="black"/>
<path d="M16.303 11.9841C16.303 12.0244 16.3447 12.0647 16.3238 12.0244C16.3447 12.0043 16.2821 11.9438 16.303 11.9841Z" fill="black"/>
<path d="M16.4907 12.7095C16.4698 12.6893 16.4073 12.7296 16.3655 12.7699C16.4073 12.7498 16.4907 12.7699 16.4907 12.7095Z" fill="black"/>
<path d="M15.0725 12.9512C15.0933 12.9714 15.135 12.9311 15.135 12.8908C15.0933 12.9109 15.0725 12.9311 15.0308 12.9714C15.0516 12.9714 15.0725 12.9915 15.0725 12.9512Z" fill="black"/>
<path d="M14.7596 12.9311C14.7805 12.9109 14.8014 12.9109 14.8014 12.8908C14.7805 12.8706 14.7596 12.9109 14.7596 12.9311Z" fill="black"/>
<path d="M12.7157 11.8028C12.6949 11.7826 12.674 11.8028 12.674 11.8632C12.7157 11.8431 12.6949 11.8028 12.7157 11.8028Z" fill="black"/>
<path d="M12.6323 11.8632V11.8229L12.6115 11.7826L12.6323 11.8632Z" fill="black"/>
<path d="M12.4446 11.7826C12.4446 11.7826 12.4446 11.7625 12.4655 11.7625C12.4446 11.7625 12.4238 11.7625 12.4446 11.7826Z" fill="black"/>
<path d="M12.382 11.7625L12.4237 11.8431C12.4654 11.8028 12.382 11.8028 12.4237 11.702L12.382 11.7625Z" fill="black"/>
<path d="M12.236 11.7826C12.1943 11.7625 12.1526 11.8834 12.1317 11.7826C12.0275 11.8431 12.1526 11.9438 12.0275 11.9841C12.1317 12.0445 12.09 11.7826 12.1943 11.8431C12.1526 11.8028 12.236 11.8229 12.236 11.7826Z" fill="black"/>
<path d="M12.2568 11.9639C12.2568 11.9035 12.2151 11.9035 12.1943 11.9438C12.2151 11.9438 12.236 12.0244 12.2568 11.9639Z" fill="black"/>
<path d="M12.0483 11.8431L12.0066 11.8028V11.8229L12.0483 11.8431Z" fill="black"/>
<path d="M11.9232 11.8229L11.9441 11.7625C11.9441 11.7826 11.9023 11.7826 11.9232 11.8229Z" fill="black"/>
<path d="M11.7563 11.7423C11.7355 11.7222 11.6937 11.8632 11.7563 11.8229H11.7355C11.7563 11.8028 11.7146 11.7625 11.7563 11.7423Z" fill="black"/>
<path d="M11.36 11.9639C11.3809 11.9639 11.4018 11.9438 11.4018 11.9236L11.36 11.9639Z" fill="black"/>
<path d="M11.36 12.2863C11.3809 12.3669 11.4018 12.2863 11.4435 12.3065C11.4226 12.2863 11.4226 12.2863 11.36 12.2863Z" fill="black"/>
<path d="M11.2975 11.8431C11.3183 11.8028 11.3392 11.8229 11.3392 11.8431C11.3392 11.7826 11.2975 11.8028 11.2975 11.8431Z" fill="black"/>
<path d="M11.2141 11.8632C11.1932 11.8229 11.2141 11.8229 11.2141 11.8028C11.1724 11.7625 11.1307 11.7625 11.1098 11.8229C11.1098 11.8632 11.1307 11.964 11.1098 12.0043C11.1724 11.9841 11.1932 11.8229 11.2349 11.9438L11.2767 11.8028C11.2349 11.7423 11.2558 11.8834 11.2141 11.8632Z" fill="black"/>
<path d="M11.3392 12.1453L11.2975 12.105C11.2975 12.1453 11.2767 12.1654 11.2558 12.1856C11.2767 12.2662 11.3184 12.1453 11.3392 12.1453Z" fill="black"/>
<path d="M10.8804 11.9236L10.7969 11.9639H10.8178L10.8804 11.9236Z" fill="black"/>
<path d="M10.8178 11.9035V11.8632L10.7761 11.9237L10.8178 11.9035Z" fill="black"/>
<path d="M10.7552 11.8632L10.797 11.8431L10.7552 11.8632Z" fill="black"/>
<path d="M10.6093 11.8431L10.6301 11.8834C10.651 11.8632 10.6927 11.9237 10.6718 11.8632C10.651 11.8834 10.6093 11.8834 10.6093 11.8431Z" fill="black"/>
<path d="M10.1296 12.9714C10.1504 12.9512 10.1296 12.9109 10.1296 12.8908L10.1087 12.9714C10.1087 12.9714 10.1296 12.9512 10.1296 12.9714Z" fill="black"/>
<path d="M10.0461 12.8505L9.98358 12.9512C10.0461 12.9714 10.0462 12.8908 10.1087 12.8908C10.0879 12.8706 10.0462 12.9311 10.0253 12.9109L10.0461 12.8505Z" fill="black"/>
<path d="M9.00333 12.79C9.00333 12.7296 9.00333 12.7497 9.04505 12.7094C8.98248 12.7497 8.94077 12.7296 8.8782 12.7497C8.8782 12.79 8.83649 12.8505 8.85734 12.8303L8.91991 12.79V12.8303C8.96162 12.8706 8.96162 12.7497 9.00333 12.79Z" fill="black"/>
<path d="M6.29204 12.1856C6.29204 12.1654 6.29204 12.1251 6.29204 12.105C6.25033 12.1453 6.29204 12.1856 6.29204 12.1856Z" fill="black"/>
<path d="M20.6641 10.508C20.6641 10.5271 20.6641 10.5653 20.6641 10.6035C20.6444 10.508 20.6246 10.4698 20.6641 10.508Z" fill="black"/>
<path d="M20.6839 11.788C20.6641 11.4632 20.6641 10.9474 20.6641 10.6035C20.6839 10.68 20.7036 10.7755 20.7432 10.8901C20.7827 11.0047 20.7827 11.1385 20.8024 11.2531C20.8024 11.5206 20.7827 11.7307 20.6839 11.788Z" fill="black"/>
<path d="M21 10.3934V10.8328C20.9012 10.5844 21 10.6227 21 10.3934Z" fill="black"/>
<path d="M20.8222 10.5844L20.7432 10.5653L20.7827 10.3361L20.8222 10.5844Z" fill="black"/>
<path d="M5.19318 8.90325C5.23269 8.88415 5.29197 8.86505 5.31173 8.90325H5.19318Z" fill="black"/>
<path d="M4.56091 9.64832C4.52139 9.72473 4.50163 9.78205 4.48187 9.82026C4.50163 9.76294 4.52139 9.72473 4.56091 9.64832Z" fill="black"/>
<path d="M5.52906 8.15817C5.5093 8.19638 5.48955 8.25369 5.46979 8.31101C5.46979 8.25369 5.48955 8.19638 5.52906 8.15817Z" fill="black"/>
<path d="M14.2821 4.18448C14.4204 4.28 14.5587 4.35642 14.6575 4.41373C14.3414 4.39463 14.3414 4.28 14.2821 4.18448Z" fill="black"/>
<path d="M3.43469 14.1378L3.51373 14.157C3.49397 14.2143 3.47421 14.2525 3.43469 14.1378Z" fill="black"/>
<path d="M3.47418 9.61011C3.5137 9.61011 3.53346 9.62921 3.55322 9.64832C3.55322 9.66742 3.53346 9.68653 3.53346 9.70563L3.47418 9.61011Z" fill="black"/>
<path d="M5.74646 7.56595C5.74646 7.54685 5.74646 7.54685 5.74646 7.56595C5.78598 7.52774 5.80574 7.48953 5.84525 7.47043C5.82549 7.52774 5.78598 7.54685 5.74646 7.56595Z" fill="black"/>
<path d="M3.8694 15.5516C3.8694 15.628 3.84964 15.7044 3.82989 15.7808C3.79037 15.6471 3.81013 15.5516 3.8694 15.5516Z" fill="black"/>
<path d="M4.04718 8.21548C4.00767 8.2919 3.94839 8.34921 3.90887 8.42563C3.94839 8.31101 4.00767 8.25369 4.04718 8.21548Z" fill="black"/>
<path d="M14.2821 4.18448C14.2426 4.16538 14.2031 4.12717 14.1636 4.10806C14.2228 4.12717 14.2624 4.14627 14.2821 4.18448Z" fill="black"/>
<path d="M20.2689 9.45728C20.2294 9.32355 20.2492 9.28534 20.2887 9.24713C20.3084 9.34265 20.3084 9.39997 20.2689 9.45728Z" fill="black"/>
<path d="M18.4907 16.4877C18.4709 16.5068 18.4314 16.5068 18.4116 16.5068C18.4314 16.4686 18.4709 16.4686 18.4907 16.4877Z" fill="black"/>
<path d="M15.3095 20.3659C15.6454 20.1557 16.0801 20.194 16.3963 20.0602L16.258 20.0411L16.5939 19.9647L16.5346 19.8692C16.8112 19.7928 17.0681 19.6017 17.2854 19.468C17.404 19.3916 17.5027 19.3343 17.6015 19.296C17.7003 19.2578 17.7794 19.2196 17.8386 19.2196L17.6806 19.1241L18.2338 18.8949L17.8979 18.9904C18.4116 18.6083 19.2217 17.997 19.3008 17.8823H19.202C19.2415 17.7868 19.3403 17.7486 19.4391 17.6913H19.3008C19.3798 17.5958 19.4588 17.5193 19.5181 17.4429C19.5774 17.3665 19.6367 17.2901 19.6762 17.2137C19.775 17.0608 19.854 16.9271 19.933 16.7934C20.0121 16.6596 20.0714 16.5068 20.1701 16.3349C20.2689 16.1629 20.3875 15.991 20.5258 15.7617C20.6246 15.4943 20.427 15.8955 20.3677 15.8764C20.3677 15.7044 20.6048 15.3988 20.6839 15.3414C20.506 15.3605 20.348 15.7617 20.3875 15.4179C20.5653 15.2459 20.1899 15.4943 20.3875 15.1504C20.4665 15.1313 20.5456 15.1122 20.6443 15.074C20.7036 14.8447 20.506 14.9785 20.6641 14.6346C20.9012 14.2716 20.7036 15.1886 20.9605 14.5582C21.0198 14.4053 20.9407 14.1952 20.9012 13.9659C20.8617 13.7367 20.8419 13.4883 20.9407 13.1826C20.921 12.6286 20.5851 13.4119 20.7629 12.6859L20.5653 13.1253C20.5258 12.9916 20.427 13.0489 20.506 12.7623C20.5456 12.7241 20.6048 12.6477 20.6443 12.5713C20.6839 12.4949 20.7234 12.3994 20.7234 12.3229C20.6246 12.6668 20.5851 12.4949 20.5258 12.342C20.4665 12.1892 20.4072 12.0364 20.2887 12.3229L20.3085 12.0937C20.3085 12.1128 20.2887 12.1319 20.2689 12.1128V11.8071C20.2097 11.9982 20.1701 12.4185 20.0318 12.2083L20.0121 11.788C19.8935 11.9026 19.854 11.7498 19.775 11.7689L19.6367 12.3612V12.514L19.5971 12.6668L19.4984 12.9534C19.5774 12.9152 19.6367 12.7623 19.6959 12.8388C19.6959 12.9916 19.6564 13.068 19.6169 13.1062C19.5774 13.1635 19.5576 13.2209 19.5576 13.3737L19.6762 13.2591C19.6367 13.2782 19.6169 13.3164 19.6169 13.24C19.5971 13.1253 19.6564 13.0871 19.7157 13.0871C19.8145 13.2209 19.6564 13.4883 19.5576 13.5647C19.4786 13.9468 19.7355 13.6985 19.7355 13.794C19.6762 13.8322 19.6367 13.8895 19.6169 13.9659C19.5774 14.0423 19.5576 14.1188 19.5379 14.1952C19.4984 14.3671 19.4588 14.5391 19.3798 14.6346L19.5576 14.5391C19.5774 14.711 19.5181 14.8447 19.4391 14.9594C19.36 15.074 19.281 15.1504 19.2217 15.2268L19.3403 15.2077C19.2415 15.3988 19.2217 15.5707 19.1822 15.7235C19.1427 15.8764 19.0637 15.991 18.8266 16.0292H18.9056C18.8266 16.182 18.708 16.4495 18.5302 16.5259C18.5697 16.545 18.5895 16.6023 18.5499 16.6787C18.3919 16.6787 18.3326 16.8698 18.1745 17.0799C18.3128 16.9653 18.4116 17.1373 18.5697 17.0226C18.4907 17.2328 18.3919 17.271 18.2733 17.2901C18.1548 17.3092 18.0362 17.3092 17.9177 17.4238C17.8189 17.634 18.135 17.3665 18.214 17.3665C17.9769 17.5193 17.8386 17.7677 17.6806 17.9969C17.5225 18.2071 17.3447 18.379 17.0878 18.3408L17.2064 18.1116C16.989 18.188 16.8902 18.2453 16.9297 18.2644C16.989 18.2071 17.0088 18.2262 17.0483 18.2453C16.9495 18.379 16.8112 18.4555 16.6926 18.5128C16.5741 18.5701 16.4358 18.6083 16.2975 18.6465C16.0406 18.7038 15.764 18.7229 15.4676 18.8949C15.5467 18.9331 15.6257 18.914 15.6652 18.9522C15.5467 19.0477 15.4281 18.9904 15.3095 18.9522C15.191 18.914 15.0527 18.8949 14.8551 19.0286L14.9737 19.0668C14.8353 19.1623 14.6773 19.105 14.697 19.0668C14.7366 19.2005 14.4797 19.2578 14.1833 19.3534C14.1043 19.3725 14.045 19.3916 13.966 19.4107C13.8869 19.4298 13.8079 19.4489 13.7486 19.468C13.6103 19.5253 13.4918 19.5826 13.4127 19.6972C13.2744 19.6399 13.0373 19.5826 12.8002 19.5444C12.5631 19.5253 12.3458 19.5253 12.2272 19.5444C11.9111 19.6972 12.5038 19.7546 12.3853 19.9074C12.1284 19.8883 12.0099 19.7355 11.6345 19.7737C11.6542 19.6208 12.3655 19.4871 11.7135 19.3534L11.6147 19.4298C11.6937 19.4298 11.7728 19.3916 11.8716 19.4107C12.0494 19.5062 11.753 19.5062 11.6937 19.5635C11.5752 19.5635 11.4566 19.5253 11.3381 19.5062L10.9824 19.4298C10.9627 19.2578 11.3776 19.3534 11.4171 19.3152C11.2788 19.296 11.1405 19.296 10.9824 19.3152C10.9034 19.3152 10.8244 19.3152 10.7453 19.3152L10.5082 19.2769C10.3502 19.2578 10.1921 19.2578 10.0538 19.2196C9.91548 19.2005 9.77717 19.1241 9.65862 19.0668L9.67837 19.1432C9.10538 18.7802 9.16465 19.3152 8.78924 18.8184C8.51262 18.742 8.809 19.0286 8.39407 18.8566C8.27552 18.7993 8.37431 18.7802 8.41383 18.7611C7.97914 18.4364 8.11745 18.7802 7.78156 18.3981V18.6274C7.66301 18.5319 7.56422 18.3981 7.48518 18.2835C7.38639 18.1689 7.30735 18.0352 7.20856 17.9205C7.05049 17.6722 6.89243 17.4429 6.67508 17.3092C6.59605 17.4238 6.83315 17.6149 6.85291 17.7868C6.77387 17.6149 6.63557 17.4811 6.51701 17.3283C6.39846 17.1755 6.26015 17.0226 6.12184 16.8889C5.98353 16.7361 5.86498 16.5832 5.74643 16.4304C5.68716 16.354 5.62788 16.2776 5.58836 16.2011C5.54885 16.1247 5.50933 16.0483 5.48957 15.9719C5.68716 16.0674 5.58836 15.5898 5.86498 15.8573C5.74643 16.0483 5.96378 16.1247 6.08233 16.2967C6.12184 16.1629 6.06257 16.0483 5.98353 15.9337C5.9045 15.7999 5.80571 15.6853 5.68716 15.5707C5.62788 15.5134 5.58836 15.4561 5.52909 15.3988C5.48957 15.3414 5.45005 15.2841 5.4303 15.2268C5.37102 15.1313 5.37102 15.0358 5.4303 14.9785L5.25247 14.9594C5.23271 14.8638 5.23271 14.6155 5.35126 14.7492C5.23271 14.5773 5.13392 14.3671 5.03513 14.1761C5.01537 14.2907 4.99561 14.5008 5.01537 14.6728C5.01537 14.8638 5.0944 14.9976 5.19319 15.0358C5.13392 15.265 4.97585 14.8256 4.89682 15.0549C4.89682 14.8065 4.8573 14.7492 4.79802 14.6919C4.71899 14.6346 4.63996 14.5964 4.58068 14.3671C4.71899 14.4435 4.73875 14.3098 4.75851 14.157C4.75851 14.0041 4.77827 13.8322 4.81778 13.8322C4.73875 13.6985 4.73875 13.3546 4.79802 13.2209C4.77827 13.0871 4.69923 12.8961 4.63996 12.6668C4.58068 12.4376 4.56092 12.1892 4.58068 11.9791C4.5214 12.1319 4.44237 12.3994 4.32382 12.3994C4.3831 12.1892 4.3831 11.96 4.22503 11.9218C4.10648 12.3038 4.20527 12.3612 4.30406 12.4185C4.36334 12.4376 4.40285 12.4567 4.44237 12.514C4.46213 12.5713 4.48189 12.6668 4.48189 12.8388C4.40285 12.9343 4.36334 13.0298 4.34358 13.1444C4.32382 13.2591 4.30406 13.4119 4.34358 13.5838C4.20527 13.4501 4.18551 13.5265 4.0472 13.4883C4.20527 13.2209 4.16575 12.9534 4.10648 12.6477C4.08672 12.342 4.00768 12.0173 4.10648 11.7307C4.22503 11.4824 4.46213 11.6734 4.5214 11.1576L4.56092 11.5588C4.48189 11.0621 4.67947 11.4441 4.73875 11.0429L4.60044 11.1958C4.58068 10.9474 4.63996 10.8519 4.73875 10.7373L4.5214 10.9283C4.5214 10.7946 4.54116 10.5462 4.63996 10.5462C4.60044 10.508 4.56092 10.4889 4.54116 10.4889C4.58068 10.4698 4.6202 10.4125 4.6202 10.2406C4.58068 10.3361 4.58068 10.3934 4.5214 10.3934C4.56092 10.2406 4.58068 10.1641 4.58068 10.1068C4.58068 10.0495 4.56092 10.0495 4.5214 10.0304C4.46213 10.0113 4.40285 10.0304 4.46213 9.83937C4.40285 9.89669 4.3831 9.76296 4.40285 9.62922C4.54116 9.66743 4.65971 9.5146 4.81778 9.34266C4.95609 9.17072 5.0944 8.96057 5.19319 8.90326C5.29199 8.76953 5.41054 8.6358 5.52909 8.50207C5.46981 8.57848 5.4303 8.44475 5.46981 8.31102V8.33013C5.48957 8.25371 5.39078 8.25371 5.3315 8.2346C5.29199 8.2155 5.27223 8.1964 5.29199 8.15819C5.29199 8.11998 5.3315 8.06266 5.41054 7.96714L5.62788 7.7952C5.58836 7.83341 5.58836 7.7761 5.56861 7.73789L5.78595 7.54685C5.78595 7.29849 5.94402 7.18386 6.10209 7.05013C6.26015 6.9164 6.4775 6.82088 6.57629 6.61073C6.49726 6.72536 6.33919 6.85909 6.33919 6.74446C6.3787 6.64894 6.49726 6.57252 6.57629 6.55342H6.53677C6.77387 6.36237 7.07025 6.20954 7.32711 6.0567C7.20856 6.0376 6.81339 6.36237 6.91218 6.13312C6.93194 5.94208 7.20856 5.86566 7.34687 5.77014C7.36663 5.84655 7.1888 6.07581 7.44566 5.92297C7.44566 5.86566 7.64325 5.63641 7.48518 5.67462C7.64325 5.6173 7.82108 5.52178 7.97914 5.44536C8.15697 5.38805 8.35456 5.33074 8.49286 5.31163C8.55214 5.23521 8.41383 5.27342 8.37431 5.29253V5.33074C8.19649 5.38805 8.236 5.1779 7.95938 5.42626C7.88035 5.33074 7.97914 5.25432 8.13721 5.1588C8.21625 5.12059 8.31504 5.08238 8.39407 5.02507C8.43359 5.00596 8.49286 4.98686 8.53238 4.94865C8.5719 4.92954 8.61142 4.91044 8.65093 4.89134L8.53238 4.92954L8.39407 4.96775L8.11745 5.02507C8.19649 4.92954 8.27552 4.83402 8.37431 4.7576C8.47311 4.68119 8.59166 4.62387 8.69045 4.54746C8.809 4.49014 8.92755 4.43283 9.06586 4.39462C9.18441 4.33731 9.32272 4.3182 9.46103 4.27999C9.59934 4.24179 9.71789 4.22268 9.8562 4.18447C9.99451 4.14626 10.1131 4.14626 10.2514 4.12716C10.5082 4.08895 10.7453 4.05074 10.9824 4.03164C10.7256 4.14626 10.5082 4.12716 10.5873 4.3182C10.8639 4.2991 10.9824 4.2991 11.101 4.27999C11.2195 4.26089 11.3381 4.24179 11.5949 4.22268C11.5752 4.22268 11.5554 4.22268 11.5554 4.22268C11.8321 4.10805 12.2075 4.27999 12.405 4.08895C12.2865 3.99343 12.0099 4.20358 11.9901 3.99343H12.3458C12.4643 3.99343 12.5829 4.01253 12.7014 4.01253C12.4841 3.8597 12.0099 4.01253 11.7333 3.97432C11.5357 3.99343 12.1284 3.99343 12.0296 4.12716C11.8716 4.12716 11.7333 4.12716 11.6345 4.10805C11.5159 4.08895 11.4369 4.08895 11.3578 4.06985C11.1998 4.03164 11.0615 3.97432 10.8836 3.89791C10.6465 3.78328 11.1405 3.70686 11.2788 3.68776C11.3974 3.72597 11.5159 3.74507 11.6542 3.78328C11.7925 3.82149 11.9308 3.84059 12.0692 3.8597C12.2075 3.8788 12.3655 3.8597 12.5236 3.8788C12.6817 3.8788 12.8397 3.8788 12.9978 3.8597C13.0768 3.82149 13.1954 3.76418 13.3337 3.72597C13.6498 3.91701 13.4522 4.18447 14.0252 4.24179C13.9857 4.18447 13.9265 4.14626 13.8869 4.08895C14.0252 4.05074 14.1043 4.06985 14.1636 4.08895C14.045 4.01253 13.9265 3.95522 13.8079 3.8788C13.6894 3.80238 13.5708 3.74507 13.4523 3.68776C13.6301 3.59224 13.8869 3.64955 14.1438 3.76418C14.3809 3.89791 14.6378 4.06985 14.8551 4.14626C14.8551 4.12716 14.6773 4.08895 14.6575 4.01253C14.8353 4.03164 15.0132 4.10805 15.191 4.18447C15.3491 4.26089 15.5269 4.35641 15.6652 4.45193C15.9418 4.66208 16.2184 4.87223 16.4358 5.04417C16.5741 5.06327 16.4753 4.98686 16.3765 4.89134C16.2777 4.79581 16.1592 4.7194 16.258 4.66208C16.4951 4.85313 16.8507 4.91044 16.8507 5.08238C16.8507 4.96775 17.0088 5.04417 17.1076 5.10148C17.2064 5.1779 17.2656 5.19701 17.0681 4.94865C17.3052 5.08238 17.5423 5.25432 17.7596 5.42626C17.9769 5.6173 18.1745 5.82745 18.3721 6.0376C18.5499 6.26685 18.7278 6.4961 18.8661 6.72536C18.9451 6.83998 19.0044 6.97371 19.0834 7.08834C19.1427 7.20297 19.2217 7.31759 19.281 7.45132C19.3008 7.37491 19.36 7.3367 19.4193 7.3558C19.3205 7.20297 19.1822 7.01192 19.0834 6.83998C19.0241 6.74446 18.9846 6.64894 18.9649 6.57252C18.9254 6.4961 18.9056 6.41969 18.8858 6.36237C18.9451 6.38148 19.0044 6.43879 19.0439 6.4961C19.0834 6.55342 19.1032 6.62983 19.1229 6.68715C19.1625 6.82088 19.1822 6.9164 19.2415 6.9355C19.202 6.80177 19.0637 6.61073 19.1427 6.53431C19.4391 6.72536 19.4193 6.97371 19.5379 7.16476L19.3996 7.05013C19.4786 7.20297 19.4984 7.3367 19.4984 7.41312C19.4984 7.50864 19.4984 7.56595 19.4984 7.62326C19.4984 7.68058 19.4984 7.73789 19.5181 7.81431C19.5576 7.89072 19.6169 7.98625 19.6959 8.13908C19.933 8.31102 19.7947 8.08177 19.933 8.00535C19.933 8.10087 20.0516 8.25371 20.1504 8.40654C20.2492 8.55938 20.3085 8.75042 20.2689 8.86505C20.2097 8.73132 20.1701 8.59759 20.0911 8.46386C20.1504 8.61669 20.1701 8.75042 20.2097 8.88415C20.2492 9.01788 20.2689 9.13251 20.2887 9.24714C20.3085 9.20893 20.348 9.18982 20.3282 9.11341C20.3677 9.36176 20.4468 9.66743 20.3875 9.80116L20.5851 9.82027C20.4665 9.70564 20.348 9.28535 20.4072 9.18982C20.5851 9.17072 20.6048 9.64833 20.6641 9.82027C20.6246 9.61012 20.6048 9.43818 20.6048 9.30445C20.5851 9.17072 20.5851 9.05609 20.5851 8.94147C20.5851 8.82684 20.5653 8.73132 20.5258 8.61669C20.506 8.55938 20.4863 8.50207 20.4468 8.42565C20.4072 8.36833 20.3677 8.29192 20.3085 8.2155V8.34923C20.1504 8.15819 20.0516 7.94804 19.9923 7.71879C19.9133 7.50864 19.8342 7.27938 19.7157 7.10744C19.8145 7.18386 19.8738 7.16476 19.8738 7.10744C19.7355 6.9164 19.5576 6.76357 19.4193 6.57252C19.3403 6.477 19.281 6.40058 19.202 6.30506C19.1229 6.20954 19.0439 6.13312 18.9649 6.0567C18.6487 5.69372 18.2733 5.36895 17.8386 5.08238L17.6806 4.7576L17.5818 4.85313C17.1273 4.64298 17.6213 4.68119 17.3249 4.50925C17.4435 4.56656 17.404 4.58566 17.404 4.62387C16.9495 4.18447 17.0483 4.54746 16.7717 4.33731C16.831 4.54746 17.3052 4.7194 17.0681 4.79581C16.6531 4.33731 15.764 4.03164 15.8035 3.72597C15.5269 3.66865 15.2305 3.55403 14.9341 3.47761C14.7761 3.4394 14.6378 3.40119 14.4797 3.36298C14.3216 3.32477 14.1833 3.26746 14.0252 3.24836C13.8672 3.21015 13.7289 3.19104 13.5708 3.15284C13.4127 3.11463 13.2744 3.07642 13.1361 3.07642C12.8397 3.03821 12.5829 3 12.326 3C12.1877 3.05731 12.405 3.03821 12.3655 3.07642C12.1679 3 11.8518 3.03821 11.5752 3.09552C11.4369 3.11463 11.3183 3.15284 11.2195 3.17194C11.1405 3.15284 11.0812 3.15284 11.0615 3.11463C10.8836 3.19104 10.8244 3.30567 10.7849 3.36298C10.528 3.30567 10.2316 3.36298 9.93524 3.4203L10.1723 3.40119L10.1526 3.4203L9.81668 3.4394V3.4203C9.0461 3.59224 8.236 3.97432 7.54446 4.20358C7.95938 4.08895 7.56422 4.41373 7.7618 4.37552C7.54446 4.35641 7.22832 4.45193 6.93194 4.64298C6.77387 4.7385 6.61581 4.83402 6.4775 4.94865C6.33919 5.06327 6.20088 5.19701 6.08233 5.31163C6.12184 5.34984 6.12184 5.40715 6.20088 5.38805C6.08233 5.44536 5.94402 5.50268 5.82547 5.57909H5.9045C5.78595 5.71282 5.6674 5.84655 5.52909 5.96118C5.46981 6.01849 5.39078 6.07581 5.31175 6.13312C5.25247 6.19043 5.17344 6.24775 5.11416 6.32416C4.8573 6.57252 4.6202 6.80177 4.56092 7.03103C4.73875 6.80177 4.79802 6.82088 4.87706 6.85909C4.73875 7.06924 4.60044 7.27938 4.46213 7.48953C4.3831 7.58505 4.32382 7.71879 4.24479 7.83341C4.16575 7.94804 4.08672 8.06266 4.00768 8.19639C4.02744 8.17729 4.06696 8.15819 4.08672 8.17729C4.06696 8.25371 4.00768 8.33013 3.96817 8.38744C3.92865 8.46386 3.86937 8.54027 3.82986 8.59759L3.96817 8.69311C3.88913 8.82684 3.82986 8.97968 3.75082 9.15162C3.69155 9.32355 3.63227 9.49549 3.53348 9.66743C3.55324 9.70564 3.55324 9.78206 3.51372 9.87758C3.4742 9.9731 3.43469 10.0686 3.39517 10.2024C3.31614 10.4507 3.21734 10.7182 3.21734 10.9283C3.19759 11.0621 3.43469 10.5844 3.39517 11.0238C3.09879 11.0621 3.35565 11.597 3.03952 11.6161C3.05928 11.7498 3.11855 11.8835 3.15807 12.0173L3 12.1128C3.31614 12.4376 2.88145 12.6477 3.05928 13.1444C3.07903 13.1062 3.09879 13.0489 3.11855 13.0871C3.11855 13.2591 3.15807 13.6411 3.01976 13.3546C3.01976 13.431 3.03952 13.5265 3.05928 13.6411C3.07903 13.7558 3.11855 13.8895 3.13831 13.985C3.19759 14.1952 3.25686 14.3098 3.27662 14.0805C3.19759 14.1379 3.17783 13.7367 3.15807 13.5838C3.29638 13.5838 3.33589 13.985 3.51372 14.0423C3.49396 14.0614 3.49396 14.1188 3.4742 14.157L3.59276 14.1952C3.573 14.4626 3.67179 14.6919 3.73106 14.9211C3.77058 15.0358 3.79034 15.1504 3.8101 15.2459C3.82986 15.3605 3.84962 15.4561 3.84962 15.5516C3.88913 15.5516 3.96817 15.628 4.02744 15.7808L3.88913 15.8573L4.00768 16.1056C4.0472 16.182 4.10648 16.2585 4.14599 16.3349C4.16575 16.2202 4.20527 16.1056 4.22503 16.0101C4.40285 16.2585 4.48189 16.4877 4.56092 16.7361C4.63996 16.9653 4.71899 17.1946 4.8573 17.4047C5.01537 17.3665 5.13392 17.5767 5.31175 17.8059C5.48957 18.0352 5.6674 18.2835 5.92426 18.3408C5.84522 18.2453 5.76619 18.1307 5.70692 18.0161C6.27991 18.6083 6.4775 18.5701 7.03074 19.0859C6.73436 18.9331 6.59605 18.8375 6.41822 18.742C6.24039 18.6274 6.04281 18.5128 5.60812 18.2644C6.00329 18.551 6.27991 18.8566 6.61581 19.1241C6.77387 19.2578 6.93194 19.3916 7.10977 19.5062C7.2876 19.6208 7.48518 19.7163 7.70252 19.7928C7.68277 19.6972 7.50494 19.5635 7.74204 19.6017C7.80132 19.831 8.49286 19.9647 8.29528 20.0602C8.5719 20.1175 8.67069 20.022 8.84852 20.0602C9.10538 20.2131 9.382 20.4041 9.65862 20.5569L9.63886 20.5187C9.83644 20.5187 10.034 20.5378 10.2316 20.5569C10.3304 20.576 10.4292 20.5951 10.5082 20.6143C10.607 20.6334 10.6861 20.6334 10.7849 20.6525C10.9627 20.6907 11.1405 20.7098 11.3381 20.7671C11.5159 20.8053 11.6937 20.8244 11.8913 20.8626C12.0692 20.9008 12.2667 20.939 12.4446 20.9581C12.6224 20.9772 12.82 20.9772 13.0176 20.9963C13.393 21.0154 13.7881 20.9581 14.1833 20.8626L14.1438 20.7862C14.2228 20.8053 14.2821 20.8053 14.3611 20.8244L14.5785 20.8435C14.2623 20.8435 14.6773 20.7098 14.697 20.6334L15.2108 20.5951C15.3886 20.576 15.5467 20.5378 15.7245 20.5187C15.6454 20.385 15.5269 20.2513 15.3095 20.3659ZM4.08672 15.7999L3.98793 15.5898C3.96817 15.5516 3.92865 15.5134 3.92865 15.4561L3.98793 15.5898C4.06696 15.6853 4.16575 15.7426 4.08672 15.7999ZM15.2503 3.59224C15.3293 3.70686 15.0922 3.55403 15.0132 3.55403L15.3491 3.68776C15.4281 3.66865 15.2898 3.63045 15.2503 3.59224ZM5.05488 15.3223L5.21295 15.3796L5.19319 15.5516L5.05488 15.3223ZM6.83315 17.5958L6.65532 17.3665H6.69484L6.87267 17.5958H6.83315ZM9.34248 20.0602C9.32272 20.0411 9.30296 20.0411 9.28321 20.022C9.32272 20.0411 9.34248 20.0411 9.34248 20.0602C9.55982 20.2131 9.71789 20.0602 9.8562 20.2895C9.55982 20.4041 9.46103 20.1749 9.34248 20.0602ZM4.83754 16.6979C4.79802 16.6023 4.77827 16.545 4.71899 16.4877C4.69923 16.5641 4.71899 16.8125 4.6202 16.6787C4.6202 16.545 4.44237 16.2202 4.54116 16.1629C4.6202 16.4877 4.99561 16.5259 4.83754 16.6979ZM3.67179 9.5146V9.59102L3.82986 9.34266L3.67179 9.5146ZM4.24479 8.29192C4.34358 8.25371 4.44237 8.13908 4.5214 8.00535C4.60044 7.87162 4.67947 7.71879 4.77827 7.60416C4.73875 7.54685 4.65971 7.54685 4.56092 7.62326C4.46213 7.68058 4.36334 7.81431 4.30406 7.96714C4.00768 8.27281 4.40285 8.17729 4.24479 8.29192ZM6.65532 18.3408V18.2071L6.7146 18.2453L6.51701 17.9969C6.89243 18.1689 6.97146 18.5128 7.12953 18.6847C7.05049 18.6274 6.9517 18.4746 6.87267 18.379C6.79363 18.2835 6.7146 18.2262 6.65532 18.3408ZM5.92426 5.98029C6.18112 5.80835 6.65532 5.57909 6.67508 5.67462C6.55653 5.52178 6.18112 5.73193 6.10209 5.82745C6.06257 5.88476 6.00329 5.90387 5.92426 5.98029ZM6.18112 6.20954C5.84522 6.43879 5.74643 6.40058 5.41054 6.55342C5.45005 6.4579 5.50933 6.40058 5.56861 6.34327C5.62788 6.30506 5.68716 6.28596 5.72667 6.26685C5.82547 6.24775 5.9045 6.30506 5.92426 6.34327C6.18112 6.19043 6.04281 6.15223 6.1416 6.0376L6.18112 6.20954ZM5.48957 6.19043C5.45005 6.22864 5.4303 6.28596 5.39078 6.34327C5.3315 6.55342 5.46981 6.70625 5.13392 6.80177L5.39078 6.34327C5.41054 6.28596 5.4303 6.22864 5.48957 6.19043ZM8.31504 4.03164L8.11745 4.05074C8.29528 3.97432 8.31504 3.99343 8.31504 4.03164L8.47311 4.01253C8.15697 4.24179 8.31504 4.10805 8.31504 4.03164ZM6.12184 5.6173C5.98353 5.73193 5.88474 5.84655 5.76619 5.96118C5.84522 5.99939 6.00329 5.73193 6.12184 5.6173ZM8.29528 4.22268C8.19649 4.26089 8.03842 4.37552 7.91987 4.45193C7.80132 4.52835 7.68277 4.60477 7.72228 4.56656C7.72228 4.50925 7.82108 4.43283 7.95938 4.35641C8.01866 4.3182 8.09769 4.27999 8.15697 4.26089C8.19649 4.24179 8.25576 4.22268 8.29528 4.22268ZM18.3524 5.86566L18.135 5.65551H18.3326L18.3524 5.86566ZM15.2898 4.12716L15.3886 4.08895L15.5467 4.16537L15.2898 4.12716ZM12.0889 3.63045C12.1087 3.59224 12.0889 3.57313 12.0692 3.53492C12.0099 3.53492 11.9704 3.51582 11.9506 3.47761C11.9901 3.47761 12.0494 3.49671 12.0692 3.53492C12.2075 3.55403 12.405 3.53492 12.4841 3.49671C12.4248 3.4203 12.2272 3.4394 12.1482 3.40119C12.2272 3.36298 12.326 3.34388 12.4248 3.36298C12.5236 3.38209 12.6422 3.4203 12.7212 3.4394C12.899 3.49671 13.0176 3.49671 12.9385 3.26746C12.9978 3.30567 13.1361 3.34388 13.2547 3.40119C13.3535 3.45851 13.4127 3.51582 13.3337 3.55403C13.1756 3.53492 12.9188 3.53492 12.6817 3.53492C12.5631 3.53492 12.4446 3.53492 12.3458 3.55403C12.247 3.59224 12.1482 3.61134 12.0889 3.63045C12.0692 3.64955 12.0494 3.66865 11.9901 3.68776C12.0099 3.66865 12.0296 3.64955 12.0889 3.63045ZM7.97914 4.92954C7.86059 4.98686 7.82108 5.00596 7.78156 5.00596C7.66301 5.02507 7.58397 5.04417 7.56422 4.96775C7.82108 4.87223 7.70252 5.00596 7.78156 5.00596C7.84083 4.98686 7.91987 4.96775 7.97914 4.92954ZM7.34687 5.38805L7.72228 5.23521L7.50494 5.25432C7.60373 5.21611 7.70252 5.1779 7.80132 5.1588L8.09769 5.08238C7.86059 5.31163 7.46542 5.44536 7.34687 5.38805ZM7.2876 5.52178L7.14929 5.48357L7.32711 5.50268L7.2876 5.52178H7.32711C7.12953 5.6173 6.9517 5.77014 6.77387 5.88476C6.9517 5.77014 7.10977 5.63641 7.2876 5.52178ZM3.94841 11.1194C4.12623 11.2531 4.20527 11.1194 4.26454 10.9283C4.34358 10.7564 4.3831 10.5271 4.48189 10.4698C4.36334 10.4316 4.20527 10.145 4.10648 10.7755C4.06696 10.2024 4.40285 10.4889 4.14599 10.1068C4.12623 10.3743 3.98793 10.68 3.96817 10.7182L4.00768 10.4125C3.86937 10.4889 3.88913 10.6035 3.90889 10.7373C3.92865 10.7946 3.94841 10.871 3.94841 10.9283C3.96817 11.0047 3.96817 11.0812 3.94841 11.1194ZM4.44237 14.4435L4.58068 14.8256L4.46213 14.4435H4.44237ZM12.4643 19.7928C12.4446 19.7163 12.9583 19.5253 13.0966 19.6781C12.82 19.7355 12.5434 19.7354 12.4643 19.7928ZM16.6926 18.6465C16.5346 18.7038 16.3963 18.7611 16.258 18.8184C16.2382 18.6083 16.6136 18.6274 16.7914 18.4746C16.91 18.5128 16.7322 18.551 16.6926 18.6465ZM18.9649 16.6596L19.0834 16.5641H18.8266L18.9649 16.6596ZM18.6487 16.6596C18.6487 16.6023 18.5895 16.6214 18.5302 16.6596C18.4709 16.6979 18.3919 16.7552 18.3721 16.7934C18.4512 16.7552 18.5499 16.717 18.6487 16.6596ZM19.775 14.348L19.7157 14.5199L19.933 14.4244L19.775 14.348ZM19.8738 14.6919C19.7355 14.6919 19.5971 14.6155 19.4984 15.0167C19.6169 15.0931 19.6564 14.9785 19.7355 15.1886C19.8342 15.074 19.8342 14.9402 19.854 14.8829C19.7947 14.9594 19.7947 15.0931 19.6959 15.074C19.6959 14.9211 19.7947 14.7874 19.8738 14.6919C19.9133 14.6919 19.9726 14.6919 20.0121 14.6346C19.9528 14.6346 19.9133 14.6537 19.8738 14.6919ZM19.2415 16.1438C19.2217 16.2011 19.2217 16.2584 19.2217 16.2776H19.1822C19.1625 16.2011 19.202 16.1629 19.2415 16.1438C19.2612 16.0865 19.281 16.0101 19.3205 15.9337C19.2415 15.8382 19.0241 16.0483 18.9254 16.0674C19.0241 15.9719 19.1822 15.9146 19.2217 15.7426C19.1822 15.7426 19.1822 15.7235 19.1032 15.819L19.2217 15.5898C19.5181 15.4179 19.4193 15.6662 19.3008 15.9337C19.3205 15.9528 19.3205 15.991 19.3205 16.0483C19.3403 16.0865 19.281 16.1247 19.2415 16.1438ZM20.427 14.348L20.348 14.4817C20.2887 14.5391 20.2492 14.4817 20.2097 14.5008C20.2689 14.3289 20.427 14.157 20.427 14.348ZM13.9067 19.8883C14.0055 19.8501 13.7486 19.7546 13.5313 19.8119L13.6301 19.6399C13.6498 19.7355 14.0845 19.6781 14.1438 19.659C14.2426 19.7737 14.0648 19.7737 13.9067 19.8883ZM4.93633 15.7999C5.07464 15.6471 4.71899 15.1886 4.71899 15.0549C4.79802 15.1695 4.93633 15.3796 4.99561 15.5325C5.05488 15.7044 5.0944 15.819 4.93633 15.7999ZM4.42261 14.9594C4.36334 14.8065 4.34358 14.7874 4.44237 14.7492C4.46213 14.6728 4.36334 14.5773 4.3831 14.4817C4.56092 14.7492 4.40285 14.7874 4.42261 14.9594C4.44237 14.9976 4.44237 15.0358 4.48189 15.0931C4.42261 15.0358 4.42261 14.9976 4.42261 14.9594ZM8.61142 19.2769L8.72997 19.5062C8.82876 19.5444 8.92755 19.6017 9.0461 19.6208C8.88803 19.5253 8.74973 19.3916 8.61142 19.2769ZM12.0494 20.385C12.0296 20.2895 12.405 20.3277 12.5038 20.3468C12.4841 20.2895 12.4248 20.2704 12.326 20.2513C12.2272 20.2322 12.1087 20.2322 12.0099 20.2131C11.9901 20.194 11.9506 20.194 11.8716 20.194C11.9111 20.2131 11.9506 20.2131 12.0099 20.2131C12.0889 20.2513 12.0296 20.2895 12.0296 20.3468L11.9308 20.3659L12.2272 20.4041L12.0494 20.385ZM18.135 18.4937C18.2536 18.2644 18.2931 18.2835 18.4314 18.188C18.4314 18.2644 18.2931 18.4172 18.135 18.4937ZM10.0735 20.194C10.4687 20.2322 9.93524 19.9838 10.1921 19.9838L9.99451 19.9456C10.3502 19.9074 10.1921 20.1366 10.4292 20.1557L10.2711 20.1366C10.1131 20.2131 10.4885 20.2704 10.5082 20.3659C10.3304 20.3659 9.91548 20.1749 10.0735 20.194ZM18.4709 18.3026C18.6883 17.9587 18.8068 18.188 18.9846 18.0161C18.8463 18.3217 18.708 18.1307 18.4709 18.3026ZM12.6026 20.8053L12.5829 20.8244L12.9188 20.8626L12.9385 20.8435L12.6026 20.8053Z" fill="black"/>
<path d="M17.9967 17.1754C18.0362 17.099 18.0757 17.0608 18.1153 17.0417C18.0955 17.0799 18.056 17.1181 17.9967 17.1754Z" fill="black"/>
<path d="M4.87707 13.8895C4.83755 13.8895 4.81779 13.8704 4.79803 13.8322C4.81779 13.8322 4.83755 13.8513 4.87707 13.8895Z" fill="black"/>
<path d="M20.0714 9.30445C19.9923 9.49549 19.9923 9.18982 19.9528 9.0752C19.9923 9.18982 20.1109 9.18982 20.0714 9.30445Z" fill="black"/>
<path d="M19.933 8.36832C19.933 8.44473 19.9528 8.55936 19.9923 8.67399C19.9528 8.59757 19.933 8.50205 19.933 8.36832Z" fill="black"/>
<path d="M20.1701 9.09431C20.0713 8.94147 20.0121 8.78864 19.9725 8.65491C20.0318 8.76953 20.1306 8.84595 20.1701 9.09431Z" fill="black"/>
<path d="M18.4314 6.28595C18.4709 6.45789 18.708 6.62983 18.708 6.62983C18.2141 6.22864 18.6685 6.82087 18.6487 6.91639C18.4116 6.61072 18.4709 6.53431 18.4314 6.28595Z" fill="black"/>
<path d="M17.8386 5.67462C17.8979 5.71283 17.9374 5.75104 17.9769 5.77014C17.9177 5.77014 17.8781 5.73193 17.8386 5.67462Z" fill="black"/>
<path d="M17.6015 5.59818C17.4434 5.44535 17.4434 5.33072 17.4039 5.21609C17.6608 5.33072 17.7201 5.54087 17.8386 5.6937C17.7793 5.63639 17.7201 5.59818 17.6805 5.55997C17.641 5.54087 17.6015 5.54087 17.6015 5.59818Z" fill="black"/>
<path d="M11.2986 4.33729C11.3381 4.33729 11.4566 4.31818 11.4764 4.37549L11.1405 4.43281C10.9824 4.4137 11.2195 4.35639 11.2986 4.33729Z" fill="black"/>
<path d="M9.95496 4.35641C9.67835 4.45194 9.87593 4.52835 9.71786 4.54746L9.67834 4.37552L9.95496 4.35641Z" fill="black"/>
<path d="M8.76949 5.02505L9.04611 5.12058C8.80901 5.17789 8.71021 5.04416 8.76949 5.02505Z" fill="black"/>
<path d="M7.91987 5.67462C7.97914 5.65552 8.03842 5.63641 8.07794 5.63641L7.64325 5.88477L7.91987 5.67462Z" fill="black"/>
<path d="M6.87269 6.38147V6.43878C6.7739 6.5152 6.69486 6.59162 6.59607 6.64893C6.69486 6.57251 6.7739 6.47699 6.87269 6.38147Z" fill="black"/>
<path d="M8.01867 18.2835C7.99891 18.3599 7.8606 18.3408 7.72229 18.2453C7.58398 18.1689 7.44567 18.0543 7.36664 18.016C7.48519 17.9587 7.56422 18.0352 7.66302 18.1307C7.74205 18.2262 7.8606 18.3217 8.01867 18.2835Z" fill="black"/>
<path d="M17.7004 17.5575L17.483 17.7295C17.404 17.7868 17.3249 17.825 17.2459 17.8823C17.5423 17.5575 17.3447 17.8059 17.7004 17.5575Z" fill="black"/>
</svg>
