<svg width="32" height="32" viewBox="0 0 32 32" fill="none" xmlns="http://www.w3.org/2000/svg">
<path d="M17.0654 24.6831C17.1767 24.71 17.0932 24.6831 17.0932 24.6562L17.0654 24.6831Z" fill="white"/>
<path d="M17.0933 24.6558L17.1211 24.6289C17.0933 24.6289 17.0933 24.6289 17.0933 24.6558Z" fill="white"/>
<path d="M17.1766 24.3877C17.2601 24.4414 17.1488 24.522 17.2601 24.5489C17.3157 24.4952 17.2879 24.4146 17.1766 24.3877Z" fill="white"/>
<path d="M17.0932 24.4683L17.1489 24.4951L17.0654 24.4414L17.0932 24.4683Z" fill="white"/>
<path d="M17.0377 24.522H17.0655L16.9821 24.4414L17.0377 24.522Z" fill="white"/>
<path d="M17.2045 24.1992L17.2323 24.2529C17.1489 24.3067 17.121 24.2261 17.0654 24.2529C17.0654 24.3335 17.2601 24.2798 17.2323 24.3604C17.3157 24.3604 17.2323 24.2261 17.3713 24.2261C17.3713 24.1724 17.2601 24.2261 17.2045 24.1992Z" fill="white"/>
<path d="M16.3981 19.6597L16.4259 19.6328C16.4259 19.6328 16.4259 19.6328 16.3981 19.6597Z" fill="white"/>
<path d="M16.7595 21.2441C16.7317 21.271 16.7317 21.271 16.7317 21.271C16.7317 21.271 16.7595 21.271 16.7595 21.2441Z" fill="white"/>
<path d="M16.2312 19.9819L16.259 19.9551C16.2312 19.9551 16.2312 19.9819 16.2312 19.9819Z" fill="white"/>
<path d="M17.3713 23.2862C17.3713 23.2593 17.3713 23.2593 17.3713 23.2324C17.3157 23.2593 17.3157 23.2593 17.3713 23.2862Z" fill="white"/>
<path d="M17.3435 23.2588C17.3991 23.232 17.566 23.232 17.3713 23.1783H17.3435C17.3991 23.1514 17.3157 23.1245 17.3157 23.0977C17.2879 23.0977 17.2879 23.0977 17.2601 23.0977C17.2601 23.0977 17.2601 23.1245 17.2323 23.1514C17.2323 23.2051 17.3157 23.2051 17.3435 23.2588Z" fill="white"/>
<path d="M16.5382 20.6533C16.5089 20.6533 16.5089 20.6816 16.5382 20.6533V20.6533Z" fill="white"/>
<path d="M16.6761 20.8945V20.9214C16.6761 20.8945 16.704 20.8945 16.6761 20.8945Z" fill="white"/>
<path d="M17.8163 10.3911C17.8441 10.418 17.7885 10.418 17.7607 10.4449C17.872 10.4986 17.7607 10.3374 17.872 10.418C17.872 10.3911 17.8441 10.3911 17.8441 10.3643L17.7329 10.3911C17.7607 10.4449 17.7607 10.3643 17.8163 10.3911Z" fill="white"/>
<path d="M17.4548 14.7695C17.5104 14.7695 17.5104 14.7695 17.5382 14.7427C17.4548 14.7158 17.3436 14.7695 17.2601 14.7158C17.2601 14.7158 17.2601 14.7427 17.2601 14.7695C17.3157 14.7158 17.3992 14.7427 17.4548 14.7695Z" fill="white"/>
<path d="M17.2601 14.7432C17.2323 14.7432 17.2323 14.7432 17.2323 14.7432V14.77L17.2601 14.7432Z" fill="white"/>
<path d="M17.6494 18.6387L17.6772 18.6655C17.6772 18.6655 17.6772 18.6387 17.6494 18.6387Z" fill="white"/>
<path d="M17.3436 15.3076L17.3158 15.3345C17.3158 15.3345 17.3158 15.3345 17.3158 15.3614L17.3436 15.3076Z" fill="white"/>
<path d="M16.2591 13.5074C16.3981 13.5342 16.2591 13.4805 16.3147 13.4536L16.2591 13.4268C16.2313 13.4536 16.2591 13.4805 16.2591 13.5074Z" fill="white"/>
<path d="M17.2045 14.958V15.0923L17.2323 15.0655C17.1489 15.0386 17.2879 14.958 17.2045 14.958Z" fill="white"/>
<path d="M16.1756 14.0983H16.0922C16.259 14.2326 16.0087 14.3938 16.259 14.5012C15.9809 14.6624 16.5093 14.6087 16.259 14.7699H16.2868C16.2312 15.2534 16.0922 15.7907 16.2312 16.2474H16.1756C16.0922 16.9996 16.2034 17.725 16.1478 18.4503C16.2034 18.5309 16.3146 18.4772 16.3702 18.5309C16.3702 18.5578 16.3702 18.6115 16.3146 18.6115C16.2868 18.5578 16.2034 18.5847 16.2034 18.5847C16.2034 18.6653 16.12 18.7727 16.2034 18.8533L16.2868 18.7996C16.3146 18.8264 16.2868 18.8802 16.2868 18.907C16.2312 18.907 16.1478 18.9339 16.12 18.907C16.3424 19.0682 16.0365 19.0414 16.12 19.1488C16.3146 19.1757 16.4537 19.3369 16.5927 19.4443L16.5371 19.4981C16.5371 19.4175 16.3981 19.4981 16.3981 19.4175C16.3424 19.4981 16.4259 19.5786 16.3981 19.6324C16.4537 19.6055 16.5093 19.6324 16.5371 19.6592C16.5093 19.713 16.4259 19.713 16.3981 19.7667L16.3702 19.6861C16.2868 19.713 16.3981 19.7398 16.3981 19.7936C16.3146 19.7936 16.3146 19.8742 16.2312 19.8742C16.3424 19.9548 16.2868 19.9816 16.3424 20.0353C16.4259 19.9548 16.4537 20.0622 16.5093 20.0353L16.4815 19.9548C16.4259 20.0891 16.4537 19.901 16.3424 19.9279C16.3981 19.8742 16.5649 20.0085 16.5371 19.901C16.5927 20.0085 16.5371 20.0353 16.6483 20.1697C16.6205 20.0891 16.7318 20.1965 16.7874 20.1428C16.7874 20.2234 16.7318 20.1697 16.6483 20.1965C16.6483 20.2503 16.5649 20.2771 16.6761 20.304C16.6483 20.3846 16.5649 20.304 16.5093 20.3309C16.4259 20.304 16.6205 20.1159 16.3424 20.1159C16.3424 20.0622 16.2312 20.0353 16.2312 19.9548C16.2034 20.0085 16.0922 20.0891 16.1756 20.1428H16.3424C16.3424 20.1965 16.4537 20.1965 16.4537 20.2503C16.3981 20.2234 16.3424 20.2771 16.3424 20.304C16.3702 20.304 16.3702 20.2771 16.3981 20.2771C16.3981 20.3577 16.5093 20.3577 16.5649 20.4383C16.6205 20.3577 16.6483 20.3577 16.7318 20.2771C16.843 20.304 16.7596 20.3309 16.7596 20.3577C16.7318 20.3577 16.7318 20.3309 16.7039 20.3577L16.7596 20.4115C16.7039 20.492 16.5927 20.4115 16.5371 20.4652C16.4537 20.5189 16.5927 20.5458 16.5371 20.5726H16.5649V20.5995C16.5927 20.6532 16.5649 20.707 16.6483 20.707C16.6205 20.707 16.6483 20.7607 16.6761 20.7607C16.7039 20.7876 16.8152 20.8413 16.6761 20.895C16.6483 20.9487 16.6205 21.0025 16.5649 21.0025L16.5371 21.1099H16.4259C16.4537 21.1905 16.5093 21.1905 16.6483 21.2443C16.5927 21.298 16.6483 21.4054 16.6761 21.4592V21.486L16.7318 21.4592C16.7318 21.5398 16.7874 21.5129 16.7874 21.5666C16.7874 21.5666 16.8152 21.5666 16.7874 21.5935V21.6204C16.7874 21.6204 16.7874 21.6204 16.7874 21.5935H16.7596C16.6483 21.6472 16.8152 21.6741 16.7874 21.7278V21.701C16.7596 21.7278 16.5927 21.7815 16.7039 21.8084C16.7039 21.8084 16.7039 21.8353 16.7318 21.8353L16.6483 21.889C16.6483 21.889 16.6483 21.8621 16.6761 21.8621C16.7039 21.889 16.7596 21.889 16.7318 21.889L16.7039 21.9696C16.6761 21.9965 16.7039 21.9965 16.7039 22.0233L16.6483 22.0502C16.6483 22.0771 16.6205 22.0771 16.6205 22.0771C16.4537 22.1845 16.7039 22.2382 16.5649 22.3726C16.6483 22.3994 16.6761 22.3457 16.7318 22.3457C16.7874 22.3726 16.843 22.4263 16.8986 22.4532C16.7874 22.5069 16.7039 22.6681 16.5371 22.6412C16.5371 22.7487 16.6205 22.6144 16.6761 22.6681C16.7039 22.6412 16.7596 22.6143 16.8152 22.5875C16.8986 22.5875 16.9264 22.6681 16.8986 22.6949L16.7874 22.6681C16.843 22.7487 17.0098 22.7487 17.1211 22.8024C17.0655 22.883 16.9542 22.8293 16.8708 22.8561L16.8986 22.9367H16.8152C16.843 22.9905 16.9264 22.9905 16.8986 23.071C16.8152 23.0173 16.8152 23.1785 16.7039 23.0979C16.6761 23.1248 16.843 23.1516 16.7318 23.1516C16.8152 23.1785 16.7874 23.1248 16.8152 23.0979C16.9542 23.071 16.8708 23.1785 16.9264 23.2322C16.843 23.2322 16.843 23.2054 16.7874 23.2591C16.843 23.2591 16.8708 23.3128 16.8152 23.3397C16.8986 23.3397 16.843 23.3934 16.8152 23.4203C16.843 23.3934 16.8986 23.3397 16.982 23.3666C17.0098 23.3934 17.0376 23.4203 17.0376 23.474L17.0933 23.4203C17.2323 23.474 17.0098 23.5009 17.0376 23.5815C16.982 23.5546 16.982 23.5277 16.9264 23.5009C16.982 23.5277 17.0376 23.6083 17.0655 23.6352L16.9264 23.6889C16.982 23.6889 16.9264 23.7427 17.0098 23.7427C16.9542 23.8233 16.8986 23.6889 16.843 23.6889C16.7874 23.7695 16.982 23.7695 16.843 23.8501L16.7596 23.8233C16.7596 23.8501 16.8152 23.9039 16.7596 23.9039C16.7874 23.9039 16.7874 23.877 16.7874 23.877C16.9542 23.9039 16.9264 24.0113 17.0933 24.0113V23.9576C17.1211 24.0113 17.2601 24.065 17.1767 24.1188C17.1211 24.1456 17.0376 24.0919 17.0098 24.065C17.0098 24.1188 17.2045 24.1188 17.2045 24.1725C17.2323 24.1456 17.2879 24.1456 17.3435 24.1725C17.3435 24.1188 17.3992 24.0382 17.3157 24.065L17.2879 24.0919C17.2323 24.0919 17.2323 24.065 17.2045 24.065C17.2045 24.0113 17.2879 24.0382 17.3157 24.0382C17.3435 23.9576 17.1211 24.0382 17.1489 23.9576H17.1767C17.1211 23.9039 17.1211 23.8501 17.0098 23.8501C17.1211 23.8233 16.9542 23.7427 17.0376 23.7158C17.2879 23.7158 17.0098 23.8501 17.1767 23.9039C17.2323 23.8501 17.3157 23.9307 17.3713 23.9576L17.2601 23.8233C17.2879 23.8233 17.427 23.7695 17.3435 23.7427C17.3157 23.6889 17.2045 23.6889 17.2323 23.6621C17.2601 23.6621 17.2879 23.6621 17.3157 23.6621C17.3435 23.6083 17.2601 23.6352 17.2323 23.6083C17.2601 23.5546 17.3435 23.6352 17.3713 23.5815C17.2601 23.5277 17.3992 23.5009 17.3992 23.4472C17.2601 23.474 17.2045 23.2591 17.0655 23.3666L16.9542 23.2591C17.0376 23.2322 17.1767 23.3397 17.2879 23.3128V23.3934C17.4826 23.3666 17.1767 23.2054 17.3713 23.1516C17.3713 23.0979 17.3435 23.1248 17.4548 23.0442L17.2879 23.071C17.3157 23.0173 17.427 23.0173 17.4548 23.0173C17.4548 22.9905 17.4548 22.9636 17.4548 22.9367C17.4826 22.9367 17.5104 22.9636 17.5104 22.9636C17.5938 22.9367 17.566 22.9099 17.5104 22.9099C17.4548 22.883 17.4826 22.8561 17.4826 22.8293L17.5382 22.8561C17.5382 22.8293 17.5104 22.8293 17.4826 22.8293C17.4826 22.8293 17.4826 22.8024 17.4548 22.8024C17.427 22.8024 17.3157 22.8293 17.2879 22.8561C17.3435 22.7487 17.3157 22.6681 17.4548 22.5875C17.5104 22.5875 17.566 22.6144 17.566 22.6144C17.5938 22.5606 17.5104 22.5338 17.427 22.5338V22.5069C17.4548 22.5069 17.5104 22.48 17.5104 22.48C17.5382 22.48 17.5382 22.48 17.5382 22.4532C17.3992 22.4263 17.4826 22.3457 17.3992 22.3457C17.3992 22.3726 17.3992 22.3994 17.3992 22.4263C17.3157 22.3994 17.2045 22.3457 17.2879 22.3188C17.3713 22.3726 17.427 22.2382 17.4548 22.3457C17.6216 22.2651 17.3435 22.3188 17.3992 22.2382L17.4548 22.1845C17.5382 22.1845 17.5104 22.2651 17.5382 22.2382V22.2114C17.6216 22.2382 17.566 22.3726 17.6772 22.4532L17.7329 22.292C17.6216 22.1039 17.7607 21.8621 17.5382 21.701C17.5382 21.701 17.5104 21.701 17.4826 21.701H17.5104L17.427 21.6741C17.5104 21.6472 17.5382 21.5666 17.5938 21.5129C17.5382 21.5398 17.5382 21.5398 17.4548 21.5666C17.3713 21.5666 17.3157 21.5666 17.3435 21.486C17.3992 21.486 17.3992 21.5129 17.4548 21.486C17.427 21.5129 17.3713 21.486 17.3713 21.4592C17.427 21.4323 17.427 21.3786 17.4826 21.3786C17.5104 21.4054 17.4826 21.4054 17.4548 21.4054C17.4826 21.4323 17.5104 21.3517 17.566 21.3786L17.5382 21.3248C17.5938 21.298 17.6216 21.3517 17.6772 21.3248C17.6216 21.2443 17.4826 21.1905 17.427 21.1099C17.4548 21.1099 17.6216 21.1099 17.566 21.1099C17.6216 21.0562 17.3992 20.9756 17.3992 20.895C17.4548 20.895 17.427 20.9219 17.4548 20.9487C17.5104 20.7338 17.5104 20.5458 17.6494 20.3309L17.4826 20.2771L17.5938 20.2234C17.705 20.0085 17.5938 19.8204 17.5382 19.6055C17.5382 19.5518 17.6494 19.5786 17.6772 19.5249C17.705 19.3906 17.5104 19.3369 17.4826 19.2025C17.5382 19.2294 17.6772 19.2563 17.6772 19.2025C17.6216 19.2025 17.566 19.1757 17.5938 19.1488L17.6494 19.1757C17.7328 19.1488 17.6494 19.0951 17.6772 19.0414C17.6772 18.907 17.566 18.7996 17.3992 18.6921C17.427 18.5847 17.566 18.6921 17.5938 18.6921C17.5382 18.7727 17.6216 18.7458 17.6772 18.7727C17.6216 18.719 17.5938 18.6921 17.705 18.6653C17.705 18.6115 17.705 18.5847 17.6216 18.5309C17.6494 18.5578 17.5938 18.5847 17.5382 18.5578C17.566 18.5041 17.5382 18.3966 17.6772 18.3966C17.6494 18.128 17.6772 17.8056 17.6772 17.5101C17.5938 17.4563 17.6494 17.5369 17.5938 17.5101C17.5104 17.4295 17.6494 17.4563 17.566 17.4026L17.6494 17.4295C17.6494 17.3489 17.5104 17.2414 17.4548 17.1608C17.5382 17.1877 17.5382 17.0802 17.566 17.1608C17.5382 17.1071 17.9275 17.0802 17.8719 17.0265L17.5104 17.0802C17.4826 17.0802 17.5104 17.0265 17.4826 17.0265C17.566 16.9996 17.6494 16.9459 17.6494 16.9191C17.7328 16.9191 17.7329 16.9728 17.705 16.9996C17.8441 16.9996 17.7885 16.8922 17.9553 16.9459C17.9275 16.8653 17.8719 16.9459 17.8163 16.9191L17.8441 16.8653L17.7885 16.9191C17.7328 16.8653 17.6216 16.8385 17.705 16.7847L17.566 16.7041C17.6772 16.7041 17.5938 16.6504 17.6216 16.6235L17.705 16.6504C17.705 16.5967 17.7329 16.5698 17.7607 16.5429C17.8719 16.5698 17.7329 16.5967 17.8441 16.5967L17.8719 16.5429C17.8163 16.5429 17.7607 16.5161 17.705 16.5429C17.566 16.4892 17.4826 16.4624 17.4826 16.328C17.5938 16.2743 17.5938 16.3818 17.705 16.3549C17.7607 16.2206 17.3992 16.1937 17.427 16.1131C17.4826 16.0057 17.3713 16.0325 17.3713 15.9251C17.4548 15.9519 17.4548 15.8445 17.5382 15.8445L17.6216 15.8713C17.5938 15.8445 17.6216 15.8176 17.6772 15.8176C17.566 15.8176 17.566 15.6833 17.5382 15.6296H17.4548C17.427 15.5758 17.3713 15.4952 17.3992 15.4415C17.3713 15.3609 17.2879 15.3878 17.1767 15.3072C17.2601 15.2803 17.3435 15.2803 17.4548 15.2803C17.3992 15.3072 17.427 15.334 17.3992 15.3878C17.4826 15.4952 17.6772 15.5758 17.6216 15.6833C17.8441 15.737 17.5938 15.6027 17.6772 15.549H17.705C17.7329 15.5758 17.7607 15.6564 17.8719 15.6564C17.8441 15.6027 17.6494 15.6027 17.7329 15.5221C17.6772 15.4684 17.8441 15.4146 17.8719 15.3878C17.7885 15.3609 17.6216 15.334 17.6494 15.2534L17.7607 15.3072C17.7607 15.1997 17.566 15.2534 17.5938 15.146C17.566 15.1729 17.4826 15.1191 17.4826 15.1729C17.427 15.146 17.3992 15.0654 17.427 15.0117C17.3992 14.9848 17.3713 15.0117 17.3435 15.0117C17.2601 15.0654 17.427 15.1191 17.3157 15.146L17.4548 15.1997C17.3992 15.2534 17.2879 15.2534 17.2323 15.2266C17.2323 15.2534 17.2601 15.2534 17.2323 15.2803C17.0376 15.2803 17.3157 15.1997 17.1211 15.1997L17.1489 15.2266C17.0098 15.2534 17.0376 15.146 17.0376 15.0923C17.0933 15.0385 17.1211 14.9848 17.2045 14.9848L17.2323 15.0654C17.3157 15.0117 17.1767 14.9579 17.2045 14.9311H17.2323H17.2045L17.2323 14.9042C17.2323 14.8773 17.1767 14.7967 17.2045 14.7699H17.1211H17.1767C17.1767 14.7967 17.1211 14.8505 17.0655 14.8236C17.0098 14.743 17.1767 14.7162 17.2323 14.7162C17.3713 14.743 17.2323 14.7967 17.2879 14.8505C17.427 14.8236 17.2879 14.7699 17.3992 14.6893C17.5382 14.7162 17.3992 14.7967 17.5382 14.7967C17.566 14.7162 17.4548 14.7162 17.5104 14.6356C17.566 14.6356 17.5938 14.7162 17.6772 14.7162L17.705 14.6624C17.705 14.7699 17.8719 14.6356 17.9275 14.743C17.9831 14.6893 17.8163 14.6893 17.8997 14.6356C17.8441 14.6624 17.7329 14.6893 17.6772 14.6356L17.705 14.5818C17.7607 14.555 17.8441 14.6624 17.8997 14.6087L17.8441 14.5281C17.7885 14.5281 17.7885 14.555 17.7329 14.555C17.7885 14.5281 17.566 14.5012 17.5104 14.4475C17.5104 14.4206 17.5104 14.3938 17.566 14.3669C17.4548 14.2863 17.4548 14.152 17.3157 14.0714C17.3992 14.1251 17.4548 14.0714 17.5104 14.0445C17.5382 14.1251 17.6494 14.1251 17.7329 14.0983C17.705 14.0445 17.5938 14.0177 17.5382 14.0445C17.5938 13.9639 17.4548 13.9908 17.5382 13.9371C17.5938 13.9102 17.6772 13.9639 17.705 13.9371C17.705 13.8565 17.5382 13.9102 17.566 13.8296C17.5938 13.8296 17.5938 13.8296 17.6216 13.8296C17.6494 13.7759 17.5938 13.749 17.5104 13.7222C17.6772 13.6684 17.4826 13.5878 17.6494 13.6147C17.5938 13.5072 17.566 13.6416 17.5104 13.6147C17.427 13.561 17.5104 13.4804 17.5104 13.4804C17.5104 13.5072 17.566 13.5341 17.5382 13.561L17.6494 13.5341C17.7328 13.3998 17.3992 13.4535 17.4826 13.3192C17.5382 13.3729 17.566 13.3461 17.6494 13.3729C17.6216 13.3461 17.6494 13.2655 17.566 13.3192C17.566 13.2655 17.5938 13.2386 17.6216 13.2117C17.566 13.158 17.5382 13.1311 17.4826 13.1043C17.4826 13.0505 17.566 12.9968 17.6216 12.97C17.5382 12.8356 17.6772 12.7013 17.5938 12.567C17.6216 12.4595 17.427 12.6207 17.4548 12.4864C17.5938 12.5133 17.5382 12.4058 17.6216 12.3789C17.705 12.2446 17.5104 12.1372 17.6216 12.0028C17.6494 12.0028 17.6772 12.0028 17.6772 12.0297C17.7329 11.9222 17.705 11.8416 17.705 11.761H17.7329C17.8441 11.6267 17.705 11.4924 17.6772 11.3312C17.705 11.3312 17.7607 11.3581 17.7607 11.3581C17.7885 11.2775 17.8163 11.17 17.6772 11.1163C17.8163 11.0357 17.6216 11.0626 17.7607 10.9282C17.7885 10.9282 17.7885 10.9282 17.7885 10.9551C17.8441 10.9014 17.8163 10.8476 17.8441 10.7939C17.7607 10.6596 17.566 10.6327 17.6216 10.4715C17.8163 10.4715 17.6772 10.5521 17.8163 10.579C17.7885 10.5521 17.7328 10.5253 17.7885 10.4715C17.8719 10.4984 17.8441 10.4715 17.8997 10.4984C17.9553 10.4715 17.705 10.3641 17.705 10.3641C17.6772 10.3641 17.6494 10.3641 17.6494 10.391C17.5382 10.3641 17.6494 10.2566 17.5938 10.176C17.5938 10.2029 17.566 10.2835 17.4548 10.2566C17.4826 10.1492 17.3157 10.1223 17.2323 10.0686C17.3157 9.98798 17.3992 10.1223 17.5382 10.1223C17.5938 10.0954 17.705 10.0686 17.7607 10.1223C17.7885 10.0417 17.6772 9.98798 17.6494 9.90739H17.6772C17.6494 9.79993 17.4826 9.69247 17.566 9.61188L17.5104 9.66561C17.4826 9.63874 17.5104 9.61188 17.427 9.55815C17.4826 9.55815 17.5382 9.50442 17.5938 9.53128C17.3992 9.47755 17.4826 9.31637 17.2879 9.26264C17.3435 9.23577 17.427 9.26264 17.4548 9.26264C17.4826 9.10145 17.4548 9.10145 17.5382 9.15518C17.5382 9.10145 17.5938 9.07458 17.6216 9.07458C17.4826 9.02086 17.4548 8.88653 17.3157 8.85967C17.3713 8.8328 17.427 8.77907 17.5104 8.80594C17.4548 8.64475 17.1767 8.88653 17.1767 8.69848C17.2879 8.61789 17.3157 8.77907 17.3435 8.67162L17.3713 8.69848C17.6494 8.61789 17.1767 8.64475 17.1767 8.53729C17.3157 8.53729 17.2879 8.59102 17.3992 8.53729C17.3713 8.4567 17.1489 8.40297 17.1767 8.32238L17.2323 8.34924C17.2323 8.29551 17.2601 8.18805 17.2323 8.13432C17.2601 8.13432 17.2601 8.13432 17.2601 8.16119C17.3157 8.05373 17.1767 8.10746 17.2879 8.02686L17.2045 8C17.1489 8.05373 17.0933 8.13432 17.1767 8.18805C17.0933 8.13432 16.982 8.26865 16.8708 8.24178H16.9264C16.7039 8.3761 16.6761 8.56416 16.5927 8.72534C16.7318 8.8328 16.5371 8.9134 16.6483 9.02086C16.8152 9.04772 16.6761 9.04772 16.7039 9.15518C16.6761 9.10145 16.5649 9.15518 16.5371 9.18204C16.5927 9.20891 16.5927 9.23577 16.6205 9.26264C16.5649 9.2895 16.4259 9.42382 16.5371 9.45069C16.4815 9.50442 16.4815 9.42382 16.4537 9.42382C16.3702 9.45069 16.5093 9.47755 16.4537 9.50442H16.4259C16.4259 9.61188 16.3981 9.66561 16.3702 9.7462C16.5371 9.7462 16.4259 9.85366 16.4815 9.88052C16.4259 9.85366 16.4259 9.93425 16.3981 9.96112L16.5371 10.0148C16.6483 10.0686 16.4537 10.0954 16.5093 10.1492L16.5371 10.1223C16.5927 10.176 16.4815 10.3104 16.3981 10.3372C16.7318 10.7939 16.2034 11.0357 16.3146 11.5193C16.3702 11.5461 16.3981 11.4924 16.4815 11.5193C16.5093 11.573 16.4815 11.573 16.5093 11.6267C16.5649 11.5999 16.5093 11.5999 16.5371 11.5999L16.4815 11.5193C16.4815 11.5193 16.5093 11.5193 16.5371 11.5193C16.5093 11.4924 16.4815 11.4655 16.5093 11.4387C16.5649 11.4924 16.6761 11.4924 16.6205 11.5461C16.5927 11.5461 16.5927 11.5461 16.5927 11.5193C16.5927 11.573 16.6483 11.573 16.6205 11.5999C16.5927 11.6536 16.6205 11.6267 16.5649 11.6267L16.5093 11.7879C16.6483 11.8685 16.5093 11.9491 16.5093 11.9491C16.3981 11.9222 16.4815 11.8685 16.3702 11.8148L16.2868 11.8685H16.3702L16.3424 11.9491H16.3146C16.3424 11.9491 16.3981 11.976 16.3424 11.976C16.3424 11.976 16.3146 11.976 16.2868 11.976L16.3702 12.0566C16.2868 12.0297 16.3424 12.1103 16.2312 12.0834C16.1756 12.2446 16.3702 12.2983 16.2312 12.4327C16.2868 12.4058 16.3981 12.4864 16.3702 12.5133C16.3424 12.5401 16.3146 12.5401 16.2868 12.5401L16.3424 12.5938C16.1756 12.6744 16.2868 12.7282 16.2312 12.8356H16.1756C16.2312 12.8625 16.2868 12.9162 16.259 12.97H16.1756C16.12 13.0505 16.3702 13.0237 16.3146 13.1043C16.4259 13.1043 16.4815 13.0505 16.5649 13.0505C16.4537 13.0774 16.4537 13.158 16.5093 13.1311C16.5371 13.2117 16.5093 13.1849 16.4815 13.1849L16.5371 13.2386C16.5371 13.2923 16.3981 13.2655 16.3424 13.2386C16.4537 13.2923 16.3702 13.3461 16.3702 13.3998L16.3146 13.3729L16.2868 13.4535C16.3702 13.5072 16.3702 13.561 16.3424 13.6416L16.2034 13.5878C16.12 13.6416 16.259 13.6147 16.259 13.6147C16.3146 13.6953 16.2312 13.6953 16.1478 13.749C16.3424 13.8834 15.9809 13.9908 16.1756 14.0983ZM16.7039 22.0502C16.7318 22.0502 16.7596 22.0771 16.7039 22.0502V22.0502ZM16.7318 21.4054C16.7874 21.486 16.7318 21.4592 16.6761 21.4592C16.7039 21.3786 16.6761 21.3517 16.7039 21.2711C16.6761 21.2711 16.6483 21.2711 16.6205 21.298C16.6205 21.2711 16.6483 21.2443 16.7318 21.2443C16.8708 21.2711 16.6483 21.4323 16.7318 21.4054ZM17.3992 22.8293H17.3713H17.3992ZM17.2601 22.4532C17.2879 22.4532 17.3157 22.4263 17.3157 22.4263C17.2879 22.4532 17.2601 22.4532 17.2601 22.4532ZM17.427 21.701C17.4826 21.6741 17.4548 21.6472 17.4548 21.6204C17.4548 21.6472 17.427 21.6741 17.427 21.701ZM17.3713 16.9728C17.3992 16.9996 17.4548 17.0265 17.4826 16.9996C17.427 16.9728 17.5104 16.9459 17.4548 16.9191C17.427 16.9459 17.3713 16.9459 17.3713 16.9728ZM16.9264 14.743C16.982 14.743 17.0376 14.7699 17.0933 14.743C17.1211 14.743 17.1211 14.743 17.1489 14.743C17.1489 14.7162 17.1767 14.7162 17.1489 14.6893C16.9542 14.6893 16.9264 14.6356 16.9264 14.743Z" fill="white"/>
<path d="M17.121 14.6895C17.121 14.6895 17.0932 14.7163 17.0654 14.7432C17.0932 14.7432 17.121 14.7163 17.121 14.6895Z" fill="white"/>
<path d="M16.7874 24.0654L16.704 24.0923C16.7596 24.1729 16.843 24.1729 16.9264 24.1998C16.843 24.146 16.8708 24.0923 16.8708 24.0117L16.7874 24.0654Z" fill="white"/>
<path d="M17.3713 24.0386C17.3991 24.0386 17.4548 24.0117 17.4548 24.0117H17.3991L17.3713 24.0386Z" fill="white"/>
<path d="M17.6495 23.1514L17.5939 23.232C17.6495 23.2588 17.7329 23.1782 17.6495 23.1514Z" fill="white"/>
<path d="M16.704 23.4737L16.7596 23.5005C16.8152 23.4737 16.8152 23.4199 16.7318 23.4199C16.7596 23.4737 16.704 23.4199 16.704 23.4737Z" fill="white"/>
<path d="M17.6494 22.9634C17.5382 22.9365 17.7051 22.8828 17.5938 22.8828C17.6216 22.9097 17.5382 22.9634 17.6494 22.9634Z" fill="white"/>
<path d="M16.6205 23.0176C16.5093 23.0444 16.6205 23.0713 16.5927 23.125C16.5927 23.0982 16.7039 23.0444 16.6205 23.0176Z" fill="white"/>
<path d="M17.3436 22.5873C17.427 22.5873 17.427 22.6142 17.3992 22.641C17.3714 22.641 17.3436 22.6142 17.3158 22.6142C17.3714 22.6679 17.3714 22.6679 17.3992 22.7216C17.4548 22.6679 17.4826 22.6142 17.5939 22.6142C17.5383 22.5873 17.427 22.5604 17.3436 22.5873Z" fill="white"/>
<path d="M16.6205 22.9102C16.5927 22.937 16.5093 22.9639 16.5371 23.0176C16.5927 23.0176 16.6761 22.9907 16.6483 22.937L16.7317 22.9639C16.7874 22.9102 16.6205 22.9907 16.6205 22.9102Z" fill="white"/>
<path d="M17.566 22.3994L17.5382 22.4263C17.6216 22.48 17.566 22.5337 17.6772 22.5606C17.6494 22.5069 17.6216 22.4263 17.566 22.3994Z" fill="white"/>
<path d="M16.7873 22.7217H16.6483C16.6205 22.7754 16.7039 22.7217 16.7317 22.7485C16.7039 22.7754 16.7039 22.7754 16.7317 22.8023C16.7039 22.7217 16.8151 22.7754 16.7873 22.7217Z" fill="white"/>
<path d="M16.6483 22.5606L16.5927 22.5068L16.4536 22.5337C16.5092 22.6143 16.537 22.5606 16.6483 22.5606Z" fill="white"/>
<path d="M16.7318 22.4805L16.5649 22.373C16.6484 22.4268 16.6484 22.4268 16.7318 22.4805Z" fill="white"/>
<path d="M17.5382 21.2712C17.4826 21.2712 17.427 21.3249 17.4826 21.2981C17.5382 21.2981 17.5939 21.2443 17.5382 21.2712Z" fill="white"/>
<path d="M16.537 21.5127C16.5648 21.4859 16.5092 21.4053 16.4536 21.3516C16.4814 21.4053 16.4814 21.5127 16.537 21.5127Z" fill="white"/>
<path d="M16.2035 19.6865C16.1757 19.7134 16.2313 19.7671 16.2869 19.7671C16.2591 19.7134 16.2313 19.6865 16.1757 19.6328C16.1757 19.6597 16.1478 19.6865 16.2035 19.6865Z" fill="white"/>
<path d="M16.2312 19.2827C16.259 19.3096 16.259 19.3364 16.2868 19.3364C16.3424 19.3096 16.2868 19.2558 16.2312 19.2827Z" fill="white"/>
<path d="M17.8163 16.6504C17.8441 16.6235 17.8163 16.5967 17.7329 16.5967C17.7329 16.6504 17.7885 16.6235 17.8163 16.6504Z" fill="white"/>
<path d="M17.7051 16.5425H17.7607L17.8163 16.5156L17.7051 16.5425Z" fill="white"/>
<path d="M17.8441 16.3012C17.8441 16.3012 17.8719 16.3012 17.8719 16.328C17.8441 16.3012 17.8441 16.2743 17.8441 16.3012Z" fill="white"/>
<path d="M17.8441 16.2207L17.7329 16.2744C17.7885 16.3282 17.7885 16.2207 17.9276 16.2744L17.8441 16.2207Z" fill="white"/>
<path d="M17.8163 16.0323C17.8441 15.9786 17.6773 15.9249 17.8163 15.898C17.7329 15.7637 17.5938 15.9249 17.5382 15.7637C17.4548 15.898 17.8163 15.8443 17.7329 15.9786C17.7885 15.9249 17.7885 16.0055 17.8163 16.0323Z" fill="white"/>
<path d="M17.566 16.0591C17.6494 16.0591 17.6494 16.0054 17.5938 15.9785C17.5938 16.0054 17.5104 16.0322 17.566 16.0591Z" fill="white"/>
<path d="M17.7606 15.791L17.8162 15.7373H17.7606V15.791Z" fill="white"/>
<path d="M17.7885 15.6298L17.8719 15.6567C17.8163 15.6567 17.8441 15.5761 17.7885 15.6298Z" fill="white"/>
<path d="M17.8719 15.4146C17.8997 15.3878 17.705 15.334 17.7607 15.4146V15.3878C17.7885 15.3878 17.8719 15.3609 17.8719 15.4146Z" fill="white"/>
<path d="M17.5939 14.9043C17.5939 14.9312 17.6217 14.958 17.6495 14.958L17.5939 14.9043Z" fill="white"/>
<path d="M17.1211 14.9043C17.0099 14.9312 17.1211 14.958 17.0933 15.0118C17.1211 14.9849 17.1211 14.9849 17.1211 14.9043Z" fill="white"/>
<path d="M17.7329 14.8232C17.7885 14.8501 17.7607 14.877 17.7329 14.877C17.8163 14.877 17.8163 14.8232 17.7329 14.8232Z" fill="white"/>
<path d="M17.705 14.7164C17.7606 14.6895 17.7606 14.7164 17.7885 14.7164C17.8441 14.6626 17.8441 14.6089 17.7606 14.582C17.705 14.582 17.566 14.6089 17.5104 14.582C17.5382 14.6626 17.7606 14.6895 17.5938 14.7432L17.7885 14.797C17.8719 14.7432 17.705 14.7701 17.705 14.7164Z" fill="white"/>
<path d="M17.3158 14.877L17.3714 14.8233C17.3158 14.8233 17.288 14.7964 17.2602 14.7695C17.1489 14.7964 17.3158 14.8501 17.3158 14.877Z" fill="white"/>
<path d="M17.6217 14.2862L17.5938 14.1787L17.566 14.2056L17.6217 14.2862Z" fill="white"/>
<path d="M17.6772 14.2061H17.705L17.6216 14.1523L17.6772 14.2061Z" fill="white"/>
<path d="M17.7051 14.125L17.7329 14.1787L17.7051 14.125Z" fill="white"/>
<path d="M17.7329 13.9375L17.6773 13.9644C17.7051 13.9912 17.6217 14.045 17.7051 14.0181C17.6773 13.9912 17.7051 13.9375 17.7329 13.9375Z" fill="white"/>
<path d="M16.1755 13.3189C16.2033 13.3457 16.259 13.3189 16.2868 13.3189L16.1755 13.292C16.1755 13.292 16.2033 13.3189 16.1755 13.3189Z" fill="white"/>
<path d="M16.3425 13.2115L16.2313 13.1309C16.2035 13.2115 16.3147 13.2115 16.3147 13.292C16.3425 13.2652 16.2591 13.2115 16.2869 13.1846L16.3425 13.2115Z" fill="white"/>
<path d="M16.4259 11.8684C16.5093 11.8684 16.4815 11.8684 16.5371 11.9222C16.4815 11.8416 16.5093 11.7878 16.4815 11.7072C16.4259 11.7072 16.3425 11.6535 16.3703 11.6804L16.4259 11.761H16.3703C16.3425 11.8147 16.4815 11.8147 16.4259 11.8684Z" fill="white"/>
<path d="M17.2601 8.37642C17.2879 8.37642 17.3436 8.37642 17.3714 8.37642C17.3157 8.32269 17.2601 8.37642 17.2601 8.37642Z" fill="white"/>
<path d="M25.269 16.4358C25.2968 16.3283 25.269 16.4089 25.2412 16.4089L25.269 16.4358Z" fill="white"/>
<path d="M25.2412 16.4087L25.2134 16.3818C25.2134 16.4087 25.2134 16.4087 25.2412 16.4087Z" fill="white"/>
<path d="M24.9631 16.3544C25.0188 16.2738 25.1022 16.3813 25.13 16.2739C25.0744 16.1933 24.9909 16.2201 24.9631 16.3544Z" fill="white"/>
<path d="M25.0743 16.4082V16.3545L25.0187 16.4619L25.0743 16.4082Z" fill="white"/>
<path d="M25.1021 16.4619L25.0187 16.5156L25.1021 16.4619Z" fill="white"/>
<path d="M24.7684 16.3008L24.824 16.274C24.8797 16.3546 24.7962 16.3814 24.824 16.4352C24.9075 16.4352 24.8519 16.2471 24.9353 16.274C24.9353 16.1934 24.7962 16.274 24.7962 16.1396C24.7406 16.1396 24.7962 16.2471 24.7684 16.3008Z" fill="white"/>
<path d="M20.0688 17.0806L20.041 17.0537C20.041 17.0537 20.041 17.0806 20.0688 17.0806Z" fill="white"/>
<path d="M21.7095 16.7578C21.7373 16.7847 21.7373 16.7847 21.7373 16.7847C21.7373 16.7578 21.7373 16.7578 21.7095 16.7578Z" fill="white"/>
<path d="M18.9565 17.2686C18.9287 17.2686 18.9287 17.2686 18.9009 17.2686C18.9287 17.2954 18.9287 17.2686 18.9565 17.2686Z" fill="white"/>
<path d="M20.4026 17.2417L20.3748 17.2148C20.3748 17.2417 20.4026 17.2417 20.4026 17.2417Z" fill="white"/>
<path d="M23.8229 16.167C23.7951 16.167 23.7951 16.167 23.7673 16.167C23.7951 16.1939 23.8229 16.1939 23.8229 16.167Z" fill="white"/>
<path d="M23.7951 16.1663C23.7673 16.1126 23.7673 15.9514 23.7117 16.1395V16.1663C23.6839 16.1126 23.6561 16.1932 23.6283 16.1932C23.6283 16.2201 23.6283 16.2201 23.6283 16.2469C23.6283 16.2469 23.6561 16.2469 23.6839 16.2738C23.7395 16.3007 23.7395 16.1932 23.7951 16.1663Z" fill="white"/>
<path d="M21.0977 16.9453C21.0977 16.9736 21.1269 16.9736 21.0977 16.9453V16.9453Z" fill="white"/>
<path d="M21.4037 16.8115H21.3759C21.3759 16.8115 21.3759 16.8384 21.4037 16.8115Z" fill="white"/>
<path d="M10.475 15.71C10.5028 15.6831 10.5028 15.7368 10.5306 15.7637C10.5862 15.6562 10.4193 15.7637 10.5028 15.6562C10.475 15.6562 10.475 15.6831 10.4471 15.6831L10.475 15.7906C10.5306 15.7637 10.4471 15.7637 10.475 15.71Z" fill="white"/>
<path d="M15.0078 16.0591C15.0078 16.0054 15.0078 16.0054 14.98 15.9785C14.9521 16.0591 15.0078 16.1666 14.9521 16.2472C14.9521 16.2472 14.98 16.2472 15.0078 16.2472C14.9521 16.1934 14.98 16.1128 15.0078 16.0591Z" fill="white"/>
<path d="M14.9799 16.2471C14.9799 16.2739 14.9799 16.2739 14.9799 16.2739H15.0077C15.0077 16.2739 14.9799 16.2739 14.9799 16.2471Z" fill="white"/>
<path d="M11.2535 15.7637C11.2828 15.7637 11.2828 15.792 11.2535 15.7637C11.2828 15.7637 11.2535 15.7637 11.2535 15.7637Z" fill="white"/>
<path d="M19.0121 15.8716L19.0399 15.8447C19.0399 15.8447 19.0121 15.8447 19.0121 15.8716Z" fill="white"/>
<path d="M15.5638 16.167L15.5917 16.1939C15.5917 16.1939 15.5917 16.1939 15.6195 16.1939L15.5638 16.167Z" fill="white"/>
<path d="M13.7007 17.2416C13.7285 17.1073 13.6729 17.2416 13.6451 17.1879L13.6173 17.2416C13.6451 17.2416 13.6729 17.2416 13.7007 17.2416Z" fill="white"/>
<path d="M12.6169 17.2693C12.6169 17.241 12.5876 17.241 12.6169 17.2693C12.5876 17.241 12.6169 17.241 12.6169 17.2693Z" fill="white"/>
<path d="M15.2024 16.3013H15.3414L15.3136 16.2744C15.2858 16.355 15.2024 16.2475 15.2024 16.3013Z" fill="white"/>
<path d="M14.3125 17.295V17.3756C14.4515 17.2144 14.6184 17.4562 14.7296 17.2144C14.8965 17.4831 14.8409 16.9726 15.0077 17.2144V17.1876C15.5083 17.2413 16.0644 17.3756 16.5372 17.2413V17.295C17.3158 17.3756 18.0666 17.2681 18.8174 17.3219C18.9009 17.2681 18.8453 17.1607 18.9009 17.107C18.9287 17.107 18.9843 17.107 18.9843 17.1607C18.9287 17.1876 18.9565 17.2681 18.9565 17.2681C19.0399 17.2681 19.1511 17.3487 19.2346 17.2681L19.1511 17.1607C19.1789 17.1338 19.2346 17.1607 19.2624 17.1607C19.2624 17.2144 19.2902 17.295 19.2624 17.3219C19.4292 17.107 19.4014 17.4025 19.5126 17.3219C19.5405 17.1338 19.7073 16.9995 19.8185 16.8652L19.8742 16.9189C19.7907 16.9189 19.8742 17.0532 19.7907 17.0532C19.8742 17.107 19.9576 17.0264 20.0132 17.0532C19.9854 16.9995 20.0132 16.9458 20.041 16.9189C20.0966 16.9458 20.0966 17.0264 20.1522 17.0532L20.0966 17.107C20.1244 17.1876 20.1522 17.0801 20.2079 17.0801C20.2079 17.1607 20.2913 17.1607 20.2913 17.2413C20.3747 17.1338 20.4025 17.1876 20.4581 17.1338C20.3747 17.0532 20.4859 17.0264 20.4581 16.9726L20.3747 16.9995C20.5137 17.0532 20.3191 17.0264 20.3469 17.1338C20.2913 17.0801 20.4303 16.9189 20.3191 16.9458C20.4303 16.892 20.4581 16.9458 20.5972 16.8383C20.5137 16.8652 20.625 16.7577 20.5694 16.704C20.6528 16.704 20.5972 16.7577 20.625 16.8383C20.6806 16.8383 20.7084 16.9189 20.7362 16.8114C20.8196 16.8383 20.7362 16.9189 20.764 16.9726C20.7362 17.0532 20.5416 16.8652 20.5416 17.1338C20.4859 17.1338 20.4581 17.2413 20.3747 17.2413C20.4303 17.2681 20.5137 17.3756 20.5694 17.295V17.1338C20.625 17.1338 20.625 17.0264 20.6806 17.0264C20.6528 17.0801 20.7084 17.1338 20.7362 17.1338C20.7362 17.107 20.7084 17.107 20.7084 17.0801C20.7918 17.0801 20.7918 16.9726 20.8753 16.9189C20.7918 16.8652 20.7918 16.8383 20.7084 16.7577C20.7362 16.6503 20.764 16.7309 20.7918 16.7309C20.7918 16.7577 20.764 16.7577 20.7918 16.7846L20.8474 16.7309C20.9309 16.7846 20.8474 16.892 20.9031 16.9458C20.9587 17.0264 20.9865 16.892 21.0143 16.9458V16.9189H21.0421C21.0977 16.892 21.1533 16.9189 21.1533 16.8383C21.1533 16.8652 21.209 16.8383 21.209 16.8114C21.2368 16.7846 21.2924 16.6771 21.348 16.8114C21.4036 16.8383 21.4592 16.8652 21.4592 16.9189L21.5705 16.9458V17.0532C21.6539 17.0264 21.6539 16.9726 21.7095 16.8383C21.7651 16.892 21.8764 16.8383 21.932 16.8114H21.9598L21.932 16.7577C22.0154 16.7577 21.9876 16.704 22.0432 16.704C22.0432 16.704 22.0432 16.6771 22.071 16.704H22.0988C22.0988 16.704 22.0988 16.704 22.071 16.704V16.7309C22.1266 16.8383 22.1544 16.6771 22.2101 16.704H22.1822C22.2101 16.7309 22.2657 16.892 22.2935 16.7846C22.2935 16.7846 22.3213 16.7846 22.3213 16.7577L22.3491 16.7846C22.3491 16.7846 22.3213 16.7846 22.3213 16.7577C22.3491 16.7309 22.3491 16.6771 22.3491 16.704L22.4325 16.7309C22.4603 16.7577 22.4603 16.7309 22.4881 16.7309L22.5159 16.7846C22.5437 16.7846 22.5438 16.8114 22.5438 16.8114C22.655 16.9726 22.7106 16.7309 22.8496 16.8652C22.8774 16.7846 22.8218 16.7577 22.8218 16.704C22.8496 16.6503 22.9053 16.5965 22.9331 16.5428C22.9887 16.6503 23.1555 16.7309 23.1277 16.892C23.239 16.892 23.0999 16.8114 23.1555 16.7577C23.1277 16.7309 23.0999 16.6771 23.0721 16.6234C23.0721 16.5428 23.1555 16.5159 23.1833 16.5428L23.1555 16.6503C23.239 16.5965 23.239 16.4353 23.2946 16.3279C23.378 16.3816 23.3224 16.4891 23.3502 16.5697L23.4336 16.5428V16.6234C23.4892 16.5965 23.4892 16.5159 23.5727 16.5428C23.517 16.6234 23.6839 16.6234 23.6005 16.7309C23.6283 16.7577 23.6561 16.5965 23.6561 16.704C23.6839 16.6234 23.6283 16.6503 23.6005 16.6234C23.5727 16.4891 23.6839 16.5697 23.7395 16.5159C23.7395 16.5965 23.7117 16.5965 23.7673 16.6503C23.7673 16.5965 23.8229 16.5697 23.8507 16.6234C23.8507 16.5428 23.9064 16.5965 23.9342 16.6234C23.9064 16.5965 23.8507 16.5428 23.8785 16.4622C23.9064 16.4353 23.9342 16.4085 23.9898 16.4085L23.9342 16.3547C23.9898 16.2204 24.0176 16.4353 24.101 16.4085C24.0732 16.4622 24.0454 16.4622 24.0176 16.5159C24.0454 16.4622 24.1288 16.4085 24.1566 16.3816L24.2122 16.5159C24.2122 16.4622 24.2679 16.5159 24.2679 16.4353C24.3513 16.4891 24.2122 16.5428 24.2122 16.5965C24.2957 16.6503 24.2957 16.4622 24.3791 16.5965L24.3513 16.6771C24.3791 16.6771 24.4347 16.6234 24.4347 16.6771C24.4347 16.6503 24.4069 16.6503 24.4069 16.6503C24.4347 16.4891 24.5459 16.5159 24.5459 16.3547H24.4903C24.5459 16.3279 24.6016 16.1936 24.6572 16.2742C24.685 16.3279 24.6294 16.4085 24.6016 16.4353C24.6572 16.4353 24.6572 16.2473 24.7128 16.2473C24.685 16.2204 24.685 16.1667 24.7128 16.113C24.6572 16.113 24.5738 16.0592 24.6016 16.1398L24.6294 16.1667C24.6294 16.2204 24.6016 16.2204 24.6016 16.2473C24.5459 16.2473 24.5738 16.1667 24.5738 16.1398C24.4903 16.113 24.5738 16.3279 24.4903 16.301V16.2742C24.4347 16.3279 24.3791 16.3279 24.3791 16.4353C24.3513 16.3279 24.2679 16.4891 24.2401 16.4085C24.2401 16.1667 24.3791 16.4353 24.4347 16.2742C24.3791 16.2204 24.4625 16.1398 24.4903 16.0861L24.3513 16.1936C24.3513 16.1667 24.2957 16.0324 24.2679 16.113C24.2122 16.1398 24.2122 16.2473 24.1844 16.2204C24.1844 16.1936 24.1844 16.1667 24.1844 16.1398C24.1288 16.113 24.1566 16.1936 24.1288 16.2204C24.0732 16.1936 24.1566 16.113 24.101 16.0861C24.0454 16.1936 24.0176 16.0592 23.962 16.0592C23.9898 16.1936 23.7673 16.2473 23.8785 16.3816L23.7395 16.6234C23.7117 16.5428 23.8229 16.4085 23.7951 16.301H23.8785C23.8507 16.113 23.6839 16.4085 23.6283 16.2204C23.5727 16.2204 23.6005 16.2473 23.517 16.1398L23.5448 16.301C23.4892 16.2742 23.4892 16.1667 23.4892 16.1398C23.4614 16.1398 23.4336 16.1398 23.4058 16.1398C23.4058 16.113 23.4336 16.0861 23.4336 16.0861C23.4058 16.0055 23.378 16.0324 23.378 16.0861C23.3502 16.1398 23.3224 16.113 23.2946 16.113L23.3224 16.0861C23.2946 16.0861 23.2946 16.113 23.2946 16.1398C23.2946 16.1398 23.2668 16.1398 23.2668 16.1667C23.2668 16.1936 23.2946 16.301 23.3224 16.3279C23.2111 16.2742 23.1277 16.301 23.0443 16.1667C23.0443 16.113 23.0721 16.0592 23.0721 16.0592C23.0165 16.0324 22.9887 16.113 22.9887 16.1936H22.9609C22.9609 16.1667 22.9331 16.113 22.9331 16.113C22.9331 16.0861 22.9331 16.0861 22.9053 16.0861C22.8774 16.2204 22.794 16.1398 22.794 16.2204C22.8218 16.2204 22.8496 16.2204 22.8774 16.2204C22.8496 16.301 22.794 16.4085 22.7662 16.3279C22.8218 16.2473 22.6828 16.1936 22.794 16.1667C22.7106 16.0055 22.7662 16.2742 22.6828 16.2204L22.6272 16.1667C22.6272 16.0861 22.7106 16.113 22.6828 16.0861H22.655C22.6828 16.0055 22.8218 16.0592 22.9053 15.9518L22.7384 15.8981C22.5438 16.0055 22.2935 15.8712 22.1266 16.0861C22.1266 16.0861 22.1266 16.113 22.1266 16.1398V16.113L22.0988 16.1936C22.071 16.113 21.9876 16.0861 21.932 16.0324C21.9598 16.0861 21.9598 16.0861 21.9876 16.1667C21.9876 16.2473 21.9876 16.301 21.9042 16.2742C21.9042 16.2204 21.932 16.2204 21.9042 16.1667C21.932 16.1936 21.9042 16.2473 21.8764 16.2473C21.8485 16.1936 21.7929 16.1936 21.7929 16.1398C21.8207 16.113 21.8207 16.1398 21.8207 16.1667C21.8485 16.1398 21.7651 16.113 21.7929 16.0592L21.7373 16.0861C21.7095 16.0324 21.7651 16.0055 21.7373 15.9518C21.6539 16.0055 21.5983 16.1398 21.5148 16.1936C21.5148 16.1667 21.5148 16.0055 21.5148 16.0592C21.4592 16.0055 21.3758 16.2204 21.2924 16.2204C21.2924 16.1667 21.3202 16.1936 21.348 16.1667C21.1255 16.113 20.9309 16.113 20.7084 15.9786L20.6528 16.1398L20.5416 15.9518C20.3191 15.8443 20.1244 15.9518 19.902 16.0055C19.8463 16.0055 19.8742 15.8981 19.8185 15.8712C19.6795 15.8443 19.6239 16.0324 19.4848 16.0592C19.5126 16.0055 19.5405 15.8712 19.4848 15.8712C19.4848 15.9249 19.457 15.9786 19.4292 15.9518L19.457 15.8981C19.4292 15.8175 19.3736 15.8981 19.318 15.8712C19.1789 15.8712 19.0677 15.9786 18.9565 16.1398C18.8453 16.113 18.9565 15.9786 18.9565 15.9518C19.0399 16.0055 19.0121 15.9249 19.0399 15.8712C18.9843 15.9249 18.9565 15.9518 18.9287 15.8443C18.8731 15.8443 18.8453 15.8443 18.7896 15.9249C18.8174 15.8981 18.8453 15.9518 18.8174 16.0055C18.7618 15.9786 18.6506 16.0055 18.6506 15.8712C18.3725 15.8981 18.0388 15.8712 17.7329 15.8712C17.6773 15.9518 17.7607 15.8981 17.7329 15.9518C17.6495 16.0324 17.6773 15.898 17.6217 15.9786L17.6495 15.8981C17.5661 15.8981 17.4548 16.0324 17.3714 16.0861C17.3992 16.0055 17.288 16.0055 17.3714 15.9786C17.3158 16.0055 17.288 15.6294 17.2324 15.6831L17.288 16.0324C17.288 16.0592 17.2324 16.0324 17.2324 16.0592C17.2046 15.9786 17.1489 15.8981 17.1211 15.8981C17.1211 15.8175 17.1768 15.8175 17.2046 15.8443C17.2046 15.71 17.0933 15.7637 17.1489 15.6025C17.0655 15.6294 17.1489 15.6831 17.1211 15.7369L17.0655 15.71L17.1211 15.7637C17.0655 15.8175 17.0377 15.9249 16.9821 15.8443L16.8987 15.9786C16.8987 15.8712 16.8431 15.9518 16.8152 15.9249L16.8431 15.8443C16.7874 15.8443 16.7596 15.8175 16.7318 15.7906C16.7596 15.6831 16.7874 15.8175 16.7874 15.71L16.7318 15.6831C16.7318 15.7369 16.704 15.7906 16.7318 15.8443C16.6762 15.9786 16.6484 16.0592 16.5094 16.0592C16.4537 15.9518 16.565 15.9518 16.5372 15.8443C16.3981 15.7906 16.3703 16.1398 16.2869 16.113C16.1757 16.0592 16.2035 16.1667 16.0922 16.1667C16.12 16.0861 16.0088 16.0861 16.0088 16.0055L16.0366 15.9249C16.0088 15.9518 15.981 15.9249 15.981 15.8712C15.981 15.9786 15.842 15.9786 15.7863 16.0055V16.0861C15.7307 16.113 15.6473 16.1667 15.5917 16.1398C15.5083 16.1667 15.5361 16.2473 15.4526 16.3547C15.4248 16.2742 15.4248 16.1936 15.4248 16.0861C15.4526 16.1398 15.4804 16.113 15.5361 16.1398C15.6473 16.0592 15.7307 15.8712 15.842 15.9249C15.8976 15.71 15.7585 15.9518 15.7029 15.8712V15.8443C15.7307 15.8175 15.8141 15.7906 15.8141 15.6831C15.7585 15.71 15.7585 15.8981 15.6751 15.8175C15.6195 15.8712 15.5639 15.71 15.5361 15.6831C15.5083 15.7637 15.4804 15.9249 15.397 15.8981L15.4526 15.7906C15.3414 15.7906 15.397 15.9786 15.2858 15.9518C15.3136 15.9786 15.258 16.0592 15.3136 16.0592C15.2858 16.113 15.2024 16.1398 15.1467 16.113C15.1189 16.1398 15.1467 16.1667 15.1467 16.1936C15.2024 16.2742 15.258 16.113 15.2858 16.2204L15.3414 16.0861C15.397 16.1398 15.397 16.2473 15.3692 16.301C15.397 16.301 15.397 16.2742 15.4248 16.301C15.4248 16.4891 15.3414 16.2204 15.3414 16.4085L15.3692 16.3816C15.397 16.5159 15.2858 16.4891 15.2302 16.4891C15.1746 16.4353 15.1189 16.4085 15.1189 16.3279L15.2024 16.301C15.1467 16.2204 15.0911 16.3548 15.0633 16.3279V16.301V16.3279L15.0355 16.301C15.0077 16.301 14.9243 16.3548 14.8965 16.3279V16.4085V16.3547C14.9243 16.3547 14.9799 16.4085 14.9521 16.4622C14.8687 16.5159 14.8409 16.3547 14.8409 16.301C14.8687 16.1667 14.9243 16.301 14.9799 16.2473C14.9521 16.113 14.8965 16.2473 14.8131 16.1398C14.8409 16.0055 14.9243 16.1398 14.9243 16.0055C14.8409 15.9786 14.8409 16.0861 14.7574 16.0324C14.7574 15.9786 14.8409 15.9518 14.8409 15.8712L14.7852 15.8443C14.8965 15.8443 14.7574 15.6831 14.8687 15.6294C14.8131 15.5757 14.8131 15.7369 14.7574 15.6563C14.7852 15.71 14.8131 15.8175 14.7574 15.8712L14.7018 15.8443C14.674 15.7906 14.7852 15.71 14.7296 15.6563L14.6462 15.71C14.6462 15.7637 14.674 15.7637 14.674 15.8175C14.6462 15.7637 14.6184 15.9786 14.5628 16.0324C14.535 16.0324 14.5072 16.0324 14.4794 15.9786C14.3959 16.0861 14.2569 16.0861 14.1735 16.2204C14.2291 16.1398 14.1735 16.0861 14.1457 16.0324C14.2291 16.0055 14.2291 15.8981 14.2013 15.8175C14.1457 15.8443 14.1178 15.9518 14.1457 16.0055C14.0622 15.9518 14.09 16.0861 14.0344 16.0055C14.0066 15.9518 14.0622 15.8712 14.0344 15.8443C13.951 15.8443 14.0066 16.0055 13.9232 15.9786C13.9232 15.9518 13.9232 15.9518 13.9232 15.9249C13.8676 15.8981 13.8398 15.9518 13.812 16.0324C13.7563 15.8712 13.6729 16.0592 13.7007 15.8981C13.5895 15.9518 13.7285 15.9786 13.7007 16.0324C13.6451 16.113 13.5617 16.0324 13.5617 16.0324C13.5895 16.0324 13.6173 15.9786 13.6451 16.0055L13.6173 15.8981C13.4783 15.8175 13.5339 16.1398 13.3948 16.0592C13.4504 16.0055 13.4226 15.9786 13.4504 15.8981C13.4226 15.9249 13.3392 15.898 13.3948 15.9786C13.3392 15.9786 13.3114 15.9518 13.2836 15.9249C13.228 15.9786 13.2002 16.0055 13.1724 16.0592C13.1167 16.0592 13.0611 15.9786 13.0333 15.9249C12.8943 16.0055 12.7552 15.8712 12.6162 15.9518C12.505 15.9249 12.6718 16.113 12.5328 16.0861C12.5606 15.9518 12.4493 16.0055 12.4215 15.9249C12.2825 15.8443 12.1713 16.0324 12.0322 15.9249C12.0322 15.8981 12.0322 15.8712 12.06 15.8712C11.9488 15.8175 11.8654 15.8443 11.7819 15.8443V15.8175C11.6429 15.71 11.5039 15.8443 11.337 15.8712C11.337 15.8443 11.3648 15.7906 11.3648 15.7906C11.2814 15.7637 11.1702 15.7369 11.1146 15.8712C11.0311 15.7369 11.0589 15.9249 10.9199 15.7906C10.9199 15.7637 10.9199 15.7637 10.9477 15.7637C10.8921 15.71 10.8365 15.7369 10.7809 15.71C10.6418 15.7906 10.614 15.9786 10.4472 15.9249C10.4472 15.7369 10.5306 15.8712 10.5584 15.7369C10.5306 15.7637 10.5028 15.8175 10.4472 15.7637C10.475 15.6831 10.4472 15.71 10.475 15.6563C10.3359 15.5488 10.2525 15.7906 10.2525 15.7906C10.2525 15.8175 10.2525 15.8443 10.2803 15.8443C10.2525 15.9518 10.1413 15.8443 10.0578 15.8981C10.0856 15.8981 10.1691 15.9249 10.1413 16.0324C10.03 16.0055 10.0022 16.1667 9.9466 16.2473C9.86318 16.1667 10.0022 16.0861 10.0022 15.9518C9.97441 15.8981 9.9466 15.7906 10.0022 15.7369C9.91879 15.71 9.86318 15.8175 9.77975 15.8443V15.8175C9.66852 15.8443 9.55729 16.0055 9.47386 15.9249L9.52948 15.9786C9.50167 16.0055 9.47386 15.9786 9.41825 16.0592C9.41825 16.0055 9.36263 15.9518 9.39044 15.8981C9.33482 16.0861 9.16797 16.0055 9.11235 16.1936C9.08455 16.1398 9.11235 16.0592 9.11235 16.0324C9.16797 16.0592 9.19578 16.0861 9.22359 16.0055C9.16797 16.0055 9.14016 15.9518 9.14016 15.9249C9.08455 16.0592 8.9455 16.0861 8.9177 16.2204C8.88989 16.1667 8.83427 16.113 8.86208 16.0324C8.69523 16.0861 8.94551 16.3547 8.75085 16.3547C8.66742 16.2473 8.83427 16.2204 8.72304 16.1936L8.75085 16.1667C8.66742 15.8981 8.69523 16.3547 8.584 16.3547C8.584 16.2204 8.63961 16.2473 8.584 16.1398C8.50057 16.1667 8.44496 16.3816 8.36153 16.3547L8.38934 16.301C8.33372 16.301 8.22249 16.2742 8.16687 16.301C8.16687 16.2742 8.16687 16.2742 8.19468 16.2742C8.08345 16.2204 8.13907 16.3547 8.05564 16.2473L8.02783 16.3279C8.08345 16.3816 8.16687 16.4353 8.22249 16.3547C8.16687 16.4353 8.30591 16.5428 8.27811 16.6503V16.5965C8.41715 16.8114 8.61181 16.8383 8.77866 16.9189C8.88989 16.7846 8.97331 16.9726 9.08455 16.8652C9.11235 16.704 9.11235 16.8383 9.22359 16.8114C9.16797 16.8383 9.22359 16.9458 9.2514 16.9726C9.2792 16.9189 9.30701 16.9189 9.33482 16.892C9.36263 16.9458 9.50167 17.0801 9.52948 16.9726C9.5851 17.0264 9.50167 17.0264 9.50167 17.0532C9.52948 17.1338 9.55729 16.9995 9.5851 17.0532V17.0801C9.69633 17.0801 9.75194 17.107 9.83537 17.1338C9.83537 16.9726 9.9466 17.0801 9.97441 17.0264C9.9466 17.0801 10.03 17.0801 10.0578 17.107L10.1135 16.9726C10.1691 16.8652 10.1969 17.0532 10.2525 16.9995L10.1969 16.892C10.2525 16.8383 10.3915 16.9458 10.4193 17.0264C10.8921 16.704 11.1424 17.2144 11.6429 17.107C11.6707 17.0532 11.6151 17.0264 11.6429 16.9458C11.6985 16.9189 11.6985 16.9458 11.7541 16.9189C11.7263 16.8652 11.7263 16.9189 11.7263 16.892L11.6429 16.9458C11.6429 16.9458 11.6429 16.9189 11.6429 16.892C11.6151 16.9189 11.5873 16.9458 11.5595 16.9189C11.6151 16.8652 11.6151 16.7577 11.6707 16.8114C11.6707 16.8383 11.6707 16.8383 11.6429 16.8383C11.6985 16.8383 11.6985 16.7846 11.7263 16.8114C11.7819 16.8383 11.7541 16.8114 11.7541 16.8652L11.8932 16.9189C11.9766 16.7846 12.06 16.9189 12.06 16.9189C12.0322 17.0264 11.9766 16.9458 11.921 17.0532L11.9766 17.1338V17.0532L12.06 17.0801V17.107C12.06 17.0801 12.0878 17.0264 12.0878 17.0801C12.0878 17.0801 12.0878 17.107 12.0878 17.1338L12.1435 17.0801C12.1156 17.1607 12.1991 17.107 12.1713 17.2144C12.3381 17.2681 12.3937 17.0801 12.5328 17.2144C12.505 17.1607 12.5884 17.0532 12.6162 17.0801C12.644 17.107 12.644 17.1338 12.644 17.1607L12.6996 17.107C12.783 17.2681 12.8387 17.1607 12.9499 17.2144V17.2681C12.9777 17.2144 13.0333 17.1607 13.0889 17.1876V17.2681C13.1724 17.3219 13.1446 17.0801 13.228 17.1338C13.228 17.0264 13.1724 16.9726 13.1724 16.892C13.2002 16.9995 13.2836 16.9995 13.2558 16.9458C13.3392 16.9189 13.3114 16.9458 13.3114 16.9726L13.367 16.9189C13.4226 16.9189 13.3948 17.0532 13.367 17.107C13.4226 16.9995 13.4783 17.0801 13.5339 17.0801L13.5617 17.1607L13.6451 17.1876C13.7007 17.107 13.7563 17.107 13.8398 17.1338L13.7841 17.2681C13.8398 17.3487 13.812 17.2144 13.812 17.2144C13.8954 17.1607 13.8954 17.2413 13.951 17.3219C14.09 17.1607 14.2013 17.4831 14.3125 17.295ZM22.5438 16.8114C22.5438 16.7577 22.5716 16.7309 22.5438 16.8114V16.8114ZM21.8764 16.7577C21.9598 16.704 21.932 16.7577 21.932 16.8114C21.8485 16.7846 21.8207 16.8114 21.7373 16.7846C21.7373 16.8114 21.7373 16.8383 21.7651 16.8652C21.7373 16.8652 21.7095 16.8383 21.7095 16.7577C21.7373 16.6234 21.9042 16.8383 21.8764 16.7577ZM23.3502 16.1398V16.1667V16.1398ZM22.9609 16.2473C22.9609 16.2204 22.9331 16.1936 22.9331 16.1936C22.9609 16.2204 22.9609 16.2473 22.9609 16.2473ZM22.1822 16.0861C22.1544 16.0324 22.1266 16.0592 22.0988 16.0592C22.1266 16.0592 22.1544 16.0861 22.1822 16.0861ZM17.288 16.1398C17.3158 16.113 17.3436 16.0592 17.3158 16.0324C17.288 16.0861 17.2602 16.0055 17.2324 16.0592C17.2602 16.113 17.2602 16.1398 17.288 16.1398ZM14.9799 16.5697C14.9799 16.5159 15.0077 16.4622 14.9799 16.4085C14.9799 16.3816 14.9799 16.3816 14.9799 16.3547C14.9521 16.3547 14.9521 16.3279 14.9243 16.3547C14.9243 16.5428 14.8965 16.5697 14.9799 16.5697Z" fill="white"/>
<path d="M14.9243 16.3818C14.9243 16.3818 14.9521 16.4087 14.9799 16.4356C14.9799 16.4087 14.9521 16.3818 14.9243 16.3818Z" fill="white"/>
<path d="M24.6293 16.7037L24.6572 16.7843C24.7406 16.7305 24.7406 16.6499 24.7684 16.5693C24.7128 16.6499 24.6572 16.6231 24.5737 16.6231L24.6293 16.7037Z" fill="white"/>
<path d="M24.6015 16.1402C24.6015 16.1133 24.5737 16.0596 24.5737 16.0596V16.1133L24.6015 16.1402Z" fill="white"/>
<path d="M23.6838 15.871L23.7673 15.9247C23.7951 15.871 23.7116 15.7904 23.6838 15.871Z" fill="white"/>
<path d="M24.0175 16.7845L24.0453 16.7308C24.0175 16.6771 23.9619 16.6771 23.9619 16.7577C24.0175 16.7308 23.9619 16.7845 24.0175 16.7845Z" fill="white"/>
<path d="M23.4892 15.8711C23.4614 15.9786 23.4058 15.8174 23.4058 15.9248C23.4336 15.898 23.4892 15.9786 23.4892 15.8711Z" fill="white"/>
<path d="M23.5448 16.8649C23.5726 16.9724 23.6004 16.8649 23.656 16.8918C23.6282 16.8918 23.5726 16.7843 23.5448 16.8649Z" fill="white"/>
<path d="M23.0999 16.1666C23.0999 16.086 23.1277 16.086 23.1555 16.1129C23.1555 16.1397 23.1277 16.1666 23.1277 16.1934C23.1833 16.1397 23.1833 16.1397 23.2389 16.1129C23.1833 16.0591 23.1277 16.0323 23.1277 15.9248C23.0999 16.0054 23.0721 16.086 23.0999 16.1666Z" fill="white"/>
<path d="M23.4336 16.8655C23.4614 16.8924 23.4892 16.9729 23.5448 16.9461C23.5448 16.8924 23.517 16.8118 23.4614 16.8386L23.4892 16.758C23.4336 16.7043 23.517 16.8655 23.4336 16.8655Z" fill="white"/>
<path d="M22.9053 15.9786L22.9331 16.0054C22.9887 15.9248 23.0443 15.9786 23.0721 15.8711C23.0165 15.8711 22.9331 15.9248 22.9053 15.9786Z" fill="white"/>
<path d="M23.239 16.7036V16.8379C23.2946 16.8648 23.239 16.7842 23.2668 16.7573C23.2946 16.7842 23.2946 16.7842 23.3224 16.7573C23.239 16.7842 23.2946 16.6767 23.239 16.7036Z" fill="white"/>
<path d="M23.0721 16.8379L23.0165 16.8916L23.0721 17.0259C23.1277 16.9722 23.0721 16.9454 23.0721 16.8379Z" fill="white"/>
<path d="M22.9887 16.7578L22.8774 16.919C22.9331 16.8384 22.9331 16.8653 22.9887 16.7578Z" fill="white"/>
<path d="M21.7373 15.979C21.7373 16.0327 21.7929 16.0865 21.7651 16.0327C21.7929 16.0059 21.7095 15.9253 21.7373 15.979Z" fill="white"/>
<path d="M21.9875 16.9456C21.9597 16.9188 21.8763 16.9725 21.8207 17.0262C21.8763 16.9994 21.9875 17.0262 21.9875 16.9456Z" fill="white"/>
<path d="M20.0966 17.2681C20.1244 17.295 20.1801 17.2412 20.1801 17.1875C20.1244 17.2144 20.0966 17.2412 20.041 17.295C20.0688 17.295 20.0966 17.3218 20.0966 17.2681Z" fill="white"/>
<path d="M19.6794 17.2417C19.7073 17.2149 19.7351 17.2148 19.7351 17.188C19.7073 17.1611 19.6794 17.2149 19.6794 17.2417Z" fill="white"/>
<path d="M16.9543 15.7366C16.9265 15.7098 16.8987 15.7366 16.8987 15.8172C16.9543 15.7904 16.9265 15.7366 16.9543 15.7366Z" fill="white"/>
<path d="M16.843 15.8174V15.7637L16.8152 15.71L16.843 15.8174Z" fill="white"/>
<path d="M16.5928 15.7105C16.5928 15.7105 16.5928 15.6836 16.6206 15.6836C16.5928 15.6836 16.565 15.6836 16.5928 15.7105Z" fill="white"/>
<path d="M16.5094 15.6831L16.565 15.7906C16.6206 15.7369 16.5094 15.7369 16.565 15.6025L16.5094 15.6831Z" fill="white"/>
<path d="M16.3147 15.7101C16.2591 15.6833 16.2035 15.8444 16.1757 15.7101C16.0366 15.7907 16.2035 15.925 16.0366 15.9788C16.1757 16.0594 16.12 15.7101 16.2591 15.7907C16.2035 15.737 16.3147 15.7638 16.3147 15.7101Z" fill="white"/>
<path d="M16.3425 15.952C16.3425 15.8714 16.2868 15.8714 16.259 15.9251C16.2868 15.9251 16.3147 16.0326 16.3425 15.952Z" fill="white"/>
<path d="M16.0644 15.791L16.0088 15.7373V15.7642L16.0644 15.791Z" fill="white"/>
<path d="M15.8976 15.7642L15.9254 15.6836C15.9254 15.7105 15.8697 15.7105 15.8976 15.7642Z" fill="white"/>
<path d="M15.6752 15.656C15.6474 15.6291 15.5917 15.8171 15.6752 15.7634H15.6474C15.6752 15.7366 15.6195 15.6828 15.6752 15.656Z" fill="white"/>
<path d="M15.1467 15.9522C15.1745 15.9522 15.2023 15.9253 15.2023 15.8984L15.1467 15.9522Z" fill="white"/>
<path d="M15.1467 16.3818C15.1745 16.4893 15.2023 16.3818 15.258 16.4087C15.2302 16.3818 15.2302 16.3818 15.1467 16.3818Z" fill="white"/>
<path d="M15.0634 15.7901C15.0912 15.7364 15.119 15.7633 15.119 15.7901C15.119 15.7095 15.0634 15.7364 15.0634 15.7901Z" fill="white"/>
<path d="M14.9522 15.8173C14.9243 15.7635 14.9522 15.7635 14.9522 15.7367C14.8965 15.6829 14.8409 15.6829 14.8131 15.7635C14.8131 15.8173 14.8409 15.9516 14.8131 16.0053C14.8965 15.9784 14.9243 15.7635 14.98 15.9247L15.0356 15.7367C14.98 15.6561 15.0078 15.8441 14.9522 15.8173Z" fill="white"/>
<path d="M15.1189 16.1934L15.0633 16.1396C15.0633 16.1934 15.0355 16.2202 15.0077 16.2471C15.0355 16.3546 15.0911 16.1934 15.1189 16.1934Z" fill="white"/>
<path d="M14.5071 15.8984L14.3959 15.9522H14.4237L14.5071 15.8984Z" fill="white"/>
<path d="M14.4238 15.8711V15.8174L14.3682 15.898L14.4238 15.8711Z" fill="white"/>
<path d="M14.3403 15.8179L14.3959 15.791L14.3403 15.8179Z" fill="white"/>
<path d="M14.1456 15.791L14.1734 15.8447C14.2012 15.8179 14.2569 15.8985 14.2291 15.8179C14.2012 15.8447 14.1456 15.8447 14.1456 15.791Z" fill="white"/>
<path d="M13.5061 17.295C13.5339 17.2681 13.5061 17.2144 13.5061 17.1875L13.4783 17.295C13.4783 17.295 13.5061 17.2681 13.5061 17.295Z" fill="white"/>
<path d="M13.3948 17.1338L13.3114 17.2681C13.3948 17.295 13.3948 17.1875 13.4783 17.1875C13.4504 17.1607 13.3948 17.2412 13.367 17.2144L13.3948 17.1338Z" fill="white"/>
<path d="M12.0044 17.0528C12.0044 16.9722 12.0044 16.999 12.0601 16.9453C11.9766 16.999 11.921 16.9722 11.8376 16.999C11.8376 17.0528 11.782 17.1334 11.8098 17.1065L11.8932 17.0528V17.1065C11.9488 17.1602 11.9488 16.999 12.0044 17.0528Z" fill="white"/>
<path d="M8.38934 16.2471C8.38934 16.2202 8.38934 16.1665 8.38934 16.1396C8.33373 16.1934 8.38934 16.2471 8.38934 16.2471Z" fill="white"/>
<path d="M27.5521 14.0107C27.5521 14.0362 27.5521 14.0872 27.5521 14.1381C27.5258 14.0107 27.4995 13.9598 27.5521 14.0107Z" fill="white"/>
<path d="M27.5785 15.717C27.5521 15.284 27.5521 14.5962 27.5521 14.1377C27.5785 14.2396 27.6048 14.3669 27.6575 14.5198C27.7102 14.6726 27.7102 14.8509 27.7365 15.0038C27.7365 15.3604 27.7102 15.6406 27.5785 15.717Z" fill="white"/>
<path d="M27.9999 13.8574V14.4433C27.8682 14.1121 27.9999 14.1631 27.9999 13.8574Z" fill="white"/>
<path d="M27.7628 14.1124L27.6575 14.0869L27.7102 13.7812L27.7628 14.1124Z" fill="white"/>
<path d="M6.92419 11.8712C6.97688 11.8457 7.05592 11.8203 7.08226 11.8712H6.92419Z" fill="white"/>
<path d="M6.08121 12.8643C6.02852 12.9661 6.00217 13.0426 5.97583 13.0935C6.00217 13.0171 6.02852 12.9661 6.08121 12.8643Z" fill="white"/>
<path d="M7.37212 10.8779C7.34578 10.9289 7.31944 11.0053 7.29309 11.0817C7.29309 11.0053 7.31944 10.9289 7.37212 10.8779Z" fill="white"/>
<path d="M19.0428 5.5791C19.2273 5.70646 19.4117 5.80835 19.5434 5.88477C19.1219 5.8593 19.1219 5.70646 19.0428 5.5791Z" fill="white"/>
<path d="M4.57959 18.8506L4.68497 18.8761C4.65862 18.9525 4.63228 19.0034 4.57959 18.8506Z" fill="white"/>
<path d="M4.63232 12.8135C4.68501 12.8135 4.71136 12.8389 4.7377 12.8644C4.7377 12.8899 4.71136 12.9154 4.71136 12.9408L4.63232 12.8135Z" fill="white"/>
<path d="M7.66187 10.0883C7.66187 10.0628 7.66187 10.0628 7.66187 10.0883C7.71456 10.0374 7.7409 9.98641 7.79359 9.96094C7.76725 10.0374 7.71456 10.0628 7.66187 10.0883Z" fill="white"/>
<path d="M5.1592 20.7354C5.1592 20.8372 5.13286 20.9391 5.10651 21.041C5.05382 20.8627 5.08017 20.7354 5.1592 20.7354Z" fill="white"/>
<path d="M5.3962 10.9541C5.34352 11.056 5.26448 11.1324 5.21179 11.2343C5.26448 11.0815 5.34352 11.005 5.3962 10.9541Z" fill="white"/>
<path d="M19.0428 5.57943C18.9901 5.55396 18.9375 5.50301 18.8848 5.47754C18.9638 5.50301 19.0165 5.52848 19.0428 5.57943Z" fill="white"/>
<path d="M27.0253 12.6093C26.9726 12.431 26.999 12.38 27.0516 12.3291C27.078 12.4565 27.078 12.5329 27.0253 12.6093Z" fill="white"/>
<path d="M24.6542 21.9835C24.6279 22.009 24.5752 22.009 24.5488 22.009C24.5752 21.9581 24.6279 21.9581 24.6542 21.9835Z" fill="white"/>
<path d="M20.4127 27.1545C20.8606 26.8743 21.4402 26.9253 21.8617 26.747L21.6773 26.7215L22.1251 26.6196L22.0461 26.4922C22.4149 26.3904 22.7574 26.1356 23.0472 25.9573C23.2053 25.8554 23.337 25.779 23.4687 25.7281C23.6004 25.6771 23.7058 25.6262 23.7849 25.6262L23.5741 25.4988L24.3117 25.1931L23.8639 25.3205C24.5488 24.8111 25.629 23.9959 25.7344 23.8431H25.6026C25.6553 23.7157 25.787 23.6648 25.9188 23.5884H25.7344C25.8397 23.461 25.9451 23.3591 26.0241 23.2572C26.1032 23.1553 26.1822 23.0534 26.2349 22.9516C26.3666 22.7478 26.472 22.5695 26.5774 22.3912C26.6828 22.2129 26.7618 22.0091 26.8935 21.7798C27.0252 21.5506 27.1833 21.3213 27.3677 21.0156C27.4994 20.659 27.236 21.194 27.157 21.1685C27.157 20.9392 27.4731 20.5317 27.5785 20.4553C27.3414 20.4807 27.1306 21.0156 27.1833 20.5571C27.4204 20.3279 26.9199 20.659 27.1833 20.2005C27.2887 20.1751 27.3941 20.1496 27.5258 20.0986C27.6048 19.793 27.3414 19.9713 27.5521 19.5128C27.8683 19.0288 27.6048 20.2515 27.9473 19.4109C28.0263 19.2071 27.921 18.9269 27.8683 18.6212C27.8156 18.3156 27.7892 17.9844 27.921 17.5769C27.8946 16.8382 27.4468 17.8825 27.6839 16.9146L27.4204 17.5004C27.3677 17.3221 27.236 17.3985 27.3414 17.0165C27.3941 16.9655 27.4731 16.8636 27.5258 16.7617C27.5785 16.6598 27.6312 16.5325 27.6312 16.4306C27.4994 16.8891 27.4468 16.6598 27.3677 16.4561C27.2887 16.2523 27.2097 16.0485 27.0516 16.4306L27.0779 16.1249C27.0779 16.1504 27.0516 16.1759 27.0252 16.1504V15.7428C26.9462 15.9976 26.8935 16.558 26.7091 16.2778L26.6828 15.7174C26.5247 15.8702 26.472 15.6664 26.3666 15.6919L26.1822 16.4815V16.6853L26.1295 16.8891L25.9978 17.2712C26.1032 17.2202 26.1822 17.0165 26.2612 17.1184C26.2612 17.3221 26.2086 17.424 26.1559 17.475C26.1032 17.5514 26.0768 17.6278 26.0768 17.8316L26.2349 17.6787C26.1822 17.7042 26.1559 17.7552 26.1559 17.6533C26.1295 17.5004 26.2086 17.4495 26.2876 17.4495C26.4193 17.6278 26.2086 17.9844 26.0768 18.0863C25.9715 18.5958 26.3139 18.2646 26.3139 18.392C26.2349 18.4429 26.1822 18.5193 26.1559 18.6212C26.1032 18.7231 26.0768 18.825 26.0505 18.9269C25.9978 19.1562 25.9451 19.3854 25.8397 19.5128L26.0768 19.3854C26.1032 19.6147 26.0241 19.793 25.9188 19.9458C25.8134 20.0986 25.708 20.2005 25.629 20.3024L25.787 20.2769C25.6553 20.5317 25.629 20.7609 25.5763 20.9647C25.5236 21.1685 25.4182 21.3213 25.1021 21.3723H25.2075C25.1021 21.576 24.944 21.9327 24.7069 22.0345C24.7596 22.06 24.7859 22.1364 24.7333 22.2383C24.5225 22.2383 24.4435 22.4931 24.2327 22.7733C24.4171 22.6204 24.5488 22.8497 24.7596 22.6968C24.6542 22.977 24.5225 23.028 24.3644 23.0534C24.2064 23.0789 24.0483 23.0789 23.8902 23.2318C23.7585 23.512 24.18 23.1553 24.2854 23.1553C23.9693 23.3591 23.7849 23.6903 23.5741 23.9959C23.3633 24.2761 23.1262 24.5054 22.7838 24.4544L22.9418 24.1488C22.652 24.2507 22.5203 24.3271 22.573 24.3525C22.652 24.2761 22.6784 24.3016 22.7311 24.3271C22.5993 24.5054 22.4149 24.6073 22.2569 24.6837C22.0988 24.7601 21.9144 24.8111 21.73 24.862C21.3875 24.9384 21.0187 24.9639 20.6235 25.1931C20.7289 25.2441 20.8342 25.2186 20.8869 25.2696C20.7289 25.3969 20.5708 25.3205 20.4127 25.2696C20.2547 25.2186 20.0703 25.1931 19.8068 25.3714L19.9649 25.4224C19.7805 25.5498 19.5697 25.4733 19.596 25.4224C19.6487 25.6007 19.3063 25.6771 18.9111 25.8045C18.8057 25.83 18.7267 25.8554 18.6213 25.8809C18.5159 25.9064 18.4105 25.9318 18.3315 25.9573C18.1471 26.0337 17.989 26.1102 17.8836 26.263C17.6992 26.1866 17.3831 26.1102 17.067 26.0592C16.7508 26.0337 16.461 26.0337 16.303 26.0592C15.8814 26.263 16.6718 26.3394 16.5137 26.5432C16.1712 26.5177 16.0132 26.3139 15.5126 26.3649C15.539 26.1611 16.4874 25.9828 15.618 25.8045L15.4863 25.9064C15.5917 25.9064 15.697 25.8554 15.8288 25.8809C16.0659 26.0083 15.6707 26.0083 15.5917 26.0847C15.4336 26.0847 15.2755 26.0337 15.1175 26.0083L14.6432 25.9064C14.6169 25.6771 15.1701 25.8045 15.2228 25.7535C15.0384 25.7281 14.854 25.7281 14.6432 25.7535C14.5379 25.7535 14.4325 25.7535 14.3271 25.7535L14.011 25.7026C13.8002 25.6771 13.5895 25.6771 13.405 25.6262C13.2206 25.6007 13.0362 25.4988 12.8782 25.4224L12.9045 25.5243C12.1405 25.0403 12.2195 25.7535 11.719 25.0913C11.3502 24.9894 11.7453 25.3714 11.1921 25.1422C11.034 25.0658 11.1658 25.0403 11.2184 25.0148C10.6389 24.5818 10.8233 25.0403 10.3754 24.5309V24.8365C10.2173 24.7092 10.0856 24.5309 9.98024 24.378C9.84852 24.2252 9.74314 24.0469 9.61142 23.894C9.40066 23.5629 9.1899 23.2572 8.90011 23.0789C8.79473 23.2318 9.11087 23.4865 9.13721 23.7157C9.03183 23.4865 8.84742 23.3082 8.68935 23.1044C8.53128 22.9006 8.34687 22.6968 8.16246 22.5185C7.97805 22.3147 7.81998 22.111 7.66191 21.9072C7.58288 21.8053 7.50384 21.7034 7.45115 21.6015C7.39846 21.4996 7.34577 21.3977 7.31943 21.2958C7.58288 21.4232 7.45115 20.7864 7.81998 21.143C7.66191 21.3977 7.9517 21.4996 8.10977 21.7289C8.16246 21.5506 8.08342 21.3977 7.97805 21.2449C7.87267 21.0666 7.74094 20.9138 7.58288 20.7609C7.50384 20.6845 7.45115 20.6081 7.37212 20.5317C7.31943 20.4553 7.26674 20.3788 7.2404 20.3024C7.16136 20.1751 7.16136 20.0477 7.2404 19.9713L7.00329 19.9458C6.97695 19.8184 6.97695 19.4873 7.13502 19.6656C6.97695 19.4363 6.84522 19.1562 6.7135 18.9014C6.68716 19.0543 6.66081 19.3345 6.68716 19.5637C6.68716 19.8184 6.79254 19.9967 6.92426 20.0477C6.84523 20.3534 6.63447 19.7675 6.52909 20.0732C6.52909 19.742 6.4764 19.6656 6.39737 19.5892C6.29199 19.5128 6.18661 19.4618 6.10757 19.1562C6.29199 19.258 6.31833 19.0797 6.34468 18.876C6.34468 18.6722 6.37102 18.4429 6.42371 18.4429C6.31833 18.2646 6.31833 17.8061 6.39737 17.6278C6.37102 17.4495 6.26564 17.1948 6.18661 16.8891C6.10757 16.5834 6.08123 16.2523 6.10757 15.9721C6.02854 16.1759 5.92316 16.5325 5.76509 16.5325C5.84413 16.2523 5.84413 15.9466 5.63337 15.8957C5.4753 16.4051 5.60703 16.4815 5.73875 16.558C5.81778 16.5834 5.87047 16.6089 5.92316 16.6853C5.94951 16.7617 5.97585 16.8891 5.97585 17.1184C5.87047 17.2457 5.81778 17.3731 5.79144 17.5259C5.76509 17.6787 5.73875 17.8825 5.79144 18.1118C5.60703 17.9335 5.58068 18.0354 5.39627 17.9844C5.60703 17.6278 5.55434 17.2712 5.4753 16.8636C5.44896 16.4561 5.34358 16.023 5.4753 15.6409C5.63337 15.3098 5.94951 15.5645 6.02854 14.8768L6.08123 15.4117C5.97585 14.7494 6.2393 15.2589 6.31833 14.7239L6.13392 14.9277C6.10757 14.5966 6.18661 14.4692 6.31833 14.3164L6.02854 14.5711C6.02854 14.3928 6.05488 14.0616 6.18661 14.0616C6.13392 14.0107 6.08123 13.9852 6.05488 13.9852C6.10757 13.9598 6.16026 13.8833 6.16026 13.6541C6.10757 13.7814 6.10757 13.8579 6.02854 13.8579C6.08123 13.6541 6.10757 13.5522 6.10757 13.4758C6.10757 13.3994 6.08123 13.3994 6.02854 13.3739C5.94951 13.3484 5.87047 13.3739 5.94951 13.1192C5.87047 13.1956 5.84413 13.0173 5.87047 12.839C6.05488 12.8899 6.21295 12.6861 6.42371 12.4569C6.60812 12.2276 6.79254 11.9474 6.92426 11.871C7.05598 11.6927 7.21405 11.5144 7.37212 11.3361C7.29308 11.438 7.2404 11.2597 7.29308 11.0814V11.1068C7.31943 11.0049 7.18771 11.0049 7.10867 10.9795C7.05598 10.954 7.02964 10.9285 7.05598 10.8776C7.05598 10.8266 7.10867 10.7502 7.21405 10.6229L7.50384 10.3936C7.45115 10.4445 7.45115 10.3681 7.42481 10.3172L7.7146 10.0625C7.7146 9.73132 7.92536 9.57848 8.13611 9.40018C8.34687 9.22187 8.63666 9.0945 8.76839 8.81431C8.66301 8.96714 8.45225 9.14545 8.45225 8.99261C8.50494 8.86525 8.66301 8.76336 8.76839 8.73789H8.7157C9.03183 8.48316 9.427 8.27938 9.76948 8.0756C9.61142 8.05013 9.08452 8.48316 9.21625 8.17749C9.24259 7.92277 9.61142 7.82088 9.79583 7.69352C9.82217 7.79541 9.58507 8.10108 9.92755 7.8973C9.92755 7.82088 10.191 7.51521 9.98024 7.56615C10.191 7.48974 10.4281 7.36237 10.6389 7.26048C10.876 7.18407 11.1394 7.10765 11.3238 7.08218C11.4029 6.98029 11.2184 7.03123 11.1658 7.0567V7.10765C10.9286 7.18407 10.9813 6.90387 10.6125 7.23501C10.5071 7.10765 10.6389 7.00576 10.8496 6.8784C10.955 6.82745 11.0867 6.77651 11.1921 6.70009C11.2448 6.67462 11.3238 6.64914 11.3765 6.5982C11.4292 6.57273 11.4819 6.54725 11.5346 6.52178L11.3765 6.57273L11.1921 6.62367L10.8233 6.70009C10.9286 6.57273 11.034 6.44536 11.1658 6.34347C11.2975 6.24158 11.4555 6.16516 11.5873 6.06327C11.7453 5.98686 11.9034 5.91044 12.0878 5.85949C12.2459 5.78308 12.4303 5.7576 12.6147 5.70666C12.7991 5.65571 12.9572 5.63024 13.1416 5.5793C13.326 5.52835 13.4841 5.52835 13.6685 5.50288C14.011 5.45193 14.3271 5.40099 14.6432 5.37552C14.3008 5.52835 14.011 5.50288 14.1164 5.7576C14.4852 5.73213 14.6432 5.73213 14.8013 5.70666C14.9594 5.68119 15.1175 5.65571 15.4599 5.63024C15.4336 5.63024 15.4072 5.63024 15.4072 5.63024C15.7761 5.47741 16.2766 5.70666 16.5401 5.45193C16.382 5.32457 16.0132 5.60477 15.9868 5.32457H16.461C16.6191 5.32457 16.7772 5.35004 16.9352 5.35004C16.6454 5.14626 16.0132 5.35004 15.6443 5.2991C15.3809 5.32457 16.1712 5.32457 16.0395 5.50288C15.8288 5.50288 15.6443 5.50288 15.5126 5.47741C15.3546 5.45193 15.2492 5.45193 15.1438 5.42646C14.933 5.37552 14.7486 5.2991 14.5115 5.19721C14.1954 5.04437 14.854 4.94248 15.0384 4.91701C15.1965 4.96796 15.3546 4.99343 15.539 5.04437C15.7234 5.09532 15.9078 5.12079 16.0922 5.14626C16.2766 5.17174 16.4874 5.14626 16.6981 5.17174C16.9089 5.17174 17.1196 5.17174 17.3304 5.14626C17.4358 5.09532 17.5939 5.0189 17.7783 4.96796C18.1998 5.22268 17.9363 5.5793 18.7003 5.65571C18.6476 5.5793 18.5686 5.52835 18.5159 5.45193C18.7003 5.40099 18.8057 5.42646 18.8847 5.45193C18.7267 5.35004 18.5686 5.27363 18.4105 5.17174C18.2525 5.06985 18.0944 4.99343 17.9363 4.91701C18.1734 4.78965 18.5159 4.86607 18.8584 5.0189C19.1745 5.19721 19.517 5.42646 19.8068 5.52835C19.8068 5.50288 19.5697 5.45193 19.5434 5.35004C19.7805 5.37552 20.0176 5.47741 20.2547 5.5793C20.4654 5.68119 20.7025 5.80855 20.8869 5.93591C21.2558 6.21611 21.6246 6.49631 21.9144 6.72556C22.0988 6.75103 21.9671 6.64914 21.8353 6.52178C21.7036 6.39442 21.5456 6.29253 21.6773 6.21611C21.9934 6.47083 22.4676 6.54725 22.4676 6.77651C22.4676 6.62367 22.6784 6.72556 22.8101 6.80198C22.9418 6.90387 23.0209 6.92934 22.7574 6.5982C23.0735 6.77651 23.3897 7.00576 23.6795 7.23501C23.9693 7.48974 24.2327 7.76993 24.4962 8.05013C24.7333 8.3558 24.9704 8.66147 25.1548 8.96714C25.2602 9.11998 25.3392 9.29829 25.4446 9.45112C25.5236 9.60396 25.629 9.75679 25.708 9.9351C25.7344 9.83321 25.8134 9.78226 25.8924 9.80774C25.7607 9.60396 25.5763 9.34923 25.4446 9.11998C25.3655 8.99261 25.3128 8.86525 25.2865 8.76336C25.2338 8.66147 25.2075 8.55958 25.1811 8.48316C25.2602 8.50864 25.3392 8.58505 25.3919 8.66147C25.4446 8.73789 25.4709 8.83978 25.4973 8.9162C25.5499 9.0945 25.5763 9.22187 25.6553 9.24734C25.6026 9.06903 25.4182 8.81431 25.5236 8.71242C25.9188 8.96714 25.8924 9.29829 26.0505 9.55301L25.8661 9.40018C25.9715 9.60396 25.9978 9.78226 25.9978 9.88415C25.9978 10.0115 25.9978 10.0879 25.9978 10.1644C25.9978 10.2408 25.9978 10.3172 26.0241 10.4191C26.0768 10.521 26.1559 10.6483 26.2612 10.8521C26.5774 11.0814 26.393 10.7757 26.5774 10.6738C26.5774 10.8012 26.7355 11.0049 26.8672 11.2087C26.9989 11.4125 27.0779 11.6672 27.0252 11.8201C26.9462 11.6418 26.8935 11.4634 26.7881 11.2851C26.8672 11.4889 26.8935 11.6672 26.9462 11.8455C26.9989 12.0238 27.0252 12.1767 27.0516 12.3295C27.0779 12.2786 27.1306 12.2531 27.1043 12.1512C27.157 12.4824 27.2623 12.8899 27.1833 13.0682L27.4468 13.0937C27.2887 12.9409 27.1306 12.3805 27.2097 12.2531C27.4468 12.2276 27.4731 12.8644 27.5521 13.0937C27.4995 12.8135 27.4731 12.5842 27.4731 12.4059C27.4468 12.2276 27.4468 12.0748 27.4468 11.922C27.4468 11.7691 27.4204 11.6418 27.3677 11.4889C27.3414 11.4125 27.315 11.3361 27.2623 11.2342C27.2097 11.1578 27.157 11.0559 27.0779 10.954V11.1323C26.8672 10.8776 26.7355 10.5974 26.6564 10.2917C26.551 10.0115 26.4457 9.70585 26.2876 9.47659C26.4193 9.57848 26.4984 9.55301 26.4984 9.47659C26.3139 9.22187 26.0768 9.01809 25.8924 8.76336C25.787 8.636 25.708 8.53411 25.6026 8.40675C25.4973 8.27938 25.3919 8.17749 25.2865 8.0756C24.865 7.59163 24.3644 7.15859 23.7849 6.77651L23.5741 6.34347L23.4424 6.47083C22.8364 6.19064 23.4951 6.24158 23.0999 6.01233C23.258 6.08875 23.2053 6.11422 23.2053 6.16516C22.5993 5.5793 22.7311 6.06327 22.3622 5.78308C22.4413 6.06327 23.0735 6.29253 22.7574 6.39442C22.2042 5.78308 21.0187 5.37552 21.0714 4.96796C20.7025 4.89154 20.3074 4.7387 19.9122 4.63681C19.7014 4.58587 19.517 4.53492 19.3063 4.48398C19.0955 4.43303 18.9111 4.35662 18.7003 4.33114C18.4896 4.2802 18.3052 4.25473 18.0944 4.20378C17.8836 4.15284 17.6992 4.10189 17.5148 4.10189C17.1196 4.05095 16.7772 4 16.4347 4C16.2503 4.07642 16.5401 4.05095 16.4874 4.10189C16.2239 4 15.8024 4.05095 15.4336 4.12736C15.2492 4.15284 15.0911 4.20378 14.9594 4.22925C14.854 4.20378 14.775 4.20378 14.7486 4.15284C14.5115 4.25473 14.4325 4.40756 14.3798 4.48398C14.0373 4.40756 13.6422 4.48398 13.247 4.5604L13.5631 4.53492L13.5368 4.5604L13.0889 4.58587V4.5604C12.0615 4.78965 10.9813 5.2991 10.0593 5.60477C10.6125 5.45193 10.0856 5.88497 10.3491 5.83402C10.0593 5.80855 9.63776 5.93591 9.24259 6.19064C9.03183 6.318 8.82108 6.44536 8.63666 6.5982C8.45225 6.75103 8.26784 6.92934 8.10977 7.08218C8.16246 7.13312 8.16246 7.20954 8.26784 7.18407C8.10977 7.26048 7.92536 7.3369 7.76729 7.43879H7.87267C7.7146 7.6171 7.55653 7.79541 7.37212 7.94824C7.29308 8.02466 7.18771 8.10108 7.08233 8.17749C7.00329 8.25391 6.89791 8.33033 6.81888 8.43222C6.4764 8.76336 6.16026 9.06903 6.08123 9.3747C6.31833 9.06903 6.39737 9.0945 6.50274 9.14545C6.31833 9.42565 6.13392 9.70585 5.94951 9.98604C5.84413 10.1134 5.76509 10.2917 5.65971 10.4445C5.55434 10.5974 5.44896 10.7502 5.34358 10.9285C5.36992 10.9031 5.42261 10.8776 5.44896 10.9031C5.42261 11.0049 5.34358 11.1068 5.29089 11.1833C5.2382 11.2851 5.15917 11.387 5.10648 11.4634L5.29089 11.5908C5.18551 11.7691 5.10648 11.9729 5.0011 12.2022C4.92206 12.4314 4.84303 12.6607 4.71131 12.8899C4.73765 12.9409 4.73765 13.0427 4.68496 13.1701C4.63227 13.2975 4.57958 13.4248 4.52689 13.6031C4.42151 13.9343 4.28979 14.2909 4.28979 14.5711C4.26345 14.7494 4.57958 14.1126 4.52689 14.6985C4.13172 14.7494 4.4742 15.4626 4.05269 15.4881C4.07903 15.6664 4.15807 15.8447 4.21076 16.023L4 16.1504C4.42151 16.5834 3.84193 16.8636 4.07903 17.5259C4.10538 17.475 4.13172 17.3985 4.15807 17.4495C4.15807 17.6787 4.21076 18.1882 4.02634 17.8061C4.02634 17.908 4.05269 18.0354 4.07903 18.1882C4.10538 18.341 4.15807 18.5193 4.18441 18.6467C4.26345 18.9269 4.34248 19.0797 4.36883 18.7741C4.26345 18.8505 4.2371 18.3156 4.21076 18.1118C4.39517 18.1118 4.44786 18.6467 4.68496 18.7231C4.65862 18.7486 4.65862 18.825 4.63227 18.876L4.79034 18.9269C4.764 19.2835 4.89572 19.5892 4.97475 19.8949C5.02744 20.0477 5.05379 20.2005 5.08013 20.3279C5.10648 20.4807 5.13282 20.6081 5.13282 20.7355C5.18551 20.7355 5.29089 20.8373 5.36992 21.0411L5.18551 21.143L5.34358 21.4742C5.39627 21.576 5.4753 21.6779 5.52799 21.7798C5.55434 21.627 5.60703 21.4742 5.63337 21.3468C5.87047 21.6779 5.97585 21.9836 6.08123 22.3147C6.18661 22.6204 6.29199 22.9261 6.4764 23.2063C6.68716 23.1553 6.84522 23.4355 7.08233 23.7412C7.31943 24.0469 7.55653 24.378 7.89901 24.4544C7.79363 24.3271 7.68825 24.1742 7.60922 24.0214C8.37322 24.8111 8.63666 24.7601 9.37431 25.4479C8.97914 25.2441 8.79473 25.1167 8.55763 24.9894C8.32053 24.8365 8.05708 24.6837 7.4775 24.3525C8.00439 24.7346 8.37322 25.1422 8.82108 25.4988C9.03183 25.6771 9.24259 25.8554 9.47969 26.0083C9.71679 26.1611 9.98024 26.2885 10.27 26.3904C10.2437 26.263 10.0066 26.0847 10.3227 26.1356C10.4018 26.4413 11.3238 26.6196 11.0604 26.747C11.4292 26.8234 11.5609 26.696 11.798 26.747C12.1405 26.9507 12.5093 27.2055 12.8782 27.4093L12.8518 27.3583C13.1153 27.3583 13.3787 27.3838 13.6422 27.4093C13.7739 27.4347 13.9056 27.4602 14.011 27.4857C14.1427 27.5111 14.2481 27.5111 14.3798 27.5366C14.6169 27.5876 14.854 27.613 15.1175 27.6894C15.3546 27.7404 15.5917 27.7659 15.8551 27.8168C16.0922 27.8678 16.3557 27.9187 16.5928 27.9442C16.8299 27.9696 17.0933 27.9696 17.3568 27.9951C17.8573 28.0206 18.3842 27.9442 18.9111 27.8168L18.8584 27.7149C18.9638 27.7404 19.0428 27.7404 19.1482 27.7659L19.438 27.7913C19.0165 27.7913 19.5697 27.613 19.596 27.5111L20.281 27.4602C20.5181 27.4347 20.7289 27.3838 20.966 27.3583C20.8606 27.18 20.7025 27.0017 20.4127 27.1545ZM5.44896 21.0666L5.31723 20.7864C5.29089 20.7354 5.2382 20.6845 5.2382 20.6081L5.31723 20.7864C5.42261 20.9138 5.55434 20.9902 5.44896 21.0666ZM20.3337 4.78965C20.4391 4.94248 20.1229 4.7387 20.0176 4.7387L20.4654 4.91701C20.5708 4.89154 20.3864 4.84059 20.3337 4.78965ZM6.73985 20.4298L6.9506 20.5062L6.92426 20.7355L6.73985 20.4298ZM9.11087 23.461L8.87376 23.1553H8.92645L9.16356 23.461H9.11087ZM12.4566 26.747C12.4303 26.7215 12.404 26.7215 12.3776 26.696C12.4303 26.7215 12.4566 26.7215 12.4566 26.747C12.7464 26.9507 12.9572 26.747 13.1416 27.0526C12.7464 27.2055 12.6147 26.8998 12.4566 26.747ZM6.45005 22.2638C6.39737 22.1364 6.37102 22.06 6.29199 21.9836C6.26564 22.0855 6.29199 22.4166 6.16026 22.2383C6.16026 22.06 5.92316 21.627 6.05488 21.5506C6.16026 21.9836 6.66081 22.0345 6.45005 22.2638ZM4.89572 12.6861V12.788L5.10648 12.4569L4.89572 12.6861ZM5.65971 11.0559C5.79144 11.0049 5.92316 10.8521 6.02854 10.6738C6.13392 10.4955 6.2393 10.2917 6.37102 10.1389C6.31833 10.0625 6.21295 10.0625 6.08123 10.1644C5.94951 10.2408 5.81778 10.4191 5.73875 10.6229C5.34358 11.0304 5.87047 10.9031 5.65971 11.0559ZM8.87376 24.4544V24.2761L8.9528 24.3271L8.68935 23.9959C9.1899 24.2252 9.29528 24.6837 9.50604 24.9129C9.40066 24.8365 9.26894 24.6327 9.16356 24.5054C9.05818 24.378 8.9528 24.3016 8.87376 24.4544ZM7.89901 7.97371C8.24149 7.74446 8.87376 7.43879 8.90011 7.56615C8.74204 7.36237 8.24149 7.64257 8.13611 7.76993C8.08342 7.84635 8.00439 7.87182 7.89901 7.97371ZM8.24149 8.27938C7.79363 8.58505 7.66191 8.53411 7.21405 8.73789C7.26674 8.61053 7.34577 8.53411 7.42481 8.45769C7.50384 8.40675 7.58288 8.38127 7.63557 8.3558C7.76729 8.33033 7.87267 8.40675 7.89901 8.45769C8.24149 8.25391 8.05708 8.20297 8.1888 8.05013L8.24149 8.27938ZM7.31943 8.25391C7.26674 8.30486 7.2404 8.38127 7.18771 8.45769C7.10867 8.73789 7.29308 8.94167 6.84522 9.06903L7.18771 8.45769C7.21405 8.38127 7.2404 8.30486 7.31943 8.25391ZM11.0867 5.37552L10.8233 5.40099C11.0604 5.2991 11.0867 5.32457 11.0867 5.37552L11.2975 5.35004C10.876 5.65571 11.0867 5.47741 11.0867 5.37552ZM8.16246 7.48974C7.97805 7.64257 7.84632 7.79541 7.68825 7.94824C7.79363 7.99919 8.00439 7.64257 8.16246 7.48974ZM11.0604 5.63024C10.9286 5.68119 10.7179 5.83402 10.5598 5.93591C10.4018 6.0378 10.2437 6.13969 10.2964 6.08875C10.2964 6.01233 10.4281 5.91044 10.6125 5.80855C10.6915 5.7576 10.7969 5.70666 10.876 5.68119C10.9286 5.65571 11.0077 5.63024 11.0604 5.63024ZM24.4698 7.82088L24.18 7.54068H24.4435L24.4698 7.82088ZM20.3864 5.50288L20.5181 5.45193L20.7289 5.55382L20.3864 5.50288ZM16.1186 4.84059C16.1449 4.78965 16.1186 4.76418 16.0922 4.71323C16.0132 4.71323 15.9605 4.68776 15.9341 4.63681C15.9868 4.63681 16.0659 4.66229 16.0922 4.71323C16.2766 4.7387 16.5401 4.71323 16.6454 4.66229C16.5664 4.5604 16.303 4.58587 16.1976 4.53492C16.303 4.48398 16.4347 4.45851 16.5664 4.48398C16.6981 4.50945 16.8562 4.5604 16.9616 4.58587C17.1987 4.66229 17.3567 4.66229 17.2514 4.35662C17.3304 4.40756 17.5148 4.45851 17.6729 4.53492C17.8046 4.61134 17.8836 4.68776 17.7783 4.7387C17.5675 4.71323 17.225 4.71323 16.9089 4.71323C16.7508 4.71323 16.5928 4.71323 16.461 4.7387C16.3293 4.78965 16.1976 4.81512 16.1186 4.84059C16.0922 4.86607 16.0659 4.89154 15.9868 4.91701C16.0132 4.89154 16.0395 4.86607 16.1186 4.84059ZM10.6389 6.57273C10.4808 6.64914 10.4281 6.67462 10.3754 6.67462C10.2173 6.70009 10.112 6.72556 10.0856 6.62367C10.4281 6.49631 10.27 6.67462 10.3754 6.67462C10.4544 6.64914 10.5598 6.62367 10.6389 6.57273ZM9.79583 7.18407L10.2964 6.98029L10.0066 7.00576C10.1383 6.95481 10.27 6.90387 10.4018 6.8784L10.7969 6.77651C10.4808 7.08218 9.9539 7.26048 9.79583 7.18407ZM9.71679 7.36237L9.53238 7.31143L9.76948 7.3369L9.71679 7.36237H9.76948C9.50604 7.48974 9.26894 7.69352 9.03183 7.84635C9.26894 7.69352 9.47969 7.51521 9.71679 7.36237ZM5.26454 14.8258C5.50165 15.0041 5.60703 14.8258 5.68606 14.5711C5.79144 14.3418 5.84413 14.0362 5.97585 13.9598C5.81778 13.9088 5.60703 13.5267 5.4753 14.3673C5.42261 13.6031 5.87047 13.9852 5.52799 13.4758C5.50165 13.8324 5.31723 14.24 5.29089 14.2909L5.34358 13.8833C5.15917 13.9852 5.18551 14.1381 5.21186 14.3164C5.2382 14.3928 5.26454 14.4947 5.26454 14.5711C5.29089 14.673 5.29089 14.7749 5.26454 14.8258ZM5.92316 19.258L6.10757 19.7675L5.94951 19.258H5.92316ZM16.6191 26.3904C16.5928 26.2885 17.2777 26.0337 17.4621 26.2375C17.0933 26.3139 16.7245 26.3139 16.6191 26.3904ZM22.2569 24.862C22.0461 24.9384 21.8617 25.0148 21.6773 25.0913C21.6509 24.8111 22.1515 24.8365 22.3886 24.6327C22.5467 24.6837 22.3095 24.7346 22.2569 24.862ZM25.2865 22.2129L25.4446 22.0855H25.1021L25.2865 22.2129ZM24.865 22.2129C24.865 22.1364 24.7859 22.1619 24.7069 22.2129C24.6279 22.2638 24.5225 22.3402 24.4962 22.3912C24.6015 22.3402 24.7333 22.2893 24.865 22.2129ZM26.3666 19.1307L26.2876 19.3599L26.5774 19.2326L26.3666 19.1307ZM26.4984 19.5892C26.3139 19.5892 26.1295 19.4873 25.9978 20.0222C26.1559 20.1241 26.2086 19.9713 26.3139 20.2515C26.4457 20.0986 26.4457 19.9203 26.472 19.8439C26.393 19.9458 26.393 20.1241 26.2612 20.0986C26.2612 19.8949 26.393 19.7165 26.4984 19.5892C26.551 19.5892 26.6301 19.5892 26.6828 19.5128C26.6037 19.5128 26.551 19.5382 26.4984 19.5892ZM25.6553 21.5251C25.629 21.6015 25.629 21.6779 25.629 21.7034H25.5763C25.5499 21.6015 25.6026 21.5506 25.6553 21.5251C25.6817 21.4487 25.708 21.3468 25.7607 21.2449C25.6553 21.1175 25.3655 21.3977 25.2338 21.4232C25.3655 21.2958 25.5763 21.2194 25.629 20.9902C25.5763 20.9902 25.5763 20.9647 25.4709 21.0921L25.629 20.7864C26.0241 20.5571 25.8924 20.8883 25.7344 21.2449C25.7607 21.2704 25.7607 21.3213 25.7607 21.3977C25.787 21.4487 25.708 21.4996 25.6553 21.5251ZM27.236 19.1307L27.1306 19.309C27.0516 19.3854 26.9989 19.309 26.9462 19.3345C27.0252 19.1052 27.236 18.876 27.236 19.1307ZM18.5423 26.5177C18.674 26.4668 18.3315 26.3394 18.0417 26.4158L18.1734 26.1866C18.1998 26.3139 18.7794 26.2375 18.8584 26.212C18.9901 26.3649 18.753 26.3649 18.5423 26.5177ZM6.58178 21.0666C6.76619 20.8628 6.29199 20.2515 6.29199 20.0732C6.39737 20.226 6.58178 20.5062 6.66081 20.71C6.73985 20.9392 6.79254 21.0921 6.58178 21.0666ZM5.89682 19.9458C5.81778 19.742 5.79144 19.7165 5.92316 19.6656C5.94951 19.5637 5.81778 19.4363 5.84413 19.309C6.08123 19.6656 5.87047 19.7165 5.89682 19.9458C5.92316 19.9967 5.92316 20.0477 5.97585 20.1241C5.89682 20.0477 5.89682 19.9967 5.89682 19.9458ZM11.4819 25.7026L11.64 26.0083C11.7717 26.0592 11.9034 26.1356 12.0615 26.1611C11.8507 26.0337 11.6663 25.8554 11.4819 25.7026ZM16.0659 27.18C16.0395 27.0526 16.5401 27.1036 16.6718 27.1291C16.6454 27.0526 16.5664 27.0272 16.4347 27.0017C16.303 26.9762 16.1449 26.9762 16.0132 26.9507C15.9868 26.9253 15.9341 26.9253 15.8288 26.9253C15.8814 26.9507 15.9341 26.9507 16.0132 26.9507C16.1186 27.0017 16.0395 27.0526 16.0395 27.1291L15.9078 27.1545L16.303 27.2055L16.0659 27.18ZM24.18 24.6582C24.3381 24.3525 24.3908 24.378 24.5752 24.2507C24.5752 24.3525 24.3908 24.5563 24.18 24.6582ZM13.4314 26.9253C13.9583 26.9762 13.247 26.6451 13.5895 26.6451L13.326 26.5941C13.8002 26.5432 13.5895 26.8489 13.9056 26.8743L13.6948 26.8489C13.4841 26.9507 13.9846 27.0272 14.011 27.1545C13.7739 27.1545 13.2206 26.8998 13.4314 26.9253ZM24.6279 24.4035C24.9177 23.945 25.0757 24.2507 25.3128 24.0214C25.1284 24.429 24.944 24.1742 24.6279 24.4035ZM16.8035 27.7404L16.7772 27.7659L17.225 27.8168L17.2514 27.7913L16.8035 27.7404Z" fill="white"/>
<path d="M23.9956 22.901C24.0483 22.7991 24.101 22.7481 24.1537 22.7227C24.1273 22.7736 24.0746 22.8245 23.9956 22.901Z" fill="white"/>
<path d="M6.50272 18.5198C6.45003 18.5198 6.42368 18.4943 6.39734 18.4434C6.42368 18.4434 6.45003 18.4688 6.50272 18.5198Z" fill="white"/>
<path d="M26.7618 12.4063C26.6564 12.661 26.6564 12.2534 26.6038 12.1006C26.6564 12.2534 26.8145 12.2534 26.7618 12.4063Z" fill="white"/>
<path d="M26.5774 11.1582C26.5774 11.2601 26.6037 11.4129 26.6564 11.5658C26.6037 11.4639 26.5774 11.3365 26.5774 11.1582Z" fill="white"/>
<path d="M26.8936 12.1259C26.7619 11.9221 26.6828 11.7183 26.6301 11.54C26.7092 11.6929 26.8409 11.7948 26.8936 12.1259Z" fill="white"/>
<path d="M24.5752 8.38086C24.6279 8.61011 24.944 8.83936 24.944 8.83936C24.2854 8.30444 24.8913 9.09409 24.865 9.22145C24.5489 8.81389 24.6279 8.712 24.5752 8.38086Z" fill="white"/>
<path d="M23.7848 7.56641C23.8638 7.61735 23.9165 7.6683 23.9692 7.69377C23.8902 7.69377 23.8375 7.64282 23.7848 7.56641Z" fill="white"/>
<path d="M23.4688 7.46453C23.258 7.26075 23.258 7.10791 23.2053 6.95508C23.5478 7.10791 23.6268 7.38811 23.7849 7.59189C23.7059 7.51547 23.6268 7.46453 23.5741 7.41358C23.5215 7.38811 23.4688 7.38811 23.4688 7.46453Z" fill="white"/>
<path d="M15.0647 5.78337C15.1174 5.78337 15.2755 5.7579 15.3018 5.83432L14.854 5.91074C14.6432 5.88526 14.9594 5.80885 15.0647 5.78337Z" fill="white"/>
<path d="M13.2734 5.80859C12.9045 5.93596 13.168 6.03785 12.9572 6.06332L12.9045 5.83407L13.2734 5.80859Z" fill="white"/>
<path d="M11.6927 6.7002L12.0615 6.82756C11.7454 6.90398 11.6137 6.72567 11.6927 6.7002Z" fill="white"/>
<path d="M10.5599 7.56657C10.6389 7.5411 10.7179 7.51562 10.7706 7.51562L10.191 7.84677L10.5599 7.56657Z" fill="white"/>
<path d="M9.16362 8.50879V8.58521C9.0319 8.6871 8.92652 8.78899 8.7948 8.8654C8.92652 8.76351 9.0319 8.63615 9.16362 8.50879Z" fill="white"/>
<path d="M10.6915 24.378C10.6652 24.4799 10.4808 24.4545 10.2963 24.3271C10.1119 24.2252 9.92752 24.0724 9.82214 24.0214C9.98021 23.945 10.0856 24.0469 10.2173 24.1743C10.3227 24.3016 10.4808 24.429 10.6915 24.378Z" fill="white"/>
<path d="M23.6004 23.4102L23.3106 23.6394C23.2053 23.7158 23.0999 23.7668 22.9945 23.8432C23.3897 23.4102 23.1262 23.7413 23.6004 23.4102Z" fill="white"/>
</svg>
