<svg width="24" height="24" viewBox="0 0 24 24" fill="none" xmlns="http://www.w3.org/2000/svg">
<path d="M10.9533 17.9133C10.7978 17.8204 10.6422 17.7584 10.4555 17.6964C10.1132 16.9527 9.36636 17.1386 8.86848 16.4879C8.3706 15.9921 7.90384 15.7442 7.49932 15.1554C6.90809 15.4343 6.62803 14.1329 5.97457 14.0709C5.66339 13.885 5.38334 13.9159 5.47669 14.1948C5.1344 13.885 5.41446 13.761 5.04105 13.5751L5.28999 13.5131C5.22775 13.3892 5.19663 13.2032 5.07216 13.1103H4.79211C4.69876 12.8624 4.54317 12.7384 4.4187 12.7074C4.29423 12.6455 4.10753 12.5835 4.07641 12.4286C4.07641 12.6455 3.85859 12.3976 3.67188 12.4286C3.73412 12.3666 3.60965 12.2116 3.73412 12.2426C3.703 12.2116 3.703 12.1807 3.67188 12.1497C3.76524 12.0567 3.76524 11.9328 3.82747 11.8398C3.8897 11.7468 3.98306 11.6539 4.16976 11.6539C4.16976 11.6229 4.16976 11.5609 4.16976 11.5299C4.232 11.282 4.51205 11.251 4.69876 11.0961L4.63652 11.0031C4.69876 10.8482 4.91658 10.6313 5.10328 10.6003C5.44557 10.3524 5.66339 9.76364 5.88122 9.36081C6.28574 9.1439 5.91233 9.01995 6.13015 8.67909C6.34798 8.55514 6.5658 8.12132 6.78362 8.12132C6.53468 8.36921 6.7525 8.6481 6.44133 8.86501C6.62803 8.83402 6.06792 9.3918 6.44133 9.26785C6.7525 8.58613 7.56155 8.12132 7.84161 7.47058C8.02831 7.71848 8.55731 7.03676 8.74401 6.78886L8.80625 6.85083C9.02407 6.6959 9.14854 6.60294 9.36636 6.23109C9.67753 5.89023 9.98871 5.51838 10.3932 5.36344C10.9845 5.11554 11.2023 4.37185 11.2334 4.03099C10.5177 4.34086 10.3932 5.14653 9.64641 5.14653C10.0509 4.86765 9.98871 4.7437 10.1443 4.37185L9.92647 4.43382L9.95759 4.30987C9.83312 4.27889 9.89535 4.06197 9.802 4L9.36636 4.43382C9.67753 4.27889 9.6153 4.52678 9.6153 4.68172L9.36636 4.86765C9.45971 4.86765 9.6153 4.7437 9.52195 4.96061C9.42859 5.02258 9.33524 5.20851 9.17965 5.23949V4.89863C9.05519 5.30147 8.49507 5.14653 8.3706 5.54937L8.12166 5.4564L7.87273 5.7043L7.84161 5.61134L7.49932 5.89023C7.37485 6.07615 7.43708 6.2001 7.4682 6.29306C7.34373 6.41701 7.25038 6.57195 7.15703 6.57195L7.18814 6.32405L7.03256 6.41701C7.15703 6.35504 7.00144 6.60294 7.00144 6.66491C6.65915 6.9438 6.78362 6.88182 6.50356 6.97478C6.37909 7.25367 6.00568 7.34663 6.13015 7.50157C5.69451 7.78045 5.3211 8.1523 4.97881 8.49316L4.91658 8.74106C4.4187 9.05094 4.35646 9.36081 3.95194 9.79463V9.73266L3.82747 10.0735C3.64077 10.1975 3.54741 10.3214 3.45406 10.4764L3.42294 10.5383L3.36071 10.6313C3.29847 10.6933 3.26736 10.7552 3.20512 10.8172C3.08065 10.9412 2.95618 11.0651 2.73836 11.1891C2.11602 11.7158 1.92931 12.0567 2.02266 12.2426C2.14713 12.3046 2.2716 12.3356 2.39607 12.3666C2.61389 12.4905 2.73836 12.6455 2.86283 12.8004C2.9873 12.9553 3.08065 13.1413 3.20512 13.2652L2.9873 13.0793L3.11177 13.3582C3.32959 13.5441 3.42294 13.668 3.54741 13.792C3.60965 13.854 3.703 13.9469 3.92082 14.0709C4.29423 14.5977 4.51205 14.2258 4.82323 14.2878L5.07216 14.8766V14.8456C5.53892 14.8766 5.35222 14.9385 5.94345 15.5273L6.0368 15.3724C6.09904 15.7132 6.37909 15.5893 6.62803 15.8681C6.7525 15.9921 6.93921 16.5809 7.31261 16.6428C7.6549 17.2006 8.21502 17.0767 8.58843 17.4795C8.74401 17.7894 9.11742 17.7584 8.96183 18.0063L8.93072 17.9443L8.80625 18.2232L8.96183 18.0992C9.05519 18.2852 9.30412 18.4401 9.27301 18.719L9.86424 18.781C9.77088 18.719 9.67753 18.626 9.6153 18.5331L9.55306 18.564C9.45971 18.4711 9.24189 18.3161 9.17965 18.1612L9.33524 18.2232C9.24189 18.0683 9.42859 18.0992 9.45971 18.0992C9.64641 18.4401 9.73977 18.2232 9.95759 18.4091C9.98871 18.4711 10.0509 18.564 9.98871 18.595C10.1443 18.688 10.3621 19.1218 10.5177 18.9669C10.5177 18.9979 10.5177 18.9979 10.5177 18.9979C10.7666 18.719 10.8911 18.3471 10.9533 17.9133Z" fill="#242424"/>
<path d="M5.19665 13.0173C5.35224 12.9553 5.47671 12.8934 5.60118 12.8004C6.22352 13.0793 6.5347 12.4286 7.18816 12.5525C7.74827 12.5525 8.18392 12.3976 8.71291 12.5525C8.89961 11.9328 9.7709 12.6455 10.2065 12.2426C10.4866 12.1807 10.6422 11.9328 10.4244 11.8088C10.7978 11.7778 10.7044 12.0567 11.0156 11.9328L10.9222 12.1497C11.0156 12.2117 11.1401 12.3046 11.2645 12.2736L11.4201 12.0567C11.7935 12.3046 12.0113 11.8708 12.4159 12.0257C12.1358 11.8708 12.5403 11.9018 12.5092 11.7159C12.5715 11.8088 12.8204 11.8398 12.727 11.9018C13.0693 11.9638 13.3805 11.5919 13.5983 11.9018L13.7228 11.8088C13.9406 11.6849 14.1273 11.8398 14.314 11.9018L14.3451 11.7778C14.4696 11.7159 14.7186 11.7159 14.843 11.8398C15.1853 11.9018 15.621 11.6539 15.9944 11.4989C16.3367 11.6229 16.1811 11.282 16.5234 11.1891C16.7412 11.251 17.0835 11.0961 17.2079 11.251C16.9279 11.282 16.8968 11.5919 16.5856 11.5299C16.7101 11.6539 16.0877 11.6539 16.3367 11.8088C16.9279 11.5299 17.6125 11.7778 18.1415 11.5299C18.1103 11.8398 18.7949 11.7159 19.0439 11.6849V11.7778C19.2306 11.8088 19.3862 11.8398 19.6973 11.7468C20.0707 11.7159 20.4441 11.6849 20.7553 11.8398C21.2221 12.0567 21.7822 11.7159 22 11.4989C21.4088 11.2201 20.8798 11.6849 20.4441 11.1581C20.8487 11.251 20.8798 11.1271 21.191 10.9722L21.0354 10.9102L21.1598 10.8482C21.0976 10.7243 21.2532 10.6313 21.2532 10.5383H20.7864C21.0354 10.6313 20.8798 10.7552 20.7864 10.8792L20.5375 10.8172C20.5997 10.8792 20.7553 10.9102 20.5686 11.0031C20.4753 10.9722 20.3508 11.0341 20.2263 10.9722L20.413 10.7243C20.1019 10.9102 19.884 10.4454 19.5729 10.6313L19.4795 10.3834L19.1995 10.4144L19.2306 10.3214L18.8883 10.2904C18.7016 10.3214 18.6705 10.4454 18.6393 10.5383C18.4838 10.5383 18.3593 10.6003 18.2971 10.5383L18.4526 10.3834L18.2971 10.3214C18.3904 10.3834 18.1726 10.4144 18.1415 10.4764C17.7992 10.4454 17.8925 10.4764 17.6747 10.3214C17.4569 10.4144 17.1768 10.2285 17.1768 10.4454C16.7723 10.3214 16.3367 10.3214 15.9633 10.3214L15.8077 10.4454C15.3409 10.2904 15.1542 10.4764 14.6563 10.5073L14.6874 10.4454L14.4385 10.6003C14.0962 10.4764 13.9406 10.7862 13.5361 10.6003C13.1005 10.5073 12.8826 10.7243 12.7582 11.0031C12.5403 11.1271 12.2603 10.9412 12.0736 10.9412L12.1981 10.8482L12.0425 10.7552C11.7624 10.8172 11.7624 10.7243 11.389 10.8172C10.8911 10.6933 10.9534 11.1271 10.7667 11.282L10.2999 11.0341V11.0961C10.0198 11.406 10.0821 11.2201 9.42861 11.251L9.45973 11.437C9.2419 11.251 9.14855 11.5299 8.83738 11.4989C8.68179 11.4989 8.24615 11.2201 7.99721 11.437C7.49933 11.282 7.2504 11.7778 6.81475 11.7468C6.56581 11.6229 6.37911 11.9328 6.31687 11.6229H6.37911L6.28576 11.344V11.5609C6.13017 11.4989 5.91235 11.5609 5.75676 11.344L5.38335 11.7159C5.47671 11.6849 5.57006 11.7159 5.66341 11.7159V11.6539C5.75676 11.6539 6.0057 11.5919 6.09905 11.6849L5.97458 11.7468C6.13017 11.8088 6.0057 11.9018 5.94347 11.9328C5.63229 11.8398 5.72565 12.0257 5.47671 12.0877C5.41447 12.0567 5.32112 12.0257 5.35224 11.9638C5.22777 11.9947 4.85436 11.8398 4.85436 12.0567L4.82324 12.0257C4.85436 12.3356 5.00995 12.6765 5.19665 13.0173Z" fill="#242424"/>
</svg>
