<svg width="24" height="24" viewBox="0 0 24 24" fill="none" xmlns="http://www.w3.org/2000/svg">
<path d="M11.3902 21.2677C16.4753 21.2677 20.5976 17.2555 20.5976 12.3063C20.5976 7.35702 16.4753 3.34485 11.3902 3.34485C6.30518 3.34485 2.18292 7.35702 2.18292 12.3063C2.18292 17.2555 6.30518 21.2677 11.3902 21.2677Z" fill="#242424"/>
<path d="M2.67074 10.3383C2.7622 9.89318 2.91464 9.50742 3.0061 9.15134C3.12805 8.94362 3.25 8.73591 3.34147 8.55786C3.43293 8.37982 3.58537 8.20178 3.67683 8.05341C3.79878 7.90504 3.89025 7.727 4.0122 7.57863C4.13415 7.43027 4.22561 7.2819 4.34756 7.13353C4.43903 6.98516 4.59147 6.86647 4.71342 6.7181C4.83537 6.56973 4.95732 6.42137 5.10976 6.30267C5.2622 6.18398 5.41464 6.03561 5.56708 5.91691C5.75 5.79822 5.96342 5.67953 6.17683 5.56083C6.35976 5.44214 6.54268 5.38279 6.72561 5.2641C6.81707 5.23442 6.90854 5.17507 6.96951 5.1454C7.06098 5.11573 7.15244 5.05638 7.24391 5.02671C7.42683 4.96736 7.57927 4.87834 7.73171 4.81899C7.88415 4.75964 8.06708 4.7003 8.21951 4.64095C8.89025 4.43323 9.56098 4.28487 10.3232 4.40356C10.3537 4.25519 10.4451 4.1365 10.5671 4.07715C10.689 3.98813 10.811 3.95846 10.9939 3.92878C11.1463 3.89911 11.3598 3.86944 11.5427 3.92878C11.7256 3.95846 11.939 3.98813 12.1524 4.04748C12.5793 4.16617 12.9756 4.28487 13.372 4.43323C13.4634 4.46291 13.5549 4.49258 13.6463 4.49258C13.7378 4.52226 13.8293 4.55193 13.9207 4.55193C14.1037 4.5816 14.2866 4.5816 14.4695 4.52226C14.8659 4.61128 15.2317 4.61128 15.4146 4.52226C15.5976 4.46291 15.689 4.25519 15.4146 4.04748C15.689 4.16617 15.8415 4.31454 15.9634 4.40356C16.0854 4.52226 16.1463 4.61128 16.1768 4.7003C16.2683 4.90801 16.3598 5.05638 16.8171 5.2641C16.6341 5.29377 16.4512 5.35312 16.2988 5.38279C16.3598 5.44214 16.3902 5.50148 16.4207 5.5905C16.4512 5.64985 16.5122 5.73887 16.5427 5.82789C16.6341 5.97626 16.7561 6.12463 16.939 6.21365C17.1524 6.21365 17.3354 6.24332 17.5488 6.273C17.6707 6.54006 17.7927 6.74777 17.9451 6.92582C18.0366 7.01484 18.0976 7.10386 18.189 7.1632C18.2805 7.25223 18.3415 7.34125 18.4329 7.40059C18.6159 7.54896 18.7988 7.727 18.9207 7.93472C19.0732 8.14243 19.1951 8.37982 19.2561 8.70623C19.1951 7.8457 19.5915 8.97329 19.8354 8.79525C19.8049 8.8546 19.8354 8.94362 19.8354 9.03264C19.8354 9.12166 19.8354 9.24036 19.8354 9.32938C19.8354 9.50742 19.8354 9.65579 19.7439 9.53709C19.7744 9.65579 19.8049 9.80415 19.8354 9.92285C19.8659 10.0415 19.8963 10.1602 19.9268 10.3086C19.9573 10.4273 20.0183 10.546 20.0488 10.6647C20.0793 10.7834 20.1098 10.9021 20.1402 11.0208C20.2012 11.2582 20.2317 11.4659 20.2317 11.6736C20.2012 11.8813 20.1402 12.0593 20.0183 12.2077C20.0488 12.3561 20.1098 12.4748 20.1402 12.6231C20.2622 13.3353 19.8963 13.8398 19.622 14.4036L19.7439 14.5519C19.7134 14.997 19.3476 15.6795 19.0122 15.9169C18.7073 16.362 18.4024 16.9258 18.0366 17.4599L17.7622 17.8754C17.6707 17.9941 17.5488 18.1424 17.4573 18.2611C17.3659 18.3798 17.2439 18.5282 17.1524 18.6469C17.0305 18.7656 16.939 18.8546 16.8171 18.9733C16.6951 19.0326 16.5732 19.1217 16.4817 19.181C16.3902 19.2404 16.3293 19.27 16.2683 19.3294C16.1463 19.4184 16.1159 19.4777 16.0549 19.5668C15.9634 19.7151 15.9024 19.9228 15.4146 20.1899C15.0793 20.3086 14.622 20.4866 14.1951 20.635C13.7683 20.7537 13.3415 20.8427 13.128 20.8131C13.6159 20.6944 13.8598 20.546 14.1037 20.3976C14.2256 20.3086 14.3476 20.2196 14.5 20.1602C14.6524 20.0712 14.8354 20.0119 15.0793 19.9228C14.8659 19.9525 15.2622 19.7448 15.5366 19.5371C15.8415 19.3294 16.0549 19.1217 15.6281 19.27C14.8963 19.8635 13.8598 20.2493 12.8232 20.4273C12.5488 20.457 12.3049 20.5163 12.061 20.546C11.8171 20.5757 11.5427 20.5757 11.2988 20.6053C10.811 20.6053 10.3232 20.635 9.86585 20.6053C9.89634 20.546 9.80488 20.4866 9.59147 20.4273C9.37805 20.368 9.10366 20.2789 8.7683 20.2196C8.61586 20.1899 8.43293 20.1306 8.28049 20.0712C8.12805 20.0119 7.94512 19.9822 7.79268 19.9228C7.4878 19.8042 7.21342 19.6855 7.06098 19.6261L7.03049 19.5668C6.7561 19.4184 6.5122 19.2404 6.20732 19.092C6.05488 19.003 5.93293 18.9139 5.75 18.7953C5.65854 18.7359 5.56708 18.6766 5.47561 18.6172C5.38415 18.5579 5.29269 18.4688 5.17073 18.3798C4.19512 17.5786 3.46342 16.5697 3.0061 15.6202C2.91464 15.4421 2.82317 15.2641 2.7622 15.0861L2.54878 14.5223C2.45732 14.3442 2.42683 14.1365 2.36586 13.9585C2.30488 13.7804 2.24391 13.6024 2.21342 13.4243C2.18293 13.2463 2.15244 13.0683 2.12195 12.9199C2.12195 12.8309 2.09146 12.7715 2.09146 12.6825C2.09146 12.5935 2.09147 12.5341 2.06098 12.4451C2.03049 12.1484 2 11.911 2 11.7626C2 12.7122 2.15244 13.632 2.39634 14.4332C2.54878 14.819 2.67073 15.2344 2.85366 15.5905C2.94512 15.7685 3.0061 15.9466 3.09756 16.1246C3.18903 16.3027 3.28049 16.451 3.34147 16.6291C3.0061 16.0653 2.85366 15.7389 2.73171 15.4421C2.64025 15.2938 2.60976 15.1751 2.54878 14.997C2.48781 14.8487 2.39634 14.641 2.33537 14.4036C2.39634 14.5816 2.45732 14.7596 2.48781 14.908L2.33537 14.4926C2.36586 14.6113 2.33537 14.5223 2.27439 14.4332C2.24391 14.3442 2.21342 14.1958 2.21342 14.2552C2.27439 14.5223 2.36585 14.7596 2.45732 15.0267C2.51829 15.1454 2.54878 15.2938 2.57927 15.4125L2.73171 15.7685C2.39634 14.9674 2.64025 15.4718 2.79268 15.7092L2.94512 16.095C3.0061 16.2136 3.06708 16.3323 3.12805 16.451C3.03659 16.273 2.79269 15.8279 3.12805 16.3323C3.21952 16.4807 3.31098 16.6588 3.40244 16.8071C3.4939 16.9852 3.61586 17.1335 3.73781 17.3116C3.58537 17.1335 3.43293 16.9852 3.31098 16.8071C3.43293 17.0148 3.58537 17.2226 3.70732 17.4006C3.76829 17.4896 3.82927 17.6083 3.89025 17.6973L4.10366 17.9644C4.34756 18.3501 4.65244 18.7062 5.04878 19.0623L5.20122 19.3887L5.59756 19.7151C5.71951 19.8338 5.87195 19.9228 5.9939 20.0119L5.87195 19.9822L6.35976 20.368C6.54268 20.4866 6.72561 20.6053 6.87805 20.724C7.03049 20.8131 7.15244 20.8724 7.24391 20.9021C7.33537 20.9318 7.42683 20.9614 7.4878 20.9614C7.60976 20.9911 7.67073 20.9614 7.73171 20.9614C8.21951 21.1988 8.70732 21.2878 8.89025 21.4065C8.67683 21.3769 8.4939 21.3472 8.28049 21.3472L8.79878 21.5846C8.61585 21.4956 8.73781 21.5252 8.92073 21.5549C9.10366 21.6142 9.34756 21.6142 9.43903 21.6142C9.7439 21.7033 9.95732 21.7329 10.1098 21.7626C10.2622 21.7923 10.3537 21.7923 10.4451 21.822C10.5976 21.8516 10.7195 21.8813 11.1159 22C11.5427 21.9703 12 22 12.3963 21.9703C12.7622 21.9407 13.0366 21.911 13.0366 21.7923C13.2195 21.7923 13.4329 21.7626 13.6159 21.7329L14.2256 21.6439C14.622 21.5549 15.0183 21.4659 15.4146 21.3472C16.1768 21.0801 16.9085 20.724 17.5488 20.3086L18.0061 19.8042C18.372 19.5668 18.7073 19.3294 18.9512 19.092C19.1951 18.8546 19.439 18.6172 19.6524 18.3501C19.8354 18.0831 20.0488 17.816 20.2317 17.5193C20.3232 17.3709 20.4146 17.1929 20.5366 17.0148C20.5976 16.9258 20.6281 16.8368 20.689 16.7478C20.75 16.6588 20.7805 16.5401 20.8415 16.451V16.6291C20.9329 16.3027 21.0244 15.9763 21.0854 15.6499C21.2683 15.3531 21.3902 15.0861 21.4512 14.819C21.5122 14.5519 21.5732 14.3145 21.6037 14.0772C21.6646 13.8398 21.6646 13.5727 21.7256 13.276C21.7561 13.1276 21.7866 12.9792 21.8171 12.8012C21.8476 12.6231 21.878 12.4451 21.939 12.2671C21.9695 12.0593 22 11.8516 22 11.6736C22 11.4956 22 11.3175 21.9695 11.1395C21.9695 10.9911 21.939 10.8427 21.9085 10.6944C21.8781 10.546 21.8476 10.4273 21.7866 10.3086C21.6037 9.8635 21.3598 9.56677 21.0854 9.35905C20.9939 9.18101 20.9329 8.97329 20.8719 8.76558C20.811 8.55786 20.75 8.35015 20.7195 8.14243C20.689 8.02374 20.689 7.93472 20.6585 7.81602C20.6281 7.69733 20.5976 7.60831 20.5671 7.51929C20.5061 7.31157 20.4451 7.13353 20.3842 6.95549L20.7195 7.31157C20.689 7.10386 20.6585 6.86647 20.628 6.65875C20.3232 6.21365 20.2012 5.94659 20.0183 5.67953C19.9268 5.53116 19.8354 5.41246 19.6829 5.23442C19.622 5.1454 19.5305 5.05638 19.439 4.96736C19.3476 4.87834 19.2256 4.75964 19.0732 4.64095C18.7988 4.22552 18.5244 3.98813 18.311 3.86944C18.0976 3.72107 17.9146 3.69139 17.7317 3.69139C17.3659 3.69139 17.0915 3.83976 16.6951 3.75074C16.5122 3.51335 16.2988 3.30564 16.0854 3.06825C15.872 2.83086 15.628 2.65282 15.4146 2.4451V2.5638C15.1098 2.59347 14.8963 2.62315 14.7439 2.62315C14.561 2.62315 14.439 2.59347 14.2561 2.50445C14.0732 2.41543 13.8598 2.35608 13.5244 2.26706C13.189 2.14837 12.7622 2.08902 12.1524 2L12.2134 2.35608C11.8476 2.11869 11.5427 2.17804 11.2073 2.23739C10.9024 2.32641 10.5671 2.47478 10.0488 2.50445C9.92683 2.53412 9.7439 2.53412 9.5 2.53412C9.37805 2.53412 9.2561 2.53412 9.13415 2.53412C9.0122 2.53412 8.85976 2.5638 8.73781 2.5638C8.18903 2.62315 7.57927 2.83086 7.27439 3.18694C6.84756 3.33531 6.48171 3.48368 6.23781 3.72107C6.08537 3.83976 5.96342 3.92878 5.84146 4.04748C5.71951 4.16617 5.62805 4.28487 5.5061 4.40356L5.20122 4.75964C5.10976 4.87834 5.01829 4.99703 4.92683 5.11573C4.83537 5.23442 4.71342 5.35312 4.62195 5.47181C4.53049 5.5905 4.40854 5.7092 4.28659 5.85757C3.61585 6.42137 3.46341 7.07418 3.21951 7.10386L3.31098 6.95549C3.18903 7.01484 3.09756 7.07418 2.97561 7.13353L3.06707 7.22255C2.7622 7.66766 2.48781 8.35015 2.27439 8.76558C2.24391 8.8546 2.24391 8.97329 2.21342 9.06231L2.18293 9.35905L2.09146 9.95252C2.15244 9.65579 2.2439 9.35905 2.33537 9.03264L2.30488 9.06231C2.36585 8.91395 2.45732 8.64688 2.54878 8.4095C2.57927 8.35015 2.60976 8.2908 2.60976 8.23145C2.64024 8.17211 2.67073 8.11276 2.70122 8.05341C2.7622 7.93472 2.82317 7.8457 2.85366 7.75668L2.70122 8.17211C2.94512 7.727 2.82317 8.14243 2.7622 8.26113C2.33537 9.15134 2.51829 8.94362 2.30488 9.65579C2.27439 9.74481 2.24391 9.8635 2.21342 9.92285C2.18293 10.0119 2.18293 10.0415 2.18293 9.9822C2.15244 10.1899 2.06098 10.6053 2.03049 10.9614C2 11.3175 2 11.6142 2 11.6439C2 11.6736 2 11.7033 2 11.7329C2.03049 11.6439 2.09146 11.4955 2.15244 11.2878C2.18293 11.1691 2.21342 11.0504 2.2439 10.9318C2.54878 10.6053 2.60976 10.4866 2.67074 10.3383Z" fill="#242424"/>
<path d="M10.689 7.04451C10.8109 7.10385 10.9634 7.1632 11.1158 7.1632C11.3597 7.78635 12.0305 7.54896 12.3963 8.05341C12.7927 8.43916 13.189 8.61721 13.4634 9.09198C14.0122 8.79525 14.1341 9.89317 14.6829 9.89317C14.9268 10.0415 15.2012 9.95252 15.1097 9.7448C15.3841 9.98219 15.1402 10.1009 15.4146 10.2493L15.2012 10.3086C15.2317 10.4273 15.2317 10.5757 15.3536 10.635L15.5975 10.6053C15.628 10.724 15.628 10.7537 15.6585 10.7834C15.689 10.8131 15.75 10.8427 15.8109 10.8427C15.9329 10.8724 16.0853 10.9317 16.1158 11.0504C16.1463 10.8724 16.3292 11.0801 16.5122 11.0504C16.4512 11.1098 16.5426 11.2285 16.3902 11.1988C16.3902 11.2285 16.4207 11.2285 16.4512 11.2582C16.3902 11.3472 16.3902 11.4065 16.3597 11.4955C16.3292 11.5846 16.2378 11.6439 16.0548 11.6439C16.0548 11.6736 16.0853 11.7033 16.0853 11.7626C16.0853 11.8516 16.0244 11.911 15.9329 11.9406C15.8414 11.9703 15.7804 12 15.689 12.0297L15.75 12.1187C15.7195 12.2671 15.5365 12.4154 15.3841 12.4154C15.1097 12.5935 14.9878 13.0682 14.8353 13.4243C14.5 13.5727 14.8353 13.7211 14.6829 13.9881C14.5 14.0771 14.3475 14.4332 14.1646 14.4036C14.3475 14.1958 14.1646 13.9585 14.4085 13.8101C14.2561 13.8101 14.6829 13.3947 14.378 13.454C14.1646 14.0178 13.4939 14.3442 13.3109 14.8783C13.128 14.6409 12.7317 15.2047 12.5792 15.3828L12.5183 15.3234C12.3353 15.4125 12.2439 15.5015 12.0914 15.7982C11.8475 16.0653 11.6341 16.362 11.2683 16.451C10.7805 16.5994 10.628 17.2225 10.6585 17.5193C11.2683 17.3116 11.2988 16.6291 11.9695 16.7181C11.6341 16.9258 11.6951 17.0148 11.6036 17.3412L11.7866 17.2522L11.7561 17.4006C11.878 17.4303 11.817 17.6083 11.9085 17.6677L12.2439 17.3412C12 17.4599 12.0305 17.2522 12 17.1039L12.2134 16.9555C12.1219 16.9555 12 17.0148 12.0609 16.8665C12.1524 16.8071 12.1829 16.6884 12.3353 16.6587L12.3658 16.9555C12.4268 16.6291 12.9451 16.7774 13.0061 16.451L13.25 16.5697L13.4329 16.362L13.4634 16.451L13.7378 16.2433C13.8292 16.0949 13.7683 16.0059 13.7378 15.9169C13.8292 15.8279 13.8902 15.7092 13.9817 15.7092V15.9169L14.1341 15.8576C14.0122 15.8872 14.1646 15.7092 14.1341 15.6498C14.4085 15.4421 14.317 15.5015 14.5609 15.4421C14.6524 15.2344 14.9573 15.1751 14.8353 15.0267C15.2012 14.8487 15.5061 14.5519 15.7805 14.2849L15.8109 14.0771C16.2378 13.8694 16.2378 13.6024 16.5426 13.276L16.5731 13.3353L16.6341 13.0386C16.7256 12.9792 16.7561 12.9495 16.817 12.8902C16.9085 12.8012 16.9695 12.7122 17.0305 12.6231C17.1524 12.4451 17.2744 12.2967 17.6402 12.0593C18.1585 11.6439 18.25 11.3768 18.1585 11.2285C18.0365 11.1988 17.9451 11.1691 17.8231 11.1395C17.6402 11.0504 17.5183 10.9317 17.4573 10.8131C17.3658 10.6944 17.3048 10.546 17.2134 10.457L17.4573 10.546C17.4268 10.4866 17.3963 10.3976 17.3963 10.3383C17.2134 10.1899 17.1524 10.1009 17.0305 10.0119C16.9695 9.95252 16.939 9.92284 16.8475 9.8635C16.7866 9.80415 16.6646 9.71513 16.6036 9.68545C16.3292 9.27002 16.0853 9.62611 15.8414 9.56676L15.689 9.06231L15.6585 9.12166C15.2622 9.15133 15.4146 9.06231 14.9573 8.61721L14.8658 8.76557C14.8353 8.49851 14.5914 8.58753 14.4085 8.40949C14.317 8.32047 14.1951 7.81602 13.8902 7.81602C13.6463 7.37092 13.128 7.54896 12.8536 7.22255C12.7622 6.95548 12.4268 7.04451 12.5792 6.80712L12.6097 6.83679L12.7317 6.56973L12.5792 6.68842C12.5183 6.54005 12.3048 6.42136 12.3658 6.18397H11.8475C11.939 6.21364 12 6.30267 12.0305 6.39169L12.0609 6.33234C12.1219 6.39169 12.3353 6.51038 12.3353 6.65875L12.1829 6.62908C12.2439 6.77744 12.0914 6.74777 12.0609 6.74777C11.9085 6.48071 11.8475 6.65875 11.6341 6.54005C11.6036 6.48071 11.5731 6.39169 11.6341 6.39169C11.5122 6.33234 11.3597 5.97626 11.2073 6.09495V6.06528C10.9024 6.33234 10.7805 6.68842 10.689 7.04451Z" fill="white"/>
<path d="M2.51829 12.9199C2.64024 12.8605 2.7317 12.8012 2.82317 12.7122C3.31097 12.9792 3.55487 12.3561 4.07317 12.4748C4.53048 12.4748 4.83536 12.3264 5.26219 12.4748C5.41463 11.8813 6.11585 12.5638 6.42072 12.178C6.63414 12.1187 6.75609 11.8813 6.60365 11.7626C6.90853 11.7329 6.81707 12 7.06097 11.8813L6.96951 12.089C7.06097 12.1484 7.15244 12.2374 7.2439 12.2077L7.36585 12C7.67073 12.2374 7.82317 11.8219 8.15853 11.9703C7.94512 11.8219 8.25 11.8516 8.21951 11.6736C8.28048 11.7626 8.46341 11.7923 8.40243 11.8516C8.67682 11.911 8.92073 11.5549 9.07317 11.8516L9.16463 11.7626C9.34755 11.6439 9.4695 11.7923 9.62194 11.8516L9.65243 11.7329C9.7439 11.6736 9.95731 11.6736 10.0488 11.7923C10.3232 11.8516 10.6585 11.6142 10.9329 11.4659C11.2073 11.5846 11.0854 11.2581 11.3293 11.1691C11.4817 11.2285 11.7561 11.0801 11.878 11.2285C11.6646 11.2581 11.6341 11.5549 11.3902 11.4955C11.4817 11.6142 10.9939 11.6142 11.2073 11.7626C11.6646 11.4955 12.2134 11.7329 12.6402 11.4955C12.6098 11.7923 13.1585 11.6736 13.3415 11.6439V11.7329C13.4939 11.7626 13.6158 11.7923 13.8597 11.7033C14.1646 11.6736 14.439 11.6439 14.7134 11.7923C15.0793 12 15.5366 11.6736 15.689 11.4659C15.2317 11.1988 14.8049 11.6439 14.4695 11.1395C14.7744 11.2285 14.8049 11.1098 15.0488 10.9614L14.9268 10.8724L15.0183 10.813C14.9573 10.6944 15.1097 10.6053 15.0793 10.5163H14.7134C14.9268 10.6053 14.7744 10.724 14.7134 10.8427L14.5305 10.813C14.561 10.8724 14.6829 10.9021 14.561 10.9911C14.4695 10.9614 14.378 11.0208 14.2866 10.9614L14.439 10.724C14.1951 10.9021 14.0122 10.457 13.7988 10.635L13.7378 10.3976L13.5244 10.4273L13.5549 10.3383L13.2805 10.3086C13.128 10.3383 13.128 10.457 13.0976 10.546C12.9756 10.546 12.8841 10.6053 12.8232 10.546L12.9451 10.3976L12.8232 10.3383C12.9146 10.3976 12.7317 10.4273 12.7012 10.4866C12.4268 10.457 12.5183 10.4866 12.3354 10.3383C12.1524 10.4273 11.939 10.2492 11.939 10.457C11.6341 10.3383 11.2683 10.3383 10.9939 10.3383L10.8719 10.457C10.5061 10.3086 10.3537 10.4866 9.9878 10.5163L9.95731 10.4273L9.7439 10.5757C9.46951 10.457 9.34756 10.7537 9.04268 10.5757C8.70731 10.4866 8.52438 10.6944 8.43292 10.9614C8.24999 11.0801 8.03658 10.9021 7.88414 10.9021L7.9756 10.813L7.85365 10.724C7.64024 10.7834 7.60975 10.6944 7.33536 10.7834C6.93902 10.6647 7 11.0801 6.84756 11.2285L6.4817 10.9911V11.0504C6.26829 11.3472 6.29878 11.1691 5.78048 11.1988L5.81097 11.3768C5.62804 11.1988 5.56707 11.4659 5.32317 11.4362C5.20122 11.4362 4.86585 11.1691 4.68292 11.3768C4.28658 11.2285 4.10366 11.7033 3.7378 11.6736C3.52439 11.5549 3.37195 11.8516 3.34146 11.5549H3.37194L3.28049 11.2878V11.4955C3.15853 11.4362 2.97561 11.4955 2.88414 11.2878L2.60975 11.6439C2.67073 11.6142 2.76219 11.6439 2.82317 11.6439V11.5846C2.88414 11.5846 3.06707 11.5252 3.15853 11.6142L3.06707 11.6736C3.18902 11.7329 3.09755 11.8219 3.06707 11.8516C2.82316 11.7626 2.88414 11.9406 2.70121 12C2.67073 11.9703 2.57926 11.9406 2.60975 11.8813C2.4878 11.911 2.21341 11.7626 2.21341 11.9703C2.21341 11.9703 2.21341 11.9406 2.18292 11.9406C2.21341 12.2374 2.33536 12.5935 2.51829 12.9199Z" fill="white"/>
</svg>
