<svg width="24" height="24" viewBox="0 0 24 24" fill="none" xmlns="http://www.w3.org/2000/svg">
<path d="M12.1431 21.9392C17.4464 21.9392 21.7456 17.8295 21.7456 12.7599C21.7456 7.69026 17.4464 3.58054 12.1431 3.58054C6.83973 3.58054 2.54053 7.69026 2.54053 12.7599C2.54053 17.8295 6.83973 21.9392 12.1431 21.9392Z" fill="#242424"/>
<path d="M22 11.3617C21.9682 10.845 21.8728 10.3891 21.7774 9.99392C21.6184 8.8997 21.3323 8.04863 20.8871 7.31915C20.4102 6.55927 19.8696 5.86018 19.0747 4.91793C18.8839 4.70517 18.6932 4.55319 18.5024 4.37082C18.407 4.27964 18.3116 4.18845 18.2162 4.12766C18.1208 4.06687 17.9936 3.97568 17.8983 3.91489C17.6757 3.76292 17.4849 3.61094 17.2941 3.48936C17.0715 3.36778 16.8808 3.2462 16.6582 3.12462C15.7997 2.69909 14.8776 2.33435 13.7647 2C13.6375 2.12158 13.5103 2.21277 13.3196 2.24316C13.1288 2.30395 12.938 2.33435 12.7154 2.33435C12.2385 2.33435 11.6979 2.30395 11.0938 2.27356C10.4897 2.27356 9.85374 2.27356 9.2814 2.42553C9.12242 2.45593 8.99523 2.48632 8.86804 2.54711C8.74086 2.6079 8.61367 2.66869 8.48649 2.72948C8.23212 2.82067 8.00954 2.97264 7.88235 3.12462C6.92846 3.73252 6.73768 4.40122 7.53259 4.24924C6.35612 4.94833 6.35612 4.34043 5.52941 5.22188C5.52941 5.03951 5.56121 4.85714 5.56121 4.64438C5.46582 4.67477 5.37043 4.73556 5.24324 4.76596C5.14786 4.79635 5.02067 4.85714 4.92528 4.91793C4.7027 5.03951 4.51192 5.16109 4.35294 5.37386C4.32115 5.61702 4.28935 5.86018 4.25755 6.10334C3.90779 6.28571 3.71701 6.52888 3.52623 6.77204C3.43084 6.89362 3.36725 7.0152 3.30366 7.13678C3.24006 7.25836 3.20827 7.41034 3.14467 7.53192C3.04928 7.80547 2.9539 8.07903 2.85851 8.35258C2.76312 8.62614 2.60413 8.93009 2.41336 9.26444C3.01749 8.47416 2.47695 9.75076 2.79491 9.75076C2.73132 9.78116 2.66773 9.87234 2.60413 9.96353C2.54054 10.0547 2.50874 10.1763 2.44515 10.2675C2.34976 10.4498 2.25437 10.5714 2.25437 10.4195C2.19078 10.5714 2.15898 10.7234 2.12719 10.8754C2.09539 11.0274 2.09539 11.1793 2.09539 11.3313C2.09539 11.4833 2.09539 11.6049 2.09539 11.7568C2.09539 11.9088 2.12719 12.0304 2.12719 12.152C2.15898 12.4255 2.15898 12.6383 2.15898 12.8815C2.15898 13.0942 2.12719 13.307 2 13.4894C2.06359 13.6413 2.12719 13.7933 2.19078 13.9149C2.50874 14.614 2.38156 15.2523 2.57234 15.9514L2.76312 15.9818C3.01749 16.3769 3.36725 17.1368 3.43084 17.5319C3.71701 18.079 4.19396 18.5957 4.7345 19.0213L5.14785 19.3252C5.27504 19.4164 5.43402 19.5076 5.59301 19.5988C5.75199 19.69 5.87917 19.7812 6.00636 19.8419C6.16534 19.9027 6.29253 19.9939 6.41971 20.0547C6.5151 20.1459 6.64229 20.2371 6.70588 20.2979C6.80127 20.3587 6.86486 20.3891 6.92846 20.4195C7.05564 20.4802 7.15103 20.4802 7.24642 20.4802C7.4372 20.4802 7.59619 20.4498 8.10493 20.6322C8.3911 20.845 8.83625 20.9666 9.2496 21.0881C9.66296 21.1793 10.0445 21.3009 10.2353 21.4225C9.75835 21.3313 9.47218 21.3313 9.18601 21.3313C9.02703 21.3313 8.89984 21.3009 8.70906 21.2705C8.55008 21.2401 8.32751 21.1793 8.10493 21.0578C8.26391 21.2097 7.85056 21.0578 7.469 20.9362C7.11924 20.8146 6.80127 20.693 7.18283 20.997C8.16852 21.3313 9.2496 21.696 10.3625 21.8784C10.6486 21.9088 10.903 21.9696 11.1892 21.9696C11.4754 21.9696 11.7297 21.9696 12.0159 22C12.5564 21.9392 13.0652 21.9088 13.4785 21.7568C13.4467 21.848 13.5739 21.848 13.8283 21.848C14.0509 21.848 14.3688 21.7568 14.7186 21.6657C14.8776 21.6353 15.0684 21.5745 15.2273 21.4833C15.3863 21.4225 15.5771 21.3617 15.7361 21.3009C16.0541 21.1489 16.3084 20.997 16.4992 20.9058L16.5628 20.9362C16.8808 20.7842 17.1351 20.6322 17.4531 20.4499C17.6121 20.3587 17.7393 20.2371 17.93 20.0851C18.0254 20.0243 18.089 19.9331 18.1844 19.8723C18.2798 19.7812 18.3752 19.69 18.4706 19.5988C19.4563 18.7173 20.2194 17.6839 20.7281 16.7416C21.1097 16.0426 21.3641 15.1915 21.5231 14.462C21.5548 14.2796 21.5866 14.0973 21.5866 13.9149C21.5866 13.8237 21.6184 13.7629 21.6184 13.6717C21.6184 13.5805 21.6184 13.5198 21.6184 13.4286C21.6184 13.1246 21.6184 12.8815 21.6184 12.7295C21.5866 13.7021 21.4277 14.614 21.1733 15.465C21.0143 15.8602 20.8871 16.2857 20.6645 16.6201C20.5692 16.8024 20.4738 16.9848 20.3784 17.1368C20.2512 17.2888 20.1558 17.4407 20.0286 17.5927C20.442 17.0456 20.5692 16.7112 20.7281 16.4377C20.7917 16.2857 20.8553 16.1641 20.9189 15.9818C20.9825 15.8298 21.0461 15.6474 21.1415 15.4043C21.0779 15.5866 21.0143 15.7386 20.9189 15.8906L21.0779 15.4954C21.0143 15.5866 21.0461 15.5258 21.0779 15.4043C21.1097 15.3131 21.1097 15.1611 21.1097 15.1915C21.0461 15.4347 20.9189 15.6778 20.8235 15.921C20.7599 16.0426 20.7281 16.1641 20.6645 16.2857L20.4738 16.6201C20.9189 15.8906 20.6645 16.3769 20.5692 16.6201L20.3784 16.9848C20.3148 17.1064 20.2194 17.1976 20.1558 17.3191C20.283 17.1672 20.5692 16.7416 20.2512 17.2584C20.1558 17.4103 20.0604 17.5623 19.9332 17.7143C19.806 17.8663 19.6789 18.0182 19.5517 18.1398C19.6789 17.9574 19.806 17.7751 19.9014 17.5927C19.3291 18.4134 18.6296 18.8085 17.8665 19.4164C17.7393 19.4468 17.6439 19.4468 17.5167 19.4772C17.2623 19.6292 16.9762 19.7812 16.69 19.9027L16.7536 19.8116L16.2448 20.0243C16.0858 20.0851 15.8951 20.1155 15.7361 20.1763C15.6089 20.2371 15.5135 20.2675 15.4181 20.2979C15.3227 20.3283 15.2591 20.3587 15.2273 20.3891C15.132 20.4498 15.1002 20.4802 15.0684 20.541C14.6232 20.6626 14.2099 20.7538 14.0191 20.7234C14.1781 20.6626 14.337 20.5714 14.496 20.5106L14.0191 20.541C14.337 20.541 13.6375 20.693 13.5421 20.7234C13.2878 20.7234 13.097 20.7538 12.9698 20.7538C12.8426 20.7538 12.7472 20.7234 12.6836 20.7234C12.5564 20.693 12.4611 20.693 12.1431 20.6018C11.8251 20.6018 11.4436 20.5714 11.1574 20.5106C10.8712 20.4499 10.6804 20.3891 10.6169 20.5106C9.44038 20.1155 8.3593 19.5076 7.5008 18.8389L7.02385 18.6565C6.83307 18.383 6.64229 18.2006 6.48331 17.9878C6.32432 17.7751 6.16534 17.6231 6.00636 17.4407C5.84738 17.2584 5.68839 17.076 5.52941 16.8936C5.46582 16.772 5.37043 16.6809 5.30684 16.5593C5.27504 16.4985 5.21145 16.4377 5.17965 16.3769C5.14785 16.3161 5.11606 16.2249 5.08426 16.1641L5.21145 16.2249C5.05246 16.0426 4.86169 15.8602 4.7027 15.6474C4.67091 15.4043 4.60731 15.1915 4.54372 15.0091C4.48013 14.8267 4.41653 14.6444 4.35294 14.4924C4.28935 14.31 4.22576 14.1277 4.22576 13.9149C4.22576 13.7933 4.19396 13.7021 4.19396 13.5805C4.19396 13.459 4.22575 13.307 4.25755 13.1854C4.28935 13.0334 4.28935 12.8815 4.28935 12.7599C4.32115 12.6383 4.32115 12.5167 4.32115 12.3951C4.32115 12.2736 4.32115 12.1824 4.28935 12.0608C4.28935 11.9696 4.28935 11.8784 4.25755 11.7872C4.19396 11.4225 4.03498 11.1489 3.87599 10.9058C3.87599 10.7538 3.90779 10.5714 3.93959 10.3891C4.00318 10.2371 4.09857 10.0547 4.19396 9.90274C4.25755 9.84195 4.28935 9.75076 4.35294 9.68997C4.41653 9.62918 4.48013 9.53799 4.51192 9.4772C4.63911 9.35562 4.7345 9.23404 4.79809 9.11246L4.7663 9.5076C4.89348 9.38602 5.02067 9.29483 5.17965 9.20365C5.56121 8.53496 5.72019 8.56535 6.26073 7.71429C7.469 6.95441 6.76947 6.49848 7.11924 5.82979C7.37361 5.769 7.65978 5.7386 7.91415 5.67781C8.16852 5.64742 8.45469 5.61702 8.70906 5.61702L8.61367 5.52584C8.74086 5.28267 8.83625 5.16109 8.96343 5.06991C9.05882 4.97872 9.18601 4.91793 9.34499 4.85714C9.50397 4.79635 9.69475 4.79635 9.98092 4.73556C10.2671 4.67477 10.6486 4.64438 11.1892 4.55319L11.062 4.21885C11.4436 4.37082 11.6979 4.31003 11.9841 4.21885C12.2703 4.12766 12.5882 4.03647 13.097 4.06687C13.2242 4.06687 13.3832 4.12766 13.6057 4.18845C13.7011 4.21885 13.8283 4.24924 13.9237 4.31003C14.0509 4.37082 14.1463 4.40122 14.2734 4.46201C14.7822 4.64438 15.2909 4.82675 15.7361 4.79635C16.0859 5.03951 16.4356 5.1307 16.7536 5.28268C16.9126 5.34347 17.0715 5.40426 17.2305 5.46505C17.3895 5.52584 17.5167 5.58663 17.6757 5.64742C17.8347 5.70821 17.9618 5.769 18.1208 5.82979C18.248 5.89058 18.407 5.98176 18.5342 6.07295C18.6614 6.16413 18.8203 6.25532 18.9475 6.3465C19.0747 6.46809 19.2019 6.58967 19.3291 6.74164C19.3927 6.83283 19.4563 6.92401 19.5199 6.9848C19.5835 7.07599 19.6471 7.13678 19.7107 7.22796C19.8378 7.37994 19.9332 7.50152 20.0286 7.6231C20.2194 7.83587 20.3148 8.01824 20.283 8.13982L20.1876 8.01824C20.1876 8.13982 20.1876 8.2614 20.1876 8.38298L20.3148 8.35258C20.5692 8.80851 20.9189 9.4772 20.9825 9.93313C21.0461 10.0243 21.0779 10.1155 21.1415 10.2067L21.2687 10.4802C21.3323 10.6626 21.4277 10.8754 21.4913 11.0578C21.3959 10.7538 21.3323 10.4498 21.2369 10.1155V10.1459C21.1733 9.99392 21.0779 9.75076 20.9825 9.4772C20.9507 9.41641 20.9189 9.35562 20.9189 9.29483C20.8871 9.23404 20.8553 9.17325 20.8235 9.11246C20.7599 8.99088 20.7281 8.8997 20.6963 8.80851L20.9189 9.20365C20.7281 8.71733 20.9507 9.08207 21.0143 9.23404C21.3323 10.2371 21.3323 9.93313 21.5231 10.693C21.5548 10.7842 21.5548 10.9058 21.5866 10.997C21.5866 11.0881 21.5866 11.1489 21.5866 11.0881C21.6184 11.3313 21.682 11.7264 21.7138 12.0912C21.7138 12.4559 21.7456 12.7599 21.7774 12.7903C21.7774 12.8207 21.7774 12.8511 21.7774 12.8815C21.8092 12.7903 21.841 12.6383 21.8728 12.3951C21.9046 12.2736 21.9046 12.1216 21.9364 12C21.9682 11.696 21.9682 11.5441 22 11.3617Z" fill="#242424"/>
<path d="M12.8744 17.5015C12.7472 17.4407 12.5882 17.3799 12.4292 17.3799C12.1749 16.7416 11.4753 16.9848 11.0938 16.4681C10.6804 16.0729 10.2671 15.8906 9.9809 15.4043C9.40857 15.7082 9.28138 14.5836 8.70904 14.5836C8.45467 14.4316 8.16851 14.5228 8.2639 14.7356C7.97773 14.4924 8.2321 14.3708 7.94593 14.2188L8.1685 14.158C8.13671 14.0365 8.13671 13.8845 8.00952 13.8237L7.75515 13.8541C7.72335 13.7325 7.72335 13.7021 7.69156 13.6717C7.65976 13.6413 7.59617 13.6109 7.53257 13.6109C7.40539 13.5805 7.24641 13.5198 7.21461 13.3982C7.18281 13.5805 6.99203 13.3678 6.80125 13.3982C6.86485 13.3374 6.76946 13.2158 6.92844 13.2462C6.92844 13.2158 6.89665 13.2158 6.86485 13.1854C6.92844 13.0942 6.92844 13.0334 6.96024 12.9422C6.99203 12.8511 7.08742 12.7903 7.2782 12.7903C7.2782 12.7599 7.24641 12.7295 7.24641 12.6687C7.24641 12.5775 7.31 12.5167 7.40539 12.4863C7.50078 12.4559 7.56437 12.4255 7.65976 12.3951L7.59617 12.3039C7.62796 12.152 7.81874 12 7.97773 12C8.26389 11.8176 8.39108 11.3313 8.55006 10.9666C8.89982 10.8146 8.55006 10.6626 8.70904 10.3891C8.89982 10.2979 9.0588 9.93313 9.24958 9.96352C9.0588 10.1763 9.24959 10.4194 8.99522 10.5714C9.1542 10.5714 8.70904 10.997 9.02701 10.9362C9.24958 10.3587 9.94911 10.0243 10.1399 9.4772C10.3307 9.72036 10.744 9.14285 10.903 8.96048L10.9666 9.02127C11.1574 8.93009 11.2528 8.8389 11.4117 8.53495C11.6661 8.26139 11.8887 7.95744 12.2702 7.86626C12.779 7.71428 12.938 7.07598 12.9062 6.77203C12.2702 6.9848 12.2385 7.68389 11.5389 7.5927C11.8887 7.37993 11.8251 7.28875 11.9205 6.9544L11.7297 6.9848L11.7615 6.83282C11.6343 6.80243 11.6979 6.62006 11.6025 6.55927L11.2528 6.89361C11.5071 6.77203 11.4753 6.9848 11.5071 7.13677L11.2846 7.28875C11.38 7.28875 11.5071 7.22796 11.4435 7.37993C11.3482 7.44072 11.3164 7.56231 11.1574 7.5927L11.1256 7.28875C11.062 7.6231 10.5214 7.47112 10.4579 7.80547L10.2035 7.68389L10.0127 7.89665L9.9809 7.80547L9.69474 8.01823C9.59935 8.17021 9.66294 8.26139 9.69474 8.35258C9.59935 8.44376 9.53575 8.56534 9.44036 8.56534V8.35258L9.28138 8.41337C9.40857 8.38297 9.24959 8.56534 9.28138 8.62613C8.99521 8.8389 9.0906 8.77811 8.83623 8.8389C8.74084 9.05167 8.42288 9.11246 8.55006 9.26443C8.1685 9.4468 7.85054 9.75075 7.56437 10.0243L7.53257 10.2371C7.08742 10.4498 7.08742 10.7234 6.76946 11.0577L6.73766 10.997L6.67407 11.3009C6.57868 11.3617 6.54688 11.3921 6.48329 11.4529C6.3879 11.5441 6.32431 11.6353 6.26072 11.7264C6.13353 11.9088 6.00634 12.0608 5.62479 12.3039C5.08425 12.7295 4.98886 13.003 5.08425 13.155C5.21143 13.1854 5.30682 13.2158 5.43401 13.2462C5.62479 13.3374 5.75197 13.459 5.81556 13.5805C5.91095 13.7021 5.97455 13.8541 6.06994 13.9453L5.81556 13.8541C5.84736 13.9149 5.87916 14.0061 5.87916 14.0669C6.06994 14.2188 6.13353 14.31 6.26072 14.4012C6.32431 14.462 6.3561 14.4924 6.45149 14.5532C6.51509 14.614 6.64227 14.7052 6.70587 14.7356C6.99204 15.1611 7.24641 14.7963 7.50078 14.8571L7.65976 15.3739L7.69156 15.3131C8.10491 15.2827 7.94593 15.3739 8.42288 15.8298L8.51827 15.6778C8.55006 15.9514 8.80444 15.8602 8.99522 16.0425C9.0906 16.1337 9.21779 16.6505 9.53575 16.6505C9.79013 17.1064 10.3307 16.924 10.6168 17.2584C10.7122 17.5319 11.062 17.4407 10.903 17.6839L10.8712 17.6535L10.744 17.927L10.903 17.8055C10.9666 17.9574 11.1892 18.079 11.1256 18.3222H11.6661C11.5707 18.2918 11.5071 18.2006 11.4753 18.1094L11.4435 18.1702C11.38 18.1094 11.1574 17.9878 11.1574 17.8359L11.3164 17.8663C11.2528 17.7143 11.4117 17.7447 11.4435 17.7447C11.6025 18.0182 11.6661 17.8359 11.8887 17.9574C11.9205 18.0182 11.9523 18.1094 11.8887 18.1094C12.0159 18.1702 12.1749 18.5349 12.3338 18.4134V18.4438C12.62 18.231 12.779 17.8663 12.8744 17.5015Z" fill="white"/>
<path d="M7.97776 14.1277C8.10494 14.0669 8.20033 14.0061 8.29572 13.9149C8.80447 14.1884 9.05884 13.5501 9.59938 13.6717C10.0763 13.6717 10.3943 13.5197 10.8394 13.6717C10.9984 13.0638 11.7297 13.7629 12.0477 13.3678C12.2703 13.307 12.3975 13.0638 12.2385 12.9422C12.5565 12.9118 12.4611 13.1854 12.7154 13.0638L12.62 13.2766C12.7154 13.3374 12.8108 13.4286 12.9062 13.3982L13.0334 13.1854C13.3514 13.4286 13.5103 13.003 13.8601 13.155C13.6375 13.003 13.9555 13.0334 13.9237 12.8511C13.9873 12.9422 14.1781 12.9726 14.1145 13.0334C14.4007 13.0942 14.655 12.7295 14.814 13.0334L14.9094 12.9422C15.1002 12.8207 15.2274 12.9726 15.3863 13.0334L15.4181 12.9118C15.5135 12.8511 15.7361 12.8511 15.8315 12.9726C16.1177 13.0334 16.4674 12.7903 16.7536 12.6383C17.0398 12.7599 16.9126 12.4255 17.1669 12.3343C17.3259 12.3951 17.6121 12.2432 17.7393 12.3951C17.5167 12.4255 17.4849 12.7295 17.2305 12.6687C17.3259 12.7903 16.8172 12.7903 17.0398 12.9422C17.5167 12.6687 18.089 12.9118 18.5342 12.6687C18.5024 12.9726 19.0747 12.8511 19.2655 12.8207V12.9118C19.4245 12.9422 19.5517 12.9726 19.8061 12.8815C20.124 12.8511 20.4102 12.8207 20.6964 12.9726C21.0779 13.1854 21.5549 12.8511 21.7138 12.6383C21.2369 12.3647 20.7918 12.8207 20.442 12.3039C20.76 12.3951 20.7917 12.2735 21.0461 12.1216L20.9189 12.0304L21.0143 11.9696C20.9507 11.848 21.1097 11.7568 21.0779 11.6656H20.6964C20.9189 11.7568 20.76 11.8784 20.6964 12L20.5056 11.9696C20.5374 12.0304 20.6646 12.0608 20.5374 12.152C20.442 12.1216 20.3466 12.1824 20.2512 12.1216L20.4102 11.8784C20.1558 12.0608 19.965 11.6049 19.7425 11.7872L19.6789 11.5441L19.4563 11.5745L19.4881 11.4833L19.2019 11.4529C19.0429 11.4833 19.0429 11.6049 19.0111 11.696C18.884 11.696 18.7886 11.7568 18.725 11.696L18.8522 11.5441L18.725 11.4833C18.8204 11.5441 18.6296 11.5745 18.5978 11.6353C18.3116 11.6049 18.407 11.6353 18.2162 11.4833C18.0255 11.5745 17.8029 11.3921 17.8029 11.6049C17.4849 11.4833 17.1034 11.4833 16.8172 11.4833L16.69 11.6049C16.3084 11.4529 16.1495 11.6353 15.7679 11.6656L15.7997 11.6049L15.5771 11.7568C15.291 11.6353 15.1638 11.9392 14.8458 11.7568C14.496 11.6656 14.3053 11.8784 14.2099 12.152C14.0191 12.2735 13.7965 12.0912 13.6375 12.0912L13.7329 12L13.6057 11.9088C13.3832 11.9696 13.3514 11.8784 13.0652 11.9696C12.6518 11.848 12.7154 12.2735 12.5565 12.4255L12.1749 12.1824V12.2432C11.9523 12.5471 11.9841 12.3647 11.4436 12.3951L11.4754 12.5775C11.2846 12.3951 11.221 12.6687 10.9666 12.6383C10.8394 12.6383 10.4897 12.3647 10.2989 12.5775C9.88555 12.4255 9.69477 12.9118 9.31321 12.8815C9.09064 12.7599 8.93165 13.0638 8.89986 12.7599H8.93165L8.83627 12.4863V12.6991C8.70908 12.6383 8.5183 12.6991 8.42291 12.4863L8.13674 12.8511C8.20033 12.8207 8.29572 12.8511 8.35932 12.8511V12.7903C8.42291 12.7903 8.61369 12.7295 8.70908 12.8207L8.61369 12.8815C8.74087 12.9422 8.64548 13.0334 8.61369 13.0638C8.35932 12.9726 8.42291 13.155 8.23213 13.2158C8.20033 13.1854 8.10494 13.155 8.13674 13.0942C8.00955 13.1246 7.72339 12.9726 7.72339 13.1854C7.72339 13.1854 7.72339 13.155 7.69159 13.155C7.69159 13.4286 7.81878 13.7933 7.97776 14.1277Z" fill="white"/>
</svg>
