<svg width="24" height="24" viewBox="0 0 24 24" fill="none" xmlns="http://www.w3.org/2000/svg">
<path d="M13.6378 18.3613C13.6068 18.4071 13.5861 18.453 13.5655 18.508C13.3176 18.6089 13.3795 18.829 13.1626 18.9757C12.9974 19.1224 12.9147 19.26 12.7185 19.3792C12.8114 19.5535 12.3776 19.636 12.357 19.8286C12.295 19.9203 12.3053 20.0028 12.3983 19.9753C12.295 20.0762 12.2537 19.9937 12.1917 20.1037L12.171 20.0304C12.1297 20.0487 12.0677 20.0579 12.0368 20.0946V20.1771C11.9541 20.2046 11.9128 20.2505 11.9025 20.2871C11.8818 20.3238 11.8612 20.3789 11.8095 20.388C11.8818 20.388 11.7992 20.4522 11.8095 20.5072C11.7889 20.4981 11.7269 20.5256 11.7475 20.4889C11.7372 20.4981 11.7269 20.4981 11.7166 20.5072C11.6856 20.4797 11.6443 20.4797 11.6133 20.4614C11.5823 20.443 11.5513 20.4155 11.5513 20.3605C11.541 20.3605 11.5203 20.3605 11.51 20.3605C11.4273 20.3422 11.417 20.2596 11.3654 20.2046L11.3344 20.2229C11.2827 20.2046 11.2104 20.1404 11.2001 20.0854C11.1175 19.9845 10.9212 19.9203 10.7869 19.8561C10.7146 19.7369 10.6733 19.8469 10.5597 19.7827C10.5184 19.7185 10.3738 19.6544 10.3738 19.5902C10.4564 19.6635 10.5494 19.5993 10.6217 19.691C10.6113 19.636 10.7973 19.8011 10.7559 19.691C10.5287 19.5993 10.3738 19.3609 10.1569 19.2783C10.2395 19.2233 10.0123 19.0674 9.92962 19.0124L9.95028 18.994C9.89863 18.9299 9.86765 18.8932 9.7437 18.829C9.63008 18.7373 9.50613 18.6456 9.45448 18.5263C9.37185 18.3521 9.12395 18.2879 9.01033 18.2787C9.11362 18.4896 9.38218 18.5263 9.38218 18.7464C9.28922 18.6272 9.2479 18.6456 9.12395 18.5997L9.14461 18.6639L9.10329 18.6547C9.09296 18.6914 9.02066 18.6731 9 18.7006L9.14461 18.829C9.09296 18.7373 9.17559 18.7556 9.22724 18.7556L9.28922 18.829C9.28922 18.8015 9.2479 18.7556 9.3202 18.7831C9.34086 18.8106 9.40284 18.8381 9.41316 18.884H9.29954C9.43382 18.9207 9.38218 19.0858 9.51646 19.1224L9.48547 19.1958L9.5681 19.2692L9.53711 19.2783L9.63008 19.3792C9.69205 19.4159 9.73337 19.3976 9.76435 19.3884C9.80567 19.4251 9.85732 19.4526 9.85732 19.4801L9.77468 19.4709L9.80567 19.5168C9.78501 19.4801 9.86765 19.526 9.8883 19.526C9.98127 19.6268 9.96061 19.5902 9.99159 19.6727C10.0846 19.7094 10.1155 19.8194 10.1672 19.7827C10.2602 19.9111 10.3841 20.0212 10.4977 20.1221L10.5804 20.1404C10.6836 20.2871 10.7869 20.3055 10.9315 20.4247H10.9109L11.0245 20.4614C11.0658 20.5164 11.1071 20.5439 11.1588 20.5714L11.1794 20.5806L11.2104 20.599C11.2311 20.6173 11.2517 20.6265 11.2724 20.6448C11.3137 20.6815 11.355 20.7182 11.3964 20.7824C11.5719 20.9658 11.6856 21.0208 11.7475 20.9933C11.7682 20.9566 11.7785 20.9199 11.7889 20.8833C11.8302 20.8191 11.8818 20.7824 11.9335 20.7457C11.9851 20.709 12.0471 20.6815 12.0884 20.6448L12.0471 20.7273L12.14 20.6907C12.202 20.6265 12.2433 20.599 12.2847 20.5623C12.3053 20.5439 12.3363 20.5164 12.3776 20.4522C12.5532 20.3422 12.4293 20.278 12.4499 20.1863L12.6462 20.1129L12.6255 20.1037C12.6358 19.9662 12.6565 20.0212 12.8528 19.8469L12.8011 19.8194C12.9147 19.8011 12.8734 19.7185 12.9664 19.6452C13.0077 19.6085 13.2039 19.5535 13.2246 19.4434C13.4105 19.3425 13.3692 19.1775 13.5035 19.0674C13.6068 19.0216 13.5965 18.9115 13.6791 18.9574H13.6481L13.7411 18.994L13.6997 18.9482C13.7617 18.9207 13.8134 18.8473 13.9063 18.8565L13.927 18.6822C13.9063 18.7097 13.8753 18.7373 13.8444 18.7556L13.8547 18.7739C13.8237 18.8015 13.772 18.8657 13.7204 18.884L13.7411 18.8381C13.6894 18.8657 13.6997 18.8106 13.6997 18.8015C13.8134 18.7464 13.7411 18.7189 13.803 18.6547C13.8237 18.6456 13.8547 18.6272 13.865 18.6456C13.896 18.5997 14.0406 18.5355 13.989 18.4896C13.9993 18.4896 13.9993 18.4896 13.9993 18.4896C13.9063 18.4163 13.7824 18.3796 13.6378 18.3613Z" fill="black"/>
<path d="M11.8095 19.3792C11.8405 19.2325 11.8612 19.0949 11.8612 18.9666C11.9851 18.6639 11.9955 18.4163 12.0058 18.1687C11.9955 17.9211 11.9851 17.6735 12.0161 17.3433C12.0265 17.0498 11.9955 16.793 11.9541 16.5546C11.9128 16.307 11.8715 16.0685 11.8199 15.7842C11.8095 15.7751 11.7889 15.7659 11.7786 15.7476C11.7682 15.7292 11.7579 15.72 11.7372 15.6925C11.7269 15.6742 11.7166 15.665 11.7063 15.6375C11.6959 15.6283 11.6959 15.6192 11.6856 15.61C11.6753 15.5917 11.6649 15.5641 11.6443 15.5458C11.6236 15.4999 11.5926 15.4449 11.572 15.3807C11.5513 15.3165 11.541 15.2523 11.5203 15.1881C11.479 15.0506 11.479 14.9038 11.448 14.7754C11.4274 14.6379 11.4067 14.5187 11.3551 14.4178C11.3034 14.161 11.2208 14.0143 11.2001 14.216C11.1795 14.0326 11.2001 13.9592 11.2208 13.9042C11.2414 13.84 11.2518 13.7942 11.2311 13.6383L11.3034 13.7391C11.3137 13.6383 11.3654 13.5282 11.3551 13.3906C11.3344 13.3356 11.3137 13.2898 11.2931 13.2347C11.3964 12.8771 11.2724 12.657 11.3757 12.2626C11.2931 12.5194 11.3551 12.1434 11.2931 12.1617C11.3241 12.1067 11.386 11.8683 11.386 11.9508C11.4274 11.7857 11.4274 11.6207 11.448 11.4739C11.4584 11.4006 11.4687 11.3364 11.479 11.2813C11.4997 11.2263 11.5307 11.1713 11.5616 11.1254V10.997C11.572 10.7769 11.6649 10.621 11.7166 10.4284L11.6856 10.3918C11.6856 10.2634 11.7372 10.0249 11.7889 9.91486C11.8612 9.57554 11.8095 9.13534 11.7579 8.78684C11.7786 8.6126 11.7476 8.56674 11.7269 8.52089C11.6959 8.47503 11.6649 8.43835 11.6339 8.28244C11.6339 8.18156 11.6133 8.05317 11.5823 7.92478C11.5513 7.80556 11.5307 7.68633 11.541 7.62214C11.603 7.88809 11.7269 7.91561 11.7269 8.20908C11.7372 8.15405 11.7682 8.27327 11.7889 8.38332C11.8095 8.4842 11.8199 8.57591 11.8405 8.43835C11.8199 8.29161 11.7786 8.14488 11.7579 7.99814C11.7476 7.92478 11.7269 7.84224 11.7063 7.76887C11.6856 7.6955 11.6753 7.61297 11.6546 7.5396C11.572 7.22779 11.4274 6.95266 11.2931 6.72339C11.3241 6.72339 11.3241 6.6867 11.3137 6.62251C11.3137 6.56748 11.3034 6.48494 11.2724 6.39324C11.2621 6.34738 11.2414 6.30153 11.2311 6.2465C11.2208 6.20065 11.2105 6.14562 11.2001 6.09977C11.1795 6.00806 11.1588 5.92552 11.1588 5.87049L11.1898 5.85215C11.1898 5.75127 11.1898 5.66873 11.1898 5.57703C11.1898 5.47615 11.1795 5.36609 11.1795 5.21019C11.2001 4.84335 11.2621 4.47652 11.3964 4.18305C11.5823 3.75201 11.6959 3.21093 11.7269 3C11.5513 3.24761 11.4584 3.51357 11.3757 3.76119C11.2931 4.0088 11.2208 4.23807 11.0968 4.43983C11.2208 4.05465 11.1898 4.01797 11.2414 3.70616C11.2105 3.75201 11.1795 3.80704 11.1588 3.85289L11.1795 3.71533C11.1175 3.77036 11.1485 3.59611 11.1072 3.60528C11.0762 3.68782 11.0555 3.76119 11.0245 3.84372C10.9935 3.92626 10.9729 3.99963 10.9522 4.08217C11.0555 3.83455 11.0452 4.0088 11.0658 4.09134C11.0452 4.17388 11.0142 4.24724 10.9832 4.32978C11.0142 4.27476 11.0658 4.12802 11.0452 4.31144C11.0142 4.41232 11.0039 4.54071 10.9626 4.65076C10.9419 4.5774 10.9316 4.5132 10.9212 4.43983C10.9109 4.59574 10.8799 4.72413 10.8283 4.86169C10.787 4.99926 10.7456 5.12765 10.7766 5.29273L10.694 5.38444C10.694 5.48532 10.6837 5.5862 10.7043 5.68708L10.6733 5.65956C10.6837 5.77878 10.6733 5.90718 10.694 6.0264C10.7353 6.22816 10.787 6.2465 10.8179 6.27401C10.8283 6.34738 10.8593 6.42075 10.8799 6.48494C10.9006 6.54914 10.9109 6.595 10.9109 6.63168L10.8076 6.4666L10.8386 6.63168C10.8283 6.51246 10.9006 6.76007 10.9522 6.78758C11.0245 6.96183 11.0452 7.02603 11.0658 7.08105C11.0762 7.11774 11.0762 7.14525 11.0968 7.23696C11.1278 7.28281 11.1485 7.32867 11.1691 7.37452C11.1898 7.42038 11.2001 7.4754 11.2105 7.51209C11.2311 7.59462 11.2518 7.65882 11.2828 7.65882C11.3344 8.02566 11.3757 8.41084 11.3757 8.77767L11.417 8.93358C11.4067 9.04363 11.3964 9.13534 11.386 9.21788C11.3757 9.30041 11.386 9.38295 11.3757 9.46549C11.3757 9.54803 11.3757 9.6214 11.3654 9.7131C11.3551 9.80481 11.3551 9.89652 11.3344 10.0066L11.3137 9.96989C11.3241 10.0524 11.3241 10.135 11.3241 10.2175C11.2208 10.5477 11.2931 10.6944 11.1278 11.0704C11.1072 11.1254 11.0968 11.1529 11.0762 11.2263C11.0658 11.2813 11.0555 11.318 11.0452 11.3639C11.0349 11.4464 11.0245 11.5198 11.0245 11.584C11.0245 11.7124 11.0555 11.8041 11.0865 11.8774C11.0865 12.0975 10.9935 12.3543 10.9626 12.5561L10.9522 12.4277C10.9316 12.4827 10.9109 12.5286 10.9006 12.5836C10.8903 12.7212 10.8799 12.7945 10.8696 12.8862C10.8593 12.9688 10.8593 13.0697 10.8593 13.2531C10.8076 13.7575 10.9522 13.6841 11.0039 13.895C10.9729 14.0509 10.9626 14.216 10.9419 14.3719L10.9626 14.3628C11.0245 14.5003 11.0452 14.5553 11.0555 14.6562C11.0658 14.7112 11.0658 14.7754 11.0762 14.8672C11.0865 14.913 11.0968 14.968 11.1072 15.0322C11.1175 15.0597 11.1175 15.0964 11.1278 15.1331C11.1381 15.1698 11.1485 15.2065 11.1588 15.2523L11.2105 15.2065C11.2105 15.3257 11.2414 15.3991 11.2828 15.4816C11.3034 15.5183 11.3344 15.5641 11.3654 15.61C11.3757 15.6375 11.3964 15.6559 11.4067 15.6925C11.417 15.7109 11.417 15.72 11.4274 15.7384C11.4377 15.7476 11.4377 15.7659 11.448 15.7842C11.4687 15.8484 11.479 15.9952 11.4997 16.1419C11.51 16.2978 11.541 16.4537 11.5823 16.5729C11.5823 16.7013 11.5926 16.8022 11.603 16.9031C11.6133 17.004 11.6339 17.0865 11.6546 17.1782C11.6856 17.3525 11.7269 17.5267 11.7063 17.7376C11.6753 17.866 11.6753 17.9761 11.6753 18.0586C11.6753 18.1412 11.6649 18.2054 11.6133 18.2237L11.6236 18.1779L11.51 18.2604L11.572 18.2787C11.5203 18.4255 11.4997 18.6547 11.3964 18.7648C11.4067 18.884 11.417 19.0124 11.417 19.1408C11.4274 19.0491 11.4687 18.9574 11.4997 18.8657L11.479 18.8748C11.4997 18.7831 11.541 18.5539 11.5823 18.453L11.572 18.5814C11.6236 18.4346 11.6236 18.563 11.6236 18.6089C11.5823 18.7556 11.572 18.8106 11.572 18.8565C11.572 18.9024 11.5823 18.9482 11.5616 19.0583C11.541 19.1041 11.4997 19.205 11.4997 19.1591C11.479 19.2967 11.3034 19.6269 11.3551 19.6544C11.3447 19.6635 11.3447 19.6727 11.3344 19.6819C11.4687 19.6635 11.6443 19.5535 11.8095 19.3792Z" fill="black"/>
<path d="M10.6114 17.1324C10.6741 17.1324 10.725 17.0872 10.725 17.0315C10.725 16.9758 10.6741 16.9306 10.6114 16.9306C10.5486 16.9306 10.4977 16.9758 10.4977 17.0315C10.4977 17.0872 10.5486 17.1324 10.6114 17.1324Z" fill="black"/>
<path d="M10.9832 17.0306C10.9832 17.0306 11.0245 17.0306 11.0348 17.0306C11.0142 17.0235 10.9625 17.0306 10.9832 17.0306Z" fill="black"/>
<path d="M10.8695 16.9581C10.7972 16.9765 10.8799 16.9673 10.8592 16.9765H10.8386L10.9005 16.9673C10.8902 16.9673 10.8489 16.9673 10.8695 16.9581Z" fill="black"/>
<path d="M11.0141 16.894C10.9832 16.9011 10.9832 16.894 11.0141 16.894C11.0038 16.9011 11.0038 16.894 11.0141 16.894C11.0141 16.894 11.0038 16.894 11.0141 16.894Z" fill="black"/>
<path d="M11.0142 16.8938C11.0142 16.9025 11.0393 16.8851 11.0142 16.8938V16.8938Z" fill="black"/>
<path d="M10.9832 16.8756H11.0142C11.0245 16.8664 11.0245 16.8572 11.0452 16.8572C11.0245 16.8572 11.0039 16.8664 10.9832 16.8756Z" fill="black"/>
<path d="M10.9315 16.8926H10.9422C10.9529 16.8852 10.9529 16.8852 10.9315 16.8926Z" fill="black"/>
<path d="M10.9729 16.894H10.9522C10.9419 16.9011 10.9212 16.9082 10.9625 16.894C10.9315 16.9011 10.9522 16.894 10.9729 16.894Z" fill="black"/>
<path d="M10.9625 16.894C10.9522 16.9031 10.9419 16.9123 10.9109 16.9123C10.9315 16.9215 10.9729 16.9031 10.9625 16.894Z" fill="black"/>
<path d="M10.7973 16.9765L10.7766 16.9836L10.7973 16.9765C10.7869 16.9836 10.8179 16.9765 10.7973 16.9765Z" fill="black"/>
<path d="M10.9935 16.8206C10.9832 16.8297 10.9626 16.8389 10.9419 16.8481H10.9626C10.9626 16.8389 10.9729 16.8297 10.9935 16.8206Z" fill="black"/>
<path d="M10.9419 16.8572L10.9109 16.8644C10.9109 16.8644 10.9315 16.8572 10.9419 16.8572Z" fill="black"/>
<path d="M10.8593 16.9194C10.8799 16.9123 10.9006 16.9123 10.9109 16.9123C10.8902 16.9123 10.8799 16.9194 10.8593 16.9194Z" fill="black"/>
<path d="M10.9729 16.7931L11.0039 16.7747L10.9522 16.8022L10.9729 16.7931Z" fill="black"/>
<path d="M10.9522 16.7839C10.9832 16.7655 10.9832 16.7472 11.0039 16.7472C10.9935 16.7472 10.9729 16.7564 10.9522 16.7655C10.9625 16.7564 10.9625 16.7564 10.9522 16.7839Z" fill="black"/>
<path d="M10.9212 16.7747C10.9315 16.7747 10.9419 16.7655 10.9522 16.7564C10.9419 16.7564 10.9315 16.7655 10.9212 16.7747Z" fill="black"/>
<path d="M10.9109 16.8481C10.9212 16.8389 10.9419 16.8297 10.9419 16.8206L10.9109 16.8481Z" fill="black"/>
<path d="M10.8902 16.894C10.8696 16.9031 10.8386 16.9123 10.8076 16.9306C10.8386 16.9215 10.8489 16.9031 10.8902 16.894Z" fill="black"/>
<path d="M10.8696 16.8756V16.8848C10.8799 16.8756 10.8902 16.8664 10.9006 16.8664L10.8696 16.8756Z" fill="black"/>
<path d="M10.8593 16.883L10.8699 16.8756L10.8593 16.883Z" fill="black"/>
<path d="M10.9006 16.8114C10.8799 16.8206 10.8799 16.8206 10.8696 16.8206C10.8696 16.8297 10.8696 16.8389 10.8696 16.8389C10.8902 16.8206 10.9109 16.8114 10.9006 16.8114Z" fill="black"/>
<path d="M10.8696 16.8374C10.8696 16.8445 10.8799 16.8374 10.8902 16.8374C10.8799 16.8302 10.8799 16.8302 10.8696 16.8374Z" fill="black"/>
<path d="M10.9005 16.7747C10.9005 16.7839 10.8902 16.7839 10.8902 16.7931C10.8902 16.7839 10.9005 16.7747 10.9005 16.7747Z" fill="black"/>
<path d="M10.9109 16.8198C10.9183 16.8124 10.9109 16.8198 10.9109 16.8198V16.8198Z" fill="black"/>
<path d="M10.9109 16.8206C10.9005 16.8206 10.8902 16.8277 10.8902 16.8277C10.8902 16.8277 10.8902 16.8277 10.9109 16.8206C10.9005 16.8277 10.9109 16.8206 10.9109 16.8206Z" fill="black"/>
<path d="M10.663 16.9765C10.6836 16.949 10.7146 16.9215 10.6836 16.9581C10.7043 16.9398 10.7972 16.8481 10.8386 16.7931C10.8282 16.8022 10.8179 16.8114 10.7972 16.8297C10.7869 16.8481 10.7766 16.8756 10.7456 16.8939C10.7249 16.9031 10.7559 16.8848 10.7663 16.8664C10.7353 16.9031 10.7146 16.9123 10.6733 16.9673L10.694 16.949C10.6733 16.9581 10.663 16.9673 10.663 16.9765Z" fill="black"/>
<path d="M10.8489 16.8022C10.8592 16.7931 10.8695 16.7839 10.8799 16.7564C10.8592 16.7655 10.8489 16.7747 10.8386 16.7839L10.8489 16.8022Z" fill="black"/>
<path d="M10.8592 16.8114C10.8283 16.8389 10.8076 16.8481 10.7766 16.8756C10.7869 16.8756 10.8076 16.8573 10.8283 16.8481C10.8076 16.8481 10.8489 16.8389 10.8592 16.8114H10.8696C10.8696 16.8022 10.8696 16.8022 10.8799 16.7931C10.8799 16.7931 10.8696 16.8022 10.8799 16.7931C10.8696 16.8022 10.8696 16.8114 10.8592 16.8114C10.8592 16.8022 10.8696 16.8022 10.8696 16.8022C10.8592 16.8022 10.8489 16.8022 10.8386 16.8114C10.8489 16.8114 10.8592 16.8114 10.8592 16.8114Z" fill="black"/>
<path d="M10.7456 16.9581C10.7559 16.9581 10.7663 16.949 10.7663 16.949C10.7559 16.9581 10.7456 16.9581 10.7353 16.9673C10.7456 16.9581 10.7663 16.9581 10.7766 16.9398H10.7663C10.7766 16.9306 10.8179 16.9031 10.8283 16.894C10.7973 16.9215 10.7766 16.9398 10.7456 16.9581Z" fill="black"/>
<path d="M10.8076 16.894L10.7869 16.9031L10.7559 16.9306L10.7766 16.9215C10.7662 16.9215 10.7869 16.9031 10.8076 16.894Z" fill="black"/>
<path d="M10.8592 16.7747L10.8902 16.738L10.8386 16.7839L10.8592 16.7747Z" fill="black"/>
<path d="M10.8386 16.7656L10.8592 16.738L10.8489 16.7564L10.8386 16.7656Z" fill="black"/>
<path d="M10.4254 16.7564C10.4048 16.7289 10.3635 16.6922 10.3841 16.7197L10.4151 16.7564C10.4048 16.7472 10.4151 16.7472 10.4254 16.7564Z" fill="black"/>
<path d="M10.5184 17.0111H10.5287C10.5184 17.0111 10.4977 17.004 10.4874 17.004C10.4977 17.0111 10.508 17.0111 10.5184 17.0111Z" fill="black"/>
<path d="M10.663 16.7197C10.663 16.7013 10.6526 16.6922 10.6526 16.6922C10.663 16.7197 10.663 16.7472 10.663 16.7197Z" fill="black"/>
<path d="M10.3118 17.1762C10.3221 17.1762 10.3324 17.1691 10.3324 17.1691C10.3324 17.1691 10.3221 17.1691 10.3118 17.1762Z" fill="black"/>
<path d="M10.6423 16.6922V16.7013C10.6423 16.6922 10.6527 16.6922 10.6527 16.6922C10.6527 16.6738 10.6527 16.6647 10.6423 16.6922Z" fill="black"/>
<path d="M10.7146 16.8664C10.7146 16.8664 10.7043 16.8756 10.7043 16.8848C10.7146 16.8756 10.7146 16.8664 10.7146 16.8664Z" fill="black"/>
<path d="M10.7869 16.7195C10.7995 16.7195 10.7995 16.7108 10.7869 16.7195V16.7195Z" fill="black"/>
<path d="M10.6114 17.0315L10.5907 17.0132L10.6114 17.0315Z" fill="black"/>
<path d="M10.6113 17.0315C10.6217 17.0315 10.6217 17.0315 10.6113 17.0315H10.5907C10.5597 17.0315 10.539 17.0223 10.5184 17.0132C10.4977 17.0132 10.4771 17.004 10.4667 17.004C10.4564 17.004 10.4461 16.9948 10.4357 16.9948C10.4461 16.9948 10.4667 17.004 10.4977 17.004C10.4874 17.004 10.4874 17.004 10.4874 17.004C10.508 17.004 10.5494 17.0132 10.5803 17.0223C10.57 17.0223 10.5494 17.0223 10.539 17.0132C10.5597 17.0223 10.5907 17.0223 10.6113 17.0315H10.601C10.5597 17.0223 10.5287 17.004 10.5184 16.9948C10.5494 17.004 10.57 17.0132 10.6113 17.0315C10.601 17.0315 10.601 17.0223 10.5907 17.0132L10.6113 17.0315L10.57 16.9948C10.5287 16.9673 10.4977 16.9306 10.4667 16.9031C10.508 16.9398 10.5907 17.0132 10.6113 17.0315L10.5907 17.0132C10.6113 17.0223 10.6113 17.0315 10.6113 17.0315C10.601 17.0223 10.601 17.0223 10.601 17.0132C10.5907 17.004 10.5907 17.004 10.5907 17.004L10.6113 17.0315L10.5907 17.0132C10.601 17.0132 10.6113 17.0223 10.6113 17.0315C10.5803 16.9948 10.5597 16.9673 10.57 16.9673C10.5803 16.9765 10.5907 17.004 10.6113 17.0315C10.6217 17.0315 10.6113 17.0315 10.6113 17.0315C10.601 17.0132 10.5803 16.9857 10.57 16.9581C10.539 16.9031 10.508 16.8481 10.508 16.8298L10.5287 16.8573C10.5287 16.8481 10.5184 16.8298 10.5184 16.8206C10.5287 16.8573 10.5597 16.9123 10.5803 16.9673C10.5907 16.9765 10.5907 16.9948 10.601 17.004C10.601 17.0132 10.6113 17.0223 10.6113 17.0315C10.601 17.0223 10.601 17.0132 10.601 17.004C10.601 16.9948 10.5907 16.9857 10.601 16.9948C10.601 17.004 10.6113 17.0223 10.6113 17.0315C10.6113 17.0223 10.601 16.9948 10.5907 16.9765C10.57 16.9123 10.5494 16.8389 10.5494 16.8206C10.5494 16.8206 10.5803 16.8848 10.5907 16.9215C10.601 16.949 10.6113 17.004 10.6113 17.0315C10.6113 17.0132 10.6113 16.9857 10.601 16.9581C10.601 16.9306 10.601 16.894 10.601 16.8848C10.601 16.9031 10.601 16.9215 10.601 16.9306C10.6113 16.9398 10.6113 16.9673 10.6113 16.9673C10.6217 16.9857 10.6217 17.004 10.6113 17.0315C10.6113 17.0223 10.6113 17.004 10.6113 17.004C10.6113 17.0499 10.6113 17.0223 10.6113 17.0315C10.6113 17.0223 10.6113 17.0132 10.6217 17.004C10.632 16.949 10.6217 16.9948 10.6217 17.0132C10.632 16.9398 10.6423 16.8573 10.663 16.8206C10.6733 16.8022 10.6527 16.8664 10.663 16.8573C10.6733 16.8756 10.7146 16.7289 10.7146 16.7839C10.7043 16.8298 10.6733 16.8756 10.663 16.9123C10.6527 16.9306 10.663 16.8848 10.663 16.8848V16.9123C10.6527 16.9306 10.6527 16.9398 10.6527 16.9215C10.6423 16.9673 10.663 16.9306 10.6527 16.9765C10.663 16.9581 10.6733 16.949 10.6836 16.9306L10.6733 16.9398C10.694 16.9031 10.7043 16.894 10.7146 16.8756C10.7353 16.8481 10.7663 16.8114 10.7559 16.8389L10.725 16.8848C10.7353 16.8664 10.7353 16.8573 10.725 16.8664C10.7456 16.8481 10.694 16.9398 10.7353 16.8756L10.7559 16.8389C10.7766 16.8206 10.8179 16.7747 10.8179 16.7931C10.8489 16.7472 10.8076 16.7931 10.8489 16.738C10.8076 16.8114 10.8282 16.7197 10.7869 16.8022C10.8282 16.738 10.7973 16.7656 10.8179 16.7105C10.8076 16.7289 10.8076 16.7472 10.7973 16.7289C10.7973 16.7289 10.7869 16.738 10.7869 16.7472C10.7869 16.7564 10.7766 16.7656 10.7766 16.7747C10.7559 16.8114 10.7456 16.8022 10.725 16.8206C10.725 16.8114 10.7353 16.8022 10.7456 16.7839L10.725 16.8114C10.7456 16.7747 10.7456 16.7472 10.7663 16.7289L10.7559 16.7197C10.7559 16.6922 10.7559 16.683 10.7353 16.7014C10.7353 16.6922 10.7043 16.738 10.725 16.7105C10.7146 16.7197 10.7043 16.7197 10.7043 16.7289V16.7197C10.6836 16.7105 10.663 16.7839 10.6527 16.7105C10.6423 16.7197 10.6423 16.7289 10.632 16.7197V16.683C10.6217 16.6922 10.601 16.6463 10.601 16.683C10.5803 16.5913 10.5597 16.6647 10.539 16.6555L10.5494 16.7014C10.539 16.7014 10.5287 16.7197 10.5287 16.738L10.539 16.7747C10.539 16.8114 10.508 16.7564 10.4977 16.7656C10.4874 16.7472 10.4977 16.7564 10.508 16.7656C10.4771 16.7289 10.4771 16.7472 10.4771 16.7656C10.4771 16.7839 10.4874 16.8114 10.4564 16.7839C10.4564 16.8022 10.4564 16.7931 10.4461 16.7839C10.4357 16.7747 10.4357 16.7747 10.4254 16.7656C10.4357 16.7747 10.4357 16.7839 10.4461 16.7839C10.4461 16.7839 10.4461 16.7931 10.4461 16.8022L10.4151 16.7656C10.4048 16.7564 10.4254 16.7839 10.4461 16.8114C10.4461 16.8206 10.4564 16.8298 10.4564 16.8389C10.4048 16.7839 10.4667 16.8664 10.4151 16.8022C10.4357 16.8298 10.4151 16.8389 10.4771 16.894C10.4667 16.8848 10.4667 16.8848 10.4667 16.8848C10.4564 16.8756 10.4461 16.8756 10.4667 16.894L10.4254 16.8573C10.4461 16.8756 10.4564 16.894 10.4771 16.9123C10.4461 16.894 10.4254 16.8756 10.3944 16.8481C10.4357 16.9031 10.4048 16.8756 10.4564 16.9215L10.4254 16.894C10.4254 16.894 10.4667 16.9306 10.4357 16.9123C10.3634 16.8756 10.4048 16.9306 10.3324 16.9215C10.4461 16.9581 10.2808 16.9123 10.3634 16.949C10.3324 16.9398 10.3221 16.9398 10.3015 16.9306C10.3221 16.949 10.2498 16.9398 10.3221 16.9673C10.2911 16.9581 10.2808 16.9581 10.2705 16.949C10.2808 16.949 10.2911 16.9581 10.2808 16.9581C10.2601 16.9581 10.2601 16.949 10.2498 16.949C10.2498 16.9673 10.3324 16.9857 10.4151 17.004C10.3738 17.004 10.3841 17.004 10.4357 17.0132C10.4048 17.0132 10.3841 17.0132 10.3738 17.004C10.3738 17.004 10.3324 17.0223 10.3944 17.0315C10.3738 17.0315 10.3841 17.0315 10.3944 17.0407C10.3944 17.0499 10.3841 17.0499 10.3944 17.059H10.4048C10.4874 17.059 10.4254 17.0682 10.4357 17.0682H10.4254C10.3738 17.0865 10.4564 17.0682 10.3841 17.0865L10.4357 17.0774C10.539 17.0682 10.3738 17.0957 10.4151 17.0957L10.4461 17.0865C10.4771 17.0774 10.3118 17.1232 10.3015 17.1324C10.2911 17.1324 10.2911 17.1324 10.2808 17.1324C10.2292 17.1599 10.3428 17.1232 10.3634 17.1232C10.3324 17.1324 10.2808 17.1416 10.2705 17.1507C10.2498 17.1691 10.3841 17.1416 10.3324 17.1691C10.3531 17.1599 10.3841 17.1507 10.4048 17.1416C10.4151 17.1416 10.3221 17.1966 10.4048 17.1691C10.3944 17.1691 10.3944 17.1783 10.3841 17.1783C10.4048 17.1691 10.4254 17.1782 10.4667 17.1599C10.3944 17.2058 10.4254 17.1966 10.4461 17.1966C10.4667 17.1874 10.4874 17.1783 10.4357 17.2241L10.4564 17.2333L10.4461 17.2424C10.4461 17.2608 10.4771 17.2333 10.508 17.2149C10.4977 17.2241 10.4874 17.2333 10.4874 17.2333C10.4771 17.2608 10.4874 17.2608 10.539 17.2149L10.508 17.2516C10.5287 17.2333 10.4874 17.325 10.5287 17.2883C10.5287 17.2883 10.5184 17.2975 10.5184 17.3066C10.539 17.2883 10.539 17.3158 10.539 17.3433C10.539 17.3617 10.5494 17.3708 10.5803 17.2883C10.5907 17.2791 10.601 17.2608 10.601 17.2516C10.5907 17.2333 10.6217 17.1874 10.632 17.1599C10.632 17.1507 10.6217 17.2058 10.6217 17.2149V17.2058C10.5907 17.2883 10.632 17.2424 10.6113 17.2975C10.6423 17.2975 10.663 17.3433 10.7043 17.3433L10.694 17.2791H10.7043C10.7043 17.2975 10.7146 17.3342 10.7043 17.325C10.7146 17.3617 10.7146 17.2883 10.7043 17.2791C10.725 17.3066 10.7146 17.3617 10.7146 17.3617L10.725 17.3525V17.3433C10.725 17.3158 10.7146 17.2883 10.725 17.2883C10.7353 17.2975 10.7353 17.325 10.7456 17.3342C10.7456 17.3433 10.7456 17.3433 10.7456 17.3342H10.7663L10.7456 17.2883C10.7456 17.2608 10.7559 17.2883 10.7353 17.2333C10.7766 17.3158 10.7869 17.2516 10.8076 17.2791C10.7973 17.2424 10.7973 17.2424 10.8076 17.2424C10.7973 17.2333 10.7663 17.1874 10.7766 17.1874C10.8489 17.2883 10.8179 17.2241 10.8799 17.2975C10.8386 17.2516 10.8902 17.27 10.8179 17.2149C10.8282 17.2149 10.8489 17.2516 10.8799 17.27C10.8592 17.2241 10.9315 17.27 10.9315 17.2424C10.9212 17.2333 10.8902 17.2149 10.8696 17.2058C10.9006 17.2241 10.9212 17.2333 10.9522 17.2424C10.9522 17.2333 10.8696 17.1874 10.9212 17.2149C10.9109 17.2058 10.8902 17.1966 10.8799 17.1966C10.9315 17.2058 10.9212 17.1782 10.9212 17.1599C10.9212 17.1416 10.9212 17.1324 11.0142 17.1232C10.9832 17.1232 10.9729 17.1232 10.9729 17.1141C10.9625 17.1141 10.9315 17.1049 10.9006 17.1049C10.9212 17.1049 10.9522 17.1049 10.9729 17.0957C10.9006 17.0865 10.9729 17.0774 10.9006 17.0774H10.9109C10.8696 17.0774 10.8282 17.0774 10.7869 17.0774C10.7663 17.0774 10.7456 17.0774 10.7146 17.0774C10.6527 17.0315 10.632 17.0315 10.6113 17.0315C10.6217 17.0315 10.6113 17.0315 10.6113 17.0315C10.6217 17.0315 10.6113 17.0315 10.6113 17.0315C10.6113 17.0223 10.6217 17.059 10.6217 17.059C10.6217 17.0499 10.6217 17.0407 10.6113 17.0315C10.6113 17.0407 10.6217 17.0499 10.6217 17.0499C10.6217 17.059 10.632 17.0682 10.6217 17.0682C10.632 17.0682 10.6113 17.0315 10.6113 17.0315C10.6113 17.0407 10.6113 17.0407 10.6113 17.0499C10.6113 17.0682 10.6113 17.0774 10.6113 17.059C10.6217 17.0499 10.6113 17.0407 10.6113 17.0315ZM10.6113 17.0315C10.6217 17.0315 10.6113 17.0315 10.601 17.0315C10.5907 17.0315 10.601 17.0315 10.6113 17.0315ZM10.725 16.738C10.725 16.7197 10.725 16.7289 10.725 16.738V16.738ZM10.7353 16.7564C10.7353 16.7472 10.7456 16.7472 10.7456 16.738C10.7353 16.7472 10.7353 16.7472 10.7353 16.7472C10.725 16.7564 10.725 16.7656 10.7353 16.7564ZM10.694 17.2975V17.2883C10.6836 17.2791 10.6836 17.2883 10.694 17.2975Z" fill="black"/>
<path d="M10.8283 16.7197L10.8179 16.7289C10.8179 16.7289 10.8179 16.738 10.8179 16.7472C10.8283 16.7289 10.8283 16.7197 10.8283 16.7197Z" fill="black"/>
<path d="M10.6837 16.9581C10.694 16.9581 10.6837 16.9581 10.6837 16.9581L10.7043 16.9398C10.7043 16.9398 10.694 16.9581 10.6837 16.9581Z" fill="black"/>
<path d="M10.7456 16.8481C10.725 16.8756 10.7353 16.8664 10.7456 16.8664C10.7766 16.8206 10.7663 16.8298 10.7456 16.8481Z" fill="black"/>
<path d="M10.7456 16.8643C10.7456 16.857 10.7563 16.857 10.7456 16.8643C10.767 16.8496 10.7563 16.857 10.7456 16.8643Z" fill="black"/>
<path d="M10.7559 16.738C10.7559 16.7472 10.7766 16.6922 10.7766 16.7105C10.7972 16.6646 10.7353 16.7564 10.7559 16.738Z" fill="black"/>
<path d="M10.6733 16.949L10.7043 16.9123L10.6837 16.9398L10.6733 16.949Z" fill="black"/>
<path d="M10.6837 16.9119C10.6837 16.9119 10.6962 16.9119 10.6837 16.9119C10.6962 16.9032 10.6962 16.9032 10.6837 16.9119Z" fill="black"/>
<path d="M10.663 16.9563L10.6736 16.949L10.663 16.9563Z" fill="black"/>
<path d="M10.6423 16.894L10.632 16.9031C10.632 16.9215 10.632 16.9306 10.632 16.9215C10.6423 16.9123 10.6423 16.9031 10.6423 16.894Z" fill="black"/>
<path d="M10.6216 17.0132C10.6216 17.004 10.632 16.9948 10.632 16.9765L10.6216 17.0223V17.0132Z" fill="black"/>
<path d="M10.601 16.9581L10.5803 16.8664L10.601 16.9581Z" fill="black"/>
<path d="M10.9832 17.0478L11.0038 17.0407L10.9625 17.0478H10.9832Z" fill="black"/>
<path d="M10.6114 9.3654C10.6741 9.3654 10.725 9.32023 10.725 9.26452C10.725 9.2088 10.6741 9.16364 10.6114 9.16364C10.5486 9.16364 10.4977 9.2088 10.4977 9.26452C10.4977 9.32023 10.5486 9.3654 10.6114 9.3654Z" fill="black"/>
<path d="M10.9832 9.26361C10.9832 9.26361 11.0245 9.26361 11.0348 9.26361C11.0142 9.25647 10.9625 9.26361 10.9832 9.26361Z" fill="black"/>
<path d="M10.8695 9.19116C10.7972 9.2095 10.8799 9.20033 10.8592 9.2095H10.8386L10.9005 9.20033C10.8902 9.20033 10.8489 9.20033 10.8695 9.19116Z" fill="black"/>
<path d="M11.0141 9.12695C10.9832 9.13409 10.9832 9.12695 11.0141 9.12695C11.0038 9.13409 11.0038 9.12695 11.0141 9.12695C11.0141 9.12695 11.0038 9.12695 11.0141 9.12695Z" fill="black"/>
<path d="M11.0142 9.12684C11.0142 9.13553 11.0393 9.11814 11.0142 9.12684V9.12684Z" fill="black"/>
<path d="M10.9832 9.10861H11.0142C11.0245 9.09944 11.0245 9.09027 11.0452 9.09027C11.0245 9.09027 11.0039 9.09944 10.9832 9.10861Z" fill="black"/>
<path d="M10.9315 9.12561H10.9422C10.9529 9.11824 10.9529 9.11824 10.9315 9.12561Z" fill="black"/>
<path d="M10.9729 9.12695H10.9522C10.9419 9.13409 10.9212 9.14122 10.9625 9.12695C10.9315 9.13409 10.9522 9.12695 10.9729 9.12695Z" fill="black"/>
<path d="M10.9625 9.12695C10.9522 9.13612 10.9419 9.14529 10.9109 9.14529C10.9315 9.15447 10.9729 9.13612 10.9625 9.12695Z" fill="black"/>
<path d="M10.7973 9.2095L10.7766 9.21664L10.7973 9.2095C10.7869 9.21664 10.8179 9.2095 10.7973 9.2095Z" fill="black"/>
<path d="M10.9935 9.05359C10.9832 9.06276 10.9626 9.07193 10.9419 9.0811H10.9626C10.9626 9.07193 10.9729 9.06276 10.9935 9.05359Z" fill="black"/>
<path d="M10.9419 9.09027L10.9109 9.0974C10.9109 9.0974 10.9315 9.09027 10.9419 9.09027Z" fill="black"/>
<path d="M10.8593 9.15246C10.8799 9.14533 10.9006 9.14532 10.9109 9.14532C10.8902 9.14532 10.8799 9.15246 10.8593 9.15246Z" fill="black"/>
<path d="M10.9729 9.02609L11.0039 9.00775L10.9522 9.03526L10.9729 9.02609Z" fill="black"/>
<path d="M10.9522 9.01691C10.9832 8.99857 10.9832 8.98022 11.0039 8.98022C10.9935 8.98022 10.9729 8.9894 10.9522 8.99857C10.9625 8.9894 10.9625 8.9894 10.9522 9.01691Z" fill="black"/>
<path d="M10.9212 9.00775C10.9315 9.00775 10.9419 8.99858 10.9522 8.98941C10.9419 8.98941 10.9315 8.99858 10.9212 9.00775Z" fill="black"/>
<path d="M10.9109 9.0811C10.9212 9.07193 10.9419 9.06276 10.9419 9.05359L10.9109 9.0811Z" fill="black"/>
<path d="M10.8902 9.12695C10.8696 9.13612 10.8386 9.14529 10.8076 9.16364C10.8386 9.15447 10.8489 9.13612 10.8902 9.12695Z" fill="black"/>
<path d="M10.8696 9.10863V9.1178C10.8799 9.10863 10.8902 9.09946 10.9006 9.09946L10.8696 9.10863Z" fill="black"/>
<path d="M10.8593 9.11601L10.8699 9.10864L10.8593 9.11601Z" fill="black"/>
<path d="M10.9006 9.04443C10.8799 9.0536 10.8799 9.0536 10.8696 9.0536C10.8696 9.06277 10.8696 9.07195 10.8696 9.07195C10.8902 9.0536 10.9109 9.04443 10.9006 9.04443Z" fill="black"/>
<path d="M10.8696 9.07041C10.8696 9.07755 10.8799 9.07041 10.8902 9.07041C10.8799 9.06328 10.8799 9.06328 10.8696 9.07041Z" fill="black"/>
<path d="M10.9005 9.00775C10.9005 9.01692 10.8902 9.01692 10.8902 9.02609C10.8902 9.01692 10.9005 9.00775 10.9005 9.00775Z" fill="black"/>
<path d="M10.9109 9.05278C10.9183 9.0454 10.9109 9.05278 10.9109 9.05278V9.05278Z" fill="black"/>
<path d="M10.9109 9.05359C10.9005 9.05359 10.8902 9.06072 10.8902 9.06072C10.8902 9.06072 10.8902 9.06072 10.9109 9.05359C10.9005 9.06072 10.9109 9.05359 10.9109 9.05359Z" fill="black"/>
<path d="M10.663 9.20951C10.6836 9.182 10.7146 9.15449 10.6836 9.19117C10.7043 9.17283 10.7972 9.08112 10.8386 9.02609C10.8282 9.03526 10.8179 9.04444 10.7972 9.06278C10.7869 9.08112 10.7766 9.10863 10.7456 9.12697C10.7249 9.13614 10.7559 9.1178 10.7663 9.09946C10.7353 9.13614 10.7146 9.14532 10.6733 9.20034L10.694 9.182C10.6733 9.19117 10.663 9.20034 10.663 9.20951Z" fill="black"/>
<path d="M10.8489 9.03526C10.8592 9.02609 10.8695 9.01692 10.8799 8.98941C10.8592 8.99858 10.8489 9.00775 10.8386 9.01692L10.8489 9.03526Z" fill="black"/>
<path d="M10.8592 9.04444C10.8283 9.07195 10.8076 9.08112 10.7766 9.10863C10.7869 9.10863 10.8076 9.09029 10.8283 9.08112C10.8076 9.08112 10.8489 9.07195 10.8592 9.04444H10.8696C10.8696 9.03526 10.8696 9.03526 10.8799 9.02609C10.8799 9.02609 10.8696 9.03526 10.8799 9.02609C10.8696 9.03526 10.8696 9.04444 10.8592 9.04444C10.8592 9.03526 10.8696 9.03526 10.8696 9.03526C10.8592 9.03526 10.8489 9.03526 10.8386 9.04444C10.8489 9.04444 10.8592 9.04444 10.8592 9.04444Z" fill="black"/>
<path d="M10.7456 9.19115C10.7559 9.19115 10.7663 9.18198 10.7663 9.18198C10.7559 9.19115 10.7456 9.19115 10.7353 9.20032C10.7456 9.19115 10.7663 9.19115 10.7766 9.17281H10.7663C10.7766 9.16364 10.8179 9.13612 10.8283 9.12695C10.7973 9.15447 10.7766 9.17281 10.7456 9.19115Z" fill="black"/>
<path d="M10.8076 9.12695L10.7869 9.13612L10.7559 9.16364L10.7766 9.15447C10.7662 9.15447 10.7869 9.13612 10.8076 9.12695Z" fill="black"/>
<path d="M10.8592 9.00775L10.8902 8.97107L10.8386 9.01692L10.8592 9.00775Z" fill="black"/>
<path d="M10.8386 8.99858L10.8592 8.97107L10.8489 8.98941L10.8386 8.99858Z" fill="black"/>
<path d="M10.4254 8.98939C10.4048 8.96188 10.3635 8.92519 10.3841 8.95271L10.4151 8.98939C10.4048 8.98022 10.4151 8.98022 10.4254 8.98939Z" fill="black"/>
<path d="M10.5184 9.24416H10.5287C10.5184 9.24416 10.4977 9.23703 10.4874 9.23703C10.4977 9.24416 10.508 9.24416 10.5184 9.24416Z" fill="black"/>
<path d="M10.663 8.95271C10.663 8.93437 10.6526 8.9252 10.6526 8.9252C10.663 8.95271 10.663 8.98023 10.663 8.95271Z" fill="black"/>
<path d="M10.3118 9.40923C10.3221 9.40923 10.3324 9.4021 10.3324 9.4021C10.3324 9.4021 10.3221 9.4021 10.3118 9.40923Z" fill="black"/>
<path d="M10.6423 8.9252V8.93437C10.6423 8.9252 10.6527 8.9252 10.6527 8.9252C10.6527 8.90686 10.6527 8.89769 10.6423 8.9252Z" fill="black"/>
<path d="M10.7146 9.09946C10.7146 9.09946 10.7043 9.10863 10.7043 9.1178C10.7146 9.10863 10.7146 9.09946 10.7146 9.09946Z" fill="black"/>
<path d="M10.7869 8.95253C10.7995 8.95253 10.7995 8.94384 10.7869 8.95253V8.95253Z" fill="black"/>
<path d="M10.6114 9.26453L10.5907 9.24619L10.6114 9.26453Z" fill="black"/>
<path d="M10.6113 9.26452C10.6217 9.26452 10.6217 9.26452 10.6113 9.26452H10.5907C10.5597 9.26452 10.539 9.25535 10.5184 9.24618C10.4977 9.24618 10.4771 9.237 10.4667 9.237C10.4564 9.237 10.4461 9.22783 10.4357 9.22783C10.4461 9.22783 10.4667 9.237 10.4977 9.237C10.4874 9.237 10.4874 9.237 10.4874 9.237C10.508 9.237 10.5494 9.24617 10.5803 9.25535C10.57 9.25535 10.5494 9.25535 10.539 9.24618C10.5597 9.25535 10.5907 9.25535 10.6113 9.26452H10.601C10.5597 9.25535 10.5287 9.237 10.5184 9.22783C10.5494 9.237 10.57 9.24617 10.6113 9.26452C10.601 9.26452 10.601 9.25535 10.5907 9.24618L10.6113 9.26452L10.57 9.22783C10.5287 9.20032 10.4977 9.16364 10.4667 9.13612C10.508 9.17281 10.5907 9.24617 10.6113 9.26452L10.5907 9.24618C10.6113 9.25535 10.6113 9.26452 10.6113 9.26452C10.601 9.25535 10.601 9.25535 10.601 9.24618C10.5907 9.237 10.5907 9.237 10.5907 9.237L10.6113 9.26452L10.5907 9.24618C10.601 9.24618 10.6113 9.25535 10.6113 9.26452C10.5803 9.22783 10.5597 9.20032 10.57 9.20032C10.5803 9.20949 10.5907 9.237 10.6113 9.26452C10.6217 9.26452 10.6113 9.26452 10.6113 9.26452C10.601 9.24617 10.5803 9.21866 10.57 9.19115C10.539 9.13612 10.508 9.0811 10.508 9.06276L10.5287 9.09027C10.5287 9.0811 10.5184 9.06276 10.5184 9.05359C10.5287 9.09027 10.5597 9.1453 10.5803 9.20032C10.5907 9.20949 10.5907 9.22783 10.601 9.237C10.601 9.24617 10.6113 9.25535 10.6113 9.26452C10.601 9.25535 10.601 9.24617 10.601 9.237C10.601 9.22783 10.5907 9.21866 10.601 9.22783C10.601 9.237 10.6113 9.25535 10.6113 9.26452C10.6113 9.25535 10.601 9.22783 10.5907 9.20949C10.57 9.14529 10.5494 9.07193 10.5494 9.05359C10.5494 9.05359 10.5803 9.11778 10.5907 9.15447C10.601 9.18198 10.6113 9.237 10.6113 9.26452C10.6113 9.24617 10.6113 9.21866 10.601 9.19115C10.601 9.16364 10.601 9.12695 10.601 9.11778C10.601 9.13612 10.601 9.15447 10.601 9.16364C10.6113 9.17281 10.6113 9.20032 10.6113 9.20032C10.6217 9.21866 10.6217 9.237 10.6113 9.26452C10.6113 9.25535 10.6113 9.237 10.6113 9.237C10.6113 9.28286 10.6113 9.25535 10.6113 9.26452C10.6113 9.25535 10.6113 9.24617 10.6217 9.237C10.632 9.18198 10.6217 9.22783 10.6217 9.24618C10.632 9.17281 10.6423 9.09027 10.663 9.05359C10.6733 9.03524 10.6527 9.09944 10.663 9.09027C10.6733 9.10861 10.7146 8.96188 10.7146 9.0169C10.7043 9.06276 10.6733 9.10861 10.663 9.14529C10.6527 9.16364 10.663 9.11778 10.663 9.11778V9.14529C10.6527 9.16364 10.6527 9.17281 10.6527 9.15447C10.6423 9.20032 10.663 9.16364 10.6527 9.20949C10.663 9.19115 10.6733 9.18198 10.6836 9.16364L10.6733 9.17281C10.694 9.13612 10.7043 9.12695 10.7146 9.10861C10.7353 9.0811 10.7663 9.04441 10.7559 9.07193L10.725 9.11778C10.7353 9.09944 10.7353 9.09027 10.725 9.09944C10.7456 9.0811 10.694 9.17281 10.7353 9.10861L10.7559 9.07193C10.7766 9.05359 10.8179 9.00773 10.8179 9.02607C10.8489 8.98022 10.8076 9.02607 10.8489 8.97105C10.8076 9.04442 10.8282 8.95271 10.7869 9.03524C10.8282 8.97105 10.7973 8.99856 10.8179 8.94353C10.8076 8.96188 10.8076 8.98022 10.7973 8.96188C10.7973 8.96188 10.7869 8.97105 10.7869 8.98022C10.7869 8.98939 10.7766 8.99856 10.7766 9.00773C10.7559 9.04441 10.7456 9.03524 10.725 9.05359C10.725 9.04441 10.7353 9.03524 10.7456 9.0169L10.725 9.04442C10.7456 9.00773 10.7456 8.98022 10.7663 8.96188L10.7559 8.95271C10.7559 8.92519 10.7559 8.91602 10.7353 8.93436C10.7353 8.92519 10.7043 8.97105 10.725 8.94353C10.7146 8.95271 10.7043 8.95271 10.7043 8.96188V8.95271C10.6836 8.94354 10.663 9.0169 10.6527 8.94353C10.6423 8.95271 10.6423 8.96188 10.632 8.95271V8.91602C10.6217 8.92519 10.601 8.87934 10.601 8.91602C10.5803 8.82431 10.5597 8.89768 10.539 8.88851L10.5494 8.93436C10.539 8.93436 10.5287 8.95271 10.5287 8.97105L10.539 9.00773C10.539 9.04441 10.508 8.98939 10.4977 8.99856C10.4874 8.98022 10.4977 8.98939 10.508 8.99856C10.4771 8.96188 10.4771 8.98022 10.4771 8.99856C10.4771 9.0169 10.4874 9.04442 10.4564 9.0169C10.4564 9.03524 10.4564 9.02607 10.4461 9.0169C10.4357 9.00773 10.4357 9.00773 10.4254 8.99856C10.4357 9.00773 10.4357 9.0169 10.4461 9.0169C10.4461 9.0169 10.4461 9.02607 10.4461 9.03524L10.4151 8.99856C10.4048 8.98939 10.4254 9.0169 10.4461 9.04442C10.4461 9.05359 10.4564 9.06276 10.4564 9.07193C10.4048 9.0169 10.4667 9.09944 10.4151 9.03524C10.4357 9.06276 10.4151 9.07193 10.4771 9.12695C10.4667 9.11778 10.4667 9.11778 10.4667 9.11778C10.4564 9.10861 10.4461 9.10861 10.4667 9.12695L10.4254 9.09027C10.4461 9.10861 10.4564 9.12695 10.4771 9.14529C10.4461 9.12695 10.4254 9.10861 10.3944 9.0811C10.4357 9.13612 10.4048 9.10861 10.4564 9.15447L10.4254 9.12695C10.4254 9.12695 10.4667 9.16364 10.4357 9.14529C10.3634 9.10861 10.4048 9.16364 10.3324 9.15447C10.4461 9.19115 10.2808 9.1453 10.3634 9.18198C10.3324 9.17281 10.3221 9.17281 10.3015 9.16364C10.3221 9.18198 10.2498 9.17281 10.3221 9.20032C10.2911 9.19115 10.2808 9.19115 10.2705 9.18198C10.2808 9.18198 10.2911 9.19115 10.2808 9.19115C10.2601 9.19115 10.2601 9.18198 10.2498 9.18198C10.2498 9.20032 10.3324 9.21866 10.4151 9.237C10.3738 9.237 10.3841 9.237 10.4357 9.24618C10.4048 9.24618 10.3841 9.24617 10.3738 9.237C10.3738 9.237 10.3324 9.25535 10.3944 9.26452C10.3738 9.26452 10.3841 9.26452 10.3944 9.27369C10.3944 9.28286 10.3841 9.28286 10.3944 9.29203H10.4048C10.4874 9.29203 10.4254 9.3012 10.4357 9.3012H10.4254C10.3738 9.31954 10.4564 9.3012 10.3841 9.31954L10.4357 9.31037C10.539 9.3012 10.3738 9.32871 10.4151 9.32871L10.4461 9.31954C10.4771 9.31037 10.3118 9.35623 10.3015 9.3654C10.2911 9.3654 10.2911 9.3654 10.2808 9.3654C10.2292 9.39291 10.3428 9.35623 10.3634 9.35623C10.3324 9.3654 10.2808 9.37457 10.2705 9.38374C10.2498 9.40208 10.3841 9.37457 10.3324 9.40208C10.3531 9.39291 10.3841 9.38374 10.4048 9.37457C10.4151 9.37457 10.3221 9.42959 10.4048 9.40208C10.3944 9.40208 10.3944 9.41125 10.3841 9.41125C10.4048 9.40208 10.4254 9.41125 10.4667 9.39291C10.3944 9.43876 10.4254 9.42959 10.4461 9.42959C10.4667 9.42042 10.4874 9.41125 10.4357 9.45711L10.4564 9.46628L10.4461 9.47545C10.4461 9.49379 10.4771 9.46628 10.508 9.44793C10.4977 9.45711 10.4874 9.46628 10.4874 9.46628C10.4771 9.49379 10.4874 9.49379 10.539 9.44793L10.508 9.48462C10.5287 9.46628 10.4874 9.55799 10.5287 9.5213C10.5287 9.5213 10.5184 9.53047 10.5184 9.53964C10.539 9.5213 10.539 9.54881 10.539 9.57633C10.539 9.59467 10.5494 9.60384 10.5803 9.5213C10.5907 9.51213 10.601 9.49379 10.601 9.48462C10.5907 9.46628 10.6217 9.42042 10.632 9.39291C10.632 9.38374 10.6217 9.43876 10.6217 9.44793V9.43876C10.5907 9.5213 10.632 9.47545 10.6113 9.53047C10.6423 9.53047 10.663 9.57633 10.7043 9.57633L10.694 9.51213H10.7043C10.7043 9.53047 10.7146 9.56716 10.7043 9.55799C10.7146 9.59467 10.7146 9.5213 10.7043 9.51213C10.725 9.53964 10.7146 9.59467 10.7146 9.59467L10.725 9.5855V9.57633C10.725 9.54881 10.7146 9.5213 10.725 9.5213C10.7353 9.53047 10.7353 9.55799 10.7456 9.56716C10.7456 9.57633 10.7456 9.57633 10.7456 9.56716H10.7663L10.7456 9.5213C10.7456 9.49379 10.7559 9.5213 10.7353 9.46628C10.7766 9.54881 10.7869 9.48462 10.8076 9.51213C10.7973 9.47545 10.7973 9.47545 10.8076 9.47545C10.7973 9.46628 10.7663 9.42042 10.7766 9.42042C10.8489 9.5213 10.8179 9.45711 10.8799 9.53047C10.8386 9.48462 10.8902 9.50296 10.8179 9.44793C10.8282 9.44793 10.8489 9.48462 10.8799 9.50296C10.8592 9.45711 10.9315 9.50296 10.9315 9.47545C10.9212 9.46628 10.8902 9.44793 10.8696 9.43876C10.9006 9.45711 10.9212 9.46628 10.9522 9.47545C10.9522 9.46628 10.8696 9.42042 10.9212 9.44793C10.9109 9.43876 10.8902 9.42959 10.8799 9.42959C10.9315 9.43876 10.9212 9.41125 10.9212 9.39291C10.9212 9.37457 10.9212 9.3654 11.0142 9.35623C10.9832 9.35623 10.9729 9.35623 10.9729 9.34705C10.9625 9.34705 10.9315 9.33788 10.9006 9.33788C10.9212 9.33788 10.9522 9.33788 10.9729 9.32871C10.9006 9.31954 10.9729 9.31037 10.9006 9.31037H10.9109C10.8696 9.31037 10.8282 9.31037 10.7869 9.31037C10.7663 9.31037 10.7456 9.31037 10.7146 9.31037C10.6527 9.26452 10.632 9.26452 10.6113 9.26452C10.6217 9.26452 10.6113 9.26452 10.6113 9.26452C10.6217 9.26452 10.6113 9.26452 10.6113 9.26452C10.6113 9.25535 10.6217 9.29203 10.6217 9.29203C10.6217 9.28286 10.6217 9.27369 10.6113 9.26452C10.6113 9.27369 10.6217 9.28286 10.6217 9.28286C10.6217 9.29203 10.632 9.3012 10.6217 9.3012C10.632 9.3012 10.6113 9.26452 10.6113 9.26452C10.6113 9.27369 10.6113 9.27369 10.6113 9.28286C10.6113 9.3012 10.6113 9.31037 10.6113 9.29203C10.6217 9.28286 10.6113 9.27369 10.6113 9.26452ZM10.6113 9.26452C10.6217 9.26452 10.6113 9.26452 10.601 9.26452C10.5907 9.26452 10.601 9.26452 10.6113 9.26452ZM10.725 8.97105C10.725 8.95271 10.725 8.96188 10.725 8.97105V8.97105ZM10.7353 8.98939C10.7353 8.98022 10.7456 8.98022 10.7456 8.97105C10.7353 8.98022 10.7353 8.98022 10.7353 8.98022C10.725 8.98939 10.725 8.99856 10.7353 8.98939ZM10.694 9.53047V9.5213C10.6836 9.51213 10.6836 9.5213 10.694 9.53047Z" fill="black"/>
<path d="M10.8283 8.9527L10.8179 8.96187C10.8179 8.96187 10.8179 8.97104 10.8179 8.98021C10.8283 8.96187 10.8283 8.9527 10.8283 8.9527Z" fill="black"/>
<path d="M10.6837 9.19116C10.694 9.19116 10.6837 9.19116 10.6837 9.19116L10.7043 9.17282C10.7043 9.17282 10.694 9.19116 10.6837 9.19116Z" fill="black"/>
<path d="M10.7456 9.08113C10.725 9.10864 10.7353 9.09947 10.7456 9.09947C10.7766 9.05362 10.7663 9.06279 10.7456 9.08113Z" fill="black"/>
<path d="M10.7456 9.09738C10.7456 9.09001 10.7563 9.09001 10.7456 9.09738C10.767 9.08264 10.7563 9.09001 10.7456 9.09738Z" fill="black"/>
<path d="M10.7559 8.97105C10.7559 8.98022 10.7766 8.92519 10.7766 8.94353C10.7972 8.89768 10.7353 8.98939 10.7559 8.97105Z" fill="black"/>
<path d="M10.6733 9.18201L10.7043 9.14532L10.6837 9.17284L10.6733 9.18201Z" fill="black"/>
<path d="M10.6837 9.14495C10.6837 9.14495 10.6962 9.14495 10.6837 9.14495C10.6962 9.13625 10.6962 9.13625 10.6837 9.14495Z" fill="black"/>
<path d="M10.663 9.18938L10.6736 9.18201L10.663 9.18938Z" fill="black"/>
<path d="M10.6423 9.12695L10.632 9.13612C10.632 9.15447 10.632 9.16364 10.632 9.15447C10.6423 9.1453 10.6423 9.13612 10.6423 9.12695Z" fill="black"/>
<path d="M10.6216 9.24619C10.6216 9.23702 10.632 9.22784 10.632 9.2095L10.6216 9.25536V9.24619Z" fill="black"/>
<path d="M10.601 9.19117L10.5803 9.09946L10.601 9.19117Z" fill="black"/>
<path d="M10.9832 9.28084L11.0038 9.27371L10.9625 9.28084H10.9832Z" fill="black"/>
<path d="M12.357 13.584C12.4197 13.584 12.4706 13.5389 12.4706 13.4831C12.4706 13.4274 12.4197 13.3823 12.357 13.3823C12.2942 13.3823 12.2433 13.4274 12.2433 13.4831C12.2433 13.5389 12.2942 13.584 12.357 13.584Z" fill="black"/>
<path d="M12.7288 13.4822C12.7288 13.4822 12.7701 13.4822 12.7804 13.4822C12.7598 13.4751 12.7081 13.4822 12.7288 13.4822Z" fill="black"/>
<path d="M12.6152 13.4098C12.5429 13.4281 12.6255 13.419 12.6048 13.4281H12.5842L12.6461 13.419C12.6358 13.419 12.5945 13.419 12.6152 13.4098Z" fill="black"/>
<path d="M12.7598 13.3456C12.7288 13.3527 12.7288 13.3456 12.7598 13.3456C12.7495 13.3527 12.7495 13.3456 12.7598 13.3456C12.7598 13.3456 12.7495 13.3456 12.7598 13.3456Z" fill="black"/>
<path d="M12.7598 13.3455C12.7598 13.3542 12.7849 13.3368 12.7598 13.3455V13.3455Z" fill="black"/>
<path d="M12.7288 13.3272H12.7597C12.7701 13.3181 12.7701 13.3089 12.7907 13.3089C12.7701 13.3089 12.7494 13.3181 12.7288 13.3272Z" fill="black"/>
<path d="M12.6771 13.3442H12.6878C12.6985 13.3369 12.6985 13.3369 12.6771 13.3442Z" fill="black"/>
<path d="M12.7185 13.3456H12.6978C12.6875 13.3527 12.6668 13.3598 12.7081 13.3456C12.6771 13.3527 12.6978 13.3456 12.7185 13.3456Z" fill="black"/>
<path d="M12.7081 13.3456C12.6978 13.3548 12.6875 13.3639 12.6565 13.3639C12.6772 13.3731 12.7185 13.3548 12.7081 13.3456Z" fill="black"/>
<path d="M12.5429 13.4281L12.5222 13.4353L12.5429 13.4281C12.5325 13.4353 12.5635 13.4281 12.5429 13.4281Z" fill="black"/>
<path d="M12.7391 13.2722C12.7288 13.2814 12.7082 13.2906 12.6875 13.2997H12.7082C12.7082 13.2906 12.7185 13.2814 12.7391 13.2722Z" fill="black"/>
<path d="M12.6875 13.3089L12.6565 13.316C12.6565 13.316 12.6772 13.3089 12.6875 13.3089Z" fill="black"/>
<path d="M12.6049 13.3711C12.6255 13.364 12.6462 13.364 12.6565 13.364C12.6358 13.364 12.6255 13.3711 12.6049 13.3711Z" fill="black"/>
<path d="M12.7185 13.2447L12.7495 13.2264L12.6978 13.2539L12.7185 13.2447Z" fill="black"/>
<path d="M12.6978 13.2355C12.7288 13.2172 12.7288 13.1989 12.7495 13.1989C12.7391 13.1989 12.7185 13.208 12.6978 13.2172C12.7081 13.208 12.7081 13.208 12.6978 13.2355Z" fill="black"/>
<path d="M12.6668 13.2264C12.6771 13.2264 12.6875 13.2172 12.6978 13.208C12.6875 13.208 12.6771 13.2172 12.6668 13.2264Z" fill="black"/>
<path d="M12.6565 13.2997C12.6668 13.2906 12.6875 13.2814 12.6875 13.2722L12.6565 13.2997Z" fill="black"/>
<path d="M12.6359 13.3456C12.6152 13.3548 12.5842 13.3639 12.5532 13.3823C12.5842 13.3731 12.5945 13.3548 12.6359 13.3456Z" fill="black"/>
<path d="M12.6152 13.3273V13.3364C12.6255 13.3273 12.6358 13.3181 12.6462 13.3181L12.6152 13.3273Z" fill="black"/>
<path d="M12.6049 13.3346L12.6155 13.3273L12.6049 13.3346Z" fill="black"/>
<path d="M12.6462 13.2631C12.6255 13.2722 12.6255 13.2722 12.6152 13.2722C12.6152 13.2814 12.6152 13.2906 12.6152 13.2906C12.6358 13.2722 12.6565 13.2631 12.6462 13.2631Z" fill="black"/>
<path d="M12.6152 13.289C12.6152 13.2962 12.6255 13.289 12.6358 13.289C12.6255 13.2819 12.6255 13.2819 12.6152 13.289Z" fill="black"/>
<path d="M12.6461 13.2264C12.6461 13.2356 12.6358 13.2356 12.6358 13.2447C12.6358 13.2356 12.6461 13.2264 12.6461 13.2264Z" fill="black"/>
<path d="M12.6565 13.2714C12.6639 13.264 12.6565 13.2714 12.6565 13.2714V13.2714Z" fill="black"/>
<path d="M12.6565 13.2722C12.6461 13.2722 12.6358 13.2794 12.6358 13.2794C12.6358 13.2794 12.6358 13.2793 12.6565 13.2722C12.6461 13.2793 12.6565 13.2722 12.6565 13.2722Z" fill="black"/>
<path d="M12.4086 13.4281C12.4292 13.4006 12.4602 13.3731 12.4292 13.4098C12.4499 13.3915 12.5428 13.2997 12.5842 13.2447C12.5738 13.2539 12.5635 13.2631 12.5428 13.2814C12.5325 13.2997 12.5222 13.3273 12.4912 13.3456C12.4705 13.3548 12.5015 13.3364 12.5119 13.3181C12.4809 13.3548 12.4602 13.3639 12.4189 13.419L12.4396 13.4006C12.4189 13.4098 12.4086 13.419 12.4086 13.4281Z" fill="black"/>
<path d="M12.5945 13.2539C12.6048 13.2447 12.6152 13.2356 12.6255 13.208C12.6048 13.2172 12.5945 13.2264 12.5842 13.2356L12.5945 13.2539Z" fill="black"/>
<path d="M12.6048 13.2631C12.5739 13.2906 12.5532 13.2997 12.5222 13.3273C12.5325 13.3273 12.5532 13.3089 12.5739 13.2997C12.5532 13.2997 12.5945 13.2906 12.6048 13.2631H12.6152C12.6152 13.2539 12.6152 13.2539 12.6255 13.2447C12.6255 13.2447 12.6152 13.2539 12.6255 13.2447C12.6152 13.2539 12.6152 13.2631 12.6048 13.2631C12.6048 13.2539 12.6152 13.2539 12.6152 13.2539C12.6048 13.2539 12.5945 13.2539 12.5842 13.2631C12.5945 13.2631 12.6048 13.2631 12.6048 13.2631Z" fill="black"/>
<path d="M12.4912 13.4098C12.5016 13.4098 12.5119 13.4006 12.5119 13.4006C12.5016 13.4098 12.4912 13.4098 12.4809 13.4189C12.4912 13.4098 12.5119 13.4098 12.5222 13.3914H12.5119C12.5222 13.3823 12.5635 13.3548 12.5739 13.3456C12.5429 13.3731 12.5222 13.3914 12.4912 13.4098Z" fill="black"/>
<path d="M12.5532 13.3456L12.5325 13.3548L12.5015 13.3823L12.5222 13.3731C12.5119 13.3731 12.5325 13.3548 12.5532 13.3456Z" fill="black"/>
<path d="M12.6048 13.2264L12.6358 13.1897L12.5842 13.2356L12.6048 13.2264Z" fill="black"/>
<path d="M12.5842 13.2172L12.6048 13.1897L12.5945 13.208L12.5842 13.2172Z" fill="black"/>
<path d="M12.171 13.208C12.1504 13.1805 12.1091 13.1439 12.1297 13.1714L12.1607 13.208C12.1504 13.1989 12.1607 13.1989 12.171 13.208Z" fill="black"/>
<path d="M12.264 13.4628H12.2743C12.264 13.4628 12.2433 13.4557 12.233 13.4557C12.2433 13.4628 12.2536 13.4628 12.264 13.4628Z" fill="black"/>
<path d="M12.4086 13.1713C12.4086 13.153 12.3983 13.1438 12.3983 13.1438C12.4086 13.1713 12.4086 13.1989 12.4086 13.1713Z" fill="black"/>
<path d="M12.0574 13.6279C12.0677 13.6279 12.078 13.6207 12.078 13.6207C12.078 13.6207 12.0677 13.6207 12.0574 13.6279Z" fill="black"/>
<path d="M12.3879 13.1438V13.153C12.3879 13.1438 12.3983 13.1438 12.3983 13.1438C12.3983 13.1255 12.3983 13.1163 12.3879 13.1438Z" fill="black"/>
<path d="M12.4602 13.3181C12.4602 13.3181 12.4499 13.3273 12.4499 13.3364C12.4602 13.3273 12.4602 13.3181 12.4602 13.3181Z" fill="black"/>
<path d="M12.5325 13.1712C12.5451 13.1712 12.5451 13.1625 12.5325 13.1712V13.1712Z" fill="black"/>
<path d="M12.357 13.4832L12.3363 13.4648L12.357 13.4832Z" fill="black"/>
<path d="M12.3569 13.4832C12.3673 13.4832 12.3673 13.4832 12.3569 13.4832H12.3363C12.3053 13.4832 12.2846 13.474 12.264 13.4648C12.2433 13.4648 12.2227 13.4557 12.2123 13.4557C12.202 13.4557 12.1917 13.4465 12.1813 13.4465C12.1917 13.4465 12.2123 13.4557 12.2433 13.4557C12.233 13.4557 12.233 13.4557 12.233 13.4557C12.2537 13.4557 12.295 13.4648 12.326 13.474C12.3156 13.474 12.295 13.474 12.2846 13.4648C12.3053 13.474 12.3363 13.474 12.3569 13.4832H12.3466C12.3053 13.474 12.2743 13.4557 12.264 13.4465C12.295 13.4557 12.3156 13.4648 12.3569 13.4832C12.3466 13.4832 12.3466 13.474 12.3363 13.4648L12.3569 13.4832L12.3156 13.4465C12.2743 13.419 12.2433 13.3823 12.2123 13.3548C12.2537 13.3915 12.3363 13.4648 12.3569 13.4832L12.3363 13.4648C12.3569 13.474 12.3569 13.4832 12.3569 13.4832C12.3466 13.474 12.3466 13.474 12.3466 13.4648C12.3363 13.4557 12.3363 13.4557 12.3363 13.4557L12.3569 13.4832L12.3363 13.4648C12.3466 13.4648 12.3569 13.474 12.3569 13.4832C12.326 13.4465 12.3053 13.419 12.3156 13.419C12.326 13.4282 12.3363 13.4557 12.3569 13.4832C12.3673 13.4832 12.3569 13.4832 12.3569 13.4832C12.3466 13.4648 12.326 13.4373 12.3156 13.4098C12.2846 13.3548 12.2537 13.2998 12.2537 13.2814L12.2743 13.3089C12.2743 13.2998 12.264 13.2814 12.264 13.2722C12.2743 13.3089 12.3053 13.364 12.326 13.419C12.3363 13.4282 12.3363 13.4465 12.3466 13.4557C12.3466 13.4648 12.3569 13.474 12.3569 13.4832C12.3466 13.474 12.3466 13.4648 12.3466 13.4557C12.3466 13.4465 12.3363 13.4373 12.3466 13.4465C12.3466 13.4557 12.3569 13.474 12.3569 13.4832C12.3569 13.474 12.3466 13.4465 12.3363 13.4281C12.3156 13.364 12.295 13.2906 12.295 13.2722C12.295 13.2722 12.326 13.3364 12.3363 13.3731C12.3466 13.4006 12.3569 13.4557 12.3569 13.4832C12.3569 13.4648 12.3569 13.4373 12.3466 13.4098C12.3466 13.3823 12.3466 13.3456 12.3466 13.3364C12.3466 13.3548 12.3466 13.3731 12.3466 13.3823C12.3569 13.3915 12.3569 13.419 12.3569 13.419C12.3673 13.4373 12.3673 13.4557 12.3569 13.4832C12.3569 13.474 12.3569 13.4557 12.3569 13.4557C12.3569 13.5015 12.3569 13.474 12.3569 13.4832C12.3569 13.474 12.3569 13.4648 12.3673 13.4557C12.3776 13.4006 12.3673 13.4465 12.3673 13.4648C12.3776 13.3915 12.3879 13.3089 12.4086 13.2722C12.4189 13.2539 12.3983 13.3181 12.4086 13.3089C12.4189 13.3273 12.4602 13.1805 12.4602 13.2356C12.4499 13.2814 12.4189 13.3273 12.4086 13.364C12.3983 13.3823 12.4086 13.3364 12.4086 13.3364V13.364C12.3983 13.3823 12.3983 13.3915 12.3983 13.3731C12.3879 13.419 12.4086 13.3823 12.3983 13.4281C12.4086 13.4098 12.4189 13.4006 12.4292 13.3823L12.4189 13.3915C12.4396 13.3548 12.4499 13.3456 12.4602 13.3273C12.4809 13.2998 12.5119 13.2631 12.5015 13.2906L12.4706 13.3364C12.4809 13.3181 12.4809 13.3089 12.4706 13.3181C12.4912 13.2998 12.4396 13.3915 12.4809 13.3273L12.5015 13.2906C12.5222 13.2722 12.5635 13.2264 12.5635 13.2447C12.5945 13.1989 12.5532 13.2447 12.5945 13.1897C12.5532 13.2631 12.5739 13.1714 12.5325 13.2539C12.5739 13.1897 12.5429 13.2172 12.5635 13.1622C12.5532 13.1805 12.5532 13.1989 12.5429 13.1805C12.5429 13.1805 12.5325 13.1897 12.5325 13.1989C12.5325 13.208 12.5222 13.2172 12.5222 13.2264C12.5015 13.2631 12.4912 13.2539 12.4706 13.2722C12.4706 13.2631 12.4809 13.2539 12.4912 13.2356L12.4706 13.2631C12.4912 13.2264 12.4912 13.1989 12.5119 13.1805L12.5015 13.1714C12.5015 13.1439 12.5015 13.1347 12.4809 13.153C12.4809 13.1439 12.4499 13.1897 12.4706 13.1622C12.4602 13.1714 12.4499 13.1714 12.4499 13.1805V13.1714C12.4292 13.1622 12.4086 13.2356 12.3983 13.1622C12.3879 13.1714 12.3879 13.1805 12.3776 13.1714V13.1347C12.3673 13.1439 12.3466 13.098 12.3466 13.1347C12.326 13.043 12.3053 13.1163 12.2846 13.1072L12.295 13.153C12.2846 13.153 12.2743 13.1714 12.2743 13.1897L12.2846 13.2264C12.2846 13.2631 12.2537 13.208 12.2433 13.2172C12.233 13.1989 12.2433 13.208 12.2537 13.2172C12.2227 13.1805 12.2227 13.1989 12.2227 13.2172C12.2227 13.2356 12.233 13.2631 12.202 13.2356C12.202 13.2539 12.202 13.2447 12.1917 13.2356C12.1813 13.2264 12.1813 13.2264 12.171 13.2172C12.1813 13.2264 12.1813 13.2356 12.1917 13.2356C12.1917 13.2356 12.1917 13.2447 12.1917 13.2539L12.1607 13.2172C12.1504 13.208 12.171 13.2356 12.1917 13.2631C12.1917 13.2722 12.202 13.2814 12.202 13.2906C12.1504 13.2356 12.2123 13.3181 12.1607 13.2539C12.1813 13.2814 12.1607 13.2906 12.2227 13.3456C12.2123 13.3364 12.2123 13.3364 12.2123 13.3364C12.202 13.3273 12.1917 13.3273 12.2123 13.3456L12.171 13.3089C12.1917 13.3273 12.202 13.3456 12.2227 13.364C12.1917 13.3456 12.171 13.3273 12.14 13.2998C12.1813 13.3548 12.1504 13.3273 12.202 13.3731L12.171 13.3456C12.171 13.3456 12.2123 13.3823 12.1813 13.364C12.109 13.3273 12.1504 13.3823 12.0781 13.3731C12.1917 13.4098 12.0264 13.364 12.109 13.4006C12.0781 13.3915 12.0677 13.3915 12.0471 13.3823C12.0677 13.4006 11.9954 13.3915 12.0677 13.419C12.0367 13.4098 12.0264 13.4098 12.0161 13.4006C12.0264 13.4006 12.0367 13.4098 12.0264 13.4098C12.0058 13.4098 12.0058 13.4006 11.9954 13.4006C11.9954 13.419 12.0781 13.4373 12.1607 13.4557C12.1194 13.4557 12.1297 13.4557 12.1813 13.4648C12.1504 13.4648 12.1297 13.4648 12.1194 13.4557C12.1194 13.4557 12.0781 13.474 12.14 13.4832C12.1194 13.4832 12.1297 13.4832 12.14 13.4923C12.14 13.5015 12.1297 13.5015 12.14 13.5107H12.1504C12.233 13.5107 12.171 13.5199 12.1813 13.5199H12.171C12.1194 13.5382 12.202 13.5199 12.1297 13.5382L12.1813 13.529C12.2846 13.5199 12.1194 13.5474 12.1607 13.5474L12.1917 13.5382C12.2227 13.529 12.0574 13.5749 12.0471 13.5841C12.0367 13.5841 12.0367 13.5841 12.0264 13.5841C11.9748 13.6116 12.0884 13.5749 12.109 13.5749C12.0781 13.5841 12.0264 13.5932 12.0161 13.6024C11.9954 13.6207 12.1297 13.5932 12.0781 13.6207C12.0987 13.6116 12.1297 13.6024 12.1504 13.5932C12.1607 13.5932 12.0677 13.6483 12.1504 13.6207C12.14 13.6207 12.14 13.6299 12.1297 13.6299C12.1504 13.6207 12.171 13.6299 12.2123 13.6116C12.14 13.6574 12.171 13.6483 12.1917 13.6483C12.2123 13.6391 12.233 13.6299 12.1813 13.6758L12.202 13.6849L12.1917 13.6941C12.1917 13.7124 12.2227 13.6849 12.2537 13.6666C12.2433 13.6758 12.233 13.6849 12.233 13.6849C12.2227 13.7124 12.233 13.7124 12.2846 13.6666L12.2537 13.7033C12.2743 13.6849 12.233 13.7766 12.2743 13.74C12.2743 13.74 12.264 13.7491 12.264 13.7583C12.2846 13.74 12.2846 13.7675 12.2846 13.795C12.2846 13.8133 12.295 13.8225 12.326 13.74C12.3363 13.7308 12.3466 13.7124 12.3466 13.7033C12.3363 13.6849 12.3673 13.6391 12.3776 13.6116C12.3776 13.6024 12.3673 13.6574 12.3673 13.6666V13.6574C12.3363 13.74 12.3776 13.6941 12.3569 13.7491C12.3879 13.7491 12.4086 13.795 12.4499 13.795L12.4396 13.7308H12.4499C12.4499 13.7491 12.4602 13.7858 12.4499 13.7766C12.4602 13.8133 12.4602 13.74 12.4499 13.7308C12.4706 13.7583 12.4602 13.8133 12.4602 13.8133L12.4706 13.8042V13.795C12.4706 13.7675 12.4602 13.74 12.4706 13.74C12.4809 13.7491 12.4809 13.7766 12.4912 13.7858C12.4912 13.795 12.4912 13.795 12.4912 13.7858H12.5119L12.4912 13.74C12.4912 13.7124 12.5015 13.74 12.4809 13.6849C12.5222 13.7675 12.5325 13.7033 12.5532 13.7308C12.5429 13.6941 12.5429 13.6941 12.5532 13.6941C12.5429 13.6849 12.5119 13.6391 12.5222 13.6391C12.5945 13.74 12.5635 13.6758 12.6255 13.7491C12.5842 13.7033 12.6358 13.7216 12.5635 13.6666C12.5739 13.6666 12.5945 13.7033 12.6255 13.7216C12.6048 13.6758 12.6771 13.7216 12.6771 13.6941C12.6668 13.6849 12.6358 13.6666 12.6152 13.6574C12.6462 13.6758 12.6668 13.6849 12.6978 13.6941C12.6978 13.6849 12.6152 13.6391 12.6668 13.6666C12.6565 13.6574 12.6358 13.6483 12.6255 13.6483C12.6771 13.6574 12.6668 13.6299 12.6668 13.6116C12.6668 13.5932 12.6668 13.5841 12.7598 13.5749C12.7288 13.5749 12.7185 13.5749 12.7185 13.5657C12.7081 13.5657 12.6771 13.5565 12.6462 13.5565C12.6668 13.5565 12.6978 13.5565 12.7185 13.5474C12.6462 13.5382 12.7185 13.529 12.6462 13.529H12.6565C12.6152 13.529 12.5739 13.529 12.5325 13.529C12.5119 13.529 12.4912 13.529 12.4602 13.529C12.3983 13.4832 12.3776 13.4832 12.3569 13.4832C12.3673 13.4832 12.3569 13.4832 12.3569 13.4832C12.3673 13.4832 12.3569 13.4832 12.3569 13.4832C12.3569 13.474 12.3673 13.5107 12.3673 13.5107C12.3673 13.5015 12.3673 13.4923 12.3569 13.4832C12.3569 13.4923 12.3673 13.5015 12.3673 13.5015C12.3673 13.5107 12.3776 13.5199 12.3673 13.5199C12.3776 13.5199 12.3569 13.4832 12.3569 13.4832C12.3569 13.4923 12.3569 13.4923 12.3569 13.5015C12.3569 13.5199 12.3569 13.529 12.3569 13.5107C12.3673 13.5015 12.3569 13.4923 12.3569 13.4832ZM12.3569 13.4832C12.3673 13.4832 12.3569 13.4832 12.3466 13.4832C12.3363 13.4832 12.3466 13.4832 12.3569 13.4832ZM12.4706 13.1897C12.4706 13.1714 12.4706 13.1805 12.4706 13.1897V13.1897ZM12.4809 13.208C12.4809 13.1989 12.4912 13.1989 12.4912 13.1897C12.4809 13.1989 12.4809 13.1989 12.4809 13.1989C12.4706 13.208 12.4706 13.2172 12.4809 13.208ZM12.4396 13.7491V13.74C12.4292 13.7308 12.4292 13.74 12.4396 13.7491Z" fill="black"/>
<path d="M12.5739 13.1713L12.5635 13.1805C12.5635 13.1805 12.5635 13.1897 12.5635 13.1988C12.5739 13.1805 12.5739 13.1713 12.5739 13.1713Z" fill="black"/>
<path d="M12.4293 13.4098C12.4396 13.4098 12.4293 13.4098 12.4293 13.4098L12.4499 13.3914C12.4499 13.3914 12.4396 13.4098 12.4293 13.4098Z" fill="black"/>
<path d="M12.4912 13.2998C12.4706 13.3273 12.4809 13.3181 12.4912 13.3181C12.5222 13.2722 12.5119 13.2814 12.4912 13.2998Z" fill="black"/>
<path d="M12.4912 13.316C12.4912 13.3086 12.5019 13.3086 12.4912 13.316C12.5126 13.3013 12.5019 13.3086 12.4912 13.316Z" fill="black"/>
<path d="M12.5015 13.1897C12.5015 13.1988 12.5222 13.1438 12.5222 13.1622C12.5428 13.1163 12.4809 13.208 12.5015 13.1897Z" fill="black"/>
<path d="M12.4189 13.4006L12.4499 13.364L12.4293 13.3915L12.4189 13.4006Z" fill="black"/>
<path d="M12.4293 13.3636C12.4293 13.3636 12.4419 13.3636 12.4293 13.3636C12.4419 13.3549 12.4419 13.3549 12.4293 13.3636Z" fill="black"/>
<path d="M12.4086 13.408L12.4192 13.4006L12.4086 13.408Z" fill="black"/>
<path d="M12.388 13.3456L12.3776 13.3548C12.3776 13.3731 12.3776 13.3823 12.3776 13.3731C12.388 13.3639 12.388 13.3548 12.388 13.3456Z" fill="black"/>
<path d="M12.3673 13.4648C12.3673 13.4556 12.3776 13.4465 12.3776 13.4281L12.3673 13.474V13.4648Z" fill="black"/>
<path d="M12.3466 13.4098L12.326 13.3181L12.3466 13.4098Z" fill="black"/>
<path d="M12.7288 13.4995L12.7494 13.4923L12.7081 13.4995H12.7288Z" fill="black"/>
<path d="M12.357 5.88047C12.4197 5.88047 12.4706 5.83531 12.4706 5.77959C12.4706 5.72388 12.4197 5.67871 12.357 5.67871C12.2942 5.67871 12.2433 5.72388 12.2433 5.77959C12.2433 5.83531 12.2942 5.88047 12.357 5.88047Z" fill="black"/>
<path d="M12.7288 5.77868C12.7288 5.77868 12.7701 5.77868 12.7804 5.77868C12.7598 5.77155 12.7081 5.77868 12.7288 5.77868Z" fill="black"/>
<path d="M12.6152 5.70621C12.5429 5.72455 12.6255 5.71538 12.6048 5.72455H12.5842L12.6461 5.71538C12.6358 5.71538 12.5945 5.71538 12.6152 5.70621Z" fill="black"/>
<path d="M12.7598 5.64203C12.7288 5.64916 12.7288 5.64203 12.7598 5.64203C12.7495 5.64916 12.7495 5.64203 12.7598 5.64203C12.7598 5.64203 12.7495 5.64203 12.7598 5.64203Z" fill="black"/>
<path d="M12.7598 5.64188C12.7598 5.65058 12.7849 5.63319 12.7598 5.64188V5.64188Z" fill="black"/>
<path d="M12.7288 5.62369H12.7597C12.7701 5.61452 12.7701 5.60535 12.7907 5.60535C12.7701 5.60535 12.7494 5.61452 12.7288 5.62369Z" fill="black"/>
<path d="M12.6771 5.64069H12.6878C12.6985 5.63332 12.6985 5.63332 12.6771 5.64069Z" fill="black"/>
<path d="M12.7185 5.64203H12.6978C12.6875 5.64916 12.6668 5.65629 12.7081 5.64203C12.6771 5.64916 12.6978 5.64203 12.7185 5.64203Z" fill="black"/>
<path d="M12.7081 5.64203C12.6978 5.6512 12.6875 5.66037 12.6565 5.66037C12.6772 5.66954 12.7185 5.6512 12.7081 5.64203Z" fill="black"/>
<path d="M12.5429 5.72458L12.5222 5.73171L12.5429 5.72458C12.5325 5.73171 12.5635 5.72458 12.5429 5.72458Z" fill="black"/>
<path d="M12.7391 5.56863C12.7288 5.5778 12.7082 5.58698 12.6875 5.59615H12.7082C12.7082 5.58698 12.7185 5.5778 12.7391 5.56863Z" fill="black"/>
<path d="M12.6875 5.60535L12.6565 5.61248C12.6565 5.61248 12.6772 5.60535 12.6875 5.60535Z" fill="black"/>
<path d="M12.6049 5.6675C12.6255 5.66037 12.6462 5.66037 12.6565 5.66037C12.6358 5.66037 12.6255 5.6675 12.6049 5.6675Z" fill="black"/>
<path d="M12.7185 5.54117L12.7495 5.52283L12.6978 5.55034L12.7185 5.54117Z" fill="black"/>
<path d="M12.6978 5.53198C12.7288 5.51364 12.7288 5.4953 12.7495 5.4953C12.7391 5.4953 12.7185 5.50447 12.6978 5.51364C12.7081 5.50447 12.7081 5.50447 12.6978 5.53198Z" fill="black"/>
<path d="M12.6668 5.5228C12.6771 5.5228 12.6875 5.51363 12.6978 5.50446C12.6875 5.50446 12.6771 5.51363 12.6668 5.5228Z" fill="black"/>
<path d="M12.6565 5.59615C12.6668 5.58698 12.6875 5.5778 12.6875 5.56863L12.6565 5.59615Z" fill="black"/>
<path d="M12.6359 5.64203C12.6152 5.6512 12.5842 5.66037 12.5532 5.67871C12.5842 5.66954 12.5945 5.6512 12.6359 5.64203Z" fill="black"/>
<path d="M12.6152 5.62367V5.63284C12.6255 5.62367 12.6358 5.6145 12.6462 5.6145L12.6152 5.62367Z" fill="black"/>
<path d="M12.6049 5.63106L12.6155 5.62369L12.6049 5.63106Z" fill="black"/>
<path d="M12.6462 5.55951C12.6255 5.56868 12.6255 5.56868 12.6152 5.56868C12.6152 5.57785 12.6152 5.58702 12.6152 5.58702C12.6358 5.56868 12.6565 5.55951 12.6462 5.55951Z" fill="black"/>
<path d="M12.6152 5.58549C12.6152 5.59262 12.6255 5.58549 12.6358 5.58549C12.6255 5.57836 12.6255 5.57836 12.6152 5.58549Z" fill="black"/>
<path d="M12.6461 5.52283C12.6461 5.532 12.6358 5.532 12.6358 5.54117C12.6358 5.532 12.6461 5.52283 12.6461 5.52283Z" fill="black"/>
<path d="M12.6565 5.56785C12.6639 5.56048 12.6565 5.56785 12.6565 5.56785V5.56785Z" fill="black"/>
<path d="M12.6565 5.56863C12.6461 5.56863 12.6358 5.57577 12.6358 5.57577C12.6358 5.57577 12.6358 5.57577 12.6565 5.56863C12.6461 5.57577 12.6565 5.56863 12.6565 5.56863Z" fill="black"/>
<path d="M12.4086 5.72456C12.4292 5.69704 12.4602 5.66953 12.4292 5.70621C12.4499 5.68787 12.5428 5.59616 12.5842 5.54114C12.5738 5.55031 12.5635 5.55948 12.5428 5.57782C12.5325 5.59616 12.5222 5.62368 12.4912 5.64202C12.4705 5.65119 12.5015 5.63285 12.5119 5.61451C12.4809 5.65119 12.4602 5.66036 12.4189 5.71539L12.4396 5.69704C12.4189 5.70622 12.4086 5.71538 12.4086 5.72456Z" fill="black"/>
<path d="M12.5945 5.55031C12.6048 5.54114 12.6152 5.53197 12.6255 5.50446C12.6048 5.51363 12.5945 5.5228 12.5842 5.53197L12.5945 5.55031Z" fill="black"/>
<path d="M12.6048 5.55948C12.5739 5.58699 12.5532 5.59616 12.5222 5.62368C12.5325 5.62368 12.5532 5.60533 12.5739 5.59616C12.5532 5.59616 12.5945 5.58699 12.6048 5.55948H12.6152C12.6152 5.55031 12.6152 5.55031 12.6255 5.54114C12.6255 5.54114 12.6152 5.55031 12.6255 5.54114C12.6152 5.55031 12.6152 5.55948 12.6048 5.55948C12.6048 5.55031 12.6152 5.55031 12.6152 5.55031C12.6048 5.55031 12.5945 5.55031 12.5842 5.55948C12.5945 5.55948 12.6048 5.55948 12.6048 5.55948Z" fill="black"/>
<path d="M12.4912 5.70622C12.5016 5.70622 12.5119 5.69705 12.5119 5.69705C12.5016 5.70623 12.4912 5.70623 12.4809 5.7154C12.4912 5.70623 12.5119 5.70623 12.5222 5.68788H12.5119C12.5222 5.67871 12.5635 5.6512 12.5739 5.64203C12.5429 5.66954 12.5222 5.68788 12.4912 5.70622Z" fill="black"/>
<path d="M12.5532 5.64203L12.5325 5.6512L12.5015 5.67871L12.5222 5.66954C12.5119 5.66954 12.5325 5.6512 12.5532 5.64203Z" fill="black"/>
<path d="M12.6048 5.5228L12.6358 5.48611L12.5842 5.53197L12.6048 5.5228Z" fill="black"/>
<path d="M12.5842 5.51363L12.6048 5.48611L12.5945 5.50446L12.5842 5.51363Z" fill="black"/>
<path d="M12.171 5.50447C12.1504 5.47695 12.1091 5.44027 12.1297 5.46778L12.1607 5.50447C12.1504 5.49529 12.1607 5.49529 12.171 5.50447Z" fill="black"/>
<path d="M12.264 5.75921H12.2743C12.264 5.75921 12.2433 5.75208 12.233 5.75208C12.2433 5.75921 12.2536 5.75921 12.264 5.75921Z" fill="black"/>
<path d="M12.4086 5.46779C12.4086 5.44945 12.3983 5.44028 12.3983 5.44028C12.4086 5.46779 12.4086 5.4953 12.4086 5.46779Z" fill="black"/>
<path d="M12.0574 5.92428C12.0677 5.92428 12.078 5.91714 12.078 5.91714C12.078 5.91714 12.0677 5.91715 12.0574 5.92428Z" fill="black"/>
<path d="M12.3879 5.44028V5.44945C12.3879 5.44028 12.3983 5.44028 12.3983 5.44028C12.3983 5.42193 12.3983 5.41276 12.3879 5.44028Z" fill="black"/>
<path d="M12.4602 5.6145C12.4602 5.6145 12.4499 5.62367 12.4499 5.63284C12.4602 5.62367 12.4602 5.6145 12.4602 5.6145Z" fill="black"/>
<path d="M12.5325 5.46755C12.5451 5.46755 12.5451 5.45885 12.5325 5.46755V5.46755Z" fill="black"/>
<path d="M12.357 5.7796L12.3363 5.76126L12.357 5.7796Z" fill="black"/>
<path d="M12.3569 5.77959C12.3673 5.77959 12.3673 5.77959 12.3569 5.77959H12.3363C12.3053 5.77959 12.2846 5.77042 12.264 5.76125C12.2433 5.76125 12.2227 5.75208 12.2123 5.75208C12.202 5.75208 12.1917 5.74291 12.1813 5.74291C12.1917 5.74291 12.2123 5.75208 12.2433 5.75208C12.233 5.75208 12.233 5.75208 12.233 5.75208C12.2537 5.75208 12.295 5.76125 12.326 5.77042C12.3156 5.77042 12.295 5.77042 12.2846 5.76125C12.3053 5.77042 12.3363 5.77042 12.3569 5.77959H12.3466C12.3053 5.77042 12.2743 5.75208 12.264 5.74291C12.295 5.75208 12.3156 5.76125 12.3569 5.77959C12.3466 5.77959 12.3466 5.77042 12.3363 5.76125L12.3569 5.77959L12.3156 5.74291C12.2743 5.7154 12.2433 5.67871 12.2123 5.6512C12.2537 5.68788 12.3363 5.76125 12.3569 5.77959L12.3363 5.76125C12.3569 5.77042 12.3569 5.77959 12.3569 5.77959C12.3466 5.77042 12.3466 5.77042 12.3466 5.76125C12.3363 5.75208 12.3363 5.75208 12.3363 5.75208L12.3569 5.77959L12.3363 5.76125C12.3466 5.76125 12.3569 5.77042 12.3569 5.77959C12.326 5.74291 12.3053 5.7154 12.3156 5.7154C12.326 5.72457 12.3363 5.75208 12.3569 5.77959C12.3673 5.77959 12.3569 5.77959 12.3569 5.77959C12.3466 5.76125 12.326 5.73374 12.3156 5.70622C12.2846 5.6512 12.2537 5.59617 12.2537 5.57783L12.2743 5.60535C12.2743 5.59617 12.264 5.57783 12.264 5.56866C12.2743 5.60534 12.3053 5.66037 12.326 5.7154C12.3363 5.72457 12.3363 5.74291 12.3466 5.75208C12.3466 5.76125 12.3569 5.77042 12.3569 5.77959C12.3466 5.77042 12.3466 5.76125 12.3466 5.75208C12.3466 5.74291 12.3363 5.73374 12.3466 5.74291C12.3466 5.75208 12.3569 5.77042 12.3569 5.77959C12.3569 5.77042 12.3466 5.74291 12.3363 5.72457C12.3156 5.66037 12.295 5.587 12.295 5.56866C12.295 5.56866 12.326 5.63286 12.3363 5.66954C12.3466 5.69705 12.3569 5.75208 12.3569 5.77959C12.3569 5.76125 12.3569 5.73374 12.3466 5.70622C12.3466 5.67871 12.3466 5.64203 12.3466 5.63286C12.3466 5.6512 12.3466 5.66954 12.3466 5.67871C12.3569 5.68788 12.3569 5.7154 12.3569 5.7154C12.3673 5.73374 12.3673 5.75208 12.3569 5.77959C12.3569 5.77042 12.3569 5.75208 12.3569 5.75208C12.3569 5.79793 12.3569 5.77042 12.3569 5.77959C12.3569 5.77042 12.3569 5.76125 12.3673 5.75208C12.3776 5.69705 12.3673 5.74291 12.3673 5.76125C12.3776 5.68788 12.3879 5.60534 12.4086 5.56866C12.4189 5.55032 12.3983 5.61452 12.4086 5.60535C12.4189 5.62369 12.4602 5.47695 12.4602 5.53198C12.4499 5.57783 12.4189 5.62369 12.4086 5.66037C12.3983 5.67871 12.4086 5.63286 12.4086 5.63286V5.66037C12.3983 5.67871 12.3983 5.68788 12.3983 5.66954C12.3879 5.7154 12.4086 5.67871 12.3983 5.72457C12.4086 5.70622 12.4189 5.69705 12.4292 5.67871L12.4189 5.68788C12.4396 5.6512 12.4499 5.64203 12.4602 5.62369C12.4809 5.59617 12.5119 5.55949 12.5015 5.587L12.4706 5.63286C12.4809 5.61452 12.4809 5.60534 12.4706 5.61452C12.4912 5.59617 12.4396 5.68788 12.4809 5.62369L12.5015 5.587C12.5222 5.56866 12.5635 5.52281 12.5635 5.54115C12.5945 5.49529 12.5532 5.54115 12.5945 5.48612C12.5532 5.55949 12.5739 5.46778 12.5325 5.55032C12.5739 5.48612 12.5429 5.51364 12.5635 5.45861C12.5532 5.47695 12.5532 5.49529 12.5429 5.47695C12.5429 5.47695 12.5325 5.48612 12.5325 5.49529C12.5325 5.50446 12.5222 5.51364 12.5222 5.52281C12.5015 5.55949 12.4912 5.55032 12.4706 5.56866C12.4706 5.55949 12.4809 5.55032 12.4912 5.53198L12.4706 5.55949C12.4912 5.52281 12.4912 5.49529 12.5119 5.47695L12.5015 5.46778C12.5015 5.44027 12.5015 5.4311 12.4809 5.44944C12.4809 5.44027 12.4499 5.48612 12.4706 5.45861C12.4602 5.46778 12.4499 5.46778 12.4499 5.47695V5.46778C12.4292 5.45861 12.4086 5.53198 12.3983 5.45861C12.3879 5.46778 12.3879 5.47695 12.3776 5.46778V5.4311C12.3673 5.44027 12.3466 5.39441 12.3466 5.4311C12.326 5.33939 12.3053 5.41276 12.2846 5.40358L12.295 5.44944C12.2846 5.44944 12.2743 5.46778 12.2743 5.48612L12.2846 5.52281C12.2846 5.55949 12.2537 5.50447 12.2433 5.51364C12.233 5.49529 12.2433 5.50447 12.2537 5.51364C12.2227 5.47695 12.2227 5.49529 12.2227 5.51364C12.2227 5.53198 12.233 5.55949 12.202 5.53198C12.202 5.55032 12.202 5.54115 12.1917 5.53198C12.1813 5.52281 12.1813 5.52281 12.171 5.51364C12.1813 5.52281 12.1813 5.53198 12.1917 5.53198C12.1917 5.53198 12.1917 5.54115 12.1917 5.55032L12.1607 5.51364C12.1504 5.50447 12.171 5.53198 12.1917 5.55949C12.1917 5.56866 12.202 5.57783 12.202 5.587C12.1504 5.53198 12.2123 5.61452 12.1607 5.55032C12.1813 5.57783 12.1607 5.587 12.2227 5.64203C12.2123 5.63286 12.2123 5.63286 12.2123 5.63286C12.202 5.62369 12.1917 5.62369 12.2123 5.64203L12.171 5.60535C12.1917 5.62369 12.202 5.64203 12.2227 5.66037C12.1917 5.64203 12.171 5.62369 12.14 5.59617C12.1813 5.6512 12.1504 5.62369 12.202 5.66954L12.171 5.64203C12.171 5.64203 12.2123 5.67871 12.1813 5.66037C12.109 5.62369 12.1504 5.67871 12.0781 5.66954C12.1917 5.70623 12.0264 5.66037 12.109 5.69705C12.0781 5.68788 12.0677 5.68788 12.0471 5.67871C12.0677 5.69705 11.9954 5.68788 12.0677 5.7154C12.0367 5.70623 12.0264 5.70623 12.0161 5.69705C12.0264 5.69705 12.0367 5.70622 12.0264 5.70622C12.0058 5.70622 12.0058 5.69705 11.9954 5.69705C11.9954 5.7154 12.0781 5.73374 12.1607 5.75208C12.1194 5.75208 12.1297 5.75208 12.1813 5.76125C12.1504 5.76125 12.1297 5.76125 12.1194 5.75208C12.1194 5.75208 12.0781 5.77042 12.14 5.77959C12.1194 5.77959 12.1297 5.77959 12.14 5.78876C12.14 5.79793 12.1297 5.79793 12.14 5.80711H12.1504C12.233 5.80711 12.171 5.81628 12.1813 5.81628H12.171C12.1194 5.83462 12.202 5.81628 12.1297 5.83462L12.1813 5.82545C12.2846 5.81628 12.1194 5.84379 12.1607 5.84379L12.1917 5.83462C12.2227 5.82545 12.0574 5.8713 12.0471 5.88047C12.0367 5.88047 12.0367 5.88047 12.0264 5.88047C11.9748 5.90799 12.0884 5.8713 12.109 5.8713C12.0781 5.88047 12.0264 5.88964 12.0161 5.89881C11.9954 5.91716 12.1297 5.88964 12.0781 5.91716C12.0987 5.90799 12.1297 5.89881 12.1504 5.88964C12.1607 5.88964 12.0677 5.94467 12.1504 5.91716C12.14 5.91716 12.14 5.92633 12.1297 5.92633C12.1504 5.91716 12.171 5.92633 12.2123 5.90798C12.14 5.95384 12.171 5.94467 12.1917 5.94467C12.2123 5.9355 12.233 5.92633 12.1813 5.97218L12.202 5.98135L12.1917 5.99052C12.1917 6.00887 12.2227 5.98135 12.2537 5.96301C12.2433 5.97218 12.233 5.98135 12.233 5.98135C12.2227 6.00886 12.233 6.00887 12.2846 5.96301L12.2537 5.99969C12.2743 5.98135 12.233 6.07306 12.2743 6.03638C12.2743 6.03638 12.264 6.04555 12.264 6.05472C12.2846 6.03638 12.2846 6.06389 12.2846 6.0914C12.2846 6.10974 12.295 6.11892 12.326 6.03638C12.3363 6.02721 12.3466 6.00886 12.3466 5.99969C12.3363 5.98135 12.3673 5.9355 12.3776 5.90798C12.3776 5.89881 12.3673 5.95384 12.3673 5.96301V5.95384C12.3363 6.03638 12.3776 5.99052 12.3569 6.04555C12.3879 6.04555 12.4086 6.0914 12.4499 6.0914L12.4396 6.02721H12.4499C12.4499 6.04555 12.4602 6.08223 12.4499 6.07306C12.4602 6.10974 12.4602 6.03638 12.4499 6.02721C12.4706 6.05472 12.4602 6.10975 12.4602 6.10975L12.4706 6.10057V6.0914C12.4706 6.06389 12.4602 6.03638 12.4706 6.03638C12.4809 6.04555 12.4809 6.07306 12.4912 6.08223C12.4912 6.0914 12.4912 6.0914 12.4912 6.08223H12.5119L12.4912 6.03638C12.4912 6.00887 12.5015 6.03638 12.4809 5.98135C12.5222 6.06389 12.5325 5.99969 12.5532 6.02721C12.5429 5.99052 12.5429 5.99052 12.5532 5.99052C12.5429 5.98135 12.5119 5.9355 12.5222 5.9355C12.5945 6.03638 12.5635 5.97218 12.6255 6.04555C12.5842 5.99969 12.6358 6.01804 12.5635 5.96301C12.5739 5.96301 12.5945 5.99969 12.6255 6.01804C12.6048 5.97218 12.6771 6.01804 12.6771 5.99052C12.6668 5.98135 12.6358 5.96301 12.6152 5.95384C12.6462 5.97218 12.6668 5.98135 12.6978 5.99052C12.6978 5.98135 12.6152 5.9355 12.6668 5.96301C12.6565 5.95384 12.6358 5.94467 12.6255 5.94467C12.6771 5.95384 12.6668 5.92633 12.6668 5.90798C12.6668 5.88964 12.6668 5.88047 12.7598 5.8713C12.7288 5.8713 12.7185 5.8713 12.7185 5.86213C12.7081 5.86213 12.6771 5.85296 12.6462 5.85296C12.6668 5.85296 12.6978 5.85296 12.7185 5.84379C12.6462 5.83462 12.7185 5.82545 12.6462 5.82545H12.6565C12.6152 5.82545 12.5739 5.82545 12.5325 5.82545C12.5119 5.82545 12.4912 5.82545 12.4602 5.82545C12.3983 5.77959 12.3776 5.77959 12.3569 5.77959C12.3673 5.77959 12.3569 5.77959 12.3569 5.77959C12.3673 5.77959 12.3569 5.77959 12.3569 5.77959C12.3569 5.77042 12.3673 5.80711 12.3673 5.80711C12.3673 5.79793 12.3673 5.78876 12.3569 5.77959C12.3569 5.78876 12.3673 5.79793 12.3673 5.79793C12.3673 5.8071 12.3776 5.81628 12.3673 5.81628C12.3776 5.81628 12.3569 5.77959 12.3569 5.77959C12.3569 5.78876 12.3569 5.78876 12.3569 5.79793C12.3569 5.81628 12.3569 5.82545 12.3569 5.80711C12.3673 5.79793 12.3569 5.78876 12.3569 5.77959ZM12.3569 5.77959C12.3673 5.77959 12.3569 5.77959 12.3466 5.77959C12.3363 5.77959 12.3466 5.77959 12.3569 5.77959ZM12.4706 5.48612C12.4706 5.46778 12.4706 5.47695 12.4706 5.48612V5.48612ZM12.4809 5.50447C12.4809 5.49529 12.4912 5.49529 12.4912 5.48612C12.4809 5.49529 12.4809 5.49529 12.4809 5.49529C12.4706 5.50446 12.4706 5.51364 12.4809 5.50447ZM12.4396 6.04555V6.03638C12.4292 6.02721 12.4292 6.03638 12.4396 6.04555Z" fill="black"/>
<path d="M12.5739 5.46777L12.5635 5.47694C12.5635 5.47694 12.5635 5.48611 12.5635 5.49529C12.5739 5.47694 12.5739 5.46777 12.5739 5.46777Z" fill="black"/>
<path d="M12.4293 5.70624C12.4396 5.70624 12.4293 5.70624 12.4293 5.70624L12.4499 5.6879C12.4499 5.6879 12.4396 5.70624 12.4293 5.70624Z" fill="black"/>
<path d="M12.4912 5.59614C12.4706 5.62366 12.4809 5.61449 12.4912 5.61449C12.5222 5.56863 12.5119 5.5778 12.4912 5.59614Z" fill="black"/>
<path d="M12.4912 5.61242C12.4912 5.60505 12.5019 5.60505 12.4912 5.61242C12.5126 5.59768 12.5019 5.60505 12.4912 5.61242Z" fill="black"/>
<path d="M12.5015 5.48612C12.5015 5.49529 12.5222 5.44027 12.5222 5.45861C12.5428 5.41275 12.4809 5.50446 12.5015 5.48612Z" fill="black"/>
<path d="M12.4189 5.69705L12.4499 5.66037L12.4293 5.68788L12.4189 5.69705Z" fill="black"/>
<path d="M12.4293 5.66002C12.4293 5.66002 12.4419 5.66002 12.4293 5.66002C12.4419 5.65133 12.4419 5.65133 12.4293 5.66002Z" fill="black"/>
<path d="M12.4086 5.70442L12.4192 5.69705L12.4086 5.70442Z" fill="black"/>
<path d="M12.388 5.64203L12.3776 5.6512C12.3776 5.66954 12.3776 5.67871 12.3776 5.66954C12.388 5.66037 12.388 5.6512 12.388 5.64203Z" fill="black"/>
<path d="M12.3673 5.76126C12.3673 5.75209 12.3776 5.74292 12.3776 5.72458L12.3673 5.77043V5.76126Z" fill="black"/>
<path d="M12.3466 5.70621L12.326 5.6145L12.3466 5.70621Z" fill="black"/>
<path d="M12.7288 5.79589L12.7494 5.78876L12.7081 5.79589H12.7288Z" fill="black"/>
</svg>
