<svg width="24" height="24" viewBox="0 0 24 24" fill="none" xmlns="http://www.w3.org/2000/svg">
<path d="M20.0865 9.45846C19.9865 9.40557 20.0532 9.47529 20.0643 9.54021L20.0865 9.45846Z" fill="#242424"/>
<path d="M20.0643 9.54022V9.59793C20.0708 9.58901 20.0742 9.57912 20.0742 9.56908C20.0742 9.55903 20.0708 9.54913 20.0643 9.54022Z" fill="#242424"/>
<path d="M19.9976 10.0812C19.9198 9.95619 20.0254 9.80711 19.9059 9.73016C19.8504 9.8552 19.867 10.05 19.9976 10.0812Z" fill="#242424"/>
<path d="M20.0754 9.89367L20.0087 9.87924L20.1115 9.98745L20.0754 9.89367Z" fill="#242424"/>
<path d="M20.1337 9.81671L20.1115 9.83114L20.1754 10.0019L20.1337 9.81671Z" fill="#242424"/>
<path d="M19.9504 10.502L19.931 10.377C20.0199 10.2616 20.0504 10.4539 20.1116 10.377C20.1116 10.2207 19.9254 10.3217 19.956 10.1365C19.8726 10.1534 19.956 10.4491 19.8254 10.4179C19.7837 10.5717 19.9032 10.4154 19.9504 10.502Z" fill="#242424"/>
<path d="M20.6591 18.0184C20.6573 18.0245 20.6573 18.0308 20.6591 18.0369C20.6625 18.029 20.6897 18.0211 20.6591 18.0184Z" fill="#242424"/>
<path d="M20.7533 20.5119C20.7398 20.5503 20.7305 20.5898 20.7255 20.6297C20.7335 20.628 20.7409 20.6248 20.7472 20.6202C20.7535 20.6156 20.7584 20.6098 20.7617 20.6032L20.7533 20.5119Z" fill="#242424"/>
<path d="M20.406 16.7296C20.4195 16.7032 20.4307 16.6758 20.4394 16.6479C20.4276 16.6588 20.4186 16.6717 20.4128 16.6858C20.4071 16.6998 20.4048 16.7148 20.406 16.7296Z" fill="#242424"/>
<path d="M9.01503 20.0166C9.01738 20.0054 9.01738 19.994 9.01503 19.9829L8.98724 20.0142L9.01503 20.0166Z" fill="#242424"/>
<path d="M17.6277 20.9038C17.5921 20.9042 17.5567 20.9091 17.5222 20.9185C17.5579 20.9253 17.5948 20.9202 17.6277 20.9038Z" fill="#242424"/>
<path d="M20.406 15.9866V16.0179C20.4096 16.0051 20.4096 15.9922 20.406 15.9794V15.9866Z" fill="#242424"/>
<path d="M20.9315 19.4034C20.9192 19.447 20.9135 19.4913 20.9145 19.5357C20.9246 19.492 20.9303 19.4478 20.9315 19.4034Z" fill="#242424"/>
<path d="M19.8031 12.4112C19.7903 12.4406 19.7903 12.4731 19.8031 12.5025C19.8164 12.4901 19.8238 12.4738 19.8238 12.4569C19.8238 12.4399 19.8164 12.4236 19.8031 12.4112Z" fill="#242424"/>
<path d="M19.8196 13.1469C19.7992 13.1469 19.8026 13.1519 19.8196 13.1469V13.1469Z" fill="#242424"/>
<path d="M19.8087 13.6194C19.7883 13.6143 19.7883 13.6194 19.8087 13.6194V13.6194Z" fill="#242424"/>
<path d="M19.8142 12.5026C19.7642 12.5627 19.5975 12.5819 19.7809 12.6589L19.8031 12.6444C19.7614 12.6901 19.8337 12.7598 19.8392 12.8151C19.8553 12.8112 19.8704 12.8047 19.8837 12.7959C19.8837 12.7671 19.8837 12.731 19.9031 12.6757C19.9226 12.6204 19.8503 12.5627 19.8142 12.5026Z" fill="#242424"/>
<path d="M20.6255 18.0088C20.6588 18.0088 20.6422 17.9535 20.6255 18.0088V18.0088Z" fill="#242424"/>
<path d="M20.4894 17.3716V17.4341C20.4964 17.4136 20.4964 17.3922 20.4894 17.3716Z" fill="#242424"/>
<path d="M20.5366 14.9839V14.9986C20.5502 15.0016 20.5468 14.9898 20.5366 14.9839Z" fill="#242424"/>
<path d="M20.4825 17.4942C20.4808 17.475 20.4808 17.4557 20.4825 17.4365C20.4722 17.4551 20.4722 17.4757 20.4825 17.4942Z" fill="#242424"/>
<path d="M4.95871 14.8541C4.95871 14.9022 4.9226 14.9286 4.90593 14.9743C5.02262 15.0801 4.90593 14.7627 5.01984 14.9142C5.02133 14.8752 5.0118 14.8364 4.99206 14.8012L4.87537 14.8589C4.91426 14.9503 4.91704 14.8012 4.95871 14.8541Z" fill="#242424"/>
<path d="M8.326 19.817H8.35101C8.33434 19.7713 8.35101 19.7569 8.25654 19.7328C8.17875 19.8026 8.301 19.906 8.16486 19.9733C8.19864 19.9663 8.23387 19.9663 8.26765 19.9733C8.21209 19.9348 8.26766 19.8699 8.326 19.817Z" fill="#242424"/>
<path d="M8.26764 19.9949C8.27346 20.0033 8.27996 20.0114 8.28709 20.019C8.3055 20.0165 8.32424 20.0165 8.34265 20.019C8.32038 20.0056 8.29458 19.9974 8.26764 19.9949Z" fill="#242424"/>
<path d="M4.82532 16.4459C4.82532 16.4652 4.82532 16.482 4.82532 16.4988C4.84975 16.4748 4.84975 16.4579 4.82532 16.4459Z" fill="#242424"/>
<path d="M17.8055 19.6463L17.8805 19.615C17.8663 19.6155 17.8522 19.6186 17.8393 19.624C17.8264 19.6293 17.8149 19.6369 17.8055 19.6463Z" fill="#242424"/>
<path d="M9.64014 19.9156C9.66056 19.9245 9.68207 19.9305 9.70404 19.9332H9.74572L9.64014 19.9156Z" fill="#242424"/>
<path d="M5.26431 20.8654C5.31154 20.7548 5.22819 20.8654 5.13373 20.8101L5.04761 20.8702C5.11961 20.8796 5.19297 20.878 5.26431 20.8654Z" fill="#242424"/>
<path d="M3.14722 19.1437L3.16666 19.11C3.15583 19.119 3.14895 19.1309 3.14722 19.1437Z" fill="#242424"/>
<path d="M8.78162 20.0454H9.11222L9.01498 20.0165C8.97053 20.0791 8.82885 19.9757 8.78162 20.0454Z" fill="#242424"/>
<path d="M6.67569 20.9327L6.70625 21C7.03409 20.8557 7.41194 21.0625 7.6731 20.8581C8.07595 21.0986 7.95093 20.6441 8.30377 20.8581V20.8245C9.51233 20.8654 10.8042 20.9904 11.9156 20.875V20.9231C13.7381 21.0048 15.5107 20.9038 17.3166 20.9423C17.486 20.8966 17.3833 20.7932 17.5277 20.7379C17.5916 20.7379 17.7333 20.7379 17.7361 20.7956C17.6139 20.8293 17.6805 20.8798 17.6389 20.9038C17.8444 20.9038 18.1056 20.9663 18.2862 20.9038L18.1334 20.8269C18.2147 20.8102 18.2994 20.8102 18.3807 20.8269C18.3529 20.8678 18.4446 20.9495 18.3807 20.9688C18.7641 20.7788 18.6807 21.0505 19.003 20.9688C19.0253 20.9233 19.0607 20.8836 19.1058 20.8533C19.1719 20.8027 19.2509 20.7665 19.3364 20.7475C19.567 20.6802 19.8004 20.6177 19.9532 20.56L20.1865 20.6033C19.9087 20.6033 20.2838 20.7211 19.9087 20.7139C20.1779 20.7296 20.448 20.7296 20.7172 20.7139V20.6441C20.67 20.6441 20.6089 20.5888 20.5866 20.4782C20.6144 20.3556 20.7061 20.4037 20.7172 20.2378L20.7755 20.4542C20.845 20.3724 20.7533 20.2137 20.7422 20.0935C20.82 20.0935 20.8339 19.8074 20.92 19.8819C20.8803 19.7743 20.8561 19.6629 20.8478 19.5501C20.8478 19.5092 20.8478 19.4467 20.8478 19.4179C20.8412 19.3827 20.831 19.3481 20.8172 19.3145C20.7339 19.4804 20.7144 19.2736 20.6505 19.2928L20.6644 19.3842V19.4323V19.5044V19.4371V19.4058C20.6625 19.3971 20.6625 19.3881 20.6644 19.3794C20.6644 19.3794 20.6644 19.3938 20.6811 19.4203C20.695 19.4852 20.72 19.6367 20.7867 19.6246C20.7561 19.728 20.7005 19.6439 20.6561 19.591C20.6116 19.5381 20.5783 19.502 20.5866 19.6583C20.57 19.5645 20.5616 19.4852 20.5561 19.4179C20.5505 19.3505 20.5561 19.3361 20.5561 19.2976C20.5462 19.2021 20.5209 19.1082 20.481 19.0187C20.5061 19.1702 20.3921 18.9899 20.3532 19.0716C20.3532 18.8768 20.4005 19.0235 20.4838 18.9634C20.4838 18.8576 20.5561 18.8191 20.4588 18.723C20.4977 18.5522 20.5588 18.7494 20.6116 18.6628C20.7033 18.7254 20.5005 19.1437 20.7922 19.0932C20.7922 19.1822 20.9061 19.2904 20.9006 19.4203C20.9395 19.3072 21.0367 19.1461 20.97 19.0067H20.8033C20.8033 18.9009 20.6866 18.8792 20.7033 18.8023C20.7505 18.8432 20.82 18.7686 20.8061 18.6845C20.7839 18.7085 20.7894 18.7422 20.7589 18.7326C20.7589 18.5763 20.6339 18.5546 20.6033 18.3671C20.5633 18.4827 20.5083 18.594 20.4394 18.6989C20.3255 18.658 20.4227 18.5955 20.4088 18.5114C20.4255 18.5114 20.4283 18.5426 20.4505 18.5114L20.3949 18.42C20.4449 18.2276 20.5616 18.444 20.6172 18.2853C20.7144 18.1771 20.5644 18.1363 20.6172 18.0449L20.5866 18.0617C20.5857 18.0473 20.5857 18.0329 20.5866 18.0184C20.57 17.9151 20.5866 17.8068 20.4922 17.778C20.5311 17.778 20.4922 17.6866 20.456 17.6554C20.4199 17.6241 20.3171 17.4606 20.456 17.3764C20.4727 17.249 20.5144 17.1504 20.5616 17.1793L20.5977 16.9725L20.7089 16.9941C20.6783 16.8066 20.6116 16.8258 20.4977 16.6984C20.5437 16.5471 20.533 16.3872 20.4672 16.2415C20.4729 16.2169 20.4729 16.1916 20.4672 16.167L20.4227 16.2439C20.4227 16.0973 20.3671 16.1165 20.3671 16.0203C20.3671 16.0396 20.3505 16.042 20.3671 15.9891V15.9338C20.3671 15.9338 20.3671 15.9602 20.3671 15.9818L20.406 15.9626C20.5227 15.8472 20.3366 15.7847 20.3783 15.6596C20.3812 15.6748 20.3812 15.6902 20.3783 15.7053C20.4088 15.6332 20.5672 15.5322 20.4699 15.5033C20.4838 15.4889 20.4699 15.4625 20.4394 15.4384L20.456 15.3879C20.4516 15.405 20.446 15.4219 20.4394 15.4384C20.406 15.4072 20.3671 15.3759 20.3921 15.3711L20.4116 15.1932C20.4236 15.1537 20.4187 15.1119 20.3977 15.0753L20.4449 15.0441C20.4449 14.9792 20.4644 14.9792 20.4783 14.9864C20.6394 14.758 20.3949 14.6353 20.5338 14.3901C20.456 14.342 20.4227 14.4454 20.381 14.4526C20.3149 14.38 20.2624 14.2989 20.2254 14.2121C20.331 14.1039 20.4255 13.7697 20.5811 13.8226C20.595 13.6206 20.4866 13.8851 20.4338 13.7841V13.7601C20.4133 13.8266 20.3673 13.8852 20.3032 13.926C20.2199 13.9404 20.1949 13.7625 20.2171 13.7072L20.3366 13.7457C20.2949 13.5581 20.1171 13.599 19.9976 13.4812C20.0449 13.3345 20.1532 13.4187 20.2588 13.3874L20.2282 13.2311H20.3199C20.2949 13.1301 20.2116 13.1061 20.2477 12.9666C20.331 13.0676 20.331 12.755 20.4449 12.8969C20.4727 12.8175 20.3005 12.7959 20.4199 12.755C20.3255 12.7021 20.3727 12.8247 20.3421 12.8656C20.206 12.8969 20.2755 12.6949 20.2421 12.6011C20.3116 12.6011 20.3255 12.6637 20.3727 12.553C20.3564 12.5468 20.3421 12.5371 20.3311 12.5249C20.3201 12.5128 20.3128 12.4984 20.3098 12.4832C20.3068 12.468 20.3081 12.4523 20.3138 12.4377C20.3194 12.423 20.3292 12.4098 20.3421 12.3992C20.2532 12.3992 20.3227 12.2741 20.3282 12.2116C20.3116 12.2813 20.2477 12.3823 20.1699 12.3366C20.1245 12.2683 20.1097 12.1878 20.1282 12.1106L20.0865 12.1972C19.9532 12.0866 20.181 12.0168 20.1393 11.8678C20.1921 11.9303 20.1921 11.9712 20.2588 12.0241C20.2009 11.9237 20.1507 11.82 20.1088 11.7139L20.2393 11.5888C20.1727 11.572 20.2393 11.447 20.156 11.447C20.2171 11.2931 20.2643 11.572 20.3282 11.5888C20.3894 11.3941 20.181 11.4326 20.3282 11.245L20.4116 11.3075C20.4116 11.245 20.3699 11.12 20.4116 11.1128C20.381 11.1128 20.3921 11.144 20.3921 11.1825C20.2143 11.144 20.2671 10.8939 20.0838 10.918V11.0046C20.0476 10.8723 19.9226 10.7785 19.9893 10.6775C20.056 10.5766 20.1143 10.7328 20.1615 10.7785C20.1615 10.6535 19.9587 10.6775 19.9754 10.5381C19.9476 10.6174 19.8809 10.6006 19.8337 10.5549C19.8337 10.6415 19.7865 10.8194 19.8643 10.7954L19.8809 10.7641C19.9309 10.7641 19.9476 10.8194 19.9726 10.841C19.9726 10.9589 19.8893 10.8963 19.8532 10.9204C19.8226 11.1152 20.0365 10.9348 20.031 11.1152L19.9948 11.1368C20.0421 11.2234 20.0504 11.3556 20.1643 11.3772C20.0421 11.4542 20.2116 11.5792 20.1393 11.6658C19.8782 11.6802 20.156 11.3604 20.0143 11.2594C19.9587 11.3532 19.8893 11.2065 19.8282 11.1681L19.9421 11.4638C19.9059 11.4854 19.7754 11.572 19.8698 11.6273V11.6033C19.8976 11.7211 20.006 11.6898 19.9698 11.7908C19.9476 11.8052 19.9032 11.774 19.8865 11.7668C19.8615 11.8606 19.9476 11.8437 19.9698 11.9062C19.9476 12 19.8615 11.8605 19.8337 11.9375C19.9337 12.0457 19.8087 12.1106 19.817 12.2044C19.9643 12.1635 20.0198 12.5771 20.1504 12.3751L20.2505 12.5987C20.1727 12.6709 20.0421 12.4448 19.9171 12.5074V12.327C19.7309 12.3583 20.0393 12.7021 19.8309 12.8223C19.8378 12.9113 19.8115 12.9998 19.7559 13.0748L19.9226 13.0436C19.9113 13.0752 19.8908 13.1037 19.8631 13.1265C19.8354 13.1492 19.8013 13.1654 19.7642 13.1734C19.7726 13.2252 19.7726 13.2778 19.7642 13.3297C19.7504 13.3227 19.7384 13.3133 19.7288 13.3021C19.7193 13.291 19.7124 13.2783 19.7087 13.2648C19.617 13.3345 19.6503 13.3561 19.7087 13.3802C19.7257 13.4027 19.7373 13.4279 19.7431 13.4543C19.7488 13.4807 19.7484 13.5078 19.742 13.5341L19.6809 13.4812C19.6948 13.5172 19.7142 13.5629 19.742 13.5653C19.743 13.5892 19.7486 13.6128 19.7587 13.6351C19.8303 13.6066 19.8889 13.5584 19.9254 13.498C19.9095 13.6966 19.8531 13.8912 19.7587 14.0727C19.7115 14.0727 19.6531 13.9885 19.6476 14.0126C19.6226 14.1039 19.7059 14.2073 19.7781 14.1977C19.7805 14.2153 19.7805 14.233 19.7781 14.2506C19.756 14.257 19.7361 14.2681 19.7201 14.2827C19.7041 14.2974 19.6926 14.3153 19.6865 14.3348C19.6672 14.3496 19.6552 14.3702 19.6531 14.3925C19.7837 14.4237 19.7198 14.6041 19.7781 14.6329C19.7881 14.5844 19.7881 14.5348 19.7781 14.4863C19.867 14.5608 19.9671 14.6281 19.8948 14.6858C19.8115 14.5464 19.7587 14.8349 19.7226 14.6257C19.5559 14.7724 19.842 14.7027 19.7837 14.8662L19.717 14.9671C19.6226 14.9527 19.6698 14.8036 19.6337 14.8277V14.8974C19.5614 14.8277 19.6087 14.5608 19.5031 14.3997L19.4503 14.7267C19.5642 15.1379 19.4336 15.6524 19.642 16.0035V15.9891C19.6622 15.9971 19.6838 16.002 19.7059 16.0035L19.6809 16.0179L19.7531 16.0876C19.6642 16.167 19.6476 16.3137 19.5753 16.4387C19.6337 16.3617 19.6337 16.3617 19.7059 16.3521C19.7781 16.3425 19.842 16.381 19.8059 16.4988C19.7392 16.4988 19.7392 16.4267 19.6865 16.5132C19.7198 16.4675 19.767 16.5132 19.7754 16.5589C19.7337 16.6262 19.7226 16.7344 19.6559 16.7369C19.6364 16.7056 19.6559 16.6815 19.6559 16.6599C19.6559 16.6383 19.5948 16.7849 19.5392 16.6936L19.5587 16.8138C19.5003 16.8835 19.4697 16.7657 19.4336 16.7946C19.4781 16.9917 19.6365 17.0927 19.6809 17.2755C19.6328 17.2728 19.5845 17.2728 19.5364 17.2755C19.492 17.4149 19.7031 17.5712 19.7142 17.7299C19.6698 17.7059 19.6865 17.6482 19.667 17.6001C19.6431 18.0452 19.5743 18.4877 19.4614 18.9225L19.617 19.0404L19.5142 19.1558C19.4935 19.251 19.4805 19.3475 19.4753 19.4443C19.4697 19.4762 19.4697 19.5086 19.4753 19.5405C19.4753 19.6054 19.5114 19.6823 19.5364 19.7809L19.4559 19.8026C19.3892 19.8026 19.3419 19.7088 19.2919 19.6703C19.178 19.6559 19.2725 19.8074 18.878 19.8362C18.9252 19.7954 19.0058 19.6799 18.8585 19.6751C18.8307 19.7136 18.8141 19.7737 18.7224 19.7497L18.7696 19.7088C18.6835 19.6487 18.6029 19.7088 18.4279 19.6799C18.1216 19.6857 17.824 19.7693 17.5722 19.9204C17.2943 19.906 17.6027 19.7737 17.5499 19.7449C17.7416 19.7954 17.6833 19.7208 17.725 19.6751C17.625 19.7136 17.4999 19.7376 17.4472 19.6391C17.3273 19.6336 17.2081 19.6569 17.1026 19.7064C17.1721 19.6751 17.2332 19.7256 17.1665 19.7689C17.0526 19.7352 16.7581 19.7689 16.7748 19.6535C16.1025 19.6751 15.3523 19.6535 14.6355 19.6535C14.5133 19.716 14.7272 19.6775 14.6605 19.7208C14.4827 19.8026 14.5216 19.6799 14.3827 19.7449L14.441 19.6775C14.2187 19.702 14.0033 19.7607 13.8048 19.8507C13.8381 19.7761 13.6381 19.7881 13.8048 19.7449C13.7048 19.7569 13.5853 19.4227 13.5075 19.49L13.6187 19.8026C13.6187 19.8338 13.4742 19.8146 13.4881 19.8338C13.4173 19.7728 13.3306 19.7275 13.2352 19.7016C13.2075 19.6222 13.3575 19.6391 13.4408 19.6415C13.4408 19.5092 13.163 19.5573 13.2797 19.4371C13.1047 19.4587 13.3047 19.5044 13.1991 19.5525L13.0463 19.5237L13.1658 19.5693C13.0352 19.6078 12.9908 19.7088 12.8185 19.6343L12.6407 19.7617C12.624 19.6583 12.5101 19.7449 12.4184 19.7184L12.4768 19.6535C12.3898 19.6604 12.3027 19.6417 12.2295 19.6006C12.299 19.5092 12.3406 19.6222 12.3712 19.5357L12.2378 19.5068C12.2378 19.5645 12.1517 19.6102 12.2378 19.6463C12.1817 19.715 12.1049 19.7693 12.0158 19.8031C11.9268 19.837 11.8287 19.8493 11.7322 19.8386C11.5905 19.7376 11.885 19.7497 11.8267 19.6487C11.5016 19.6078 11.4294 19.9108 11.2404 19.8891C10.9987 19.8483 11.0126 19.9396 10.7681 19.9468C10.8459 19.8795 10.5959 19.8747 10.5514 19.8098L10.6487 19.7377C10.5736 19.7593 10.5014 19.7377 10.5236 19.6823C10.5375 19.7737 10.2069 19.7689 10.0374 19.8122L10.068 19.8915C9.92128 19.9339 9.76685 19.9526 9.61235 19.9468C9.40397 19.9733 9.45121 20.043 9.29284 20.1296C9.25715 20.0987 9.23323 20.0591 9.22429 20.0161C9.21535 19.9732 9.22183 19.9288 9.24284 19.8891C9.2984 19.93 9.39286 19.906 9.48455 19.93C9.76238 19.8627 9.9513 19.6896 10.2152 19.7352C10.3292 19.5429 10.0374 19.7569 9.90963 19.6896C9.90963 19.6775 9.92351 19.6751 9.93185 19.6727H9.90129C9.99575 19.6487 10.1486 19.6174 10.1791 19.5188C10.0208 19.5405 10.0652 19.7112 9.86795 19.6294C9.72348 19.6823 9.60679 19.5309 9.51789 19.5188C9.42342 19.591 9.41787 19.7425 9.18171 19.7136L9.28451 19.6078C9.00668 19.6078 9.15948 19.7641 8.90944 19.7593C8.99834 19.7593 8.82609 19.8651 8.99001 19.8675C8.93003 19.8964 8.86391 19.9145 8.79562 19.9207C8.72734 19.9269 8.65832 19.9211 8.59271 19.9036C8.55937 19.9204 8.59271 19.9396 8.59271 19.9781C8.74274 20.0526 8.82887 19.9036 8.95389 20.0118L9.05669 19.8963C9.1956 19.9372 9.2095 20.031 9.12337 20.0767C9.16505 20.0767 9.19838 20.055 9.22617 20.0767C9.25117 20.2498 9.05947 20.0142 9.01224 20.1608L9.10948 20.1488C9.15393 20.2618 8.88166 20.2474 8.75385 20.2402C8.60938 20.1873 8.47602 20.1681 8.47602 20.0863L8.73718 20.0166C8.63717 19.9517 8.48992 20.055 8.37879 20.0526C8.37246 20.041 8.36165 20.0317 8.34822 20.0262C8.35101 20.034 8.35101 20.0424 8.34822 20.0502C8.32338 20.0451 8.30103 20.0333 8.28432 20.0166C8.18708 20.0166 8.04261 20.0623 7.95093 20.0358V20.1079L7.96482 20.0671C8.05372 20.0671 8.17597 20.1152 8.10929 20.1705C7.90647 20.221 7.8648 20.0791 7.81479 20.0166C7.86202 19.9036 8.01483 20.0166 8.11762 19.9781C8.0565 19.8675 7.91203 19.9781 7.70088 19.8939C7.78423 19.7737 7.94537 19.8939 7.97871 19.7833C7.80923 19.7641 7.76756 19.8507 7.58975 19.8194C7.61197 19.7617 7.78423 19.7569 7.77311 19.6848L7.6592 19.6511C7.93703 19.6511 7.60919 19.4996 7.82868 19.4683C7.72588 19.4203 7.68421 19.5693 7.53696 19.4924C7.57863 19.5453 7.69532 19.6415 7.55641 19.6872L7.39804 19.6535C7.33136 19.5934 7.56196 19.5237 7.45917 19.4732L7.29247 19.514C7.29247 19.5501 7.37859 19.5693 7.32859 19.6198C7.23134 19.5814 7.17022 19.7593 7.05076 19.8122C6.95907 19.8122 6.88684 19.8122 6.85628 19.7593C6.62845 19.8675 6.34229 19.8627 6.13392 19.9661C6.27561 19.8915 6.13392 19.841 6.04224 19.7857C6.20616 19.7713 6.20616 19.6583 6.19504 19.5838C6.09502 19.5982 6.03112 19.7136 6.08113 19.7521C5.91443 19.7064 5.96722 19.8314 5.81997 19.7521C5.72551 19.7136 5.8672 19.6391 5.83386 19.5982C5.65327 19.5982 5.78385 19.7352 5.58937 19.7088C5.58937 19.6944 5.61715 19.6896 5.58937 19.6679C5.5437 19.6567 5.49501 19.6592 5.45116 19.6749C5.40731 19.6906 5.37085 19.7186 5.34766 19.7545C5.23375 19.6054 5.02815 19.7689 5.05038 19.6246C4.79478 19.6631 5.08928 19.704 5.05038 19.7545C4.99019 19.7829 4.92043 19.7923 4.85312 19.7809H4.80589H4.78367C4.77321 19.775 4.76384 19.7677 4.75588 19.7593C4.78644 19.7593 4.79756 19.7184 4.87257 19.7401L4.81978 19.6391C4.75866 19.603 4.75588 19.6607 4.71421 19.716C4.67254 19.7713 4.62808 19.8218 4.57807 19.7785C4.67809 19.728 4.64475 19.704 4.70587 19.6319C4.68087 19.6583 4.62252 19.6319 4.61974 19.7064C4.60646 19.7041 4.59421 19.6985 4.58438 19.6905C4.57456 19.6824 4.56756 19.6721 4.56418 19.6607C4.5225 19.6848 4.47805 19.704 4.42526 19.7304C4.39883 19.7346 4.37345 19.7427 4.35025 19.7545C4.37815 19.6727 4.43207 19.5994 4.50584 19.5429C4.46694 19.514 4.48361 19.4515 4.50584 19.4058C4.53516 19.2611 4.53516 19.113 4.50584 18.9682V18.9899C4.53918 18.7494 4.34747 19.0908 4.36414 18.8408C4.50306 18.8792 4.46694 18.6965 4.54751 18.6172C4.63642 18.3142 4.47249 18.0858 4.58085 17.8068C4.61141 17.8068 4.64475 17.8285 4.64475 17.8838C4.68304 17.6916 4.70163 17.4969 4.70032 17.3019H4.71699C4.84757 16.9965 4.71699 16.708 4.71699 16.3834C4.73366 16.4122 4.78644 16.4195 4.80311 16.4411C4.83687 16.3531 4.85008 16.2602 4.84197 16.1677C4.83386 16.0752 4.8046 15.9851 4.75588 15.9025C4.90313 15.7149 4.71977 15.7727 4.86702 15.5322C4.89202 15.5178 4.88924 15.5562 4.8948 15.5731C4.93068 15.4657 4.95304 15.3552 4.96148 15.2437C4.88369 14.9696 4.70587 14.895 4.77811 14.58C4.96981 14.58 4.81423 14.7772 4.96703 14.7892C4.94423 14.7592 4.93073 14.7247 4.92781 14.6889C4.92489 14.6531 4.93265 14.6173 4.95036 14.5848C5.0226 14.6401 4.99759 14.5848 5.06427 14.6353C5.11984 14.5704 4.87813 14.3588 4.89757 14.3612C4.86146 14.3612 4.83923 14.378 4.84201 14.4406C4.72532 14.3636 4.84201 14.1304 4.80867 13.9765C4.80867 14.0246 4.75588 14.1809 4.66976 14.1184C4.71977 13.914 4.53918 13.8394 4.46972 13.6928C4.56696 13.5076 4.6253 13.837 4.76144 13.8082C4.81145 13.7769 4.92258 13.7072 4.97259 13.789C5.00871 13.6182 4.90035 13.4932 4.87813 13.3393H4.91702C4.91702 13.1277 4.75866 12.8945 4.84201 12.7214L4.79478 12.8127C4.77255 12.7767 4.79478 12.6709 4.71699 12.6083C4.77811 12.6083 4.84201 12.4833 4.89202 12.541C4.69476 12.4376 4.79478 12.0601 4.61419 11.9423C4.66698 11.887 4.74755 11.9423 4.792 11.9423C4.767 12.0745 4.72532 12.1202 4.792 12.1828C4.792 12.0721 4.85034 11.9928 4.89757 12.012C4.77533 11.8942 4.73921 11.6273 4.61974 11.5672C4.68642 11.4879 4.72532 11.4133 4.82812 11.4446C4.78089 11.1007 4.49472 11.6009 4.51695 11.2161C4.62808 11.043 4.64753 11.3917 4.69476 11.1512L4.70865 11.1969C4.98648 11.0334 4.5225 11.0671 4.54195 10.8699C4.6892 10.8483 4.6392 11.0118 4.75311 10.8699C4.72532 10.6872 4.50862 10.5982 4.56696 10.4179L4.62808 10.4491C4.62808 10.3337 4.6642 10.1101 4.65864 9.99226C4.68643 9.99226 4.68365 10.0067 4.6892 10.0283C4.75588 9.81674 4.61975 9.93456 4.73088 9.76384L4.66142 9.71094C4.61903 9.764 4.59166 9.82495 4.58153 9.88886C4.57139 9.95277 4.57877 10.0178 4.60308 10.0788C4.52528 9.96581 4.40582 10.2447 4.28357 10.1846L4.33358 10.2087C4.13614 10.5255 4.00804 10.8711 3.95573 11.2282C4.09187 11.4686 3.87238 11.6225 3.95573 11.875C4.12521 11.9207 3.98907 11.9231 4.0113 12.1395C3.99463 12.0241 3.88072 12.1202 3.85294 12.19C3.89027 12.2329 3.91419 12.2834 3.92239 12.3366C3.86127 12.3775 3.70847 12.642 3.8196 12.7454C3.75847 12.8728 3.76681 12.7141 3.73347 12.6829C3.64179 12.7334 3.79737 12.7911 3.73347 12.832C3.7281 12.831 3.72305 12.829 3.71872 12.826C3.71439 12.8231 3.71088 12.8194 3.70846 12.8151C3.69322 12.9915 3.66352 13.1666 3.61956 13.3393C3.78904 13.3634 3.67512 13.5461 3.73069 13.6399C3.67512 13.6086 3.66123 13.7553 3.62512 13.813L3.74458 13.9284C3.8446 14.0414 3.66123 14.0775 3.71124 14.2218L3.74458 14.1881C3.75735 14.3605 3.69819 14.5311 3.57788 14.669C3.85571 15.6308 3.30005 16.1453 3.35006 17.16C3.3973 17.2274 3.43897 17.1144 3.51121 17.16C3.51949 17.2328 3.51949 17.3061 3.51121 17.3788C3.56122 17.2995 3.51121 17.3091 3.5501 17.3211L3.51121 17.1769C3.51121 17.1769 3.52787 17.1769 3.55288 17.1769C3.52881 17.1233 3.51748 17.066 3.51954 17.0086C3.55844 17.0975 3.68346 17.1288 3.62789 17.249C3.61122 17.249 3.60844 17.225 3.60011 17.1913C3.58344 17.2923 3.64456 17.2995 3.60011 17.3716C3.55566 17.4438 3.60011 17.4414 3.55288 17.451L3.46953 17.7347C3.61122 17.8838 3.46953 18.0521 3.44453 18.0978C3.33339 18.0641 3.41952 17.9078 3.31394 17.8333L3.22782 17.9343H3.31673L3.28338 18.0786H3.26671C3.30005 18.0978 3.33617 18.117 3.30283 18.1531C3.26949 18.1892 3.26394 18.1723 3.25838 18.1531L3.30283 18.2613C3.21393 18.1964 3.27227 18.3503 3.16392 18.331C3.09446 18.6701 3.28616 18.771 3.12502 19.0668C3.17781 19.0187 3.28894 19.1678 3.26394 19.2592C3.23615 19.3097 3.21115 19.3289 3.17225 19.288C3.17225 19.3409 3.20004 19.4251 3.21671 19.49C3.13599 19.6245 3.09315 19.7736 3.09168 19.9252C3.09082 20.1046 3.07597 20.2837 3.04723 20.4614H3C3.04743 20.5663 3.07102 20.6782 3.06946 20.7908H3.23615L3.09724 20.8726C3.37507 20.9303 3.51676 20.7019 3.8057 20.7548C3.86405 20.6658 3.70013 20.6225 3.75014 20.5383C3.75014 20.6273 4.06687 20.6417 4.02797 20.5768C4.34192 20.5408 4.23079 20.5768 4.25023 20.6009L4.44193 20.548C4.64475 20.548 4.48639 20.661 4.38081 20.7115C4.4874 20.6713 4.60412 20.6556 4.71976 20.6658H4.80311H4.8559L4.96148 20.6826L4.90591 20.7211L5.09206 20.7379C5.16109 20.7052 5.23703 20.685 5.31534 20.6784C5.39364 20.6718 5.47268 20.6789 5.5477 20.6994L5.43656 20.8149C5.5477 20.875 5.49491 20.7764 5.52269 20.7572C5.7005 20.6994 5.73662 20.7788 5.83108 20.8437C6.15336 20.7956 6.43398 21.1058 6.67569 20.9327ZM20.4727 15.0417L20.4533 15.0633C20.4283 15.0128 20.406 14.984 20.4727 15.0417ZM20.4338 16.381C20.3838 16.2199 20.4338 16.2728 20.4838 16.2584C20.4449 16.4195 20.4838 16.4988 20.4449 16.6479C20.4696 16.6311 20.498 16.6189 20.5283 16.6118C20.5288 16.6403 20.5192 16.6683 20.5009 16.6919C20.4825 16.7155 20.4562 16.7338 20.4255 16.7441C20.2921 16.6743 20.5116 16.3113 20.4338 16.381ZM19.7754 13.3658L19.8031 13.385L19.7754 13.3658ZM19.8948 14.164C19.8817 14.1694 19.8699 14.1772 19.8604 14.1867C19.8508 14.1962 19.8436 14.2073 19.8393 14.2194C19.8726 14.2049 19.9032 14.1905 19.8948 14.164ZM19.7281 15.7534C19.6726 15.7895 19.6892 15.8736 19.7031 15.9338C19.7186 15.8745 19.7269 15.8141 19.7281 15.7534ZM13.702 19.8939C13.7576 19.8747 13.8631 19.8266 13.7687 19.7905C13.7214 19.8338 13.6325 19.7617 13.5937 19.8242C13.6267 19.8508 13.663 19.8742 13.702 19.8939ZM8.25376 20.2859C8.25376 20.2402 8.30655 20.1873 8.27877 20.1512H8.29544C8.29544 20.1344 8.27043 20.12 8.29544 20.1103C8.25581 20.0986 8.21281 20.0986 8.17319 20.1103C8.14263 20.257 8.05094 20.2883 8.25376 20.2859Z" fill="#242424"/>
<path d="M8.18152 20.1079C8.18152 20.1079 8.22875 20.1344 8.29265 20.1512C8.26765 20.132 8.23431 20.1176 8.18152 20.1079Z" fill="#242424"/>
<path d="M20.381 10.7665L20.3977 10.8122L20.4504 10.7184C20.4377 10.6702 20.41 10.6259 20.3704 10.5903C20.3307 10.5547 20.2806 10.5292 20.2254 10.5164C20.3088 10.6559 20.2671 10.7424 20.2893 10.9228L20.381 10.7665Z" fill="#242424"/>
<path d="M19.7837 10.8458C19.7587 10.8603 19.7003 10.8987 19.6948 10.9228L19.7476 10.9468L19.7837 10.8458Z" fill="#242424"/>
<path d="M19.5225 12.6925L19.5697 12.5434C19.5225 12.4977 19.4392 12.6684 19.5225 12.6925Z" fill="#242424"/>
<path d="M20.4644 12.0361L20.406 11.9567C20.3588 12.0265 20.3644 12.1202 20.4283 12.1371C20.406 12.0433 20.4644 12.113 20.4644 12.0361Z" fill="#242424"/>
<path d="M19.5114 13.0892C19.617 13.1349 19.4614 13.2383 19.5642 13.2672C19.5336 13.2287 19.617 13.0964 19.5114 13.0892Z" fill="#242424"/>
<path d="M20.531 12.9858C20.6339 12.9377 20.5449 12.8608 20.5672 12.767C20.5672 12.8464 20.4616 12.9546 20.531 12.9858Z" fill="#242424"/>
<path d="M19.8143 13.8827C19.7392 13.8827 19.7448 13.813 19.7615 13.7433C19.7865 13.7673 19.8226 13.7817 19.8337 13.813C19.7984 13.7424 19.7705 13.6691 19.7504 13.5942C19.6948 13.688 19.6614 13.8346 19.5642 13.813C19.6364 13.8827 19.7448 13.9693 19.8143 13.8827Z" fill="#242424"/>
<path d="M20.5449 13.2119C20.5727 13.1325 20.6449 13.0868 20.6394 12.9931C20.6003 13.0011 20.5662 13.0218 20.544 13.0508C20.5218 13.0798 20.5132 13.1151 20.5199 13.1494L20.431 13.1109C20.3643 13.2119 20.5505 13.07 20.5449 13.2119Z" fill="#242424"/>
<path d="M19.6087 14.3131L19.6503 14.265C19.5781 14.1568 19.6142 14.0246 19.5003 13.9548C19.5022 14.0801 19.5394 14.2031 19.6087 14.3131Z" fill="#242424"/>
<path d="M20.3782 13.5942L20.5033 13.6086C20.52 13.5004 20.4616 13.6086 20.431 13.5774C20.4505 13.5461 20.4616 13.5004 20.431 13.4764C20.456 13.6014 20.3366 13.4836 20.3782 13.5942Z" fill="#242424"/>
<path d="M20.5143 13.9524L20.5699 14.0919L20.706 13.9813C20.6588 13.8178 20.6283 13.9741 20.5143 13.9524Z" fill="#242424"/>
<path d="M20.431 14.1232L20.4088 14.14L20.5922 14.3492C20.554 14.2663 20.4995 14.1899 20.431 14.1232Z" fill="#242424"/>
<path d="M19.617 16.6647C19.6725 16.6888 19.7392 16.5637 19.6781 16.6166C19.6336 16.5926 19.5725 16.7585 19.617 16.6647Z" fill="#242424"/>
<path d="M20.6227 16.1694C20.581 16.2295 20.6561 16.4267 20.6949 16.5109C20.6672 16.4099 20.6838 16.1478 20.6227 16.1694Z" fill="#242424"/>
<path d="M20.7092 16.5397V16.5036C20.7063 16.5155 20.7063 16.5277 20.7092 16.5397Z" fill="#242424"/>
<path d="M20.9839 20.8052C20.9866 20.8256 20.9923 20.8458 21.0009 20.8654L20.9839 20.8052Z" fill="#242424"/>
<path d="M20.9617 20.6177C20.978 20.4823 20.9531 20.3455 20.8895 20.2209C20.9172 20.3989 20.9339 20.5552 20.9923 20.8052C20.9784 20.7235 21.02 20.6586 20.9617 20.6177Z" fill="#242424"/>
<path d="M19.4836 20.8774C19.5697 20.8485 19.6948 20.863 19.6503 20.8173C19.6059 20.7716 19.4197 20.8461 19.4836 20.8774Z" fill="#242424"/>
<path d="M12.9296 19.5213C12.8379 19.4972 12.7851 19.5213 12.8074 19.5838C12.9046 19.5838 12.8546 19.5357 12.9296 19.5213Z" fill="#242424"/>
<path d="M12.6907 19.5982L12.6796 19.5645L12.6185 19.514L12.6907 19.5982Z" fill="#242424"/>
<path d="M12.0712 19.4996C12.0802 19.4866 12.0938 19.4765 12.1101 19.4708C12.0712 19.4804 12.0295 19.49 12.0712 19.4996Z" fill="#242424"/>
<path d="M12.1545 19.4876V19.4515L12.1045 19.466C12.1093 19.4635 12.1147 19.4622 12.1203 19.462C12.1258 19.4618 12.1313 19.4629 12.1363 19.465C12.1413 19.4672 12.1455 19.4704 12.1487 19.4743C12.1519 19.4783 12.1539 19.4828 12.1545 19.4876Z" fill="#242424"/>
<path d="M11.8655 19.4876L11.9878 19.591C12.1128 19.5405 11.8433 19.5381 11.9683 19.4275L11.8655 19.4876Z" fill="#242424"/>
<path d="M11.446 19.5165C11.3293 19.4828 11.1682 19.6439 11.0987 19.5165C10.7709 19.579 11.1737 19.7184 10.8015 19.7569C11.1543 19.8194 10.9793 19.5165 11.2932 19.5886C11.1432 19.5357 11.396 19.5357 11.446 19.5165Z" fill="#242424"/>
<path d="M11.5155 19.7208C11.5349 19.6607 11.3877 19.6559 11.3432 19.6944C11.371 19.7016 11.4432 19.7881 11.5155 19.7208Z" fill="#242424"/>
<path d="M10.807 19.5717L10.707 19.5236L10.682 19.5621L10.807 19.5717Z" fill="#242424"/>
<path d="M10.4292 19.5477L10.5264 19.4756C10.4931 19.5044 10.3486 19.4972 10.4292 19.5477Z" fill="#242424"/>
<path d="M9.9013 19.4587C9.80961 19.4347 9.72626 19.5982 9.91797 19.5621H9.8763C9.88741 19.5357 9.78183 19.4732 9.9013 19.4587Z" fill="#242424"/>
<path d="M8.67882 19.716C8.74272 19.716 8.81774 19.6968 8.80385 19.6631L8.63159 19.6968L8.67882 19.716Z" fill="#242424"/>
<path d="M8.70386 20.1127C8.7622 20.2113 8.86778 20.1127 8.98169 20.1368C8.89153 20.1142 8.79739 20.1061 8.70386 20.1127Z" fill="#242424"/>
<path d="M8.48157 19.5741C8.5288 19.5333 8.60103 19.5597 8.64549 19.5741C8.62326 19.5092 8.50379 19.5357 8.48157 19.5741Z" fill="#242424"/>
<path d="M8.20654 19.6078C8.15097 19.5669 8.20654 19.5525 8.17598 19.526C8.1269 19.5026 8.07121 19.4915 8.01524 19.4941C7.95926 19.4966 7.90522 19.5127 7.85925 19.5405C7.89259 19.5837 7.93427 19.6992 7.88426 19.7473C8.07874 19.7136 8.16209 19.5284 8.27044 19.6703L8.43158 19.4972C8.27877 19.4683 8.31489 19.6174 8.20654 19.6078Z" fill="#242424"/>
<path d="M8.59824 19.9372L8.49266 19.8795C8.51489 19.9348 8.4371 19.9468 8.38153 19.9637C8.40931 20.0911 8.53711 19.9444 8.59824 19.9372Z" fill="#242424"/>
<path d="M7.1341 19.6848L6.91461 19.7136L6.98685 19.7208L7.1341 19.6848Z" fill="#242424"/>
<path d="M6.99516 19.6439L6.98961 19.6078L6.82013 19.6751L6.99516 19.6439Z" fill="#242424"/>
<path d="M6.76459 19.6006L6.7896 19.6054L6.92018 19.5742L6.76459 19.6006Z" fill="#242424"/>
<path d="M6.30615 19.5765L6.34505 19.6294C6.40062 19.615 6.51453 19.6751 6.50342 19.603C6.47103 19.6152 6.43527 19.6193 6.40034 19.6146C6.36541 19.6099 6.33274 19.5967 6.30615 19.5765Z" fill="#242424"/>
<path d="M4.73919 20.9327C4.81699 20.899 4.76975 20.8677 4.73919 20.8365L4.61139 20.9255C4.63917 20.9206 4.71141 20.9134 4.73919 20.9327Z" fill="#242424"/>
<path d="M4.2919 20.786C4.18354 20.8196 4.06963 20.8557 3.94739 20.8894C4.18786 20.8819 4.42696 20.8545 4.66141 20.8076C4.5475 20.774 4.3558 20.8485 4.20855 20.8221L4.2919 20.786Z" fill="#242424"/>
<path d="M3.4223 17.9126C3.5001 17.9294 3.49176 17.8958 3.53621 18.004C3.50996 17.8609 3.50343 17.7156 3.51677 17.5712C3.46676 17.5976 3.38897 17.4702 3.40564 17.5351L3.44175 17.7203L3.39174 17.689C3.32507 17.8164 3.47231 17.778 3.4223 17.9126Z" fill="#242424"/>
<path d="M4.62805 10.5717C4.66417 10.591 4.70029 10.5718 4.73363 10.5501C4.69751 10.4371 4.63361 10.5934 4.62805 10.5717Z" fill="#242424"/>
<path d="M19.0946 9.94178C19.1419 9.86485 19.0946 9.91293 19.0696 9.91774L19.0946 9.94178Z" fill="#242424"/>
<path d="M19.0713 9.91774L19.053 9.8985C19.053 9.91773 19.0621 9.91774 19.0713 9.91774Z" fill="#242424"/>
<path d="M18.8863 9.8071C18.9557 9.75661 18.9808 9.86 19.0447 9.76863C19.0169 9.6965 18.9363 9.70131 18.8863 9.8071Z" fill="#242424"/>
<path d="M18.9336 9.89128L18.9586 9.83838L18.8891 9.91051L18.9336 9.89128Z" fill="#242424"/>
<path d="M18.9474 9.94656V9.92493L18.8641 9.96339L18.9474 9.94656Z" fill="#242424"/>
<path d="M18.739 9.72776H18.789C18.8085 9.81192 18.7279 9.81913 18.739 9.87684C18.7974 9.89126 18.8113 9.72776 18.8752 9.77104C18.8946 9.70131 18.7585 9.74219 18.8085 9.63639C18.764 9.58349 18.789 9.6965 18.739 9.72776Z" fill="#242424"/>
<path d="M15.7612 9.72968V9.71576C15.7578 9.72968 15.7578 9.74082 15.7612 9.72968Z" fill="#242424"/>
<path d="M14.9772 9.67729C14.9709 9.66578 14.9614 9.65585 14.9494 9.64844C14.9478 9.65962 14.9478 9.67092 14.9494 9.6821L14.9772 9.67729Z" fill="#242424"/>
<path d="M16.2941 9.60513C16.3012 9.61704 16.3095 9.62831 16.3191 9.6388C16.3164 9.62196 16.3108 9.60754 16.2941 9.60513Z" fill="#242424"/>
<path d="M14.0937 9.74939H14.0576C14.0771 9.76409 14.0882 9.75821 14.0937 9.74939Z" fill="#242424"/>
<path d="M15.1967 9.87372C15.1967 9.87372 15.18 9.85519 15.1717 9.85519C15.1777 9.86379 15.1865 9.87028 15.1967 9.87372Z" fill="#242424"/>
<path d="M18.0639 9.43781C18.0639 9.42111 18.0417 9.43781 18.0278 9.43781C18.0139 9.43781 18.0417 9.46286 18.0639 9.43781Z" fill="#242424"/>
<path d="M17.6083 9.33245C17.6083 9.33245 17.6133 9.31483 17.6083 9.33245V9.33245Z" fill="#242424"/>
<path d="M18.0278 9.43684C18.0278 9.38875 18.0528 9.24689 17.9778 9.39356V9.4152C17.9778 9.37673 17.925 9.43203 17.9028 9.43203C17.9015 9.44483 17.9015 9.4577 17.9028 9.4705C17.9168 9.47802 17.9299 9.48689 17.9417 9.49695C17.9556 9.53061 17.9917 9.46329 18.0278 9.43684Z" fill="#242424"/>
<path d="M15.7719 9.69891C15.7719 9.72915 15.7922 9.71655 15.7719 9.69891V9.69891Z" fill="#242424"/>
<path d="M16.0358 9.62439H16.0135C16.0135 9.62439 16.0274 9.63026 16.0358 9.62439Z" fill="#242424"/>
<path d="M16.9202 9.83594C16.91 9.84771 16.9168 9.84477 16.9202 9.83594V9.83594Z" fill="#242424"/>
<path d="M15.9913 9.61065H16.0135C16.0135 9.61065 16.0024 9.60181 15.9913 9.61065Z" fill="#242424"/>
<path d="M7.53693 9.03766C7.5536 9.02324 7.5675 9.06411 7.58417 9.07614C7.61195 8.96793 7.50915 9.07614 7.55361 8.98236C7.53694 8.98236 7.52582 8.99679 7.51471 9.01362L7.54527 9.1098C7.57583 9.06892 7.52304 9.07854 7.53693 9.03766Z" fill="#242424"/>
<path d="M10.9959 8.74672C10.9792 8.70344 10.9792 8.68901 10.9431 8.67218C10.9431 8.74431 11.0015 8.83809 10.9737 8.91262C10.9737 8.91262 10.9959 8.91262 11.0098 8.91262C10.9886 8.85931 10.9838 8.80212 10.9959 8.74672Z" fill="#242424"/>
<path d="M11.0209 8.92465V8.9487C11.0239 8.94722 11.0272 8.94644 11.0307 8.94644C11.0341 8.94644 11.0374 8.94722 11.0404 8.9487C11.0357 8.93968 11.0291 8.93151 11.0209 8.92465Z" fill="#242424"/>
<path d="M8.11487 9.03445H8.13709C8.1232 9.0227 8.12042 9.0227 8.11487 9.03445Z" fill="#242424"/>
<path d="M14.3326 8.50868L14.3632 8.47983C14.3559 8.48238 14.3494 8.48629 14.3442 8.49128C14.3389 8.49627 14.3349 8.50221 14.3326 8.50868Z" fill="#242424"/>
<path d="M11.4655 8.76599C11.4737 8.76824 11.4823 8.76824 11.4905 8.76599H11.4655Z" fill="#242424"/>
<path d="M10.2902 9.98022C10.2735 9.86722 10.2902 9.99224 10.2319 9.93454V9.99946C10.2513 10.0115 10.2708 9.98743 10.2902 9.98022Z" fill="#242424"/>
<path d="M9.43063 10.1897L9.41229 10.175C9.41417 10.1785 9.41676 10.1816 9.41991 10.1841C9.42306 10.1867 9.4267 10.1885 9.43063 10.1897Z" fill="#242424"/>
<path d="M11.2043 8.9415L11.3182 8.92707L11.2793 8.90543C11.2765 8.95592 11.2043 8.87176 11.2043 8.9415Z" fill="#242424"/>
<path d="M14.3578 9.81834C14.3568 9.81965 14.3559 9.82074 14.3549 9.82156C14.3559 9.82047 14.3568 9.8194 14.3578 9.81834C14.5068 9.65176 14.439 9.91255 14.5522 9.85282C14.6181 9.70856 14.724 9.58057 14.8606 9.48012L14.8967 9.52822C14.8383 9.52822 14.8772 9.64363 14.805 9.6268C14.8578 9.6797 14.9272 9.6268 14.98 9.65325C14.9772 9.63403 14.9789 9.61452 14.9851 9.59591C14.9914 9.5773 15.0019 9.55999 15.0161 9.54505C15.0495 9.5739 15.0356 9.65325 15.0773 9.66768L15.0273 9.71096C15.0412 9.77588 15.08 9.69894 15.1078 9.69413C15.1078 9.76145 15.1606 9.78309 15.1356 9.85523C15.2078 9.77347 15.2162 9.82637 15.2884 9.77828C15.2412 9.69893 15.3218 9.69412 15.3273 9.63882L15.2523 9.65325C15.3412 9.71336 15.219 9.65325 15.2023 9.77588C15.1662 9.71577 15.3023 9.59795 15.2217 9.60275C15.3273 9.55947 15.3357 9.61478 15.4523 9.53543C15.3884 9.54745 15.4773 9.46329 15.4523 9.42242C15.5274 9.42242 15.4523 9.4657 15.469 9.54264C15.5079 9.54264 15.5107 9.61237 15.5635 9.54264C15.6218 9.58592 15.5357 9.62439 15.5635 9.67729C15.5246 9.74943 15.4051 9.54986 15.3718 9.80233C15.3356 9.80233 15.2773 9.88889 15.2301 9.87687C15.2634 9.91774 15.3079 10.0067 15.369 9.95862L15.4023 9.81916C15.4412 9.81916 15.4718 9.72779 15.4968 9.74462C15.4718 9.78309 15.4968 9.84561 15.5218 9.8408C15.5468 9.83599 15.5023 9.82156 15.5218 9.79752C15.5829 9.79752 15.6135 9.70374 15.6885 9.68691C15.6481 9.63872 15.6171 9.5851 15.5968 9.52822C15.6329 9.43204 15.6385 9.52822 15.6718 9.51379C15.6686 9.5194 15.667 9.52557 15.667 9.53182C15.667 9.53808 15.6686 9.54424 15.6718 9.54986L15.7191 9.50657C15.7802 9.56188 15.6774 9.64844 15.7191 9.70615C15.7607 9.76385 15.7857 9.66767 15.808 9.72057V9.69413H15.8218C15.8635 9.69413 15.9024 9.69412 15.9302 9.63161C15.9302 9.66527 15.9663 9.63161 15.9858 9.60516C16.0052 9.57871 16.0858 9.50417 16.0886 9.6268C16.1104 9.63614 16.1278 9.65192 16.1374 9.6713C16.1471 9.69068 16.1485 9.71241 16.1414 9.7326L16.2108 9.77588L16.1803 9.86965C16.2553 9.85523 16.2636 9.79992 16.3358 9.70855C16.372 9.77588 16.4692 9.74462 16.5109 9.70855C16.5525 9.67249 16.5109 9.70855 16.5414 9.70855L16.5192 9.66768C16.5748 9.6821 16.5803 9.6292 16.6164 9.63642L16.6359 9.64844H16.6164V9.6821C16.6331 9.79031 16.697 9.63642 16.7359 9.6821H16.7165C16.7137 9.6821 16.7359 9.85523 16.7692 9.77588C16.7692 9.7879 16.7859 9.77588 16.8026 9.75424C16.822 9.73019 16.8415 9.69893 16.8387 9.71817L16.8998 9.74943C16.8998 9.76386 16.9304 9.74943 16.9471 9.74943V9.79271C16.9748 9.79271 16.9665 9.81435 16.961 9.82397C17.0082 9.97785 17.111 9.78309 17.1693 9.92015C17.2054 9.85763 17.1693 9.82156 17.1832 9.78549C17.1971 9.74943 17.2777 9.70374 17.3138 9.67248C17.3138 9.77347 17.4305 9.87927 17.3721 10.0043C17.4444 10.0308 17.3721 9.92015 17.4222 9.88168C17.3985 9.84421 17.3879 9.80162 17.3916 9.75904C17.4083 9.68691 17.4805 9.6821 17.4944 9.70615L17.4527 9.80233C17.5305 9.78309 17.5611 9.6292 17.6333 9.54024C17.6777 9.59313 17.6333 9.67489 17.6027 9.78068L17.6694 9.76866L17.6472 9.8432C17.6916 9.83118 17.7194 9.76385 17.7639 9.80473C17.7055 9.86725 17.8222 9.89129 17.7417 9.97545C17.7611 10.0067 17.8139 9.86244 17.8 9.97545C17.8444 9.90091 17.7861 9.92976 17.7778 9.90332C17.8 9.7855 17.8583 9.86003 17.9028 9.83839C17.8861 9.89851 17.8583 9.90331 17.8861 9.95381C17.9083 9.91053 17.9445 9.88167 17.9528 9.95381C17.975 9.87927 18.0028 9.95381 18.025 9.95381C18.0098 9.93205 18.0018 9.9071 18.0018 9.88168C18.0018 9.85625 18.0098 9.8313 18.025 9.80954C18.0556 9.7855 18.0778 9.77347 18.1195 9.79511L18.1001 9.75183C18.1751 9.65084 18.1417 9.84801 18.2084 9.82397C18.1695 9.86484 18.1556 9.86003 18.1167 9.91053C18.1653 9.87466 18.2174 9.84248 18.2723 9.81435L18.2862 9.93458C18.3084 9.88168 18.3362 9.95141 18.3612 9.87687C18.4001 9.94179 18.2834 9.95381 18.2612 10.0091C18.3168 10.074 18.3584 9.89851 18.3918 10.0284L18.3473 10.0933C18.364 10.0933 18.4093 10.0809 18.4166 10.0986C18.4159 10.0886 18.4127 10.0923 18.3973 10.0885C18.4584 9.94419 18.5362 10.0115 18.5807 9.84801L18.5501 9.83118C18.6113 9.81194 18.6807 9.71817 18.7002 9.78068C18.7049 9.79608 18.704 9.80987 18.6994 9.82245C18.719 9.79401 18.739 9.77275 18.7585 9.78309C18.7363 9.75183 18.7585 9.69893 18.7918 9.66287C18.7641 9.64604 18.7057 9.60035 18.6974 9.66287V9.6797C18.6857 9.70521 18.6677 9.72819 18.6446 9.74702C18.6001 9.74702 18.6446 9.67249 18.6446 9.64123C18.5779 9.59795 18.5863 9.79271 18.5224 9.77107V9.73981C18.4779 9.77107 18.4279 9.76626 18.389 9.85763C18.389 9.75183 18.3001 9.87927 18.2862 9.81194C18.3501 9.59073 18.3946 9.85282 18.4723 9.74462C18.4529 9.69172 18.5251 9.64363 18.5557 9.59794L18.4168 9.66527C18.4168 9.63401 18.4168 9.51619 18.3723 9.59073C18.3195 9.60516 18.3029 9.69893 18.2751 9.66046C18.2796 9.63639 18.29 9.61343 18.3056 9.59313C18.2779 9.56428 18.2612 9.63401 18.2306 9.64844C18.2029 9.62199 18.2779 9.56428 18.2556 9.53302C18.1862 9.60756 18.1973 9.49696 18.1584 9.49455C18.1362 9.62199 17.9667 9.63161 18.0084 9.75904L17.9 9.82397C17.9 9.75183 18.0111 9.66287 18.0195 9.55226L18.0862 9.5739C18.1223 9.41521 17.9139 9.64122 17.9222 9.45848C17.8861 9.44406 17.8889 9.45849 17.8444 9.37433L17.8139 9.51619C17.799 9.46897 17.799 9.41915 17.8139 9.37192C17.8036 9.37412 17.7927 9.37395 17.7825 9.37142C17.7723 9.36889 17.763 9.36409 17.7555 9.3575C17.7555 9.33826 17.7778 9.32143 17.7944 9.31662C17.7944 9.23487 17.7722 9.26131 17.75 9.29979C17.7278 9.33826 17.7055 9.32383 17.6833 9.31662L17.7194 9.26853C17.6978 9.27826 17.681 9.29451 17.6722 9.31422C17.6624 9.31087 17.6514 9.31087 17.6416 9.31422C17.6311 9.36511 17.6311 9.41721 17.6416 9.4681C17.575 9.39597 17.5027 9.4104 17.4638 9.28055C17.4777 9.24208 17.5222 9.1988 17.5138 9.19159C17.5055 9.18437 17.4277 9.22525 17.4138 9.28536H17.3916V9.20121C17.3856 9.19749 17.3787 9.19511 17.3714 9.19427C17.3642 9.19343 17.3568 9.19416 17.3499 9.1964C17.3082 9.3046 17.2554 9.23487 17.2249 9.28296C17.2322 9.28918 17.2409 9.29408 17.2504 9.29738C17.26 9.30069 17.2702 9.30232 17.2805 9.30219C17.2304 9.36952 17.1804 9.44887 17.1749 9.38395C17.2471 9.32383 17.1527 9.25651 17.2388 9.24208C17.2221 9.0906 17.1832 9.33826 17.136 9.27574L17.1138 9.21082C17.1415 9.13147 17.186 9.18437 17.186 9.15312H17.1582C17.1999 9.09781 17.2916 9.15312 17.3777 9.08098L17.2666 9.01125C17.0804 9.07136 16.9137 8.92469 16.7331 9.07377C16.7253 9.09018 16.7188 9.10705 16.7137 9.12426V9.10502L16.672 9.16033C16.672 9.07858 16.6081 9.05213 16.5748 8.9824C16.5888 9.02073 16.5888 9.06189 16.5748 9.10022C16.547 9.17957 16.5331 9.21323 16.497 9.17476C16.5109 9.11705 16.5386 9.12426 16.5164 9.07136C16.5164 9.10262 16.5164 9.14109 16.4803 9.1435C16.4636 9.10262 16.4247 9.08579 16.4386 9.02808C16.446 9.02167 16.4511 9.0221 16.455 9.02681C16.4489 9.00385 16.4451 8.96912 16.4636 8.94633H16.4164C16.3997 8.89343 16.4525 8.87419 16.4497 8.84053C16.3636 8.86698 16.2914 8.99201 16.2136 9.01846C16.2136 8.99468 16.2377 8.91522 16.2456 8.89446C16.2004 8.85108 16.099 9.01606 16.0358 9.01606C16.0524 8.97999 16.0719 8.99682 16.0941 8.9824C15.917 8.92751 15.7565 8.83874 15.6246 8.72271L15.5496 8.84775L15.5218 8.75156C15.3551 8.63855 15.1967 8.70107 15.0134 8.7179C14.955 8.7179 14.9967 8.61932 14.9772 8.57844C14.8578 8.54718 14.8022 8.69386 14.6827 8.70828C14.705 8.66981 14.7522 8.55921 14.705 8.54718C14.6883 8.58325 14.6716 8.64336 14.6439 8.61451L14.6661 8.57604C14.6494 8.51352 14.6105 8.57604 14.5549 8.53276C14.4494 8.53276 14.3327 8.60729 14.2271 8.74435C14.1354 8.72031 14.2577 8.60249 14.2438 8.57123C14.3021 8.62893 14.2938 8.55199 14.3132 8.50871C14.2743 8.54237 14.2271 8.56161 14.2243 8.46303C14.1743 8.46303 14.1521 8.46303 14.0965 8.51592C14.1243 8.48707 14.1382 8.53997 14.1104 8.58085C14.0743 8.54238 13.9659 8.58084 13.9882 8.451C13.752 8.451 13.4936 8.40772 13.238 8.40051C13.1908 8.46062 13.2686 8.42696 13.238 8.46784C13.1714 8.54718 13.1908 8.42455 13.138 8.48467L13.163 8.42215C13.088 8.40772 13.0019 8.52795 12.9296 8.58806C12.9435 8.51352 12.8713 8.52314 12.9296 8.47986C12.8963 8.47986 12.8602 8.15766 12.8324 8.22498L12.863 8.53756C12.863 8.56882 12.813 8.53757 12.8157 8.56882C12.7879 8.50631 12.7518 8.43417 12.7296 8.43417C12.7296 8.35482 12.7741 8.37166 12.8046 8.37406C12.8046 8.24422 12.7046 8.2875 12.7491 8.16968C12.6852 8.18891 12.749 8.23701 12.7185 8.2851L12.6629 8.25384L12.7046 8.29952C12.6574 8.33799 12.6435 8.43898 12.5796 8.36685L12.5157 8.49669C12.5157 8.3933 12.4684 8.47745 12.4351 8.45341L12.4546 8.38849C12.4101 8.38849 12.3907 8.37406 12.3601 8.33799C12.3823 8.24662 12.4018 8.35723 12.4101 8.27067L12.3601 8.24181C12.3601 8.30193 12.3323 8.34761 12.3601 8.38368C12.3184 8.49428 12.3018 8.58325 12.1878 8.58085C12.1295 8.48226 12.2378 8.48707 12.2101 8.38849C12.0823 8.35482 12.085 8.6602 12.0156 8.65298C11.9461 8.64577 11.9406 8.71069 11.8544 8.72511C11.8711 8.65298 11.7822 8.65779 11.7572 8.59527L11.7822 8.52073C11.7613 8.54088 11.7384 8.52727 11.7315 8.49263C11.7301 8.48593 11.7294 8.47843 11.7294 8.47024C11.7311 8.47834 11.7317 8.48577 11.7315 8.49263C11.7384 8.52727 11.7613 8.54088 11.7822 8.52073L11.7572 8.59527C11.7822 8.65779 11.8711 8.65298 11.8544 8.72511C11.9406 8.71069 11.9461 8.64577 12.0156 8.65298C12.085 8.6602 12.0823 8.35482 12.2101 8.38849C12.2378 8.48707 12.1295 8.48226 12.1878 8.58085C12.3018 8.58325 12.3184 8.49428 12.3601 8.38368C12.3323 8.34761 12.3601 8.30193 12.3601 8.24181L12.4101 8.27067C12.4018 8.35723 12.3823 8.24662 12.3601 8.33799C12.3907 8.37406 12.4101 8.38849 12.4546 8.38849L12.4351 8.45341C12.4684 8.47745 12.5157 8.3933 12.5157 8.49669L12.5796 8.36685C12.6435 8.43898 12.6574 8.33799 12.7046 8.29952L12.6629 8.25384L12.7185 8.2851C12.749 8.23701 12.6852 8.18891 12.7491 8.16968C12.7046 8.2875 12.8046 8.24422 12.8046 8.37406C12.7741 8.37166 12.7296 8.35482 12.7296 8.43417C12.7518 8.43417 12.7879 8.50631 12.8157 8.56882C12.813 8.53757 12.863 8.56882 12.863 8.53756L12.8324 8.22498C12.8602 8.15766 12.8963 8.47986 12.9296 8.47986C12.8713 8.52314 12.9435 8.51352 12.9296 8.58806C13.0019 8.52795 13.088 8.40772 13.163 8.42215L13.138 8.48467C13.1908 8.42455 13.1714 8.54718 13.238 8.46784C13.2686 8.42696 13.1908 8.46062 13.238 8.40051C13.4936 8.40772 13.752 8.451 13.9882 8.451C13.9659 8.58084 14.0743 8.54238 14.1104 8.58085C14.1382 8.53997 14.1243 8.48707 14.0965 8.51592C14.1521 8.46303 14.1743 8.46303 14.2243 8.46303C14.2271 8.56161 14.2743 8.54237 14.3132 8.50871C14.2938 8.55199 14.3021 8.62893 14.2438 8.57123C14.2577 8.60249 14.1354 8.72031 14.2271 8.74435C14.3327 8.60729 14.4494 8.53276 14.5549 8.53276C14.6105 8.57604 14.6494 8.51352 14.6661 8.57604L14.6439 8.61451C14.6716 8.64336 14.6883 8.58325 14.705 8.54718C14.7522 8.55921 14.705 8.66981 14.6827 8.70828C14.8022 8.69386 14.8578 8.54718 14.9772 8.57844C14.9967 8.61932 14.955 8.7179 15.0134 8.7179C15.1967 8.70107 15.3551 8.63855 15.5218 8.75156L15.5496 8.84775L15.6246 8.72271C15.7565 8.83874 15.917 8.92751 16.0941 8.9824C16.0719 8.99682 16.0524 8.97999 16.0358 9.01606C16.099 9.01606 16.2004 8.85108 16.2456 8.89446C16.2481 8.88793 16.2489 8.88721 16.2469 8.89583C16.2465 8.89535 16.246 8.8949 16.2456 8.89446C16.2377 8.91522 16.2136 8.99468 16.2136 9.01846C16.2914 8.99201 16.3636 8.86698 16.4497 8.84053C16.4525 8.87419 16.3997 8.89343 16.4164 8.94633H16.4636C16.4451 8.96912 16.4489 9.00385 16.455 9.02681C16.4584 9.03093 16.461 9.03834 16.4636 9.04732C16.4661 9.05583 16.4598 9.04503 16.455 9.02681C16.4511 9.0221 16.446 9.02167 16.4386 9.02808C16.4247 9.08579 16.4636 9.10262 16.4803 9.1435C16.5164 9.14109 16.5164 9.10262 16.5164 9.07136C16.5386 9.12426 16.5109 9.11705 16.497 9.17476C16.5331 9.21323 16.547 9.17957 16.5748 9.10022C16.5888 9.06189 16.5888 9.02073 16.5748 8.9824C16.6081 9.05213 16.672 9.07858 16.672 9.16033L16.7137 9.10502V9.12426C16.7188 9.10705 16.7253 9.09018 16.7331 9.07377C16.9137 8.92469 17.0804 9.07136 17.2666 9.01125L17.3777 9.08098C17.2916 9.15312 17.1999 9.09781 17.1582 9.15312H17.186C17.186 9.18437 17.1415 9.13147 17.1138 9.21082L17.136 9.27574C17.1832 9.33826 17.2221 9.0906 17.2388 9.24208C17.1527 9.25651 17.2471 9.32383 17.1749 9.38395C17.1804 9.44887 17.2304 9.36952 17.2805 9.30219C17.2702 9.30232 17.26 9.30069 17.2504 9.29738C17.2409 9.29408 17.2322 9.28918 17.2249 9.28296C17.2554 9.23487 17.3082 9.3046 17.3499 9.1964C17.3568 9.19416 17.3642 9.19343 17.3714 9.19427C17.3787 9.19511 17.3856 9.19749 17.3916 9.20121V9.28536H17.4138C17.4277 9.22525 17.5055 9.18437 17.5138 9.19159C17.5222 9.1988 17.4777 9.24208 17.4638 9.28055C17.5027 9.4104 17.575 9.39597 17.6416 9.4681C17.6311 9.41721 17.6311 9.36511 17.6416 9.31422C17.6514 9.31087 17.6624 9.31087 17.6722 9.31422C17.681 9.29451 17.6978 9.27826 17.7194 9.26853L17.6833 9.31662C17.7055 9.32383 17.7278 9.33826 17.75 9.29979C17.7722 9.26131 17.7944 9.23487 17.7944 9.31662C17.7778 9.32143 17.7555 9.33826 17.7555 9.3575C17.763 9.36409 17.7723 9.36889 17.7825 9.37142C17.7927 9.37395 17.8036 9.37412 17.8139 9.37192C17.799 9.41915 17.799 9.46897 17.8139 9.51619L17.8444 9.37433C17.8889 9.45849 17.8861 9.44406 17.9222 9.45848C17.9139 9.64122 18.1223 9.41521 18.0862 9.5739L18.0195 9.55226C18.0111 9.66287 17.9 9.75183 17.9 9.82397L18.0084 9.75904C17.9667 9.63161 18.1362 9.62199 18.1584 9.49455C18.1973 9.49696 18.1862 9.60756 18.2556 9.53302C18.2779 9.56428 18.2029 9.62199 18.2306 9.64844C18.2612 9.63401 18.2779 9.56428 18.3056 9.59313C18.29 9.61343 18.2796 9.63639 18.2751 9.66046C18.3029 9.69893 18.3195 9.60516 18.3723 9.59073C18.4168 9.51619 18.4168 9.63401 18.4168 9.66527L18.5557 9.59794C18.5251 9.64363 18.4529 9.69172 18.4723 9.74462C18.3946 9.85282 18.3501 9.59073 18.2862 9.81194C18.3001 9.87927 18.389 9.75183 18.389 9.85763C18.4279 9.76626 18.4779 9.77107 18.5224 9.73981V9.77107C18.5863 9.79271 18.5779 9.59795 18.6446 9.64123C18.6446 9.67249 18.6001 9.74702 18.6446 9.74702C18.6677 9.72819 18.6857 9.70521 18.6974 9.6797V9.66287C18.7057 9.60035 18.7641 9.64604 18.7918 9.66287C18.7585 9.69893 18.7363 9.75183 18.7585 9.78309C18.739 9.77275 18.719 9.79401 18.6994 9.82245C18.695 9.83453 18.6872 9.84548 18.6779 9.85568C18.6552 9.89184 18.6334 9.9254 18.614 9.91534C18.6298 9.89667 18.6576 9.87801 18.6779 9.85568C18.685 9.84444 18.6922 9.83296 18.6994 9.82245C18.704 9.80987 18.7049 9.79608 18.7002 9.78068C18.6807 9.71817 18.6113 9.81194 18.5501 9.83118L18.5807 9.84801C18.5362 10.0115 18.4584 9.94419 18.3973 10.0885C18.4127 10.0923 18.4159 10.0886 18.4166 10.0986C18.4178 10.1015 18.418 10.1053 18.4168 10.1101C18.4168 10.105 18.4168 10.1013 18.4166 10.0986C18.4093 10.0809 18.364 10.0933 18.3473 10.0933L18.3918 10.0284C18.3584 9.89851 18.3168 10.074 18.2612 10.0091C18.2834 9.95381 18.4001 9.94179 18.3612 9.87687C18.3362 9.95141 18.3084 9.88168 18.2862 9.93458L18.2723 9.81435C18.2174 9.84248 18.1653 9.87466 18.1167 9.91053C18.1556 9.86003 18.1695 9.86484 18.2084 9.82397C18.1417 9.84801 18.1751 9.65084 18.1001 9.75183L18.1195 9.79511C18.0778 9.77347 18.0556 9.7855 18.025 9.80954C18.0098 9.8313 18.0018 9.85625 18.0018 9.88168C18.0018 9.9071 18.0098 9.93205 18.025 9.95381C18.0028 9.95381 17.975 9.87927 17.9528 9.95381C17.9445 9.88167 17.9083 9.91053 17.8861 9.95381C17.8583 9.90331 17.8861 9.89851 17.9028 9.83839C17.8583 9.86003 17.8 9.7855 17.7778 9.90332C17.7861 9.92976 17.8444 9.90091 17.8 9.97545C17.8139 9.86244 17.7611 10.0067 17.7417 9.97545C17.8222 9.89129 17.7055 9.86725 17.7639 9.80473C17.7194 9.76385 17.6916 9.83118 17.6472 9.8432L17.6694 9.76866L17.6027 9.78068C17.6333 9.67489 17.6777 9.59313 17.6333 9.54024C17.5611 9.6292 17.5305 9.78309 17.4527 9.80233L17.4944 9.70615C17.4805 9.6821 17.4083 9.68691 17.3916 9.75904C17.3879 9.80162 17.3985 9.84421 17.4222 9.88168C17.3721 9.92015 17.4444 10.0308 17.3721 10.0043C17.4305 9.87927 17.3138 9.77347 17.3138 9.67248C17.2777 9.70374 17.1971 9.74943 17.1832 9.78549C17.1693 9.82156 17.2054 9.85763 17.1693 9.92015C17.111 9.78309 17.0082 9.97785 16.961 9.82397C16.9665 9.81435 16.9748 9.79271 16.9471 9.79271V9.74943C16.9304 9.74943 16.8998 9.76386 16.8998 9.74943L16.8387 9.71817C16.8415 9.69893 16.822 9.73019 16.8026 9.75424C16.7859 9.77588 16.7692 9.7879 16.7692 9.77588C16.7359 9.85523 16.7137 9.6821 16.7165 9.6821H16.7359C16.697 9.63642 16.6331 9.79031 16.6164 9.6821V9.64844H16.6359L16.6164 9.63642C16.5803 9.6292 16.5748 9.6821 16.5192 9.66768L16.5414 9.70855C16.5109 9.70855 16.5525 9.67249 16.5109 9.70855C16.4692 9.74462 16.372 9.77588 16.3358 9.70855C16.2636 9.79992 16.2553 9.85523 16.1803 9.86965L16.2108 9.77588L16.1414 9.7326C16.1485 9.71241 16.1471 9.69068 16.1374 9.6713C16.1278 9.65192 16.1104 9.63614 16.0886 9.6268C16.0858 9.50417 16.0052 9.57871 15.9858 9.60516C15.9663 9.63161 15.9302 9.66527 15.9302 9.63161C15.9024 9.69412 15.8635 9.69413 15.8218 9.69413H15.808V9.72057C15.7857 9.66767 15.7607 9.76385 15.7191 9.70615C15.6774 9.64844 15.7802 9.56188 15.7191 9.50657L15.6718 9.54986C15.6686 9.54424 15.667 9.53808 15.667 9.53182C15.667 9.52557 15.6686 9.5194 15.6718 9.51379C15.6385 9.52822 15.6329 9.43204 15.5968 9.52822C15.6171 9.5851 15.6481 9.63872 15.6885 9.68691C15.6135 9.70374 15.5829 9.79752 15.5218 9.79752C15.5023 9.82156 15.5468 9.83599 15.5218 9.8408C15.4968 9.84561 15.4718 9.78309 15.4968 9.74462C15.4718 9.72779 15.4412 9.81916 15.4023 9.81916L15.369 9.95862C15.3079 10.0067 15.2634 9.91774 15.2301 9.87687C15.2773 9.88889 15.3356 9.80233 15.3718 9.80233C15.4051 9.54986 15.5246 9.74943 15.5635 9.67729C15.5357 9.62439 15.6218 9.58592 15.5635 9.54264C15.5107 9.61237 15.5079 9.54264 15.469 9.54264C15.4523 9.4657 15.5274 9.42242 15.4523 9.42242C15.4773 9.46329 15.3884 9.54745 15.4523 9.53543C15.3357 9.61478 15.3273 9.55947 15.2217 9.60275C15.3023 9.59795 15.1662 9.71577 15.2023 9.77588C15.219 9.65325 15.3412 9.71336 15.2523 9.65325L15.3273 9.63882C15.3218 9.69412 15.2412 9.69893 15.2884 9.77828C15.2162 9.82637 15.2078 9.77347 15.1356 9.85523C15.1606 9.78309 15.1078 9.76145 15.1078 9.69413C15.08 9.69894 15.0412 9.77588 15.0273 9.71096L15.0773 9.66768C15.0356 9.65325 15.0495 9.5739 15.0161 9.54505C15.0019 9.55999 14.9914 9.5773 14.9851 9.59591C14.9789 9.61452 14.9772 9.63403 14.98 9.65325C14.9272 9.6268 14.8578 9.6797 14.805 9.6268C14.8772 9.64363 14.8383 9.52822 14.8967 9.52822L14.8606 9.48012C14.724 9.58057 14.6181 9.70856 14.5522 9.85282C14.439 9.91255 14.5068 9.65176 14.3578 9.81834Z" fill="#242424"/>
<path d="M11.0181 9.04248C11.0181 9.04248 11.0404 9.06412 11.0654 9.07614C11.0616 9.06744 11.0553 9.05974 11.047 9.05383C11.0387 9.04792 11.0287 9.044 11.0181 9.04248Z" fill="#242424"/>
<path d="M18.5251 10.062H18.5029L18.5223 10.1149C18.5973 10.0812 18.6223 10.0163 18.6612 9.94656C18.5862 10.0019 18.5668 9.96099 18.4918 9.9634L18.5251 10.062Z" fill="#242424"/>
<path d="M18.6613 9.55944C18.666 9.53154 18.666 9.50319 18.6613 9.47528L18.639 9.51856L18.6613 9.55944Z" fill="#242424"/>
<path d="M18.0306 9.17232L18.075 9.22523C18.1056 9.19637 18.0611 9.10499 18.0306 9.17232Z" fill="#242424"/>
<path d="M18.0333 10.0187L18.0778 9.97541C18.0639 9.92973 18.0278 9.92733 18.0056 9.97541C18.05 9.95858 18.0028 10.0115 18.0333 10.0187Z" fill="#242424"/>
<path d="M17.8806 9.12906C17.8361 9.21561 17.8361 9.07617 17.8 9.16031C17.8222 9.13868 17.8528 9.21801 17.8806 9.12906Z" fill="#242424"/>
<path d="M17.6639 9.99466C17.6639 10.0836 17.7056 10.0139 17.7361 10.0427C17.7056 10.0355 17.6944 9.93695 17.6639 9.99466Z" fill="#242424"/>
<path d="M17.5055 9.319C17.5249 9.25408 17.5471 9.2637 17.5694 9.28534C17.5916 9.30698 17.5416 9.33102 17.5277 9.33823C17.5593 9.31761 17.5938 9.30064 17.6305 9.28774C17.6083 9.23485 17.5638 9.19397 17.5916 9.11462C17.5342 9.17093 17.5034 9.24392 17.5055 9.319Z" fill="#242424"/>
<path d="M17.5777 9.98505C17.5971 10.0163 17.5971 10.0812 17.6333 10.0836C17.6333 10.0379 17.6499 9.96822 17.6055 9.97062L17.6416 9.89849C17.6277 9.83597 17.6277 10.0019 17.5777 9.98505Z" fill="#242424"/>
<path d="M17.3915 9.10982V9.14829C17.4499 9.09539 17.4943 9.14829 17.5444 9.0473C17.5152 9.0476 17.4864 9.05334 17.4601 9.06413C17.4337 9.07492 17.4103 9.0905 17.3915 9.10982Z" fill="#242424"/>
<path d="M17.4749 9.81432L17.4388 9.91772C17.4749 9.94176 17.4388 9.88165 17.4693 9.86001C17.4693 9.87924 17.4916 9.89127 17.5055 9.87444C17.4554 9.87925 17.5277 9.78787 17.4749 9.81432Z" fill="#242424"/>
<path d="M17.3082 9.90088L17.2443 9.93454V10.0596C17.3249 10.0307 17.2721 9.99465 17.3082 9.90088Z" fill="#242424"/>
<path d="M17.2638 9.81674V9.7951L17.1415 9.93456C17.1899 9.90174 17.2313 9.86187 17.2638 9.81674Z" fill="#242424"/>
<path d="M16.4858 8.93669C16.4664 8.98238 16.4997 9.0473 16.4858 8.99199C16.4719 8.93669 16.4608 8.8862 16.4858 8.93669Z" fill="#242424"/>
<path d="M16.4608 9.82155C16.4469 9.78308 16.358 9.83357 16.3192 9.85761C16.3636 9.84319 16.4497 9.88406 16.4608 9.82155Z" fill="#242424"/>
<path d="M16.3025 9.87229L16.3208 9.8576C16.3208 9.8576 16.3086 9.86642 16.3025 9.87229Z" fill="#242424"/>
<path d="M14.9522 9.85762C14.9689 9.87445 15.0189 9.85762 15.0355 9.80472C14.9902 9.8222 14.9496 9.84757 14.9161 9.87926C14.93 9.87445 14.9411 9.91773 14.9522 9.85762Z" fill="#242424"/>
<path d="M14.6522 9.79029C14.6716 9.76383 14.6911 9.79029 14.6938 9.73738C14.6966 9.68448 14.6466 9.75902 14.6522 9.79029Z" fill="#242424"/>
<path d="M12.6268 8.28026C12.5934 8.25622 12.574 8.28026 12.5851 8.34277C12.6101 8.34277 12.5907 8.3019 12.6268 8.28026Z" fill="#242424"/>
<path d="M12.5296 8.3596L12.524 8.32594L12.5018 8.27304L12.5296 8.3596Z" fill="#242424"/>
<path d="M12.2918 8.26581C12.2893 8.25547 12.2893 8.2449 12.2918 8.23456C12.2918 8.23456 12.2781 8.25379 12.2918 8.26581Z" fill="#242424"/>
<path d="M12.3284 8.2514V8.21533C12.3239 8.22128 12.3176 8.22625 12.3101 8.22976C12.3101 8.22976 12.3253 8.23457 12.3284 8.2514Z" fill="#242424"/>
<path d="M12.2184 8.25624L12.2712 8.35722C12.3128 8.30433 12.2128 8.30433 12.2545 8.19373L12.2184 8.25624Z" fill="#242424"/>
<path d="M12.0711 8.29469C12.0239 8.26584 11.9795 8.43175 11.9406 8.31393C11.8239 8.38606 11.9933 8.5135 11.86 8.5688C11.9989 8.6217 11.8961 8.32836 12.0239 8.38847C11.9433 8.31874 12.0406 8.32595 12.0711 8.29469Z" fill="#242424"/>
<path d="M12.0989 8.49906C12.0989 8.43654 12.0434 8.43654 12.0322 8.47741C12.0211 8.51829 12.085 8.56638 12.0989 8.49906Z" fill="#242424"/>
<path d="M11.8211 8.36924L11.7766 8.32596L11.7739 8.36684L11.8211 8.36924Z" fill="#242424"/>
<path d="M11.6766 8.36201L11.7016 8.28748C11.6933 8.31633 11.6405 8.31633 11.6766 8.36201Z" fill="#242424"/>
<path d="M11.4682 8.30191C11.4293 8.28268 11.4321 8.44858 11.496 8.4029H11.4765C11.4765 8.37405 11.4265 8.32115 11.4682 8.30191Z" fill="#242424"/>
<path d="M11.0904 8.62411C11.1126 8.62411 11.1348 8.60007 11.1209 8.56641L11.0709 8.60968L11.0904 8.62411Z" fill="#242424"/>
<path d="M11.196 9.01122C11.2377 9.10499 11.246 8.99439 11.2932 9.01122C11.2377 9.00881 11.2377 8.99439 11.196 9.01122Z" fill="#242424"/>
<path d="M10.9876 8.49908C10.9876 8.45579 11.0265 8.47743 11.0431 8.48224C11.0209 8.42694 10.9848 8.44858 10.9876 8.49908Z" fill="#242424"/>
<path d="M10.9015 8.55197C10.8737 8.5159 10.9015 8.49666 10.8709 8.47262C10.8403 8.44858 10.7737 8.45098 10.7653 8.50869C10.7998 8.57234 10.8215 8.64066 10.8292 8.71066C10.8848 8.66257 10.8709 8.47021 10.9404 8.60727V8.42693C10.8903 8.4101 10.9404 8.55437 10.9015 8.55197Z" fill="#242424"/>
<path d="M11.1182 8.84774L11.0682 8.79724C11.0766 8.8117 11.0795 8.82808 11.0765 8.84406C11.0735 8.86003 11.0647 8.87478 11.0515 8.88621C11.0932 9.00883 11.0988 8.85976 11.1182 8.84774Z" fill="#242424"/>
<path d="M10.5598 8.70105L10.4958 8.74432L10.5209 8.74673L10.5598 8.70105Z" fill="#242424"/>
<path d="M10.5014 8.67217L10.4903 8.63611L10.4514 8.71304L10.5014 8.67217Z" fill="#242424"/>
<path d="M10.4125 8.64576L10.4236 8.65056L10.4569 8.60968L10.4125 8.64576Z" fill="#242424"/>
<path d="M10.2542 8.65536L10.2819 8.70345C10.2986 8.68662 10.3514 8.73711 10.3264 8.66739C10.3181 8.69384 10.2764 8.69384 10.2542 8.65536Z" fill="#242424"/>
<path d="M10.1541 10.0812C10.1542 10.0481 10.1436 10.0156 10.1235 9.98746V10.0788C10.1235 10.0788 10.143 10.062 10.1541 10.0812Z" fill="#242424"/>
<path d="M10.0235 9.95618L9.99854 10.0692C10.0652 10.0692 10.0513 9.98984 10.1013 9.96339C10.068 9.93694 10.0569 10.0163 10.0208 9.99465L10.0235 9.95618Z" fill="#242424"/>
<path d="M8.88998 10.0933C8.88998 10.0259 8.87053 10.0379 8.88998 9.98746C8.83997 10.0379 8.78718 10.0307 8.72328 10.05C8.74273 10.0884 8.70661 10.1678 8.72328 10.1461L8.78996 10.0957V10.1437C8.86776 10.187 8.82608 10.0644 8.88998 10.0933Z" fill="#242424"/>
<path d="M5.95885 9.51377C5.9656 9.48359 5.9656 9.45257 5.95885 9.42239C5.91163 9.45606 5.95885 9.50656 5.95885 9.51377Z" fill="#242424"/>
<path d="M15.2106 7.77292C15.305 7.80418 15.2411 7.77292 15.2328 7.74887L15.2106 7.77292Z" fill="#242424"/>
<path d="M15.2329 7.75366L15.2504 7.73443C15.2329 7.73203 15.23 7.73924 15.2329 7.75366Z" fill="#242424"/>
<path d="M15.3245 7.5661C15.3968 7.6166 15.2829 7.65988 15.3995 7.69835C15.4746 7.65988 15.4551 7.58774 15.3245 7.5661Z" fill="#242424"/>
<path d="M15.2412 7.62381L15.3051 7.63583L15.2078 7.59015L15.2412 7.62381Z" fill="#242424"/>
<path d="M15.1773 7.64548L15.2023 7.64308L15.1439 7.57816L15.1773 7.64548Z" fill="#242424"/>
<path d="M15.3829 7.42184L15.3995 7.46513C15.3078 7.50119 15.2801 7.43146 15.2189 7.46513C15.2189 7.52043 15.4023 7.49639 15.369 7.56371C15.4523 7.56371 15.369 7.45311 15.5051 7.46994C15.5523 7.40502 15.4301 7.4531 15.3829 7.42184Z" fill="#242424"/>
<path d="M14.1198 5.13037C14.1198 5.13037 14.1062 5.13538 14.1198 5.13037V5.13037Z" fill="#242424"/>
<path d="M13.6575 4.62784C13.6615 4.61689 13.6615 4.60513 13.6575 4.59418C13.6485 4.60142 13.6418 4.61052 13.6381 4.62063L13.6575 4.62784Z" fill="#242424"/>
<path d="M14.5383 5.41412C14.5309 5.42459 14.5253 5.43593 14.5216 5.44779C14.5355 5.43817 14.5438 5.42615 14.5383 5.41412Z" fill="#242424"/>
<path d="M10.6129 4.0099C10.6085 3.99914 10.6028 3.98868 10.5959 3.97864V4.0099H10.6129Z" fill="#242424"/>
<path d="M13.088 4.36879C13.0852 4.36664 13.0818 4.36548 13.0783 4.36548C13.0748 4.36548 13.0714 4.36664 13.0685 4.36879C13.0685 4.36879 13.0797 4.3923 13.088 4.36879Z" fill="#242424"/>
<path d="M13.6414 4.88753C13.6414 4.88753 13.6414 4.86589 13.6414 4.86108C13.6379 4.86973 13.6379 4.87889 13.6414 4.88753Z" fill="#242424"/>
<path d="M15.519 6.7342C15.519 6.7342 15.519 6.71016 15.5051 6.70295C15.4912 6.69574 15.4829 6.72218 15.519 6.7342Z" fill="#242424"/>
<path d="M15.4745 6.47009C15.4949 6.46716 15.4881 6.46716 15.4745 6.47009V6.47009Z" fill="#242424"/>
<path d="M15.4579 6.3124C15.4579 6.3124 15.4783 6.29478 15.4579 6.3124V6.3124Z" fill="#242424"/>
<path d="M15.5051 6.7029C15.5551 6.67645 15.7191 6.65722 15.5357 6.64279H15.5107C15.5524 6.62356 15.4774 6.60432 15.469 6.58508H15.4246C15.424 6.60102 15.4192 6.61664 15.4107 6.63077C15.3745 6.67405 15.4635 6.68126 15.5051 6.7029Z" fill="#242424"/>
<path d="M14.1523 5.1087C14.115 5.12634 14.1523 5.13516 14.1523 5.1087V5.1087Z" fill="#242424"/>
<path d="M14.3754 5.24817C14.3754 5.24817 14.3754 5.23374 14.3754 5.22653C14.3754 5.21932 14.3619 5.24336 14.3754 5.24817Z" fill="#242424"/>
<path d="M14.6318 5.98032C14.6148 5.9753 14.6216 5.98032 14.6318 5.98032V5.98032Z" fill="#242424"/>
<path d="M14.3632 5.20975C14.3647 5.21587 14.3647 5.22215 14.3632 5.22826C14.3632 5.22826 14.3768 5.21239 14.3632 5.20975Z" fill="#242424"/>
<path d="M7.60641 6.51778C7.60641 6.49614 7.64531 6.49614 7.66198 6.48412C7.55363 6.42401 7.64253 6.55625 7.55085 6.48412C7.55076 6.49264 7.55268 6.50109 7.5565 6.50895C7.56033 6.51681 7.56596 6.5239 7.57307 6.5298H7.68976C7.65364 6.49133 7.64808 6.55144 7.60641 6.51778Z" fill="#242424"/>
<path d="M10.2819 3.90648H10.2958C10.268 3.86801 10.2652 3.85358 10.2208 3.84396C10.2208 3.9161 10.3236 3.99304 10.3208 4.08441C10.3208 4.08441 10.3375 4.06998 10.3541 4.08441C10.3088 4.03326 10.2835 3.97093 10.2819 3.90648Z" fill="#242424"/>
<path d="M10.3541 4.08444L10.3708 4.10368C10.3789 4.1013 10.3877 4.1013 10.3958 4.10368C10.3841 4.09423 10.3697 4.08759 10.3541 4.08444Z" fill="#242424"/>
<path d="M7.83147 5.96401L7.84813 5.9455C7.82591 5.95079 7.82314 5.95607 7.83147 5.96401Z" fill="#242424"/>
<path d="M13.9159 3.33523C13.9334 3.3383 13.9512 3.3383 13.9687 3.33523C13.9603 3.33143 13.9514 3.32947 13.9423 3.32947C13.9332 3.32947 13.9242 3.33143 13.9159 3.33523Z" fill="#242424"/>
<path d="M10.0791 5.2554C10.0068 5.16162 10.0791 5.2554 10.0124 5.23136L10.0374 5.28906C10.068 5.29147 10.068 5.26742 10.0791 5.2554Z" fill="#242424"/>
<path d="M9.65399 5.68823H9.63177C9.63892 5.69119 9.64685 5.69119 9.65399 5.68823Z" fill="#242424"/>
<path d="M10.5431 4.06038L10.6514 4.02431L10.6097 4.00989C10.6209 4.06759 10.5264 3.99306 10.5431 4.06038Z" fill="#242424"/>
<path d="M10.4375 5.10874L10.4848 5.16404C10.4848 4.99573 10.6876 5.13278 10.6403 4.92359C10.8709 5.0895 10.5959 4.70238 10.807 4.85146L10.7848 4.8226C11.1321 4.7168 11.5544 4.71921 11.8572 4.51242L11.8739 4.55811C12.1473 4.51588 12.4173 4.45886 12.6824 4.38739C12.7601 4.36718 12.8403 4.35507 12.9213 4.35132C12.9413 4.34939 12.9616 4.35119 12.9808 4.35658C12.9999 4.36197 13.0176 4.37083 13.0325 4.38258C13.0741 4.35132 13.1186 4.25274 13.1686 4.21667C13.1686 4.21667 13.2047 4.2311 13.1686 4.28159C13.1325 4.33209 13.1102 4.34892 13.0908 4.36575C13.1186 4.36575 13.0908 4.4475 13.1825 4.40903L13.213 4.33449C13.2492 4.31766 13.2492 4.33449 13.2575 4.35854C13.2658 4.38258 13.1741 4.45712 13.1519 4.46433C13.3547 4.36815 13.1297 4.55811 13.238 4.54368C13.3796 4.45705 13.5481 4.40929 13.7215 4.40663V4.46193C13.6881 4.42346 13.6131 4.53406 13.5798 4.48357C13.5798 4.5509 13.6687 4.54128 13.6742 4.59898C13.7076 4.56532 13.7576 4.53647 13.7881 4.54128C13.8187 4.54609 13.7131 4.62784 13.727 4.6615H13.6576C13.6159 4.7144 13.7048 4.68314 13.727 4.69516C13.6687 4.73845 13.6881 4.78413 13.6103 4.8202C13.727 4.80577 13.6854 4.84665 13.7715 4.85626C13.8104 4.77451 13.8659 4.81779 13.9187 4.78413L13.8576 4.75047C13.8576 4.84184 13.8298 4.73364 13.7215 4.80337C13.7493 4.74085 13.9382 4.74325 13.8798 4.69757C13.9854 4.73123 13.9437 4.77211 14.0882 4.78894C14.0354 4.76009 14.1688 4.75768 14.1854 4.71681C14.2299 4.7697 14.1549 4.75287 14.0938 4.80577C14.1188 4.83462 14.0604 4.87791 14.1632 4.86348C14.1632 4.9284 14.0715 4.89955 14.041 4.94523C13.9521 4.96928 14.041 4.7673 13.8076 4.91157C13.7881 4.89233 13.6742 4.91157 13.6548 4.88271C13.6548 4.9284 13.5909 5.01015 13.6742 5.01256L13.8159 4.94042C13.8382 4.96687 13.9382 4.92359 13.9382 4.94042C13.8909 4.94042 13.8437 5.00054 13.8687 5.01496C13.8937 5.02939 13.8687 4.99332 13.9021 4.9813C13.9382 5.01737 14.041 4.9813 14.1021 5.01496C14.1203 4.95831 14.1474 4.9041 14.1827 4.85386C14.291 4.81299 14.2188 4.8755 14.2466 4.89233C14.239 4.89202 14.2314 4.8934 14.2246 4.89635C14.2178 4.8993 14.2119 4.90371 14.2077 4.90916H14.2743C14.2743 4.9837 14.1215 4.97168 14.1021 5.03901C14.0354 5.10874 14.1743 5.05824 14.141 5.10393L14.1632 5.0871V5.10874C14.1966 5.13038 14.2049 5.16404 14.2882 5.13999C14.2549 5.15683 14.3132 5.15923 14.3438 5.15923C14.3744 5.15923 14.4966 5.15923 14.3827 5.24098C14.3865 5.26094 14.3818 5.2814 14.3695 5.29862C14.3573 5.31584 14.3383 5.32867 14.316 5.33476V5.40689L14.2105 5.43815C14.266 5.48143 14.3216 5.45498 14.4466 5.45498C14.4021 5.5151 14.4827 5.56559 14.5355 5.58002C14.5333 5.58374 14.5322 5.58786 14.5322 5.59204C14.5322 5.59622 14.5333 5.60034 14.5355 5.60406L14.5688 5.56559C14.5688 5.61128 14.6355 5.58964 14.6466 5.61849C14.6466 5.61849 14.6605 5.61849 14.6466 5.61849V5.63772C14.6466 5.63772 14.6466 5.63772 14.6466 5.6233L14.6133 5.64013C14.5161 5.70745 14.6994 5.6762 14.6744 5.72669C14.6744 5.72669 14.6605 5.72669 14.6605 5.71467C14.6383 5.74593 14.4994 5.81566 14.5939 5.79883C14.5939 5.79883 14.5939 5.79883 14.63 5.79883V5.82047C14.6285 5.81412 14.6285 5.80758 14.63 5.80123C14.6633 5.80123 14.705 5.80123 14.6828 5.80123V5.86134C14.6828 5.87577 14.6828 5.88779 14.7078 5.895L14.6661 5.91665C14.68 5.93348 14.6661 5.94069 14.6411 5.94069C14.5077 6.04408 14.7522 6.03206 14.6411 6.13546C14.7217 6.13546 14.7467 6.09698 14.7883 6.08737C14.8486 6.0959 14.9068 6.11295 14.9606 6.13786C14.8633 6.19316 14.7939 6.31579 14.6383 6.32301C14.6383 6.38552 14.7272 6.28694 14.7856 6.31098C14.8157 6.27779 14.8562 6.25276 14.9022 6.23885C14.9828 6.21961 15.0217 6.27492 14.9995 6.29656H14.88C14.9328 6.35186 15.1078 6.31339 15.2329 6.33743C15.194 6.39514 15.0828 6.37831 14.98 6.40235L15.0162 6.45044H14.9273C14.9578 6.4817 15.0412 6.4793 15.0134 6.52979C14.9245 6.50575 14.9411 6.60673 14.8217 6.57307C14.7967 6.59952 14.9689 6.59231 14.8495 6.61635C14.9467 6.61635 14.8967 6.5875 14.9245 6.57307C15.0606 6.54903 14.9967 6.62357 15.0328 6.65002C14.9634 6.65002 14.9495 6.65002 14.905 6.67647C14.9606 6.67647 15.0023 6.70051 14.9411 6.72456C15.03 6.72456 14.9634 6.76543 14.9578 6.78467C14.9758 6.7646 14.9999 6.74926 15.0273 6.74034C15.0548 6.73143 15.0846 6.72929 15.1134 6.73417C15.1523 6.7486 15.1745 6.76543 15.1634 6.80631L15.2023 6.77505C15.3357 6.80631 15.1106 6.84238 15.1551 6.89047C15.1164 6.87067 15.0755 6.85454 15.0328 6.84238C15.0885 6.87044 15.1407 6.90348 15.1884 6.94096L15.0578 6.98664C15.1245 6.98664 15.0578 7.03233 15.144 7.03233C15.0828 7.08523 15.0356 6.99145 14.9689 6.98905C14.9134 7.05157 15.119 7.03954 14.9828 7.09965L14.8995 7.08042C14.8995 7.09965 14.9384 7.14053 14.8995 7.14294C14.93 7.14294 14.9189 7.14293 14.9189 7.12129C15.0967 7.12129 15.0439 7.21747 15.2273 7.21267L15.2412 7.18381C15.2773 7.2295 15.3996 7.26797 15.3329 7.29923C15.2662 7.33049 15.2079 7.27518 15.1606 7.25835C15.1467 7.29923 15.3607 7.30163 15.3412 7.35213C15.3718 7.32568 15.4385 7.3353 15.4829 7.35213C15.4968 7.32087 15.5385 7.25835 15.4579 7.26557L15.4412 7.27759C15.4093 7.27282 15.379 7.26216 15.3523 7.24633C15.3523 7.20545 15.4357 7.2295 15.4718 7.22228C15.5024 7.15255 15.2884 7.22229 15.294 7.15015H15.3301C15.2829 7.11889 15.2773 7.07321 15.1634 7.06599C15.2829 7.03714 15.1162 6.99867 15.1856 6.96741C15.4496 6.96741 15.1717 7.0708 15.3134 7.10687C15.3662 7.0732 15.4385 7.1261 15.4968 7.14053L15.3857 7.03473C15.4218 7.03473 15.5524 6.99386 15.4551 6.97462C15.4218 6.93374 15.3162 6.94817 15.3495 6.9097C15.3771 6.90575 15.4053 6.90575 15.4329 6.9097C15.4551 6.87604 15.3718 6.88325 15.3468 6.86161C15.369 6.82795 15.4551 6.87604 15.4829 6.84718C15.3801 6.81112 15.5051 6.78467 15.4968 6.751C15.3495 6.77264 15.2829 6.63318 15.1578 6.71013L15.0495 6.6428C15.1245 6.61395 15.2634 6.67887 15.3857 6.6428V6.79188C15.569 6.76784 15.2523 6.66925 15.4524 6.60914C15.4524 6.57548 15.4329 6.5875 15.5135 6.51296L15.3523 6.54182C15.3934 6.50731 15.4458 6.48464 15.5024 6.47689C15.4977 6.46824 15.4952 6.4588 15.4952 6.44924C15.4952 6.43968 15.4977 6.43024 15.5024 6.42159C15.5235 6.4208 15.5443 6.42679 15.5607 6.43842C15.6468 6.40235 15.6107 6.39755 15.5607 6.39514C15.5107 6.39274 15.5218 6.36629 15.519 6.34465H15.5829C15.5742 6.33713 15.5638 6.33131 15.5523 6.32758C15.5408 6.32385 15.5285 6.32229 15.5162 6.32301C15.5134 6.31318 15.5065 6.30461 15.4968 6.29896C15.4404 6.31588 15.3877 6.3411 15.3412 6.3735C15.3912 6.28694 15.3412 6.23404 15.4607 6.13305C15.5079 6.13305 15.5746 6.14507 15.5774 6.13305C15.5801 6.12103 15.5051 6.07294 15.4329 6.08737C15.432 6.08178 15.432 6.07612 15.4329 6.07053C15.4718 6.07053 15.5135 6.04168 15.5162 6.02485C15.519 6.00802 15.5413 6.01042 15.544 5.9984C15.4135 5.9984 15.4579 5.93588 15.3968 5.93348C15.3927 5.94184 15.3905 5.95084 15.3905 5.95993C15.3905 5.96902 15.3927 5.97802 15.3968 5.98638C15.3051 5.98638 15.2023 5.98638 15.2634 5.94069C15.3579 5.97195 15.3829 5.85894 15.4385 5.92626C15.5857 5.8397 15.3162 5.92626 15.3579 5.85653L15.4107 5.80604C15.5051 5.79161 15.4746 5.85413 15.5051 5.8373L15.4885 5.81566C15.5635 5.81566 15.544 5.93107 15.6663 5.96955L15.6829 5.8373C15.5329 5.71226 15.5913 5.49105 15.344 5.42613L15.2829 5.44056H15.3023H15.2245C15.2995 5.38766 15.2968 5.33236 15.3412 5.26743C15.3161 5.30128 15.2776 5.32606 15.2329 5.33716C15.1412 5.3588 15.1023 5.36842 15.1162 5.31793C15.1801 5.29629 15.1884 5.31793 15.2273 5.27465C15.2164 5.28603 15.2013 5.29373 15.1845 5.29637C15.1677 5.29901 15.1504 5.29642 15.1356 5.28907C15.1662 5.25301 15.1578 5.21213 15.2217 5.19049C15.2857 5.16885 15.2217 5.20973 15.2217 5.21934C15.2217 5.22896 15.2606 5.15683 15.3245 5.17125L15.2884 5.13519C15.3301 5.09191 15.3773 5.13519 15.4079 5.10152C15.3357 5.04622 15.169 5.06546 15.0967 5.02218C15.1422 5.00825 15.1867 4.99219 15.2301 4.97409C15.2468 4.90917 15.03 4.93321 14.9884 4.88752C15.0328 4.88752 15.03 4.90436 15.0578 4.91157C14.9945 4.74403 14.9645 4.56842 14.9689 4.3922L14.8078 4.42346L14.8689 4.3393C14.8439 4.14213 14.6661 4.07481 14.5105 3.9642C14.4661 3.92573 14.5744 3.88004 14.5911 3.83676C14.5105 3.72856 14.3549 3.8031 14.2355 3.73818C14.2827 3.72135 14.4049 3.66364 14.366 3.62036C14.3244 3.63959 14.2688 3.67807 14.2632 3.63479L14.3105 3.62036C14.3327 3.55303 14.2605 3.57227 14.2243 3.50735C14.1528 3.46824 14.07 3.44749 13.9854 3.44749C13.9008 3.44749 13.818 3.46824 13.7465 3.50735C13.652 3.44242 13.8437 3.38953 13.8437 3.35346C13.8909 3.43762 13.9104 3.35346 13.9576 3.33422C13.8937 3.33422 13.827 3.33422 13.8604 3.24045C13.8305 3.22523 13.7964 3.2172 13.7618 3.2172C13.7271 3.2172 13.693 3.22523 13.6631 3.24045C13.7131 3.22362 13.7159 3.28373 13.6631 3.31018C13.6298 3.25487 13.4714 3.24526 13.5214 3.13465C13.1764 3.0529 12.8143 3.04057 12.4629 3.09858C12.424 3.16831 12.5074 3.11782 12.4879 3.16351C12.4323 3.25488 12.4212 3.13225 12.3795 3.20678V3.13706C12.2906 3.13706 12.2379 3.27892 12.1879 3.35586C12.1879 3.27892 12.1073 3.31018 12.1545 3.25247C12.1239 3.27171 11.9767 2.96153 11.9711 3.03366L12.1073 3.32461C12.1073 3.35346 12.06 3.34625 12.0712 3.36548C12.0239 3.31499 11.9628 3.25247 11.9434 3.25968C11.91 3.18514 11.9656 3.18995 11.9934 3.18274C11.9573 3.0553 11.8711 3.12744 11.8739 3C11.8211 3.03607 11.9045 3.06252 11.8739 3.11782H11.8128L11.8656 3.14908C11.835 3.19717 11.8517 3.29816 11.7711 3.24285L11.7517 3.37991C11.7128 3.28373 11.7016 3.37991 11.6628 3.35827V3.29094C11.6211 3.30537 11.5989 3.29094 11.56 3.26209C11.56 3.17072 11.6072 3.26209 11.5877 3.18755L11.5294 3.17072C11.5516 3.22843 11.5294 3.27892 11.5822 3.30537C11.5822 3.42078 11.5822 3.51215 11.4766 3.5338C11.3933 3.45204 11.4988 3.43521 11.4433 3.34625C11.3155 3.34625 11.4016 3.63238 11.3349 3.63959C11.2682 3.64681 11.2766 3.71173 11.1988 3.74058C11.1988 3.66845 11.1126 3.69009 11.071 3.63238V3.55544C11.0543 3.58429 11.021 3.55544 11.0071 3.51696C11.0488 3.60112 10.9348 3.63478 10.8959 3.69249L10.9376 3.76463C10.9043 3.8031 10.8654 3.86802 10.8098 3.86802C10.7542 3.91611 10.8098 3.97382 10.7876 4.0724C10.727 4.00969 10.6842 3.93558 10.6626 3.856C10.6987 3.88485 10.7181 3.856 10.7598 3.856C10.8154 3.75982 10.8154 3.58189 10.9209 3.5891C10.882 3.39674 10.8709 3.62998 10.7987 3.5891C10.7987 3.5891 10.7987 3.57227 10.7987 3.56986H10.7848C10.8069 3.54633 10.8216 3.51823 10.8275 3.48831C10.8333 3.45839 10.8301 3.42767 10.8181 3.39914C10.7709 3.43521 10.857 3.5891 10.7543 3.5338C10.7292 3.60112 10.6237 3.47609 10.5848 3.47609C10.5848 3.55303 10.6514 3.6949 10.557 3.6973L10.5431 3.58669C10.4486 3.61795 10.5709 3.74539 10.4848 3.77424C10.5209 3.77424 10.507 3.88004 10.5625 3.86321C10.5639 3.87586 10.5617 3.8886 10.5562 3.90036C10.5506 3.91213 10.5419 3.92257 10.5308 3.93082C10.5196 3.93907 10.5063 3.94487 10.492 3.94775C10.4777 3.95063 10.4629 3.9505 10.4486 3.94737C10.4486 3.9666 10.4653 3.98103 10.482 4.01469C10.5653 4.06519 10.5237 3.91851 10.6126 4.00027L10.5931 3.88245C10.6263 3.89685 10.654 3.91929 10.6727 3.94703C10.6914 3.97478 10.7005 4.00664 10.6987 4.03874C10.6987 4.03874 10.7126 4.01229 10.732 4.03874C10.8181 4.19503 10.6487 4.00027 10.7015 4.14213L10.7292 4.11809C10.7931 4.21667 10.7015 4.23831 10.6598 4.24553C10.5903 4.21667 10.5375 4.21427 10.4959 4.14213L10.5403 4.08683C10.4736 4.03874 10.4792 4.15175 10.4431 4.16377C10.4364 4.15676 10.429 4.15032 10.4209 4.14454L10.4347 4.16377C10.4347 4.16377 10.4125 4.16377 10.3958 4.14213C10.3792 4.12049 10.3431 4.21667 10.3014 4.20705L10.3431 4.26957L10.3264 4.2311C10.3384 4.22975 10.3505 4.23059 10.3621 4.23357C10.3737 4.23656 10.3844 4.24161 10.3936 4.24842C10.4027 4.25522 10.4102 4.26362 10.4153 4.27306C10.4205 4.2825 10.4233 4.29278 10.4236 4.30323C10.3903 4.37537 10.3014 4.25514 10.2514 4.20705C10.2069 4.10126 10.3153 4.1806 10.3292 4.13251C10.2514 4.04114 10.2569 4.14935 10.1486 4.11568C10.1097 3.99546 10.2291 4.08202 10.1847 3.97622C10.118 3.97622 10.1486 4.06519 10.0763 4.06519C10.0513 4.01229 10.1041 3.97863 10.0625 3.91852L10.0069 3.90649C10.0958 3.85359 9.90687 3.77905 9.96522 3.71894C9.90132 3.69009 9.96522 3.82955 9.87631 3.78627C9.92076 3.82474 10.0124 3.89206 9.99299 3.95458H9.91798C9.86242 3.91611 9.90131 3.81512 9.84019 3.78867L9.80407 3.85359C9.82908 3.88245 9.8652 3.88485 9.87631 3.93775C9.82074 3.91851 9.90409 4.08442 9.89853 4.14935C9.88586 4.15898 9.86957 4.1643 9.8527 4.1643C9.83582 4.1643 9.81953 4.15898 9.80685 4.14935C9.80685 4.27919 9.70405 4.32487 9.70961 4.4475C9.70961 4.36094 9.62904 4.34651 9.56514 4.31766C9.60404 4.27438 9.5318 4.1806 9.47902 4.1229C9.45401 4.15175 9.51235 4.26236 9.55403 4.28159C9.47068 4.28159 9.57069 4.36815 9.47345 4.33449C9.37621 4.30083 9.41233 4.23591 9.37066 4.20705C9.30954 4.24072 9.44845 4.32728 9.37066 4.34651C9.37066 4.33209 9.37066 4.32487 9.34565 4.31045C9.32065 4.29602 9.29843 4.38258 9.33177 4.43067C9.19007 4.3393 9.24842 4.51002 9.1484 4.3946C9.09839 4.48116 9.21785 4.4451 9.24008 4.49559C9.2623 4.54609 9.16228 4.57254 9.12617 4.57013C9.14284 4.5533 9.12617 4.51002 9.16507 4.51242L9.07061 4.44991C8.9178 4.47395 9.19007 4.66391 9.03171 4.67112C9.03171 4.59658 8.98448 4.6062 8.95114 4.53647C8.95114 4.56532 8.86501 4.6062 8.96781 4.62303C8.93361 4.64302 8.89469 4.65616 8.85389 4.6615C8.85015 4.7162 8.86258 4.77082 8.89001 4.8202C8.82648 4.84551 8.75466 4.85062 8.6872 4.83463C8.66497 4.97168 8.47327 4.99092 8.46493 5.1424C8.38436 5.21453 8.6233 5.17847 8.55662 5.26022C8.44271 5.18568 8.43715 5.26022 8.3538 5.26022C8.21766 5.34197 8.3288 5.50067 8.18988 5.55838C8.1621 5.54636 8.13432 5.52712 8.13987 5.50548C8.08111 5.5665 8.03844 5.63789 8.01485 5.71467H7.99818C7.83982 5.79642 7.92872 5.94309 7.92039 6.06813C7.89456 6.05231 7.86766 6.03785 7.83982 6.02485C7.82084 6.03717 7.80544 6.05314 7.79483 6.0715C7.78422 6.08986 7.7787 6.11011 7.7787 6.13065C7.7787 6.15118 7.78422 6.17143 7.79483 6.18979C7.80544 6.20815 7.82084 6.22413 7.83982 6.23644C7.68423 6.27251 7.86482 6.29175 7.70924 6.34946C7.68146 6.34946 7.68701 6.33503 7.68423 6.32782C7.62589 6.36148 7.63145 6.39273 7.60088 6.43361C7.66201 6.54662 7.83426 6.60914 7.75647 6.70532C7.56754 6.67166 7.72591 6.62837 7.57588 6.59471C7.60366 6.62356 7.637 6.65002 7.57588 6.67166C7.54019 6.65543 7.50302 6.64176 7.46475 6.63078C7.40918 6.64521 7.637 6.76543 7.62033 6.76062C7.65645 6.76062 7.67868 6.76062 7.67868 6.74379C7.78703 6.79188 7.66201 6.85199 7.69535 6.91451C7.70241 6.90449 7.71175 6.89583 7.7228 6.88903C7.73385 6.88224 7.74638 6.87746 7.75964 6.87498C7.77289 6.87251 7.78659 6.87239 7.79989 6.87464C7.8132 6.87689 7.82583 6.88145 7.83704 6.88806C7.78147 6.95058 7.95373 7.01069 8.01763 7.07321C7.91761 7.12129 7.87038 6.99626 7.7398 6.98183C7.68979 6.98183 7.57866 6.98184 7.5342 6.95058C7.49253 7.00348 7.59533 7.0684 7.60922 7.1261H7.5731C7.5731 7.20064 7.71757 7.30885 7.62589 7.36655L7.67868 7.34251C7.69812 7.35693 7.67868 7.393 7.74813 7.42667C7.68701 7.41224 7.62033 7.45071 7.5731 7.42667C7.7648 7.49399 7.65645 7.61422 7.83426 7.68154C7.77397 7.68235 7.71422 7.67168 7.65923 7.65029C7.68701 7.607 7.73146 7.59738 7.65923 7.55891C7.65658 7.56863 7.65147 7.57772 7.64427 7.58552C7.63707 7.59332 7.62795 7.59964 7.61757 7.60401C7.6072 7.60838 7.59584 7.6107 7.5843 7.6108C7.57277 7.61091 7.56135 7.60879 7.55087 7.6046C7.66756 7.66471 7.69534 7.76329 7.81481 7.80177C7.74858 7.82827 7.67334 7.83256 7.60366 7.81379C7.64256 7.94123 7.93706 7.81379 7.90372 7.93882C7.78981 7.9821 7.78147 7.85948 7.72868 7.93882V7.91959C7.45085 7.93882 7.90927 7.99172 7.88427 8.05664C7.73702 8.04462 7.78981 7.99413 7.6759 8.02538C7.69812 8.09271 7.90649 8.15282 7.84537 8.20572L7.78703 8.18649C7.78703 8.22736 7.7398 8.2995 7.74258 8.34037C7.71479 8.34037 7.72035 8.34037 7.7148 8.32595C7.64256 8.39087 7.78147 8.36682 7.66756 8.41251L7.73424 8.43896C7.78981 8.41491 7.87594 8.36923 7.80092 8.31873C7.87594 8.36923 7.99818 8.28747 8.11765 8.31873L8.07042 8.3043C8.30657 8.23698 8.34824 8.11916 8.47049 8.00855C8.34269 7.90756 8.56217 7.88833 8.47049 7.78974C8.30379 7.74646 8.43993 7.7681 8.42326 7.69116C8.42326 7.73204 8.55106 7.71761 8.57884 7.69116C8.55098 7.67721 8.52869 7.65624 8.51494 7.63105C8.57606 7.63105 8.73443 7.56132 8.62608 7.50842C8.68998 7.47475 8.67886 7.52766 8.7122 7.54449C8.80111 7.54449 8.65108 7.4964 8.7122 7.49399C8.72049 7.49294 8.72892 7.49294 8.73721 7.49399C8.73721 7.42667 8.80111 7.39781 8.83723 7.33289C8.67331 7.29442 8.78999 7.25354 8.73998 7.21267C8.78999 7.2319 8.80944 7.18622 8.84556 7.17179L8.73165 7.11168C8.63441 7.05397 8.815 7.07561 8.77054 7.0179H8.73998C8.69831 6.97462 8.81778 6.90489 8.91502 6.89047C8.67608 6.50334 9.22896 6.45285 9.25675 6.16912C9.21785 6.13546 9.17062 6.15709 9.10672 6.11862C9.10372 6.09549 9.10855 6.0721 9.12061 6.0513C9.06783 6.0513 9.12061 6.07534 9.08171 6.0513L9.10672 6.10901C9.10672 6.10901 9.09005 6.10901 9.06782 6.10901C9.0456 6.10901 9.10116 6.15229 9.08449 6.16912C9.05393 6.13065 8.94002 6.08496 9.00114 6.06332C9.01226 6.06928 9.02024 6.07878 9.02337 6.08977C9.0456 6.06572 8.99003 6.04408 9.02337 6.03206C9.05671 6.02004 9.02337 6.01042 9.07616 6.03206L9.17617 5.97676C9.05949 5.88298 9.21508 5.88779 9.23452 5.88298C9.32899 5.93348 9.23452 5.9455 9.32899 6.00321H9.41511L9.33732 5.96714L9.37899 5.94069C9.35121 5.92145 9.32065 5.90462 9.35399 5.90703C9.38733 5.90943 9.3901 5.90703 9.39288 5.92386L9.3651 5.87817C9.43734 5.93107 9.40122 5.86615 9.4929 5.91424C9.58737 5.86375 9.43456 5.75314 9.60681 5.76035C9.55681 5.74593 9.48457 5.65696 9.51513 5.64494C9.53123 5.64612 9.54683 5.65041 9.56077 5.65748C9.57471 5.66455 9.58664 5.67423 9.5957 5.68582L9.57348 5.63051C9.73462 5.68822 9.67627 5.60166 9.7624 5.58964L9.79574 5.61849C9.76795 5.5704 9.75406 5.52952 9.79574 5.5151L9.85964 5.57521C9.93743 5.57521 9.74018 5.43575 9.81797 5.43815C9.74573 5.37804 9.6846 5.36602 9.61237 5.31312C9.69572 5.36602 9.74573 5.33957 9.68461 5.31312C9.6985 5.25301 9.71517 5.29148 9.7374 5.31312L9.71794 5.25541C9.75128 5.23377 9.81796 5.33235 9.84574 5.37564C9.79851 5.28667 9.87909 5.31312 9.92076 5.3011L9.93743 5.33957L9.99022 5.32274C9.96522 5.25301 9.99022 5.22175 10.0597 5.22656L10.118 5.33235C10.1847 5.36361 10.1014 5.29388 10.0958 5.27224C10.0958 5.20251 10.1569 5.27224 10.2236 5.29869C10.2292 5.07027 10.4903 5.28907 10.4375 5.10874ZM14.6855 5.9431H14.7022C14.73 5.9455 14.7522 5.95031 14.6855 5.9479V5.9431ZM14.5661 5.5199C14.6383 5.55357 14.5661 5.55597 14.5383 5.5704C14.5522 5.51269 14.4994 5.49826 14.5216 5.44296C14.4982 5.45791 14.473 5.4708 14.4466 5.48143C14.4466 5.4622 14.4661 5.43575 14.5244 5.40689C14.6578 5.39006 14.505 5.5704 14.5716 5.52471L14.5661 5.5199ZM15.3273 6.11622C15.3468 6.11087 15.3641 6.10087 15.3773 6.08737C15.344 6.10179 15.3162 6.11382 15.3273 6.12103V6.11622ZM15.3273 5.52231C15.3746 5.49586 15.3468 5.46941 15.3273 5.45258C15.315 5.47589 15.3112 5.50187 15.3162 5.52712L15.3273 5.52231ZM12.1128 3.42559C12.1128 3.40155 12.1462 3.34625 12.1128 3.3198C12.1128 3.36548 12.0573 3.30297 12.0628 3.36789C12.077 3.38864 12.0938 3.40799 12.1128 3.42559ZM10.4986 4.34651C10.4849 4.30264 10.4643 4.26057 10.4375 4.22148C10.4375 4.20705 10.4125 4.19744 10.4125 4.18541C10.4125 4.17339 10.3736 4.18541 10.3708 4.18541C10.4542 4.3393 10.4375 4.37296 10.4986 4.34651Z" fill="#242424"/>
<path d="M10.3819 4.19745C10.3819 4.19745 10.4097 4.21428 10.4375 4.2215C10.4315 4.21356 10.4232 4.20714 10.4135 4.20291C10.4037 4.19868 10.3928 4.1968 10.3819 4.19745Z" fill="#242424"/>
<path d="M14.9606 7.31365L14.9439 7.29682L14.8884 7.32567C14.9511 7.37119 15.0289 7.39815 15.1106 7.40261C15.0273 7.35212 15.0745 7.32567 15.0523 7.26315L14.9606 7.31365Z" fill="#242424"/>
<path d="M15.5579 7.30405C15.5829 7.30405 15.6413 7.28721 15.6468 7.27759H15.594L15.5579 7.30405Z" fill="#242424"/>
<path d="M15.7913 6.60913L15.7496 6.66924C15.7968 6.68367 15.8746 6.60913 15.7913 6.60913Z" fill="#242424"/>
<path d="M14.8717 6.90252L14.9328 6.92415C14.9772 6.90011 14.9717 6.86886 14.905 6.86646C14.9411 6.8953 14.8689 6.87607 14.8717 6.90252Z" fill="#242424"/>
<path d="M15.7802 6.45765C15.6718 6.45765 15.819 6.39514 15.7162 6.39514C15.7496 6.40716 15.6829 6.46727 15.7802 6.45765Z" fill="#242424"/>
<path d="M14.7744 6.60431C14.6744 6.62835 14.7744 6.64278 14.7466 6.67645C14.7466 6.6524 14.8494 6.60671 14.7744 6.60431Z" fill="#242424"/>
<path d="M15.4273 6.20757C15.5024 6.20757 15.5024 6.21959 15.4912 6.24845C15.4646 6.24726 15.4383 6.24239 15.4135 6.23402C15.4497 6.25201 15.4833 6.27382 15.5135 6.29894C15.5579 6.25806 15.5829 6.20276 15.6774 6.19314C15.6367 6.18111 15.5936 6.17619 15.5507 6.17866C15.5078 6.18114 15.4658 6.19097 15.4273 6.20757Z" fill="#242424"/>
<path d="M14.7494 6.53461C14.7244 6.56105 14.6549 6.5851 14.6661 6.61155C14.7188 6.61155 14.7938 6.5827 14.7772 6.55144H14.8661C14.9272 6.51297 14.7522 6.57788 14.7494 6.53461Z" fill="#242424"/>
<path d="M15.594 6.01526L15.5579 6.04171C15.6413 6.06816 15.6135 6.12586 15.7302 6.13067C15.7204 6.10315 15.7028 6.07819 15.679 6.05803C15.6552 6.03788 15.626 6.02318 15.594 6.01526Z" fill="#242424"/>
<path d="M14.8939 6.39032H14.7689C14.7689 6.42639 14.8105 6.39032 14.8411 6.39032C14.8272 6.40234 14.8189 6.41917 14.8411 6.42398C14.8189 6.39753 14.9439 6.41917 14.8939 6.39032Z" fill="#242424"/>
<path d="M14.7327 6.29654L14.6716 6.26288L14.5438 6.31818C14.6022 6.36145 14.6216 6.31096 14.7327 6.29654Z" fill="#242424"/>
<path d="M14.805 6.22922H14.8272L14.6299 6.19556C14.6866 6.21268 14.7453 6.22398 14.805 6.22922Z" fill="#242424"/>
<path d="M15.2857 5.17848C15.2329 5.17848 15.1884 5.25061 15.2356 5.21214C15.2829 5.17367 15.3218 5.12798 15.2857 5.17848Z" fill="#242424"/>
<path d="M14.4188 5.64494C14.4522 5.61609 14.3521 5.58242 14.3077 5.56799C14.3466 5.58963 14.3549 5.67139 14.4188 5.64494Z" fill="#242424"/>
<path d="M13.4992 4.74325C13.4992 4.76489 13.5436 4.77691 13.5964 4.74325C13.5518 4.72999 13.5045 4.72507 13.4575 4.72882C13.4575 4.72882 13.4603 4.77691 13.4992 4.74325Z" fill="#242424"/>
<path d="M13.3602 4.54852C13.3936 4.54852 13.3936 4.54852 13.4297 4.52687C13.4658 4.50523 13.3825 4.52206 13.3602 4.54852Z" fill="#242424"/>
<path d="M11.7294 3.13467C11.6905 3.11784 11.6794 3.13467 11.71 3.2044C11.7433 3.18517 11.7127 3.15872 11.7294 3.13467Z" fill="#242424"/>
<path d="M11.6738 3.22843L11.6572 3.19718L11.621 3.15149L11.6738 3.22843Z" fill="#242424"/>
<path d="M11.4252 3.18516C11.4202 3.17503 11.4202 3.16403 11.4252 3.1539C11.4252 3.1539 11.4082 3.18516 11.4252 3.18516Z" fill="#242424"/>
<path d="M11.4547 3.17071V3.13464C11.4503 3.14157 11.4445 3.14804 11.4377 3.15388C11.4377 3.15388 11.4445 3.15147 11.4547 3.17071Z" fill="#242424"/>
<path d="M11.3516 3.19715L11.4294 3.28371C11.4572 3.2236 11.3627 3.24764 11.3682 3.12982L11.3516 3.19715Z" fill="#242424"/>
<path d="M11.2182 3.26687C11.1654 3.24523 11.1682 3.41595 11.0987 3.30775C11.0098 3.40393 11.2015 3.4929 11.0987 3.57465C11.2404 3.59869 11.0682 3.3342 11.2043 3.36546C11.1182 3.31015 11.2099 3.29813 11.2182 3.26687Z" fill="#242424"/>
<path d="M11.3099 3.45444C11.296 3.39673 11.2432 3.40394 11.2432 3.45444C11.2599 3.44963 11.3155 3.52417 11.3099 3.45444Z" fill="#242424"/>
<path d="M11.0154 3.38474L10.9626 3.35107L10.9709 3.38955L11.0154 3.38474Z" fill="#242424"/>
<path d="M10.8764 3.40153V3.32458C10.882 3.35584 10.8292 3.36546 10.8764 3.40153Z" fill="#242424"/>
<path d="M10.6542 3.37994C10.6125 3.37994 10.6542 3.53143 10.7042 3.47613H10.682C10.682 3.44968 10.6181 3.4088 10.6542 3.37994Z" fill="#242424"/>
<path d="M10.3486 3.77425C10.3736 3.77425 10.3875 3.74058 10.3681 3.71173L10.3236 3.76463L10.3486 3.77425Z" fill="#242424"/>
<path d="M10.5514 4.1325C10.6181 4.21426 10.5986 4.10365 10.6514 4.1325C10.6014 4.11808 10.5986 4.10365 10.5514 4.1325Z" fill="#242424"/>
<path d="M10.2124 3.66604C10.2124 3.62275 10.2458 3.63718 10.2652 3.63718C10.2291 3.5963 10.1958 3.62516 10.2124 3.66604Z" fill="#242424"/>
<path d="M10.1263 3.74537C10.0874 3.71652 10.1013 3.69247 10.0735 3.67564C10.0457 3.65881 9.96517 3.67564 9.9735 3.73816C10.0261 3.7903 10.0667 3.85071 10.093 3.91609C10.1374 3.85838 10.0763 3.67564 10.1819 3.79105L10.1485 3.61072C10.0902 3.61072 10.1763 3.73816 10.1263 3.74537Z" fill="#242424"/>
<path d="M10.4319 3.98586L10.368 3.94739C10.3789 3.96076 10.3848 3.97672 10.3848 3.99307C10.3848 4.00943 10.3789 4.02539 10.368 4.03876C10.4458 4.14696 10.4042 4.00029 10.4319 3.98586Z" fill="#242424"/>
<path d="M9.81516 3.98102L9.75958 4.04354L9.78737 4.03632L9.81516 3.98102Z" fill="#242424"/>
<path d="M9.74569 3.97141L9.72068 3.94016L9.70679 4.02671L9.74569 3.97141Z" fill="#242424"/>
<path d="M9.64288 3.97378H9.65399L9.679 3.92328L9.64288 3.97378Z" fill="#242424"/>
<path d="M9.47339 4.03878L9.52063 4.07485C9.52063 4.05321 9.60399 4.07485 9.55675 4.02435C9.55397 4.05321 9.51229 4.06763 9.47339 4.03878Z" fill="#242424"/>
<path d="M10.0374 5.37804C10.0183 5.34914 9.99166 5.32445 9.95966 5.30591L10.018 5.38285C10.018 5.38285 10.018 5.36362 10.0374 5.37804Z" fill="#242424"/>
<path d="M9.86792 5.3107L9.92071 5.40929C9.96794 5.39246 9.92071 5.32994 9.92071 5.29147C9.88181 5.27944 9.9207 5.34918 9.88181 5.34196L9.86792 5.3107Z" fill="#242424"/>
<path d="M9.29284 5.88059C9.22338 5.84934 9.22894 5.86376 9.19838 5.81567C9.22061 5.87098 9.19837 5.89743 9.17615 5.94792C9.22616 5.94792 9.28729 6.01765 9.27617 5.99361L9.25672 5.92868L9.30118 5.95513C9.3623 5.94311 9.22338 5.90223 9.29284 5.88059Z" fill="#242424"/>
<path d="M7.80919 8.07587C7.77465 8.06757 7.73815 8.06757 7.70361 8.07587C7.73417 8.11435 7.80086 8.06625 7.80919 8.07587Z" fill="#242424"/>
</svg>
