<svg width="24" height="24" viewBox="0 0 24 24" fill="none" xmlns="http://www.w3.org/2000/svg">
<path d="M18.1266 22.6667C17.832 22.6664 17.5442 22.5782 17.3 22.4133L12.3266 19.08C12.3021 19.0631 12.2731 19.054 12.2433 19.054C12.2135 19.054 12.1845 19.0631 12.16 19.08L7.18665 22.4133C6.93691 22.5801 6.64235 22.6669 6.3421 22.6623C6.04184 22.6577 5.75009 22.5619 5.50558 22.3875C5.26108 22.2132 5.07539 21.9686 4.97317 21.6863C4.87096 21.4039 4.85706 21.0971 4.93331 20.8067L6.56665 15.0467C6.57437 15.0177 6.57343 14.9871 6.56395 14.9587C6.55448 14.9302 6.53687 14.9052 6.51331 14.8867L1.80665 11.1867C1.55887 11.0021 1.37508 10.7446 1.28104 10.4503C1.18699 10.156 1.18742 9.83959 1.28225 9.54554C1.37709 9.25148 1.56157 8.99448 1.80984 8.81056C2.05811 8.62665 2.35772 8.52504 2.66665 8.52L8.66665 8.29333C8.69615 8.29129 8.72443 8.28077 8.74809 8.26303C8.77174 8.24529 8.78976 8.22108 8.79998 8.19333L10.8666 2.57333C10.9708 2.28842 11.16 2.04241 11.4086 1.86859C11.6573 1.69478 11.9533 1.60156 12.2566 1.60156C12.56 1.60156 12.856 1.69478 13.1047 1.86859C13.3533 2.04241 13.5425 2.28842 13.6466 2.57333L15.7133 8.19333C15.7235 8.22108 15.7416 8.24529 15.7652 8.26303C15.7889 8.28077 15.8171 8.29129 15.8466 8.29333L21.8466 8.52C22.1556 8.52504 22.4552 8.62665 22.7035 8.81056C22.9517 8.99448 23.1362 9.25148 23.231 9.54554C23.3259 9.83959 23.3263 10.156 23.2323 10.4503C23.1382 10.7446 22.9544 11.0021 22.7066 11.1867L18 14.8867C17.9757 14.9046 17.9576 14.9296 17.948 14.9582C17.9385 14.9869 17.938 15.0177 17.9466 15.0467L19.58 20.8067C19.6373 21.0276 19.643 21.2588 19.5966 21.4823C19.5502 21.7057 19.453 21.9155 19.3124 22.0954C19.1719 22.2753 18.9918 22.4203 18.7862 22.5194C18.5806 22.6185 18.3549 22.6689 18.1266 22.6667ZM12.2466 17.72C12.5419 17.729 12.8276 17.8266 13.0666 18L18.04 21.3333C18.0652 21.3525 18.0959 21.363 18.1276 21.3632C18.1592 21.3635 18.1901 21.3535 18.2156 21.3347C18.2411 21.316 18.2599 21.2895 18.2691 21.2592C18.2783 21.2289 18.2774 21.1964 18.2666 21.1667L16.6333 15.4067C16.5529 15.1241 16.5589 14.824 16.6503 14.5448C16.7418 14.2656 16.9146 14.0202 17.1466 13.84L21.8533 10.14C21.879 10.122 21.8982 10.0962 21.9081 10.0664C21.9181 10.0366 21.9182 10.0045 21.9085 9.97465C21.8988 9.94481 21.8798 9.91886 21.8543 9.90063C21.8287 9.88239 21.798 9.87282 21.7666 9.87333L15.7666 9.64666C15.4729 9.63521 15.1891 9.53652 14.9517 9.36316C14.7142 9.18981 14.5337 8.94966 14.4333 8.67333L12.3666 3.05333C12.3573 3.02349 12.3387 2.99741 12.3135 2.97889C12.2884 2.96037 12.2579 2.95038 12.2266 2.95038C12.1954 2.95038 12.1649 2.96037 12.1398 2.97889C12.1146 2.99741 12.096 3.02349 12.0866 3.05333L10.04 8.66666C9.93955 8.94299 9.75909 9.18314 9.52163 9.3565C9.28416 9.52985 9.00044 9.62854 8.70665 9.64L2.70665 9.86666C2.67528 9.86616 2.64457 9.87572 2.61904 9.89396C2.5935 9.9122 2.57449 9.93814 2.5648 9.96798C2.5551 9.99782 2.55522 10.03 2.56516 10.0597C2.57509 10.0895 2.59431 10.1153 2.61998 10.1333L7.33331 13.84C7.56461 14.0208 7.73691 14.2663 7.82832 14.5452C7.91973 14.8242 7.92611 15.1241 7.84665 15.4067L6.21998 21.1667C6.21027 21.1955 6.21023 21.2267 6.21985 21.2556C6.22947 21.2845 6.24824 21.3094 6.27331 21.3267C6.29746 21.3473 6.3282 21.3587 6.35998 21.3587C6.39176 21.3587 6.4225 21.3473 6.44665 21.3267L11.42 17.9933C11.663 17.8321 11.9483 17.7463 12.24 17.7467L12.2466 17.72Z" fill="black"/>
</svg>
