<svg width="24" height="24" viewBox="0 0 24 24" fill="none" xmlns="http://www.w3.org/2000/svg">
<path d="M22.6667 11.1867C22.9145 11.0021 23.0982 10.7446 23.1923 10.4503C23.2863 10.1559 23.2859 9.83958 23.1911 9.54553C23.0962 9.25147 22.9118 8.99447 22.6635 8.81055C22.4152 8.62664 22.1156 8.52503 21.8067 8.51999L15.8067 8.29332C15.7772 8.29128 15.7489 8.28076 15.7252 8.26302C15.7016 8.24527 15.6836 8.22107 15.6734 8.19332L13.6 2.59332C13.4958 2.30841 13.3066 2.0624 13.058 1.88858C12.8094 1.71477 12.5134 1.62155 12.21 1.62155C11.9067 1.62155 11.6106 1.71477 11.362 1.88858C11.1134 2.0624 10.9242 2.30841 10.82 2.59332L8.75335 8.21332C8.74313 8.24107 8.72511 8.26527 8.70146 8.28302C8.6778 8.30076 8.64952 8.31128 8.62002 8.31332L2.62002 8.53999C2.31109 8.54503 2.01148 8.64664 1.76321 8.83055C1.51494 9.01447 1.33046 9.27147 1.23562 9.56553C1.14079 9.85958 1.14036 10.1759 1.23441 10.4703C1.32845 10.7646 1.51224 11.0221 1.76002 11.2067L6.46668 14.9067C6.49024 14.9252 6.50784 14.9502 6.51732 14.9787C6.5268 15.0071 6.52774 15.0377 6.52002 15.0667L4.90002 20.8067C4.81607 21.0989 4.8242 21.41 4.92331 21.6975C5.02242 21.985 5.20769 22.235 5.45392 22.4135C5.70014 22.592 5.99538 22.6903 6.29945 22.695C6.60353 22.6998 6.90168 22.6107 7.15335 22.44L12.1267 19.1067C12.1512 19.0897 12.1802 19.0807 12.21 19.0807C12.2398 19.0807 12.2689 19.0897 12.2934 19.1067L17.2667 22.44C17.515 22.6165 17.812 22.7114 18.1167 22.7114C18.4213 22.7114 18.7184 22.6165 18.9667 22.44C19.213 22.2632 19.3984 22.0144 19.4975 21.7279C19.5966 21.4414 19.6045 21.1312 19.52 20.84L17.8867 15.08C17.878 15.0511 17.8785 15.0202 17.8881 14.9916C17.8976 14.9629 17.9157 14.9379 17.94 14.92L22.6667 11.1867Z" fill="black"/>
</svg>
