<svg width="24" height="24" viewBox="0 0 24 24" fill="none" xmlns="http://www.w3.org/2000/svg">
<path d="M18.96 9.60001H16.8V6.72001C16.8 3.24361 15.198 1.20001 12 1.20001C8.80078 1.20001 7.19998 3.24361 7.19998 6.72001V9.60001H4.79998C4.13638 9.60001 3.59998 10.3752 3.59998 11.0388V20.4C3.59998 21.0588 4.11358 21.7668 4.74118 21.9684L6.17758 22.4328C6.93946 22.6549 7.72668 22.7783 8.51998 22.8H15.48C16.273 22.7785 17.0599 22.6547 17.8212 22.4316L19.2564 21.9672C19.8852 21.7668 20.4 21.0588 20.4 20.4V11.0388C20.4 10.3752 19.6224 9.60001 18.96 9.60001ZM14.4 9.60001H9.59998V6.23881C9.59998 4.50481 10.5564 3.60001 12 3.60001C13.4436 3.60001 14.4 4.50481 14.4 6.23881V9.60001Z" fill="#242424"/>
</svg>
