<svg width="24" height="24" viewBox="0 0 24 24" fill="none" xmlns="http://www.w3.org/2000/svg">
<path d="M3.59757 17.1247C3.53467 17.0965 3.53467 17.2376 3.53467 17.2376C3.62903 17.2376 3.59757 17.0965 3.59757 17.1247Z" fill="black"/>
<path d="M4.60408 17.0118L4.57263 17.04L4.7299 16.9553L4.60408 17.0118Z" fill="black"/>
<path d="M5.48481 17.0965C5.42191 16.8988 5.17028 17.0965 5.01302 17.0118L4.98157 16.9553L4.88721 17.0965C5.10738 17.1247 5.359 17.04 5.48481 17.0965Z" fill="black"/>
<path d="M5.92511 17.5765C5.89366 17.4918 6.05092 17.52 5.83075 17.5482C5.83075 17.5482 5.83075 17.5765 5.8622 17.5765C5.8622 17.5765 5.8622 17.5765 5.92511 17.5765Z" fill="black"/>
<path d="M5.83079 17.5765C5.73643 17.5765 5.89369 17.6345 5.83079 17.5765V17.5765Z" fill="black"/>
<path d="M6.27108 17.5765L6.14526 17.6329C6.17672 17.6894 6.27108 17.6894 6.23962 17.7459C6.36544 17.6894 6.33398 17.6612 6.27108 17.5765Z" fill="black"/>
<path d="M6.39689 17.4353L6.33398 17.4635C6.36544 17.4918 6.36544 17.4918 6.39689 17.4353Z" fill="black"/>
<path d="M6.20819 17.52L6.36546 17.4635C6.36546 17.4353 6.36545 17.3506 6.30255 17.4918C6.30255 17.407 6.2711 17.4635 6.20819 17.52Z" fill="black"/>
<path d="M6.11382 17.4635C6.05092 17.407 5.95656 17.3788 6.08237 17.3223C5.8622 17.3223 5.89365 17.4635 6.11382 17.4635Z" fill="black"/>
<path d="M5.57916 16.8988L5.4848 16.8423L5.39044 16.8988C5.42189 16.8706 5.57916 16.9553 5.57916 16.8988Z" fill="black"/>
<path d="M7.05745 17.7459C7.05745 17.7177 7.026 17.6329 7.026 17.5765L6.93164 17.6047C6.96309 17.6329 7.05745 17.6894 7.05745 17.7459Z" fill="black"/>
<path d="M7.026 17.5765L7.18327 17.52C7.026 17.4918 7.026 17.52 7.026 17.5765Z" fill="black"/>
<path d="M6.45981 17.2094L6.20819 17.3506L6.49127 17.2094H6.45981Z" fill="black"/>
<path d="M7.59216 17.7741L7.4978 17.8871L7.65507 17.7459L7.59216 17.7741Z" fill="black"/>
<path d="M7.93814 17.8023C7.87524 17.887 8.00105 17.9435 7.93814 18C8.0325 18 8.12686 17.9153 8.18976 17.8588C8.12686 17.887 8.0325 17.8588 7.93814 17.8023Z" fill="black"/>
<path d="M8.347 17.7741C8.31555 17.8023 8.25264 17.8306 8.22119 17.8588C8.25264 17.8306 8.2841 17.8023 8.347 17.7741Z" fill="black"/>
<path d="M7.40344 17.5482C7.40344 17.5765 7.4349 17.6329 7.4978 17.6894L7.46635 17.5765C7.4349 17.5482 7.40344 17.5482 7.40344 17.5482Z" fill="black"/>
<path d="M7.43488 17.5482C7.49778 17.5482 7.52923 17.5773 7.56069 17.5773C7.56069 17.5773 7.52923 17.5482 7.43488 17.5482Z" fill="black"/>
<path d="M7.37195 17.5488C7.4034 17.5198 7.4034 17.5198 7.37195 17.5488V17.5488Z" fill="black"/>
<path d="M6.80579 17.3506C6.90015 17.2941 7.05741 17.2376 6.9316 17.1247C6.86869 17.2094 6.9316 17.2659 6.80579 17.3506Z" fill="black"/>
<path d="M7.34051 17.3788L7.18325 17.3506C7.18325 17.3788 7.2147 17.4353 7.15179 17.4635L7.34051 17.3788Z" fill="black"/>
<path d="M7.40342 17.3506L7.34052 17.3788L7.37197 17.4071L7.40342 17.3506Z" fill="black"/>
<path d="M8.09538 17.6329C8.15828 17.5765 8.22119 17.5765 8.31555 17.5765C8.22119 17.5482 8.15828 17.52 8.06392 17.52C8.03247 17.5765 8.00102 17.6329 8.09538 17.6329Z" fill="black"/>
<path d="M8.03249 17.52C7.96958 17.4918 7.93813 17.52 7.90668 17.5482C7.93813 17.52 8.00104 17.52 8.03249 17.52C8.06394 17.52 8.06394 17.4918 8.03249 17.52Z" fill="black"/>
<path d="M8.5672 17.7176C8.53575 17.6894 8.50429 17.6612 8.47284 17.6329C8.47284 17.6894 8.53575 17.7459 8.5672 17.7176Z" fill="black"/>
<path d="M7.81232 17.6047C7.84377 17.5765 7.87522 17.5482 7.90667 17.5482C7.87522 17.5482 7.84377 17.5765 7.81232 17.5765V17.6047Z" fill="black"/>
<path d="M9.35348 16.8423C9.35348 16.9553 9.16476 17.04 9.03895 16.9271C8.88168 17.0118 8.97604 17.3788 9.0704 17.5765C9.0704 17.52 9.0704 17.4918 9.22766 17.4353C9.16476 17.3788 8.91313 17.2941 9.03895 17.1812C9.22766 17.1247 9.19621 17.2376 9.29057 17.2941C9.22766 17.1529 9.54219 17.0965 9.51074 16.8988L9.35348 16.9553C9.35348 16.9271 9.41638 16.8706 9.35348 16.8423Z" fill="black"/>
<path d="M8.78733 17.5765H8.72443C8.78733 17.6047 8.85024 17.6329 8.91314 17.7459C9.0075 17.6894 9.03896 17.6612 9.03896 17.6047L8.78733 17.5765Z" fill="black"/>
<path d="M8.47282 17.5765C8.53572 17.4635 8.66154 17.407 8.59863 17.2659C8.40991 17.2659 8.47282 17.3506 8.347 17.407C8.63008 17.407 8.25265 17.4635 8.47282 17.5765C8.40991 17.5765 8.37846 17.5765 8.31555 17.5765C8.37846 17.6047 8.40991 17.6047 8.47282 17.6329C8.47282 17.6047 8.47282 17.6047 8.47282 17.6047C8.44136 17.6047 8.47282 17.5765 8.47282 17.5765C8.56718 17.6047 8.47282 17.6047 8.44136 17.6329C8.44136 17.6329 8.44136 17.6329 8.44136 17.6612L8.72444 17.6047C8.69299 17.5765 8.59863 17.5765 8.47282 17.5765Z" fill="black"/>
<path d="M7.08887 16.8706V16.8996C7.12032 16.8996 7.12032 16.8706 7.08887 16.8706Z" fill="black"/>
<path d="M7.21469 16.9553C7.18324 16.9835 7.18323 17.0118 7.12033 17.0118C7.05742 16.9835 7.12033 16.9553 7.12033 16.9271C7.08888 16.9553 6.96306 17.0118 7.08888 17.0682L7.12033 17.04C7.21469 17.0965 7.37195 17.2659 7.3405 17.2659C7.27759 17.1529 7.27759 17.0682 7.21469 16.9553Z" fill="black"/>
<path d="M7.84375 17.2376L8.09537 17.1812L7.96956 17.0682V17.1247C7.84375 17.0965 7.8752 17.1812 7.84375 17.2376Z" fill="black"/>
<path d="M9.10189 17.6894L9.07043 17.8023L9.2277 17.6329L9.10189 17.6894Z" fill="black"/>
<path d="M9.41638 17.6612V17.7741L9.51074 17.7176L9.41638 17.6612Z" fill="black"/>
<path d="M17.0595 11.4494L16.9966 11.4784C17.028 11.4494 17.028 11.4494 17.0595 11.4494Z" fill="black"/>
<path d="M17.5313 11.5624L17.5627 11.5059C17.4998 11.5341 17.4998 11.5341 17.5313 11.5624Z" fill="black"/>
<path d="M17.1224 16.8988C17.2482 16.9553 17.4369 17.0682 17.374 16.9553L17.2796 16.8423C17.2167 16.8988 17.1853 16.8988 17.1224 16.8988Z" fill="black"/>
<path d="M20.1104 13.087L20.079 13.1153C20.1104 13.1435 20.1733 13.1717 20.2048 13.2C20.1733 13.1435 20.1419 13.1153 20.1104 13.087Z" fill="black"/>
<path d="M19.5757 12.9741C19.6072 12.9459 19.6386 12.9176 19.6701 12.8894C19.6386 12.8894 19.6072 12.9459 19.5757 12.9741Z" fill="black"/>
<path d="M14.5118 11.2235L14.4174 11.3365C14.5432 11.3365 14.4803 11.28 14.5118 11.2235Z" fill="black"/>
<path d="M12.6246 17.6047C12.719 17.6612 12.7819 17.6612 12.8448 17.6612C12.719 17.6047 12.6246 17.4917 12.6246 17.6047Z" fill="black"/>
<path d="M17.5942 10.2353C17.5313 10.2353 17.5313 10.2635 17.4998 10.2918C17.5627 10.2635 17.5942 10.2635 17.5942 10.2353Z" fill="black"/>
<path d="M13.0964 17.6329C13.065 17.6329 13.065 17.6047 13.0335 17.6047C12.9706 17.6329 12.9077 17.6612 12.8134 17.6612C12.9392 17.6894 13.0335 17.7176 13.0964 17.6329Z" fill="black"/>
<path d="M3.53467 15.5153C3.53467 15.4871 3.56612 15.4588 3.59757 15.4023C3.56612 15.4306 3.53467 15.4588 3.53467 15.5153Z" fill="black"/>
<path d="M10.36 17.2659C10.36 17.2659 10.3914 17.2376 10.3914 17.2094C10.3914 17.2376 10.36 17.2376 10.36 17.2659Z" fill="black"/>
<path d="M10.5802 17.6894C10.6117 17.7184 10.6431 17.7184 10.6746 17.7184C10.6431 17.7184 10.6117 17.7184 10.5802 17.6894Z" fill="black"/>
<path d="M10.5802 17.7459C10.5487 17.7459 10.5487 17.7459 10.5173 17.7459C10.5173 17.7459 10.5487 17.7749 10.5802 17.7459Z" fill="black"/>
<path d="M10.7689 17.7459C10.7375 17.7459 10.706 17.7459 10.6746 17.7459C10.6746 17.7459 10.706 17.7749 10.6746 17.7749C10.706 17.7459 10.7375 17.7459 10.7689 17.7459Z" fill="black"/>
<path d="M10.2027 11.3647C10.1712 11.3647 10.1712 11.3647 10.2027 11.3647C10.1398 11.4212 10.1712 11.4212 10.2027 11.3647Z" fill="black"/>
<path d="M18.1289 14.9223C18.1604 15.0917 18.0975 15.0917 18.0345 15.12L18.3176 15.3741C18.2547 15.2329 18.1918 15.0917 18.1289 14.9223Z" fill="black"/>
<path d="M15.9272 11.28L16.053 11.4212C15.8328 11.5623 15.707 11.4776 15.8328 11.6753C15.9272 11.3082 16.4304 11.7318 16.5248 11.3647L16.6192 11.4494C16.5877 11.4494 16.5877 11.4494 16.5562 11.4494C16.7135 11.6471 16.7764 11.1953 16.9966 11.3082C17.0909 11.3647 17.1224 11.4212 17.0595 11.4494L17.2797 11.3929C17.3426 11.4212 17.3111 11.4776 17.2482 11.4494L17.5627 11.4776C17.6256 11.4212 17.7515 11.3647 17.8144 11.3365C17.8773 11.4212 17.7515 11.3647 17.7829 11.4212L17.9716 11.3929C18.0031 11.5059 17.8458 11.5623 17.72 11.5059C17.7515 11.9294 17.8773 11.4494 18.1289 11.76H17.9716C18.0031 11.9859 18.1289 11.9576 18.2547 12.1271C18.2547 12.0423 18.0345 11.7035 18.2233 11.6753C18.2547 11.7035 18.3176 11.76 18.4434 11.7035C18.3805 11.8447 18.5063 11.8165 18.6321 11.8447L18.5692 12.0141C18.7265 12.0141 18.7265 11.9012 18.8523 11.8729C18.9781 11.9294 18.9467 12.0706 18.9467 12.2118C19.1668 12.3247 18.8838 11.9576 19.1668 12.0141C19.2297 12.0988 19.2612 12.0423 19.4814 12.0141C19.4814 12.0706 19.3556 12.0988 19.3556 12.1271C19.4185 12.0988 19.4814 12.0706 19.5443 12.0423C19.5443 12.0706 19.5128 12.0706 19.4814 12.0988C19.5443 12.0988 19.6701 11.9859 19.733 12.0423C19.8274 12.0141 19.7644 12.0988 19.7015 12.1835C19.6386 12.2682 19.5757 12.3247 19.7015 12.3529C19.6386 12.3812 19.5757 12.3529 19.5128 12.3812C19.7015 12.5788 19.6386 12.5506 19.8588 12.7482L19.733 12.9176C19.8903 12.8047 20.079 12.9459 20.2048 13.1153C20.2677 13.0871 20.3621 13.0306 20.3935 13.0023L20.4879 13.2565C20.4564 13.2847 20.3935 13.2565 20.2992 13.2C20.2992 13.2282 20.3306 13.2282 20.3306 13.2565C20.2362 13.3412 20.1419 13.2847 20.0475 13.2C20.079 13.1718 20.1419 13.1435 20.1733 13.1435C20.0475 13.0871 19.9217 13.0306 19.7959 13.0306C19.8274 13.0588 19.8274 13.0871 19.8274 13.1153C19.7959 13.0871 19.7645 13.0871 19.733 13.0871C19.7015 13.0871 19.7645 13.1153 19.7959 13.1435L19.5757 13.1718L19.6701 13.2C19.6072 13.2847 19.5443 13.3694 19.4814 13.4259C19.6386 13.6235 19.9217 13.9059 19.8274 14.2447C19.733 14.1035 19.6072 14.1318 19.4185 14.0471C19.5443 14.0471 19.5443 13.9906 19.5443 13.9059C19.5443 13.8212 19.5128 13.7365 19.5443 13.68C19.4814 13.7365 19.4185 13.7082 19.387 13.68C19.4185 13.7647 19.4499 13.8776 19.4499 13.9906C19.2927 13.9341 19.3241 13.9906 19.2297 14.0188C19.5443 14.1035 19.2927 14.2729 19.3241 14.4141C19.2297 14.3576 19.1668 14.3012 19.2612 14.1882C19.1354 14.1882 19.1668 14.2729 19.2297 14.3576C19.2927 14.4423 19.3241 14.5553 19.1983 14.5553C19.2297 14.5271 19.2612 14.5271 19.1983 14.4706C19.2297 14.5835 19.0096 14.6965 18.9781 14.6118L19.0096 14.5835C18.8209 14.7247 18.4749 15.0635 18.5692 15.2612C18.5378 15.2329 18.412 15.0071 18.3805 14.9506C18.4434 15.2612 18.4749 15.5435 18.4749 15.8541C18.3805 15.6565 17.9716 15.3176 18.066 15.12C18.0031 15.12 17.9087 15.12 17.8458 15.2612C17.9087 15.2612 18.0974 15.4588 18.066 15.5153C17.7829 15.4023 17.9087 15.4588 17.6256 15.3741C17.72 15.3741 17.8144 15.7129 17.72 15.7412C17.72 15.6847 17.5627 15.4588 17.5627 15.4023C17.5313 15.5435 17.4998 15.6565 17.4684 15.7976C17.4998 15.7129 17.3426 15.5435 17.2482 15.4871C17.3111 15.5435 17.0595 15.5718 16.9966 15.6L17.1224 15.6282C16.8393 15.6847 17.028 16.1365 16.745 16.2212C16.745 16.1365 16.6821 15.8259 16.5248 15.8259C16.5248 15.9953 16.4933 16.6447 16.2417 16.8423L16.1474 16.7576L15.9586 16.8988C16.0215 16.6447 16.2417 16.0518 16.3361 15.7976C16.2103 15.7694 16.2732 15.7129 16.1159 15.7412C16.0215 15.6847 16.1474 15.6 16.2103 15.5718L15.8328 15.6C15.8957 15.7694 15.6127 15.8541 15.6756 15.9953C15.8014 15.9106 15.9272 15.7976 16.0215 15.7129C16.0844 15.8823 15.9586 16.3059 15.6441 16.3059C15.5497 16.2494 15.6127 15.9671 15.5812 15.9106C15.5497 15.9953 15.361 16.08 15.3296 16.0518L15.4239 15.9388C15.2667 15.9106 15.2352 16.2212 15.015 16.08C14.9521 16.08 14.7949 15.8823 14.7949 15.9953C14.9521 16.1929 15.1094 16.8423 15.0465 17.0118C15.015 17.0118 14.6691 16.8706 14.5747 16.7576C14.4489 16.6165 14.6691 16.3341 14.5433 16.1929C14.5433 16.2494 14.5118 16.3059 14.4803 16.3341C14.4174 16.3059 14.4803 16.1647 14.3545 16.2212C14.3545 16.4188 14.04 16.2494 14.3231 16.3906C14.1973 16.4753 14.1658 16.3623 14.0086 16.3906C14.0715 16.5035 13.9142 16.8423 13.7569 16.8988C13.7569 16.8423 13.7255 16.7859 13.694 16.7576C13.3795 16.7576 13.2222 16.7012 12.9391 16.7012C12.9077 16.6447 12.7819 16.6165 12.8133 16.5318C12.7819 16.56 12.7504 16.6447 12.6561 16.6447C12.4674 16.4753 12.8448 16.6165 12.719 16.4188C12.719 16.5318 12.4988 16.5882 12.4044 16.6729C12.4674 16.8423 12.6875 16.7012 12.8133 16.6165C12.8448 16.8423 12.6246 17.1247 12.3415 17.2376C12.1214 17.2941 12.2157 17.0965 12.1843 17.1247C11.7439 17.0965 11.8068 17.5482 11.4294 17.3788C11.2721 17.2376 11.4294 17.0682 11.3665 16.9553C11.5552 16.8988 11.6496 17.04 11.8068 17.04L11.6496 16.9835C11.7125 16.9271 11.8383 16.8988 11.9012 16.9271C11.7754 16.7859 11.1463 16.9271 10.8003 16.7859C10.7374 16.8423 10.6431 16.8988 10.6745 16.9553L10.7689 16.9271C10.8633 17.04 10.5802 17.0965 10.706 17.1529C10.5487 17.2376 10.3915 17.3788 10.2027 17.2941L10.1713 17.1247C10.1713 17.1812 10.2971 17.2376 10.36 17.1812C10.2656 17.2659 10.0455 16.9553 9.95111 17.1812L10.0769 17.2941C9.91966 17.3788 9.73094 17.5482 9.57368 17.4918C9.63658 17.6612 9.60513 17.4635 9.73094 17.6894C9.63658 17.4353 10.2027 17.7176 10.014 17.4353C10.1398 17.6612 10.2342 17.5482 10.4229 17.7459C10.4229 17.6894 10.36 17.6329 10.5173 17.6612C10.5173 17.6329 10.5487 17.6329 10.5487 17.6047C10.5173 17.5765 10.4858 17.5482 10.4858 17.52C10.5487 17.3788 10.8003 17.3788 10.8947 17.3223C10.9891 17.3506 10.8633 17.3788 10.8947 17.4353L11.0205 17.3223C11.0205 17.4353 11.2721 17.52 11.052 17.6047H11.2407C11.3665 17.6612 11.5238 17.6894 11.6181 17.6329C11.7125 17.6612 11.8383 17.4918 11.7754 17.5765L12.0899 17.4918V17.52C12.4044 17.52 12.6875 17.2941 13.065 17.4918C13.1593 17.4635 13.2537 17.4071 13.4424 17.4353L13.4739 17.5482C13.5997 17.4918 13.8827 17.6329 13.9142 17.4918C14.1029 17.7741 14.5747 17.4918 14.7949 17.4918L14.7634 17.3506C14.9207 17.3223 15.078 17.2659 15.2667 17.1812L15.2352 17.0682C15.3925 16.9271 15.6756 17.0682 15.9586 17.0118C15.9586 17.0682 15.8957 17.0682 15.8328 17.04C16.2417 17.2376 16.4304 16.7012 16.8079 16.8141C16.8708 16.7576 16.9337 16.7576 16.9966 16.7576H17.028C17.0595 16.7576 17.1224 16.7859 17.1539 16.7859C17.1224 16.7576 17.0595 16.7576 17.0595 16.7576C17.1224 16.7294 17.1853 16.7012 17.2482 16.6447L17.3426 16.7576C17.3426 16.7576 17.3426 16.7576 17.374 16.7576C17.4684 16.7859 17.4055 16.6729 17.3426 16.5882C17.374 16.56 17.4055 16.5035 17.4055 16.4753C17.5627 16.6447 17.5942 16.3341 17.7829 16.5035C17.7829 16.3906 18.1603 16.2494 18.066 16.0235C18.0974 16.0518 18.1289 16.0518 18.066 16.08C18.1603 16.0518 18.2547 16.0518 18.3176 15.9388L18.4434 16.08C18.4749 15.9671 18.4749 15.8823 18.5063 15.7694C18.6636 15.7976 18.758 15.8259 18.7265 15.9953C18.8523 15.6565 18.9152 15.7976 18.9781 15.4871L19.041 15.5718C19.1039 15.5153 19.1354 15.3176 19.2297 15.3459C19.387 15.3741 19.6072 15.2047 19.7959 15.0071C20.0161 14.8094 20.2048 14.5271 20.4564 14.3294C20.079 14.2729 20.7395 14.16 20.4564 14.0471C20.5508 14.0471 20.6137 13.9906 20.6451 14.1035C20.6766 13.8212 20.9282 13.7365 20.7395 13.5106C20.8339 13.5106 20.8339 13.5953 20.8968 13.5671C20.8968 13.5388 20.8339 13.4541 20.8968 13.4541C20.9597 13.4259 20.9597 13.5106 20.9911 13.5671C21.054 13.2847 20.7709 13.2 20.5193 13.1718C20.6451 13.0588 20.6451 12.9741 20.4879 12.8894C20.5822 12.8612 20.6766 12.7765 20.6766 12.9459C20.708 12.8612 20.8024 12.3812 20.6137 12.3812C20.6766 12.3529 20.6137 12.2682 20.5822 12.24C20.5822 12.1553 20.5822 12.0706 20.5822 12.0141C20.5822 11.9576 20.5508 11.8729 20.5508 11.76L20.5193 11.8447C20.2677 11.8447 20.425 11.6753 20.3621 11.5059H20.3935C20.3935 11.4494 20.3935 11.3929 20.3935 11.3365C20.3935 11.3082 20.3935 11.2518 20.3621 11.2518C20.3306 11.2235 20.2992 11.2235 20.2677 11.2235C20.2048 11.2235 20.1419 11.2235 19.9846 11.0541L19.9217 11.1671C19.7959 11.28 19.7645 11.2235 19.6701 11.1106C19.6386 11.0541 19.5757 10.9976 19.5128 10.9694C19.4814 10.9412 19.4185 10.9129 19.3556 10.9129L19.387 10.9976C19.2297 11.0541 19.2297 10.5176 19.1354 10.4612C19.1039 10.4329 19.1983 10.4329 19.2297 10.4329C18.9781 10.1788 19.1354 10.6023 18.8838 10.5741C18.8838 10.4612 19.0096 10.3482 18.8838 10.2918C18.8209 10.2071 18.3491 10.4612 18.1918 10.2353C18.2233 10.32 18.2233 10.4047 18.1289 10.4329C17.9716 10.4047 17.7829 10.0659 17.5627 10.2635C17.5627 10.2353 17.5313 10.2071 17.5627 10.2071C17.4369 10.2353 17.1224 10.2071 17.028 10.32C17.028 9.83999 16.2103 10.4047 16.3046 9.98117C16.1788 9.98117 16.053 9.95293 15.8957 9.95293L15.9272 9.89646C15.6756 9.83999 15.5812 9.9247 15.4868 10.0376C15.4239 10.0094 15.4868 9.95293 15.4868 9.95293C15.1409 9.83999 15.078 9.83999 14.7634 10.0376L14.732 9.89646C14.6376 9.98117 14.1973 9.64235 13.8198 9.81176C13.8198 9.78352 13.8198 9.75529 13.8513 9.75529C13.6311 9.83999 13.4109 9.75529 13.1908 9.69882C12.9706 9.67058 12.7819 9.67058 12.7504 9.9247L12.4988 10.0659C12.8448 10.0659 12.4674 10.2918 12.6246 10.3482C12.4988 10.3765 12.2472 10.2353 12.4359 10.1788L12.4674 10.2071C12.4988 9.9247 12.027 10.1788 11.9956 10.0094C11.335 10.1223 10.6116 10.1506 9.98257 10.32L10.1398 10.4894L9.88821 10.6306C9.8253 10.6023 9.7624 10.5176 9.91966 10.4612C9.79385 10.3765 9.69949 10.6306 9.73094 10.6871C9.41641 10.7153 9.73094 10.4329 9.66804 10.4612L9.54223 10.5176H9.57368C9.51077 10.6306 9.54223 10.7153 9.35351 10.7718C9.2277 10.7718 9.2277 10.6871 9.19624 10.6871C9.19624 10.6871 9.16479 10.6871 9.13334 10.7153L8.85026 10.8L9.03898 10.9129C8.97607 11.0259 8.78735 10.9976 9.00752 11.1106C8.69299 10.9129 8.03248 11.4776 7.87522 11.4494C7.81231 11.6471 7.65505 11.7035 7.46633 11.8165C7.52923 11.8165 7.6865 11.9576 7.49778 12.0141C7.30906 11.6753 7.12034 12.0423 6.80581 11.9294C7.02599 11.9859 6.42838 12.2682 6.77436 12.3529C6.64855 12.4094 6.68 12.24 6.52274 12.24C6.42838 12.4094 6.27111 12.4941 6.0824 12.6071C5.89368 12.72 5.70496 12.8329 5.54769 12.9741C5.57915 13.0023 5.70496 13.0306 5.67351 13.1435H5.29607C5.26462 13.2565 5.48479 13.4259 5.23316 13.4259C5.29607 13.4259 5.35898 13.4541 5.32752 13.5106C4.95009 13.7365 4.66701 14.0753 4.44684 14.4141C4.19522 14.7529 3.94359 15.0918 3.50325 15.3176C3.66051 15.2612 3.62906 15.3459 3.59761 15.4023C3.66052 15.3741 3.72342 15.4588 3.78633 15.4871C3.66051 15.5435 3.5347 15.6282 3.40889 15.6847C3.56616 15.8259 3.22017 16.0235 3.40889 16.1365L3.44034 16.0235C3.56616 16.2494 4.0065 16.0518 4.25812 16.1929C4.10086 15.9388 4.79282 16.0235 4.6041 15.6565C4.69846 15.6282 4.66701 15.7412 4.72992 15.7412C4.66701 15.6282 4.66701 15.5435 4.79282 15.4588L4.82428 15.4871C5.04445 15.1482 5.23317 15.0635 5.6106 14.7812L5.48479 14.7247C5.5477 14.6682 5.6106 14.6682 5.67351 14.6682C5.57915 14.4706 5.48479 14.8659 5.35898 14.64C5.67351 14.6965 5.83077 14.1318 6.1453 14.2729C6.23966 14.16 5.98804 14.2165 6.0824 14.1035L6.17675 14.1318L6.11385 14.0188C6.20821 13.9623 6.33402 13.9906 6.39693 14.0471C6.36547 14.0471 6.36547 14.1035 6.36547 14.1318C6.52274 14.1035 6.58564 13.8776 6.64855 13.8494L6.49128 13.9059C6.6171 13.7365 6.77436 13.5953 6.96308 13.4541C7.1518 13.3129 7.30906 13.1435 7.40342 12.9741L7.34052 12.9459C7.49778 12.6635 7.59214 12.8612 7.84376 12.6353V12.6635C7.84376 12.5788 7.90667 12.4941 8.00103 12.4659C7.96958 12.5788 8.2212 12.4941 8.18975 12.6353C8.37846 12.3529 8.25265 12.4659 8.31556 12.1553L8.40992 12.2118C8.40992 12.0988 8.40992 12.0423 8.53573 11.9294C8.47282 12.0706 8.72445 12.0141 8.66154 12.1835C9.10188 12.2118 9.00752 11.7318 9.32205 11.9576C9.32205 11.6188 8.97607 11.9576 9.00752 11.8447C8.88171 11.7882 9.00752 11.5906 9.13334 11.5623C9.25915 11.5341 9.51077 11.8165 9.7624 11.7035C9.73094 11.7035 9.73094 11.7318 9.73094 11.7318C9.85676 11.76 9.88821 11.5623 10.0455 11.6188C10.0455 11.4212 10.2027 11.5623 10.1398 11.3647L9.91966 11.5059C10.0455 11.3929 10.0769 11.1106 10.36 11.1388C10.36 11.1953 10.2971 11.28 10.2656 11.3082C10.36 11.3365 10.3915 11.2235 10.4858 11.2518C10.5487 11.4776 10.2027 11.3929 10.1084 11.6188C10.2342 11.6753 10.3286 11.3647 10.36 11.6188C10.36 11.28 10.6431 11.5623 10.7374 11.28L10.7689 11.4212C10.8003 11.3929 10.8318 11.3082 10.8947 11.3082L10.8633 11.5059C10.9576 11.3365 11.1778 11.5341 11.3036 11.4212C10.9891 11.5059 11.1778 11.28 11.0205 11.2235C11.335 10.9412 11.335 11.5059 11.7439 11.3647C11.681 11.3929 11.5238 11.3365 11.5867 11.2518C11.681 11.2518 11.8068 11.28 11.8697 11.3365C12.1528 11.2518 11.8068 11.1953 11.9012 11.1106C12.027 11.2518 12.027 11.0259 12.1528 10.9412L12.1843 11.0823C12.5303 11.1106 12.2157 10.8 12.5303 10.8565L12.4359 11.0541L12.5932 10.9694V11.1388C12.7504 10.9976 12.8133 11.0259 12.9706 11.0541C12.9077 10.9694 12.9706 10.8 13.1279 10.8C13.2222 10.8847 13.0964 10.9412 13.2851 10.8847C13.2537 10.9694 13.1908 11.0823 13.0964 10.9694C13.0964 11.0259 13.065 11.0541 13.065 11.1106C13.1908 11.1953 13.348 11.1106 13.4109 11.1106C13.3795 11.1106 13.348 11.1106 13.3166 11.0823C13.4109 10.9976 13.5053 10.9412 13.5997 10.8847C13.6626 10.9412 13.5997 10.9694 13.5682 11.0259C13.6311 10.9976 13.6626 10.9412 13.7569 10.9412C13.7255 11.0541 13.7569 11.1671 13.6311 11.2235L13.9142 11.0823C13.9456 11.1388 14.0715 11.2235 14.0086 11.2518C14.1658 11.3082 14.386 11.0541 14.6062 11.1388C14.6062 11.1106 14.6376 11.1106 14.7005 11.0823C14.7949 11.1106 14.8892 11.1388 14.9836 11.1671C15.078 11.1953 15.1723 11.1953 15.2981 11.1388L15.3925 11.3365C15.5812 11.3082 15.2352 11.0823 15.5497 11.0259C15.7699 10.9976 15.6127 11.1953 15.6756 11.2518C15.8014 11.1671 16.0215 10.9976 16.1788 11.1953C16.053 11.3082 15.9901 11.2518 15.9272 11.28ZM18.2233 11.6753C18.1603 11.7035 18.066 11.76 18.0345 11.6753C18.1603 11.5341 18.1603 11.6188 18.2233 11.6753ZM19.7959 13.3412C19.7645 13.3129 19.7959 13.2565 19.8588 13.2282C19.8588 13.2565 19.8274 13.3129 19.7959 13.3412ZM11.398 17.6329C11.5238 17.6612 11.4923 17.6612 11.398 17.6329V17.6329ZM11.1778 17.5765C11.1463 17.6047 11.1463 17.6047 11.1778 17.6329C11.1778 17.6047 11.2407 17.6047 11.3036 17.6047C11.2721 17.5765 11.2407 17.5482 11.1778 17.5765ZM9.16479 10.7718L9.2277 10.8C9.13334 10.8565 9.13334 10.8 9.16479 10.7718Z" fill="black"/>
<path d="M19.6386 13.0029C19.6701 13.0029 19.7015 13.0029 19.733 13.0029C19.7015 12.9739 19.6701 12.9739 19.6386 13.0029Z" fill="black"/>
<path d="M14.4489 16.1929C14.4803 16.1929 14.5118 16.2212 14.5432 16.2494C14.5432 16.2212 14.5118 16.1929 14.4489 16.1929Z" fill="black"/>
<path d="M9.98254 17.8024L10.1398 17.7741C10.0769 17.7741 10.0454 17.7459 10.014 17.7177C10.014 17.7459 10.0454 17.8024 9.98254 17.8024Z" fill="black"/>
<path d="M8.78733 16.9271C8.75588 16.9553 8.75588 16.9271 8.72443 16.9553V17.0118C8.81879 17.0118 8.88169 16.9553 8.78733 16.9271Z" fill="black"/>
<path d="M9.85675 17.3506C9.85675 17.2376 9.76239 17.2659 9.66803 17.2941C9.66803 17.2941 9.66803 17.2941 9.69948 17.2941C9.66803 17.4353 9.76239 17.4071 9.85675 17.3506Z" fill="black"/>
<path d="M9.63659 17.2941C9.60514 17.2941 9.57369 17.2941 9.54224 17.2941C9.54224 17.3522 9.60514 17.2941 9.63659 17.2941Z" fill="black"/>
<path d="M10.8947 17.6612C10.8318 17.6329 10.8633 17.8023 10.8318 17.7741C10.8004 17.8871 11.1463 17.5765 10.8947 17.6612Z" fill="black"/>
<path d="M9.79382 16.9553L9.82528 17.0965L9.88818 16.9835L9.79382 16.9553Z" fill="black"/>
<path d="M10.5802 17.0682L10.4229 17.04C10.4229 17.0682 10.3915 17.0682 10.3915 17.0964C10.4858 17.0964 10.5802 17.1247 10.5802 17.0682Z" fill="black"/>
<path d="M10.36 17.0965C10.2971 17.0965 10.2656 17.0965 10.2342 17.1255C10.2656 17.0965 10.3286 17.0965 10.36 17.0965Z" fill="black"/>
<path d="M10.014 16.9271L10.0769 16.9553L10.1713 16.9835L10.014 16.9271Z" fill="black"/>
<path d="M12.2787 17.0682L12.4359 17.0118C12.4359 16.9553 12.4045 16.9271 12.3416 16.9553C12.3101 17.0118 12.2472 17.04 12.2787 17.0682Z" fill="black"/>
<path d="M11.7439 16.7012C11.7753 16.7294 11.8068 16.7577 11.8383 16.8141V16.6447L11.7439 16.7012Z" fill="black"/>
<path d="M12.2157 16.6447C12.2157 16.5882 12.4359 16.5035 12.2472 16.5035C12.2472 16.56 12.0585 16.6165 12.2157 16.6447Z" fill="black"/>
<path d="M14.7948 16.6165L14.7319 16.6447L14.7948 16.927V16.6165Z" fill="black"/>
<path d="M16.7135 15.4871C16.5248 15.4871 16.7449 15.6565 16.5562 15.6282C16.5248 15.7129 16.7135 15.6565 16.682 15.7129C16.7449 15.6282 16.8393 15.6282 16.7135 15.4871Z" fill="black"/>
<path d="M16.6821 15.7129C16.6821 15.7412 16.6506 15.7412 16.6506 15.7694C16.6506 15.7412 16.6821 15.7412 16.6821 15.7129Z" fill="black"/>
<path d="M3.12581 15.8541L3 15.9388L3.15726 15.9106L3.12581 15.8541Z" fill="black"/>
<path d="M3.22015 16.1647L3.03143 16.1082C3.06289 16.1647 3.12579 16.1929 3.15725 16.2494C3.15725 16.2212 3.1887 16.1647 3.22015 16.1647Z" fill="black"/>
<path d="M18.412 12.127L18.4434 12.0988C18.4434 12.0423 18.412 12.0423 18.3491 12.0141L18.412 12.127Z" fill="black"/>
<path d="M16.8708 11.5906H16.9022L16.8708 11.4212V11.5906Z" fill="black"/>
<path d="M15.4554 11.5624C15.5183 11.5624 15.5812 11.5341 15.6441 11.5624C15.5183 11.5624 15.4868 11.3647 15.4554 11.5624Z" fill="black"/>
<path d="M11.9326 15.6847C12.8185 15.6847 13.5367 15.04 13.5367 14.2447C13.5367 13.4494 12.8185 12.8047 11.9326 12.8047C11.0467 12.8047 10.3285 13.4494 10.3285 14.2447C10.3285 15.04 11.0467 15.6847 11.9326 15.6847Z" fill="black"/>
<path d="M14.2916 14.2165C14.2916 14.2447 14.4174 14.2165 14.4489 14.2447C14.4174 14.1882 14.2602 14.2165 14.2916 14.2165Z" fill="black"/>
<path d="M13.9771 13.9349H14.0085L13.8827 13.9059L13.9771 13.9349Z" fill="black"/>
<path d="M13.9141 13.68C13.694 13.7647 13.9771 13.7647 13.9141 13.8212L13.8512 13.8494H14.04C13.9771 13.7647 13.8512 13.7365 13.9141 13.68Z" fill="black"/>
<path d="M14.2916 13.3976C14.2287 13.4259 14.1972 13.3976 14.2916 13.4541C14.2916 13.4541 14.2916 13.4541 14.3231 13.4541C14.2916 13.3976 14.2916 13.3976 14.2916 13.3976Z" fill="black"/>
<path d="M14.2916 13.4265C14.3231 13.4555 14.3545 13.3684 14.2916 13.4265V13.4265Z" fill="black"/>
<path d="M14.1973 13.2847H14.2916C14.3231 13.2565 14.3231 13.2282 14.3545 13.2282C14.2916 13.2 14.2602 13.2282 14.1973 13.2847Z" fill="black"/>
<path d="M14.1343 13.342L14.04 13.313C14.0085 13.342 13.9456 13.371 14.0714 13.313C14.04 13.342 14.1029 13.342 14.1343 13.342Z" fill="black"/>
<path d="M14.1344 13.3694C14.1029 13.3977 14.0715 13.4541 14.0085 13.4259C14.04 13.5106 14.1973 13.4541 14.1344 13.3694Z" fill="black"/>
<path d="M13.6625 13.7365L13.5996 13.7647H13.6625C13.6625 13.7647 13.7569 13.7082 13.6625 13.7365Z" fill="black"/>
<path d="M14.1343 13.0023C14.1029 13.0306 14.04 13.0871 13.9771 13.1153H14.04C14.0714 13.0588 14.0714 13.0306 14.1343 13.0023Z" fill="black"/>
<path d="M13.9771 13.0871H13.8827C13.9141 13.1451 13.9456 13.1161 13.9771 13.0871Z" fill="black"/>
<path d="M14.0085 12.833L14.1343 12.7765L13.9771 12.833H14.0085Z" fill="black"/>
<path d="M13.9141 12.72C14.0085 12.6918 14.0085 12.6071 14.0714 12.5788C14.04 12.5506 13.9456 12.5788 13.8827 12.6071C13.9141 12.6353 13.9456 12.6635 13.9141 12.72Z" fill="black"/>
<path d="M13.7569 12.6643C13.7883 12.6643 13.8198 12.6353 13.8513 12.6353C13.8513 12.6353 13.8198 12.6353 13.7569 12.6643Z" fill="black"/>
<path d="M13.8513 13.0024C13.8827 12.9741 13.9142 12.9459 13.9456 12.8894L13.8513 13.0024Z" fill="black"/>
<path d="M13.8513 13.0032C13.8513 12.9741 13.8513 12.9741 13.8198 12.9741C13.8513 12.9741 13.8513 12.9741 13.8513 13.0032Z" fill="black"/>
<path d="M13.8512 13.2565C13.7569 13.2565 13.6625 13.2565 13.5996 13.3694C13.694 13.3412 13.7254 13.2847 13.8512 13.2565Z" fill="black"/>
<path d="M13.7569 13.1153V13.1718C13.7883 13.1435 13.8198 13.1153 13.8513 13.1153H13.7569Z" fill="black"/>
<path d="M13.7569 12.8047C13.694 12.833 13.6625 12.8047 13.6625 12.8047C13.6625 12.833 13.6625 12.8612 13.694 12.8894C13.694 12.8612 13.7569 12.833 13.7569 12.8047Z" fill="black"/>
<path d="M13.4424 12.6071C13.4109 12.6071 13.4109 12.6361 13.4424 12.6071V12.6071Z" fill="black"/>
<path d="M13.6625 12.8894C13.6625 12.9185 13.694 12.9185 13.7254 12.8894C13.694 12.8894 13.694 12.8894 13.6625 12.8894C13.6625 12.8894 13.6311 12.8894 13.6625 12.8894Z" fill="black"/>
<path d="M13.6626 12.6353C13.6626 12.6636 13.6311 12.6918 13.6311 12.72C13.6626 12.6918 13.694 12.6353 13.6626 12.6353Z" fill="black"/>
<path d="M13.8198 12.8894C13.7884 12.8894 13.7569 12.8894 13.7255 12.9185C13.7255 12.9185 13.7569 12.9185 13.8198 12.8894C13.7884 12.8894 13.7884 12.8894 13.8198 12.8894Z" fill="black"/>
<path d="M12.8447 13.1718C12.9077 13.0871 13.0335 13.0306 12.9706 13.1436C13.0649 13.1153 13.3165 12.8047 13.4109 12.6353C13.3794 12.6636 13.348 12.6918 13.2536 12.72C13.2222 12.7765 13.2222 12.8894 13.1278 12.9459C13.0335 12.9459 13.1278 12.8894 13.1278 12.833C13.0649 12.9459 12.9391 12.9459 12.8133 13.1153L12.9077 13.0871C12.8762 13.1153 12.8447 13.1435 12.8447 13.1718Z" fill="black"/>
<path d="M13.4738 12.6918C13.5053 12.6635 13.5053 12.6353 13.5682 12.5224C13.5053 12.5506 13.4738 12.5788 13.4424 12.6071L13.4738 12.6918Z" fill="black"/>
<path d="M13.5682 12.7765C13.4738 12.8612 13.3794 12.8612 13.3165 12.9741C13.348 13.0024 13.4109 12.9176 13.5052 12.9176C13.4109 12.8612 13.5682 12.8612 13.5682 12.7765C13.5996 12.7765 13.5996 12.8047 13.6311 12.8047C13.6311 12.7765 13.6311 12.7482 13.6311 12.72C13.6311 12.72 13.6311 12.7482 13.6311 12.72C13.5996 12.7482 13.5996 12.7482 13.5682 12.7765C13.5682 12.7482 13.5996 12.7482 13.5996 12.7482C13.5682 12.7482 13.5052 12.7482 13.4738 12.72C13.5052 12.72 13.5367 12.7482 13.5682 12.7765Z" fill="black"/>
<path d="M13.3795 13.3977C13.4109 13.3977 13.4424 13.3694 13.4424 13.3977C13.4109 13.4259 13.3795 13.4259 13.348 13.4541C13.3795 13.4541 13.4424 13.4259 13.4738 13.3694H13.4424C13.4738 13.313 13.5682 13.2 13.5996 13.2C13.5367 13.2847 13.4738 13.313 13.3795 13.3977Z" fill="black"/>
<path d="M13.4738 13.1153C13.4423 13.1153 13.4109 13.1153 13.3794 13.1153L13.3165 13.2L13.3794 13.1718C13.3794 13.2 13.4423 13.1435 13.4738 13.1153Z" fill="black"/>
<path d="M13.4738 12.5506L13.5682 12.4659L13.3795 12.5788L13.4738 12.5506Z" fill="black"/>
<path d="M13.348 12.5224L13.4424 12.4094L13.3795 12.4659L13.348 12.5224Z" fill="black"/>
<path d="M11.1777 14.6406H11.2092C11.2092 14.6116 11.2092 14.6116 11.1777 14.6406Z" fill="black"/>
<path d="M11.1463 14.5835L11.0834 14.6126C11.1463 14.5835 11.1463 14.5835 11.1463 14.5835Z" fill="black"/>
<path d="M10.6745 12.4094C10.5801 12.3247 10.4543 12.24 10.5172 12.3247L10.6116 12.4094C10.6116 12.4094 10.643 12.4094 10.6745 12.4094Z" fill="black"/>
<path d="M10.3914 13.9631H10.4229C10.3914 13.9631 10.3285 13.9341 10.2971 13.9341C10.3285 13.9341 10.36 13.9341 10.3914 13.9631Z" fill="black"/>
<path d="M11.5237 14.753L11.6181 14.64C11.5866 14.6682 11.5552 14.7247 11.5237 14.753Z" fill="black"/>
<path d="M12.2472 12.1553C12.2157 12.0988 12.1843 12.0706 12.1843 12.0706C12.2157 12.1271 12.2157 12.24 12.2472 12.1553Z" fill="black"/>
<path d="M9.88818 15.2337C9.91964 15.2337 9.95109 15.2337 9.98254 15.2047C9.95109 15.2047 9.91964 15.2047 9.88818 15.2337Z" fill="black"/>
<path d="M12.0899 12.0706V12.0988C12.1214 12.0706 12.1528 12.0706 12.1843 12.0706C12.1528 12.0141 12.1214 11.9859 12.0899 12.0706Z" fill="black"/>
<path d="M14.1029 14.4988V14.5279C14.1029 14.5279 14.1344 14.5279 14.1029 14.4988Z" fill="black"/>
<path d="M12.8447 12.72C12.8447 12.72 12.8133 12.7482 12.8133 12.7765C12.8133 12.7482 12.8133 12.72 12.8447 12.72Z" fill="black"/>
<path d="M13.002 12.2965C13.002 12.2683 13.002 12.2683 13.002 12.24C12.9706 12.2683 12.9706 12.2965 13.002 12.2965Z" fill="black"/>
<path d="M13.002 12.2686C13.0335 12.2686 13.0335 12.2686 13.002 12.2686C13.0335 12.2686 13.0335 12.2396 13.002 12.2686Z" fill="black"/>
<path d="M12.9391 12.24C12.9705 12.24 12.9705 12.24 12.9391 12.24C12.9705 12.2691 12.9705 12.24 12.9705 12.24C12.9705 12.24 12.9705 12.24 12.9391 12.24Z" fill="black"/>
<path d="M11.2721 13.7365C11.1463 13.6235 11.1777 13.6236 11.2092 13.6518L10.8947 13.4259C11.0205 13.5106 11.1463 13.6235 11.2721 13.7365Z" fill="black"/>
<path d="M11.3036 14.7247L11.3979 14.64C11.5552 14.5271 11.5237 14.5835 11.6495 14.4706C11.335 14.7247 11.5866 14.4706 11.2407 14.6965L11.3036 14.64H11.335C11.4923 14.5271 11.0834 14.7812 11.0834 14.7247C11.1148 14.6965 11.1463 14.6682 11.2092 14.64L11.1148 14.6682L11.1777 14.64C11.1463 14.64 11.1463 14.6118 11.1148 14.6118C11.0519 14.64 10.9576 14.6682 10.8947 14.6682C10.9576 14.64 10.9261 14.6682 10.989 14.64H10.8947C10.989 14.5835 11.1148 14.5835 11.0834 14.5835C11.4608 14.4141 10.989 14.6118 11.1777 14.4706H11.2407C11.4608 14.3859 11.3665 14.4141 11.5237 14.3577C11.4608 14.3859 11.1778 14.4988 11.0834 14.4988C11.1148 14.4706 11.1148 14.4706 11.0205 14.4706C11.1777 14.4424 11.1148 14.4424 11.1148 14.4141L11.3036 14.3577C11.2407 14.3577 11.1463 14.3859 11.0519 14.3859C11.0519 14.3577 11.2092 14.3294 11.335 14.3012C11.3665 14.2729 11.0834 14.3577 11.0519 14.3294C11.1148 14.3012 11.0519 14.3012 10.9261 14.2729C10.989 14.2447 11.0519 14.2729 11.1148 14.2447H10.9576H11.0205C10.9576 14.2447 10.8318 14.2447 10.7689 14.2165C10.5487 14.2165 11.0834 14.16 10.8318 14.1318C10.8947 14.1318 10.9576 14.1318 11.0205 14.1318C10.8632 14.0753 10.8947 14.1035 10.6745 14.0188L10.8003 13.9906C10.643 13.9906 10.4858 13.9341 10.3285 13.8777C10.2656 13.8777 10.2027 13.8777 10.1713 13.8777C10.1398 13.8494 10.1083 13.8212 10.0769 13.7929C10.1083 13.7929 10.1713 13.8212 10.2656 13.8494C10.2656 13.8494 10.2342 13.8494 10.2342 13.8212C10.3285 13.8212 10.4229 13.8494 10.5172 13.8777C10.4858 13.8777 10.4229 13.8777 10.3914 13.8777C10.5172 13.9059 10.643 13.9341 10.7689 13.9624C10.7374 13.9624 10.7374 13.9341 10.706 13.9341C10.7374 13.9341 10.7689 13.9624 10.8003 13.9624C10.8318 13.9624 10.7689 13.9624 10.7374 13.9341L10.9576 13.9624L10.8632 13.9341C10.9261 13.9341 10.9576 13.9341 11.0205 13.9059C10.8003 13.8212 10.5172 13.68 10.4543 13.5671C10.5801 13.6518 10.706 13.6518 10.8632 13.7365C10.6745 13.68 10.9261 13.8212 10.8632 13.8212C10.8947 13.8212 10.989 13.8494 11.0205 13.8494C10.9576 13.8212 10.9261 13.7929 10.8632 13.7365C11.0205 13.7929 10.989 13.7647 11.0519 13.7929C10.7689 13.68 10.8947 13.68 10.8003 13.6235C10.8947 13.68 10.989 13.7082 10.9576 13.7365C11.1778 13.8212 10.643 13.5388 10.8318 13.5953C10.8318 13.5953 10.8003 13.5953 10.8632 13.6235C10.8003 13.5671 10.8947 13.5671 10.9576 13.6235C11.0205 13.5953 11.0519 13.5106 10.8318 13.3412C10.8632 13.3694 11.0834 13.5388 11.1148 13.5671C10.8947 13.3694 10.706 13.1718 10.5172 12.9459C10.6745 13.0871 11.0834 13.4259 11.1463 13.5106C11.1777 13.5106 11.2092 13.5388 11.1777 13.4824C11.1463 13.4541 10.9261 13.2847 10.9261 13.2565C11.1463 13.3977 11.0519 13.3412 11.2092 13.4541C11.1777 13.4259 10.9261 13.1718 10.9576 13.1718C10.989 13.2 11.1777 13.4259 11.2092 13.4541C11.1463 13.3694 11.0834 13.2847 11.0205 13.1718C11.0519 13.2282 11.2092 13.3694 11.2721 13.4541C11.2407 13.3977 11.3036 13.4259 11.3036 13.3977L11.2407 13.3412C11.3036 13.3412 11.0205 12.9459 11.0834 12.9177C11.1148 12.9741 11.3036 13.2847 11.335 13.2847C11.2407 13.1435 10.9576 12.5788 10.989 12.4094L11.0519 12.4941C11.0519 12.4659 11.0519 12.4094 11.0519 12.3812C11.1148 12.6353 11.2721 13.1153 11.3665 13.3129C11.4294 13.3694 11.4294 13.3977 11.4608 13.3977C11.5237 13.4824 11.5237 13.5106 11.5237 13.5388L11.5866 13.5671C11.4923 13.3977 11.5237 13.3694 11.4608 13.2282C11.4608 13.2847 11.4608 13.3694 11.4923 13.4259C11.3979 13.2565 11.2721 12.9177 11.3665 12.9177C11.3979 12.9741 11.4923 13.2282 11.5237 13.2847C11.4923 13.2282 11.5237 13.1435 11.5237 13.2L11.5552 13.3129C11.5866 13.3694 11.5237 13.0588 11.5866 13.2282C11.6181 13.2282 11.681 13.4541 11.6495 13.3412C11.5866 13.1435 11.3665 12.4941 11.3665 12.3247C11.3665 12.3247 11.5237 12.4941 11.5552 12.6071C11.6181 12.7765 11.5866 13.0024 11.6495 13.1435C11.6495 13.0871 11.6495 13.0306 11.6495 13.0024C11.681 13.0306 11.681 13.1718 11.681 13.1435C11.6495 12.9459 11.7439 13.1435 11.681 12.9741C11.7124 12.9177 11.7125 13.0024 11.7439 13.0024C11.7125 12.8894 11.7439 12.5788 11.7754 12.5224C11.7754 12.5788 11.7754 12.6353 11.8068 12.6635C11.8697 12.6635 11.9326 12.7765 11.9955 12.7765C11.9955 12.8329 12.027 12.8894 11.9955 12.9741C11.9955 12.9459 12.027 12.8894 12.0584 12.8894C12.0584 13.0588 12.027 12.9177 12.027 13.1153C12.027 13.0024 12.0899 12.9741 12.1213 12.8894C12.1528 12.72 12.0584 12.8612 12.027 12.9177C12.0584 12.6918 12.1528 12.4377 12.2472 12.3529C12.3415 12.2965 12.2472 12.5224 12.2786 12.4659C12.373 12.5224 12.5302 12.0988 12.5931 12.2965C12.5931 12.4659 12.4988 12.5788 12.4673 12.6918C12.4044 12.72 12.4359 12.5788 12.373 12.5788L12.4044 12.6635C12.373 12.72 12.3415 12.7482 12.3101 12.6918C12.3101 12.8329 12.4988 12.7765 12.4988 12.9177C12.5302 12.8894 12.5931 12.8329 12.5931 12.7765H12.5617C12.5931 12.6635 12.6875 12.6353 12.6875 12.5788C12.7504 12.5224 12.8762 12.4094 12.9077 12.5224L12.8133 12.6918C12.8448 12.6353 12.8448 12.5788 12.7819 12.6353C12.8448 12.5788 12.7189 12.8894 12.8762 12.6918L12.9077 12.5788C13.002 12.5224 13.1593 12.4094 13.1907 12.4941C13.2851 12.3247 13.1593 12.4941 13.2536 12.3247C13.1278 12.5506 13.0964 12.24 13.002 12.4941C13.0964 12.2682 13.002 12.3812 13.0335 12.1553C13.002 12.2118 13.002 12.2682 12.9706 12.2118L12.9391 12.24C12.9391 12.2682 12.9391 12.2965 12.9077 12.3247C12.8133 12.4377 12.7504 12.3812 12.6875 12.4377C12.6875 12.4094 12.7189 12.3812 12.7504 12.3247L12.656 12.4094C12.7189 12.2965 12.656 12.1835 12.7819 12.1553L12.7189 12.1271C12.7189 12.0424 12.656 12.0141 12.5931 12.0424C12.5617 12.0141 12.4673 12.1553 12.5302 12.0706L12.4044 12.1271V12.0988C12.2786 12.0706 12.1528 12.2682 12.0584 12.0424C12.027 12.0706 11.9641 12.0988 11.9326 12.0706V11.9577C11.8697 11.9859 11.7754 11.8447 11.7754 11.9577C11.7125 11.6753 11.5237 11.9294 11.4294 11.8729L11.4608 12.0141C11.3979 12.0141 11.3665 12.0706 11.3036 12.1553L11.335 12.2682C11.3036 12.3812 11.1778 12.2118 11.0834 12.2682C11.0834 12.2118 11.0834 12.2118 11.1148 12.24C10.989 12.1271 10.9576 12.1835 10.9261 12.2682C10.8947 12.3529 10.8947 12.4377 10.8003 12.3529C10.8003 12.4094 10.7689 12.4094 10.7374 12.3812C10.706 12.3812 10.6745 12.3529 10.6745 12.3529C10.706 12.3812 10.7374 12.3812 10.7374 12.4094C10.7374 12.4094 10.706 12.4377 10.706 12.4941L10.6116 12.3812C10.5487 12.3529 10.643 12.4377 10.706 12.5224C10.706 12.5506 10.706 12.5788 10.7374 12.6071C10.5801 12.4377 10.7374 12.6918 10.5487 12.5224C10.6116 12.6353 10.4858 12.6635 10.6745 12.8612C10.643 12.8329 10.643 12.8329 10.643 12.8329C10.6116 12.8329 10.5487 12.8329 10.5801 12.8894L10.4229 12.7765C10.4543 12.8329 10.5172 12.9177 10.5487 12.9741C10.4543 12.9177 10.3914 12.8894 10.2971 12.7765C10.3914 12.9741 10.2971 12.8894 10.4229 13.0588L10.3285 12.9741C10.3285 13.0024 10.4229 13.1153 10.3285 13.0871C10.0769 13.0024 10.1398 13.2847 9.85672 13.3694C10.2027 13.4824 9.66801 13.3694 9.91963 13.4824C9.82527 13.4541 9.79382 13.4824 9.73091 13.4259C9.79382 13.5388 9.54219 13.5106 9.76236 13.6235C9.66801 13.6235 9.63655 13.5671 9.6051 13.5671C9.63655 13.5671 9.66801 13.6235 9.6051 13.5953C9.54219 13.5953 9.5422 13.5671 9.51074 13.5388C9.51074 13.6235 9.76237 13.7082 10.014 13.7647C9.88818 13.7647 9.88818 13.7929 10.0454 13.8494C9.95108 13.8494 9.88818 13.8494 9.85672 13.7929C9.82527 13.8212 9.69946 13.9624 9.91963 13.9624C9.85672 13.9624 9.88818 13.9906 9.91963 14.0188C9.91963 14.0753 9.88818 14.0753 9.88818 14.1318L9.91963 14.1035C10.1713 14.1318 9.98254 14.16 10.014 14.1882H9.98254C9.82527 14.3012 10.0769 14.2165 9.88818 14.3577L10.0454 14.3294C10.36 14.3012 9.85672 14.4424 10.014 14.4988L10.1083 14.4706C10.2342 14.4706 9.69946 14.64 9.66801 14.6965C9.63655 14.7247 9.6051 14.6965 9.6051 14.6965C9.44783 14.8377 9.79382 14.6682 9.85672 14.7247C9.73091 14.8377 9.57365 14.8659 9.57365 14.9224C9.51074 14.9788 9.95108 14.9506 9.79382 15.0918C9.85672 15.0353 9.91963 15.0071 10.014 15.0071C10.0769 15.0353 9.79382 15.2612 10.0454 15.1765C10.014 15.2047 10.014 15.2047 9.98254 15.2047C10.0769 15.2047 10.1398 15.2612 10.2656 15.2047C10.0454 15.3459 10.1398 15.3741 10.2342 15.3741C10.3285 15.3741 10.4229 15.3741 10.2342 15.5153L10.3285 15.6L10.2971 15.6282C10.3285 15.7129 10.4543 15.6565 10.5487 15.6C10.5487 15.6282 10.4858 15.6565 10.4858 15.6565C10.5172 15.7977 10.5487 15.7977 10.7689 15.6565L10.6745 15.7694C10.7374 15.7129 10.706 16.0518 10.8947 15.9671C10.8947 15.9671 10.8632 15.9953 10.8632 16.0235C10.9576 15.9671 10.989 16.1082 11.0519 16.1647C11.1148 16.2494 11.1778 16.2777 11.2721 16.0235C11.3036 15.9953 11.3665 15.9671 11.3979 15.9106C11.3036 15.8541 11.4923 15.7129 11.4608 15.6C11.4923 15.5718 11.4923 15.7694 11.4608 15.7977V15.7694C11.3665 16.0235 11.5552 15.8824 11.5237 16.0518C11.7439 16.08 11.9641 16.2212 12.1842 16.2212L12.1213 16.0235H12.1842C12.2157 16.08 12.2472 16.1929 12.1842 16.1929C12.2157 16.3059 12.2472 16.08 12.2472 16.0518C12.373 16.1082 12.2472 16.3059 12.2786 16.3059L12.3101 16.2777V16.2494C12.3415 16.1647 12.3101 16.08 12.373 16.08C12.4359 16.1082 12.4359 16.1929 12.4359 16.1929C12.4359 16.2212 12.4359 16.2212 12.4673 16.1929H12.5617L12.4673 16.0518C12.4673 15.9671 12.5617 16.0518 12.4673 15.8824C12.5302 16.0235 12.6246 15.9953 12.7189 15.9953C12.7819 15.9671 12.8448 15.9106 12.9077 15.9388C12.9077 15.8259 12.9391 15.7977 13.002 15.7694C12.9706 15.7412 12.8448 15.6 12.9077 15.6C13.1278 15.9388 13.0964 15.6847 13.3166 15.8824C13.1593 15.7694 13.4109 15.7412 13.1907 15.6C13.2536 15.6 13.2851 15.7129 13.3795 15.7412C13.348 15.5718 13.6625 15.6282 13.7254 15.4871C13.694 15.4588 13.5996 15.4306 13.5682 15.3459C13.6625 15.3741 13.7569 15.4024 13.8513 15.4306C13.8513 15.4024 13.5996 15.2612 13.7883 15.3177C13.7569 15.2894 13.694 15.2612 13.6625 15.2612C13.8513 15.2329 13.8827 15.0635 13.9142 14.9506C13.9456 14.8094 13.9771 14.6965 14.2601 14.6118C14.1343 14.64 14.1343 14.6118 14.1343 14.5835C14.1029 14.6118 14.0085 14.5553 13.9142 14.5553C13.9771 14.5271 14.0714 14.4988 14.1343 14.4706C13.9142 14.4424 14.1343 14.3577 13.9142 14.3294L13.9456 14.3577C13.7254 14.3012 13.4109 14.3859 13.1278 14.3577C13.2536 14.3859 13.1593 14.3859 13.0649 14.4141C12.9706 14.4141 12.9077 14.4424 13.0964 14.4988C13.0335 14.4988 13.002 14.4706 12.9391 14.4706C13.0649 14.4988 13.0964 14.5271 13.0335 14.5271H13.002C13.002 14.6118 12.8762 14.6118 12.7819 14.64L12.9077 14.6965C12.8762 14.6965 12.8448 14.6965 12.8133 14.6682C13.002 14.7812 12.8448 14.64 13.0649 14.7529C12.7819 14.6682 13.002 14.8659 12.6875 14.7247C12.6875 14.7529 12.8448 14.8094 12.8133 14.8094L12.7189 14.7812L12.8133 14.8377C12.7819 14.8377 12.6875 14.7812 12.6246 14.7529V14.7247C12.5302 14.6682 12.6246 14.7812 12.5931 14.7812L12.656 14.8094C12.6875 14.9224 12.5302 14.8941 12.6246 15.0635L12.6875 15.12C12.7189 15.2329 12.5931 15.0918 12.5931 15.1765C12.6246 15.2329 12.6246 15.2612 12.5931 15.2612C12.5617 15.2047 12.4988 15.1482 12.4673 15.0635C12.4988 15.2047 12.4988 15.1482 12.5931 15.3741L12.5302 15.2894C12.5617 15.3741 12.5931 15.4306 12.5617 15.4588C12.5617 15.3741 12.4673 15.3177 12.4359 15.2047C12.2786 15.0071 12.4359 15.4588 12.2786 15.1482C12.3415 15.4306 12.4044 15.2894 12.4044 15.3459C12.4673 15.4306 12.4673 15.5718 12.4359 15.5435C12.4044 15.5435 12.2786 15.2047 12.2157 15.2047V15.1765C12.1842 15.12 12.2157 15.2894 12.1528 15.1765C12.1842 15.3459 12.1213 15.1765 12.1528 15.4024L12.1842 15.3459C12.1842 15.4024 12.1842 15.6565 12.0899 15.5435C12.0899 15.4871 12.0899 15.4306 12.0899 15.4024C12.0584 15.3459 12.0584 15.4588 12.0584 15.3741C12.027 15.1482 12.1213 15.3177 12.1213 15.1482C12.0899 15.0635 12.0899 15.3177 12.0899 15.0635C12.1213 15.3741 12.0584 15.0353 12.027 15.2612V15.12C12.027 15.1482 12.027 15.2047 11.9955 15.2047V15.0353C11.9641 15.1765 11.9641 14.9224 11.9326 14.9788C11.9641 14.9788 11.9326 15.1482 11.9641 15.2329C11.9012 15.4024 11.9326 14.8941 11.8697 14.9506C11.8697 14.9224 11.9012 15.0353 11.8697 15.0918C11.8697 15.0635 11.8383 15.0071 11.8383 14.9506C11.8068 14.9788 11.8383 15.0918 11.8068 15.1765C11.8068 15.0071 11.7754 15.2329 11.7439 15.2894L11.7754 15.1482C11.7439 15.0635 11.681 15.4306 11.681 15.3177L11.7439 15.1482L11.7125 15.1765L11.7754 15.0353C11.7125 15.1482 11.7125 15.12 11.7125 15.0635C11.681 15.1482 11.6181 15.2894 11.5866 15.2894C11.5866 15.2047 11.6495 15.1765 11.6181 15.1765C11.6495 15.0918 11.7124 15.0071 11.681 15.12C11.7124 15.0918 11.7125 15.0353 11.7439 15.0071C11.7754 14.9224 11.7125 14.9788 11.7125 14.9788C11.7125 14.9788 11.7125 14.9788 11.7125 15.0071C11.681 15.0635 11.6181 15.12 11.5866 15.1765C11.6181 15.12 11.6181 15.0918 11.6495 15.0635L11.5866 15.12C11.6495 15.0353 11.7125 14.9224 11.7439 14.8659C11.7125 14.8941 11.681 14.9224 11.6495 14.9506C11.681 14.8941 11.7125 14.8377 11.7439 14.7812C11.7754 14.7247 11.5866 14.9506 11.6181 14.8659C11.6181 14.8941 11.5866 14.8941 11.5866 14.8941C11.5866 14.8659 11.6495 14.7529 11.5237 14.8377L11.6495 14.6682C11.5866 14.6965 11.4923 14.8659 11.3979 14.8941C11.335 14.9224 11.5237 14.7529 11.5552 14.7247C11.4608 14.7812 11.2721 14.8941 11.3979 14.7812C11.3036 14.6965 11.3036 14.7247 11.3036 14.7247ZM11.0519 14.4988C11.0834 14.4988 11.1778 14.4706 11.0834 14.4988C10.9261 14.5553 11.0205 14.5271 11.0519 14.4988ZM10.6745 13.9341C10.706 13.9624 10.706 13.9624 10.643 13.9624C10.643 13.9624 10.643 13.9341 10.6745 13.9341ZM12.6875 12.24C12.6875 12.2682 12.6875 12.2682 12.6875 12.24C12.656 12.1835 12.656 12.2118 12.6875 12.24ZM12.7504 12.3247C12.7504 12.2965 12.7819 12.2965 12.7819 12.2682C12.7504 12.2965 12.7504 12.2965 12.7189 12.2682C12.7189 12.3247 12.7189 12.3529 12.7504 12.3247ZM12.4359 16.1647L12.4044 16.1365C12.4359 16.08 12.4359 16.1082 12.4359 16.1647Z" fill="black"/>
<path d="M11.4923 14.782L11.5238 14.753L11.4923 14.782Z" fill="black"/>
<path d="M11.7439 13.3694C11.7439 13.3412 11.7125 13.3412 11.7125 13.313C11.7439 13.3412 11.7439 13.3694 11.7439 13.3694Z" fill="black"/>
<path d="M13.2536 12.2965H13.1907C13.2222 12.2965 13.2222 12.3247 13.2222 12.3529C13.2222 12.3529 13.2222 12.2965 13.2536 12.2965Z" fill="black"/>
<path d="M13.002 13.2C13.0335 13.1718 13.002 13.2 13.002 13.2L13.0649 13.1435C13.0649 13.1153 13.002 13.1435 13.002 13.2Z" fill="black"/>
<path d="M13.0335 12.72C12.9706 12.8047 13.002 12.8047 13.0649 12.8047C13.1593 12.6635 13.0964 12.6918 13.0335 12.72Z" fill="black"/>
<path d="M13.0334 12.7768C13.0649 12.7768 13.0649 12.7768 13.0334 12.7768C13.1278 12.7478 13.0649 12.7768 13.0334 12.7768Z" fill="black"/>
<path d="M12.8762 12.2965C12.8762 12.3247 12.9391 12.1553 12.9391 12.2118C13.002 12.0988 12.7504 12.3247 12.8762 12.2965Z" fill="black"/>
<path d="M12.8133 13.0306L12.8762 12.9177L12.8133 13.0024V13.0306Z" fill="black"/>
<path d="M12.6875 12.8612L12.719 12.9177C12.719 12.8894 12.7504 12.8894 12.7504 12.8894C12.719 12.8612 12.719 12.8047 12.6875 12.8612Z" fill="black"/>
<path d="M12.7504 13.0588V13.0023H12.7189L12.7504 13.0588Z" fill="black"/>
<path d="M12.2472 12.6918L12.1843 12.72C12.1843 12.7765 12.1843 12.8047 12.1843 12.7765C12.2472 12.7482 12.2472 12.7482 12.2472 12.6918Z" fill="black"/>
<path d="M12.2786 13.0871C12.2786 13.0588 12.2786 13.0306 12.31 12.9741L12.2471 13.1435L12.2786 13.0871Z" fill="black"/>
<path d="M12.1842 13.1153C12.1842 13.1718 12.1213 13.2565 12.1528 13.2282C12.1528 13.2 12.1842 13.1718 12.1842 13.1153Z" fill="black"/>
<path d="M11.5867 12.8894H11.6181L11.5237 12.6071L11.5867 12.8894Z" fill="black"/>
<path d="M11.5238 13.68C11.5867 13.7365 11.4294 13.5388 11.4923 13.5953C11.4609 13.5388 11.4294 13.5388 11.3979 13.4824C11.4294 13.5388 11.3979 13.5106 11.5238 13.68Z" fill="black"/>
<path d="M11.3979 13.4832C11.3979 13.4832 11.3979 13.4541 11.3665 13.4541C11.3979 13.4541 11.3979 13.4541 11.3979 13.4832Z" fill="black"/>
<path d="M14.2916 14.3584L14.3545 14.3294H14.2601L14.2916 14.3584Z" fill="black"/>
<path d="M14.0714 14.2738H14.2916L14.1029 14.2447C14.1029 14.2447 14.1029 14.2738 14.0714 14.2738Z" fill="black"/>
<path d="M11.4294 14.3577H11.3665C11.3036 14.3867 11.3036 14.3867 11.3036 14.3867L11.4294 14.3577Z" fill="black"/>
<path d="M11.3665 14.5553L11.2092 14.64L11.3665 14.5553Z" fill="black"/>
<path d="M11.6181 14.4988C11.6181 14.4988 11.5867 14.5271 11.6181 14.4988C11.6181 14.4988 11.4608 14.6683 11.6181 14.4988Z" fill="black"/>
<path d="M12.719 6.28235C12.6246 6.48 12.5932 6.67765 12.5617 6.84706C12.1214 7.63765 12.2786 8.11765 11.9641 8.96471C11.9326 9.07765 11.9012 9.19059 11.8697 9.30353C11.8697 9.33176 11.8383 9.38824 11.8383 9.41647C11.8068 9.50118 11.8068 9.58588 11.7754 9.67059C11.7125 9.61412 11.6496 9.52941 11.6181 9.44471C11.5867 9.50118 11.5238 9.47294 11.4609 9.41647C11.3665 9.33176 11.2407 9.13412 11.1149 8.99294C10.8318 8.62588 10.5802 8.28706 10.3285 8.06118C10.1398 7.86353 9.98256 7.72235 9.91965 7.69412C9.85675 7.66588 9.85675 7.75059 9.98256 7.89176C9.60512 7.44 9.66803 7.38353 9.32205 7.01647C9.3535 7.01647 9.38495 6.98824 9.41641 6.98824C9.29059 6.79059 9.10188 6.50823 8.91316 6.31059H8.88171L8.94461 6.70588C8.8817 6.93176 8.91316 7.27059 8.94461 7.58118C8.97606 7.89176 9.00752 8.17412 8.97606 8.51294C9.00752 8.28706 9.00752 8.34353 9.03897 8.45647C9.03897 8.56941 9.07042 8.68235 9.10188 8.65412C9.07042 8.73882 9.03897 9.07765 9.03897 8.96471C9.03897 9.19059 9.07042 9.41647 9.07042 9.61412C9.10188 9.81176 9.10188 9.98118 9.03897 10.0659L9.07042 10.2353C9.10188 10.3765 9.10188 10.5176 9.07042 10.6024C9.07042 10.6871 9.03897 10.7435 9.03897 10.8282L9.10188 10.9694C9.10188 11.0541 9.10188 11.1388 9.13333 11.1953C9.03897 11.0824 8.91316 10.9129 8.85025 10.8C8.72444 10.6306 8.59863 10.4894 8.40991 10.32C8.22119 10.1506 8.00102 9.95294 7.84376 9.78353C7.71794 9.58588 7.65504 9.52941 7.56068 9.50118C7.49777 9.47294 7.40342 9.41647 7.30906 9.33176C7.24615 9.24706 7.15179 9.13412 7.05743 9.04941C6.96307 8.96471 6.90017 8.88 6.83726 8.73882C6.93162 8.85176 6.99453 8.85176 7.05743 8.88C7.12034 8.90824 7.2147 8.96471 7.34051 9.16235C7.24615 8.99294 7.84376 9.69882 7.65504 9.36C7.30906 9.04941 7.02598 8.68235 6.71145 8.31529C6.42837 7.94824 6.11384 7.58118 5.98803 7.52471C5.95658 7.46824 5.92512 7.41176 5.89367 7.32706C5.83077 7.24235 5.89367 7.46824 5.95658 7.75059C6.01948 8.03294 6.11384 8.34353 6.17675 8.48471L6.11384 8.42824C6.14529 8.68235 6.2082 8.93647 6.39692 9.41647C6.42837 9.55765 6.45983 9.69882 6.52273 9.81176C6.55418 9.92471 6.58564 10.0659 6.61709 10.1788C6.67999 10.4047 6.71145 10.6588 6.7429 10.8565C6.80581 11.5059 7.15179 12.2118 7.30906 12.4659C7.2147 11.6753 6.86871 10.9976 6.93162 10.4047C7.02598 10.9412 7.08888 10.9694 7.24615 11.3647V11.1388L7.30906 11.3082C7.34051 11.2235 7.43487 11.4212 7.46632 11.3929L7.30906 10.7718C7.37196 11.1106 7.24615 10.9129 7.18324 10.8282L7.12034 10.4894C7.12034 10.5741 7.15179 10.7718 7.05743 10.5459C7.02598 10.4047 6.96307 10.2353 6.96307 10.0941L7.12034 10.32C7.02598 10.1224 7.02598 9.95294 6.99453 9.75529C6.96307 9.64235 6.99453 9.64235 6.99453 9.61412C6.99453 9.58588 6.99452 9.58588 6.96307 9.52941C6.99452 9.52941 7.02598 9.55765 7.08888 9.58588L7.05743 9.55765L7.12034 9.61412C7.12034 9.61412 7.12034 9.61412 7.15179 9.64235C7.12034 9.61412 7.02598 9.47294 6.96307 9.36C6.96307 9.33176 6.90017 9.21882 6.96307 9.30353L7.08888 9.55765L7.12034 9.61412C7.08888 9.55765 7.05743 9.47294 6.99453 9.36C7.05743 9.44471 7.02598 9.41647 7.12034 9.61412C7.08888 9.55765 7.12034 9.58588 7.12034 9.61412C7.12034 9.61412 7.12034 9.61412 7.12034 9.52941C7.15179 9.61412 7.15179 9.64235 7.18324 9.64235L7.24615 9.72706C7.34051 9.84 7.43487 9.95294 7.49777 10.0659L7.68649 10.2353C7.7494 10.2918 7.78085 10.3765 7.8123 10.4329C7.90666 10.5459 7.96957 10.6306 8.03247 10.7153C8.18974 10.9129 8.347 11.0824 8.47282 11.2518C8.75589 11.5906 9.03897 11.9012 9.41641 12.3529L9.25914 12.2682L9.57367 12.5506V12.4094C9.60512 12.0424 9.57367 11.7035 9.57367 11.3647C9.57367 11.0259 9.54222 10.7153 9.57367 10.2353C9.57367 10.0941 9.57367 9.98118 9.57367 9.86824C9.57367 9.84 9.57367 9.78353 9.57367 9.75529C9.57367 9.72706 9.57367 9.69882 9.57367 9.67059C9.57367 9.55765 9.54222 9.47294 9.54222 9.38824C9.51077 9.21882 9.44786 9.10588 9.41641 8.99294C9.38495 8.85176 9.38495 8.65412 9.41641 8.54118C9.41641 8.45647 9.44786 8.37176 9.44786 8.31529C9.44786 8.34353 9.47931 8.4 9.47931 8.42824C9.47931 8.4 9.51077 8.4 9.51077 8.37176C9.51077 8.28706 9.51077 8.25882 9.51077 8.23059C9.51077 8.20235 9.51076 8.14588 9.47931 8.00471V7.97647C9.63658 8.17412 9.51076 7.83529 9.63658 7.89176C9.73093 8.08941 9.82529 8.23059 9.8882 8.34353V8.31529C9.91965 8.31529 9.95111 8.34353 9.95111 8.34353C9.98256 8.34353 10.014 8.37176 10.0455 8.4C10.1084 8.42824 10.1398 8.48471 10.1713 8.54118C10.2656 8.65412 10.3914 8.82353 10.6745 9.19059L10.706 9.13412C10.7689 9.27529 10.8632 9.36 10.9576 9.44471C10.9891 9.50118 11.052 9.52941 11.1149 9.58588C11.1778 9.64235 11.2407 9.72706 11.3036 9.81176C11.3665 9.86824 11.4609 10.0094 11.5552 10.1788C11.681 10.3482 11.8068 10.5459 11.9326 10.6871C11.9641 10.5459 11.9956 10.4047 11.9956 10.2918C12.1214 9.95294 12.2157 9.55765 12.2157 9.33176C12.2472 9.07765 12.2786 8.85176 12.373 8.56941C12.5303 8.23059 12.4988 7.97647 12.6246 7.92L12.5932 7.97647L12.7504 7.89176L12.6875 7.86353C12.7819 7.66588 12.8762 7.35529 13.002 7.21412C13.002 7.04471 13.0335 6.87529 13.065 6.70588C13.0335 6.81882 12.9706 6.96 12.9077 7.07294H12.9391C12.8762 7.18588 12.8133 7.49647 12.719 7.63765L12.7504 7.46824C12.6561 7.66588 12.6875 7.49647 12.6875 7.44C12.8762 7.04471 12.7504 7.12941 12.8448 6.84706C12.8762 6.79059 12.9391 6.64941 12.9391 6.70588C12.9706 6.62118 13.065 6.45176 13.1279 6.31059C13.1593 6.25412 13.2222 6.16941 13.2537 6.14118C13.2851 6.08471 13.3166 6.05647 13.3166 6.02823C13.348 6.02823 13.348 6 13.348 6C13.3166 6 13.2537 6 13.1908 6C13.1279 6 13.0335 6.05647 13.002 6.08471C12.9391 6.11294 12.8762 6.16941 12.8133 6.19765C12.8448 6.19765 12.7819 6.22588 12.719 6.28235Z" fill="black"/>
</svg>
