<svg width="24" height="24" viewBox="0 0 24 24" fill="none" xmlns="http://www.w3.org/2000/svg">
<path d="M11.4786 8.09615C11.4786 8.09615 17.1467 0.00328934 20.3841 0.936475C23.6216 1.86966 16.6579 18.6954 16.6579 18.6954C16.6579 18.6954 13.1712 22.4786 4.94139 7.04632C4.75936 6.70548 4.6874 6.32015 4.73474 5.93974C4.89547 4.60932 5.4498 1.60484 7.10298 2.33941C9.20552 3.27259 11.4786 8.09615 11.4786 8.09615Z" fill="#6FC4C3"/>
<path d="M11.5442 8.0678C11.6886 8.10563 11.5672 8.02366 11.5049 7.92908L11.5442 8.0678Z" fill="#6FC4C3"/>
<path d="M11.5016 7.92906L11.4721 7.82817C11.4678 7.86422 11.4784 7.90043 11.5016 7.92906Z" fill="#6FC4C3"/>
<path d="M11.1407 7.04947C11.3277 7.20395 11.3343 7.48769 11.5245 7.55074C11.5016 7.31745 11.308 7.03056 11.1407 7.04947Z" fill="#6FC4C3"/>
<path d="M11.2162 7.38049L11.2949 7.37104L11.1014 7.25124L11.2162 7.38049Z" fill="#6FC4C3"/>
<path d="M11.2129 7.53183L11.2261 7.494L11.0194 7.26385L11.2129 7.53183Z" fill="#6FC4C3"/>
<path d="M10.8456 6.37795L10.9735 6.55765C10.9735 6.78464 10.7833 6.50406 10.7865 6.65539C10.921 6.89499 11.0293 6.65539 11.1605 6.97065C11.2359 6.90129 10.8948 6.49145 11.0588 6.46938C10.9473 6.17933 10.9571 6.48199 10.8456 6.37795Z" fill="#6FC4C3"/>
<path d="M6.21735 8.13714C6.21735 8.13714 6.21735 8.15921 6.21735 8.16867C6.21735 8.17812 6.2338 8.13399 6.21735 8.13714Z" fill="#6FC4C3"/>
<path d="M8.12305 11.1511C8.13548 11.1985 8.15193 11.2449 8.17225 11.2898C8.17739 11.2669 8.17739 11.2433 8.17225 11.2204L8.12305 11.1511Z" fill="#6FC4C3"/>
<path d="M5.04629 6.35274L5.07583 6.23294C5.06185 6.2495 5.05193 6.26886 5.04682 6.2896C5.04171 6.31034 5.04153 6.33192 5.04629 6.35274Z" fill="#6FC4C3"/>
<path d="M18.5276 14.5055C18.5354 14.5197 18.5482 14.5309 18.5637 14.537L18.5374 14.4866L18.5276 14.5055Z" fill="#6FC4C3"/>
<path d="M10.57 14.2817C10.6029 14.3231 10.6403 14.3612 10.6815 14.3952C10.6534 14.35 10.6153 14.3113 10.57 14.2817Z" fill="#6FC4C3"/>
<path d="M5.15784 5.1642V5.21464L5.18408 5.15474L5.15784 5.1642Z" fill="#6FC4C3"/>
<path d="M7.69666 10.0603C7.70875 10.1017 7.72523 10.1419 7.74584 10.1801C7.73491 10.1383 7.71837 10.098 7.69666 10.0603Z" fill="#6FC4C3"/>
<path d="M9.06771 3.47753C9.04366 3.42586 9.00202 3.3836 8.94965 3.35773C8.95742 3.38555 8.97229 3.41108 8.9929 3.432C9.01352 3.45291 9.03922 3.46856 9.06771 3.47753Z" fill="#6FC4C3"/>
<path d="M8.08698 2.51817C8.10009 2.50682 8.09353 2.50682 8.08698 2.51817V2.51817Z" fill="#6FC4C3"/>
<path d="M7.30963 2.00207C7.32275 1.98631 7.31619 1.98631 7.30963 2.00207V2.00207Z" fill="#6FC4C3"/>
<path d="M8.94966 3.35772C8.92014 3.24108 9.04478 3.0866 8.78237 3.11812V3.15911C8.75941 3.06453 8.61181 3.02354 8.53309 2.95734C8.52966 2.97717 8.52966 2.99741 8.53309 3.01724C8.56589 3.05507 8.60525 3.10866 8.66429 3.19063C8.72333 3.2726 8.83486 3.30098 8.94966 3.35772Z" fill="#6FC4C3"/>
<path d="M6.17795 8.14344C6.20421 8.11192 6.14511 8.04886 6.17795 8.14344V8.14344Z" fill="#6FC4C3"/>
<path d="M5.50555 7.24809C5.52282 7.27978 5.53815 7.31242 5.55146 7.34582C5.54729 7.3094 5.53122 7.27519 5.50555 7.24809Z" fill="#6FC4C3"/>
<path d="M5.75481 3.60992H5.7384C5.75809 3.63515 5.76137 3.61938 5.75481 3.60992Z" fill="#6FC4C3"/>
<path d="M5.59743 7.4341L5.54822 7.34583C5.55592 7.37902 5.57294 7.40955 5.59743 7.4341Z" fill="#6FC4C3"/>
<path d="M17.1237 0.901807C17.1959 0.838754 17.2746 0.854517 17.3598 0.822991C17.4582 0.599152 16.999 1.03422 17.1827 0.778853C17.1172 0.819528 17.0603 0.871979 17.0154 0.933333L17.1926 0.971165C17.3172 0.838754 17.0778 0.996387 17.1237 0.901807Z" fill="#6FC4C3"/>
<path d="M19.1442 13.6133L19.1213 13.6448C19.1869 13.6448 19.1967 13.6669 19.2721 13.5471C19.2229 13.4084 19.0294 13.5471 18.9999 13.3106C18.9917 13.3626 18.9715 13.4121 18.9409 13.4557C19.0458 13.4021 19.1049 13.5061 19.1442 13.6133Z" fill="#6FC4C3"/>
<path d="M18.9409 13.4557C18.9253 13.4587 18.9107 13.4652 18.8982 13.4746C18.8893 13.5003 18.8747 13.524 18.8556 13.5439C18.8926 13.5234 18.9223 13.4926 18.9409 13.4557Z" fill="#6FC4C3"/>
<path d="M20.5809 0.116803C20.6373 0.131879 20.6913 0.154145 20.7416 0.183009C20.7211 0.161837 20.6962 0.145014 20.6685 0.133615C20.6408 0.122215 20.611 0.116489 20.5809 0.116803Z" fill="#6FC4C3"/>
<path d="M9.03162 15.0509L8.92993 14.9816C8.95417 15.0156 8.99022 15.0401 9.03162 15.0509Z" fill="#6FC4C3"/>
<path d="M18.3439 15.4355C18.3216 15.4615 18.3028 15.4901 18.2881 15.5207L18.2717 15.5806L18.3439 15.4355Z" fill="#6FC4C3"/>
<path d="M19.1934 8.84332C19.3213 8.94736 19.1934 8.78658 19.3181 8.67623L19.2754 8.53436C19.2346 8.6336 19.207 8.73742 19.1934 8.84332Z" fill="#6FC4C3"/>
<path d="M20.0593 5.17365L20.0889 5.12006C20.0749 5.13555 20.0648 5.15387 20.0593 5.17365Z" fill="#6FC4C3"/>
<path d="M18.6194 14.165L18.4423 14.6316L18.5276 14.5055C18.4783 14.4172 18.685 14.2596 18.6194 14.165Z" fill="#6FC4C3"/>
<path d="M18.6864 11.2771L18.5904 11.2921C18.6244 11.7894 18.2031 12.2149 18.3332 12.6463C17.8562 13.0898 18.4757 13.0838 18.042 13.4883H18.0885C17.7787 14.2912 17.4287 15.1032 17.0972 15.9092C16.933 16.3107 16.7688 16.7092 16.6232 17.1077C16.5489 17.3054 16.4776 17.5032 16.4095 17.7069L16.3134 18.0065L16.267 18.1503V18.1863V18.2073L16.205 18.1683C16.1678 18.1863 16.205 18.1683 16.0005 18.2103C15.8074 18.2232 15.6133 18.2029 15.4274 18.1503C14.9281 17.9901 14.4616 17.7468 14.0489 17.4313C13.0936 16.7023 12.248 15.8482 11.5365 14.8935C11.3475 14.7407 11.3259 14.9324 11.1462 14.8126C11.0935 14.7407 10.9634 14.5879 11.0254 14.5429C11.1648 14.6538 11.1586 14.5429 11.2174 14.5669C11.0347 14.3512 10.9076 14.0006 10.666 13.8508L10.7125 14.0755C10.6255 13.998 10.5541 13.9055 10.5018 13.8029C10.5669 13.8029 10.5762 13.6441 10.6412 13.692C10.1332 13.3924 10.4894 13.2935 10.1518 12.9759C9.92252 13.0149 9.47023 12.6254 9.13566 12.3767L9.0737 12.1819C9.2162 12.4036 9.20071 12.101 9.38349 12.3767C9.28435 12.122 9.0737 11.9542 8.96527 11.7175C8.94668 11.7864 8.88164 11.8104 8.80729 11.7325C8.74843 11.5857 8.83207 11.5228 8.74533 11.364L8.89403 11.4808C8.89403 11.34 8.75462 11.304 8.68647 11.2172C8.74223 11.1422 8.61212 10.9175 8.72364 10.8996C8.49749 10.7497 8.50989 10.6419 8.31163 10.4531C8.37049 10.7318 8.17842 10.4531 8.12885 10.5101L8.31472 10.7587C8.14433 10.3572 8.40146 10.8726 8.51299 10.7587C8.55636 10.9685 8.15983 10.6389 8.3519 10.9205C8.16935 10.6732 7.96739 10.4398 7.74781 10.2224C7.9027 10.4262 7.63939 10.2224 7.67036 10.3662C7.50308 10.0936 7.67036 10.2734 7.70754 10.1415C7.6146 9.99471 7.65797 9.89883 7.48449 9.80894C7.38226 9.54228 7.60221 9.79396 7.58362 9.64116C7.72303 9.6861 7.86553 10.3812 8.11336 10.1595C8.1908 10.2823 8.38907 10.3782 8.4913 10.561C8.45334 10.3413 8.3573 10.1349 8.21249 9.96175L8.0483 10.0367C7.95537 9.89284 7.82835 9.9198 7.78188 9.80295C7.85933 9.83591 7.86862 9.69509 7.78188 9.58123C7.78188 9.62618 7.80976 9.67412 7.78188 9.67412C7.64248 9.45539 7.51547 9.48236 7.3327 9.23068C7.3852 9.40992 7.42046 9.59347 7.43802 9.77898C7.29242 9.77898 7.33889 9.64116 7.25525 9.5273C7.28003 9.5273 7.29862 9.56026 7.30172 9.5273L7.1747 9.42543C7.06628 9.12581 7.35748 9.3745 7.28313 9.12581C7.28313 8.91908 7.10656 8.94005 7.09416 8.79024C7.09338 8.80321 7.09338 8.81622 7.09416 8.82919C7.0825 8.80962 7.07413 8.78838 7.06938 8.76627C6.97334 8.62545 6.8959 8.46665 6.79057 8.46665C6.81845 8.4307 6.70693 8.34381 6.65426 8.30785C6.6016 8.2719 6.36926 8.09512 6.44051 7.90337C6.35996 7.70861 6.32279 7.54382 6.39094 7.5618C6.36926 7.50487 6.35067 7.45993 6.34137 7.42397C6.33208 7.38802 6.32279 7.34308 6.31349 7.30413L6.44051 7.28615C6.34447 7.10338 6.28252 7.14233 6.13072 6.98653C6.15576 6.88343 6.16824 6.77784 6.16789 6.67193C6.17215 6.55786 6.16697 6.44364 6.15241 6.33037C6.16153 6.292 6.16671 6.25286 6.16789 6.21351L6.09974 6.33037C6.14001 6.09666 6.07186 6.11764 6.09974 5.96183C6.08115 5.9918 6.07186 5.99479 6.09974 5.91389C6.10629 5.8845 6.11457 5.85549 6.12453 5.827C6.12453 5.827 6.12453 5.87195 6.12453 5.90491L6.171 5.88393C6.33518 5.72513 6.14931 5.58431 6.24225 5.40155C6.2453 5.42643 6.2453 5.45157 6.24225 5.47645C6.30111 5.37158 6.51176 5.26073 6.41882 5.19181C6.44051 5.16784 6.41882 5.1259 6.41882 5.08395L6.4591 5.00904C6.44777 5.03406 6.4343 5.05811 6.41882 5.08095C6.39714 5.02403 6.36926 4.9671 6.39714 4.9671C6.43122 4.88021 6.4653 4.79032 6.50247 4.70643C6.53374 4.65233 6.55077 4.59162 6.55204 4.52965L6.61709 4.50269C6.64497 4.40981 6.67595 4.41879 6.68524 4.43677C6.79679 4.34132 6.87476 4.21458 6.90829 4.07423C6.92046 4.00825 6.94951 3.94627 6.9928 3.89394C7.03609 3.8416 7.09223 3.80058 7.15612 3.77461C7.15091 3.7577 7.14032 3.74281 7.12586 3.73205C7.1114 3.72129 7.0938 3.71522 7.07557 3.71469C7.03839 3.71469 6.99813 3.71469 6.97644 3.71469C6.98417 3.58849 7.03296 3.46788 7.11584 3.37013C7.24153 3.36936 7.36601 3.39385 7.4814 3.44204C7.59292 3.49896 7.63938 3.58585 7.60221 3.66375C7.67656 3.68772 7.67656 3.66375 7.66107 3.62181C7.64558 3.57986 7.60841 3.52893 7.66107 3.51095L7.68276 3.52593C7.61523 3.47904 7.55655 3.42127 7.50928 3.35515C7.4783 3.25028 7.75091 3.25927 7.81907 3.32219C7.78652 3.35604 7.75649 3.39209 7.72922 3.43005C7.82007 3.44289 7.91275 3.42602 7.99255 3.38211C8.06801 3.3233 8.15947 3.28688 8.25587 3.27725C8.45103 3.44803 8.25586 3.469 8.23108 3.59484L8.45102 3.71769L8.36739 3.7866C8.51299 3.85851 8.60282 3.81356 8.74222 3.99933C8.55945 3.95738 8.92501 4.29895 8.67098 4.22704C8.73604 4.33191 8.90022 4.22704 8.84755 4.36486C8.98386 4.36486 8.81347 4.24502 8.78869 4.18509C8.86304 4.04127 9.03342 4.33191 9.16663 4.41879C9.11397 4.47872 9.02724 4.41879 9.10778 4.5686C9.13199 4.56696 9.15628 4.57015 9.17916 4.578C9.20203 4.58584 9.22299 4.59816 9.24072 4.61418C9.25846 4.63021 9.27259 4.6496 9.28223 4.67114C9.29186 4.69268 9.29681 4.71591 9.29675 4.73939C9.37419 4.67647 9.43925 4.8832 9.49811 4.9641C9.44234 4.86523 9.39588 4.69145 9.49811 4.70044C9.61352 4.75984 9.70752 4.8518 9.76762 4.9641C9.75213 4.91616 9.73664 4.86822 9.71805 4.82328C9.95039 4.88021 9.81409 5.1229 9.99687 5.29069C9.91378 5.24031 9.82678 5.19623 9.73665 5.15885C9.89126 5.25595 10.0373 5.36518 10.1734 5.48544V5.73113C10.2478 5.71615 10.3005 5.92588 10.381 5.87494C10.4646 6.12363 10.1672 5.76408 10.0898 5.78506C10.2137 6.08468 10.3717 5.9109 10.3996 6.24647L10.2664 6.21052C10.3159 6.29741 10.4708 6.44122 10.4368 6.47718C10.4677 6.4592 10.4368 6.42325 10.3934 6.36932C10.601 6.32138 10.7589 6.70489 10.92 6.57006L10.855 6.44122C11.0037 6.60901 11.2081 6.67493 11.2267 6.8577C11.2453 7.04046 11.0594 6.84271 10.9758 6.80376C11.0656 6.98653 11.2546 6.83972 11.363 7.06443C11.3259 6.9356 11.4033 6.92361 11.4869 6.96556C11.4281 6.83672 11.3135 6.55808 11.2639 6.64497V6.6989C11.2112 6.71388 11.1555 6.65395 11.109 6.63298C11.0099 6.46819 11.1431 6.51014 11.1586 6.4592C11.0161 6.15958 10.9665 6.5371 10.8178 6.27943L10.8333 6.2255C10.7094 6.13262 10.5824 5.94985 10.4553 5.98281C10.4987 5.80304 10.2261 5.73113 10.2137 5.57233C10.443 5.39256 10.4801 6.00078 10.7032 6.06071C10.6691 5.89891 10.8705 6.06071 10.9634 6.08767L10.5855 5.73412C10.601 5.68019 10.6381 5.48544 10.4987 5.46447L10.5142 5.50042C10.3748 5.3566 10.3066 5.46447 10.2416 5.30267C10.2416 5.26672 10.319 5.28469 10.3407 5.28469C10.2757 5.14088 10.2106 5.21578 10.127 5.14387C10.0557 5.00305 10.2726 5.14387 10.2199 5.01803C10.0186 4.93414 10.0712 4.76635 9.96589 4.64651C9.87295 4.79332 9.38658 4.29295 9.48881 4.64651C9.38039 4.5716 9.27506 4.49969 9.16044 4.43378C9.14495 4.29295 9.5105 4.47572 9.54767 4.31393L9.73665 4.55362C9.79861 4.47273 9.67469 4.36486 9.53219 4.254C9.38969 4.14315 9.2224 4.01431 9.24718 3.8615C9.13057 3.76156 9.0385 3.6377 8.97767 3.49896L8.89093 3.66675C8.86076 3.62726 8.84009 3.58174 8.83044 3.53353C8.82079 3.48532 8.82241 3.43563 8.83517 3.3881C8.75404 3.33868 8.67827 3.28146 8.60902 3.21732C8.65496 3.20911 8.70241 3.21765 8.74222 3.24129C8.69885 3.08249 8.6431 3.08849 8.57495 3.10347C8.47508 3.08072 8.38051 3.04007 8.29613 2.98362H8.42314C8.35189 2.95965 8.26516 2.93568 8.24347 2.95965C8.20413 2.93638 8.16128 2.9192 8.11646 2.90871C8.13585 3.01392 8.18399 3.11219 8.25587 3.19335C8.18146 3.13266 8.10391 3.07566 8.02353 3.02257C7.93641 2.97303 7.84395 2.93284 7.74781 2.90272C7.54757 2.83682 7.33928 2.79653 7.12824 2.78287C7.12824 2.72295 7.30792 2.63306 7.24906 2.63606C7.00123 2.63606 6.80606 2.8428 6.86492 2.89973L6.76888 2.96564C6.73245 2.95203 6.69296 2.94791 6.65436 2.95369C6.61576 2.95947 6.5794 2.97496 6.54894 2.9986C6.49793 3.00484 6.4508 3.02816 6.41573 3.06452C6.44671 3.22032 6.17719 3.44503 6.19887 3.5469C6.26067 3.47598 6.31858 3.40197 6.37235 3.32518C6.35377 3.49896 6.37235 3.65177 6.26393 3.70271C6.31969 3.43604 5.98512 3.8645 6.1617 3.50795C5.85191 3.66076 6.19268 3.69671 6.00371 3.91843L5.86121 4.05326C5.77137 3.98734 5.94175 3.75364 5.88909 3.7836C5.87089 3.82354 5.85537 3.86457 5.84262 3.90645C5.82403 3.75064 6.08426 3.34017 6.29801 2.97763C6.11348 3.13951 5.95014 3.32264 5.81164 3.52293C5.65675 3.91543 5.50186 4.30794 5.39963 4.69444C5.28761 5.041 5.25277 5.40657 5.29739 5.76708V5.74311C5.29739 5.74311 5.32527 5.76109 5.36245 5.77907L5.33147 5.80004L5.39033 5.92888C5.28563 6.10327 5.20344 6.28942 5.1456 6.48317C5.22924 6.35733 5.22924 6.35733 5.30979 6.35433C5.39033 6.35134 5.45229 6.41725 5.39033 6.61201C5.31289 6.61201 5.33147 6.47718 5.25403 6.62699C5.3005 6.54309 5.34386 6.62699 5.34696 6.72586C5.285 6.8517 5.2943 7.07342 5.21995 7.08241C5.201 7.03209 5.201 6.97693 5.21995 6.92661C5.19207 6.86369 5.16728 7.19027 5.09293 7.00451C5.10422 7.08853 5.12182 7.17165 5.1456 7.25319C5.10843 7.41499 5.02788 7.1723 5 7.23522C5.05138 7.41628 5.147 7.58275 5.27881 7.7206C5.33147 7.78352 5.39033 7.84045 5.44919 7.90037C5.50412 7.94616 5.55396 7.99737 5.59789 8.05318C5.54584 8.06681 5.49584 8.08695 5.44919 8.1131C5.51114 8.33781 5.84571 8.46365 5.98202 8.68837C5.92006 8.68837 5.89219 8.58051 5.83333 8.52358C6.15977 9.18564 6.45033 9.8637 6.70383 10.555L6.95476 10.6419V10.8666C7.26189 11.5169 7.65442 12.1261 8.12265 12.6793C8.26205 12.8711 8.09787 12.8621 8.12265 12.9789C8.39526 13.4224 8.61831 13.4313 8.93429 13.8149C8.85065 13.7879 8.65859 13.7699 8.77631 13.9497C8.84136 13.9497 8.92191 13.9347 8.97147 14.0605L8.88783 14.0336C8.88783 14.1774 9.02104 14.2343 9.14185 14.462C9.39922 14.8145 9.74305 15.0997 10.1425 15.292C10.3748 15.6156 9.96899 15.3669 9.98447 15.4478C9.86056 15.1901 9.83887 15.31 9.75213 15.295C9.88225 15.3879 10.0217 15.5107 9.96899 15.6455C10.0702 15.7872 10.201 15.9066 10.3531 15.9961C10.254 15.9392 10.254 15.8283 10.3531 15.8732C10.4244 16.032 10.7465 16.3346 10.6102 16.4125C11.3069 17.2425 12.0872 18.0033 12.9398 18.6837C13.1412 18.7346 12.8407 18.5728 12.9615 18.5908C13.2465 18.6747 13.0978 18.7676 13.3333 18.8275H13.2063C13.3502 18.9259 13.5105 18.9999 13.6802 19.0462C13.8568 19.0911 14.0272 19.1331 14.1945 19.1661C14.1015 19.226 14.4082 19.3518 14.1325 19.2829C14.2781 19.3368 14.2936 19.8072 14.4671 19.7743C14.4516 19.6305 14.4423 19.4747 14.4392 19.3458C14.464 19.3159 14.6685 19.4207 14.6592 19.3878C14.7503 19.517 14.8754 19.6204 15.0216 19.6874C15.0495 19.7952 14.7831 19.7084 14.6499 19.6544C14.56 19.8102 15.1115 19.9001 14.8512 19.984C15.1858 20.0499 14.8264 19.8911 15.0371 19.8851L15.3252 19.975L15.1084 19.8791C15.3655 19.8791 15.4522 19.7743 15.7837 19.8791C15.9032 19.8309 16.0183 19.7727 16.1276 19.7054C16.1802 19.8312 16.3878 19.7054 16.5706 19.6724L16.4807 19.7833C16.7162 19.7144 16.8463 19.6874 17.0476 19.6395C16.9423 19.8222 16.7657 19.7353 16.7378 19.8582C16.8574 19.8303 16.9745 19.7932 17.0879 19.7473C17.0538 19.6844 17.2118 19.5316 16.9733 19.6095C17.0538 19.5106 17.1065 19.4237 17.1715 19.3278C17.2366 19.232 17.3171 19.1391 17.4039 18.9923C17.4349 18.8904 17.4813 18.7616 17.5371 18.6297C17.6362 18.5608 17.6455 18.6297 17.6424 18.6986C17.6393 18.7676 17.599 18.9533 17.6827 18.9174C17.7044 18.8724 17.723 18.8305 17.7384 18.7885L17.7632 18.7256V18.6927C17.7751 18.6486 17.7813 18.6033 17.7818 18.5578C17.7838 18.4806 17.7723 18.4036 17.7477 18.3301C17.6912 18.2099 17.6792 18.0744 17.7137 17.9466C17.8902 17.647 17.7694 17.62 17.8902 17.2874C17.9305 17.4223 18.0668 17.0927 18.166 17.0597L18.2031 17.2185C18.2031 17.1107 18.2868 17.0268 18.3332 17.0777C18.2155 17.0567 18.3921 16.6133 18.4231 16.3676H18.3146C18.3386 16.1511 18.3917 15.9386 18.4726 15.7354C18.5439 15.4358 18.4386 15.4807 18.4107 15.2291C18.4571 15.1958 18.5148 15.1807 18.5723 15.1868C18.6297 15.1929 18.6826 15.2198 18.7205 15.262C18.643 15.3219 18.6275 15.4568 18.5501 15.5616C18.5036 15.9421 18.6028 16.2897 18.4231 16.6253C18.5966 16.859 18.485 16.3766 18.6306 16.2358C18.6342 16.2411 18.6361 16.2474 18.6361 16.2538C18.6361 16.2601 18.6342 16.2664 18.6306 16.2717C18.6358 16.2571 18.6443 16.2438 18.6554 16.2328C18.6368 16.3676 18.5935 16.5863 18.6988 16.6642C18.7576 16.4425 18.5253 16.4275 18.7236 16.1998C18.7236 15.9841 18.9745 15.9002 19.0334 15.7744C18.9962 15.6156 18.8103 15.5437 18.9621 15.238L19.0426 15.4208C19.179 15.0583 18.9125 15.1871 19.0426 14.8515C18.9838 14.9654 18.9559 14.6957 18.8692 14.9175C18.8612 14.7235 18.9129 14.5316 19.0179 14.3662C19.0179 14.3122 18.9776 14.3422 18.9342 14.3182C18.7731 14.489 18.9094 14.6658 18.7205 14.7886L18.8103 14.9744C18.6895 15.1452 18.5718 15.1272 18.5563 14.9924C18.5563 15.0493 18.5563 15.1002 18.5067 15.1302C18.2837 15.0912 18.6647 14.9324 18.5067 14.8066L18.4726 14.9444C18.3147 14.9444 18.4726 14.5939 18.5346 14.4261C18.6678 14.2553 18.7546 14.0875 18.8444 14.1085L18.7948 14.3811C18.9249 14.2733 18.8661 14.0336 18.9249 13.8838C18.9426 13.8774 18.9578 13.8659 18.9683 13.8508C18.9637 13.8538 18.9583 13.8554 18.9528 13.8554C18.9473 13.8554 18.9419 13.8538 18.9373 13.8508C18.9527 13.8209 18.9777 13.7967 19.0086 13.7819C19.0404 13.625 19.085 13.4707 19.1418 13.3205H19.0457L19.0922 13.3534C19.0457 13.4733 18.9342 13.6201 18.9001 13.5062C18.9311 13.2066 19.1232 13.2066 19.2099 13.1737C19.3246 13.2785 19.117 13.4403 19.1139 13.5961C19.2812 13.5542 19.2254 13.3205 19.4237 13.0658C19.5352 13.2246 19.3091 13.3924 19.4237 13.5003C19.5259 13.2785 19.4423 13.2006 19.56 12.9549C19.6189 13.0089 19.56 13.2546 19.6405 13.2546L19.7366 13.1137C19.6127 13.4973 19.9441 13.1137 19.8791 13.4134C19.9875 13.2905 19.8233 13.1767 19.9844 13.0089C19.9008 13.0418 19.7304 13.1647 19.7366 12.9549L19.8543 12.7542C19.9565 12.6853 19.9348 13.0299 20.0433 12.907L20.068 12.6643C20.0216 12.6643 19.9627 12.7602 19.9255 12.6643C20.0154 12.5475 19.8264 12.3947 19.8109 12.2209C19.8543 12.101 19.8946 12.0052 19.9596 11.9782C19.9286 11.6276 20.0588 11.2351 20.0216 10.9145C20.0526 11.1363 20.1765 10.9505 20.2818 10.8516C20.2291 11.0823 20.3716 11.1273 20.4646 11.1512C20.4925 11.0104 20.3747 10.8786 20.3066 10.9355C20.4367 10.7228 20.2601 10.7468 20.415 10.573C20.5049 10.4561 20.5327 10.6778 20.6009 10.6479C20.6814 10.4022 20.4522 10.531 20.5637 10.2704C20.5792 10.2913 20.5637 10.3183 20.6102 10.3033C20.6443 10.2486 20.6624 10.1859 20.6624 10.122C20.6624 10.0581 20.6443 9.99547 20.6102 9.94078C20.8394 9.83591 20.7186 9.49734 20.889 9.57524C20.9417 9.20671 20.7744 9.60221 20.7341 9.51532C20.7276 9.33892 20.7809 9.16531 20.8859 9.02095C20.8642 9.10784 20.8859 9.20371 20.8425 9.27862L20.985 9.23667C21.1957 8.8172 20.7806 8.88612 21.0036 8.48463C21.0036 8.72133 21.078 8.5805 21.1368 8.71234C21.1368 8.63743 21.2483 8.31085 21.0996 8.49062C21.1414 8.36315 21.1932 8.23895 21.2545 8.11909C21.2598 7.97511 21.2356 7.83154 21.1833 7.69663C21.2402 7.52264 21.3329 7.36161 21.4559 7.22323C21.4745 6.72586 21.7223 6.3064 21.7099 5.77008L21.6944 5.80603C21.7843 5.40754 21.4962 5.95884 21.5705 5.54237C21.7161 5.62027 21.713 5.30567 21.8121 5.17983C21.9577 4.66448 21.7967 4.26599 21.9051 3.76562C21.9392 3.76562 21.9763 3.80458 21.9794 3.90045C22.0191 3.53344 22.0013 3.16275 21.9268 2.80085L21.9485 2.81583C21.9716 2.74143 21.9882 2.66525 21.998 2.58812C21.9858 2.50444 21.9651 2.42214 21.9361 2.34243C21.8751 2.15339 21.7808 1.97599 21.6573 1.8181C21.5187 1.64058 21.3443 1.49219 21.1446 1.38196C20.9449 1.27173 20.724 1.20196 20.4956 1.17692C20.573 1.17692 20.6102 1.11999 20.6752 1.114L20.4863 1.06306L20.3128 1.02111C20.1915 1.00666 20.0694 0.999659 19.9472 1.00014C19.7495 0.996798 19.5556 1.05337 19.3927 1.16193C19.2719 1.13174 19.144 1.14231 19.0303 1.1919C18.8972 1.25433 18.7506 1.28515 18.6028 1.28178C18.5656 1.28178 18.643 1.24283 18.674 1.22485C18.4535 1.27248 18.2401 1.34698 18.0389 1.44657C17.878 1.5758 17.7353 1.72488 17.6145 1.89001C17.4744 2.05428 17.3016 2.18977 17.1065 2.2885C16.9547 2.1357 17.3698 2.04881 17.2831 1.90499C17.2173 2.01534 17.1129 2.09931 16.9888 2.14169C17.0197 2.02184 16.9733 2.08776 16.9888 1.98888C16.8494 2.01585 16.7285 2.45329 16.7192 2.43232C16.7378 2.46827 16.7843 2.46228 16.871 2.39037C16.8432 2.56715 16.4404 2.73494 16.267 2.94766C16.3351 2.89373 16.5767 2.75291 16.5767 2.89074C16.267 3.08549 16.3165 3.3132 16.1926 3.53791C15.8828 3.68473 16.2453 3.2383 16.1028 3.18137C16.0222 3.18137 15.8425 3.18137 15.9076 3.04654C15.7154 3.22762 15.5524 3.4357 15.4243 3.66375L15.4026 3.6278C15.1455 3.89446 15.0092 4.29595 14.7366 4.45775L14.8822 4.37385C14.8605 4.43378 14.7242 4.55662 14.7211 4.67347C14.6747 4.61954 14.4671 4.75137 14.4888 4.64351C14.5445 4.90418 14.0365 5.33563 14.0861 5.60529C13.9776 5.64124 13.959 5.52739 13.9405 5.47345C14.1046 5.31466 14.1883 5.28469 14.2007 5.14088C14.0768 5.2817 13.9405 5.35061 13.9219 5.29668C13.9002 5.52439 13.6524 5.89592 13.7019 6.05771C13.5563 6.12063 13.4448 6.19853 13.3921 6.08767C13.0823 6.57605 13.8568 6.08767 13.4417 6.58804C13.166 6.74684 13.5037 6.27044 13.2156 6.56407L13.2465 6.49516C12.8252 6.5431 13.2868 6.79478 13.0731 7.03747C12.912 6.97455 13.1226 6.78579 12.8872 6.89665C12.7292 7.16031 12.8438 7.406 12.6146 7.61573L12.5898 7.53783C12.4814 7.69963 12.2242 7.98426 12.122 8.13707C12.091 8.13707 12.122 8.10711 12.122 8.07115C11.8587 8.32882 12.1034 8.23894 11.837 8.41572L11.8525 8.52957C12.0399 8.42027 12.1814 8.2505 12.2521 8.05018C12.218 8.25392 12.596 7.93632 12.6548 8.08913L12.6301 8.02921C13.1164 7.78052 13.5191 7.31012 13.9745 6.89665C14.0892 6.49815 14.4454 6.43823 14.6282 6.05771C14.5229 5.88993 14.6468 5.97382 14.8543 5.68618C14.7459 5.83899 14.9504 5.79405 15.0495 5.72513C15.0619 5.64238 15.0937 5.56347 15.1424 5.49443C15.2416 5.49443 15.6567 5.26372 15.6753 5.06298C15.8673 4.94912 15.6753 5.13788 15.6753 5.1978C15.8085 5.1978 15.7403 5.02403 15.8395 5.01504C15.8425 5.02111 15.844 5.02777 15.844 5.03451C15.844 5.04125 15.8425 5.04791 15.8395 5.05399C16.0439 4.85474 16.2635 4.67046 16.4962 4.50269C16.3847 4.34988 16.6914 4.22704 16.7564 4.08022C16.7564 4.15513 16.9423 4.00232 17.0414 3.96937L17.0848 3.75064C17.1437 3.5469 17.3295 3.65776 17.4689 3.46601H17.4039C17.5962 3.28267 17.8477 3.16848 18.1164 3.14242C18.3114 2.90832 18.5575 2.71873 18.837 2.58718C19.1166 2.45563 19.4226 2.38536 19.7335 2.38138H19.9163L20.0804 2.42033C20.1282 2.43212 20.1741 2.45027 20.2167 2.47427C20.2435 2.48565 20.2677 2.50193 20.288 2.52221C20.3247 2.56088 20.3541 2.6055 20.3747 2.65404C20.3964 2.70797 20.4553 2.8398 20.4987 2.98362C20.5699 3.05553 20.5792 2.90272 20.6752 2.95366C20.7104 3.0502 20.7313 3.15108 20.7372 3.25328C20.7744 3.13043 20.7124 3.1574 20.7682 3.16639C20.7434 3.09747 20.7093 3.03755 20.6814 2.97463C20.6814 2.97463 20.7031 2.97463 20.7279 2.95965C20.6838 2.89945 20.6503 2.83264 20.6288 2.7619C20.7062 2.85179 20.8549 2.85778 20.8332 3.04055C20.8115 3.04055 20.8022 3.00759 20.7806 2.96564C20.796 3.10646 20.8642 3.10646 20.8394 3.22032C20.8146 3.33417 20.8611 3.32219 20.8022 3.34616C20.8022 3.48698 20.7682 3.64578 20.7434 3.77761C20.9107 3.99633 20.7434 4.26899 20.7124 4.3379C20.5947 4.28097 20.6938 4.03828 20.573 3.93341L20.477 4.08622H20.5761L20.5327 4.30794L20.5172 4.29295C20.5544 4.32292 20.5885 4.35288 20.5513 4.40981C20.5513 4.40981 20.5079 4.43677 20.5048 4.40981C20.5048 4.46374 20.5327 4.51767 20.5451 4.5746C20.4491 4.47273 20.4987 4.71542 20.3809 4.67946C20.2632 5.19481 20.4522 5.37458 20.2106 5.81802C20.2818 5.7491 20.3716 5.99779 20.3221 6.13861C20.2756 6.21951 20.2446 6.23449 20.2106 6.17157L20.2322 6.37531C19.9999 6.57605 20.068 6.83073 19.9224 7.1663L19.876 7.13634C19.9237 7.31804 19.9073 7.50995 19.8295 7.68165L19.7366 7.62472C19.6065 7.84344 19.9039 7.85543 19.7738 8.10111C19.8822 8.12808 19.9813 7.97527 20.0835 7.97228C19.9565 8.00823 19.8667 8.2719 19.9627 8.24194C19.9379 8.51459 19.9101 8.42171 19.8791 8.43669L19.9039 8.60747C19.8481 8.79024 19.7459 8.63144 19.7025 8.54755C19.7706 8.74829 19.6405 8.91608 19.5662 9.10484L19.5383 9.01196L19.4454 9.26064C19.4721 9.47841 19.4265 9.69877 19.3153 9.88984L19.2161 9.70108C19.0953 9.82992 19.2409 9.79097 19.2533 9.83891C19.2533 10.0966 19.1418 10.1205 19.021 10.2224C19.0767 10.6299 18.5904 10.8936 18.6864 11.2771ZM6.55823 4.48471L6.52415 4.51168C6.52725 4.42778 6.52415 4.38584 6.55823 4.48471ZM6.0285 6.5431C6.00681 6.27643 6.06566 6.36932 6.10903 6.35433C6.07832 6.45799 6.05859 6.56441 6.05017 6.67193C6.05017 6.75582 6.05018 6.82773 6.0161 6.92361C6.04317 6.90138 6.07486 6.88503 6.10903 6.87567C6.10957 6.91205 6.10046 6.94795 6.08256 6.97995C6.06466 7.01195 6.03858 7.03897 6.00681 7.05844C5.92317 7.01949 5.93556 6.8577 5.97893 6.73485C6.0223 6.61201 6.08116 6.48317 6.0285 6.5431ZM8.56874 3.11845H8.52228H8.56874ZM6.95166 2.96265C6.93085 2.95306 6.9081 2.94809 6.88505 2.94809C6.86201 2.94809 6.83925 2.95306 6.81845 2.96265C6.83821 2.97527 6.86137 2.98201 6.88505 2.98201C6.90874 2.98201 6.9319 2.97527 6.95166 2.96265ZM5.4306 5.39256C5.35625 5.4405 5.34696 5.58731 5.34077 5.69218C5.37632 5.59396 5.4063 5.49393 5.4306 5.39256ZM14.4981 19.235C14.4082 19.235 14.2286 19.202 14.3494 19.3069C14.4361 19.3069 14.5383 19.4297 14.6282 19.3788C14.5893 19.3272 14.5457 19.2791 14.4981 19.235ZM18.7638 13.6561C18.8165 13.686 18.8599 13.7639 18.9156 13.7429V13.7609C18.9435 13.7609 18.9652 13.7399 18.9714 13.7609C19.0069 13.7129 19.0302 13.6575 19.0396 13.5991C18.8444 13.5122 18.8568 13.3744 18.7638 13.6561Z" fill="#6FC4C3"/>
<path d="M18.4521 16.1733C18.4615 16.1485 18.4691 16.1233 18.4751 16.0976L18.4521 16.1733Z" fill="#6FC4C3"/>
<path d="M18.8457 13.2665C18.8457 13.2665 18.7899 13.3233 18.7342 13.4084C18.767 13.3958 18.8031 13.3579 18.8457 13.2665Z" fill="#6FC4C3"/>
<path d="M10.16 6.21719L10.101 6.15728L10.1272 6.32753C10.1734 6.38895 10.2356 6.4376 10.3076 6.46859C10.3796 6.49958 10.4588 6.51182 10.5372 6.50408C10.3273 6.34014 10.301 6.18881 10.1108 5.9366L10.16 6.21719Z" fill="#6FC4C3"/>
<path d="M10.698 5.76951C10.7176 5.71596 10.7243 5.65883 10.7177 5.60242H10.6422L10.698 5.76951Z" fill="#6FC4C3"/>
<path d="M8.96606 2.87851L9.11696 3.12127C9.22192 3.14964 9.07103 2.84698 8.96606 2.87851Z" fill="#6FC4C3"/>
<path d="M8.87747 4.45169L9.01524 4.51789C8.989 4.39179 8.88404 4.26568 8.80859 4.28775C8.9234 4.39179 8.78563 4.3445 8.87747 4.45169Z" fill="#6FC4C3"/>
<path d="M8.41498 2.3268C8.26082 2.36148 8.20506 2.09981 8.08698 2.15025C8.1657 2.17232 8.32314 2.40877 8.41498 2.3268Z" fill="#6FC4C3"/>
<path d="M7.74259 3.31359C7.71307 3.44916 7.88363 3.45546 7.97219 3.58787C7.89347 3.49329 7.83771 3.29153 7.74259 3.31359Z" fill="#6FC4C3"/>
<path d="M6.68969 1.85074C6.70609 1.76562 6.87338 1.77823 7.04067 1.85074C6.98181 1.87283 6.91994 1.88664 6.85698 1.89173C6.95473 1.88586 7.05287 1.89222 7.14892 1.91064C7.21452 1.92641 7.28996 1.94217 7.37852 1.97054C7.27997 1.88405 7.16962 1.81087 7.05051 1.75301C6.94226 1.69311 6.86026 1.63951 6.8865 1.59222C6.67657 1.63636 6.4732 1.77193 6.68969 1.85074Z" fill="#6FC4C3"/>
<path d="M7.45392 3.0929C7.53263 3.19063 7.53591 3.29467 7.64743 3.40816C7.67049 3.36031 7.67348 3.30576 7.65577 3.25584C7.63805 3.20593 7.60099 3.16451 7.55231 3.14019L7.67039 3.10235C7.58839 2.93211 7.62775 3.22846 7.45392 3.0929Z" fill="#6FC4C3"/>
<path d="M5.57446 1.98632L5.70566 1.94533C5.81481 1.82422 5.95182 1.72923 6.10583 1.6679C6.23721 1.62063 6.36265 1.55929 6.47976 1.48505C6.27282 1.50705 6.07406 1.57505 5.89919 1.68366C5.76882 1.76001 5.65786 1.86342 5.57446 1.98632Z" fill="#6FC4C3"/>
<path d="M7.05373 2.61684L6.96844 2.73348C7.10293 2.83122 6.96845 2.68304 7.04717 2.68304C7.1259 2.68304 7.13573 2.77132 7.18165 2.76501C7.00124 2.68304 7.23742 2.65152 7.05373 2.61684Z" fill="#6FC4C3"/>
<path d="M6.59784 2.65154C6.55087 2.67469 6.50776 2.70444 6.46991 2.73981C6.51902 2.77801 6.56116 2.82383 6.59456 2.87537C6.71266 2.81232 6.59784 2.78395 6.59784 2.65154Z" fill="#6FC4C3"/>
<path d="M6.38135 2.61683L6.35181 2.59792C6.2997 2.69521 6.27482 2.80385 6.27964 2.91318C6.30608 2.81218 6.34008 2.71314 6.38135 2.61683Z" fill="#6FC4C3"/>
<path d="M4.10166 6.3149C4.16398 6.35904 4.23613 6.09106 4.17054 6.20771C4.10822 6.15096 4.05246 6.52928 4.10166 6.3149Z" fill="#6FC4C3"/>
<path d="M5.3612 5.49837C5.31384 5.68053 5.31384 5.87108 5.3612 6.05324C5.35464 5.91452 5.44977 5.47945 5.3612 5.49837Z" fill="#6FC4C3"/>
<path d="M5.38743 6.08476L5.37103 6.04378C5.3733 6.05843 5.3789 6.07242 5.38743 6.08476Z" fill="#6FC4C3"/>
<path d="M8.41827 11.1069C8.427 11.1205 8.4395 11.1314 8.45437 11.1385L8.41827 11.1069Z" fill="#6FC4C3"/>
<path d="M8.30678 11.0029C8.2707 10.9052 8.13294 10.757 8.0575 10.7633C8.16608 10.8886 8.2869 11.0037 8.4183 11.1069C8.37238 11.0533 8.3691 10.9588 8.30678 11.0029Z" fill="#6FC4C3"/>
<path d="M9.05137 12.2135C8.97592 12.1725 8.93656 12.0748 8.90047 12.1284C8.86439 12.182 9.04153 12.2766 9.05137 12.2135Z" fill="#6FC4C3"/>
<path d="M15.3557 19.988C15.5591 20.0195 15.6837 19.988 15.6181 19.906C15.3984 19.9092 15.5197 19.9564 15.3557 19.988Z" fill="#6FC4C3"/>
<path d="M15.8739 19.8619L15.9067 19.9028C15.9559 19.9218 16.0051 19.9312 16.0576 19.947C15.9939 19.9237 15.9325 19.8953 15.8739 19.8619Z" fill="#6FC4C3"/>
<path d="M17.4058 19.2786C17.3987 19.3152 17.383 19.3497 17.3599 19.3795C17.4058 19.3007 17.4616 19.2282 17.4058 19.2786Z" fill="#6FC4C3"/>
<path d="M17.3139 19.4173L17.35 19.3795L17.3139 19.4173Z" fill="#6FC4C3"/>
<path d="M17.2024 19.4741L17.2188 19.5245L17.3139 19.4173C17.3012 19.4345 17.2845 19.4485 17.2651 19.4584C17.2458 19.4682 17.2243 19.4736 17.2024 19.4741Z" fill="#6FC4C3"/>
<path d="M17.6551 18.8152C17.5698 18.9035 17.4845 18.9823 17.4058 19.0579C17.4017 19.0767 17.4017 19.096 17.4058 19.1147C17.3795 19.1651 17.4058 19.162 17.4419 19.1368C17.4779 19.1115 17.6255 18.8625 17.6223 19.1368L17.6551 18.8152Z" fill="#6FC4C3"/>
<path d="M17.8748 18.1657C17.983 18.0176 17.8748 17.7086 18.0585 17.6739C18.1569 17.1821 17.7567 17.6739 17.9043 17.138C17.6288 17.6046 18.1044 17.4974 17.8453 17.9104C18.0257 17.7307 17.865 18.0806 17.8748 18.1657Z" fill="#6FC4C3"/>
<path d="M17.5829 18.1468C17.6485 18.2036 17.737 17.9986 17.7108 17.9167C17.678 17.9734 17.5304 18.0365 17.5829 18.1468Z" fill="#6FC4C3"/>
<path d="M18.1569 17.2389L18.2717 17.1191L18.2356 17.0655L18.1569 17.2389Z" fill="#6FC4C3"/>
<path d="M18.3898 16.7155L18.4259 16.8857C18.416 16.8258 18.5013 16.6241 18.3898 16.7155Z" fill="#6FC4C3"/>
<path d="M18.7933 16.0062C18.872 15.8864 18.7047 15.6909 18.6489 15.9872L18.6784 15.9273C18.7178 15.9557 18.8359 15.8328 18.7933 16.0062Z" fill="#6FC4C3"/>
<path d="M19.0983 14.1587C19.0589 14.247 19.0491 14.3636 19.0983 14.3573L19.1442 14.0988L19.0983 14.1587Z" fill="#6FC4C3"/>
<path d="M18.5702 14.0263C18.4128 14.0673 18.498 14.2596 18.3964 14.4078C18.4732 14.2894 18.5318 14.1609 18.5702 14.0263Z" fill="#6FC4C3"/>
<path d="M19.3738 13.938C19.4033 14.0231 19.3312 14.1146 19.3016 14.1745C19.3902 14.1682 19.4328 13.9916 19.3738 13.938Z" fill="#6FC4C3"/>
<path d="M19.4755 13.5313C19.5542 13.4683 19.5411 13.5723 19.5969 13.5313C19.6521 13.4681 19.6929 13.3945 19.7166 13.3152C19.7403 13.2359 19.7465 13.1527 19.7347 13.071C19.6625 13.0994 19.4919 13.1152 19.4526 13.0237C19.4034 13.3138 19.5903 13.5313 19.3607 13.607L19.505 13.9223C19.6166 13.6921 19.4066 13.6795 19.4755 13.5313Z" fill="#6FC4C3"/>
<path d="M18.8523 13.9475L18.9802 13.8277C18.8949 13.8277 18.9212 13.7173 18.9277 13.6291C18.7506 13.6165 18.872 13.8624 18.8523 13.9475Z" fill="#6FC4C3"/>
<path d="M19.8986 11.9645L19.9642 11.6366L19.9216 11.7375L19.8986 11.9645Z" fill="#6FC4C3"/>
<path d="M20.02 11.7785L20.0692 11.7848L20.0627 11.5168L20.02 11.7785Z" fill="#6FC4C3"/>
<path d="M20.184 11.4632L20.1643 11.4979L20.1447 11.6965L20.184 11.4632Z" fill="#6FC4C3"/>
<path d="M20.4267 10.8138L20.3381 10.8516C20.3381 10.9399 20.2037 11.0754 20.3021 11.088C20.3007 11.0363 20.3111 10.985 20.3327 10.9376C20.3542 10.8902 20.3863 10.8479 20.4267 10.8138Z" fill="#6FC4C3"/>
<path d="M19.295 8.14345C19.3246 8.21281 19.377 8.18759 19.4262 8.16552L19.3311 8.04572C19.3311 8.07409 19.3278 8.12768 19.295 8.14345Z" fill="#6FC4C3"/>
<path d="M19.5936 7.81558L19.5181 7.54761C19.4263 7.80928 19.5181 7.86287 19.4821 8.11508C19.5509 8.02681 19.4821 7.86287 19.5608 7.74622L19.5936 7.81558Z" fill="#6FC4C3"/>
<path d="M20.5547 3.18118C20.6432 3.20324 20.6334 3.1528 20.6858 3.3262C20.6574 3.09594 20.6409 2.86445 20.6367 2.63261C20.5809 2.67675 20.4694 2.5002 20.5022 2.59163C20.535 2.68306 20.5448 2.77764 20.5678 2.87222L20.5022 2.83123C20.4366 3.02985 20.6039 2.96364 20.5547 3.18118Z" fill="#6FC4C3"/>
<path d="M12.1149 6.78151C12.0985 6.73422 12.0428 6.74052 11.9837 6.74998C11.905 6.92968 12.1313 6.74683 12.1149 6.78151Z" fill="#6FC4C3"/>
<path d="M10.5494 10.0559C10.6858 10.0986 10.5672 10.0132 10.5079 9.91631L10.5494 10.0559Z" fill="#242424"/>
<path d="M10.508 9.91631L10.4753 9.81946C10.4755 9.8542 10.4869 9.88804 10.508 9.91631Z" fill="#242424"/>
<path d="M10.1345 9.0361C10.3123 9.19277 10.3301 9.47478 10.5079 9.546C10.4753 9.31526 10.2856 9.02186 10.1345 9.0361Z" fill="#242424"/>
<path d="M10.2145 9.36368L10.2916 9.35798L10.1049 9.23549L10.2145 9.36368Z" fill="#242424"/>
<path d="M10.2205 9.51181L10.2323 9.47763L10.0308 9.2412L10.2205 9.51181Z" fill="#242424"/>
<path d="M9.81728 8.36099L9.94474 8.5433C9.95956 8.76834 9.76393 8.48348 9.77579 8.6316C9.90917 8.87373 9.9981 8.6316 10.1344 8.9421C10.2026 8.87658 9.86768 8.46069 10.0188 8.4436C9.9151 8.17013 9.93881 8.46923 9.81728 8.36099Z" fill="#242424"/>
<path d="M5.13116 10.1499C5.13116 10.1641 5.13116 10.1727 5.13116 10.1841C5.13116 10.1955 5.14597 10.1499 5.13116 10.1499Z" fill="#242424"/>
<path d="M7.04297 13.1979C7.05666 13.2458 7.07451 13.2925 7.09632 13.3375C7.10088 13.3149 7.10088 13.2917 7.09632 13.2691L7.04297 13.1979Z" fill="#242424"/>
<path d="M3.97219 8.32964L3.9959 8.20715C3.97251 8.24376 3.96406 8.2874 3.97219 8.32964Z" fill="#242424"/>
<path d="M17.5713 16.5365C17.579 16.5496 17.5903 16.5604 17.6039 16.5678L17.5802 16.5194L17.5713 16.5365Z" fill="#242424"/>
<path d="M9.49426 16.3684C9.5288 16.4099 9.56644 16.4489 9.60689 16.4852C9.57803 16.4393 9.5397 16.3995 9.49426 16.3684Z" fill="#242424"/>
<path d="M4.08484 7.12184V7.17311C4.09466 7.15294 4.10259 7.13197 4.10855 7.11044L4.08484 7.12184Z" fill="#242424"/>
<path d="M6.59241 12.1097C6.60619 12.1511 6.62406 12.1912 6.64576 12.2294C6.63159 12.1881 6.61374 12.1481 6.59241 12.1097Z" fill="#242424"/>
<path d="M8.027 5.44687C8.00212 5.39563 7.96048 5.35361 7.90845 5.32722C7.91799 5.35424 7.93354 5.37894 7.95401 5.3996C7.97448 5.42026 7.99939 5.43639 8.027 5.44687Z" fill="#242424"/>
<path d="M7.04596 4.49259C7.05782 4.47834 7.05189 4.47834 7.04596 4.49259V4.49259Z" fill="#242424"/>
<path d="M6.26935 3.97699H6.28417C6.28121 3.96559 6.27528 3.9599 6.26935 3.97699Z" fill="#242424"/>
<path d="M7.90849 5.33292C7.87588 5.21612 7.98556 5.07654 7.73954 5.09363V5.13352C7.71286 5.03951 7.57059 4.99393 7.49352 4.92557C7.4906 4.94445 7.4906 4.96365 7.49352 4.98254C7.52613 5.02242 7.56762 5.07369 7.62691 5.1563C7.68619 5.23891 7.79586 5.27025 7.90849 5.33292Z" fill="#242424"/>
<path d="M5.0926 10.1556C5.11929 10.1271 5.05999 10.0616 5.0926 10.1556V10.1556Z" fill="#242424"/>
<path d="M4.42273 9.24405C4.43755 9.27823 4.45533 9.30957 4.47015 9.34375C4.46121 9.30788 4.4451 9.27402 4.42273 9.24405Z" fill="#242424"/>
<path d="M4.67468 5.54086V5.55511C4.67468 5.55511 4.67763 5.55226 4.67468 5.54086Z" fill="#242424"/>
<path d="M4.5265 9.4349L4.47906 9.34659C4.48699 9.37936 4.50329 9.40971 4.5265 9.4349Z" fill="#242424"/>
<path d="M4.22122 6.65466C4.21992 6.65683 4.21924 6.65928 4.21924 6.66178C4.21924 6.66428 4.21992 6.66674 4.22122 6.66891V6.65466Z" fill="#242424"/>
<path d="M16.2345 2.90876C16.3086 2.84609 16.3827 2.85749 16.4687 2.8233C16.5754 2.61536 16.1071 3.03695 16.2997 2.79197C16.2339 2.83258 16.1758 2.88363 16.1278 2.94294L16.2997 2.97143C16.4242 2.8404 16.1782 2.99707 16.2345 2.90876Z" fill="#242424"/>
<path d="M18.1641 15.6278L18.1434 15.6591C18.2026 15.6591 18.2115 15.679 18.2856 15.5565C18.2441 15.4198 18.0633 15.5565 18.0426 15.3315C18.0343 15.3822 18.0151 15.4307 17.9863 15.4739C18.087 15.417 18.1345 15.5224 18.1641 15.6278Z" fill="#242424"/>
<path d="M17.9863 15.4739L17.9477 15.491C17.9391 15.5175 17.9261 15.5426 17.9092 15.5651C17.9416 15.5406 17.968 15.5095 17.9863 15.4739Z" fill="#242424"/>
<path d="M19.6194 2.11687L19.6906 2.13966L19.7736 2.17384C19.7494 2.15643 19.7236 2.14117 19.6965 2.12826C19.6715 2.12122 19.6455 2.11739 19.6194 2.11687Z" fill="#242424"/>
<path d="M8.08924 17.0492L7.98846 16.978C8.0132 17.0115 8.04854 17.0365 8.08924 17.0492Z" fill="#242424"/>
<path d="M17.3727 17.4679C17.3515 17.4943 17.3336 17.523 17.3194 17.5534L17.3016 17.6161L17.3727 17.4679Z" fill="#242424"/>
<path d="M18.3538 10.8592C18.4694 10.9617 18.3538 10.8051 18.4753 10.6911L18.4397 10.5459C18.3998 10.6471 18.371 10.7522 18.3538 10.8592Z" fill="#242424"/>
<path d="M19.243 7.15602L19.2726 7.09904C19.2592 7.11612 19.2491 7.13543 19.243 7.15602Z" fill="#242424"/>
<path d="M17.6691 16.1946L17.4883 16.6646L17.5713 16.5365C17.5327 16.4482 17.7224 16.2858 17.6691 16.1946Z" fill="#242424"/>
<path d="M17.6602 12.8532L17.5654 12.8703C17.5831 13.3916 17.1593 13.8559 17.269 14.2946C16.7917 14.776 17.3905 14.7504 16.9577 15.1919H17.0022C16.6791 16.0465 16.3086 16.9011 15.9559 17.7556C15.781 18.1829 15.6091 18.6102 15.449 19.0261L15.2208 19.6528L15.117 19.9747L15.0696 20.1285L15.0429 20.2054C15.0429 20.2054 15.0429 20.2054 15.0429 20.2254L14.9896 20.1997C14.9762 20.2079 14.9609 20.2128 14.9451 20.214C14.8656 20.2416 14.7831 20.2607 14.6991 20.271C14.4791 20.2855 14.2581 20.2614 14.047 20.1997C13.5001 20.0279 12.99 19.7625 12.5413 19.4164C12.0303 19.0451 11.5551 18.6304 11.1215 18.1772C10.6652 17.7135 10.2386 17.2236 9.844 16.7102C9.64541 16.545 9.63355 16.7415 9.44682 16.6077C9.39346 16.5308 9.25415 16.3684 9.31343 16.3228C9.45867 16.4424 9.44681 16.3228 9.5061 16.357C9.31047 16.1263 9.15337 15.7588 8.91329 15.5936L8.9696 15.8271C8.87851 15.7456 8.80323 15.6492 8.7473 15.5423C8.80954 15.5423 8.80954 15.3799 8.87772 15.434C8.35604 15.0951 8.7058 15.0153 8.35308 14.6706C8.12781 14.702 7.65949 14.2775 7.31863 14.0154L7.24453 13.8132C7.39866 14.0468 7.36605 13.7363 7.54093 14.0297C7.4283 13.7619 7.20895 13.5796 7.09336 13.3289C7.07854 13.4001 7.01629 13.4201 6.93923 13.3289C6.87106 13.1723 6.93923 13.1124 6.85624 12.9444L7.01036 13.0726C7.01036 12.9273 6.86513 12.8846 6.79103 12.7877C6.84142 12.7136 6.7021 12.463 6.81177 12.4601C6.58058 12.2949 6.58947 12.1752 6.38495 11.9815C6.45609 12.2664 6.25157 11.9815 6.20711 12.03L6.40273 12.2949C6.216 11.8733 6.49462 12.4174 6.59836 12.3177C6.65171 12.537 6.24267 12.1753 6.45016 12.4772C6.27032 12.2077 6.07229 11.9498 5.85735 11.7052C6.01741 11.9217 5.75064 11.7052 5.78621 11.8477C5.60837 11.5628 5.78621 11.7537 5.81289 11.6198C5.71211 11.4631 5.75361 11.3634 5.57576 11.2637C5.46609 10.9788 5.69136 11.2637 5.66765 11.0956C5.80399 11.1469 5.97887 11.8733 6.21303 11.6654C6.29603 11.7992 6.49462 11.9046 6.60429 12.1012C6.55885 11.8656 6.45741 11.6434 6.30788 11.4517L6.14783 11.5229C6.04705 11.3662 5.92552 11.389 5.87513 11.2665C5.9522 11.3036 5.95516 11.1583 5.87513 11.0358C5.87513 11.0842 5.90774 11.1327 5.87513 11.1355C5.72989 10.9019 5.60541 10.9247 5.41571 10.6541C5.47459 10.8406 5.51917 11.031 5.54909 11.2238C5.40681 11.2238 5.44238 11.0785 5.35642 10.9561C5.3831 10.9561 5.40088 10.9931 5.40088 10.9418L5.27047 10.8336C5.14894 10.5145 5.44831 10.788 5.36235 10.5174C5.36235 10.3037 5.18155 10.3151 5.1608 10.1613C5.15501 10.1743 5.15006 10.1876 5.14598 10.2012C5.13557 10.179 5.12666 10.1561 5.1193 10.1328C5.01852 9.98468 4.93553 9.81091 4.8229 9.80807C4.84957 9.77103 4.73694 9.67418 4.68358 9.63715C4.63023 9.60012 4.38718 9.40357 4.45239 9.20701C4.3605 9.00476 4.31901 8.831 4.38718 8.85094C4.36527 8.80369 4.34646 8.75517 4.33086 8.70566C4.31604 8.66008 4.30715 8.61735 4.29529 8.57177H4.41978C4.31604 8.36383 4.25973 8.40371 4.12338 8.24419C4.13323 8.13809 4.13422 8.0314 4.12634 7.92514C4.13476 7.80469 4.13476 7.68383 4.12634 7.56337C4.13032 7.52263 4.13032 7.48162 4.12634 7.44088L4.05817 7.56622C4.10263 7.32124 4.03446 7.34118 4.05817 7.17881C4.04038 7.21015 4.03149 7.21584 4.05817 7.12754C4.05817 7.09905 4.05817 7.07057 4.08484 7.03638C4.08484 7.03638 4.08484 7.08196 4.08484 7.11614L4.13227 7.09335C4.29233 6.92244 4.13227 6.78286 4.20933 6.58346C4.21225 6.60902 4.21225 6.63481 4.20933 6.66037C4.26565 6.54927 4.47313 6.42393 4.38421 6.35272C4.40496 6.32993 4.38421 6.28435 4.38421 6.23878L4.42571 6.16186C4.42571 6.1932 4.39607 6.21883 4.38421 6.23878C4.36643 6.17895 4.33975 6.11913 4.36643 6.11913C4.402 6.02513 4.43757 5.93113 4.47906 5.83427C4.50962 5.77562 4.52775 5.71171 4.53241 5.64627L4.59466 5.61493C4.63023 5.51523 4.65691 5.52378 4.6658 5.54087C4.78115 5.43343 4.86323 5.29735 4.90292 5.14776C4.9195 5.07684 4.95268 5.01048 4.99993 4.95372C5.04718 4.89696 5.10726 4.85129 5.17561 4.82017C5.17561 4.72047 5.0363 4.79169 4.99481 4.77744C5.01268 4.64375 5.07267 4.51851 5.16672 4.41852C5.29753 4.40807 5.42912 4.42558 5.55205 4.4698C5.67061 4.52107 5.71804 4.60938 5.67654 4.67774C5.76843 4.70908 5.76546 4.67774 5.74472 4.64356C5.72397 4.60938 5.68544 4.54956 5.74472 4.54101H5.77139C5.69978 4.49775 5.63659 4.4428 5.58465 4.37864C5.58465 4.33306 5.63208 4.30458 5.71211 4.30458C5.78528 4.30285 5.85738 4.32166 5.91959 4.3587C5.88481 4.38787 5.85213 4.41927 5.82178 4.45271C5.92119 4.47819 6.02692 4.46702 6.11819 4.42137C6.19756 4.37047 6.28967 4.34096 6.38495 4.33591C6.59836 4.50968 6.38495 4.52392 6.38495 4.64356L6.61911 4.78029L6.55983 4.85151C6.71396 4.93127 6.80585 4.89424 6.95701 5.08794C6.76731 5.03382 7.15857 5.39274 6.89773 5.31298C6.97183 5.42123 7.13189 5.32722 7.08447 5.46111C7.22081 5.46111 7.04297 5.33577 7.01333 5.27595C7.0815 5.13352 7.2712 5.43832 7.40755 5.53517C7.36013 5.59214 7.26824 5.51238 7.35716 5.6833C7.40854 5.68253 7.45818 5.70122 7.49534 5.73533C7.5325 5.76945 7.5542 5.81624 7.55575 5.86561C7.62985 5.80579 7.70988 6.01943 7.77509 6.10774C7.71284 6.00234 7.65356 5.82288 7.77509 5.83712C7.89986 5.90332 8.00261 6.00207 8.0715 6.12198C8.05371 6.07356 8.03593 6.02513 8.01518 5.9767C8.24934 6.04792 8.12485 6.2872 8.31158 6.46951C8.22729 6.41281 8.13803 6.36325 8.04482 6.32138C8.20415 6.43014 8.35566 6.5491 8.49832 6.67746V6.93098C8.57242 6.93098 8.6317 7.13608 8.71173 7.08766C8.80658 7.34688 8.49536 6.96517 8.41533 6.98226C8.55464 7.29276 8.71173 7.12469 8.75619 7.47222L8.62281 7.42664C8.6732 7.52064 8.83622 7.67732 8.80362 7.7115C8.83326 7.69441 8.80362 7.65738 8.75619 7.6004C8.95775 7.55767 9.13263 7.96218 9.28379 7.83114L9.21562 7.69441C9.36975 7.87387 9.57131 7.95363 9.60095 8.14164C9.63059 8.32964 9.43496 8.1217 9.35197 8.07612C9.44978 8.26982 9.62762 8.12455 9.74322 8.36098C9.70172 8.2271 9.77583 8.21855 9.86179 8.26698C9.79658 8.12739 9.66912 7.83399 9.62762 7.9223V7.97927C9.57723 7.97927 9.52092 7.92799 9.47646 7.9052C9.36679 7.72859 9.50313 7.77987 9.51499 7.72574C9.36086 7.41525 9.32826 7.79696 9.17116 7.52634V7.47222C9.04667 7.36967 8.91329 7.18736 8.7888 7.20445C8.82436 7.01929 8.54871 6.93383 8.52499 6.77146C8.74433 6.5977 8.8214 7.22154 9.03481 7.2956C8.99332 7.12754 9.2008 7.2956 9.29268 7.33548L8.90439 6.95377C8.90439 6.89965 8.94293 6.70025 8.80362 6.66891L8.8214 6.70594C8.67616 6.54927 8.61392 6.65752 8.54278 6.48945C8.54278 6.45242 8.61392 6.47521 8.63763 6.47521C8.56649 6.32423 8.50425 6.39545 8.41829 6.32138C8.33826 6.17326 8.56353 6.32138 8.50425 6.19605C8.29973 6.10204 8.34123 5.93398 8.23156 5.80294C8.14856 5.94822 7.63875 5.41553 7.75434 5.7773C7.64467 5.69754 7.53204 5.61778 7.41348 5.54657C7.38976 5.40414 7.76916 5.60924 7.79584 5.44402L7.99739 5.69754C8.05667 5.62063 7.92626 5.50384 7.77806 5.3785C7.62985 5.25316 7.46387 5.12213 7.48165 4.9683C7.35809 4.8629 7.25737 4.73513 7.18525 4.59229L7.10818 4.7575C7.07413 4.71859 7.04998 4.67259 7.03763 4.62314C7.02528 4.5737 7.02508 4.52218 7.03704 4.47265C6.9518 4.42355 6.87055 4.36832 6.79399 4.30743C6.84282 4.30167 6.8922 4.31277 6.9333 4.33876C6.88291 4.17924 6.82363 4.18209 6.75545 4.19633C6.64988 4.16846 6.54976 4.1242 6.45905 4.0653H6.58651C6.51537 4.04251 6.42348 4.01402 6.40273 4.03681C6.36054 4.01398 6.3158 3.99582 6.26935 3.98269C6.2956 4.08895 6.34968 4.18701 6.42644 4.26755C6.09549 3.9978 5.67476 3.85122 5.24082 3.8545C5.24082 3.79753 5.43645 3.70922 5.37421 3.71207C5.10744 3.71207 4.89996 3.92856 4.96221 3.97984L4.8555 4.0482C4.81811 4.03742 4.77852 4.03568 4.74025 4.04314C4.70199 4.05059 4.66623 4.06701 4.63616 4.09093C4.58727 4.09852 4.54241 4.12158 4.5087 4.15645C4.54131 4.29603 4.2538 4.54386 4.27454 4.64641C4.33086 4.58374 4.3931 4.49828 4.45831 4.41282C4.43164 4.58944 4.45831 4.74611 4.33382 4.80023C4.39903 4.51537 4.05224 4.9797 4.23898 4.60653C3.94257 4.7746 4.26269 4.80023 4.07002 5.03382L3.92479 5.1791C3.84179 5.11643 4.01371 4.8743 3.96035 4.89424C3.907 4.91418 3.92479 4.9797 3.90997 5.02242C3.90997 4.86575 4.17673 4.42422 4.3931 4.07099C4.20296 4.23934 4.03655 4.43087 3.89811 4.64071C3.72718 5.04172 3.57974 5.45161 3.45647 5.86846C3.33785 6.23679 3.29654 6.6241 3.33494 7.0079V6.97941C3.33494 6.99365 3.35865 7.0022 3.39718 7.01644L3.36754 7.03923L3.4209 7.17311C3.30206 7.36177 3.2075 7.5636 3.13931 7.77417C3.21934 7.64028 3.21934 7.64028 3.29641 7.63459C3.39422 7.67732 3.43275 7.7001 3.37051 7.9052C3.29937 7.9052 3.31715 7.76562 3.24009 7.92514C3.28455 7.83399 3.32308 7.92514 3.32605 8.02769C3.26677 8.15873 3.27862 8.38662 3.20748 8.39801C3.18939 8.34528 3.18939 8.28837 3.20748 8.23564C3.18377 8.17012 3.16303 8.5205 3.08596 8.3154C3.10078 8.40086 3.11856 8.48917 3.13931 8.57462C3.10967 8.73699 3.02668 8.48632 3 8.55468C3.05337 8.74032 3.14848 8.91244 3.27862 9.05889C3.33494 9.1244 3.39422 9.18422 3.45054 9.24404C3.50635 9.29616 3.55788 9.35235 3.60467 9.41211C3.55472 9.42329 3.50677 9.44153 3.46239 9.46623C3.53353 9.70267 3.86847 9.84795 4.01074 10.0844C3.9485 10.0701 3.91589 9.97044 3.85661 9.90777C4.20044 10.6826 4.5502 11.2836 4.80807 12.0499L5.06002 12.1525V12.3832C5.39495 13.158 5.83363 13.6565 6.30195 14.3088C6.44719 14.5111 6.30195 14.494 6.30195 14.6136C6.59836 15.0837 6.81474 15.1036 7.14671 15.511C7.06372 15.4796 6.87402 15.454 6.99851 15.6448C7.06075 15.6448 7.14078 15.6448 7.1971 15.7673L7.11411 15.736C7.11411 15.8841 7.25638 15.9496 7.3868 16.1889C7.65903 16.5586 8.01469 16.8644 8.42718 17.0834C8.67616 17.4252 8.25527 17.1517 8.27602 17.2344C8.13967 16.9495 8.12485 17.0891 8.03889 17.0691C8.17227 17.1688 8.31455 17.3027 8.27009 17.4338C8.37838 17.5834 8.51516 17.7119 8.6732 17.8126C8.57242 17.75 8.56353 17.636 8.6732 17.6873C8.75026 17.8554 9.09113 18.1772 8.9696 18.257C9.70871 19.1325 10.5368 19.9351 11.4416 20.6527C11.6521 20.7153 11.3379 20.5387 11.4594 20.5644C11.7558 20.6584 11.6106 20.7438 11.8536 20.815H11.7262C11.8773 20.9175 12.0444 20.9964 12.2212 21.0486C12.4049 21.0999 12.5828 21.1483 12.7606 21.1882C12.6628 21.2423 12.9859 21.3791 12.6954 21.2993C12.8525 21.3591 12.8851 21.812 13.063 21.7864C13.0422 21.6468 13.0274 21.5016 13.0185 21.3734C13.0422 21.3449 13.2615 21.4503 13.2467 21.4189C13.3514 21.5415 13.4844 21.6391 13.635 21.7038C13.6647 21.8064 13.389 21.7038 13.2467 21.6611C13.1608 21.812 13.7328 21.9089 13.4631 21.983C13.8129 22.0513 13.4394 21.8918 13.6558 21.8918L13.9522 21.983L13.7269 21.889C13.9937 21.889 14.0826 21.7921 14.4294 21.889C14.5524 21.8422 14.6714 21.786 14.7851 21.7209C14.8384 21.8405 15.0548 21.7209 15.2475 21.681C15.2149 21.718 15.1823 21.7579 15.1497 21.7921C15.4105 21.7152 15.4935 21.7067 15.7069 21.6525C15.5794 21.8377 15.449 21.738 15.4105 21.8576C15.5226 21.8336 15.6326 21.8012 15.7395 21.7608C15.7069 21.6981 15.8847 21.5443 15.6298 21.6269C15.7091 21.5358 15.7833 21.4407 15.8521 21.342C15.9203 21.248 16.0092 21.1512 16.1041 21.003C16.1219 20.9432 16.1426 20.8834 16.1663 20.815C16.19 20.7467 16.2167 20.6926 16.2434 20.6213C16.3412 20.5444 16.3471 20.6213 16.3442 20.684C16.3442 20.7153 16.3442 20.7894 16.3442 20.835C16.3442 20.8806 16.3442 20.909 16.3975 20.8891C16.4509 20.8692 16.4449 20.7866 16.4568 20.7552C16.4683 20.7305 16.4773 20.7047 16.4835 20.6783C16.4983 20.6331 16.5063 20.5861 16.5072 20.5387C16.5112 20.4584 16.5043 20.378 16.4864 20.2994C16.4327 20.1726 16.4254 20.032 16.4657 19.9006C16.6465 19.5759 16.5339 19.556 16.6613 19.2056C16.6969 19.3452 16.8392 18.9948 16.9399 18.9578L16.9666 19.123C16.9844 19.009 17.0555 18.9179 17.1 18.9692C16.9844 18.9521 17.1741 18.482 17.2126 18.2257H17.1059C17.1379 17.9966 17.1976 17.772 17.2838 17.5562C17.3638 17.2514 17.2571 17.2913 17.2423 17.0264C17.2851 16.992 17.3404 16.9754 17.396 16.9802C17.4516 16.985 17.5029 17.0109 17.5387 17.052C17.4616 17.1176 17.4379 17.26 17.3608 17.3825C17.3016 17.7841 17.3845 18.1431 17.2008 18.4991C17.3579 18.7384 17.269 18.2399 17.4172 18.0832C17.4201 18.0895 17.4216 18.0963 17.4216 18.1032C17.4216 18.1101 17.4201 18.1169 17.4172 18.1231C17.4221 18.1075 17.4302 18.093 17.4409 18.0804C17.4172 18.2228 17.3697 18.4536 17.4705 18.5305C17.5328 18.2969 17.3104 18.2912 17.509 18.0462C17.5268 17.8155 17.764 17.7072 17.8262 17.5876C17.7936 17.4224 17.6187 17.354 17.7758 17.0179L17.8469 17.2087C17.9892 16.827 17.7313 16.9666 17.8647 16.6134C17.8054 16.733 17.7877 16.451 17.6958 16.6874C17.697 16.487 17.7533 16.2905 17.8588 16.1177C17.8588 16.0607 17.8203 16.0949 17.7817 16.0693C17.6187 16.2544 17.7432 16.4367 17.5565 16.5706L17.6365 16.7643C17.515 16.9466 17.3994 16.9296 17.3905 16.79C17.3757 16.8498 17.3905 16.9039 17.3401 16.9381C17.1237 16.9011 17.4972 16.7216 17.3401 16.5963L17.3016 16.7415C17.1504 16.7586 17.3016 16.3769 17.3816 16.1975C17.515 16.0152 17.6039 15.8328 17.7047 15.8499L17.6483 16.1348C17.7758 16.018 17.7284 15.7673 17.7877 15.6078C17.8065 15.6009 17.823 15.5891 17.8351 15.5736C17.8246 15.5776 17.813 15.5776 17.8025 15.5736C17.8187 15.5416 17.8432 15.5142 17.8736 15.4939C17.91 15.3293 17.9586 15.1675 18.0189 15.0096H17.927L17.9685 15.0438C17.921 15.1691 17.8084 15.3286 17.7788 15.209C17.8203 14.9014 18.004 14.8957 18.1018 14.8501C18.2115 14.9583 18.004 15.1349 17.9981 15.2945C18.1582 15.2489 18.1137 15.0096 18.2945 14.7247C18.3953 14.89 18.17 15.0723 18.2797 15.1805C18.3864 14.9441 18.3093 14.8501 18.4309 14.6108C18.4872 14.6649 18.4071 14.9156 18.499 14.927L18.5939 14.776C18.4635 15.1805 18.7954 14.7589 18.7213 15.0865C18.831 14.9555 18.6769 14.8415 18.8399 14.6592C18.7569 14.6991 18.588 14.833 18.5998 14.6108L18.7213 14.3972C18.8221 14.3202 18.7925 14.682 18.8992 14.551L18.9318 14.2946C18.8873 14.2946 18.828 14.4 18.7925 14.2946C18.8844 14.1693 18.7065 14.0097 18.6976 13.8331C18.7421 13.7049 18.7865 13.6052 18.8518 13.5739C18.831 13.2064 18.9703 12.7905 18.9436 12.4544C18.9644 12.6851 19.0918 12.4886 19.1956 12.3832C19.1393 12.6253 19.2727 12.6681 19.3645 12.6681C19.3942 12.5199 19.2875 12.3832 19.2193 12.4459C19.3497 12.218 19.1778 12.2522 19.3349 12.0642C19.4238 11.9388 19.4446 12.1696 19.5098 12.1354C19.5987 11.8733 19.3705 12.0186 19.4861 11.7423C19.5009 11.7622 19.4861 11.7907 19.5305 11.7736C19.5635 11.715 19.5807 11.6494 19.5807 11.5827C19.5807 11.5161 19.5635 11.4505 19.5305 11.3919C19.7558 11.2751 19.6461 10.9219 19.8091 10.9988C19.8684 10.6114 19.6995 11.0301 19.6609 10.9418C19.6618 10.7561 19.7173 10.5744 19.821 10.4177C19.8003 10.5117 19.821 10.6085 19.7706 10.7025L19.9129 10.6541C20.1293 10.2069 19.7262 10.2895 19.9514 9.85934C19.9514 10.11 20.0196 9.95904 20.0729 10.0986C20.0729 10.0189 20.1885 9.67133 20.0433 9.86504C20.0862 9.72975 20.1386 9.59745 20.2004 9.46908C20.2089 9.31986 20.1899 9.17037 20.1441 9.02755C20.201 8.84387 20.2947 8.67262 20.4197 8.52335C20.4464 7.99636 20.6924 7.54913 20.6895 6.98511V7.02214C20.7814 6.60055 20.4968 7.18736 20.5709 6.73728C20.7132 6.81989 20.7132 6.4866 20.811 6.35272C20.9562 5.80579 20.811 5.38704 20.9088 4.8629C20.9414 4.8629 20.9799 4.89994 20.9799 5.00533C21.0195 4.62492 21.0005 4.24099 20.9236 3.86589L20.9444 3.88014C20.9416 3.54681 20.8387 3.22136 20.648 2.94295C20.5327 2.76681 20.3839 2.61315 20.2093 2.49002C20.0289 2.35656 19.8222 2.25965 19.6017 2.20516L19.3912 2.17098C19.4594 2.17098 19.492 2.11686 19.5542 2.10831C19.4386 2.07698 19.3319 2.04849 19.2015 2.02C19.0766 2.00618 18.9509 1.99952 18.8251 2.00006C18.6208 1.99787 18.4201 2.05226 18.2471 2.15674C18.1208 2.13332 17.9902 2.14518 17.8707 2.19092C17.7324 2.25701 17.5804 2.29207 17.426 2.29347C17.3875 2.27923 17.4675 2.25359 17.5001 2.2365C17.2694 2.28683 17.0462 2.36533 16.8362 2.47008C16.6652 2.60131 16.5119 2.7525 16.3797 2.92016C16.2311 3.08453 16.0535 3.22243 15.8551 3.32751C15.7069 3.18508 16.1367 3.07968 16.0537 2.94295C15.9798 3.05552 15.8694 3.1416 15.7395 3.18793C15.778 3.06829 15.7395 3.13665 15.7395 3.0398C15.5972 3.07114 15.4431 3.50982 15.4431 3.48988C15.4609 3.52406 15.5113 3.51552 15.6032 3.44145C15.5646 3.61522 15.1437 3.80323 14.957 4.01117C15.0281 3.95135 15.283 3.80038 15.2534 3.93996C14.9333 4.14791 14.957 4.37294 14.8295 4.60368C14.5094 4.76605 14.8977 4.31882 14.7584 4.2533C14.6754 4.2533 14.4946 4.2533 14.5657 4.12796C14.3632 4.31781 14.1886 4.53347 14.047 4.7689L14.0233 4.73472C13.7477 5.01958 13.5876 5.42408 13.306 5.60354L13.4601 5.51238C13.4335 5.5722 13.2882 5.70324 13.2764 5.83427C13.2349 5.783 13.0185 5.92543 13.0481 5.81433C13.0896 6.07641 12.5531 6.53788 12.5858 6.81134C12.479 6.85122 12.4642 6.73728 12.4494 6.68316C12.6213 6.51509 12.7073 6.48091 12.728 6.33278C12.5946 6.48375 12.4553 6.55782 12.4316 6.50369C12.399 6.73728 12.1352 7.13039 12.1678 7.28991C12.0196 7.35827 11.904 7.44373 11.8477 7.33548C11.5098 7.84823 12.3101 7.31554 11.8684 7.84253C11.5869 8.01915 11.9485 7.51779 11.6461 7.84253L11.6817 7.77132C11.2549 7.84253 11.7054 8.05618 11.4772 8.34104C11.3201 8.28407 11.5424 8.08182 11.2994 8.20716C11.1274 8.49201 11.2282 8.7313 10.9881 8.95634L10.9674 8.87658C10.8488 9.04749 10.582 9.34944 10.4694 9.52321C10.4398 9.52321 10.4694 9.49187 10.4694 9.45484C10.1967 9.7397 10.4427 9.6286 10.173 9.82231V9.9391C10.3657 9.81407 10.5137 9.63504 10.5969 9.42635C10.5494 9.6343 10.9437 9.29247 10.9941 9.44629L10.9733 9.38363C11.4683 9.09877 11.8981 8.60596 12.3783 8.16158C12.5146 7.75138 12.8733 7.66877 13.0778 7.27282C12.9829 7.1076 13.1015 7.18451 13.3268 6.88256C13.2112 7.04493 13.4157 6.98796 13.5194 6.91389C13.5391 6.82793 13.5764 6.74659 13.6291 6.67461C13.7269 6.65752 14.1597 6.41254 14.1893 6.20744C14.3909 6.08495 14.1893 6.28435 14.1893 6.34702C14.3227 6.34702 14.2634 6.16471 14.3642 6.15332C14.3679 6.15884 14.3699 6.16527 14.3699 6.17183C14.3699 6.1784 14.3679 6.18483 14.3642 6.19035C14.5828 5.97748 14.8165 5.7795 15.0637 5.59784C14.957 5.44971 15.2771 5.31298 15.3601 5.15916C15.3601 5.23322 15.5557 5.0737 15.6565 5.03382L15.7128 4.81163C15.784 4.60653 15.9707 4.70623 16.1219 4.50683L16.0567 4.52107C16.262 4.32767 16.5253 4.20112 16.8095 4.1593C17.1463 3.79839 17.5834 3.53747 18.0693 3.40727C18.4334 3.30634 18.8226 3.32846 19.1719 3.46994C19.2305 3.50614 19.2761 3.55887 19.3023 3.62092C19.3752 3.75477 19.4319 3.89623 19.4712 4.04251C19.5424 4.12512 19.5453 3.9599 19.6402 4.01402C19.6759 4.12022 19.6978 4.23025 19.7054 4.34161C19.738 4.20773 19.6817 4.23621 19.735 4.24476C19.7113 4.17354 19.6758 4.10803 19.6491 4.03966C19.6491 4.03966 19.6698 4.03966 19.6906 4.02542C19.6477 3.95619 19.6129 3.88263 19.5868 3.80607C19.6669 3.90577 19.8121 3.91717 19.7943 4.11087C19.7736 4.11087 19.7647 4.07669 19.7439 4.03111C19.7617 4.18209 19.824 4.18209 19.8032 4.31597C19.7825 4.44986 19.824 4.42422 19.7706 4.44701C19.7706 4.60083 19.738 4.75466 19.7143 4.90848C19.8744 5.14491 19.7143 5.43547 19.6847 5.50953C19.572 5.44971 19.6669 5.19334 19.5513 5.07655L19.4594 5.23892L19.5542 5.25316L19.5127 5.49244L19.495 5.47535C19.5305 5.50669 19.5661 5.54087 19.5276 5.59784C19.5127 5.59784 19.4861 5.62918 19.4831 5.59784L19.5187 5.77445C19.4297 5.66336 19.4742 5.92258 19.3616 5.88555C19.24 6.43818 19.4209 6.62334 19.1808 7.09905C19.2489 7.02784 19.3319 7.28706 19.2786 7.44088C19.2341 7.52349 19.2045 7.54058 19.1719 7.47791L19.1897 7.68871C18.9614 7.9109 19.0207 8.17867 18.8725 8.54329L18.828 8.5148C18.8649 8.68451 18.8536 8.8606 18.7954 9.0247L18.7065 8.96488C18.5761 9.20131 18.8666 9.20416 18.7302 9.46908C18.8369 9.49187 18.9348 9.3295 19.0415 9.32665C18.9199 9.36653 18.8251 9.66279 18.9199 9.61151C18.8873 9.89637 18.8636 9.80237 18.834 9.82231L18.9466 10.0046C18.8873 10.1983 18.7925 10.0303 18.751 9.9448C18.8132 10.1556 18.6798 10.3322 18.6028 10.5345L18.5791 10.4376L18.4842 10.7054C18.5019 10.9357 18.4504 11.166 18.336 11.3691L18.2471 11.1725C18.1285 11.315 18.2708 11.2694 18.2797 11.3178C18.2797 11.5884 18.1641 11.6027 18.0455 11.728C18.0574 12.1582 17.5654 12.4516 17.6602 12.8532ZM4.57391 5.60354L4.54131 5.63202C4.54723 5.54372 4.54724 5.49244 4.57391 5.60354ZM4.01371 7.79696C3.99592 7.5121 4.05224 7.6118 4.09374 7.59471C4.06258 7.70571 4.04174 7.81915 4.03149 7.93369C4.03149 8.022 4.01667 8.10176 3.99592 8.21855C4.01924 8.19292 4.05034 8.17498 4.08484 8.16727C4.08675 8.20456 4.0791 8.24172 4.06256 8.2755C4.04602 8.30927 4.0211 8.33863 3.98999 8.36098C3.90996 8.3211 3.91886 8.14733 3.96332 8.01345C4.00778 7.87957 4.06409 7.72574 4.01371 7.79696ZM5.03927 4.02257C4.9917 4.00959 4.94076 4.01469 4.897 4.03681C4.91997 4.04644 4.94515 4.05018 4.97008 4.04769C4.99502 4.04519 5.01885 4.03654 5.03927 4.02257ZM3.45943 6.5863C3.38829 6.64043 3.37347 6.7914 3.36754 6.9025C3.40547 6.79919 3.43617 6.69355 3.45943 6.5863ZM13.1074 21.2252C13.0155 21.2053 12.8258 21.1797 12.9563 21.2879C13.0452 21.2879 13.1549 21.4132 13.2527 21.3677C13.2095 21.3155 13.1608 21.2677 13.1074 21.2252ZM17.6543 15.3486C17.7047 15.3799 17.7432 15.4568 17.7995 15.434V15.454C17.8232 15.4397 17.8469 15.4283 17.8529 15.454C17.8877 15.4022 17.9109 15.344 17.921 15.2831C17.7373 15.1976 17.761 15.0523 17.6543 15.3486Z" fill="#242424"/>
<path d="M17.4468 18.1943L17.4705 18.1203C17.4646 18.1402 17.4646 18.163 17.4468 18.1943Z" fill="#242424"/>
<path d="M17.9062 15.2888C17.9062 15.2888 17.8529 15.3486 17.7995 15.434C17.8262 15.4169 17.8617 15.3828 17.9062 15.2888Z" fill="#242424"/>
<path d="M9.18599 8.17297L9.12671 8.11315L9.16524 8.29546C9.20745 8.35665 9.26535 8.40635 9.33336 8.43978C9.40137 8.47321 9.4772 8.48924 9.55353 8.48631C9.38826 8.31464 9.24679 8.12315 9.13264 7.9166L9.18599 8.17297Z" fill="#242424"/>
<path d="M9.66617 7.75138C9.67655 7.6958 9.67655 7.63889 9.66617 7.58331H9.59503L9.66617 7.75138Z" fill="#242424"/>
<path d="M7.8996 4.87715L8.05373 5.11643C8.15451 5.14492 7.99741 4.84582 7.8996 4.87715Z" fill="#242424"/>
<path d="M7.88477 6.3869L8.01816 6.45812C7.98556 6.33278 7.88477 6.20459 7.81067 6.22453C7.93813 6.33278 7.80474 6.27866 7.88477 6.3869Z" fill="#242424"/>
<path d="M7.34826 4.32452C7.20302 4.34731 7.13781 4.09948 7.02222 4.14506C7.10521 4.16785 7.26527 4.39574 7.34826 4.32452Z" fill="#242424"/>
<path d="M6.75543 5.22752C6.73765 5.35855 6.90067 5.3728 6.99256 5.51238C6.90364 5.40983 6.84435 5.21043 6.75543 5.22752Z" fill="#242424"/>
<path d="M5.67065 3.82601C5.69139 3.7491 5.86331 3.76619 6.0204 3.82601C5.96175 3.84331 5.90093 3.8529 5.83959 3.85449C5.93413 3.85351 6.02851 3.8621 6.12118 3.88013C6.1936 3.89557 6.26489 3.91555 6.33459 3.93995C6.24549 3.86028 6.14583 3.79227 6.03818 3.7377C5.93148 3.67788 5.85145 3.62946 5.88109 3.58388C5.66175 3.62946 5.45427 3.75194 5.67065 3.82601Z" fill="#242424"/>
<path d="M6.46497 4.99963C6.54499 5.09649 6.55389 5.19619 6.66948 5.29874C6.68736 5.25012 6.68607 5.19688 6.66586 5.14911C6.64565 5.10134 6.60792 5.06235 6.55982 5.03951L6.67245 5.00818C6.58353 4.8572 6.64281 5.13922 6.46497 4.99963Z" fill="#242424"/>
<path d="M4.56207 3.99408L4.6836 3.9542C4.79212 3.83064 4.92913 3.7331 5.08375 3.66934C5.21651 3.62405 5.34454 3.56682 5.46612 3.49843C5.2549 3.51697 5.05149 3.58441 4.8733 3.69498C4.79683 3.74107 4.7262 3.79556 4.66285 3.85735C4.62509 3.89995 4.59136 3.94571 4.56207 3.99408Z" fill="#242424"/>
<path d="M6.04109 4.52676L5.96106 4.62931C6.10037 4.72901 5.96106 4.58658 6.03812 4.58658C6.11519 4.58658 6.13001 4.67489 6.17447 4.67204C5.99366 4.59228 6.21597 4.57519 6.04109 4.52676Z" fill="#242424"/>
<path d="M5.55797 4.54385C5.51025 4.56463 5.46623 4.59251 5.42755 4.62646C5.47588 4.65689 5.51806 4.6955 5.55204 4.74041C5.6706 4.68628 5.55501 4.66065 5.55797 4.54385Z" fill="#242424"/>
<path d="M5.3416 4.50683L5.31492 4.49258C5.2657 4.5815 5.23262 4.67784 5.2171 4.77744C5.28231 4.62932 5.28232 4.64356 5.3416 4.50683Z" fill="#242424"/>
<path d="M3.11858 8.29545C3.1749 8.34103 3.2401 8.07611 3.17786 8.19006C3.12451 8.12169 3.07412 8.49486 3.11858 8.29545Z" fill="#242424"/>
<path d="M4.26565 7.45513C4.21972 7.64247 4.21972 7.83751 4.26565 8.02485C4.25083 7.87388 4.34568 7.44089 4.26565 7.45513Z" fill="#242424"/>
<path d="M4.2775 8.06187V8.0163C4.2751 8.0314 4.2751 8.04677 4.2775 8.06187Z" fill="#242424"/>
<path d="M7.31567 13.1694C7.32356 13.1834 7.33608 13.1944 7.35125 13.2008L7.31567 13.1694Z" fill="#242424"/>
<path d="M7.206 13.0612C7.17043 12.9643 7.03409 12.8133 6.96295 12.8133C7.07012 12.9412 7.18809 13.0602 7.31567 13.1694C7.27121 13.1153 7.26528 13.0213 7.206 13.0612Z" fill="#242424"/>
<path d="M7.96185 14.2775C7.88775 14.2348 7.84922 14.1408 7.81661 14.1892C7.784 14.2376 7.95592 14.343 7.96185 14.2775Z" fill="#242424"/>
<path d="M14.4027 21.9687C14.6013 21.9972 14.7169 21.9687 14.6606 21.8918C14.4442 21.9061 14.5628 21.9516 14.4027 21.9687Z" fill="#242424"/>
<path d="M14.9095 21.8605L14.9421 21.8975C14.9897 21.9128 15.0382 21.9252 15.0874 21.9345C15.0261 21.9146 14.9666 21.8898 14.9095 21.8605Z" fill="#242424"/>
<path d="M16.3827 21.2851C16.3757 21.3221 16.3583 21.3566 16.3323 21.3848C16.4005 21.3078 16.4479 21.2366 16.3827 21.2851Z" fill="#242424"/>
<path d="M16.2997 21.4246L16.3323 21.3848L16.2997 21.4246Z" fill="#242424"/>
<path d="M16.1871 21.4845V21.53C16.2078 21.5044 16.2493 21.4674 16.2878 21.4246C16.279 21.4617 16.2167 21.4902 16.1871 21.4845Z" fill="#242424"/>
<path d="M16.6376 20.8122C16.5546 20.9071 16.4746 20.9926 16.3975 21.0686C16.3949 21.0951 16.3949 21.1218 16.3975 21.1483C16.3975 21.1711 16.3975 21.174 16.4183 21.1483C16.439 21.1227 16.6169 20.8207 16.6021 21.1056L16.6376 20.8122Z" fill="#242424"/>
<path d="M16.8451 20.1997C16.9518 20.0488 16.8451 19.7468 17.0318 19.7041C17.1415 19.2113 16.7562 19.7269 16.9103 19.1771C16.6435 19.65 17.0822 19.5303 16.8303 19.9462C17.0022 19.7639 16.8421 20.1171 16.8451 20.1997Z" fill="#242424"/>
<path d="M16.5753 20.1912C16.6346 20.2453 16.7236 20.0402 16.7028 19.9576C16.6732 20.0146 16.5338 20.0829 16.5753 20.1912Z" fill="#242424"/>
<path d="M17.1385 19.2682L17.2482 19.1458L17.2186 19.0945L17.1385 19.2682Z" fill="#242424"/>
<path d="M17.3757 18.7384L17.4053 18.9065C17.3905 18.8495 17.4646 18.6444 17.3757 18.7384Z" fill="#242424"/>
<path d="M17.761 18.0234C17.838 17.9009 17.6928 17.7158 17.6306 18.0063L17.6602 17.9465C17.6869 17.9807 17.8084 17.8468 17.761 18.0234Z" fill="#242424"/>
<path d="M18.1048 16.1718C18.0692 16.263 18.0544 16.3769 18.1048 16.3712L18.1522 16.112L18.1048 16.1718Z" fill="#242424"/>
<path d="M17.6276 16.055C17.4824 16.1006 17.5535 16.2915 17.4557 16.4424C17.5311 16.3214 17.5889 16.1911 17.6276 16.055Z" fill="#242424"/>
<path d="M18.3716 15.9439C18.3953 16.0265 18.3271 16.1206 18.2975 16.1804C18.3746 16.1718 18.419 15.9867 18.3716 15.9439Z" fill="#242424"/>
<path d="M18.4694 15.5337C18.5465 15.4682 18.5287 15.5736 18.582 15.5337C18.6893 15.4032 18.7393 15.2377 18.7214 15.0723C18.6561 15.1008 18.502 15.1207 18.4664 15.0295C18.4131 15.3144 18.5791 15.5337 18.3657 15.6164L18.4842 15.9012C18.5969 15.7018 18.4042 15.6847 18.4694 15.5337Z" fill="#242424"/>
<path d="M17.8884 15.9696L18.007 15.8442C17.9329 15.8442 17.9595 15.736 17.9655 15.6505C17.8054 15.642 17.9092 15.8841 17.8884 15.9696Z" fill="#242424"/>
<path d="M18.9081 13.9613L18.9792 13.6309L18.9377 13.7334L18.9081 13.9613Z" fill="#242424"/>
<path d="M19.0237 13.7705L19.0711 13.7762V13.5084L19.0237 13.7705Z" fill="#242424"/>
<path d="M19.1837 13.4514L19.1659 13.4884L19.1422 13.6879L19.1837 13.4514Z" fill="#242424"/>
<path d="M19.4268 12.7934L19.3438 12.8361C19.3438 12.9216 19.2134 13.0612 19.3023 13.0726C19.3029 13.0204 19.3142 12.969 19.3356 12.921C19.3569 12.8731 19.3879 12.8298 19.4268 12.7934Z" fill="#242424"/>
<path d="M18.4694 10.1556C18.4961 10.224 18.5435 10.1983 18.5909 10.1727L18.5079 10.0559C18.505 10.0844 18.502 10.1385 18.4694 10.1556Z" fill="#242424"/>
<path d="M18.751 9.81945L18.6887 9.55453C18.5998 9.81945 18.6887 9.87927 18.6413 10.1243C18.7065 10.0331 18.6413 9.87073 18.7243 9.75394L18.751 9.81945Z" fill="#242424"/>
<path d="M19.7113 5.12782C19.7913 5.15346 19.7824 5.09934 19.8269 5.27595C19.7913 5.03382 19.8091 4.83442 19.7854 4.57235C19.735 4.61793 19.6342 4.43277 19.6639 4.52962C19.6935 4.62647 19.7024 4.72048 19.7231 4.81448L19.6668 4.7689C19.6076 4.97685 19.7587 4.90848 19.7113 5.12782Z" fill="#242424"/>
<path d="M11.1541 8.77402C11.1541 8.72844 11.0889 8.73699 11.0356 8.74838C10.9437 8.92785 11.1719 8.73984 11.1541 8.77402Z" fill="#242424"/>
</svg>
