<svg width="40" height="40" viewBox="0 0 40 40" fill="none" xmlns="http://www.w3.org/2000/svg">
<path d="M31.586 20.5435C31.6208 20.4092 31.586 20.5099 31.5513 20.5099L31.586 20.5435Z" fill="black"/>
<path d="M31.5514 20.5101L31.5166 20.4766C31.5166 20.5101 31.5166 20.5101 31.5514 20.5101Z" fill="black"/>
<path d="M31.2036 20.4435C31.2731 20.3428 31.3774 20.4771 31.4122 20.3428C31.3427 20.2421 31.2384 20.2756 31.2036 20.4435Z" fill="black"/>
<path d="M31.3427 20.5105V20.4434L31.2732 20.5777L31.3427 20.5105Z" fill="black"/>
<path d="M31.3775 20.5771L31.2732 20.6443L31.3775 20.5771Z" fill="black"/>
<path d="M30.9604 20.3763L31.03 20.3427C31.0995 20.4434 30.9952 20.477 31.03 20.5442C31.1342 20.5442 31.0647 20.3091 31.169 20.3427C31.169 20.242 30.9952 20.3427 30.9952 20.1748C30.9257 20.1748 30.9952 20.3091 30.9604 20.3763Z" fill="black"/>
<path d="M25.0858 21.35L25.051 21.3164C25.051 21.3164 25.051 21.35 25.0858 21.35Z" fill="black"/>
<path d="M27.1367 20.9473C27.1715 20.9808 27.1715 20.9808 27.1715 20.9808C27.1715 20.9473 27.1715 20.9473 27.1367 20.9473Z" fill="black"/>
<path d="M23.6955 21.585C23.6607 21.585 23.6607 21.585 23.626 21.585C23.6607 21.6186 23.6607 21.585 23.6955 21.585Z" fill="black"/>
<path d="M25.503 21.5512L25.4683 21.5176C25.4683 21.5512 25.503 21.5512 25.503 21.5512Z" fill="black"/>
<path d="M29.7785 20.208C29.7437 20.208 29.7437 20.208 29.709 20.208C29.7437 20.2416 29.7785 20.2416 29.7785 20.208Z" fill="black"/>
<path d="M29.7437 20.2079C29.709 20.1408 29.709 19.9393 29.6394 20.1743V20.2079C29.6047 20.1408 29.5699 20.2415 29.5352 20.2415C29.5352 20.2751 29.5352 20.2751 29.5352 20.3087C29.5352 20.3087 29.5699 20.3087 29.6047 20.3422C29.6742 20.3758 29.6742 20.2415 29.7437 20.2079Z" fill="black"/>
<path d="M26.3721 21.1816C26.3721 21.217 26.4087 21.217 26.3721 21.1816V21.1816Z" fill="black"/>
<path d="M26.7545 21.0137H26.7197C26.7197 21.0137 26.7197 21.0472 26.7545 21.0137Z" fill="black"/>
<path d="M13.0936 19.6375C13.1284 19.6039 13.1284 19.6711 13.1631 19.7046C13.2326 19.5703 13.0241 19.7046 13.1284 19.5703C13.0936 19.5703 13.0936 19.6039 13.0588 19.6039L13.0936 19.7382C13.1631 19.7046 13.0588 19.7046 13.0936 19.6375Z" fill="black"/>
<path d="M18.7595 20.0734C18.7595 20.0062 18.7595 20.0062 18.7247 19.9727C18.6899 20.0734 18.7595 20.2077 18.6899 20.3085C18.6899 20.3085 18.7247 20.3085 18.7595 20.3085C18.6899 20.2413 18.7247 20.1406 18.7595 20.0734Z" fill="black"/>
<path d="M18.7249 20.3086C18.7249 20.3422 18.7249 20.3422 18.7249 20.3422H18.7596C18.7596 20.3422 18.7249 20.3422 18.7249 20.3086Z" fill="black"/>
<path d="M14.0669 19.7041C14.1035 19.7041 14.1035 19.7394 14.0669 19.7041C14.1035 19.7041 14.0669 19.7041 14.0669 19.7041Z" fill="black"/>
<path d="M23.7649 19.8383L23.7997 19.8047C23.7997 19.8047 23.7649 19.8047 23.7649 19.8383Z" fill="black"/>
<path d="M19.4546 20.208L19.4894 20.2416C19.4894 20.2416 19.4894 20.2416 19.5241 20.2416L19.4546 20.208Z" fill="black"/>
<path d="M17.1258 21.551C17.1605 21.3831 17.091 21.551 17.0562 21.4839L17.0215 21.551C17.0562 21.551 17.091 21.551 17.1258 21.551Z" fill="black"/>
<path d="M15.7709 21.5861C15.7709 21.5507 15.7343 21.5507 15.7709 21.5861C15.7343 21.5507 15.7709 21.5507 15.7709 21.5861Z" fill="black"/>
<path d="M19.0029 20.3764H19.1767L19.142 20.3428C19.1072 20.4435 19.0029 20.3092 19.0029 20.3764Z" fill="black"/>
<path d="M17.8905 21.6185V21.7193C18.0643 21.5178 18.2729 21.82 18.4119 21.5178C18.6205 21.8536 18.551 21.2156 18.7595 21.5178V21.4842C19.3852 21.5514 20.0804 21.7193 20.6713 21.5514V21.6185C21.6446 21.7193 22.5832 21.5849 23.5217 21.6521C23.626 21.5849 23.5564 21.4506 23.626 21.3835C23.6607 21.3835 23.7302 21.3835 23.7302 21.4506C23.6607 21.4842 23.6955 21.5849 23.6955 21.5849C23.7998 21.5849 23.9388 21.6857 24.0431 21.5849L23.9388 21.4506C23.9736 21.417 24.0431 21.4506 24.0778 21.4506C24.0778 21.5178 24.1126 21.6185 24.0778 21.6521C24.2864 21.3835 24.2516 21.7528 24.3907 21.6521C24.4254 21.417 24.634 21.2491 24.7731 21.0812L24.8426 21.1484C24.7383 21.1484 24.8426 21.3163 24.7383 21.3163C24.8426 21.3835 24.9469 21.2827 25.0164 21.3163C24.9816 21.2491 25.0164 21.182 25.0511 21.1484C25.1207 21.182 25.1207 21.2827 25.1902 21.3163L25.1207 21.3835C25.1554 21.4842 25.1902 21.3499 25.2597 21.3499C25.2597 21.4506 25.364 21.4506 25.364 21.5514C25.4683 21.417 25.503 21.4842 25.5725 21.417C25.4683 21.3163 25.6073 21.2827 25.5725 21.2156L25.4683 21.2491C25.6421 21.3163 25.3987 21.2827 25.4335 21.417C25.364 21.3499 25.5378 21.1484 25.3987 21.182C25.5378 21.1148 25.5725 21.182 25.7463 21.0476C25.6421 21.0812 25.7811 20.9469 25.7116 20.8797C25.8159 20.8797 25.7463 20.9469 25.7811 21.0476C25.8506 21.0476 25.8854 21.1484 25.9201 21.0141C26.0244 21.0476 25.9201 21.1484 25.9549 21.2156C25.9201 21.3163 25.6768 21.0812 25.6768 21.417C25.6073 21.417 25.5725 21.5514 25.4683 21.5514C25.5378 21.5849 25.6421 21.7193 25.7116 21.6185V21.417C25.7811 21.417 25.7811 21.2827 25.8506 21.2827C25.8159 21.3499 25.8854 21.417 25.9201 21.417C25.9201 21.3835 25.8854 21.3835 25.8854 21.3499C25.9897 21.3499 25.9897 21.2156 26.0939 21.1484C25.9897 21.0812 25.9897 21.0476 25.8854 20.9469C25.9201 20.8126 25.9549 20.9133 25.9897 20.9133C25.9897 20.9469 25.9549 20.9469 25.9897 20.9805L26.0592 20.9133C26.1635 20.9805 26.0592 21.1148 26.1287 21.182C26.1982 21.2827 26.233 21.1148 26.2677 21.182V21.1484H26.3025C26.372 21.1148 26.4415 21.1484 26.4415 21.0476C26.4415 21.0812 26.5111 21.0476 26.5111 21.0141C26.5458 20.9805 26.6154 20.8462 26.6849 21.0141C26.7544 21.0476 26.8239 21.0812 26.8239 21.1484L26.963 21.182V21.3163C27.0672 21.2827 27.0672 21.2156 27.1368 21.0476C27.2063 21.1148 27.3453 21.0476 27.4148 21.0141H27.4496L27.4148 20.9469C27.5191 20.9469 27.4844 20.8797 27.5539 20.8797C27.5539 20.8797 27.5539 20.8462 27.5886 20.8797H27.6234C27.6234 20.8797 27.6234 20.8797 27.5886 20.8797V20.9133C27.6582 21.0476 27.6929 20.8462 27.7624 20.8797H27.7277C27.7624 20.9133 27.832 21.1148 27.8667 20.9805C27.8667 20.9805 27.9015 20.9805 27.9015 20.9469L27.9362 20.9805C27.9362 20.9805 27.9015 20.9805 27.9015 20.9469C27.9362 20.9133 27.9362 20.8462 27.9362 20.8797L28.0405 20.9133C28.0753 20.9469 28.0753 20.9133 28.11 20.9133L28.1448 20.9805C28.1796 20.9805 28.1796 21.0141 28.1796 21.0141C28.3186 21.2156 28.3881 20.9133 28.5619 21.0812C28.5967 20.9805 28.5272 20.9469 28.5272 20.8797C28.5619 20.8126 28.6315 20.7454 28.6662 20.6783C28.7357 20.8126 28.9443 20.9133 28.9095 21.1148C29.0486 21.1148 28.8748 21.0141 28.9443 20.9469C28.9095 20.9133 28.8748 20.8462 28.84 20.779C28.84 20.6783 28.9443 20.6447 28.9791 20.6783L28.9443 20.8126C29.0486 20.7454 29.0486 20.5439 29.1181 20.4096C29.2224 20.4768 29.1529 20.6111 29.1876 20.7118L29.2919 20.6783V20.779C29.3614 20.7454 29.3614 20.6447 29.4657 20.6783C29.3962 20.779 29.6047 20.779 29.5005 20.9133C29.5352 20.9469 29.57 20.7454 29.57 20.8797C29.6047 20.779 29.5352 20.8126 29.5005 20.779C29.4657 20.6111 29.6047 20.7118 29.6743 20.6447C29.6743 20.7454 29.6395 20.7454 29.709 20.8126C29.709 20.7454 29.7785 20.7118 29.8133 20.779C29.8133 20.6783 29.8828 20.7454 29.9176 20.779C29.8828 20.7454 29.8133 20.6783 29.8481 20.5775C29.8828 20.5439 29.9176 20.5104 29.9871 20.5104L29.9176 20.4432C29.9871 20.2753 30.0219 20.5439 30.1261 20.5104C30.0914 20.5775 30.0566 20.5775 30.0219 20.6447C30.0566 20.5775 30.1609 20.5104 30.1957 20.4768L30.2652 20.6447C30.2652 20.5775 30.3347 20.6447 30.3347 20.5439C30.439 20.6111 30.2652 20.6783 30.2652 20.7454C30.3695 20.8126 30.3695 20.5775 30.4737 20.7454L30.439 20.8462C30.4737 20.8462 30.5433 20.779 30.5433 20.8462C30.5433 20.8126 30.5085 20.8126 30.5085 20.8126C30.5433 20.6111 30.6823 20.6447 30.6823 20.4432H30.6128C30.6823 20.4096 30.7518 20.2417 30.8214 20.3425C30.8561 20.4096 30.7866 20.5104 30.7518 20.5439C30.8214 20.5439 30.8214 20.3089 30.8909 20.3089C30.8561 20.2753 30.8561 20.2081 30.8909 20.141C30.8214 20.141 30.7171 20.0738 30.7518 20.1745L30.7866 20.2081C30.7866 20.2753 30.7518 20.2753 30.7518 20.3089C30.6823 20.3089 30.7171 20.2081 30.7171 20.1745C30.6128 20.141 30.7171 20.4096 30.6128 20.376V20.3425C30.5433 20.4096 30.4737 20.4096 30.4737 20.5439C30.439 20.4096 30.3347 20.6111 30.2999 20.5104C30.2999 20.2081 30.4737 20.5439 30.5433 20.3425C30.4737 20.2753 30.578 20.1745 30.6128 20.1074L30.439 20.2417C30.439 20.2081 30.3695 20.0402 30.3347 20.141C30.2652 20.1745 30.2652 20.3089 30.2304 20.2753C30.2304 20.2417 30.2304 20.2081 30.2304 20.1745C30.1609 20.141 30.1957 20.2417 30.1609 20.2753C30.0914 20.2417 30.1957 20.141 30.1261 20.1074C30.0566 20.2417 30.0219 20.0738 29.9523 20.0738C29.9871 20.2417 29.709 20.3089 29.8481 20.4768L29.6743 20.779C29.6395 20.6783 29.7785 20.5104 29.7438 20.376H29.8481C29.8133 20.141 29.6047 20.5104 29.5352 20.2753C29.4657 20.2753 29.5005 20.3089 29.3962 20.1745L29.4309 20.376C29.3614 20.3425 29.3614 20.2081 29.3614 20.1745C29.3267 20.1745 29.2919 20.1745 29.2571 20.1745C29.2571 20.141 29.2919 20.1074 29.2919 20.1074C29.2571 20.0066 29.2224 20.0402 29.2224 20.1074C29.1876 20.1745 29.1529 20.141 29.1181 20.141L29.1529 20.1074C29.1181 20.1074 29.1181 20.141 29.1181 20.1745C29.1181 20.1745 29.0833 20.1745 29.0833 20.2081C29.0833 20.2417 29.1181 20.376 29.1529 20.4096C29.0138 20.3425 28.9095 20.376 28.8053 20.2081C28.8053 20.141 28.84 20.0738 28.84 20.0738C28.7705 20.0402 28.7357 20.141 28.7357 20.2417H28.701C28.701 20.2081 28.6662 20.141 28.6662 20.141C28.6662 20.1074 28.6662 20.1074 28.6315 20.1074C28.5967 20.2753 28.4924 20.1745 28.4924 20.2753C28.5272 20.2753 28.5619 20.2753 28.5967 20.2753C28.5619 20.376 28.4924 20.5104 28.4576 20.4096C28.5272 20.3089 28.3534 20.2417 28.4924 20.2081C28.3881 20.0066 28.4576 20.3425 28.3534 20.2753L28.2838 20.2081C28.2838 20.1074 28.3881 20.141 28.3534 20.1074H28.3186C28.3534 20.0066 28.5272 20.0738 28.6315 19.9395L28.4229 19.8723C28.1796 20.0066 27.8667 19.8387 27.6582 20.1074C27.6582 20.1074 27.6582 20.141 27.6582 20.1745V20.141L27.6234 20.2417C27.5886 20.141 27.4844 20.1074 27.4148 20.0402C27.4496 20.1074 27.4496 20.1074 27.4844 20.2081C27.4844 20.3089 27.4844 20.376 27.3801 20.3425C27.3801 20.2753 27.4148 20.2753 27.3801 20.2081C27.4148 20.2417 27.3801 20.3089 27.3453 20.3089C27.3106 20.2417 27.241 20.2417 27.241 20.1745C27.2758 20.141 27.2758 20.1745 27.2758 20.2081C27.3106 20.1745 27.2063 20.141 27.241 20.0738L27.1715 20.1074C27.1368 20.0402 27.2063 20.0066 27.1715 19.9395C27.0672 20.0066 26.9977 20.1745 26.8934 20.2417C26.8934 20.2081 26.8934 20.0066 26.8934 20.0738C26.8239 20.0066 26.7196 20.2753 26.6154 20.2753C26.6154 20.2081 26.6501 20.2417 26.6849 20.2081C26.4068 20.141 26.1635 20.141 25.8854 19.9731L25.8159 20.1745L25.6768 19.9395C25.3987 19.8052 25.1554 19.9395 24.8773 20.0066C24.8078 20.0066 24.8426 19.8723 24.7731 19.8387C24.5993 19.8052 24.5297 20.0402 24.3559 20.0738C24.3907 20.0066 24.4254 19.8387 24.3559 19.8387C24.3559 19.9059 24.3212 19.9731 24.2864 19.9395L24.3212 19.8723C24.2864 19.7716 24.2169 19.8723 24.1474 19.8387C23.9736 19.8387 23.8345 19.9731 23.6955 20.1745C23.5564 20.141 23.6955 19.9731 23.6955 19.9395C23.7998 20.0066 23.765 19.9059 23.7998 19.8387C23.7302 19.9059 23.6955 19.9395 23.6607 19.8052C23.5912 19.8052 23.5564 19.8052 23.4869 19.9059C23.5217 19.8723 23.5564 19.9395 23.5217 20.0066C23.4522 19.9731 23.3131 20.0066 23.3131 19.8387C22.9655 19.8723 22.5484 19.8387 22.166 19.8387C22.0965 19.9395 22.2008 19.8723 22.166 19.9395C22.0617 20.0402 22.0965 19.8723 22.027 19.9731L22.0617 19.8723C21.9575 19.8723 21.8184 20.0402 21.7141 20.1074C21.7489 20.0066 21.6099 20.0066 21.7141 19.9731C21.6446 20.0066 21.6099 19.5365 21.5403 19.6037L21.6099 20.0402C21.6099 20.0738 21.5403 20.0402 21.5403 20.0738C21.5056 19.9731 21.4361 19.8723 21.4013 19.8723C21.4013 19.7716 21.4708 19.7716 21.5056 19.8052C21.5056 19.6373 21.3665 19.7044 21.4361 19.5029C21.3318 19.5365 21.4361 19.6037 21.4013 19.6708L21.3318 19.6373L21.4013 19.7044C21.3318 19.7716 21.297 19.9059 21.2275 19.8052L21.1232 19.9731C21.1232 19.8387 21.0537 19.9395 21.0189 19.9059L21.0537 19.8052C20.9842 19.8052 20.9494 19.7716 20.9147 19.738C20.9494 19.6037 20.9842 19.7716 20.9842 19.6373L20.9147 19.6037C20.9147 19.6708 20.8799 19.738 20.9147 19.8052C20.8451 19.9731 20.8104 20.0738 20.6366 20.0738C20.5671 19.9395 20.7061 19.9395 20.6713 19.8052C20.4975 19.738 20.4628 20.1745 20.3585 20.141C20.2194 20.0738 20.2542 20.2081 20.1152 20.2081C20.1499 20.1074 20.0109 20.1074 20.0109 20.0066L20.0456 19.9059C20.0109 19.9395 19.9761 19.9059 19.9761 19.8387C19.9761 19.9731 19.8023 19.9731 19.7328 20.0066V20.1074C19.6633 20.141 19.559 20.2081 19.4895 20.1745C19.3852 20.2081 19.42 20.3089 19.3157 20.4432C19.2809 20.3425 19.2809 20.2417 19.2809 20.1074C19.3157 20.1745 19.3504 20.141 19.42 20.1745C19.559 20.0738 19.6633 19.8387 19.8023 19.9059C19.8718 19.6373 19.698 19.9395 19.6285 19.8387V19.8052C19.6633 19.7716 19.7676 19.738 19.7676 19.6037C19.698 19.6373 19.698 19.8723 19.5938 19.7716C19.5242 19.8387 19.4547 19.6373 19.42 19.6037C19.3852 19.7044 19.3504 19.9059 19.2462 19.8723L19.3157 19.738C19.1766 19.738 19.2462 19.9731 19.1071 19.9395C19.1419 19.9731 19.0724 20.0738 19.1419 20.0738C19.1071 20.141 19.0028 20.1745 18.9333 20.141C18.8986 20.1745 18.9333 20.2081 18.9333 20.2417C19.0028 20.3425 19.0724 20.141 19.1071 20.2753L19.1766 20.1074C19.2462 20.1745 19.2462 20.3089 19.2114 20.376C19.2462 20.376 19.2462 20.3425 19.2809 20.376C19.2809 20.6111 19.1766 20.2753 19.1766 20.5104L19.2114 20.4768C19.2462 20.6447 19.1071 20.6111 19.0376 20.6111C18.9681 20.5439 18.8986 20.5104 18.8986 20.4096L19.0028 20.376C18.9333 20.2753 18.8638 20.4432 18.829 20.4096V20.376V20.4096L18.7943 20.376C18.7595 20.376 18.6552 20.4432 18.6205 20.4096V20.5104V20.4432C18.6552 20.4432 18.7248 20.5104 18.69 20.5775C18.5857 20.6447 18.551 20.4432 18.551 20.376C18.5857 20.2081 18.6552 20.376 18.7248 20.3089C18.69 20.141 18.6205 20.3089 18.5162 20.1745C18.551 20.0066 18.6552 20.1745 18.6552 20.0066C18.551 19.9731 18.551 20.1074 18.4467 20.0402C18.4467 19.9731 18.551 19.9395 18.551 19.8387L18.4814 19.8052C18.6205 19.8052 18.4467 19.6037 18.5857 19.5365C18.5162 19.4693 18.5162 19.6708 18.4467 19.5701C18.4814 19.6373 18.5162 19.7716 18.4467 19.8387L18.3771 19.8052C18.3424 19.738 18.4814 19.6373 18.4119 19.5701L18.3076 19.6373C18.3076 19.7044 18.3424 19.7044 18.3424 19.7716C18.3076 19.7044 18.2729 19.9731 18.2033 20.0402C18.1686 20.0402 18.1338 20.0402 18.0991 19.9731C17.9948 20.1074 17.821 20.1074 17.7167 20.2753C17.7862 20.1745 17.7167 20.1074 17.6819 20.0402C17.7862 20.0066 17.7862 19.8723 17.7515 19.7716C17.6819 19.8052 17.6472 19.9395 17.6819 20.0066C17.5777 19.9395 17.6124 20.1074 17.5429 20.0066C17.5081 19.9395 17.5777 19.8387 17.5429 19.8052C17.4386 19.8052 17.5081 20.0066 17.4039 19.9731C17.4039 19.9395 17.4039 19.9395 17.4039 19.9059C17.3343 19.8723 17.2996 19.9395 17.2648 20.0402C17.1953 19.8387 17.091 20.0738 17.1258 19.8723C16.9867 19.9395 17.1605 19.9731 17.1258 20.0402C17.0563 20.141 16.952 20.0402 16.952 20.0402C16.9867 20.0402 17.0215 19.9731 17.0563 20.0066L17.0215 19.8723C16.8477 19.7716 16.9172 20.1745 16.7434 20.0738C16.8129 20.0066 16.7782 19.9731 16.8129 19.8723C16.7782 19.9059 16.6739 19.8723 16.7434 19.9731C16.6739 19.9731 16.6391 19.9395 16.6044 19.9059C16.5349 19.9731 16.5001 20.0066 16.4653 20.0738C16.3958 20.0738 16.3263 19.9731 16.2915 19.9059C16.1177 20.0066 15.9439 19.8387 15.7701 19.9395C15.6311 19.9059 15.8396 20.141 15.6658 20.1074C15.7006 19.9395 15.5616 20.0066 15.5268 19.9059C15.353 19.8052 15.214 20.0402 15.0402 19.9059C15.0402 19.8723 15.0402 19.8387 15.0749 19.8387C14.9359 19.7716 14.8316 19.8052 14.7273 19.8052V19.7716C14.5535 19.6373 14.3797 19.8052 14.1711 19.8387C14.1711 19.8052 14.2059 19.738 14.2059 19.738C14.1016 19.7044 13.9626 19.6708 13.8931 19.8387C13.7888 19.6708 13.8235 19.9059 13.6497 19.738C13.6497 19.7044 13.6497 19.7044 13.6845 19.7044C13.615 19.6373 13.5455 19.6708 13.4759 19.6373C13.3021 19.738 13.2674 19.9731 13.0588 19.9059C13.0588 19.6708 13.1631 19.8387 13.1979 19.6708C13.1631 19.7044 13.1283 19.7716 13.0588 19.7044C13.0936 19.6037 13.0588 19.6373 13.0936 19.5701C12.9198 19.4358 12.8155 19.738 12.8155 19.738C12.8155 19.7716 12.8155 19.8052 12.8503 19.8052C12.8155 19.9395 12.6765 19.8052 12.5722 19.8723C12.6069 19.8723 12.7112 19.9059 12.6765 20.0402C12.5374 20.0066 12.5027 20.2081 12.4331 20.3089C12.3289 20.2081 12.5027 20.1074 12.5027 19.9395C12.4679 19.8723 12.4331 19.738 12.5027 19.6708C12.3984 19.6373 12.3289 19.7716 12.2246 19.8052V19.7716C12.0855 19.8052 11.9465 20.0066 11.8422 19.9059L11.9117 19.9731C11.877 20.0066 11.8422 19.9731 11.7727 20.0738C11.7727 20.0066 11.7032 19.9395 11.7379 19.8723C11.6684 20.1074 11.4598 20.0066 11.3903 20.2417C11.3556 20.1745 11.3903 20.0738 11.3903 20.0402C11.4598 20.0738 11.4946 20.1074 11.5294 20.0066C11.4598 20.0066 11.4251 19.9395 11.4251 19.9059C11.3556 20.0738 11.1818 20.1074 11.147 20.2753C11.1122 20.2081 11.0427 20.141 11.0775 20.0402C10.8689 20.1074 11.1818 20.4432 10.9384 20.4432C10.8342 20.3089 11.0427 20.2753 10.9037 20.2417L10.9384 20.2081C10.8342 19.8723 10.8689 20.4432 10.7299 20.4432C10.7299 20.2753 10.7994 20.3089 10.7299 20.1745C10.6256 20.2081 10.5561 20.4768 10.4518 20.4432L10.4866 20.376C10.417 20.376 10.278 20.3425 10.2085 20.376C10.2085 20.3425 10.2085 20.3425 10.2432 20.3425C10.1042 20.2753 10.1737 20.4432 10.0694 20.3089L10.0347 20.4096C10.1042 20.4768 10.2085 20.5439 10.278 20.4432C10.2085 20.5439 10.3823 20.6783 10.3475 20.8126V20.7454C10.5213 21.0141 10.7646 21.0476 10.9732 21.1484C11.1122 20.9805 11.2165 21.2156 11.3556 21.0812C11.3903 20.8797 11.3903 21.0476 11.5294 21.0141C11.4598 21.0476 11.5294 21.182 11.5641 21.2156C11.5989 21.1484 11.6336 21.1484 11.6684 21.1148C11.7032 21.182 11.877 21.3499 11.9117 21.2156C11.9812 21.2827 11.877 21.2827 11.877 21.3163C11.9117 21.417 11.9465 21.2491 11.9812 21.3163V21.3499C12.1203 21.3499 12.1898 21.3835 12.2941 21.417C12.2941 21.2156 12.4331 21.3499 12.4679 21.2827C12.4331 21.3499 12.5374 21.3499 12.5722 21.3835L12.6417 21.2156C12.7112 21.0812 12.746 21.3163 12.8155 21.2491L12.746 21.1148C12.8155 21.0476 12.9893 21.182 13.0241 21.2827C13.615 20.8797 13.9278 21.5178 14.5535 21.3835C14.5883 21.3163 14.5188 21.2827 14.5535 21.182C14.623 21.1484 14.623 21.182 14.6926 21.1484C14.6578 21.0812 14.6578 21.1484 14.6578 21.1148L14.5535 21.182C14.5535 21.182 14.5535 21.1484 14.5535 21.1148C14.5188 21.1484 14.484 21.182 14.4492 21.1484C14.5188 21.0812 14.5188 20.9469 14.5883 21.0141C14.5883 21.0476 14.5883 21.0476 14.5535 21.0476C14.623 21.0476 14.623 20.9805 14.6578 21.0141C14.7273 21.0476 14.6926 21.0141 14.6926 21.0812L14.8664 21.1484C14.9706 20.9805 15.0749 21.1484 15.0749 21.1484C15.0402 21.2827 14.9706 21.182 14.9011 21.3163L14.9706 21.417V21.3163L15.0749 21.3499V21.3835C15.0749 21.3499 15.1097 21.2827 15.1097 21.3499C15.1097 21.3499 15.1097 21.3835 15.1097 21.417L15.1792 21.3499C15.1444 21.4506 15.2487 21.3835 15.214 21.5178C15.4225 21.5849 15.492 21.3499 15.6658 21.5178C15.6311 21.4506 15.7354 21.3163 15.7701 21.3499C15.8049 21.3835 15.8049 21.417 15.8049 21.4506L15.8744 21.3835C15.9787 21.5849 16.0482 21.4506 16.1872 21.5178V21.5849C16.222 21.5178 16.2915 21.4506 16.3611 21.4842V21.5849C16.4653 21.6521 16.4306 21.3499 16.5349 21.417C16.5349 21.2827 16.4653 21.2156 16.4653 21.1148C16.5001 21.2491 16.6044 21.2491 16.5696 21.182C16.6739 21.1484 16.6391 21.182 16.6391 21.2156L16.7087 21.1484C16.7782 21.1484 16.7434 21.3163 16.7087 21.3835C16.7782 21.2491 16.8477 21.3499 16.9172 21.3499L16.952 21.4506L17.0563 21.4842C17.1258 21.3835 17.1953 21.3835 17.2996 21.417L17.2301 21.5849C17.2996 21.6857 17.2648 21.5178 17.2648 21.5178C17.3691 21.4506 17.3691 21.5514 17.4386 21.6521C17.6124 21.4506 17.7515 21.8536 17.8905 21.6185ZM28.1796 21.0141C28.1796 20.9469 28.2143 20.9133 28.1796 21.0141V21.0141ZM27.3453 20.9469C27.4496 20.8797 27.4148 20.9469 27.4148 21.0141C27.3106 20.9805 27.2758 21.0141 27.1715 20.9805C27.1715 21.0141 27.1715 21.0476 27.2063 21.0812C27.1715 21.0812 27.1368 21.0476 27.1368 20.9469C27.1715 20.779 27.3801 21.0476 27.3453 20.9469ZM29.1876 20.1745V20.2081V20.1745ZM28.701 20.3089C28.701 20.2753 28.6662 20.2417 28.6662 20.2417C28.701 20.2753 28.701 20.3089 28.701 20.3089ZM27.7277 20.1074C27.6929 20.0402 27.6582 20.0738 27.6234 20.0738C27.6582 20.0738 27.6929 20.1074 27.7277 20.1074ZM21.6099 20.1745C21.6446 20.141 21.6794 20.0738 21.6446 20.0402C21.6099 20.1074 21.5751 20.0066 21.5403 20.0738C21.5751 20.141 21.5751 20.1745 21.6099 20.1745ZM18.7248 20.7118C18.7248 20.6447 18.7595 20.5775 18.7248 20.5104C18.7248 20.4768 18.7248 20.4768 18.7248 20.4432C18.69 20.4432 18.69 20.4096 18.6552 20.4432C18.6552 20.6783 18.6205 20.7118 18.7248 20.7118Z" fill="black"/>
<path d="M18.6553 20.4766C18.6553 20.4766 18.69 20.5101 18.7248 20.5437C18.7248 20.5101 18.69 20.4766 18.6553 20.4766Z" fill="black"/>
<path d="M30.7866 20.8798L30.8213 20.9806C30.9256 20.9134 30.9256 20.8127 30.9604 20.7119C30.8908 20.8127 30.8213 20.7791 30.717 20.7791L30.7866 20.8798Z" fill="black"/>
<path d="M30.7518 20.175C30.7518 20.1414 30.717 20.0742 30.717 20.0742V20.1414L30.7518 20.175Z" fill="black"/>
<path d="M29.6047 19.8385L29.709 19.9057C29.7438 19.8385 29.6395 19.7378 29.6047 19.8385Z" fill="black"/>
<path d="M30.0219 20.9802L30.0567 20.913C30.0219 20.8459 29.9524 20.8459 29.9524 20.9466C30.0219 20.913 29.9524 20.9802 30.0219 20.9802Z" fill="black"/>
<path d="M29.3614 19.8389C29.3266 19.9732 29.2571 19.7717 29.2571 19.906C29.2918 19.8724 29.3614 19.9732 29.3614 19.8389Z" fill="black"/>
<path d="M29.4309 21.0814C29.4657 21.2157 29.5004 21.0814 29.5699 21.115C29.5352 21.115 29.4657 20.9807 29.4309 21.0814Z" fill="black"/>
<path d="M28.8747 20.2085C28.8747 20.1077 28.9095 20.1077 28.9443 20.1413C28.9443 20.1749 28.9095 20.2085 28.9095 20.2421C28.979 20.1749 28.979 20.1749 29.0486 20.1413C28.979 20.0742 28.9095 20.0406 28.9095 19.9062C28.8748 20.007 28.84 20.1077 28.8747 20.2085Z" fill="black"/>
<path d="M29.292 21.0816C29.3268 21.1152 29.3615 21.2159 29.431 21.1824C29.431 21.1152 29.3963 21.0145 29.3268 21.048L29.3615 20.9473C29.292 20.8801 29.3963 21.0816 29.292 21.0816Z" fill="black"/>
<path d="M28.6313 19.9732L28.6661 20.0068C28.7356 19.906 28.8051 19.9732 28.8399 19.8389C28.7704 19.8389 28.6661 19.906 28.6313 19.9732Z" fill="black"/>
<path d="M29.0486 20.8795V21.0474C29.1181 21.0809 29.0486 20.9802 29.0833 20.9466C29.1181 20.9802 29.1181 20.9802 29.1529 20.9466C29.0486 20.9802 29.1181 20.8459 29.0486 20.8795Z" fill="black"/>
<path d="M28.84 21.0479L28.7705 21.115L28.84 21.2829C28.9095 21.2158 28.84 21.1822 28.84 21.0479Z" fill="black"/>
<path d="M28.7357 20.9473L28.5967 21.1488C28.6662 21.048 28.6662 21.0816 28.7357 20.9473Z" fill="black"/>
<path d="M27.1715 19.9728C27.1715 20.0399 27.241 20.1071 27.2063 20.0399C27.241 20.0064 27.1367 19.9056 27.1715 19.9728Z" fill="black"/>
<path d="M27.4844 21.1818C27.4497 21.1482 27.3454 21.2154 27.2759 21.2825C27.3454 21.2489 27.4844 21.2825 27.4844 21.1818Z" fill="black"/>
<path d="M25.1205 21.5851C25.1553 21.6187 25.2248 21.5515 25.2248 21.4844C25.1553 21.518 25.1205 21.5515 25.051 21.6187C25.0858 21.6187 25.1205 21.6523 25.1205 21.5851Z" fill="black"/>
<path d="M24.5994 21.5509C24.6341 21.5173 24.6689 21.5173 24.6689 21.4838C24.6341 21.4502 24.5994 21.5173 24.5994 21.5509Z" fill="black"/>
<path d="M21.1928 19.6708C21.1581 19.6372 21.1233 19.6708 21.1233 19.7715C21.1928 19.738 21.1581 19.6708 21.1928 19.6708Z" fill="black"/>
<path d="M21.0538 19.772V19.7049L21.019 19.6377L21.0538 19.772Z" fill="black"/>
<path d="M20.741 19.6371C20.741 19.6371 20.741 19.6035 20.7757 19.6035C20.741 19.6035 20.7062 19.6035 20.741 19.6371Z" fill="black"/>
<path d="M20.6365 19.6037L20.706 19.738C20.7755 19.6708 20.6365 19.6708 20.706 19.5029L20.6365 19.6037Z" fill="black"/>
<path d="M20.3933 19.6376C20.3237 19.6041 20.2542 19.8055 20.2195 19.6376C20.0457 19.7384 20.2542 19.9063 20.0457 19.9735C20.2195 20.0742 20.1499 19.6376 20.3237 19.7384C20.2542 19.6712 20.3933 19.7048 20.3933 19.6376Z" fill="black"/>
<path d="M20.428 19.9398C20.428 19.839 20.3585 19.839 20.3237 19.9062C20.3585 19.9062 20.3933 20.0405 20.428 19.9398Z" fill="black"/>
<path d="M20.0805 19.7381L20.011 19.6709V19.7045L20.0805 19.7381Z" fill="black"/>
<path d="M19.8718 19.7043L19.9066 19.6035C19.9066 19.6371 19.837 19.6371 19.8718 19.7043Z" fill="black"/>
<path d="M19.5937 19.5697C19.5589 19.5361 19.4894 19.7712 19.5937 19.704H19.5589C19.5937 19.6704 19.5241 19.6033 19.5937 19.5697Z" fill="black"/>
<path d="M18.9333 19.9392C18.9681 19.9392 19.0029 19.9057 19.0029 19.8721L18.9333 19.9392Z" fill="black"/>
<path d="M18.9333 20.4766C18.9681 20.6109 19.0029 20.4766 19.0724 20.5101C19.0376 20.4766 19.0376 20.4766 18.9333 20.4766Z" fill="black"/>
<path d="M18.8291 19.7384C18.8639 19.6712 18.8986 19.7048 18.8986 19.7384C18.8986 19.6376 18.8291 19.6712 18.8291 19.7384Z" fill="black"/>
<path d="M18.6899 19.7716C18.6552 19.7044 18.6899 19.7044 18.6899 19.6708C18.6204 19.6037 18.5509 19.6037 18.5161 19.7044C18.5161 19.7716 18.5509 19.9395 18.5161 20.0066C18.6204 19.9731 18.6552 19.7044 18.7247 19.9059L18.7942 19.6708C18.7247 19.5701 18.7594 19.8052 18.6899 19.7716Z" fill="black"/>
<path d="M18.8986 20.242L18.829 20.1748C18.829 20.242 18.7943 20.2755 18.7595 20.3091C18.7943 20.4435 18.8638 20.242 18.8986 20.242Z" fill="black"/>
<path d="M18.1339 19.8721L17.9949 19.9392H18.0296L18.1339 19.8721Z" fill="black"/>
<path d="M18.0295 19.8386V19.7715L17.96 19.8722L18.0295 19.8386Z" fill="black"/>
<path d="M17.9253 19.7719L17.9948 19.7383L17.9253 19.7719Z" fill="black"/>
<path d="M17.6819 19.7383L17.7166 19.8054C17.7514 19.7719 17.8209 19.8726 17.7862 19.7719C17.7514 19.8054 17.6819 19.8054 17.6819 19.7383Z" fill="black"/>
<path d="M16.8824 21.6187C16.9172 21.5851 16.8824 21.518 16.8824 21.4844L16.8477 21.6187C16.8477 21.6187 16.8824 21.5851 16.8824 21.6187Z" fill="black"/>
<path d="M16.7434 21.417L16.6392 21.5849C16.7434 21.6185 16.7434 21.4842 16.8477 21.4842C16.813 21.4506 16.7434 21.5513 16.7087 21.5177L16.7434 21.417Z" fill="black"/>
<path d="M15.0055 21.316C15.0055 21.2152 15.0055 21.2488 15.075 21.1816C14.9707 21.2488 14.9012 21.2152 14.7969 21.2488C14.7969 21.316 14.7274 21.4167 14.7622 21.3831L14.8665 21.316V21.3831C14.936 21.4503 14.936 21.2488 15.0055 21.316Z" fill="black"/>
<path d="M10.4865 20.3091C10.4865 20.2755 10.4865 20.2084 10.4865 20.1748C10.4169 20.242 10.4865 20.3091 10.4865 20.3091Z" fill="black"/>
</svg>
