<svg width="24" height="24" viewBox="0 0 24 24" fill="none" xmlns="http://www.w3.org/2000/svg">
<path d="M18.9517 12.3266C18.9726 12.246 18.9517 12.3065 18.9308 12.3065L18.9517 12.3266Z" fill="black"/>
<path d="M18.9309 12.3065L18.91 12.2863C18.91 12.3065 18.91 12.3065 18.9309 12.3065Z" fill="black"/>
<path d="M18.7223 12.2662C18.764 12.2057 18.8266 12.2863 18.8474 12.2057C18.8057 12.1453 18.7431 12.1654 18.7223 12.2662Z" fill="black"/>
<path d="M18.8058 12.3065V12.2662L18.764 12.3468L18.8058 12.3065Z" fill="black"/>
<path d="M18.8266 12.3468L18.764 12.3871L18.8266 12.3468Z" fill="black"/>
<path d="M18.5763 12.2259L18.618 12.2057C18.6597 12.2662 18.5972 12.2863 18.618 12.3266C18.6806 12.3266 18.6389 12.1856 18.7014 12.2057C18.7014 12.1453 18.5972 12.2057 18.5972 12.105C18.5554 12.105 18.5971 12.1856 18.5763 12.2259Z" fill="black"/>
<path d="M15.0516 12.8102L15.0308 12.79C15.0308 12.79 15.0308 12.8102 15.0516 12.8102Z" fill="black"/>
<path d="M16.2821 12.5684C16.303 12.5886 16.303 12.5886 16.303 12.5886C16.303 12.5684 16.303 12.5684 16.2821 12.5684Z" fill="black"/>
<path d="M14.2174 12.9512C14.1965 12.9512 14.1965 12.9512 14.1757 12.9512C14.1965 12.9714 14.1965 12.9512 14.2174 12.9512Z" fill="black"/>
<path d="M15.3019 12.9311L15.2811 12.9109C15.2811 12.9311 15.3019 12.9311 15.3019 12.9311Z" fill="black"/>
<path d="M17.8672 12.1252C17.8464 12.1252 17.8464 12.1252 17.8255 12.1252C17.8464 12.1453 17.8672 12.1453 17.8672 12.1252Z" fill="black"/>
<path d="M17.8463 12.1251C17.8255 12.0849 17.8255 11.964 17.7838 12.105V12.1251C17.7629 12.0849 17.742 12.1453 17.7212 12.1453C17.7212 12.1654 17.7212 12.1654 17.7212 12.1856C17.7212 12.1856 17.742 12.1856 17.7629 12.2057C17.8046 12.2259 17.8046 12.1453 17.8463 12.1251Z" fill="black"/>
<path d="M15.8233 12.7094C15.8233 12.7307 15.8453 12.7307 15.8233 12.7094V12.7094Z" fill="black"/>
<path d="M16.0527 12.6087H16.0319C16.0319 12.6087 16.0319 12.6288 16.0527 12.6087Z" fill="black"/>
<path d="M7.85624 11.7826C7.8771 11.7625 7.8771 11.8028 7.89796 11.8229C7.93967 11.7423 7.81453 11.8229 7.8771 11.7423C7.85624 11.7423 7.85624 11.7625 7.83539 11.7625L7.85624 11.8431C7.89796 11.8229 7.83539 11.8229 7.85624 11.7826Z" fill="black"/>
<path d="M11.2558 12.0445C11.2558 12.0042 11.2558 12.0042 11.2349 11.9841C11.214 12.0445 11.2558 12.1251 11.2141 12.1856C11.2141 12.1856 11.2349 12.1856 11.2558 12.1856C11.214 12.1453 11.2349 12.0848 11.2558 12.0445Z" fill="black"/>
<path d="M11.2349 12.1856C11.2349 12.2057 11.2349 12.2057 11.2349 12.2057H11.2558C11.2558 12.2057 11.2349 12.2057 11.2349 12.1856Z" fill="black"/>
<path d="M8.44019 11.8229C8.46214 11.8229 8.46214 11.8441 8.44019 11.8229C8.46214 11.8229 8.44019 11.8229 8.44019 11.8229Z" fill="black"/>
<path d="M14.2591 11.9035L14.28 11.8834C14.28 11.8834 14.2591 11.8834 14.2591 11.9035Z" fill="black"/>
<path d="M11.6729 12.1252L11.6938 12.1453C11.6938 12.1453 11.6938 12.1453 11.7146 12.1453L11.6729 12.1252Z" fill="black"/>
<path d="M10.2755 12.9311C10.2964 12.8303 10.2547 12.9311 10.2338 12.8908L10.213 12.9311C10.2338 12.9311 10.2547 12.9311 10.2755 12.9311Z" fill="black"/>
<path d="M9.46264 12.952C9.46264 12.9308 9.44068 12.9308 9.46264 12.952C9.44068 12.9308 9.46264 12.9308 9.46264 12.952Z" fill="black"/>
<path d="M11.4018 12.2259H11.5061L11.4852 12.2057C11.4644 12.2662 11.4018 12.1856 11.4018 12.2259Z" fill="black"/>
<path d="M10.7344 12.9714V13.0318C10.8387 12.9109 10.9638 13.0923 11.0472 12.9109C11.1724 13.1124 11.1306 12.7296 11.2558 12.9109V12.8908C11.6312 12.9311 12.0483 13.0318 12.4029 12.9311V12.9714C12.9868 13.0318 13.55 12.9512 14.1131 12.9915C14.1756 12.9512 14.1339 12.8706 14.1756 12.8303C14.1965 12.8303 14.2382 12.8303 14.2382 12.8706C14.1965 12.8908 14.2174 12.9512 14.2174 12.9512C14.2799 12.9512 14.3634 13.0117 14.4259 12.9512L14.3634 12.8706C14.3842 12.8505 14.4259 12.8706 14.4468 12.8706C14.4468 12.9109 14.4676 12.9714 14.4468 12.9915C14.5719 12.8303 14.5511 13.052 14.6345 12.9915C14.6553 12.8505 14.7805 12.7497 14.8639 12.649L14.9056 12.6893C14.843 12.6893 14.9056 12.79 14.843 12.79C14.9056 12.8303 14.9682 12.7699 15.0099 12.79C14.989 12.7497 15.0099 12.7095 15.0308 12.6893C15.0725 12.7095 15.0725 12.7699 15.1142 12.79L15.0725 12.8303C15.0933 12.8908 15.1142 12.8102 15.1559 12.8102C15.1559 12.8706 15.2185 12.8706 15.2185 12.9311C15.281 12.8505 15.3019 12.8908 15.3436 12.8505C15.281 12.79 15.3645 12.7699 15.3436 12.7296L15.281 12.7497C15.3853 12.79 15.2393 12.7699 15.2602 12.8505C15.2185 12.8102 15.3227 12.6893 15.2393 12.7095C15.3227 12.6692 15.3436 12.7095 15.4479 12.6289C15.3853 12.649 15.4687 12.5684 15.427 12.5281C15.4896 12.5281 15.4479 12.5684 15.4687 12.6289C15.5104 12.6289 15.5313 12.6893 15.5522 12.6087C15.6147 12.6289 15.5522 12.6893 15.573 12.7296C15.5522 12.79 15.4062 12.649 15.4062 12.8505C15.3645 12.8505 15.3436 12.9311 15.281 12.9311C15.3227 12.9512 15.3853 13.0318 15.427 12.9714V12.8505C15.4687 12.8505 15.4687 12.7699 15.5104 12.7699C15.4896 12.8102 15.5313 12.8505 15.5522 12.8505C15.5522 12.8303 15.5313 12.8303 15.5313 12.8102C15.5939 12.8102 15.5939 12.7296 15.6564 12.6893C15.5939 12.649 15.5939 12.6289 15.5313 12.5684C15.5522 12.4878 15.573 12.5483 15.5939 12.5483C15.5939 12.5684 15.573 12.5684 15.5939 12.5886L15.6356 12.5483C15.6982 12.5886 15.6356 12.6692 15.6773 12.7095C15.719 12.7699 15.7399 12.6692 15.7607 12.7095V12.6893H15.7816C15.8233 12.6692 15.865 12.6893 15.865 12.6289C15.865 12.649 15.9067 12.6289 15.9067 12.6087C15.9276 12.5886 15.9693 12.508 16.011 12.6087C16.0527 12.6289 16.0944 12.649 16.0944 12.6893L16.1778 12.7095V12.79C16.2404 12.7699 16.2404 12.7296 16.2821 12.6289C16.3238 12.6692 16.4073 12.6289 16.449 12.6087H16.4698L16.449 12.5684C16.5115 12.5684 16.4907 12.5281 16.5324 12.5281C16.5324 12.5281 16.5324 12.508 16.5533 12.5281H16.5741C16.5741 12.5281 16.5741 12.5281 16.5533 12.5281V12.5483C16.595 12.6289 16.6158 12.508 16.6575 12.5281H16.6367C16.6575 12.5483 16.6993 12.6692 16.7201 12.5886C16.7201 12.5886 16.741 12.5886 16.741 12.5684L16.7618 12.5886C16.7618 12.5886 16.741 12.5886 16.741 12.5684C16.7618 12.5483 16.7618 12.508 16.7618 12.5281L16.8244 12.5483C16.8452 12.5684 16.8452 12.5483 16.8661 12.5483L16.887 12.5886C16.9078 12.5886 16.9078 12.6087 16.9078 12.6087C16.9912 12.7296 17.0329 12.5483 17.1372 12.649C17.1581 12.5886 17.1164 12.5684 17.1164 12.5281C17.1372 12.4878 17.1789 12.4475 17.1998 12.4072C17.2415 12.4878 17.3666 12.5483 17.3458 12.6692C17.4292 12.6692 17.3249 12.6087 17.3666 12.5684C17.3458 12.5483 17.3249 12.508 17.3041 12.4677C17.3041 12.4072 17.3666 12.3871 17.3875 12.4072L17.3666 12.4878C17.4292 12.4475 17.4292 12.3266 17.4709 12.246C17.5335 12.2863 17.4918 12.3669 17.5126 12.4274L17.5752 12.4072V12.4677C17.6169 12.4475 17.6169 12.3871 17.6795 12.4072C17.6378 12.4677 17.7629 12.4677 17.7003 12.5483C17.7212 12.5684 17.7421 12.4475 17.7421 12.5281C17.7629 12.4677 17.7212 12.4878 17.7003 12.4677C17.6795 12.3669 17.7629 12.4274 17.8046 12.3871C17.8046 12.4475 17.7838 12.4475 17.8255 12.4878C17.8255 12.4475 17.8672 12.4274 17.8881 12.4677C17.8881 12.4072 17.9298 12.4475 17.9506 12.4677C17.9298 12.4475 17.8881 12.4072 17.9089 12.3468C17.9298 12.3266 17.9506 12.3065 17.9923 12.3065L17.9506 12.2662C17.9923 12.1654 18.0132 12.3266 18.0758 12.3065C18.0549 12.3468 18.034 12.3468 18.0132 12.3871C18.034 12.3468 18.0966 12.3065 18.1175 12.2863L18.1592 12.3871C18.1592 12.3468 18.2009 12.3871 18.2009 12.3266C18.2635 12.3669 18.1592 12.4072 18.1592 12.4475C18.2218 12.4878 18.2218 12.3468 18.2843 12.4475L18.2635 12.508C18.2843 12.508 18.326 12.4677 18.326 12.508C18.326 12.4878 18.3052 12.4878 18.3052 12.4878C18.326 12.3669 18.4095 12.3871 18.4095 12.2662H18.3677C18.4095 12.246 18.4512 12.1453 18.4929 12.2057C18.5137 12.246 18.472 12.3065 18.4512 12.3266C18.4929 12.3266 18.4929 12.1856 18.5346 12.1856C18.5137 12.1654 18.5137 12.1251 18.5346 12.0848C18.4929 12.0848 18.4303 12.0446 18.4512 12.105L18.472 12.1251C18.472 12.1654 18.4512 12.1654 18.4512 12.1856C18.4095 12.1856 18.4303 12.1251 18.4303 12.105C18.3677 12.0848 18.4303 12.246 18.3677 12.2259V12.2057C18.326 12.246 18.2843 12.246 18.2843 12.3266C18.2635 12.246 18.2009 12.3669 18.18 12.3065C18.18 12.1251 18.2843 12.3266 18.326 12.2057C18.2843 12.1654 18.3469 12.105 18.3677 12.0647L18.2635 12.1453C18.2635 12.1251 18.2218 12.0244 18.2009 12.0848C18.1592 12.105 18.1592 12.1856 18.1383 12.1654C18.1383 12.1453 18.1383 12.1251 18.1383 12.105C18.0966 12.0848 18.1175 12.1453 18.0966 12.1654C18.0549 12.1453 18.1175 12.0848 18.0758 12.0647C18.034 12.1453 18.0132 12.0446 17.9715 12.0446C17.9923 12.1453 17.8255 12.1856 17.9089 12.2863L17.8046 12.4677C17.7838 12.4072 17.8672 12.3065 17.8463 12.2259H17.9089C17.8881 12.0848 17.7629 12.3065 17.7212 12.1654C17.6795 12.1654 17.7003 12.1856 17.6378 12.105L17.6586 12.2259C17.6169 12.2057 17.6169 12.1251 17.6169 12.105C17.5961 12.105 17.5752 12.105 17.5544 12.105C17.5544 12.0848 17.5752 12.0647 17.5752 12.0647C17.5544 12.0043 17.5335 12.0244 17.5335 12.0647C17.5126 12.105 17.4918 12.0848 17.4709 12.0848L17.4918 12.0647C17.4709 12.0647 17.4709 12.0848 17.4709 12.105C17.4709 12.105 17.4501 12.105 17.4501 12.1251C17.4501 12.1453 17.4709 12.2259 17.4918 12.246C17.4084 12.2057 17.3458 12.2259 17.2832 12.1251C17.2832 12.0848 17.3041 12.0446 17.3041 12.0446C17.2624 12.0244 17.2415 12.0848 17.2415 12.1453H17.2207C17.2207 12.1251 17.1998 12.0848 17.1998 12.0848C17.1998 12.0647 17.1998 12.0647 17.1789 12.0647C17.1581 12.1654 17.0955 12.105 17.0955 12.1654C17.1164 12.1654 17.1372 12.1654 17.1581 12.1654C17.1372 12.2259 17.0955 12.3065 17.0747 12.246C17.1164 12.1856 17.0121 12.1453 17.0955 12.1251C17.0329 12.0043 17.0747 12.2057 17.0121 12.1654L16.9704 12.1251C16.9704 12.0647 17.033 12.0848 17.0121 12.0647H16.9912C17.0121 12.0043 17.1164 12.0446 17.1789 11.964L17.0538 11.9237C16.9078 12.0043 16.7201 11.9035 16.595 12.0647C16.595 12.0647 16.595 12.0848 16.595 12.105V12.0848L16.5741 12.1453C16.5533 12.0848 16.4907 12.0647 16.449 12.0244C16.4698 12.0647 16.4698 12.0647 16.4907 12.1251C16.4907 12.1856 16.4907 12.2259 16.4281 12.2057C16.4281 12.1654 16.449 12.1654 16.4281 12.1251C16.449 12.1453 16.4281 12.1856 16.4073 12.1856C16.3864 12.1453 16.3447 12.1453 16.3447 12.105C16.3656 12.0848 16.3656 12.105 16.3656 12.1251C16.3864 12.105 16.3238 12.0848 16.3447 12.0446L16.303 12.0647C16.2821 12.0244 16.3238 12.0043 16.303 11.964C16.2404 12.0043 16.1987 12.105 16.1361 12.1453C16.1361 12.1251 16.1361 12.0043 16.1361 12.0446C16.0944 12.0043 16.0319 12.1654 15.9693 12.1654C15.9693 12.1251 15.9901 12.1453 16.011 12.1251C15.8441 12.0848 15.6982 12.0848 15.5313 11.9841L15.4896 12.105L15.4062 11.964C15.2393 11.8834 15.0933 11.964 14.9265 12.0043C14.8848 12.0043 14.9056 11.9237 14.8639 11.9035C14.7596 11.8834 14.7179 12.0244 14.6136 12.0446C14.6345 12.0043 14.6553 11.9035 14.6136 11.9035C14.6136 11.9438 14.5928 11.9841 14.5719 11.964L14.5928 11.9237C14.5719 11.8632 14.5302 11.9237 14.4885 11.9035C14.3842 11.9035 14.3008 11.9841 14.2174 12.105C14.1339 12.0848 14.2174 11.9841 14.2174 11.964C14.2799 12.0043 14.2591 11.9438 14.2799 11.9035C14.2382 11.9438 14.2174 11.964 14.1965 11.8834C14.1548 11.8834 14.1339 11.8834 14.0922 11.9438C14.1131 11.9237 14.1339 11.964 14.1131 12.0043C14.0714 11.9841 13.9879 12.0043 13.9879 11.9035C13.7794 11.9237 13.5291 11.9035 13.2997 11.9035C13.258 11.964 13.3205 11.9237 13.2997 11.964C13.2371 12.0244 13.258 11.9237 13.2163 11.9841L13.2371 11.9237C13.1746 11.9237 13.0911 12.0244 13.0286 12.0647C13.0494 12.0043 12.966 12.0043 13.0286 11.9841C12.9868 12.0043 12.966 11.7222 12.9243 11.7625L12.966 12.0244C12.966 12.0446 12.9243 12.0244 12.9243 12.0446C12.9034 11.9841 12.8617 11.9237 12.8409 11.9237C12.8409 11.8632 12.8826 11.8632 12.9034 11.8834C12.9034 11.7826 12.82 11.8229 12.8617 11.702C12.7991 11.7222 12.8617 11.7625 12.8409 11.8028L12.7991 11.7826L12.8409 11.8229C12.7991 11.8632 12.7783 11.9438 12.7366 11.8834L12.674 11.9841C12.674 11.9035 12.6323 11.964 12.6114 11.9438L12.6323 11.8834C12.5906 11.8834 12.5697 11.8632 12.5489 11.8431C12.5697 11.7625 12.5906 11.8632 12.5906 11.7826L12.5489 11.7625C12.5489 11.8028 12.528 11.8431 12.5489 11.8834C12.5072 11.9841 12.4863 12.0446 12.382 12.0446C12.3403 11.964 12.4237 11.964 12.4029 11.8834C12.2986 11.8431 12.2777 12.105 12.2152 12.0848C12.1317 12.0446 12.1526 12.1251 12.0692 12.1251C12.09 12.0647 12.0066 12.0647 12.0066 12.0043L12.0275 11.9438C12.0066 11.964 11.9857 11.9438 11.9857 11.9035C11.9857 11.9841 11.8815 11.9841 11.8398 12.0043V12.0647C11.798 12.0848 11.7355 12.1251 11.6938 12.105C11.6312 12.1251 11.652 12.1856 11.5895 12.2662C11.5686 12.2057 11.5686 12.1453 11.5686 12.0647C11.5895 12.105 11.6103 12.0848 11.652 12.105C11.7355 12.0446 11.798 11.9035 11.8815 11.9438C11.9232 11.7826 11.8189 11.964 11.7772 11.9035V11.8834C11.798 11.8632 11.8606 11.8431 11.8606 11.7625C11.8189 11.7826 11.8189 11.9237 11.7563 11.8632C11.7146 11.9035 11.6729 11.7826 11.652 11.7625C11.6312 11.8229 11.6103 11.9438 11.5478 11.9237L11.5895 11.8431C11.5061 11.8431 11.5478 11.9841 11.4643 11.964C11.4852 11.9841 11.4435 12.0446 11.4852 12.0446C11.4643 12.0848 11.4018 12.105 11.3601 12.0848C11.3392 12.105 11.3601 12.1251 11.3601 12.1453C11.4018 12.2057 11.4435 12.0848 11.4643 12.1654L11.5061 12.0647C11.5478 12.105 11.5478 12.1856 11.5269 12.2259C11.5478 12.2259 11.5478 12.2057 11.5686 12.2259C11.5686 12.3669 11.5061 12.1654 11.5061 12.3065L11.5269 12.2863C11.5478 12.3871 11.4643 12.3669 11.4226 12.3669C11.3809 12.3266 11.3392 12.3065 11.3392 12.246L11.4018 12.2259C11.3601 12.1654 11.3183 12.2662 11.2975 12.246V12.2259V12.246L11.2766 12.2259C11.2558 12.2259 11.1932 12.2662 11.1724 12.246V12.3065V12.2662C11.1932 12.2662 11.2349 12.3065 11.2141 12.3468C11.1515 12.3871 11.1306 12.2662 11.1306 12.2259C11.1515 12.1251 11.1932 12.2259 11.2349 12.1856C11.2141 12.0848 11.1724 12.1856 11.1098 12.105C11.1306 12.0043 11.1932 12.105 11.1932 12.0043C11.1306 11.9841 11.1306 12.0647 11.0681 12.0244C11.0681 11.9841 11.1306 11.964 11.1306 11.9035L11.0889 11.8834C11.1724 11.8834 11.0681 11.7625 11.1515 11.7222C11.1098 11.6819 11.1098 11.8028 11.0681 11.7423C11.0889 11.7826 11.1098 11.8632 11.0681 11.9035L11.0264 11.8834C11.0055 11.8431 11.0889 11.7826 11.0472 11.7423L10.9847 11.7826C10.9847 11.8229 11.0055 11.8229 11.0055 11.8632C10.9847 11.8229 10.9638 11.9841 10.9221 12.0244C10.9012 12.0244 10.8804 12.0244 10.8595 11.9841C10.7969 12.0647 10.6927 12.0647 10.6301 12.1654C10.6718 12.105 10.6301 12.0647 10.6092 12.0244C10.6718 12.0043 10.6718 11.9237 10.651 11.8632C10.6092 11.8834 10.5884 11.964 10.6092 12.0043C10.5467 11.964 10.5675 12.0647 10.5258 12.0043C10.505 11.964 10.5467 11.9035 10.5258 11.8834C10.4632 11.8834 10.505 12.0043 10.4424 11.9841C10.4424 11.964 10.4424 11.964 10.4424 11.9438C10.4007 11.9237 10.3798 11.964 10.359 12.0244C10.3173 11.9035 10.2547 12.0446 10.2755 11.9237C10.1921 11.964 10.2964 11.9841 10.2755 12.0244C10.2338 12.0848 10.1713 12.0244 10.1713 12.0244C10.1921 12.0244 10.213 11.9841 10.2338 12.0043L10.213 11.9237C10.1087 11.8632 10.1504 12.105 10.0461 12.0446C10.0878 12.0043 10.067 11.9841 10.0878 11.9237C10.067 11.9438 10.0044 11.9237 10.0461 11.9841C10.0044 11.9841 9.98355 11.964 9.9627 11.9438C9.92098 11.9841 9.90013 12.0043 9.87927 12.0446C9.83756 12.0446 9.79585 11.9841 9.77499 11.9438C9.67071 12.0043 9.56643 11.9035 9.46215 11.964C9.37872 11.9438 9.50386 12.0848 9.39958 12.0647C9.42044 11.964 9.33701 12.0043 9.31615 11.9438C9.21187 11.8834 9.12845 12.0244 9.02417 11.9438C9.02417 11.9237 9.02417 11.9035 9.04502 11.9035C8.9616 11.8632 8.89903 11.8834 8.83646 11.8834V11.8632C8.73218 11.7826 8.6279 11.8834 8.50276 11.9035C8.50276 11.8834 8.52362 11.8431 8.52362 11.8431C8.46105 11.8229 8.37763 11.8028 8.33591 11.9035C8.27334 11.8028 8.2942 11.9438 8.18992 11.8431C8.18992 11.8229 8.18992 11.8229 8.21078 11.8229C8.16906 11.7826 8.12735 11.8028 8.08564 11.7826C7.98136 11.8431 7.9605 11.9841 7.83536 11.9438C7.83536 11.8028 7.89793 11.9035 7.91879 11.8028C7.89793 11.8229 7.87708 11.8632 7.83536 11.8229C7.85622 11.7625 7.83536 11.7826 7.85622 11.7423C7.75194 11.6617 7.68937 11.8431 7.68937 11.8431C7.68937 11.8632 7.68937 11.8834 7.71023 11.8834C7.68937 11.964 7.60595 11.8834 7.54338 11.9237C7.56423 11.9237 7.6268 11.9438 7.60595 12.0244C7.52252 12.0043 7.50166 12.1251 7.45995 12.1856C7.39738 12.1251 7.50166 12.0647 7.50166 11.964C7.48081 11.9237 7.45995 11.8431 7.50166 11.8028C7.4391 11.7826 7.39738 11.8632 7.33481 11.8834V11.8632C7.25139 11.8834 7.16797 12.0043 7.1054 11.9438L7.14711 11.9841C7.12625 12.0043 7.1054 11.9841 7.06368 12.0446C7.06368 12.0043 7.02197 11.964 7.04283 11.9237C7.00112 12.0647 6.87598 12.0043 6.83427 12.1453C6.81341 12.105 6.83427 12.0446 6.83427 12.0244C6.87598 12.0446 6.89683 12.0647 6.91769 12.0043C6.87598 12.0043 6.85512 11.964 6.85512 11.9438C6.81341 12.0446 6.70913 12.0647 6.68827 12.1654C6.66742 12.1251 6.6257 12.0848 6.64656 12.0244C6.52142 12.0647 6.70913 12.2662 6.56314 12.2662C6.50057 12.1856 6.6257 12.1654 6.54228 12.1453L6.56314 12.1251C6.50057 11.9237 6.52142 12.2662 6.438 12.2662C6.438 12.1654 6.47971 12.1856 6.438 12.105C6.37543 12.1251 6.33372 12.2863 6.27115 12.2662L6.292 12.2259C6.25029 12.2259 6.16687 12.2057 6.12516 12.2259C6.12516 12.2057 6.12516 12.2057 6.14601 12.2057C6.06259 12.1654 6.1043 12.2662 6.04173 12.1856L6.02087 12.246C6.06259 12.2863 6.12516 12.3266 6.16687 12.2662C6.12516 12.3266 6.22944 12.4072 6.20858 12.4878V12.4475C6.31286 12.6087 6.45885 12.6289 6.58399 12.6893C6.66742 12.5886 6.72998 12.7296 6.81341 12.649C6.83427 12.5281 6.83427 12.6289 6.91769 12.6087C6.87598 12.6289 6.91769 12.7095 6.93855 12.7296C6.9594 12.6893 6.98026 12.6893 7.00112 12.6692C7.02197 12.7095 7.12625 12.8102 7.14711 12.7296C7.18882 12.7699 7.12625 12.7699 7.12625 12.79C7.14711 12.8505 7.16797 12.7497 7.18882 12.79V12.8102C7.27225 12.8102 7.31396 12.8303 7.37653 12.8505C7.37653 12.7296 7.45995 12.8102 7.48081 12.7699C7.45995 12.8102 7.52252 12.8102 7.54338 12.8303L7.58509 12.7296C7.6268 12.649 7.64766 12.79 7.68937 12.7497L7.64766 12.6692C7.68937 12.6289 7.79365 12.7095 7.81451 12.7699C8.16906 12.5281 8.35677 12.9109 8.73218 12.8303C8.75304 12.79 8.71132 12.7699 8.73218 12.7095C8.77389 12.6893 8.77389 12.7095 8.81561 12.6893C8.79475 12.649 8.79475 12.6893 8.79475 12.6692L8.73218 12.7095C8.73218 12.7095 8.73218 12.6893 8.73218 12.6692C8.71132 12.6893 8.69047 12.7095 8.66961 12.6893C8.71132 12.649 8.71132 12.5684 8.75304 12.6087C8.75304 12.6289 8.75304 12.6289 8.73218 12.6289C8.77389 12.6289 8.77389 12.5886 8.79475 12.6087C8.83646 12.6289 8.81561 12.6087 8.81561 12.649L8.91989 12.6893C8.98246 12.5886 9.04502 12.6893 9.04502 12.6893C9.02417 12.7699 8.98246 12.7095 8.94074 12.79L8.98246 12.8505V12.79L9.04502 12.8102V12.8303C9.04502 12.8102 9.06588 12.7699 9.06588 12.8102C9.06588 12.8102 9.06588 12.8303 9.06588 12.8505L9.10759 12.8102C9.08674 12.8706 9.1493 12.8303 9.12845 12.9109C9.25359 12.9512 9.2953 12.8102 9.39958 12.9109C9.37872 12.8706 9.44129 12.79 9.46215 12.8102C9.483 12.8303 9.483 12.8505 9.483 12.8706L9.52472 12.8303C9.58728 12.9512 9.629 12.8706 9.71242 12.9109V12.9512C9.73328 12.9109 9.77499 12.8706 9.8167 12.8908V12.9512C9.87927 12.9915 9.85842 12.8102 9.92098 12.8505C9.92098 12.7699 9.87927 12.7296 9.87927 12.6692C9.90013 12.7497 9.9627 12.7497 9.94184 12.7095C10.0044 12.6893 9.98355 12.7095 9.98355 12.7296L10.0253 12.6893C10.067 12.6893 10.0461 12.79 10.0253 12.8303C10.067 12.7497 10.1087 12.8102 10.1504 12.8102L10.1713 12.8706L10.2338 12.8908C10.2755 12.8303 10.3173 12.8303 10.3798 12.8505L10.3381 12.9512C10.3798 13.0117 10.359 12.9109 10.359 12.9109C10.4215 12.8706 10.4215 12.9311 10.4632 12.9915C10.5675 12.8706 10.651 13.1124 10.7344 12.9714ZM16.9078 12.6087C16.9078 12.5684 16.9287 12.5483 16.9078 12.6087V12.6087ZM16.4073 12.5684C16.4698 12.5281 16.449 12.5684 16.449 12.6087C16.3864 12.5886 16.3656 12.6087 16.303 12.5886C16.303 12.6087 16.303 12.6289 16.3238 12.649C16.303 12.649 16.2821 12.6289 16.2821 12.5684C16.303 12.4677 16.4281 12.6289 16.4073 12.5684ZM17.5126 12.105V12.1251V12.105ZM17.2207 12.1856C17.2207 12.1654 17.1998 12.1453 17.1998 12.1453C17.2207 12.1654 17.2207 12.1856 17.2207 12.1856ZM16.6367 12.0647C16.6158 12.0244 16.595 12.0446 16.5741 12.0446C16.595 12.0446 16.6158 12.0647 16.6367 12.0647ZM12.966 12.105C12.9868 12.0848 13.0077 12.0446 12.9868 12.0244C12.966 12.0647 12.9451 12.0043 12.9243 12.0446C12.9451 12.0848 12.9451 12.105 12.966 12.105ZM11.2349 12.4274C11.2349 12.3871 11.2558 12.3468 11.2349 12.3065C11.2349 12.2863 11.2349 12.2863 11.2349 12.2662C11.2141 12.2662 11.2141 12.246 11.1932 12.2662C11.1932 12.4072 11.1724 12.4274 11.2349 12.4274Z" fill="black"/>
<path d="M11.1932 12.2863C11.1932 12.2863 11.2141 12.3065 11.2349 12.3266C11.2349 12.3065 11.2141 12.2863 11.1932 12.2863Z" fill="black"/>
<path d="M18.472 12.5281L18.4929 12.5886C18.5554 12.5483 18.5554 12.4878 18.5763 12.4274C18.5346 12.4878 18.4929 12.4677 18.4303 12.4677L18.472 12.5281Z" fill="black"/>
<path d="M18.4512 12.105C18.4512 12.0849 18.4303 12.0446 18.4303 12.0446V12.0849L18.4512 12.105Z" fill="black"/>
<path d="M17.7629 11.9035L17.8255 11.9438C17.8464 11.9035 17.7838 11.8431 17.7629 11.9035Z" fill="black"/>
<path d="M18.0132 12.5886L18.0341 12.5483C18.0132 12.508 17.9715 12.508 17.9715 12.5684C18.0132 12.5483 17.9715 12.5886 18.0132 12.5886Z" fill="black"/>
<path d="M17.617 11.9035C17.5961 11.9841 17.5544 11.8632 17.5544 11.9438C17.5752 11.9237 17.617 11.9841 17.617 11.9035Z" fill="black"/>
<path d="M17.6586 12.649C17.6795 12.7296 17.7003 12.649 17.7421 12.6692C17.7212 12.6692 17.6795 12.5886 17.6586 12.649Z" fill="black"/>
<path d="M17.3249 12.1252C17.3249 12.0647 17.3458 12.0647 17.3666 12.0849C17.3666 12.105 17.3458 12.1252 17.3458 12.1453C17.3875 12.105 17.3875 12.105 17.4292 12.0849C17.3875 12.0446 17.3458 12.0244 17.3458 11.9438C17.3249 12.0043 17.3041 12.0647 17.3249 12.1252Z" fill="black"/>
<path d="M17.5752 12.649C17.5961 12.6691 17.6169 12.7296 17.6586 12.7094C17.6586 12.6691 17.6378 12.6087 17.5961 12.6288L17.6169 12.5684C17.5752 12.5281 17.6378 12.649 17.5752 12.649Z" fill="black"/>
<path d="M17.179 11.9841L17.1998 12.0042C17.2415 11.9438 17.2832 11.9841 17.3041 11.9035C17.2624 11.9035 17.1998 11.9438 17.179 11.9841Z" fill="black"/>
<path d="M17.4292 12.5281V12.6288C17.4709 12.649 17.4292 12.5885 17.4501 12.5684C17.4709 12.5885 17.4709 12.5885 17.4918 12.5684C17.4292 12.5885 17.4709 12.508 17.4292 12.5281Z" fill="black"/>
<path d="M17.3041 12.6288L17.2624 12.6691L17.3041 12.7699C17.3458 12.7296 17.3041 12.7094 17.3041 12.6288Z" fill="black"/>
<path d="M17.2415 12.5684L17.1581 12.6893C17.1998 12.6289 17.1998 12.649 17.2415 12.5684Z" fill="black"/>
<path d="M16.303 11.9841C16.303 12.0244 16.3447 12.0647 16.3238 12.0244C16.3447 12.0043 16.2821 11.9438 16.303 11.9841Z" fill="black"/>
<path d="M16.4907 12.7095C16.4698 12.6893 16.4073 12.7296 16.3655 12.7699C16.4073 12.7498 16.4907 12.7699 16.4907 12.7095Z" fill="black"/>
<path d="M15.0725 12.9512C15.0933 12.9714 15.135 12.9311 15.135 12.8908C15.0933 12.9109 15.0725 12.9311 15.0308 12.9714C15.0516 12.9714 15.0725 12.9915 15.0725 12.9512Z" fill="black"/>
<path d="M14.7596 12.9311C14.7805 12.9109 14.8014 12.9109 14.8014 12.8908C14.7805 12.8706 14.7596 12.9109 14.7596 12.9311Z" fill="black"/>
<path d="M12.7157 11.8028C12.6949 11.7826 12.674 11.8028 12.674 11.8632C12.7157 11.8431 12.6949 11.8028 12.7157 11.8028Z" fill="black"/>
<path d="M12.6323 11.8632V11.8229L12.6115 11.7826L12.6323 11.8632Z" fill="black"/>
<path d="M12.4446 11.7826C12.4446 11.7826 12.4446 11.7625 12.4655 11.7625C12.4446 11.7625 12.4238 11.7625 12.4446 11.7826Z" fill="black"/>
<path d="M12.382 11.7625L12.4237 11.8431C12.4654 11.8028 12.382 11.8028 12.4237 11.702L12.382 11.7625Z" fill="black"/>
<path d="M12.236 11.7826C12.1943 11.7625 12.1526 11.8834 12.1317 11.7826C12.0275 11.8431 12.1526 11.9438 12.0275 11.9841C12.1317 12.0445 12.09 11.7826 12.1943 11.8431C12.1526 11.8028 12.236 11.8229 12.236 11.7826Z" fill="black"/>
<path d="M12.2568 11.9639C12.2568 11.9035 12.2151 11.9035 12.1943 11.9438C12.2151 11.9438 12.236 12.0244 12.2568 11.9639Z" fill="black"/>
<path d="M12.0483 11.8431L12.0066 11.8028V11.8229L12.0483 11.8431Z" fill="black"/>
<path d="M11.9232 11.8229L11.9441 11.7625C11.9441 11.7826 11.9023 11.7826 11.9232 11.8229Z" fill="black"/>
<path d="M11.7563 11.7423C11.7355 11.7222 11.6937 11.8632 11.7563 11.8229H11.7355C11.7563 11.8028 11.7146 11.7625 11.7563 11.7423Z" fill="black"/>
<path d="M11.36 11.9639C11.3809 11.9639 11.4018 11.9438 11.4018 11.9236L11.36 11.9639Z" fill="black"/>
<path d="M11.36 12.2863C11.3809 12.3669 11.4018 12.2863 11.4435 12.3065C11.4226 12.2863 11.4226 12.2863 11.36 12.2863Z" fill="black"/>
<path d="M11.2975 11.8431C11.3183 11.8028 11.3392 11.8229 11.3392 11.8431C11.3392 11.7826 11.2975 11.8028 11.2975 11.8431Z" fill="black"/>
<path d="M11.2141 11.8632C11.1932 11.8229 11.2141 11.8229 11.2141 11.8028C11.1724 11.7625 11.1307 11.7625 11.1098 11.8229C11.1098 11.8632 11.1307 11.964 11.1098 12.0043C11.1724 11.9841 11.1932 11.8229 11.2349 11.9438L11.2767 11.8028C11.2349 11.7423 11.2558 11.8834 11.2141 11.8632Z" fill="black"/>
<path d="M11.3392 12.1453L11.2975 12.105C11.2975 12.1453 11.2767 12.1654 11.2558 12.1856C11.2767 12.2662 11.3184 12.1453 11.3392 12.1453Z" fill="black"/>
<path d="M10.8804 11.9236L10.7969 11.9639H10.8178L10.8804 11.9236Z" fill="black"/>
<path d="M10.8178 11.9035V11.8632L10.7761 11.9237L10.8178 11.9035Z" fill="black"/>
<path d="M10.7552 11.8632L10.797 11.8431L10.7552 11.8632Z" fill="black"/>
<path d="M10.6093 11.8431L10.6301 11.8834C10.651 11.8632 10.6927 11.9237 10.6718 11.8632C10.651 11.8834 10.6093 11.8834 10.6093 11.8431Z" fill="black"/>
<path d="M10.1296 12.9714C10.1504 12.9512 10.1296 12.9109 10.1296 12.8908L10.1087 12.9714C10.1087 12.9714 10.1296 12.9512 10.1296 12.9714Z" fill="black"/>
<path d="M10.0461 12.8505L9.98358 12.9512C10.0461 12.9714 10.0462 12.8908 10.1087 12.8908C10.0879 12.8706 10.0462 12.9311 10.0253 12.9109L10.0461 12.8505Z" fill="black"/>
<path d="M9.00333 12.79C9.00333 12.7296 9.00333 12.7497 9.04505 12.7094C8.98248 12.7497 8.94077 12.7296 8.8782 12.7497C8.8782 12.79 8.83649 12.8505 8.85734 12.8303L8.91991 12.79V12.8303C8.96162 12.8706 8.96162 12.7497 9.00333 12.79Z" fill="black"/>
<path d="M6.29204 12.1856C6.29204 12.1654 6.29204 12.1251 6.29204 12.105C6.25033 12.1453 6.29204 12.1856 6.29204 12.1856Z" fill="black"/>
</svg>
