<svg width="41" height="42" viewBox="0 0 41 42" fill="none" xmlns="http://www.w3.org/2000/svg">
<path fill-rule="evenodd" clip-rule="evenodd" d="M4.5596 13.9376C4.93139 13.4935 5.5959 13.4346 6.04003 13.8081C17.8616 23.7371 23.3813 39.1993 23.6101 39.8503C23.8036 40.4004 23.5142 40.9993 22.9675 41.1911C22.8514 41.2315 22.7336 41.25 22.6175 41.25C22.1852 41.25 21.7781 40.9791 21.6267 40.5485C21.5711 40.3937 16.0599 24.9703 4.68745 15.4181C4.24332 15.0446 4.18444 14.3818 4.5596 13.9376ZM40.717 0.75L40.8012 1.85696C40.8466 2.43063 41.8375 16.0035 37.7175 22.7866C33.579 29.6033 28.5842 31.6961 26.1415 32.3354C26.2542 33.434 26.2525 34.1237 26.2508 34.228C26.2441 34.8067 25.7596 35.2055 25.1876 35.266C24.6072 35.2593 24.1429 34.7832 24.1479 34.2028L24.1473 34.1208C24.1326 33.1806 23.8051 24.4122 17.163 17.452C11.5558 11.579 4.66339 10.5781 2.15002 10.4115C2.09618 12.4404 2.06422 17.1004 2.74892 20.9512C3.797 26.8242 6.52403 34.9968 18.0815 38.1276C18.6417 38.2807 18.9715 38.8577 18.8201 39.418C18.6939 39.8873 18.2683 40.1952 17.8056 40.1952C17.7148 40.1952 17.6222 40.1834 17.5297 40.1582C3.35119 36.3141 1.34083 25.0291 0.679678 21.3196C0.155357 18.3775 0.0266918 15.0708 0.0184879 12.666L0.0183716 12.1974C0.023237 10.5261 0.0830172 9.38531 0.0891857 9.27428L0.139656 8.31704L1.09857 8.28003C1.48214 8.26321 10.2201 8.04283 17.6593 15.0076C19.641 11.643 26.1028 2.68298 39.6151 0.894678L40.717 0.75ZM38.7656 3.15066C26.3148 5.26533 20.5327 14.1934 19.1935 16.5755C20.5899 18.1266 21.712 19.7332 22.6103 21.323C24.1278 18.6969 27.6488 13.3438 34.4286 6.47996C34.8374 6.06611 35.5019 6.06443 35.9157 6.46986C36.3279 6.87867 36.3329 7.54486 35.9241 7.95703C27.9382 16.0439 24.5551 22.0632 23.7661 23.5874C24.8831 26.0705 25.4988 28.3971 25.837 30.2409C28.0189 29.6269 32.2735 27.704 35.9208 21.6965C39.0448 16.5503 38.9102 6.51697 38.7656 3.15066Z" fill="white"/>
</svg>
