<svg width="24" height="24" viewBox="0 0 24 24" fill="none" xmlns="http://www.w3.org/2000/svg">
<path d="M9.47076 20.4844C11.0888 20.4844 12.4005 19.1727 12.4005 17.5547C12.4005 15.9367 11.0888 14.625 9.47076 14.625C7.85274 14.625 6.54108 15.9367 6.54108 17.5547C6.54108 19.1727 7.85274 20.4844 9.47076 20.4844Z" fill="black"/>
<path d="M12.9629 17.5312C12.9629 17.5547 13.0567 17.5547 13.0801 17.5547C13.0332 17.4844 12.9395 17.5312 12.9629 17.5312Z" fill="black"/>
<path d="M12.6817 17.0156H12.7286L12.6348 16.9688L12.6817 17.0156Z" fill="black"/>
<path d="M12.5879 16.5703C12.4473 16.6641 12.6582 16.7344 12.6114 16.8281L12.5879 16.8516H12.7285C12.6817 16.7578 12.5645 16.6406 12.5879 16.5703Z" fill="black"/>
<path d="M12.8458 16.1953C12.7989 16.2422 12.7755 16.1484 12.8458 16.2656C12.8458 16.2656 12.8458 16.2656 12.8458 16.2422C12.8458 16.2422 12.8458 16.2188 12.8458 16.1953Z" fill="black"/>
<path d="M12.8458 16.2422C12.8692 16.2891 12.8926 16.1953 12.8458 16.2422V16.2422Z" fill="black"/>
<path d="M12.7286 16.0313L12.8223 16.0781C12.8458 16.0547 12.8223 15.9844 12.8692 16.0078C12.7989 15.9375 12.752 15.9609 12.7286 16.0313Z" fill="black"/>
<path d="M12.588 16.0312L12.6348 16.0547C12.6348 16.0312 12.6348 16.0312 12.588 16.0312Z" fill="black"/>
<path d="M12.7051 16.1016L12.6348 16.0547C12.6114 16.0781 12.5645 16.1016 12.6583 16.0781C12.6114 16.0781 12.6583 16.0781 12.7051 16.1016Z" fill="black"/>
<path d="M12.7051 16.1484C12.6817 16.1953 12.6817 16.2422 12.6114 16.2188C12.6583 16.3125 12.7755 16.2656 12.7051 16.1484Z" fill="black"/>
<path d="M12.4239 16.5938C12.4239 16.6172 12.4005 16.6406 12.4005 16.6406L12.4708 16.6641C12.4239 16.6641 12.4708 16.5703 12.4239 16.5938Z" fill="black"/>
<path d="M12.588 15.6094C12.5645 15.6328 12.5176 15.6797 12.4942 15.7031L12.5645 15.7266C12.5411 15.6797 12.5411 15.6328 12.588 15.6094Z" fill="black"/>
<path d="M12.4708 15.7031L12.377 15.6797C12.4239 15.7266 12.4473 15.7266 12.4708 15.7031Z" fill="black"/>
<path d="M12.4239 16.1016L12.588 16.1484L12.4005 16.0781L12.4239 16.1016Z" fill="black"/>
<path d="M12.4239 15.3516L12.5176 15.3281H12.3536L12.4239 15.3516Z" fill="black"/>
<path d="M12.2833 15.1875C12.3536 15.1641 12.3301 15.0703 12.4005 15.0703C12.3536 15.0234 12.2833 15.0469 12.213 15.0469C12.2598 15.0703 12.2833 15.1172 12.2833 15.1875Z" fill="black"/>
<path d="M12.3301 15.5391C12.3536 15.5156 12.377 15.4687 12.377 15.4219L12.3067 15.5156C12.3301 15.5391 12.3301 15.5391 12.3301 15.5391Z" fill="black"/>
<path d="M12.3067 15.5156C12.2833 15.4922 12.2833 15.4688 12.2833 15.4688C12.2833 15.4688 12.2833 15.4922 12.3067 15.5156Z" fill="black"/>
<path d="M12.4005 15.8906C12.3301 15.8906 12.2364 15.8438 12.213 15.961C12.2833 15.9375 12.3067 15.8672 12.4005 15.8906Z" fill="black"/>
<path d="M12.2598 15.6562C12.2598 15.6797 12.2833 15.7031 12.2833 15.7266C12.3067 15.7031 12.3301 15.6797 12.3536 15.6797C12.3301 15.6797 12.2833 15.6562 12.2598 15.6562Z" fill="black"/>
<path d="M12.213 15.6328L12.2598 15.6562L12.2364 15.6328H12.213Z" fill="black"/>
<path d="M12.1192 15.2109C12.0723 15.2109 12.0255 15.1875 12.002 15.1641C12.0255 15.2109 12.0489 15.2578 12.0723 15.2812C12.0958 15.2812 12.1661 15.2578 12.1192 15.2109Z" fill="black"/>
<path d="M12.0723 15.3047C12.0723 15.3516 12.1192 15.3516 12.1426 15.3281C12.1192 15.3281 12.0957 15.3047 12.0723 15.3047C12.0723 15.3047 12.0489 15.3047 12.0723 15.3047Z" fill="black"/>
<path d="M11.9786 15C11.9786 15.0234 11.9786 15.0469 11.9786 15.0937C12.002 15.0469 12.002 14.9765 11.9786 15Z" fill="black"/>
<path d="M12.213 15.3516C12.2364 15.3281 12.2364 15.3281 12.213 15.3516V15.3516Z" fill="black"/>
<path d="M12.2129 15.3516C12.1895 15.3516 12.1661 15.3516 12.1426 15.3516C12.1661 15.3516 12.1895 15.375 12.2129 15.375C12.2129 15.3516 12.2129 15.3516 12.2129 15.3516Z" fill="black"/>
<path d="M11.2051 15.3047C11.252 15.2344 11.3926 15.2109 11.3692 15.3281C11.463 15.3281 11.627 15.0703 11.6973 14.8828C11.6739 14.9062 11.6505 14.9297 11.5567 14.9297C11.5567 14.9766 11.6036 15.1172 11.5098 15.1406C11.4161 15.1172 11.463 15.0703 11.463 15C11.4161 15.1172 11.252 15.0703 11.1817 15.2109H11.2755C11.252 15.2578 11.2051 15.2813 11.2051 15.3047Z" fill="black"/>
<path d="M11.7911 15L11.8145 15.0234C11.7911 14.9766 11.8145 14.9297 11.8145 14.8594C11.7442 14.8594 11.7208 14.8828 11.6973 14.9063L11.7911 15Z" fill="black"/>
<path d="M11.9317 15.1172C11.838 15.1641 11.7676 15.1406 11.7208 15.2578C11.7911 15.3047 11.8145 15.2344 11.8848 15.2578C11.7676 15.1641 11.9551 15.2578 11.9317 15.1172C11.9551 15.1406 11.9786 15.1641 12.002 15.1641C12.002 15.1406 11.9786 15.0937 11.9786 15.0703C11.9786 15.0937 11.9786 15.0937 11.9786 15.0703C11.9551 15.0937 11.9551 15.1172 11.9317 15.1172C11.9083 15.0703 11.9551 15.0937 11.9551 15.0937H11.9786C11.9317 15.0703 11.8848 15.0469 11.838 15.0234C11.838 15.0469 11.8848 15.0703 11.9317 15.1172Z" fill="black"/>
<path d="M11.9786 16.0078C11.9786 15.9844 12.002 15.9844 11.9786 16.0078C11.9786 15.9844 11.9786 15.9844 11.9786 16.0078Z" fill="black"/>
<path d="M12.002 15.9141C12.0255 15.9141 12.0489 15.8906 12.0723 15.9375C12.0723 15.9844 12.0255 15.9609 12.002 15.9844C12.0255 15.9844 12.0958 16.0078 12.1192 15.9375H12.0958C12.0958 15.8672 12.1661 15.75 12.1895 15.75C12.0958 15.7969 12.0723 15.8437 12.002 15.9141Z" fill="black"/>
<path d="M11.9786 15.5391C11.9317 15.5156 11.9083 15.4922 11.8614 15.4688L11.838 15.5625L11.8848 15.5156C11.9083 15.6094 11.9317 15.5625 11.9786 15.5391Z" fill="black"/>
<path d="M11.7208 14.8359L11.7911 14.7656C11.7442 14.7891 11.6973 14.8125 11.627 14.8359H11.7208Z" fill="black"/>
<path d="M11.5801 14.7422L11.627 14.6719H11.5567L11.5801 14.7422Z" fill="black"/>
<path d="M7.36139 18.5859L7.31451 18.6094C7.33795 18.5859 7.36139 18.5859 7.36139 18.5859Z" fill="black"/>
<path d="M7.61916 14.5781C7.52541 14.5312 7.38479 14.4609 7.4551 14.5312L7.52541 14.6016C7.57228 14.5781 7.59572 14.5547 7.61916 14.5781Z" fill="black"/>
<path d="M6.63483 16.9687H6.65826C6.63483 16.9453 6.58795 16.9453 6.56451 16.9219C6.58795 16.9453 6.61139 16.9453 6.63483 16.9687Z" fill="black"/>
<path d="M7.03326 17.0859L6.96295 17.1328C6.98639 17.1094 7.00983 17.1094 7.03326 17.0859Z" fill="black"/>
<path d="M8.20514 19.4063L8.27545 19.3359C8.25201 19.3125 8.22858 19.3594 8.20514 19.4063Z" fill="black"/>
<path d="M9.96295 14.1094C9.91608 14.0625 9.89264 14.0391 9.84576 14.0391C9.91608 14.0859 9.93951 14.1797 9.96295 14.1094Z" fill="black"/>
<path d="M9.70514 14.0156L9.72858 14.0391C9.77545 14.0156 9.79889 14.0156 9.84577 14.0156C9.82233 13.9922 9.77545 13.9453 9.70514 14.0156Z" fill="black"/>
<path d="M12.7989 18C12.7989 18.0234 12.7989 18.0469 12.7989 18.0703C12.7989 18.0469 12.8223 18.0234 12.7989 18Z" fill="black"/>
<path d="M10.9942 14.3438C11.0411 14.3438 11.0176 14.3203 10.9942 14.3438V14.3438Z" fill="black"/>
<path d="M10.9708 14.7656C10.9708 14.7656 10.9473 14.7891 10.9473 14.8125C10.9473 14.7891 10.9708 14.7656 10.9708 14.7656Z" fill="black"/>
<path d="M11.0411 14.4141C11.0411 14.3906 11.0176 14.3906 11.0176 14.3672C11.0176 14.3672 11.0176 14.3906 11.0411 14.4141Z" fill="black"/>
<path d="M11.0411 14.3672L11.0645 14.3906C11.088 14.3672 11.088 14.3672 11.0411 14.3672Z" fill="black"/>
<path d="M10.9473 14.3203C10.9708 14.3203 10.9942 14.3437 10.9942 14.3672V14.3437C10.9942 14.3437 10.9708 14.3203 10.9473 14.3203Z" fill="black"/>
<path d="M9.82233 20.1328C9.84576 20.0859 9.82233 20.1094 9.82233 20.1328V20.1328Z" fill="black"/>
<path d="M7.68952 15.8906V15.8672L7.66608 15.8906H7.68952Z" fill="black"/>
<path d="M7.66608 16.0078C7.59576 15.8906 7.6192 15.8906 7.66608 15.8906L7.4317 15.7266C7.52545 15.7969 7.59576 15.9141 7.66608 16.0078Z" fill="black"/>
<path d="M7.73637 19.1016L7.7598 19.0078C7.92387 18.9609 7.90043 19.0312 7.97074 18.9141C7.85356 19.0078 7.80668 18.9844 7.7598 18.9375C7.71293 18.8906 7.68949 18.8672 7.54887 18.9375L7.57231 18.8672C7.57231 18.8672 7.59574 18.8672 7.59574 18.8906C7.66605 18.75 7.36137 18.9844 7.36137 18.8672C7.36137 18.8203 7.3848 18.7734 7.43168 18.7734L7.31449 18.75C7.31449 18.7266 7.36137 18.7031 7.36137 18.7266C7.33793 18.7031 7.31449 18.6562 7.29105 18.6328C7.24418 18.6328 7.15043 18.6328 7.10356 18.6328C7.12699 18.5859 7.15043 18.6328 7.17387 18.6094C7.15043 18.6094 7.10355 18.5859 7.08012 18.5859C7.15043 18.5391 7.24418 18.5391 7.24418 18.5859C7.50199 18.3984 7.15043 18.5625 7.26762 18.375L7.31449 18.4219C7.47855 18.3281 7.3848 18.3047 7.47855 18.2109C7.43168 18.2344 7.26762 18.4219 7.15043 18.3984C7.17387 18.375 7.17387 18.3516 7.10356 18.3281C7.22074 18.3047 7.17387 18.2578 7.15043 18.2109L7.29105 18.1641C7.24418 18.1172 7.17387 18.1406 7.08012 18.1406C7.08012 18.0703 7.1973 18.0469 7.29105 18.0234C7.29105 17.9297 7.12699 18.1172 7.08012 18.0234C7.12699 17.9297 7.05668 17.9062 6.96293 17.8125C7.0098 17.7422 7.05668 17.8125 7.10356 17.7891L6.98637 17.7422C6.98637 17.7187 7.03324 17.7422 7.03324 17.7422C6.98637 17.6953 6.89262 17.7422 6.84574 17.6719C6.75199 17.6719 6.82231 17.625 6.86918 17.5781C6.93949 17.5312 6.98637 17.4844 6.89262 17.4375C6.93949 17.4141 6.98637 17.4609 7.03324 17.4609C6.91606 17.3437 6.93949 17.3672 6.79887 17.25L6.91606 17.1797C6.79887 17.2266 6.68168 17.1328 6.58793 17.0391C6.54105 17.0625 6.47074 17.0625 6.44731 17.0859C6.42387 17.0391 6.40043 16.9922 6.40043 16.9453C6.42387 16.9453 6.47074 16.9687 6.54105 16.9922L6.51762 16.9687C6.58793 16.9453 6.65824 16.9922 6.72855 17.0391C6.70512 17.0391 6.65824 17.0625 6.63481 17.0625C6.72856 17.1094 6.8223 17.1562 6.89262 17.1562C6.86918 17.1562 6.86918 17.1328 6.86918 17.1094C6.89262 17.1328 6.91605 17.1328 6.93949 17.1328C6.96293 17.1328 6.91605 17.1094 6.89262 17.0859L7.05668 17.1094L6.98637 17.0859L7.12699 16.9922C6.98637 16.8516 6.79887 16.6875 6.79887 16.5C6.89262 16.5937 6.98637 16.5937 7.10356 16.6406C6.93949 16.6172 7.12699 16.7812 7.05668 16.8516C7.08012 16.8281 7.15043 16.8516 7.17387 16.875C7.15043 16.8281 7.12699 16.7578 7.08012 16.6875C7.1973 16.7344 7.17387 16.6875 7.24418 16.6875C7.0098 16.6172 7.15043 16.5234 7.10356 16.4297C7.17387 16.4531 7.24418 16.5234 7.1973 16.5703C7.3848 16.5937 6.98637 16.3594 7.17387 16.3594C7.17387 16.3828 7.15043 16.3828 7.17387 16.4062C7.12699 16.3359 7.24418 16.2656 7.29105 16.3359V16.3594C7.36137 16.2656 7.50199 16.0781 7.36137 15.9375C7.3848 15.9609 7.52543 16.1016 7.57231 16.125C7.43168 15.9375 7.33793 15.7266 7.22074 15.5156C7.33793 15.6562 7.66606 15.8906 7.68949 16.0078C7.73637 16.0078 7.7598 16.0078 7.7598 15.9141C7.73637 15.9141 7.54887 15.7734 7.54887 15.75C7.73637 15.8437 7.66605 15.7969 7.83012 15.8437C7.78324 15.8437 7.61918 15.6094 7.66605 15.5859C7.68949 15.6328 7.83012 15.7734 7.85356 15.8203C7.83012 15.7266 7.78324 15.6328 7.78324 15.5391C7.78324 15.5859 7.92387 15.7266 7.99418 15.75C7.9473 15.7266 8.06449 15.7031 8.08793 15.6562L8.01762 15.6328C8.1348 15.5859 7.90043 15.2578 8.04106 15.1875C8.06449 15.2344 8.18168 15.4922 8.25199 15.4922C8.20512 15.3516 8.06449 14.8594 8.15824 14.6953L8.20512 14.7656C8.22856 14.7187 8.25199 14.6719 8.27543 14.6484C8.27543 14.8594 8.32231 15.3281 8.32231 15.4922C8.39262 15.5156 8.36918 15.5625 8.43949 15.5391C8.48637 15.5859 8.46293 15.6562 8.43949 15.6562L8.58012 15.6328C8.5098 15.4922 8.62699 15.4453 8.58012 15.3281C8.53324 15.3984 8.5098 15.4687 8.48637 15.5391C8.41605 15.3984 8.39262 15.0703 8.53324 15.0703C8.58012 15.1172 8.60356 15.3516 8.62699 15.3984C8.62699 15.3516 8.6973 15.2578 8.72074 15.3047L8.6973 15.3984C8.76762 15.4219 8.72074 15.1641 8.83793 15.2812C8.86137 15.2812 8.95512 15.4687 8.93168 15.375C8.86137 15.2109 8.6973 14.6719 8.6973 14.5312C8.72074 14.5312 8.90824 14.6484 8.95512 14.7422C9.02543 14.8828 8.93168 15.0937 9.00199 15.1875C9.00199 15.1406 9.00199 15.0937 9.02543 15.0703C9.04887 15.0937 9.02543 15.2109 9.09574 15.1641C9.07231 15 9.21293 15.1641 9.09574 15.0234C9.14262 14.9766 9.16605 15.0469 9.23637 15.0234C9.21293 14.9297 9.28324 14.6719 9.35355 14.625C9.35355 14.6719 9.37699 14.7187 9.37699 14.7422C9.51762 14.7422 9.58793 14.8359 9.70512 14.8359C9.70512 14.8828 9.77543 14.9297 9.72856 15C9.75199 14.9766 9.77543 14.9297 9.79887 14.9297C9.84574 15.0703 9.70512 14.9297 9.75199 15.1172C9.77543 15.0234 9.86918 15 9.91606 14.9531C9.91606 14.8125 9.79887 14.9062 9.72856 14.9531C9.75199 14.7656 9.86918 14.5547 10.0332 14.5078C10.1504 14.4844 10.0567 14.6484 10.0801 14.625C10.2676 14.7187 10.3614 14.3203 10.502 14.5312C10.5254 14.6719 10.4317 14.7656 10.4082 14.8594C10.3145 14.8828 10.2911 14.7422 10.2442 14.7187L10.2911 14.7891C10.2442 14.8125 10.1739 14.8359 10.1739 14.7891C10.1973 14.9062 10.502 14.9062 10.5957 15.0703C10.6426 15.0469 10.6895 15.0234 10.7129 14.9766H10.6661C10.6661 14.8594 10.8067 14.8828 10.7832 14.8125C10.877 14.7891 11.0176 14.7187 11.0645 14.8125L11.0176 14.9531C11.0411 14.9062 10.9942 14.8359 10.9473 14.8594C11.0176 14.8359 10.9707 15.1172 11.1114 14.9766V14.8594C11.2051 14.8359 11.3926 14.7656 11.4395 14.8594C11.4864 14.7187 11.4161 14.8594 11.4395 14.6719C11.3692 14.8828 11.2286 14.5312 11.2051 14.7656C11.252 14.5547 11.1348 14.625 11.1348 14.4375C11.1114 14.4844 11.1348 14.5312 11.0645 14.4844C11.0645 14.4844 11.0411 14.5078 11.0176 14.5078C11.0176 14.5312 11.0411 14.5547 11.0176 14.6016C10.9239 14.6719 10.8067 14.625 10.7598 14.6484C10.7364 14.6016 10.8067 14.6016 10.8067 14.5547C10.7832 14.5781 10.7364 14.5781 10.7129 14.6016C10.7598 14.5078 10.6661 14.3906 10.7832 14.3672L10.6895 14.3203C10.6426 14.25 10.5723 14.1797 10.502 14.2266C10.4551 14.1797 10.3379 14.2969 10.4082 14.2266L10.2207 14.25V14.2266C10.1504 14.2031 10.0567 14.2266 9.96293 14.2266C9.86918 14.2266 9.79887 14.2266 9.70512 14.1328C9.65824 14.1562 9.58793 14.1797 9.49418 14.1562L9.47074 14.0625C9.40043 14.0859 9.25981 13.9687 9.21293 14.0625C9.11918 13.8047 8.86137 14.0391 8.72074 14.0156L8.74418 14.1328C8.65043 14.1328 8.58012 14.2031 8.48637 14.2734L8.50981 14.3672C8.43949 14.4609 8.27543 14.3672 8.1348 14.4141C8.1348 14.3672 8.15824 14.3672 8.20512 14.3906C8.08793 14.2969 8.01762 14.3906 7.9473 14.4609C7.90043 14.5547 7.83012 14.625 7.73637 14.6016C7.71293 14.6484 7.68949 14.6484 7.66605 14.6484C7.66605 14.6484 7.66605 14.6484 7.64262 14.6484C7.61918 14.6484 7.59574 14.625 7.57231 14.625C7.59574 14.6484 7.61918 14.6484 7.64262 14.6484C7.61918 14.6719 7.59574 14.6953 7.57231 14.7422L7.50199 14.6484C7.43168 14.6484 7.50199 14.7187 7.57231 14.7656C7.57231 14.7891 7.57231 14.8125 7.57231 14.8594C7.43168 14.7422 7.52543 14.9766 7.36137 14.8594C7.3848 14.9062 7.33793 14.9531 7.31449 15C7.29105 15.0703 7.29106 15.1172 7.33793 15.2109C7.31449 15.1875 7.29105 15.1875 7.31449 15.1641C7.26762 15.1875 7.22074 15.1875 7.22074 15.2578L7.10356 15.1641C7.12699 15.2344 7.15043 15.3047 7.17387 15.375C7.08012 15.3516 7.00981 15.3516 6.98637 15.2109C7.00981 15.4453 6.93949 15.3516 6.98637 15.5391L6.91606 15.4687C6.89262 15.5156 6.93949 15.6328 6.86918 15.6094C6.65824 15.5859 6.56449 16.0078 6.33012 16.1719C6.61137 16.2422 6.16605 16.2422 6.35355 16.3359C6.28324 16.3359 6.23637 16.3594 6.21293 16.2891C6.23637 16.4297 6.04887 16.4531 6.18949 16.5937C6.11918 16.5937 6.09574 16.5469 6.0723 16.5469C6.0723 16.5703 6.11918 16.6172 6.0723 16.6172C6.02543 16.6172 6.02543 16.5937 6.00199 16.5469C5.97855 16.6875 6.16605 16.7578 6.35355 16.8047C6.2598 16.8516 6.2598 16.8984 6.37699 16.9687C6.30668 16.9687 6.23637 17.0156 6.23637 16.9219C6.21293 16.9687 6.09574 17.2031 6.2598 17.2266C6.21293 17.2266 6.23637 17.2969 6.2598 17.2969C6.23637 17.3906 6.23637 17.4141 6.23637 17.5078L6.2598 17.4844C6.4473 17.5312 6.30668 17.5781 6.33012 17.6484H6.30668C6.18949 17.8359 6.37699 17.7187 6.23637 17.9297L6.35355 17.9062C6.58793 17.8828 6.23637 18.0937 6.35355 18.1875L6.40043 18.1406C6.49418 18.1875 6.11918 18.375 6.09574 18.4453C6.07231 18.4687 6.04887 18.4219 6.04887 18.4219C5.95512 18.6328 6.18949 18.3984 6.2598 18.5156C6.18949 18.5625 6.04887 18.5391 6.0723 18.6328C6.02543 18.7031 6.40043 18.7734 6.30668 18.9375C6.35355 18.8906 6.40043 18.8437 6.47074 18.8672C6.51762 18.9375 6.35356 19.1953 6.56449 19.1719C6.56449 19.1953 6.54105 19.1953 6.54105 19.2187C6.61137 19.2422 6.72855 19.3594 6.8223 19.3359C6.68168 19.4766 6.77543 19.5234 6.86918 19.5703C6.96293 19.6172 7.05668 19.6406 6.91606 19.7578L7.08012 19.875L7.05668 19.8984C7.12699 20.0156 7.22074 19.9687 7.31449 19.9453C7.31449 19.9922 7.29106 19.9922 7.26762 20.0156C7.36137 20.2031 7.38481 20.2031 7.61918 20.1562L7.57231 20.25C7.64262 20.2266 7.71293 20.5547 7.9473 20.5312C7.9473 20.5312 7.92387 20.5547 7.90043 20.5781C8.01762 20.5547 8.11137 20.6953 8.18168 20.7656C8.27543 20.8359 8.36918 20.8828 8.46293 20.6953C8.5098 20.6719 8.58012 20.6484 8.62699 20.625C8.46293 20.5547 8.6973 20.4609 8.65043 20.3672C8.72074 20.3672 8.76762 20.5312 8.6973 20.5312V20.5078C8.60355 20.7187 8.8848 20.6484 8.83793 20.7891C9.16605 20.8359 9.51762 20.9766 9.84574 20.9531L9.79887 20.7891C9.84574 20.7891 9.86918 20.7891 9.91606 20.7891C9.93949 20.8125 9.96293 20.9062 9.89262 20.9297C9.93949 21.0234 10.0098 20.8359 10.0098 20.7891C10.1739 20.8359 9.98637 21 10.0332 21L10.1036 20.9766L10.0801 20.9531C10.127 20.8828 10.1036 20.8125 10.2207 20.7891C10.2911 20.8125 10.2676 20.8828 10.2911 20.8828C10.2911 20.9062 10.3145 20.9062 10.3379 20.8828L10.4786 20.8594L10.3848 20.7422C10.4317 20.6719 10.5254 20.7187 10.4082 20.5781C10.4786 20.6719 10.6192 20.6484 10.7364 20.6016C10.8536 20.5547 10.9473 20.4844 10.9942 20.5078C11.0411 20.3906 11.0879 20.3437 11.2051 20.2969C11.1582 20.2969 11.0645 20.1562 11.1582 20.1328C11.2989 20.4141 11.3692 20.1562 11.5567 20.2969C11.4161 20.2266 11.7442 20.1094 11.5332 19.9922C11.6036 19.9687 11.6036 20.0859 11.6973 20.0859C11.7442 19.875 12.0489 19.8516 12.1661 19.6406C12.1426 19.6172 12.0723 19.5937 12.0489 19.5234C12.1192 19.5234 12.2129 19.5469 12.2832 19.5469C12.2832 19.5 12.1192 19.3828 12.2832 19.3828C12.2364 19.3828 12.1895 19.3594 12.1895 19.3359C12.4004 19.1953 12.4707 18.9609 12.5411 18.75C12.5645 18.6328 12.6114 18.5391 12.6582 18.4219C12.7051 18.3047 12.7754 18.2109 12.8926 18.1172C12.7989 18.1641 12.7989 18.1172 12.7989 18.0703C12.7754 18.0937 12.7051 18.0469 12.6348 18.0469C12.7051 18 12.752 17.9297 12.8223 17.8828C12.6817 17.8359 12.8223 17.6719 12.6817 17.6484L12.7051 17.7187C12.5411 17.6484 12.3067 17.8125 12.0957 17.7656C12.1895 17.8125 12.1192 17.8594 12.0489 17.9062C11.9786 17.9531 11.9082 18 12.0489 18.0703C12.002 18.0937 11.9786 18.0234 11.9317 18.0469C12.0254 18.0937 12.0254 18.1406 11.9786 18.1875L11.9551 18.1641C11.9317 18.3516 11.8145 18.3984 11.6739 18.5391L11.7911 18.5625C11.7676 18.5859 11.7207 18.5859 11.6973 18.5859C11.8379 18.7031 11.7676 18.4922 11.9082 18.6094C11.7911 18.5859 11.7676 18.6562 11.7207 18.7266C11.6739 18.7969 11.627 18.8437 11.5098 18.7969C11.4864 18.8437 11.627 18.8437 11.6036 18.9141L11.5332 18.8906L11.6036 18.9609C11.5801 18.9844 11.4864 18.9609 11.4395 18.9141C11.4629 18.9141 11.4395 18.8906 11.4395 18.8672C11.3457 18.8672 11.3692 19.0078 11.3457 19.0078L11.4161 18.9844C11.3692 19.1719 11.1582 19.2422 11.1114 19.4766L11.1582 19.5C11.1114 19.6641 11.0411 19.5234 10.9473 19.6406V19.6172C10.9473 19.6875 10.9239 19.7109 10.9004 19.7344C10.9004 19.6641 10.7832 19.6641 10.7832 19.5937C10.7129 19.7578 10.7598 19.7109 10.7832 19.9219L10.7129 19.8516C10.7129 19.9453 10.7364 19.9687 10.6661 20.0391C10.6895 19.9453 10.5723 19.9453 10.5957 19.8281C10.4786 19.7812 10.4551 19.8516 10.4317 19.8984C10.4082 19.9453 10.3848 19.9922 10.2911 19.875C10.2911 20.1328 10.4551 19.9453 10.4317 20.0156C10.502 20.0859 10.4317 20.2031 10.3848 20.2031C10.3379 20.2266 10.1973 19.9453 10.1036 19.9687C10.127 19.9687 10.1036 19.9453 10.127 19.9453C10.0801 19.8984 10.0567 20.0625 9.98637 19.9687C9.98637 20.1094 9.91605 19.9687 9.93949 20.1562L10.0567 20.0859C10.0098 20.1328 9.96293 20.3672 9.84574 20.2734C9.84574 20.2266 9.86918 20.1797 9.89262 20.1562C9.84574 20.1094 9.84574 20.2031 9.79887 20.1562C9.79887 19.9687 9.93949 20.0859 9.98637 19.9453C9.93949 19.875 9.89262 20.0859 9.89262 19.8984C9.86918 20.1562 9.77543 19.875 9.70512 20.0859V19.9687C9.70512 19.9922 9.65824 20.0391 9.6348 20.0391L9.68168 19.8984C9.61137 20.0156 9.56449 19.8047 9.49418 19.8516C9.61137 19.8516 9.51762 19.9922 9.56449 20.0625C9.40043 20.2031 9.47074 19.7578 9.30668 19.8047C9.33012 19.7812 9.37699 19.875 9.35355 19.9219C9.33012 19.8984 9.28324 19.8516 9.25981 19.7812C9.14262 19.7812 9.25981 19.8984 9.21293 19.9687C9.18949 19.8281 9.14262 20.0156 9.0723 20.0391L9.09574 19.9219C8.97856 19.8281 9.00199 20.1562 8.90824 20.0391L9.00199 19.8984L8.93168 19.9219L8.97856 19.8047C8.88481 19.875 8.86137 19.8516 8.81449 19.8047C8.81449 19.875 8.74418 19.9922 8.67387 19.9687C8.65043 19.8984 8.74418 19.875 8.65043 19.8516C8.6973 19.7812 8.74418 19.7109 8.74418 19.8281C8.76762 19.8047 8.79106 19.7578 8.79106 19.7344C8.76762 19.6406 8.69731 19.6875 8.67387 19.6641L8.6973 19.6875C8.65043 19.7344 8.58012 19.7578 8.53324 19.7812C8.53324 19.7344 8.55668 19.7109 8.58012 19.6875C8.55668 19.6875 8.5098 19.7344 8.48637 19.7109C8.53324 19.6406 8.58012 19.5469 8.62699 19.5234L8.48637 19.5703C8.48637 19.5234 8.48637 19.4531 8.50981 19.4297C8.48637 19.3594 8.29887 19.5 8.25199 19.4062C8.22855 19.4297 8.22856 19.4297 8.20512 19.4297C8.15824 19.3594 8.15824 19.2422 8.01762 19.2656L8.08793 19.1016C8.01762 19.0781 7.99418 19.3125 7.87699 19.2656C7.78324 19.2422 7.94731 19.1484 7.97074 19.1016C7.87699 19.125 7.71293 19.1953 7.7598 19.0312C7.71293 19.0547 7.71293 19.0781 7.73637 19.1016ZM7.1973 18.3281C7.22074 18.3281 7.31449 18.3516 7.24418 18.375C7.12699 18.4219 7.17387 18.375 7.1973 18.3281ZM6.89262 16.875C6.91605 16.8984 6.89262 16.9219 6.84574 16.9219C6.84574 16.8984 6.84574 16.875 6.89262 16.875ZM10.5957 14.2734C10.5489 14.2266 10.5723 14.25 10.5957 14.2734V14.2734ZM10.6895 14.3672C10.7129 14.3672 10.7129 14.3437 10.7129 14.3203C10.6895 14.3437 10.6661 14.3437 10.6426 14.3203C10.6426 14.3437 10.6661 14.3672 10.6895 14.3672ZM10.2676 20.8125L10.2442 20.7891C10.2911 20.7422 10.2911 20.7891 10.2676 20.8125Z" fill="black"/>
<path d="M6.98639 17.0625C6.96295 17.0625 6.93951 17.0625 6.91608 17.0625C6.93951 17.0859 6.96295 17.0859 6.98639 17.0625Z" fill="black"/>
<path d="M8.1817 19.4062C8.1817 19.4062 8.1817 19.4297 8.1817 19.4062C8.1817 19.4062 8.20514 19.4062 8.1817 19.4062Z" fill="black"/>
<path d="M9.04889 15.1172C9.02545 15.0937 9.02545 15.0938 9.00201 15.0703C9.00201 15.0938 9.02545 15.1172 9.04889 15.1172Z" fill="black"/>
<path d="M11.3692 14.4844L11.2755 14.4609C11.3223 14.4844 11.2989 14.5078 11.3223 14.5312C11.3458 14.5078 11.3458 14.4609 11.3692 14.4844Z" fill="black"/>
<path d="M11.4395 15.4219C11.463 15.4219 11.4629 15.4453 11.4629 15.4219L11.4864 15.375C11.4864 15.3516 11.4395 15.375 11.4395 15.4219Z" fill="black"/>
<path d="M11.2286 14.8359C11.1817 14.9297 11.2286 14.9063 11.2989 14.9297C11.3692 14.8125 11.2989 14.8125 11.2286 14.8359Z" fill="black"/>
<path d="M11.2989 14.9297C11.3223 14.9297 11.3223 14.9531 11.3458 14.9531C11.3692 14.9062 11.3223 14.9297 11.2989 14.9297Z" fill="black"/>
<path d="M10.8536 14.3672C10.877 14.3906 10.9239 14.2734 10.9239 14.2969C10.9942 14.2031 10.7129 14.3672 10.8536 14.3672Z" fill="black"/>
<path d="M11.088 15.1172L11.1348 15L11.0645 15.0703L11.088 15.1172Z" fill="black"/>
<path d="M10.8067 14.8594L10.8536 14.9297C10.8536 14.9063 10.877 14.9063 10.9005 14.9063C10.8536 14.8594 10.8301 14.8359 10.8067 14.8594Z" fill="black"/>
<path d="M10.9005 14.8828C10.9239 14.9062 10.9473 14.9063 10.9708 14.9063C10.9473 14.9063 10.9239 14.8828 10.9005 14.8828Z" fill="black"/>
<path d="M10.9708 15.0937V15.0703L10.9473 15.0234L10.9708 15.0937Z" fill="black"/>
<path d="M10.0567 14.5781L9.96293 14.6016C9.93949 14.6484 9.96293 14.6719 10.0098 14.6484C10.0332 14.625 10.0567 14.625 10.0567 14.5781Z" fill="black"/>
<path d="M10.1973 14.9531C10.1739 14.9297 10.1973 14.9062 10.1973 14.8594L10.1505 15L10.1973 14.9531Z" fill="black"/>
<path d="M9.98634 14.9297C9.9629 14.9766 9.86916 15.0234 9.96291 15.0234C9.96291 15 10.0567 14.9766 9.98634 14.9297Z" fill="black"/>
<path d="M8.86139 14.7656L8.88483 14.7422L8.83795 14.5078L8.86139 14.7656Z" fill="black"/>
<path d="M8.22856 15.6328C8.32231 15.6328 8.15825 15.4922 8.252 15.5156C8.22856 15.4688 8.18168 15.4922 8.15825 15.4453C8.15825 15.5391 8.11137 15.5156 8.22856 15.6328Z" fill="black"/>
<path d="M12.963 17.7422L13.0098 17.6719L12.9161 17.7188L12.963 17.7422Z" fill="black"/>
<path d="M12.7755 17.6016L12.9395 17.5781L12.7989 17.5312C12.7989 17.5547 12.8223 17.6016 12.7755 17.6016Z" fill="black"/>
<path d="M7.45514 18.1172H7.40826C7.36139 18.1406 7.36139 18.1406 7.36139 18.1641L7.45514 18.1172Z" fill="black"/>
<path d="M7.59576 18.7266V18.7031L7.50201 18.7969L7.59576 18.7266Z" fill="black"/>
<path d="M8.04109 19.0078C8.04109 18.9844 7.99421 18.9844 7.99421 18.9844C8.04109 18.9844 7.9239 19.125 8.04109 19.0078Z" fill="black"/>
<path d="M12.9629 17.5313C12.9629 17.5547 13.0567 17.5547 13.0801 17.5547C13.0567 17.5078 12.9395 17.5313 12.9629 17.5313Z" fill="black"/>
<path d="M12.7286 17.0625H12.7755L12.6817 16.9922L12.7286 17.0625Z" fill="black"/>
<path d="M12.7286 16.6172C12.5645 16.6641 12.752 16.7812 12.7051 16.8516L12.6583 16.875L12.7989 16.9219C12.7754 16.8047 12.6817 16.6875 12.7286 16.6172Z" fill="black"/>
<path d="M13.1036 16.3828C13.0333 16.4062 13.0567 16.3359 13.0801 16.4297C13.0801 16.4297 13.0801 16.4297 13.1036 16.4297C13.1036 16.4062 13.1036 16.4062 13.1036 16.3828Z" fill="black"/>
<path d="M13.1036 16.4297C13.1036 16.4765 13.1505 16.4062 13.1036 16.4297V16.4297Z" fill="black"/>
<path d="M13.0567 16.2188L13.1036 16.2891C13.1505 16.2656 13.1505 16.2188 13.1739 16.2422C13.1505 16.1719 13.127 16.1719 13.0567 16.2188Z" fill="black"/>
<path d="M12.9395 16.1484L12.963 16.1719C12.9864 16.1719 12.9864 16.1719 12.9395 16.1484Z" fill="black"/>
<path d="M13.0098 16.2422L12.9629 16.1719C12.9395 16.1719 12.8926 16.1719 12.9864 16.1953C12.9395 16.2188 12.9864 16.2188 13.0098 16.2422Z" fill="black"/>
<path d="M12.9864 16.2891C12.9395 16.3125 12.9161 16.3594 12.8692 16.3125C12.8926 16.4297 13.0098 16.4062 12.9864 16.2891Z" fill="black"/>
<path d="M12.5645 16.5938L12.5176 16.6406L12.5645 16.6875C12.5411 16.6641 12.6114 16.5938 12.5645 16.5938Z" fill="black"/>
<path d="M13.1504 15.8438C13.1036 15.8438 13.0567 15.8672 13.0098 15.8672L13.0567 15.9141C13.0801 15.8906 13.1036 15.8438 13.1504 15.8438Z" fill="black"/>
<path d="M13.0098 15.8672L12.9395 15.7969C12.9395 15.8438 12.963 15.8672 13.0098 15.8672Z" fill="black"/>
<path d="M12.752 16.1484L12.8692 16.2656L12.752 16.125V16.1484Z" fill="black"/>
<path d="M13.1505 15.5859L13.2442 15.6094L13.1036 15.5391L13.1505 15.5859Z" fill="black"/>
<path d="M13.127 15.3984C13.1973 15.4219 13.2442 15.3516 13.2911 15.3984C13.2676 15.3516 13.2208 15.3047 13.1739 15.2812C13.1973 15.3047 13.1973 15.3516 13.127 15.3984Z" fill="black"/>
<path d="M13.1036 15.2109C13.127 15.2344 13.1505 15.2578 13.1739 15.2813C13.1505 15.2578 13.127 15.2344 13.1036 15.2109Z" fill="black"/>
<path d="M12.963 15.6797C12.9864 15.6797 13.0333 15.6562 13.0567 15.6328L12.963 15.6562C12.963 15.6562 12.963 15.6562 12.963 15.6797Z" fill="black"/>
<path d="M12.8458 15.9609C12.7989 15.9141 12.7286 15.8437 12.6348 15.9141C12.7051 15.9609 12.752 15.9141 12.8458 15.9609Z" fill="black"/>
<path d="M12.8458 15.7266L12.8223 15.7969C12.8458 15.7969 12.8926 15.7734 12.9161 15.7969L12.8458 15.7266Z" fill="black"/>
<path d="M12.7989 15.6797L12.8458 15.7266V15.6797H12.7989Z" fill="black"/>
<path d="M13.0098 15.3281C12.963 15.3047 12.963 15.2578 12.963 15.2344C12.9395 15.2812 12.9395 15.3281 12.9395 15.3516C12.9395 15.375 13.0098 15.375 13.0098 15.3281Z" fill="black"/>
<path d="M12.8926 15.375C12.8692 15.3984 12.8926 15.4219 12.9395 15.4453C12.9161 15.3984 12.9161 15.375 12.8926 15.375C12.8926 15.3516 12.8926 15.3516 12.8926 15.375Z" fill="black"/>
<path d="M13.0567 15.1172C13.0333 15.1406 13.0098 15.1406 13.0098 15.1641C13.0333 15.1406 13.0801 15.1172 13.0567 15.1172Z" fill="black"/>
<path d="M12.9864 15.4687C12.963 15.4453 12.9395 15.4453 12.9161 15.4219C12.9161 15.4453 12.9395 15.4687 12.9395 15.4687C12.963 15.4687 12.9864 15.4687 12.9864 15.4687Z" fill="black"/>
<path d="M12.3067 14.7422C12.4005 14.7422 12.4942 14.8359 12.377 14.9062C12.4473 14.9765 12.752 14.9297 12.9161 14.8594C12.8692 14.8594 12.8458 14.8594 12.7755 14.789C12.7286 14.8125 12.6583 14.9531 12.5645 14.8828C12.5176 14.789 12.588 14.8125 12.6348 14.7656C12.5176 14.8125 12.4708 14.6484 12.3067 14.6719L12.377 14.7422C12.377 14.7656 12.3301 14.7187 12.3067 14.7422Z" fill="black"/>
<path d="M12.9161 15V15.0234C12.9395 15 12.963 14.9766 13.0333 14.9297C12.9864 14.8828 12.963 14.8828 12.9161 14.8594V15Z" fill="black"/>
<path d="M12.9395 15.1641C12.8458 15.1406 12.7989 15.0703 12.6817 15.1172C12.6817 15.2109 12.7755 15.1875 12.7989 15.2344C12.7755 15.0937 12.8692 15.2578 12.9395 15.1641C12.9395 15.1875 12.9395 15.2109 12.963 15.2344C12.9864 15.2109 12.9864 15.1875 13.0098 15.1641C12.9864 15.1641 12.9864 15.1641 12.9864 15.1641C12.963 15.1641 12.9395 15.1641 12.9395 15.1641C12.963 15.1172 12.963 15.1641 12.9864 15.1641H13.0098L12.963 15.0234C12.9161 15.0703 12.9161 15.0937 12.9395 15.1641Z" fill="black"/>
<path d="M12.4942 15.7969C12.5176 15.7969 12.5411 15.8203 12.5411 15.8437C12.5176 15.8672 12.4942 15.8437 12.4708 15.8437C12.4942 15.8672 12.5411 15.9141 12.588 15.8437H12.5645C12.588 15.7969 12.7286 15.7266 12.7286 15.7266C12.6348 15.75 12.5645 15.75 12.4942 15.7969Z" fill="black"/>
<path d="M12.6817 15.4687L12.6348 15.3516L12.5411 15.3984H12.588C12.588 15.4688 12.6348 15.4687 12.6817 15.4687Z" fill="black"/>
<path d="M12.9864 14.8594H13.1036L12.963 14.7891L12.9864 14.8594Z" fill="black"/>
<path d="M12.9864 14.6953H13.0801L13.0098 14.6719L12.9864 14.6953Z" fill="black"/>
<path d="M11.838 6.28125L11.8145 6.25781C11.8145 6.25781 11.8145 6.28125 11.838 6.28125Z" fill="black"/>
<path d="M11.838 6.53906H11.8848C11.838 6.51563 11.838 6.51563 11.838 6.53906Z" fill="black"/>
<path d="M12.963 11.0391C13.0567 10.9922 13.1739 10.9453 13.0801 10.9453L12.9864 10.9687C13.0098 10.9922 12.9864 11.0156 12.963 11.0391Z" fill="black"/>
<path d="M12.377 8.53125C12.377 8.53125 12.3536 8.53125 12.3536 8.55469C12.377 8.57813 12.4239 8.57813 12.4473 8.57813C12.4239 8.55469 12.4005 8.55469 12.377 8.53125Z" fill="black"/>
<path d="M11.9551 8.48438L12.0255 8.41406C11.9786 8.4375 11.9551 8.46094 11.9551 8.48438Z" fill="black"/>
<path d="M11.7208 4.5L11.627 4.35938C11.627 4.47656 11.6739 4.45313 11.7208 4.5Z" fill="black"/>
<path d="M12.9395 13.1719C12.9864 13.125 12.9864 13.1016 13.0098 13.0547C12.9395 13.125 12.8692 13.1484 12.9395 13.1719Z" fill="black"/>
<path d="M12.9161 6.375C12.8926 6.35156 12.8692 6.35156 12.8458 6.35156C12.8692 6.375 12.8926 6.375 12.9161 6.375Z" fill="black"/>
<path d="M13.0098 12.9375L12.9864 12.9609C13.0098 12.9844 13.0098 13.0312 13.0098 13.0547C13.0567 13.0312 13.0801 12.9844 13.0098 12.9375Z" fill="black"/>
<path d="M17.5801 4.64062C17.5801 4.66406 17.5567 4.66406 17.5333 4.6875C17.5567 4.6875 17.5801 4.66406 17.5801 4.64062Z" fill="black"/>
<path d="M12.6348 14.25C12.6348 14.25 12.6114 14.2266 12.588 14.2266C12.6114 14.25 12.6114 14.25 12.6348 14.25Z" fill="black"/>
<path d="M12.9864 14.1562C13.0098 14.1328 13.0098 14.1328 13.0098 14.1094C13.0098 14.1094 12.9864 14.1328 12.9864 14.1562Z" fill="black"/>
<path d="M13.0333 14.1328V14.1562C13.0333 14.1797 13.0567 14.1562 13.0333 14.1328Z" fill="black"/>
<path d="M13.0333 14.0625C13.0333 14.0859 13.0333 14.0859 13.0333 14.1094H13.0567C13.0333 14.0859 13.0333 14.0859 13.0333 14.0625Z" fill="black"/>
<path d="M13.6192 4.38281C13.6661 4.35938 13.6426 4.35938 13.6192 4.38281V4.38281Z" fill="black"/>
<path d="M11.838 10.1016C11.9551 10.1484 11.9551 10.1719 11.9317 10.2187L12.2364 10.1719L11.838 10.1016Z" fill="black"/>
<path d="M11.8145 5.69531L11.7208 5.76562C11.5801 5.67187 11.627 5.60156 11.4864 5.67188C11.8145 5.67188 11.5098 5.97656 11.838 6L11.7676 6.04688C11.7676 6.02344 11.7442 6.02344 11.7442 6.02344C11.5801 6.11719 11.9786 6.09375 11.9317 6.23437C11.9083 6.28125 11.8614 6.30469 11.8145 6.28125L11.8848 6.375C11.8848 6.39844 11.8145 6.39844 11.838 6.375L11.8614 6.53906C11.9083 6.5625 11.9786 6.60938 12.0255 6.63281C11.9786 6.67969 12.002 6.60938 11.9551 6.63281L12.0255 6.72656C11.9317 6.77344 11.8614 6.67969 11.8848 6.63281C11.5567 6.70312 11.9551 6.70312 11.7676 6.86719L11.7208 6.79688C11.5333 6.84375 11.6036 6.91406 11.4864 7.00781C11.5567 6.98437 11.7676 6.82031 11.838 6.91406C11.8145 6.9375 11.7911 6.98438 11.8614 7.03125C11.7442 7.03125 11.7676 7.07812 11.7911 7.14844H11.6505C11.6973 7.21875 11.7676 7.21875 11.838 7.24219C11.8145 7.3125 11.6973 7.33594 11.6036 7.35937C11.5801 7.47656 11.7911 7.26563 11.8145 7.42969C11.7676 7.52344 11.8145 7.59375 11.9083 7.71094C11.8614 7.78125 11.8145 7.6875 11.7676 7.73438L11.8848 7.80469C11.8848 7.82812 11.838 7.80469 11.838 7.80469C11.8848 7.85156 11.9786 7.80469 12.0255 7.89844C12.1895 7.92188 11.7911 8.0625 11.9786 8.15625C11.9317 8.17969 11.8848 8.13281 11.838 8.15625C11.9551 8.29688 11.9317 8.27344 12.0958 8.39062L12.002 8.48438C12.1192 8.41406 12.2364 8.50781 12.3536 8.57812C12.4005 8.55469 12.4473 8.53125 12.4708 8.50781L12.5411 8.625C12.5176 8.64844 12.4708 8.625 12.4005 8.60156C12.4239 8.60156 12.4239 8.625 12.4473 8.625C12.4004 8.67188 12.3067 8.64844 12.2129 8.625C12.2364 8.60156 12.2833 8.60156 12.3067 8.57812C12.213 8.55469 12.1192 8.50781 12.0255 8.53125C12.0489 8.53125 12.0489 8.55469 12.0723 8.57812C12.0489 8.57812 12.0255 8.55469 12.002 8.57812C11.9786 8.57812 12.0255 8.60156 12.0489 8.625L11.8848 8.64844H11.9551L11.8614 8.8125C12.0254 8.92969 12.2833 9.02344 12.3536 9.23437C12.2364 9.1875 12.1426 9.23438 12.002 9.21094C12.1661 9.16406 11.9317 9.07031 11.9786 8.97656C11.9551 9.02344 11.8848 9.02344 11.8614 9L12.002 9.16406C11.8848 9.16406 11.9083 9.21094 11.8614 9.25781C12.0958 9.23438 12.0254 9.39844 12.0958 9.46875C12.0254 9.46875 11.9317 9.44531 11.9551 9.375C11.7676 9.46875 12.2364 9.49219 12.0723 9.58594C12.0723 9.5625 12.0723 9.5625 12.0489 9.53906C12.1192 9.58594 12.0723 9.70312 12.002 9.67969V9.65625C11.9786 9.79688 12.002 10.0781 12.1895 10.1016C12.1661 10.1016 11.9551 10.0781 11.9083 10.0781L12.588 10.3359C12.4239 10.3125 12.002 10.4062 11.9083 10.2891C11.8848 10.3125 11.8614 10.3594 11.9083 10.4297C11.9317 10.4062 12.1661 10.3828 12.1661 10.4062C11.9786 10.5 12.0723 10.4766 11.9083 10.5703C11.9551 10.5469 12.2129 10.5703 12.2129 10.6172C12.1661 10.6172 11.9551 10.6172 11.9317 10.5938L12.1895 10.7344C12.1426 10.7109 11.9551 10.7344 11.8848 10.7578C11.9317 10.7344 11.8848 10.875 11.9083 10.8984L11.9786 10.8516C11.9317 10.9922 12.3536 10.9922 12.3301 11.1562C12.2833 11.1328 12.002 11.1094 11.9551 11.1797C12.0958 11.2031 12.6114 11.3438 12.7051 11.4609L12.6348 11.4844L12.7286 11.5781C12.5176 11.5078 12.0958 11.3438 11.9317 11.2266C11.8614 11.2734 11.838 11.25 11.838 11.3203C11.7676 11.3438 11.7208 11.2734 11.7208 11.25L11.6739 11.4375C11.838 11.4375 11.838 11.5781 11.9551 11.5781L11.7911 11.3672C11.9551 11.3672 12.2364 11.4844 12.2129 11.625C12.1426 11.6719 11.9317 11.6016 11.8848 11.6016C11.9317 11.625 11.9786 11.7422 11.9551 11.7422L11.8614 11.6719C11.7911 11.7422 12.0723 11.7891 11.9083 11.8828C11.9083 11.9062 11.6973 11.9766 11.7911 11.9766C11.9786 11.9297 12.5176 11.9062 12.6583 11.9531C12.6348 11.9531 12.4942 12.1172 12.4005 12.1641C12.2598 12.2109 12.0723 12.0938 11.9317 12.1406C11.9786 12.1406 12.0255 12.1641 12.0489 12.1875C12.002 12.2109 11.9083 12.1641 11.9317 12.2578C12.0958 12.2812 11.9083 12.3984 12.0723 12.2812C12.1192 12.3516 12.0489 12.3516 12.0489 12.4453C12.1426 12.4219 12.4004 12.5156 12.4473 12.5859C12.4004 12.5859 12.3536 12.6094 12.3301 12.6094C12.3067 12.75 12.2364 12.8438 12.2364 12.9844C12.1895 13.0078 12.1426 13.0547 12.0723 13.0312C12.0958 13.0547 12.1661 13.0781 12.1661 13.1016C12.0255 13.1953 12.1426 13.0078 11.9786 13.0781C12.0723 13.0781 12.0958 13.1953 12.1661 13.2422C12.3067 13.2188 12.1895 13.1016 12.1426 13.0312C12.3301 13.0312 12.5411 13.1484 12.6348 13.2891C12.6817 13.4062 12.5176 13.3359 12.5411 13.3594C12.5176 13.5703 12.8926 13.5469 12.752 13.7109C12.6348 13.7812 12.4942 13.7109 12.4005 13.7344C12.3536 13.6406 12.4708 13.5938 12.4708 13.5234L12.4005 13.5938C12.3536 13.5703 12.3301 13.5 12.3536 13.4766C12.2364 13.5469 12.3301 13.8516 12.2364 14.0156C12.2833 14.0391 12.3301 14.0859 12.377 14.0625L12.3536 14.0156C12.4473 13.9688 12.4942 14.1094 12.5411 14.0391C12.6114 14.1094 12.7286 14.1797 12.6583 14.2969L12.5176 14.3203C12.5645 14.3203 12.6114 14.25 12.5645 14.2266C12.6348 14.2734 12.377 14.3906 12.5645 14.4141L12.6583 14.3438C12.7286 14.4141 12.8926 14.5078 12.8458 14.6016C12.9864 14.5547 12.8223 14.5781 12.9864 14.5078C12.7755 14.5547 12.9864 14.2734 12.7755 14.3672C12.963 14.2969 12.8458 14.25 13.0098 14.1797C12.963 14.1797 12.9161 14.2031 12.9395 14.1328C12.9161 14.1328 12.9161 14.1328 12.8926 14.1094C12.8692 14.1328 12.8458 14.1328 12.8223 14.1562C12.7051 14.1094 12.7286 13.9922 12.6583 13.9688C12.6817 13.9219 12.7051 13.9922 12.752 13.9688L12.6583 13.8984C12.752 13.8984 12.8223 13.7812 12.8926 13.875V13.7812C12.963 13.7344 12.9864 13.6406 12.9395 13.5938C12.963 13.5469 12.8223 13.4766 12.9161 13.5234L12.8458 13.3828H12.8692C12.8926 13.2422 12.7051 13.0781 12.8926 12.9141C12.8692 12.8672 12.8223 12.8203 12.8692 12.7266L12.963 12.7031C12.9395 12.6328 13.0567 12.5156 12.963 12.4922C13.1973 12.4219 13.0098 12.1875 13.0567 12.0703H12.9395C12.9395 12 12.9161 11.9297 12.8692 11.8359H12.7755C12.6817 11.7656 12.8458 11.625 12.8458 11.5078C12.8926 11.5078 12.8692 11.5547 12.8458 11.5781C13.0801 11.4141 12.6817 11.25 12.8458 11.1094C12.7989 11.0859 12.8223 11.0391 12.8458 11.0156C12.8458 11.0156 12.8458 11.0156 12.8458 10.9922C12.8692 10.9687 12.8926 10.9688 12.8926 10.9453C12.8692 10.9688 12.8458 10.9687 12.8458 10.9922C12.8458 10.9687 12.8223 10.9219 12.7989 10.875L12.9161 10.8516C12.9629 10.8047 12.8692 10.8281 12.7755 10.8516C12.752 10.8281 12.7286 10.8047 12.7051 10.8047C12.8926 10.7812 12.6348 10.7109 12.8458 10.6641C12.752 10.6406 12.7754 10.4766 12.5645 10.4531C12.5879 10.4531 12.6114 10.4297 12.6114 10.4531C12.6348 10.4062 12.6583 10.3594 12.6114 10.3359L12.752 10.3125L12.5645 10.2188C12.6583 10.1719 12.7051 10.125 12.8223 10.1953C12.6583 10.0547 12.752 10.0781 12.588 9.96094H12.6817C12.6817 9.91406 12.5645 9.84375 12.6348 9.82031C12.8223 9.72656 12.6583 9.35156 12.8223 9.09375C12.5411 9.14062 12.9395 8.97656 12.7286 8.97656C12.7989 8.95312 12.8223 8.92969 12.8926 8.97656C12.8223 8.85938 12.9864 8.78906 12.8223 8.69531C12.8926 8.67188 12.9161 8.71875 12.963 8.71875C12.9395 8.71875 12.9161 8.67188 12.9395 8.67188C12.9864 8.64844 12.9864 8.69531 13.0333 8.71875C13.0333 8.60156 12.8223 8.57812 12.6348 8.57812C12.7286 8.50781 12.7051 8.48438 12.588 8.4375C12.6583 8.41406 12.7051 8.36719 12.7286 8.46094C12.7286 8.41406 12.8223 8.17969 12.6583 8.17969C12.7051 8.15625 12.6583 8.10938 12.6583 8.10938C12.6583 8.01562 12.6817 7.99219 12.6583 7.89844L12.6348 7.92188C12.4473 7.875 12.5879 7.85156 12.5645 7.75781H12.588C12.7286 7.57031 12.5176 7.6875 12.6817 7.5H12.5645C12.3301 7.47656 12.7051 7.33594 12.6114 7.24219L12.5411 7.28906C12.4473 7.24219 12.8692 7.125 12.8926 7.07813C12.9161 7.05469 12.9161 7.10156 12.9395 7.125C13.0801 6.98437 12.7989 7.10156 12.752 6.98438C12.8223 6.96094 12.963 7.00781 12.963 6.9375C13.0333 6.89062 12.7051 6.72656 12.8458 6.60938C12.7755 6.63281 12.7286 6.65625 12.6817 6.60938C12.6583 6.53906 12.9161 6.39844 12.7286 6.32813C12.752 6.32813 12.752 6.30469 12.7755 6.30469C12.7286 6.23438 12.6817 6.11719 12.588 6.07031C12.9864 6.02344 12.4005 5.69531 12.752 5.69531L12.7286 5.50781H12.7755C12.7989 5.4375 12.7051 5.41406 12.6348 5.36719C12.6583 5.34375 12.6817 5.36719 12.7051 5.39063C12.7755 5.29688 12.752 5.32031 12.588 5.13281L12.7051 5.20312C12.6817 5.17969 12.7286 5.15625 12.752 5.15625C12.7989 5.13281 12.8223 5.13281 12.752 5.01562C12.7755 5.03906 12.7989 5.0625 12.7989 5.08594C12.7286 4.96875 12.8223 4.99219 12.8458 5.01562C12.8926 5.03906 12.8926 5.03906 12.6817 4.66406C12.6348 4.57031 12.6348 4.54687 12.6348 4.5C12.5645 4.45312 12.5176 4.35938 12.4942 4.28906C12.4473 4.21875 12.4239 4.14844 12.377 4.05469C12.377 4.05469 12.4005 4.07813 12.4239 4.10156C12.4942 4.17188 12.6114 4.35937 12.588 4.35937L12.5645 4.3125C12.752 4.66406 12.752 4.52344 12.8692 4.75781C12.9395 4.80469 13.0333 4.89844 13.127 4.96875C13.1973 5.03906 13.2676 5.10938 13.338 5.15625C13.338 5.10938 13.338 5.03906 13.3614 4.96875C13.3848 4.99219 13.4083 4.99219 13.4317 4.99219C13.4317 5.03906 13.4083 5.13281 13.3848 5.10938C13.3848 5.20312 13.4551 5.03906 13.4786 5.01562C13.5958 5.13281 13.3379 5.17969 13.3848 5.20312L13.4551 5.22656V5.20312C13.5255 5.15625 13.5723 5.08594 13.6426 5.13281C13.6895 5.17969 13.6426 5.25 13.6661 5.25C13.6661 5.27344 13.6661 5.27344 13.6895 5.27344C13.7364 5.29688 13.7833 5.32031 13.8301 5.34375C13.8301 5.29688 13.8067 5.25 13.8067 5.20312C13.877 5.15625 13.9473 5.25 13.9239 5.08594C13.9473 5.34375 14.4161 5.29688 14.463 5.36719C14.5567 5.27344 14.6505 5.29688 14.7676 5.32031C14.7442 5.29688 14.7442 5.13281 14.838 5.15625C14.7911 5.46094 15.002 5.29687 15.0723 5.53125C15.002 5.39062 15.3536 5.48438 15.2364 5.27344C15.3067 5.29688 15.2364 5.39062 15.3067 5.46094C15.4005 5.39062 15.4942 5.39062 15.6114 5.41406C15.7286 5.4375 15.8458 5.46094 15.9629 5.39063C15.9629 5.34375 15.9161 5.29688 15.9395 5.22656C15.9864 5.27344 16.0567 5.34375 16.1036 5.39063C16.1505 5.36719 16.0801 5.15625 16.1973 5.27344C16.1739 5.25 16.1505 5.20312 16.1739 5.17969C16.2911 5.20312 16.4083 5.17969 16.5255 5.13281C16.6426 5.08594 16.7364 5.03906 16.8301 4.96875C17.0411 4.85156 17.2286 4.75781 17.5333 4.78125C17.4395 4.75781 17.463 4.71094 17.5098 4.6875C17.463 4.6875 17.463 4.59375 17.4161 4.54688C17.4864 4.54688 17.5801 4.57031 17.6739 4.57031C17.6036 4.42969 17.838 4.42969 17.7676 4.3125L17.7442 4.38281C17.6973 4.19531 17.4161 4.14844 17.2989 3.96094C17.3223 4.05469 17.252 4.03125 17.1583 4.00781C17.0645 3.98437 16.9942 3.98437 17.0176 4.125C16.9708 4.10156 16.9942 4.05469 16.9708 4.00781C16.9942 4.10156 16.9708 4.14844 16.877 4.14844V4.125C16.713 4.24219 16.5958 4.19531 16.3614 4.21875L16.4083 4.3125C16.3614 4.3125 16.3379 4.28906 16.3145 4.26562C16.3145 4.45312 16.4317 4.21875 16.4551 4.40625C16.3145 4.21875 16.127 4.52344 16.0098 4.28906C15.9395 4.3125 16.0567 4.40625 15.9864 4.42969L15.9395 4.35937V4.45313C15.8926 4.45313 15.8458 4.35938 15.8223 4.3125C15.8458 4.3125 15.8458 4.28906 15.8692 4.28906C15.7989 4.21875 15.7051 4.35938 15.6817 4.33594L15.752 4.35937C15.6583 4.40625 15.5645 4.42969 15.4473 4.45313C15.3536 4.47656 15.2364 4.5 15.1426 4.57031L15.1661 4.61719C15.0255 4.71094 15.0489 4.57031 14.8848 4.61719V4.59375C14.8614 4.64062 14.8145 4.66406 14.7676 4.66406C14.8145 4.61719 14.6973 4.54687 14.7676 4.47656C14.6036 4.57031 14.6973 4.54687 14.5567 4.73437L14.5333 4.64062C14.4864 4.71094 14.4864 4.75781 14.3926 4.75781C14.463 4.6875 14.3692 4.61719 14.463 4.52344C14.3458 4.28906 14.1817 4.66406 14.1583 4.35937C14.0176 4.57031 14.2754 4.52344 14.2051 4.57031C14.2286 4.66406 14.088 4.73438 14.0411 4.6875C13.9942 4.66406 14.0176 4.38281 13.9005 4.33594C13.9239 4.33594 13.9239 4.33594 13.9239 4.33594C13.9005 4.26563 13.8067 4.38281 13.7833 4.26562C13.6895 4.38281 13.7129 4.24219 13.6192 4.40625C13.6661 4.40625 13.713 4.40625 13.7598 4.40625C13.713 4.40625 13.6661 4.47656 13.5958 4.5C13.5255 4.52344 13.4551 4.52344 13.4083 4.45313C13.4317 4.42969 13.4786 4.38281 13.5255 4.38281C13.4786 4.3125 13.4317 4.38281 13.3848 4.28906C13.4083 4.19531 13.4551 4.21875 13.5255 4.24219C13.5489 4.26562 13.5958 4.26562 13.6426 4.28906C13.6895 4.28906 13.7129 4.28906 13.7364 4.26562C13.7598 4.19531 13.4786 4.3125 13.6192 4.14844C13.5489 4.24219 13.502 4.21875 13.4317 4.17188C13.3848 4.125 13.3145 4.05469 13.2208 4.125L13.2442 4.00781C13.2208 4.00781 13.1739 4.05469 13.127 4.00781C13.1505 3.96094 13.1739 3.91406 13.1973 3.89062C13.127 3.91406 13.0801 3.86719 13.0098 3.77344C12.9395 3.70312 12.8692 3.60938 12.8223 3.60938C13.0801 3.77344 12.9161 3.82031 13.0333 3.98438C12.9161 4.00781 12.8692 3.89063 12.7755 3.72656C12.7051 3.58594 12.588 3.39844 12.4239 3.32812C12.4708 3.32812 12.6348 3.53906 12.588 3.58594C12.5176 3.51562 12.4004 3.39844 12.3301 3.25781C12.1192 3.14063 12.4473 3.46875 12.377 3.51563C12.213 3.23438 12.3067 3.53906 12.2598 3.5625L12.1661 3.375C11.8614 3.09375 12.3067 3.75 12.0489 3.46875C12.0255 3.39844 12.002 3.30469 11.9786 3.23438H11.9083L11.7911 3C11.7911 3.02344 11.7676 3.04688 11.7676 3.04688C11.7911 3.16406 11.7442 3.11719 11.7208 3.1875C11.7911 3.28125 11.9317 3.53906 11.9317 3.65625C11.8614 3.63281 11.8145 3.44531 11.838 3.63281C11.7676 3.49219 11.6739 3.30469 11.7911 3.39844C11.7442 3.32813 11.7208 3.25781 11.6739 3.1875C11.6036 3.16406 11.6505 3.39844 11.6505 3.46875C11.6505 3.44531 11.6505 3.42187 11.6739 3.44531C11.7208 3.60937 11.7676 3.75 11.838 3.91406C11.7911 3.89062 11.7676 3.82031 11.7208 3.75C11.7442 3.82031 11.7911 3.91406 11.7911 4.00781C11.6973 3.89062 11.6036 3.77344 11.5567 3.60938L11.6505 3.98438C11.6036 3.96094 11.5333 4.00781 11.5098 3.9375C11.4864 3.98438 11.5333 4.125 11.5801 4.26562C11.627 4.40625 11.6739 4.52344 11.627 4.59375C11.6504 4.61719 11.6505 4.64063 11.6739 4.6875C11.6505 4.82813 11.5333 4.96875 11.6739 5.22656C11.627 5.25 11.5567 5.27344 11.5098 5.32031C11.5333 5.41406 11.5801 5.36719 11.627 5.36719C11.6739 5.34375 11.7442 5.34375 11.7676 5.48438C11.8145 5.67188 11.627 5.53125 11.5801 5.60156C11.5801 5.625 11.6036 5.625 11.6036 5.64844C11.627 5.64844 11.627 5.67188 11.6505 5.67188C11.6739 5.69531 11.6973 5.71875 11.7208 5.74219C11.7676 5.78906 11.7676 5.83594 11.6973 5.88281C11.7911 5.76562 11.8145 5.74219 11.8145 5.69531ZM11.8848 6.89062C11.8614 6.86719 11.7911 6.82031 11.8614 6.79688C11.9786 6.84375 11.9083 6.84375 11.8848 6.89062ZM12.1426 8.69531C12.0958 8.67188 12.1192 8.64844 12.1661 8.625C12.1895 8.64844 12.1895 8.67188 12.1426 8.69531ZM12.9395 13.7578C12.9864 13.6875 12.963 13.7109 12.9395 13.7578V13.7578ZM12.8926 13.8516C12.9161 13.8516 12.9161 13.8516 12.9395 13.8516C12.9161 13.8516 12.9161 13.8281 12.9161 13.7812C12.8926 13.8047 12.8692 13.8281 12.8926 13.8516ZM13.713 5.22656L13.6895 5.17969C13.7598 5.17969 13.7364 5.20312 13.713 5.22656Z" fill="black"/>
<path d="M12.002 8.50781C12.0255 8.50781 12.0489 8.50781 12.0723 8.50781C12.0255 8.48438 12.0255 8.48438 12.002 8.50781Z" fill="black"/>
<path d="M11.7442 4.52344C11.7442 4.5 11.7208 4.5 11.7208 4.5L11.7442 4.52344Z" fill="black"/>
<path d="M11.9317 12.2109C11.9551 12.1875 11.9786 12.1875 11.9786 12.1641C11.9551 12.1641 11.9317 12.1641 11.9317 12.2109Z" fill="black"/>
<path d="M13.0801 14.4375L13.0567 14.3672C13.0567 14.3906 13.0333 14.4141 13.0098 14.4375C13.0333 14.4141 13.0801 14.4141 13.0801 14.4375Z" fill="black"/>
<path d="M12.377 15.0234C12.4005 15.0234 12.377 15.0469 12.4004 15.0469H12.4473C12.4473 15 12.4005 14.9766 12.377 15.0234Z" fill="black"/>
<path d="M12.7051 14.4844C12.6114 14.4844 12.6348 14.5313 12.6582 14.5781C12.7989 14.6016 12.752 14.5312 12.7051 14.4844Z" fill="black"/>
<path d="M12.6583 14.6016C12.6583 14.625 12.6583 14.625 12.6583 14.6484C12.7286 14.6484 12.6817 14.625 12.6583 14.6016Z" fill="black"/>
<path d="M12.9395 13.9922C12.9161 14.0156 13.0567 14.0156 13.0333 14.0156C13.1505 14.0391 12.8927 13.875 12.9395 13.9922Z" fill="black"/>
<path d="M12.4005 14.5312L12.5176 14.5078L12.4239 14.4844L12.4005 14.5312Z" fill="black"/>
<path d="M12.4708 14.1562L12.4473 14.2266C12.4708 14.2266 12.4708 14.2266 12.4942 14.25C12.4942 14.2031 12.5176 14.1562 12.4708 14.1562Z" fill="black"/>
<path d="M12.4942 14.25C12.4942 14.2734 12.4942 14.2969 12.5176 14.3203C12.4942 14.2969 12.4942 14.2734 12.4942 14.25Z" fill="black"/>
<path d="M12.3536 14.4141L12.377 14.3906V14.3438L12.3536 14.4141Z" fill="black"/>
<path d="M12.4942 13.3359L12.4707 13.2422C12.4239 13.2422 12.4004 13.2656 12.4239 13.2891C12.4473 13.3125 12.4707 13.3359 12.4942 13.3359Z" fill="black"/>
<path d="M12.1895 13.5703C12.213 13.5469 12.2364 13.5469 12.2833 13.5234H12.1426L12.1895 13.5703Z" fill="black"/>
<path d="M12.1426 13.3359C12.0958 13.3359 12.0255 13.2188 12.0255 13.3125C12.0723 13.3359 12.1192 13.4063 12.1426 13.3359Z" fill="black"/>
<path d="M12.3301 12.0703V12.0937H12.5645L12.3301 12.0703Z" fill="black"/>
<path d="M11.7676 10.9688C11.7208 11.0625 11.9083 10.9922 11.8379 11.0859C11.8848 11.1094 11.8848 11.0156 11.9551 11.0391C11.8848 10.9688 11.9083 10.9219 11.7676 10.9688Z" fill="black"/>
<path d="M11.9317 11.0156C11.9317 11.0156 11.9551 11.0391 11.9786 11.0391C11.9551 11.0391 11.9551 11.0391 11.9317 11.0156Z" fill="black"/>
<path d="M17.8848 4.59375C17.9083 4.59375 17.9551 4.59375 17.9786 4.59375C17.9551 4.59375 17.9083 4.57031 17.8848 4.57031V4.59375Z" fill="black"/>
<path d="M17.8848 4.35937L18.002 4.45313C17.9786 4.40625 17.9786 4.35938 17.9551 4.3125C17.9317 4.33594 17.9083 4.38281 17.8848 4.35937Z" fill="black"/>
<path d="M11.5801 7.07813H11.627C11.6739 7.07813 11.6739 7.05469 11.6739 7.03125L11.5801 7.07813Z" fill="black"/>
<path d="M11.6739 6.21094L11.8145 6.1875L11.6739 6.21094Z" fill="black"/>
<path d="M11.5098 5.39062C11.5098 5.41406 11.5098 5.46094 11.5098 5.48437C11.5098 5.50781 11.5333 5.55469 11.5098 5.55469C11.5098 5.55469 11.5098 5.50781 11.5098 5.48437C11.5098 5.46094 11.5333 5.4375 11.5333 5.4375C11.6036 5.41406 11.6036 5.39062 11.5098 5.39062Z" fill="black"/>
</svg>
