<svg width="24" height="24" viewBox="0 0 24 24" fill="none" xmlns="http://www.w3.org/2000/svg">
<path d="M18.8675 6.43503C18.9686 6.36773 18.8457 6.40379 18.7419 6.39898L18.8675 6.43503Z" fill="#242424"/>
<path d="M18.7474 6.39897L18.66 6.37013C18.6842 6.38886 18.7152 6.39912 18.7474 6.39897Z" fill="#242424"/>
<path d="M17.8956 6.25001C18.1003 6.19233 18.3297 6.30769 18.4689 6.21876C18.2723 6.13224 17.9502 6.13945 17.8956 6.25001Z" fill="#242424"/>
<path d="M18.1877 6.33648L18.2177 6.2812L18.0485 6.35331L18.1877 6.33648Z" fill="#242424"/>
<path d="M18.3051 6.399L18.2833 6.37737C18.1905 6.37737 18.1004 6.399 18.0103 6.41342C18.1085 6.4038 18.2068 6.4014 18.3051 6.399Z" fill="#242424"/>
<path d="M17.2294 6.1995L17.4287 6.18267C17.6171 6.26199 17.3058 6.28362 17.4287 6.3365C17.6744 6.3365 17.516 6.17787 17.8273 6.21152C17.8055 6.13701 17.3249 6.21151 17.3768 6.08893C17.1065 6.05768 17.3604 6.15623 17.2294 6.1995Z" fill="#242424"/>
<path d="M5.41011 7.22977L5.38281 7.21776C5.39373 7.22977 5.40465 7.23938 5.41011 7.22977Z" fill="#242424"/>
<path d="M3.95214 7.88792C3.93866 7.92578 3.92772 7.9643 3.91937 8.00329C3.93488 7.99003 3.94779 7.9746 3.9576 7.95763L3.95214 7.88792Z" fill="#242424"/>
<path d="M7.4469 7.01116C7.48984 7.02261 7.53363 7.03145 7.57795 7.03761C7.53825 7.01746 7.4926 7.00825 7.4469 7.01116Z" fill="#242424"/>
<path d="M7.59156 17.4018C7.58146 17.4101 7.57475 17.4211 7.57245 17.4331L7.60794 17.4042L7.59156 17.4018Z" fill="#242424"/>
<path d="M3.98842 11.0824C3.98303 11.1256 3.98303 11.169 3.98842 11.2122C4.00207 11.1695 4.00207 11.1251 3.98842 11.0824Z" fill="#242424"/>
<path d="M4.1528 7.47717H4.13232C4.13232 7.47717 4.14939 7.48219 4.1528 7.47717Z" fill="#242424"/>
<path d="M14.207 6.26439C14.1594 6.25761 14.1107 6.26435 14.0677 6.28362C14.0908 6.29161 14.1159 6.29404 14.1403 6.29066C14.1648 6.28728 14.1878 6.27822 14.207 6.26439Z" fill="#242424"/>
<path d="M13.0765 6.31255C13.0785 6.29452 13.0744 6.29752 13.0765 6.31255V6.31255Z" fill="#242424"/>
<path d="M14.0677 6.28362C13.9694 6.24517 13.9312 6.10336 13.822 6.26439L13.8466 6.28603C13.7729 6.25238 13.6691 6.31727 13.5735 6.32688C13.5813 6.34088 13.5925 6.35319 13.6063 6.36294C13.6473 6.36294 13.7046 6.36294 13.792 6.36294C13.8793 6.36294 13.9694 6.32448 14.0677 6.28362Z" fill="#242424"/>
<path d="M5.42371 7.20094C5.42371 7.22979 5.51107 7.21537 5.42371 7.20094V7.20094Z" fill="#242424"/>
<path d="M6.42574 7.08566H6.32745C6.35985 7.09329 6.39335 7.09329 6.42574 7.08566Z" fill="#242424"/>
<path d="M10.2099 6.97516H10.1908C10.1853 6.99018 10.2017 6.98417 10.2099 6.97516Z" fill="#242424"/>
<path d="M6.23737 7.07477H6.32746C6.29782 7.0672 6.267 7.0672 6.23737 7.07477Z" fill="#242424"/>
<path d="M19.6402 13.5276C19.6566 13.5949 19.6074 13.6334 19.5938 13.6982C19.7139 13.8377 19.5938 13.405 19.703 13.6117C19.7018 13.5576 19.6907 13.5041 19.6702 13.4531L19.5583 13.542C19.602 13.6646 19.5965 13.4603 19.6402 13.5276Z" fill="#242424"/>
<path d="M8.53075 17.6109H8.49799C8.51983 17.6541 8.49799 17.6686 8.62358 17.6926C8.73006 17.6253 8.56624 17.522 8.7519 17.4523C8.70504 17.4605 8.65679 17.4605 8.60993 17.4523C8.68637 17.4955 8.61266 17.558 8.53075 17.6109Z" fill="#242424"/>
<path d="M8.60993 17.4331C8.60153 17.4245 8.5924 17.4164 8.58263 17.409C8.55817 17.412 8.53337 17.412 8.50891 17.409C8.54023 17.4233 8.57469 17.4315 8.60993 17.4331Z" fill="#242424"/>
<path d="M19.5911 15.7373V15.8118C19.6047 15.7757 19.6047 15.7541 19.5911 15.7373Z" fill="#242424"/>
<path d="M2.57337 10.8206L2.54333 10.7317C2.54081 10.7636 2.55148 10.7952 2.57337 10.8206Z" fill="#242424"/>
<path d="M6.74248 17.5147C6.71321 17.5063 6.68301 17.5007 6.65238 17.4979H6.59778L6.74248 17.5147Z" fill="#242424"/>
<path d="M12.7026 16.5635C12.6371 16.6765 12.7517 16.5635 12.8773 16.6188L12.9947 16.5611C12.8976 16.551 12.7994 16.5518 12.7026 16.5635Z" fill="#242424"/>
<path d="M16.2028 16.5395L16.2602 16.5539C16.2422 16.546 16.2228 16.5411 16.2028 16.5395Z" fill="#242424"/>
<path d="M7.91099 17.385H7.45776L7.59155 17.4138C7.65434 17.3513 7.84819 17.4523 7.91099 17.385Z" fill="#242424"/>
<path d="M10.7805 16.4987L10.7396 16.4315C10.2918 16.5756 9.77577 16.3666 9.42084 16.5708C8.87479 16.3306 9.06045 16.7845 8.56081 16.5708L8.57719 16.6044L6.07081 16.5227C5.65399 16.5099 5.24173 16.5051 4.83401 16.5083C4.63197 16.5083 4.42993 16.5083 4.23062 16.5227L3.93575 16.5371H3.81562H3.79378V16.4915L3.7419 16.4699C3.74888 16.4527 3.75436 16.435 3.75829 16.4171L3.79378 15.7902C3.8138 15.3098 3.83473 14.8294 3.85658 14.349C3.8948 13.3883 3.93302 12.4275 4.00128 11.4667C3.96032 11.265 3.83473 11.3803 3.78286 11.2049C3.78286 11.1281 3.78286 10.9647 3.86204 10.9647C3.88934 11.1137 3.95486 11.032 3.97671 11.0824C4.02313 10.8267 4.03322 10.5669 4.00674 10.309L3.91118 10.4868C3.89067 10.3899 3.89067 10.2906 3.91118 10.1937C3.95486 10.2274 4.05588 10.1217 4.07227 10.1937C3.88115 9.72537 4.18421 9.83825 4.11868 9.45155C3.93848 9.36748 3.81289 8.8775 3.69822 8.55564L3.75556 8.39231C3.7419 8.61329 3.88934 8.39231 3.8675 8.66613C3.93029 8.44035 3.8675 8.22418 3.90299 8.00801C3.85658 8.04884 3.79651 8.03443 3.78013 7.94796C3.81289 7.81586 3.90572 7.80625 3.9221 7.65493L3.97125 7.80865C3.98639 7.7874 3.99618 7.76354 3.99995 7.73868C4.00371 7.71382 4.00138 7.68854 3.99309 7.66454C3.98209 7.62542 3.96842 7.58692 3.95213 7.54925C4.02858 7.54925 4.04496 7.494 4.1296 7.53244C4.09598 7.51484 4.07149 7.48641 4.06134 7.45317C4.05463 7.42062 4.04268 7.38908 4.02585 7.3595C4.00694 7.3582 3.98879 7.35236 3.97339 7.34262C3.95799 7.33288 3.94591 7.31961 3.93848 7.30426L3.90845 7.24901C3.90705 7.24165 3.90389 7.23463 3.89919 7.22842C3.89448 7.22221 3.88833 7.21695 3.88115 7.21298C3.88115 7.21298 3.88115 7.21298 3.88115 7.2346V7.27063V7.33788C3.93848 7.22259 3.88115 7.40033 4.02039 7.45077C3.99036 7.45077 3.93848 7.41954 3.8948 7.37631C3.85111 7.33308 3.82108 7.29705 3.82927 7.37631C3.80851 7.30491 3.79841 7.23144 3.79924 7.15774C3.87028 7.15078 3.93851 7.1294 3.99855 7.09529C3.85931 7.1145 3.9849 7.01843 3.87842 6.9824C4.1023 6.9824 3.95486 7.02323 4.05315 7.09769C4.15963 7.09769 4.20878 7.16254 4.30434 7.07848C4.56371 7.1145 4.26065 7.16495 4.39444 7.21058C4.31253 7.25141 4.23608 7.22499 4.13779 7.22259C4.0395 7.22019 4.00674 7.237 4.10776 7.3643C4.06954 7.3643 4.10776 7.45317 4.12141 7.4844C4.15113 7.49098 4.17841 7.50422 4.20059 7.52283C4.22516 7.54204 4.22789 7.54684 4.22243 7.52283L4.15417 7.38111C4.18421 7.38111 4.1924 7.28024 4.24973 7.29225C4.24491 7.30327 4.24389 7.31531 4.2468 7.32684C4.24971 7.33838 4.25643 7.3489 4.26611 7.35709C4.27405 7.3669 4.2843 7.37509 4.29615 7.38111H4.39717C4.37956 7.37347 4.3613 7.36704 4.34256 7.3619C4.3401 7.35871 4.33878 7.35495 4.33878 7.35109C4.33878 7.34724 4.3401 7.34347 4.34256 7.34028C4.56371 7.34028 4.61559 7.2346 4.90772 7.21058C4.73004 7.17592 4.55639 7.12687 4.38898 7.06407C4.45177 6.96559 4.55006 7.06406 4.68384 7.04005C4.662 7.05446 4.6347 7.05686 4.68384 7.07607L4.82855 7.03044C5.13161 7.07608 4.78759 7.17455 5.03878 7.22499C5.21078 7.30906 5.27631 7.17936 5.40736 7.22499C5.39986 7.21646 5.39165 7.20843 5.38279 7.20097H5.44832C5.6094 7.18656 5.78414 7.20097 5.83055 7.12171C5.84693 7.15534 5.96979 7.12171 6.0244 7.09049C6.079 7.05926 6.33019 6.97279 6.46397 7.09049C6.66601 7.1049 6.82163 7.14092 6.78068 7.18176L7.10558 7.21058L7.07282 7.30666C7.37042 7.27783 7.34584 7.22019 7.54242 7.1169C7.76895 7.1474 8.00038 7.13262 8.21953 7.07367C8.2584 7.07923 8.29805 7.07923 8.33693 7.07367L8.21134 7.04005C8.44341 7.04005 8.41337 6.9848 8.56627 6.9776C8.53351 6.9776 8.52805 6.96319 8.61541 6.9776H8.70551C8.70551 6.98961 8.66456 6.98961 8.62907 6.9776L8.6591 7.00882C8.85568 7.10009 8.93212 6.93196 9.13689 6.95358C9.11483 6.96063 9.09193 6.96546 9.06864 6.96799C9.18058 6.9848 9.34166 7.1121 9.38808 7.02563C9.41538 7.02563 9.45087 7.02563 9.4891 6.99201H9.571H9.4891C9.53551 6.96078 9.58192 6.92235 9.59012 6.94157H9.86314C9.92545 6.94758 9.98847 6.93931 10.0461 6.91755L10.0979 6.95598C10.199 6.94397 10.2017 6.95598 10.1908 6.98C10.5512 7.10009 10.7368 6.87672 11.1191 6.98C11.1873 6.91034 11.029 6.88633 11.0153 6.8503C11.1344 6.7862 11.2631 6.73689 11.3975 6.70378C11.5723 6.78785 12.0938 6.86711 12.0091 7.00402C12.3204 7.00402 11.9136 6.91995 12.0692 6.87431H12.1047C12.0086 6.86115 11.9198 6.82164 11.8508 6.76142C11.8262 6.68937 12.1047 6.66775 12.1893 6.68937L12.1293 6.79265C12.4187 6.75662 12.3613 6.6029 12.547 6.50202C12.7791 6.55006 12.6425 6.63893 12.689 6.74221L12.9347 6.72299V6.79986C13.0985 6.78304 13.1367 6.71579 13.3606 6.74221C13.1995 6.81667 13.6992 6.80946 13.478 6.91034C13.6063 6.93436 13.6336 6.78304 13.7019 6.88392C13.7865 6.79746 13.5899 6.84789 13.5244 6.82147C13.4698 6.70618 13.7974 6.75662 13.9421 6.71819C13.9585 6.77824 13.8466 6.79505 14.0268 6.82628C14.0545 6.79433 14.0948 6.77267 14.1398 6.76556C14.1848 6.75845 14.2311 6.7664 14.2698 6.78785C14.2698 6.71098 14.4664 6.75902 14.5646 6.75662C14.4527 6.75662 14.2916 6.70378 14.3544 6.63172C14.4641 6.58548 14.5851 6.56401 14.7066 6.56927L14.5701 6.54285C14.7285 6.41795 14.8595 6.6053 15.0861 6.54285C15.0053 6.57832 14.9277 6.61928 14.8541 6.66535C15.009 6.60221 15.1676 6.54609 15.3291 6.49722L15.5366 6.59329C15.5557 6.53565 15.755 6.59329 15.7496 6.50442C15.9953 6.53805 15.5612 6.61251 15.5448 6.67256C15.8533 6.69898 15.7769 6.52364 16.0909 6.61971L16.0008 6.69898C16.099 6.69898 16.2902 6.64373 16.3038 6.67736C16.3038 6.65334 16.2547 6.66535 16.1946 6.67736C16.241 6.51643 16.6314 6.54285 16.585 6.38433H16.4513C16.6533 6.34109 16.798 6.2282 16.9618 6.27864C17.1256 6.32908 16.8799 6.39153 16.8089 6.43477C17.0055 6.43477 16.9591 6.24982 17.1966 6.26423C17.071 6.24021 17.0929 6.18257 17.1693 6.13933C17.0301 6.13933 16.7434 6.11291 16.7953 6.17776H16.8471C16.8471 6.221 16.7625 6.23781 16.727 6.26183C16.5414 6.26183 16.6342 6.19218 16.596 6.16335C16.2847 6.16335 16.596 6.32428 16.3011 6.33389L16.2601 6.30507C16.1291 6.35551 15.9216 6.37712 15.8943 6.478C15.7605 6.38433 15.5803 6.54285 15.4411 6.49241C15.3919 6.26904 15.9189 6.46839 16.0663 6.33629C15.9134 6.30026 16.14 6.221 16.1973 6.16575L15.7414 6.29786C15.7004 6.26904 15.553 6.16816 15.4684 6.25703H15.5066C15.3237 6.29546 15.3837 6.38433 15.2336 6.36751C15.2063 6.3483 15.2499 6.30747 15.2609 6.29305C15.1134 6.29305 15.1462 6.3531 15.0506 6.38192C14.9005 6.38192 15.1134 6.28345 14.9878 6.26903C14.8267 6.36751 14.7148 6.26904 14.5728 6.28345C14.6493 6.41075 14.0049 6.49962 14.3326 6.59089L13.9831 6.69898C13.8684 6.63893 14.2152 6.50683 14.1087 6.40354L14.3817 6.39153C14.3217 6.23541 13.8002 6.53084 13.6091 6.3555C13.4755 6.36558 13.3412 6.34575 13.2186 6.29786L13.265 6.44197C13.2219 6.43438 13.1816 6.41776 13.1474 6.3935C13.1131 6.36925 13.0861 6.33809 13.0685 6.30266C12.9896 6.31108 12.9098 6.31108 12.8309 6.30266C12.8595 6.27861 12.8957 6.26271 12.9347 6.25703C12.8337 6.17777 12.7927 6.20419 12.7518 6.25703C12.6731 6.28536 12.587 6.29368 12.5033 6.28104L12.5907 6.23061C12.5306 6.23061 12.4596 6.25462 12.4542 6.28104C12.4161 6.27726 12.3776 6.27726 12.3395 6.28104C12.394 6.34954 12.4712 6.40155 12.5606 6.42996C12.2491 6.41005 11.9407 6.36175 11.6405 6.28585C11.6405 6.24502 11.7771 6.19217 11.7388 6.18737C11.5887 6.16816 11.4276 6.24502 11.444 6.30507H11.3621C11.3473 6.28358 11.327 6.26544 11.3028 6.2521C11.2786 6.23875 11.2512 6.23057 11.2228 6.2282C11.1946 6.21138 11.1614 6.2022 11.1273 6.20178C11.0836 6.31707 10.7969 6.27144 10.7368 6.32668C10.8148 6.33503 10.8936 6.33503 10.9716 6.32668C10.8542 6.40594 10.7532 6.49722 10.6576 6.44197C10.8761 6.36031 10.4147 6.33389 10.7477 6.28825C10.502 6.15374 10.6303 6.39634 10.3792 6.35791L10.2153 6.30987C10.2345 6.2258 10.472 6.25462 10.4338 6.2258L10.3218 6.24261C10.4283 6.17296 10.8515 6.19458 11.1109 6.0913L10.5839 6.06728C9.93413 6.19698 9.10413 6.14654 8.58265 6.36031H8.60722C8.5954 6.37691 8.5888 6.39597 8.58811 6.41555L8.56354 6.39633L8.46252 6.46359C8.28488 6.40659 8.10226 6.36241 7.91647 6.33149C8.03933 6.37952 8.03933 6.37952 8.05571 6.43957C8.07209 6.49962 8.01749 6.55966 7.83183 6.53565C7.83183 6.4756 7.94104 6.4756 7.80453 6.43237C7.87551 6.45879 7.80453 6.50202 7.73627 6.51163C7.63252 6.4756 7.46324 6.4708 7.46324 6.41075C7.50273 6.40199 7.5445 6.40626 7.58065 6.42276C7.62706 6.40594 7.3868 6.37232 7.52604 6.32188L7.34311 6.3435C7.2339 6.29546 7.41137 6.26423 7.36769 6.23301C7.0619 6.27864 6.90627 6.41315 6.62506 6.45398C6.63482 6.41373 6.6394 6.37264 6.63871 6.33149C6.42302 6.29065 6.17729 6.4732 5.92884 6.4828C5.96706 6.44437 6.05716 6.46119 6.13361 6.44197L5.077 6.37472C4.91045 6.37472 4.74391 6.3459 4.57463 6.32668L4.30161 6.29305L3.89753 6.24742C3.81562 6.29305 3.73098 6.33629 3.66546 6.38192L3.30506 6.29305L3.07299 6.27864H2.95832H2.90099C2.8846 6.27864 2.85184 6.27864 2.86003 6.29065C2.84638 6.41075 2.83546 6.53084 2.82727 6.65334C2.80816 6.89353 2.8027 7.13372 2.79997 7.37391V7.53964V7.64773C2.79997 7.71658 2.79997 7.78863 2.79997 7.86389C2.79997 8.00801 2.79997 8.15693 2.81635 8.31305C2.81635 8.50761 2.70441 8.42594 2.65526 8.51481C2.61704 8.93995 2.78358 9.05043 2.79724 9.45875C2.75355 9.40111 2.62796 9.30023 2.61158 9.47317C2.65526 9.5092 2.72352 9.53322 2.69076 9.6413L2.64434 9.58365C2.57062 9.68213 2.63069 9.78061 2.59247 9.98958C2.57928 10.3452 2.65671 10.6989 2.81908 11.0248C2.78631 11.349 2.65526 10.984 2.61977 11.044C2.68802 10.8038 2.60066 10.8831 2.55151 10.8302C2.58701 10.9551 2.60612 11.1017 2.49418 11.1617C2.4786 11.3021 2.49721 11.4437 2.54878 11.5772C2.51602 11.4908 2.57881 11.4211 2.6225 11.5028C2.57881 11.6397 2.60066 11.9832 2.46687 11.9687C2.45049 12.7734 2.37678 13.6693 2.33855 14.5292C2.40135 14.6781 2.37131 14.4211 2.41773 14.5027C2.49691 14.7165 2.36039 14.6685 2.41773 14.839L2.34674 14.7669C2.35845 15.0282 2.41081 15.2868 2.50237 15.5356C2.41773 15.4923 2.42046 15.7325 2.38224 15.5356C2.38224 15.6557 2.00273 15.7757 2.07645 15.879L2.43684 15.7589C2.4696 15.7589 2.43684 15.9319 2.46414 15.9175C2.38736 16.0055 2.3308 16.1058 2.2976 16.2129C2.20477 16.2465 2.2348 16.0664 2.24026 15.9727C2.09283 15.9511 2.12832 16.3018 2 16.1528C2.01365 16.3642 2.07645 16.124 2.12559 16.2537L2.10648 16.345C2.10427 16.3626 2.10427 16.3803 2.10648 16.3978V16.4867L2.12286 16.4195V16.3858V16.3666L2.15016 16.297C2.15016 16.3402 2.17474 16.3594 2.18566 16.4074C2.19658 16.4555 2.21296 16.5107 2.22115 16.5612C2.24424 16.6936 2.23399 16.8289 2.19112 16.9575C2.2348 17.0656 2.27849 17.164 2.32217 17.2505C2.19931 17.3538 2.28668 17.5171 2.24845 17.7141C2.23424 17.691 2.22236 17.6669 2.21296 17.642C2.21296 17.7045 2.21296 17.7597 2.21296 17.8078C2.3307 17.8098 2.44748 17.8268 2.5597 17.8582C2.30033 17.9495 2.31125 17.8366 2.14197 17.923L2.45868 17.9543C2.51329 17.8942 2.75628 17.8486 2.5597 17.8126C2.94103 17.6743 3.3516 17.6096 3.76375 17.6228C4.06407 17.7237 3.43065 17.7117 3.53167 17.8102C3.62723 17.8102 3.7146 17.8102 3.8047 17.8102H3.85931H3.89207L3.9494 17.7957C4.01817 17.7727 4.08331 17.742 4.14325 17.7045C4.25519 17.6348 4.34256 17.5628 4.47361 17.57C4.80124 17.6108 4.78213 17.5171 5.11522 17.5099C5.01147 17.5796 5.35003 17.5844 5.41009 17.6492L5.27904 17.7189C5.38006 17.6997 5.47835 17.7189 5.44832 17.7741C5.4292 17.6829 5.8797 17.6901 6.10904 17.6444L6.07081 17.5652C6.27302 17.5239 6.48035 17.5053 6.68785 17.5099C6.96088 17.4859 6.909 17.4138 7.12742 17.3298C7.15014 17.3414 7.16994 17.3569 7.18563 17.3754C7.20132 17.3939 7.21257 17.4151 7.2187 17.4375C7.22483 17.46 7.22571 17.4833 7.22128 17.5061C7.21685 17.5288 7.20721 17.5506 7.19295 17.57C7.1165 17.5291 6.98818 17.5532 6.86532 17.5291C6.50492 17.5964 6.22644 17.7693 5.87151 17.7261C5.71588 17.9158 6.11177 17.7021 6.28377 17.7693C6.28377 17.7813 6.26739 17.7861 6.25374 17.7885C6.26816 17.786 6.283 17.786 6.29742 17.7885C6.1691 17.8126 5.9616 17.8414 5.92611 17.9399C6.13907 17.9206 6.08173 17.7501 6.34657 17.8318C6.54588 17.7765 6.70696 17.9278 6.82436 17.9423C6.95542 17.8702 6.96361 17.7165 7.28578 17.7453L7.14381 17.8534C7.50966 17.8534 7.31581 17.6973 7.65436 17.7021C7.53423 17.6877 7.76903 17.5964 7.54242 17.594C7.71613 17.534 7.90614 17.5206 8.08847 17.5556C8.13762 17.5387 8.08847 17.5195 8.10759 17.4835C7.90282 17.409 7.78542 17.5556 7.61887 17.4475L7.4769 17.5652C7.28578 17.5219 7.26667 17.4283 7.38407 17.385C7.32946 17.385 7.28305 17.4042 7.24482 17.385C7.21206 17.2097 7.47144 17.4475 7.53696 17.2986L7.40318 17.3106C7.34584 17.1977 7.71716 17.2121 7.88917 17.2193C8.08301 17.2721 8.26321 17.2913 8.27686 17.373L8.00384 17.409C8.13762 17.4739 8.33693 17.3706 8.48982 17.373C8.50079 17.3857 8.5161 17.395 8.53351 17.3994C8.5308 17.3924 8.5308 17.3848 8.53351 17.3778C8.56634 17.3792 8.59744 17.3912 8.62087 17.4114C8.77106 17.3937 8.92261 17.3865 9.0741 17.3898V17.3178L9.05499 17.3586C8.93485 17.3586 8.78196 17.3106 8.86114 17.2577C8.93678 17.237 9.01838 17.2409 9.09106 17.2686C9.16373 17.2964 9.22263 17.3462 9.25702 17.409C9.19423 17.5219 8.984 17.409 8.84749 17.4475C8.93212 17.558 9.12051 17.4595 9.41538 17.5315C9.30071 17.654 9.08229 17.5315 9.01949 17.642C9.25156 17.6636 9.31163 17.5772 9.56554 17.6084C9.53551 17.6636 9.29252 17.6684 9.31436 17.7405L9.46998 17.7765C9.08775 17.7765 9.53824 17.9278 9.24064 17.9567C9.37989 18.0071 9.43449 17.8582 9.63653 17.9351C9.57919 17.8822 9.42084 17.7861 9.61196 17.7381L9.82765 17.7741C9.91775 17.8318 9.60104 17.9038 9.74301 17.9519L9.96962 17.911C9.96962 17.875 9.85222 17.8558 9.92048 17.8078C10.0515 17.8462 10.1362 17.6684 10.2891 17.6132C10.3844 17.6008 10.4815 17.6196 10.5621 17.666C10.8733 17.5604 11.2638 17.5628 11.5477 17.4619C11.3539 17.5339 11.5477 17.5844 11.6733 17.6396C11.4494 17.654 11.4467 17.7693 11.4631 17.8414C11.5996 17.8294 11.687 17.7117 11.6187 17.6732C11.8453 17.7213 11.7743 17.5964 11.9764 17.6732C12.1047 17.7141 11.9108 17.7861 11.9545 17.8294C12.2002 17.8294 12.0228 17.6901 12.2876 17.7189C12.2876 17.7333 12.2494 17.7381 12.2712 17.7597C12.3301 17.7719 12.3915 17.7703 12.4495 17.7551C12.5074 17.74 12.5599 17.7117 12.6016 17.6732C12.7545 17.8198 13.033 17.6564 13.0029 17.8005C13.3497 17.7621 12.9511 17.7213 13.0193 17.6708C13.1784 17.6271 13.3489 17.6271 13.508 17.6708C13.4207 17.6708 13.3442 17.7141 13.2596 17.6925L13.3333 17.7909C13.7674 17.863 13.6063 17.5652 14.0268 17.6516C13.8111 17.7045 13.9558 17.7285 13.8493 17.7981C13.9121 17.7741 14.2397 17.7981 14.0432 17.7237C14.1689 17.7313 14.2939 17.7466 14.4172 17.7693C14.5492 17.7458 14.6751 17.701 14.7885 17.6372C14.9593 17.6495 15.1255 17.692 15.2772 17.7621C15.7387 17.6901 16.1673 17.8126 16.6424 17.7381H16.6069C16.9864 17.7573 16.4403 17.606 16.8335 17.6084C16.7816 17.7309 17.0683 17.6925 17.1966 17.7573C17.4138 17.7789 17.6332 17.7748 17.8491 17.7453L18.002 17.7309H18.2341C18.412 17.7296 18.5899 17.7385 18.7665 17.7573C18.7665 17.7813 18.7419 17.8126 18.5945 17.815C18.9658 17.839 19.2962 17.839 19.6102 17.8366V17.3034L19.6265 17.3346C19.6552 17.1507 19.6698 16.9653 19.6702 16.7797C19.6702 16.6861 19.6702 16.59 19.6702 16.4963C19.6702 16.4411 19.6702 16.4195 19.6702 16.3954V16.3162C19.6457 16.1096 19.6047 15.9006 19.5883 15.6773C19.6047 15.7133 19.6566 15.7229 19.6757 15.7493C19.7057 15.5259 19.7276 15.1657 19.5992 15.0071C19.7385 14.7405 19.5583 14.8318 19.6921 14.4883C19.7166 14.4691 19.7139 14.522 19.7194 14.546C19.7507 14.3938 19.7672 14.2395 19.7685 14.0848C19.6784 13.7101 19.4955 13.6164 19.5528 13.1769C19.7439 13.1553 19.602 13.4483 19.7521 13.4579C19.701 13.3703 19.6912 13.2684 19.7248 13.1745C19.7985 13.2465 19.7712 13.1889 19.8395 13.2393C19.8886 13.1481 19.6429 12.867 19.6593 12.8695C19.6238 12.8695 19.6047 12.8959 19.6102 12.9823C19.4928 12.8791 19.6102 12.5524 19.5528 12.341C19.5528 12.4083 19.5119 12.6245 19.4245 12.5452C19.4627 12.2594 19.2825 12.1657 19.2061 11.9663C19.2907 11.7045 19.3644 12.1609 19.4982 12.1105C19.5474 12.0672 19.6511 11.9615 19.703 12.072C19.6962 11.8637 19.6585 11.657 19.591 11.4571H19.6265C19.6265 11.1641 19.4491 10.8495 19.5228 10.6045L19.4791 10.7342C19.4573 10.6861 19.4791 10.5396 19.3917 10.4579C19.4545 10.4579 19.5119 10.2754 19.561 10.3523C19.3617 10.2226 19.4409 9.68694 19.2525 9.54042C19.3016 9.46116 19.3836 9.52361 19.4272 9.54042C19.4109 9.72537 19.3726 9.78061 19.4518 9.8863C19.4518 9.73257 19.4982 9.61968 19.5446 9.64611C19.4218 9.48998 19.3726 9.12249 19.247 9.04563C19.3098 8.93274 19.3426 8.82706 19.4463 8.86549C19.3836 8.38511 19.1269 9.10568 19.1296 8.56525C19.2307 8.32506 19.2661 8.80544 19.2989 8.46677L19.3153 8.52922C19.5883 8.28903 19.1269 8.35869 19.1351 8.08487C19.2798 8.04884 19.2388 8.27702 19.3426 8.08487C19.3044 7.83267 19.0914 7.72218 19.1378 7.47239L19.1979 7.51082C19.1979 7.34989 19.217 7.03044 19.1979 6.87912C19.2252 6.87912 19.2225 6.89353 19.2307 6.92476C19.2853 6.62692 19.1542 6.79986 19.2552 6.55727L19.1842 6.48761C19.1053 6.64927 19.0918 6.82986 19.146 6.99921C19.0641 6.84549 18.9631 7.2394 18.8402 7.16495L18.8894 7.19617C18.6764 7.59728 18.6491 8.11609 18.5699 8.63731C18.7174 8.95916 18.5099 9.18494 18.6136 9.53081C18.7829 9.58365 18.6464 9.59566 18.6819 9.8911C18.66 9.73497 18.5508 9.87429 18.529 9.97276C18.5689 10.0342 18.5949 10.1019 18.6054 10.1721C18.5454 10.2322 18.4088 10.6045 18.5235 10.7414C18.4689 10.9215 18.4689 10.7005 18.4361 10.6597C18.3488 10.7342 18.5044 10.8062 18.4361 10.8663C18.4299 10.865 18.4241 10.8623 18.4194 10.8585C18.4146 10.8548 18.411 10.85 18.4088 10.8447C18.4039 11.0855 18.3847 11.3261 18.3515 11.5652C18.5181 11.5868 18.4143 11.8462 18.4744 11.9735C18.4198 11.9327 18.4116 12.1369 18.3788 12.2137L18.5044 12.3675C18.6082 12.5188 18.428 12.5788 18.4853 12.7758L18.5153 12.7277C18.5373 12.9565 18.4892 13.1862 18.3761 13.3931C18.5085 13.9529 18.5224 14.5294 18.417 15.0936C18.3788 15.3554 18.3351 15.6196 18.3051 15.9054C18.2887 16.0496 18.2778 16.1985 18.2751 16.3546C18.2727 16.3946 18.2727 16.4347 18.2751 16.4747C18.2726 16.4987 18.2726 16.5228 18.2751 16.5468C18.3269 16.602 18.3597 16.5636 18.4334 16.6236C18.4476 16.673 18.4531 16.7241 18.4498 16.7749C18.4935 16.7533 18.4498 16.7221 18.4853 16.7629L18.4389 16.638C18.4389 16.638 18.4553 16.6524 18.4798 16.6548C18.4635 16.6116 18.4307 16.5636 18.4389 16.5275C18.4826 16.59 18.6054 16.6693 18.559 16.7485C18.5433 16.7299 18.5322 16.7086 18.5262 16.6861C18.5262 16.7557 18.5754 16.8014 18.5426 16.8374C18.5389 16.85 18.5389 16.8632 18.5426 16.8758C18.5235 16.8758 18.5426 16.8758 18.4935 16.8494L18.2205 16.7918C18.2013 16.8566 18.1249 16.8566 18.0676 16.8422L18.0293 16.8254L17.9638 16.8086L17.8764 16.7845C17.8826 16.7725 17.8921 16.7621 17.904 16.7541C17.9159 16.7462 17.9299 16.7409 17.9447 16.7389H17.9966H18.0403C18.0676 16.7389 18.1031 16.7245 18.1031 16.6765C18.0812 16.6556 18.0629 16.6322 18.0485 16.6068V16.6837C17.9921 16.6714 17.9345 16.6642 17.8764 16.662L17.8901 16.6476C17.8628 16.6789 17.8328 16.7077 17.7754 16.6813C17.7754 16.6813 17.7427 16.65 17.7754 16.6452L17.6116 16.6885C17.7072 16.6068 17.4669 16.6644 17.4887 16.5708C16.9427 16.5251 16.8062 16.6957 16.3339 16.5708C16.4103 16.6164 16.1837 16.7173 16.039 16.7005C15.9543 16.6789 15.9325 16.6572 15.9871 16.6212L15.796 16.6693C15.5557 16.5251 15.3237 16.6188 14.9769 16.5684L14.9933 16.5275C14.8484 16.5868 14.6884 16.6117 14.5292 16.5996L14.5646 16.5179C14.3271 16.4603 14.3844 16.6885 14.1196 16.638C14.1196 16.7245 14.2889 16.7701 14.3135 16.8542C14.2507 16.7629 13.9694 16.7509 14.0404 16.8134C13.7674 16.8494 13.8575 16.8134 13.8357 16.7918L13.6828 16.8446C13.4971 16.8446 13.6227 16.7293 13.6828 16.6789C13.5108 16.7725 13.3251 16.7077 13.1367 16.6909L13.2159 16.6524L12.9593 16.6356C12.7626 16.7024 12.5476 16.7158 12.3422 16.6741L12.4924 16.5588C12.3395 16.4987 12.4132 16.5996 12.3722 16.6188C12.132 16.6741 12.0828 16.5972 11.9545 16.5323C11.4958 16.6356 11.1081 16.3258 10.7805 16.4987ZM10.1143 6.92476L10.0761 6.91034C10.1553 6.88633 10.199 6.86471 10.1143 6.92476ZM7.99838 7.01843C8.25229 6.96319 8.17311 7.01843 8.19495 7.05206C7.94104 7.03044 7.8018 7.07127 7.57792 7.03764C7.60371 7.05647 7.62269 7.08151 7.63252 7.1097C7.592 7.11231 7.55139 7.10573 7.51459 7.09059C7.47778 7.07545 7.446 7.05226 7.42229 7.02323C7.52877 6.90794 8.11032 7.07367 7.99838 7.01843ZM12.7408 6.26423C12.7322 6.27346 12.7221 6.28155 12.7108 6.28825L12.7408 6.26423ZM11.4658 6.36511C11.4434 6.34043 11.4112 6.32412 11.3757 6.31948C11.4003 6.3531 11.4248 6.37472 11.4658 6.36511ZM8.94305 6.36511C8.88025 6.32188 8.7492 6.3459 8.67002 6.36511C8.76125 6.36828 8.85263 6.36426 8.94305 6.3531V6.36511ZM2.60066 15.7445C2.58154 15.6773 2.5324 15.55 2.48599 15.6629C2.5324 15.7181 2.44503 15.8214 2.51329 15.8694C2.54572 15.8296 2.57491 15.7879 2.60066 15.7445ZM8.62907 17.1424C8.62907 17.1905 8.55808 17.2409 8.59357 17.2769H8.57446C8.59084 17.2913 8.60722 17.3058 8.59357 17.3154C8.64829 17.3271 8.7054 17.3271 8.76012 17.3154C8.77923 17.1616 8.90755 17.1424 8.62907 17.1424Z" fill="#242424"/>
<path d="M8.74646 17.3202C8.74646 17.3202 8.68094 17.2961 8.59357 17.2769C8.61268 17.2961 8.65363 17.313 8.74646 17.3202Z" fill="#242424"/>
<path d="M16.8198 6.59366L16.7488 6.61289L16.8963 6.65375C16.9627 6.64532 17.0257 6.62215 17.0792 6.58641C17.1327 6.55067 17.175 6.50354 17.2021 6.44945C16.9975 6.49966 16.7864 6.52632 16.5741 6.52877L16.8198 6.59366Z" fill="#242424"/>
<path d="M16.6669 6.07211C16.6303 6.03936 16.5854 6.01466 16.5359 6L16.5031 6.05048L16.6669 6.07211Z" fill="#242424"/>
<path d="M13.7592 6.04568L13.9858 6.07693C14.0541 6.03366 13.7892 5.97357 13.7592 6.04568Z" fill="#242424"/>
<path d="M14.8459 6.79266L14.9633 6.73257C14.8486 6.69892 14.6902 6.71575 14.6902 6.77583C14.8295 6.73257 14.723 6.80227 14.8459 6.79266Z" fill="#242424"/>
<path d="M13.1668 6.04567C13.0985 6.137 12.9538 6 12.8937 6.08653C12.962 6.06249 13.1558 6.1394 13.1668 6.04567Z" fill="#242424"/>
<path d="M13.3278 6.92713C13.407 7.01366 13.5326 6.92713 13.6855 6.95117C13.5572 6.95838 13.3797 6.86464 13.3278 6.92713Z" fill="#242424"/>
<path d="M11.9108 6.29083C11.9108 6.22353 12.0228 6.22834 12.1347 6.24276C12.0965 6.26439 12.0719 6.29564 12.0228 6.30526C12.137 6.27394 12.2538 6.25063 12.3722 6.23555C12.2221 6.18748 11.9955 6.15623 12.02 6.07451C11.9081 6.137 11.7689 6.23074 11.9108 6.29083Z" fill="#242424"/>
<path d="M12.9592 6.93443C13.0848 6.96327 13.164 7.03057 13.3169 7.02095C13.2896 6.97529 13.2404 6.91039 13.0602 6.9176L13.134 6.83348C12.962 6.7806 13.1913 6.94404 12.9592 6.93443Z" fill="#242424"/>
<path d="M11.2228 6.12498L11.2993 6.15863C11.4713 6.09133 11.6979 6.11777 11.7962 6.01923C11.5992 6.0225 11.4047 6.05837 11.2228 6.12498Z" fill="#242424"/>
<path d="M12.3668 6.77823L12.3422 6.8864C12.5088 6.90322 12.3286 6.84794 12.3914 6.8239C12.4159 6.83323 12.4424 6.83804 12.4692 6.83804C12.4959 6.83804 12.5224 6.83323 12.547 6.8239C12.3531 6.84554 12.5361 6.74458 12.3668 6.77823Z" fill="#242424"/>
<path d="M11.8098 6.8959L11.5969 6.94638L11.7689 7.07377C12.0173 7.01849 11.7689 6.99445 11.8098 6.8959Z" fill="#242424"/>
<path d="M11.5423 6.83347L11.5177 6.81424L11.1982 6.98249C11.3204 6.94752 11.4362 6.89734 11.5423 6.83347Z" fill="#242424"/>
<path d="M7.53422 6.32448C7.49873 6.37015 7.68984 6.42543 7.60794 6.37495C7.64343 6.33649 7.40044 6.28121 7.53422 6.32448Z" fill="#242424"/>
<path d="M8.35605 7.16492C8.17002 7.16401 7.98523 7.19166 7.81 7.24665C7.97381 7.22261 8.38335 7.22742 8.35605 7.16492Z" fill="#242424"/>
<path d="M7.75812 7.261L7.81272 7.24658L7.75812 7.261Z" fill="#242424"/>
<path d="M4.17557 7.98637C4.17382 7.9983 4.17382 8.0105 4.17557 8.02243V7.98637Z" fill="#242424"/>
<path d="M4.15145 7.86647C4.17329 7.78715 4.15145 7.62611 4.09412 7.59486C4.10924 7.72721 4.13664 7.85824 4.17602 7.98665C4.17329 7.93137 4.21698 7.86407 4.15145 7.86647Z" fill="#242424"/>
<path d="M4.06679 9.00961C4.03402 8.94712 4.06679 8.86781 4.00399 8.88463C3.94119 8.90145 4.02856 9.04807 4.06679 9.00961Z" fill="#242424"/>
<path d="M2.11741 16.8998C2.07919 17.1161 2.09284 17.2291 2.17475 17.1402C2.18567 16.9214 2.1338 17.0584 2.11741 16.8998Z" fill="#242424"/>
<path d="M2.18019 17.3802L2.13924 17.4307L2.07098 17.6013L2.18019 17.3802Z" fill="#242424"/>
<path d="M3.11939 17.9278C3.08464 17.9443 3.04666 17.9549 3.00745 17.9591C3.10574 17.9495 3.18764 17.9398 3.11939 17.9278Z" fill="#242424"/>
<path d="M2.86005 17.9398L2.81909 17.9783C2.86415 17.9702 2.90974 17.9645 2.9556 17.9615C2.90919 17.9639 2.86551 17.9591 2.86005 17.9398Z" fill="#242424"/>
<path d="M3.60809 17.9399C3.50798 17.9063 3.41697 17.8726 3.33507 17.839C3.00197 17.8894 3.67908 17.8919 3.33507 18L3.60809 17.9399Z" fill="#242424"/>
<path d="M4.28247 17.9136C4.44083 17.9448 4.66471 17.7838 4.7548 17.9136C5.19984 17.8487 4.65106 17.7093 5.16161 17.6732C4.68109 17.6107 4.91589 17.9136 4.48997 17.8391C4.69747 17.8992 4.35073 17.8823 4.28247 17.9136Z" fill="#242424"/>
<path d="M4.20607 17.7069C4.18149 17.7694 4.3808 17.7742 4.4436 17.7333C4.39718 17.7261 4.28524 17.642 4.20607 17.7069Z" fill="#242424"/>
<path d="M5.15344 17.8582L5.28722 17.9038L5.32272 17.8654L5.15344 17.8582Z" fill="#242424"/>
<path d="M5.66949 17.8822L5.53571 17.9519C5.57939 17.9255 5.7787 17.9303 5.66949 17.8822Z" fill="#242424"/>
<path d="M6.38753 17.9711C6.51312 17.9952 6.62507 17.8317 6.36023 17.8654H6.4203C6.40664 17.899 6.54862 17.9567 6.38753 17.9711Z" fill="#242424"/>
<path d="M8.05023 17.7141C7.96286 17.7141 7.86184 17.7309 7.88095 17.7646L8.11576 17.7309L8.05023 17.7141Z" fill="#242424"/>
<path d="M8.01472 17.3154C7.93554 17.2168 7.79356 17.3154 7.63794 17.2913C7.76158 17.3151 7.88846 17.3232 8.01472 17.3154Z" fill="#242424"/>
<path d="M8.31779 17.8558C8.25499 17.8966 8.1567 17.8702 8.09937 17.8558C8.12667 17.9183 8.28775 17.9038 8.31779 17.8558Z" fill="#242424"/>
<path d="M8.69457 17.8198C8.77101 17.8607 8.67818 17.8751 8.73552 17.904C8.80495 17.9271 8.87901 17.9376 8.95318 17.9347C9.02735 17.9318 9.10007 17.9156 9.1669 17.8871C9.12322 17.8463 9.06315 17.7309 9.13141 17.6804C8.85838 17.7165 8.73279 17.8991 8.6072 17.7573L8.38605 17.9304C8.59628 17.9592 8.54713 17.8102 8.69457 17.8198Z" fill="#242424"/>
<path d="M8.16223 17.4907L8.30147 17.5484C8.27417 17.4931 8.38065 17.4835 8.4571 17.4643C8.41887 17.3369 8.24141 17.4835 8.16223 17.4907Z" fill="#242424"/>
<path d="M10.1525 17.7453L10.4529 17.7141L10.3546 17.7069L10.1525 17.7453Z" fill="#242424"/>
<path d="M10.3464 17.7837L10.3518 17.8222L10.5812 17.7549L10.3464 17.7837Z" fill="#242424"/>
<path d="M10.6603 17.8269L10.6221 17.8221L10.4474 17.8534L10.6603 17.8269Z" fill="#242424"/>
<path d="M11.2829 17.8534L11.2283 17.8006C11.1518 17.8126 10.9989 17.7525 11.0153 17.8246C11.0596 17.8121 11.1065 17.8082 11.1527 17.8132C11.1989 17.8182 11.2433 17.8319 11.2829 17.8534Z" fill="#242424"/>
<path d="M13.3497 16.4963C13.2951 16.5323 13.3279 16.5636 13.3497 16.5948L13.4343 16.5035C13.4207 16.5083 13.3688 16.5179 13.3497 16.4963Z" fill="#242424"/>
<path d="M13.71 16.6429L13.9312 16.5395C13.6773 16.5251 13.6418 16.6068 13.4179 16.6212C13.5107 16.6549 13.6445 16.5804 13.7646 16.6092L13.71 16.6429Z" fill="#242424"/>
<path d="M18.0294 16.7221C18.0294 16.7894 18.0621 16.7798 17.9884 16.8231C18.0862 16.7953 18.1888 16.7831 18.2915 16.787C18.2396 16.7438 18.2341 16.6717 18.2177 16.6909C18.1957 16.7058 18.1719 16.7187 18.1468 16.7293V16.6837C18.0485 16.6332 18.1276 16.7582 18.0294 16.7221Z" fill="#242424"/>
<path d="M19.0941 7.62375C19.1296 7.64779 19.1624 7.62375 19.1979 7.5877C19.1569 7.43628 19.1023 7.655 19.0941 7.62375Z" fill="#242424"/>
<path d="M19.963 7.02321C19.9254 7.05686 19.963 7.03523 19.963 7.03763V7.02321Z" fill="#242424"/>
<path d="M20.0552 7.10488C20.017 7.12651 20.0142 7.07364 19.9733 7.10488C19.9787 7.15054 20.0197 7.15295 20.0552 7.10488Z" fill="#242424"/>
<path d="M20.0415 7.06164L20.0224 7.08568L20.0661 7.05443L20.0415 7.06164Z" fill="#242424"/>
<path d="M20.0415 7.03281L20.0388 7.04242L20.0825 7.03041L20.0415 7.03281Z" fill="#242424"/>
<path d="M20.1153 7.15779H20.0907C20.0907 7.11453 20.1317 7.11693 20.1317 7.08808C20.1317 7.05924 20.0798 7.15538 20.0525 7.12895C20.0361 7.16019 20.1071 7.15298 20.0716 7.20105C20.088 7.22749 20.0907 7.16981 20.1153 7.15779Z" fill="#242424"/>
<path d="M21.5049 7.73534C21.5049 7.73534 21.5118 7.73032 21.5049 7.73534V7.73534Z" fill="#242424"/>
<path d="M21.7755 8.07045C21.7739 8.07762 21.7739 8.08492 21.7755 8.09209L21.7926 8.08007L21.7755 8.07045Z" fill="#242424"/>
<path d="M21.2384 7.61895V7.59972C21.2351 7.60236 21.2332 7.60578 21.2332 7.60933C21.2332 7.61288 21.2351 7.6163 21.2384 7.61895Z" fill="#242424"/>
<path d="M21.9939 8.54601C21.9924 8.55318 21.9924 8.56046 21.9939 8.56763C22.0041 8.55321 22.0007 8.54841 21.9939 8.54601Z" fill="#242424"/>
<path d="M21.7865 7.90953C21.7845 7.91587 21.7845 7.92242 21.7865 7.92876C21.7884 7.92242 21.7884 7.91587 21.7865 7.90953Z" fill="#242424"/>
<path d="M20.3937 7.37254C20.3937 7.37254 20.3937 7.37254 20.4128 7.37254C20.432 7.37254 20.4101 7.36053 20.3937 7.37254Z" fill="#242424"/>
<path d="M20.5855 7.4796C20.5855 7.4796 20.5787 7.48561 20.5855 7.4796V7.4796Z" fill="#242424"/>
<path d="M20.4129 7.3763C20.4129 7.40033 20.3692 7.46283 20.4292 7.40274V7.39072C20.4292 7.41235 20.4565 7.39072 20.4675 7.39072V7.3739L20.4511 7.35467C20.462 7.33784 20.432 7.36668 20.4129 7.3763Z" fill="#242424"/>
<path d="M21.0135 7.36784C21.0135 7.36784 21.0155 7.36284 21.0135 7.36784V7.36784Z" fill="#242424"/>
<path d="M20.0443 7.6934C20.0443 7.6934 20.0443 7.71022 20.0443 7.71743C20.1071 7.71743 20.0443 7.68619 20.0907 7.6934C20.0907 7.6934 20.0907 7.6934 20.0689 7.68138L20.0197 7.70542C20.0334 7.71263 20.0197 7.691 20.0443 7.6934Z" fill="#242424"/>
<path d="M20.675 8.99518C20.675 8.97596 20.6941 8.97115 20.6941 8.95673C20.6613 8.97836 20.6422 9.02883 20.6013 9.05046C20.6219 9.02832 20.6469 9.0096 20.675 8.99518Z" fill="#242424"/>
<path d="M21.2827 8.54124H21.262C21.2652 8.54284 21.2688 8.54366 21.2724 8.54366C21.2759 8.54366 21.2795 8.54284 21.2827 8.54124Z" fill="#242424"/>
<path d="M19.8914 8.9952C19.9514 8.97116 19.8914 8.9952 19.8914 8.96155H19.8531C19.8668 8.9952 19.8832 8.9952 19.8914 8.9952Z" fill="#242424"/>
<path d="M20.0593 7.67894L20.0524 7.68194H20.0558L20.0593 7.67894Z" fill="#242424"/>
<path d="M20.6586 9.12488L20.7023 9.14651V9.12969C20.675 9.15132 20.6831 9.09844 20.6586 9.12488Z" fill="#242424"/>
<path d="M20.0333 9.23533L20.0088 9.26175C20.1125 9.26175 20.0934 9.38905 20.2163 9.35062C20.2163 9.49714 20.3364 9.30259 20.3364 9.43229V9.41787C20.4581 9.51244 20.6044 9.57925 20.7623 9.61243C20.845 9.63091 20.9311 9.6347 21.0155 9.62356C21.0999 9.61243 21.1809 9.58659 21.2538 9.54758V9.56919C21.4832 9.50694 21.6779 9.37161 21.7998 9.18969C21.8625 9.10177 21.9103 9.0063 21.9418 8.90627C21.9703 8.81275 21.9886 8.71704 21.9964 8.62045C21.9718 8.58442 21.9118 8.60363 21.8817 8.57481C21.8517 8.54599 21.8817 8.53638 21.9145 8.53398C21.9473 8.53157 21.9609 8.53398 21.9746 8.55319C21.9746 8.50996 22.0046 8.45471 21.9582 8.42109L21.9199 8.45471C21.9008 8.4427 21.9199 8.42109 21.9199 8.40908C21.9199 8.39707 21.9855 8.38746 21.9991 8.39707C21.879 8.33702 22.0346 8.32981 21.9773 8.27457C21.8815 8.2661 21.7887 8.24078 21.7043 8.20011V8.17129C21.7043 8.20252 21.7671 8.15207 21.778 8.1905C21.778 8.14967 21.7397 8.13286 21.7397 8.09923C21.7206 8.09923 21.6933 8.12085 21.6797 8.09923C21.666 8.07762 21.7234 8.0608 21.7179 8.03919H21.7534C21.778 8.01277 21.7316 8.01757 21.7206 8.00556C21.7534 7.98875 21.7425 7.95512 21.7834 7.94311C21.7206 7.94311 21.7425 7.91429 21.6933 7.89988C21.677 7.94551 21.6442 7.91188 21.6196 7.9287L21.6524 7.95512C21.6524 7.89747 21.6688 7.96713 21.7234 7.93831C21.7234 7.97193 21.6114 7.95031 21.6415 7.98394C21.5869 7.95272 21.606 7.9311 21.5323 7.91429C21.5596 7.9335 21.4913 7.9287 21.4831 7.95031C21.4613 7.92149 21.4831 7.9311 21.5268 7.90468C21.5268 7.88787 21.5404 7.86385 21.4886 7.87105C21.4886 7.83503 21.5323 7.85184 21.5459 7.82542C21.5596 7.799 21.5459 7.9287 21.6715 7.85904C21.6851 7.87346 21.7452 7.85904 21.7561 7.89507C21.7561 7.86865 21.7834 7.81581 21.737 7.8038L21.666 7.83983C21.666 7.82061 21.6032 7.83983 21.6005 7.82542C21.5978 7.81101 21.6442 7.79419 21.6278 7.78218C21.6114 7.77017 21.6278 7.79659 21.6278 7.8014C21.6278 7.8062 21.5541 7.8014 21.5186 7.77978C21.5186 7.81341 21.5186 7.83022 21.4913 7.87105C21.464 7.91189 21.4722 7.87105 21.4558 7.84943C21.4394 7.82782 21.4558 7.84943 21.4749 7.84943H21.4422C21.4422 7.8062 21.5131 7.81101 21.5159 7.77258C21.5186 7.73415 21.4749 7.77257 21.4858 7.73654C21.464 7.73654 21.4531 7.70772 21.4176 7.73654C21.4312 7.72454 21.4012 7.72454 21.3875 7.73654C21.3739 7.74855 21.3084 7.73655 21.3493 7.69812C21.3493 7.6741 21.3493 7.64768 21.3493 7.63807L21.3329 7.59964L21.3766 7.57082C21.3384 7.554 21.3166 7.57082 21.2565 7.59243C21.2565 7.554 21.2074 7.53959 21.18 7.53959C21.1527 7.53959 21.18 7.53959 21.18 7.53959V7.56361C21.1609 7.54199 21.1446 7.56361 21.1282 7.5516C21.1118 7.53959 21.1282 7.5516 21.1282 7.5516V7.53719C21.15 7.48435 21.0763 7.53719 21.0736 7.50837C21.0736 7.49155 21.1091 7.4267 21.0736 7.45552C21.0381 7.48435 21.0736 7.45552 21.0545 7.45552V7.44351C21.0545 7.44351 21.0545 7.44351 21.0545 7.45552C21.0545 7.46753 21.0217 7.47234 21.0272 7.45552L21.0053 7.4291C21.0053 7.4291 21.0053 7.4291 20.9835 7.4291V7.40989C20.9835 7.40989 20.9835 7.39548 20.9835 7.39308C20.9835 7.31141 20.9016 7.38107 20.9016 7.30661C20.8715 7.32822 20.8797 7.34984 20.8661 7.36665C20.84 7.38001 20.8113 7.38897 20.7814 7.39308C20.7814 7.34504 20.7678 7.27778 20.8197 7.22734C20.7896 7.20332 20.8033 7.26818 20.7705 7.27779C20.7794 7.29787 20.7794 7.32014 20.7705 7.34023C20.7487 7.37146 20.7132 7.36185 20.7104 7.34023L20.7514 7.3018C20.7077 7.3018 20.664 7.36666 20.6122 7.39788C20.6122 7.36666 20.6449 7.33543 20.6695 7.2946H20.6367L20.6613 7.26337C20.6367 7.26337 20.6122 7.28979 20.5958 7.26337C20.6367 7.24175 20.5958 7.21293 20.6367 7.18411C20.6367 7.1673 20.5821 7.22735 20.6067 7.18411C20.5739 7.21293 20.6067 7.20813 20.6067 7.22254C20.5767 7.27538 20.563 7.22254 20.5357 7.22254C20.5548 7.19612 20.5685 7.19852 20.563 7.1697C20.5439 7.18651 20.5221 7.19612 20.5302 7.1697C20.5057 7.20092 20.5029 7.1697 20.4948 7.15769C20.499 7.16973 20.4995 7.18257 20.4962 7.19484C20.4928 7.20711 20.4857 7.21835 20.4756 7.22734C20.4565 7.22734 20.4429 7.22734 20.4265 7.22734V7.25136C20.3746 7.28979 20.4265 7.19852 20.3855 7.20092C20.4101 7.18651 20.4156 7.20092 20.4429 7.1721C20.4139 7.1834 20.3837 7.19225 20.3528 7.19852V7.14088C20.3337 7.16249 20.3282 7.12646 20.3064 7.16009C20.3064 7.12406 20.3555 7.12887 20.3746 7.10725C20.3937 7.08563 20.3118 7.14808 20.3118 7.08083L20.3419 7.05441C20.3419 7.05441 20.3009 7.05441 20.3091 7.04C20.3173 7.02558 20.3091 7.04 20.3091 7.05201C20.26 7.11686 20.2299 7.07362 20.189 7.14568V7.15769C20.1589 7.15769 20.1125 7.20092 20.1125 7.15769C20.1125 7.11446 20.1507 7.11445 20.1699 7.10004C20.189 7.08563 20.1043 7.1697 20.0852 7.15048C20.0852 7.1673 20.0852 7.19132 20.0525 7.20573C20.0197 7.22014 20.0852 7.24656 20.0989 7.20573C20.1084 7.19478 20.1205 7.18577 20.1344 7.17931C20.1535 7.17931 20.1344 7.21533 20.118 7.22974C20.1016 7.24416 20.1644 7.16249 20.1944 7.17931V7.19372C20.219 7.19372 20.2436 7.19372 20.2763 7.15048C20.26 7.20333 20.32 7.15048 20.3173 7.18411C20.2572 7.28499 20.2709 7.15289 20.219 7.19852C20.219 7.22494 20.1808 7.24175 20.1589 7.26097L20.2354 7.24175C20.2354 7.25617 20.2135 7.31381 20.2354 7.28259C20.2627 7.28259 20.2845 7.23935 20.29 7.26097C20.2851 7.27243 20.2765 7.28242 20.2654 7.28979C20.2654 7.3066 20.2954 7.27298 20.3118 7.27058C20.3282 7.26818 20.2763 7.3066 20.2818 7.32342C20.3255 7.297 20.3036 7.34744 20.32 7.35464C20.35 7.2946 20.4347 7.31141 20.4347 7.24416L20.4975 7.22734C20.4975 7.26337 20.4183 7.28979 20.3965 7.34263L20.3692 7.32342C20.3255 7.39548 20.4593 7.32342 20.4265 7.40028C20.4265 7.41229 20.4429 7.40028 20.4456 7.44832L20.4866 7.38587C20.4854 7.41058 20.4769 7.43459 20.462 7.45552C20.4671 7.45607 20.472 7.45765 20.4762 7.46016C20.4805 7.46266 20.484 7.46601 20.4866 7.46993C20.4866 7.46993 20.4702 7.48435 20.462 7.48435C20.462 7.52278 20.462 7.51317 20.4784 7.48435C20.4829 7.4808 20.4887 7.47884 20.4948 7.47884C20.5008 7.47884 20.5066 7.4808 20.5111 7.48435L20.4866 7.50116C20.4925 7.50118 20.4984 7.49987 20.5037 7.49735C20.5089 7.49483 20.5134 7.49118 20.5166 7.48675C20.5304 7.46363 20.5387 7.43831 20.5412 7.41229C20.5575 7.45552 20.5958 7.46033 20.5849 7.52758C20.5685 7.54199 20.5412 7.5564 20.5412 7.56121C20.5412 7.56601 20.5876 7.56121 20.6067 7.53239C20.6067 7.5492 20.5876 7.56601 20.593 7.57322C20.5918 7.57588 20.5911 7.57874 20.5911 7.58163C20.5911 7.58451 20.5918 7.58737 20.593 7.59003C20.6367 7.54679 20.6449 7.59003 20.6668 7.57082C20.6655 7.5668 20.6631 7.56313 20.6597 7.56018C20.6564 7.55723 20.6522 7.5551 20.6476 7.554C20.6859 7.52998 20.7241 7.50356 20.7132 7.53479C20.7023 7.56601 20.6941 7.59483 20.6531 7.58763C20.6231 7.65728 20.6995 7.554 20.705 7.58763V7.61885C20.6722 7.65008 20.6668 7.61885 20.6586 7.63326C20.6258 7.65008 20.604 7.60925 20.5466 7.63326L20.5794 7.6837C20.6695 7.6837 20.6968 7.77738 20.8115 7.74856L20.8333 7.73174L20.8661 7.71733C20.847 7.75576 20.8661 7.77498 20.8497 7.81101C20.8552 7.79199 20.8676 7.77509 20.8852 7.76297C20.9207 7.73414 20.9343 7.72214 20.9371 7.74615C20.9398 7.77017 20.907 7.76057 20.8988 7.78459C20.9016 7.77826 20.9064 7.7728 20.9128 7.76895C20.9191 7.76509 20.9266 7.763 20.9343 7.76297C20.9343 7.78458 20.9343 7.799 20.9152 7.82061C20.8961 7.84223 20.9152 7.82061 20.9152 7.8062C20.9152 7.79179 20.9152 7.83983 20.877 7.84463H20.8988C20.8988 7.86865 20.8606 7.86385 20.8524 7.87826C20.8906 7.87826 20.9589 7.85184 20.9971 7.86144L20.9425 7.89988C20.9425 7.9287 21.0381 7.88787 21.0599 7.89988C21.0408 7.89988 21.0408 7.89988 21.0272 7.89988C21.0689 7.96383 21.0853 8.03821 21.0736 8.11124L21.15 8.08962L21.1145 8.12806C21.1145 8.20492 21.1746 8.22893 21.221 8.28418C21.221 8.30099 21.1773 8.3106 21.1582 8.32501C21.1391 8.33942 21.251 8.35143 21.2783 8.38986C21.2538 8.38986 21.1882 8.38986 21.1882 8.40908C21.1882 8.42829 21.2456 8.40908 21.2347 8.40908H21.2101C21.1773 8.42589 21.2101 8.42829 21.2101 8.44991C21.2101 8.47153 21.2756 8.50515 21.3602 8.53398C21.3602 8.5676 21.2756 8.53398 21.2592 8.53398C21.2893 8.51236 21.2592 8.51956 21.221 8.51716C21.2428 8.51716 21.2565 8.54118 21.2019 8.54599C21.2019 8.5604 21.2019 8.5652 21.2374 8.58201C21.2183 8.58201 21.2374 8.5676 21.2729 8.58201C21.2538 8.59402 21.2729 8.62765 21.2046 8.61804C21.2034 8.68096 21.1805 8.74208 21.1391 8.79338C21.1609 8.8198 21.1555 8.79338 21.1719 8.81019C21.1882 8.82701 21.1446 8.8102 21.1719 8.83902L21.1446 8.815C21.1282 8.82701 21.1691 8.87985 21.1773 8.91828C21.1473 8.88946 21.1391 8.91828 21.1336 8.88225C21.1336 8.89426 20.9862 8.78377 21.0108 8.81019L21.1418 8.91348C21.1418 8.92549 21.1418 8.93029 21.1418 8.93509C21.1091 8.92068 21.0736 8.89906 21.0708 8.90387C21.0681 8.90867 21.0545 8.87264 21.0708 8.86784C21.019 8.8222 21.019 8.85103 20.9835 8.80059C20.9835 8.815 21.008 8.82461 21.0217 8.84862H20.9999L21.0244 8.86064C21.0244 8.88225 21.0599 8.92308 21.0244 8.90387C21.0347 8.92345 21.0438 8.9435 21.0517 8.96391C21.019 8.92308 21.0353 8.96391 21.019 8.96391V8.93269C21.019 8.93269 21.0026 8.93269 20.9862 8.91828C20.9698 8.90387 20.9999 8.91828 20.9862 8.88706H20.9698C20.9862 8.91107 20.9917 8.93509 21.008 8.9471C21.0272 8.99995 21.0408 9.04798 21.008 9.05279C20.9753 9.00955 21.008 9.00715 20.978 8.96151C20.948 8.91588 20.978 9.09602 20.978 9.09602C20.978 9.09602 20.9589 9.12724 20.9289 9.12965C20.8988 9.13205 20.907 9.09602 20.9016 9.06239V9.02637C20.9016 9.02637 20.9016 9.02637 20.9016 8.99995C20.9016 9.04558 20.8743 9.04318 20.8551 9.06239V9.10082C20.8388 9.11283 20.8115 9.13205 20.7978 9.11764C20.7842 9.10322 20.7623 9.15847 20.7241 9.1921C20.7284 9.15157 20.7424 9.11229 20.765 9.0768C20.765 9.09842 20.7787 9.09122 20.7842 9.10563C20.8278 9.08161 20.8633 9.00235 20.8824 9.02396C20.9016 8.93029 20.8661 9.02396 20.8606 8.99754C20.8801 8.97651 20.8907 8.95021 20.8906 8.92308C20.8906 8.92308 20.8688 9.01676 20.8633 8.97593C20.8442 8.99994 20.8633 8.92308 20.8633 8.91588C20.847 8.9495 20.8197 9.02156 20.8033 9.00235L20.8333 8.95431C20.8142 8.95431 20.7896 9.02397 20.7705 9.01196C20.7514 8.99995 20.735 9.05519 20.7514 9.06479C20.7678 9.0744 20.705 9.08401 20.6995 9.06479C20.6941 9.04558 20.6995 9.07921 20.6777 9.09362C20.6558 9.10803 20.7241 9.0744 20.7104 9.12965L20.7487 9.08161C20.7511 9.09727 20.7494 9.1132 20.7437 9.1282C20.738 9.14319 20.7285 9.15683 20.7159 9.16808H20.7323C20.6968 9.24974 20.7323 9.13205 20.6831 9.1969H20.6995C20.6804 9.25214 20.6422 9.22572 20.6231 9.21611C20.604 9.20651 20.6067 9.16327 20.6231 9.12725H20.6586C20.6586 9.09362 20.6149 9.12725 20.604 9.12725C20.593 9.12725 20.604 9.12725 20.604 9.12725C20.604 9.12725 20.604 9.12725 20.604 9.10803C20.604 9.08881 20.5575 9.10803 20.5575 9.09122L20.533 9.12004L20.5494 9.10563C20.5522 9.11018 20.5539 9.11518 20.5545 9.12034C20.555 9.12549 20.5544 9.1307 20.5526 9.13563C20.5508 9.14057 20.5479 9.14514 20.5441 9.14906C20.5402 9.15298 20.5355 9.15618 20.5302 9.15847C20.4866 9.15847 20.5302 9.10083 20.5494 9.072C20.5685 9.04318 20.5712 9.09122 20.5985 9.072C20.6285 9.02637 20.5794 9.05279 20.5821 9.00715C20.6367 8.96872 20.6067 9.02637 20.6531 8.98553C20.6531 8.96632 20.6067 8.99754 20.6012 8.97112C20.5958 8.9447 20.6422 8.97112 20.6695 8.93509V8.91348C20.6941 8.92789 20.7214 8.85343 20.7487 8.85583C20.776 8.85823 20.7023 8.88465 20.7186 8.85583C20.7023 8.87745 20.675 8.92308 20.6449 8.93029V8.90627C20.664 8.87985 20.7077 8.87024 20.7186 8.84622H20.6913C20.6913 8.86064 20.675 8.87264 20.6531 8.88706C20.6313 8.90147 20.5821 8.92309 20.5494 8.93269C20.5166 8.9423 20.5494 8.91348 20.5494 8.89666C20.4838 8.91107 20.4593 8.88225 20.3937 8.89666C20.4401 8.89666 20.4483 8.85823 20.4675 8.83421C20.4866 8.84622 20.5384 8.8126 20.5712 8.78858C20.5388 8.79243 20.5089 8.80601 20.4866 8.82701C20.4866 8.79819 20.4401 8.83902 20.462 8.80059C20.4838 8.76216 20.5193 8.77416 20.5357 8.75735C20.5521 8.74054 20.4675 8.79338 20.4647 8.75735C20.471 8.75889 20.4776 8.75889 20.4838 8.75735C20.4838 8.74054 20.4538 8.74294 20.4238 8.75735C20.4866 8.70451 20.391 8.72613 20.462 8.6901C20.4238 8.67329 20.4265 8.71652 20.3992 8.72373C20.3719 8.73093 20.3692 8.6925 20.3774 8.68049C20.3855 8.66848 20.4074 8.68049 20.4019 8.6949L20.4456 8.66368C20.4456 8.61084 20.3173 8.69731 20.3391 8.63966C20.3746 8.63966 20.3801 8.62765 20.421 8.62045C20.4047 8.62045 20.4019 8.58442 20.3746 8.62045C20.3706 8.60625 20.3706 8.5914 20.3746 8.57721C20.347 8.56993 20.3176 8.56993 20.29 8.57721C20.29 8.55319 20.3091 8.52197 20.3255 8.50275C20.2627 8.47633 20.3036 8.40908 20.2381 8.38026C20.2381 8.34183 20.178 8.42589 20.1589 8.38026C20.2245 8.35864 20.189 8.33942 20.2163 8.3154C20.2163 8.25536 20.1289 8.25536 20.1507 8.19531C20.1507 8.19531 20.1808 8.19531 20.1862 8.19531C20.1862 8.15448 20.1644 8.13526 20.1535 8.10403C20.1808 8.03918 20.0989 8.01997 20.0606 7.97673H20.1071C20.1071 7.94791 20.1071 7.90708 20.0361 7.90948C20.0879 7.85904 20.0088 7.89507 20.0552 7.83742C20.0552 7.83742 20.0552 7.83742 20.0716 7.83742C20.0879 7.83742 20.0716 7.8014 20.0716 7.77978C20.0142 7.75336 19.9269 7.76777 19.9323 7.71012C20.0197 7.6813 19.9651 7.73414 20.0388 7.71012C20.017 7.71012 19.9951 7.71012 20.0115 7.6837C20.0306 7.68528 20.0498 7.68528 20.0688 7.6837C20.0907 7.66689 19.9596 7.67169 19.9705 7.66929C19.9815 7.66689 19.9432 7.66929 19.9487 7.68851C19.8914 7.68851 19.9269 7.64047 19.8968 7.62366C19.8668 7.60684 19.8968 7.66209 19.845 7.66449C19.845 7.62606 19.7603 7.64047 19.7166 7.62606C19.7467 7.58523 19.7985 7.62606 19.8613 7.60444C19.8832 7.60444 19.9296 7.56841 19.9569 7.57562C19.9569 7.54439 19.9023 7.53959 19.8804 7.52038H19.8996C19.8804 7.48915 19.7903 7.47474 19.8177 7.43631L19.8013 7.45793C19.8013 7.45793 19.8013 7.43631 19.7494 7.43631C19.7794 7.43631 19.7985 7.40028 19.8258 7.40509C19.7248 7.40509 19.7467 7.34023 19.6484 7.34504C19.6754 7.33277 19.7053 7.32619 19.7357 7.32582C19.7357 7.34984 19.7166 7.36185 19.7576 7.36425C19.7576 7.34744 19.7712 7.32822 19.7958 7.32582C19.7303 7.32582 19.6948 7.28499 19.632 7.28739C19.655 7.26411 19.6872 7.24949 19.7221 7.24656C19.6784 7.19852 19.5747 7.30661 19.5583 7.24656C19.5992 7.20813 19.632 7.26097 19.6375 7.22014C19.7603 7.1673 19.5392 7.22014 19.5364 7.18411C19.6047 7.1673 19.591 7.19852 19.6375 7.1649C19.6129 7.14088 19.5037 7.14568 19.5201 7.11205H19.5501C19.5501 7.09284 19.5501 7.05441 19.5501 7.03519C19.5501 7.01598 19.5501 7.03519 19.5692 7.03519C19.5883 6.99676 19.5282 7.03519 19.5692 6.99196H19.5337C19.5119 7.01117 19.4818 7.0448 19.5337 7.05681C19.4873 7.05681 19.4491 7.10004 19.3863 7.10244H19.4136C19.3481 7.15547 19.308 7.22849 19.3016 7.30661C19.3835 7.33063 19.288 7.38107 19.3508 7.41229C19.4354 7.40028 19.3699 7.41229 19.3972 7.44832C19.3808 7.4315 19.3344 7.44832 19.3262 7.47474C19.3425 7.47593 19.3578 7.48185 19.3699 7.49155C19.3426 7.50597 19.2934 7.56842 19.3535 7.57082C19.3344 7.59964 19.3262 7.57082 19.3071 7.57082C19.288 7.57082 19.3453 7.57081 19.3071 7.59483H19.2907C19.3071 7.62606 19.2907 7.65248 19.2907 7.69091C19.3726 7.6741 19.3317 7.71733 19.3672 7.72694C19.3399 7.72694 19.3426 7.75336 19.3317 7.76777H19.4136C19.4709 7.76777 19.389 7.8038 19.4136 7.82061C19.4436 7.82061 19.4136 7.89027 19.3781 7.91909C19.5938 8.03198 19.3945 8.19531 19.5146 8.35143C19.5446 8.35143 19.5501 8.32982 19.5883 8.32501C19.5998 8.33404 19.6083 8.34567 19.6129 8.35864C19.6129 8.33702 19.6129 8.35864 19.6129 8.34182L19.5801 8.32741C19.5801 8.32741 19.5801 8.32741 19.5992 8.32741C19.6183 8.32741 19.5665 8.32741 19.5665 8.3058C19.5665 8.28418 19.6538 8.3058 19.6402 8.32261C19.6265 8.33942 19.6402 8.32261 19.6211 8.32261C19.602 8.32261 19.6511 8.32261 19.6429 8.34903C19.6347 8.37545 19.6429 8.34903 19.6429 8.37065V8.42829C19.7221 8.42829 19.6729 8.47633 19.6729 8.48834C19.6183 8.50275 19.6402 8.46192 19.5856 8.47153L19.5583 8.50275L19.5965 8.48834V8.51716C19.6129 8.51716 19.6293 8.51716 19.6211 8.51716H19.602H19.632C19.5856 8.51716 19.632 8.53638 19.5801 8.55559C19.5801 8.62044 19.6811 8.59883 19.6429 8.67569C19.662 8.65647 19.7276 8.65647 19.7276 8.67569C19.7248 8.68266 19.7196 8.6887 19.7127 8.693C19.7059 8.69729 19.6977 8.69964 19.6893 8.69971H19.7248C19.6648 8.75735 19.7248 8.75976 19.7248 8.80779H19.703C19.7357 8.80779 19.763 8.80779 19.7685 8.83902L19.7248 8.85343C19.7112 8.89186 19.8204 8.83181 19.8122 8.87024C19.8559 8.84862 19.8668 8.8222 19.9077 8.80059C19.8668 8.82701 19.8804 8.86063 19.9077 8.83661C19.9432 8.85583 19.9077 8.85583 19.9077 8.86304H19.9596C19.9596 8.88465 19.9077 8.89906 19.8777 8.90387C19.9378 8.90387 19.9159 8.93509 19.9241 8.95911H19.8996V8.99034C19.9082 8.98919 19.9171 8.98981 19.9254 8.99214C19.9338 8.99448 19.9414 8.99847 19.9477 9.0038C19.9541 9.00914 19.9589 9.01568 19.9619 9.02292C19.9649 9.03016 19.966 9.03792 19.9651 9.04558L19.8996 9.05999C19.8832 9.09362 19.9241 9.05999 19.9378 9.05999C19.9514 9.05999 19.9378 9.09602 19.9378 9.12965C20.0224 9.10803 19.9214 9.23533 20.0333 9.23533ZM21.0026 7.40028C20.9835 7.40508 20.9725 7.40989 21.0026 7.39308V7.40028ZM21.1937 7.57562C21.1527 7.57562 21.1937 7.55641 21.1937 7.5444C21.1937 7.57562 21.2319 7.57322 21.2374 7.60684C21.2433 7.59519 21.2516 7.5846 21.262 7.57562C21.262 7.57562 21.262 7.60204 21.2428 7.62366C21.2237 7.64527 21.2128 7.53479 21.1937 7.56841V7.57562ZM20.6941 7.50596C20.6913 7.51379 20.6913 7.52216 20.6941 7.52998C20.6941 7.51077 20.6995 7.49876 20.6941 7.49876V7.50596ZM20.8688 7.72213C20.8688 7.74375 20.8688 7.74856 20.8852 7.75096C20.8824 7.73815 20.8768 7.72592 20.8688 7.71493V7.72213ZM21.2456 8.98073C21.2441 8.97148 21.2398 8.96276 21.233 8.95555C21.2263 8.94834 21.2174 8.94292 21.2074 8.9399C21.221 8.95671 21.1855 8.9399 21.2074 8.96391L21.2456 8.98073ZM20.5057 9.18729C20.523 9.17102 20.5386 9.15332 20.5521 9.13445C20.5501 9.12816 20.5501 9.12152 20.5521 9.11524C20.5521 9.11524 20.5521 9.10082 20.5521 9.11524C20.5057 9.16808 20.4838 9.16808 20.5057 9.18729Z" fill="#242424"/>
<path d="M20.5603 9.10806C20.5603 9.10806 20.5603 9.12008 20.5603 9.1345C20.5603 9.14892 20.5705 9.11527 20.5603 9.10806Z" fill="#242424"/>
<path d="M20.2627 7.01604V6.9872C20.2217 6.9872 20.2026 7.02565 20.1753 7.0569C20.219 7.03767 20.2217 7.0569 20.2599 7.0569L20.2627 7.01604Z" fill="#242424"/>
<path d="M20.1346 7.24899C20.1321 7.26255 20.1321 7.2763 20.1346 7.28985L20.1532 7.27063L20.1346 7.24899Z" fill="#242424"/>
<path d="M20.3664 7.4988V7.46996C20.3364 7.48197 20.3418 7.52763 20.3664 7.4988Z" fill="#242424"/>
<path d="M20.5057 7.09288L20.4784 7.1097C20.4784 7.13374 20.4948 7.13854 20.5139 7.1097C20.4839 7.12172 20.5057 7.10009 20.5057 7.09288Z" fill="#242424"/>
<path d="M20.4238 7.53723C20.4593 7.50358 20.4238 7.56847 20.4647 7.53723C20.4511 7.55405 20.4538 7.49878 20.4238 7.53723Z" fill="#242424"/>
<path d="M20.6804 7.15774C20.6995 7.11688 20.6613 7.14092 20.6531 7.12409C20.645 7.10727 20.6559 7.17937 20.6804 7.15774Z" fill="#242424"/>
<path d="M20.6285 7.50118C20.604 7.52762 20.5985 7.518 20.593 7.50118C20.6017 7.49323 20.6118 7.48672 20.6231 7.48195C20.604 7.48339 20.5848 7.48339 20.5657 7.48195C20.5657 7.51079 20.5657 7.53483 20.5466 7.56848C20.5805 7.55318 20.6089 7.52988 20.6285 7.50118Z" fill="#242424"/>
<path d="M20.7214 7.17455C20.7214 7.15772 20.7214 7.12648 20.7214 7.11927C20.7214 7.11206 20.6941 7.17214 20.7214 7.17695L20.6913 7.2058C20.6722 7.23945 20.6995 7.16013 20.7214 7.17455Z" fill="#242424"/>
<path d="M20.6313 7.61409V7.59486C20.5958 7.60929 20.5848 7.59487 20.5439 7.6189C20.5579 7.6241 20.5731 7.62637 20.5882 7.62553C20.6034 7.6247 20.6181 7.62078 20.6313 7.61409Z" fill="#242424"/>
<path d="M20.7405 7.27304L20.7787 7.22978C20.7787 7.21295 20.7787 7.2442 20.7514 7.25141C20.7241 7.25862 20.7514 7.23459 20.7377 7.23939C20.7241 7.2442 20.7104 7.27545 20.7405 7.27304Z" fill="#242424"/>
<path d="M20.8388 7.26098H20.877L20.8989 7.2009C20.8552 7.19609 20.8743 7.22253 20.8388 7.26098Z" fill="#242424"/>
<path d="M20.8415 7.31391L20.9289 7.27306C20.8966 7.28077 20.8668 7.29473 20.8415 7.31391Z" fill="#242424"/>
<path d="M20.9453 7.84708C20.9671 7.83506 20.9753 7.80142 20.9616 7.82545C20.948 7.84949 20.9371 7.87352 20.9453 7.84708Z" fill="#242424"/>
<path d="M21.2264 7.48199C21.2264 7.50122 21.2783 7.50362 21.3029 7.50362C21.2783 7.49881 21.2483 7.45796 21.2264 7.48199Z" fill="#242424"/>
<path d="M21.8708 8.03443C21.8708 8.02001 21.8463 8.00318 21.819 8.01039C21.8423 8.02496 21.867 8.03782 21.8927 8.04885C21.8927 8.04885 21.8954 8.03443 21.8708 8.03443Z" fill="#242424"/>
<path d="M21.9199 8.20739C21.9008 8.20739 21.9063 8.18815 21.8817 8.20739C21.8571 8.22662 21.9063 8.21941 21.9199 8.20739Z" fill="#242424"/>
<path d="M21.0545 8.92075L21.0436 8.90633L21.0217 8.8871L21.0545 8.92075Z" fill="#242424"/>
<path d="M20.9858 8.8967C20.9849 8.89195 20.9849 8.88703 20.9858 8.88228C20.9848 8.88453 20.9844 8.88699 20.9844 8.88949C20.9844 8.89198 20.9848 8.89445 20.9858 8.8967Z" fill="#242424"/>
<path d="M20.9895 8.88949V8.87267C20.9895 8.87267 20.9827 8.87987 20.9895 8.88949Z" fill="#242424"/>
<path d="M20.9725 8.89432L20.9998 8.93999C20.9998 8.91355 20.9807 8.91836 20.9644 8.86548L20.9725 8.89432Z" fill="#242424"/>
<path d="M20.9534 8.9159C20.9534 8.90148 20.9534 8.98079 20.9343 8.9159C20.9179 8.94955 20.9562 9.01685 20.9343 9.04088C20.9726 9.06973 20.9343 8.92311 20.9616 8.95436C20.9371 8.92552 20.9534 8.93032 20.9534 8.9159Z" fill="#242424"/>
<path d="M20.987 9.01438C20.987 8.98313 20.9671 8.98554 20.9671 9.01438C20.9671 9.04322 20.9899 9.04562 20.987 9.01438Z" fill="#242424"/>
<path d="M20.9227 8.94715L20.9159 8.92552L20.9125 8.94474L20.9227 8.94715Z" fill="#242424"/>
<path d="M20.8989 8.93515V8.89909C20.9057 8.91352 20.8989 8.91111 20.8989 8.93515Z" fill="#242424"/>
<path d="M20.8831 8.88947C20.8831 8.87505 20.8455 8.95437 20.8831 8.93995C20.8694 8.92312 20.8728 8.89428 20.8831 8.88947Z" fill="#242424"/>
<path d="M20.7405 8.97596C20.7405 8.97596 20.7569 8.97596 20.765 8.95914H20.7405V8.97596Z" fill="#242424"/>
<path d="M20.6313 9.1489C20.6095 9.19697 20.6559 9.14889 20.6613 9.17774C20.6477 9.16091 20.6531 9.15851 20.6313 9.1489Z" fill="#242424"/>
<path d="M20.7787 8.91054C20.7951 8.88891 20.7787 8.91054 20.7951 8.91054C20.8114 8.91054 20.7787 8.88169 20.7787 8.91054Z" fill="#242424"/>
<path d="M20.7323 8.90873C20.7323 8.8895 20.7542 8.88469 20.7596 8.87268C20.7651 8.86066 20.7596 8.84383 20.7296 8.87268C20.7076 8.90162 20.6829 8.92895 20.6559 8.95439C20.6886 8.95439 20.7569 8.88469 20.7187 8.95439L20.7869 8.8895C20.7787 8.85345 20.7378 8.91834 20.7323 8.90873Z" fill="#242424"/>
<path d="M20.6667 9.06724V9.036C20.6637 9.04326 20.6586 9.04973 20.6519 9.05477C20.6452 9.05982 20.6372 9.06328 20.6285 9.06484C20.5985 9.12012 20.6586 9.06724 20.6667 9.06724Z" fill="#242424"/>
<path d="M20.6122 8.86787L20.5822 8.85585L20.5849 8.86787H20.6122Z" fill="#242424"/>
<path d="M20.6176 8.83906L20.634 8.82704L20.5903 8.83425L20.6176 8.83906Z" fill="#242424"/>
<path d="M20.6176 8.80544V8.81144H20.6422L20.6176 8.80544Z" fill="#242424"/>
<path d="M20.5903 8.75497L20.5712 8.7766C20.5712 8.7766 20.5712 8.80545 20.5958 8.7766C20.5794 8.78862 20.574 8.7742 20.5903 8.75497Z" fill="#242424"/>
<path d="M19.8095 8.94955C19.8289 8.94607 19.8463 8.93671 19.8586 8.92311L19.8068 8.93753C19.8068 8.93753 19.8204 8.94234 19.8095 8.94955Z" fill="#242424"/>
<path d="M19.8586 8.87506H19.7903C19.7903 8.90631 19.8422 8.89189 19.8668 8.91111C19.8668 8.89189 19.8313 8.89669 19.8368 8.87746L19.8586 8.87506Z" fill="#242424"/>
<path d="M19.6375 8.40195C19.673 8.38993 19.6675 8.38753 19.6975 8.40195C19.6648 8.38753 19.662 8.3659 19.6429 8.33946C19.6238 8.35388 19.5747 8.33946 19.5911 8.35388L19.6266 8.37551H19.5992C19.5829 8.40676 19.6457 8.37311 19.6375 8.40195Z" fill="#242424"/>
<path d="M19.572 7.07365C19.5894 7.07247 19.6063 7.06752 19.6211 7.05923C19.5965 7.05442 19.5774 7.07365 19.572 7.07365Z" fill="#242424"/>
</svg>
