<svg width="24" height="24" viewBox="0 0 24 24" fill="none" xmlns="http://www.w3.org/2000/svg">
<path d="M22 11.3617C21.9682 10.845 21.8728 10.3891 21.7774 9.99392C21.6184 8.8997 21.3323 8.04863 20.8871 7.31915C20.4102 6.55927 19.8696 5.86018 19.0747 4.91793C18.8839 4.70517 18.6932 4.55319 18.5024 4.37082C18.407 4.27964 18.3116 4.18845 18.2162 4.12766C18.1208 4.06687 17.9936 3.97568 17.8983 3.91489C17.6757 3.76292 17.4849 3.61094 17.2941 3.48936C17.0715 3.36778 16.8808 3.2462 16.6582 3.12462C15.7997 2.69909 14.8776 2.33435 13.7647 2C13.6375 2.12158 13.5103 2.21277 13.3196 2.24316C13.1288 2.30395 12.938 2.33435 12.7154 2.33435C12.2385 2.33435 11.6979 2.30395 11.0938 2.27356C10.4897 2.27356 9.85374 2.27356 9.2814 2.42553C9.12242 2.45593 8.99523 2.48632 8.86804 2.54711C8.74086 2.6079 8.61367 2.66869 8.48649 2.72948C8.23212 2.82067 8.00954 2.97264 7.88235 3.12462C6.92846 3.73252 6.73768 4.40122 7.53259 4.24924C6.35612 4.94833 6.35612 4.34043 5.52941 5.22188C5.52941 5.03951 5.56121 4.85714 5.56121 4.64438C5.46582 4.67477 5.37043 4.73556 5.24324 4.76596C5.14786 4.79635 5.02067 4.85714 4.92528 4.91793C4.7027 5.03951 4.51192 5.16109 4.35294 5.37386C4.32115 5.61702 4.28935 5.86018 4.25755 6.10334C3.90779 6.28571 3.71701 6.52888 3.52623 6.77204C3.43084 6.89362 3.36725 7.0152 3.30366 7.13678C3.24006 7.25836 3.20827 7.41034 3.14467 7.53192C3.04928 7.80547 2.9539 8.07903 2.85851 8.35258C2.76312 8.62614 2.60413 8.93009 2.41336 9.26444C3.01749 8.47416 2.47695 9.75076 2.79491 9.75076C2.73132 9.78116 2.66773 9.87234 2.60413 9.96353C2.54054 10.0547 2.50874 10.1763 2.44515 10.2675C2.34976 10.4498 2.25437 10.5714 2.25437 10.4195C2.19078 10.5714 2.15898 10.7234 2.12719 10.8754C2.09539 11.0274 2.09539 11.1793 2.09539 11.3313C2.09539 11.4833 2.09539 11.6049 2.09539 11.7568C2.09539 11.9088 2.12719 12.0304 2.12719 12.152C2.15898 12.4255 2.15898 12.6383 2.15898 12.8815C2.15898 13.0942 2.12719 13.307 2 13.4894C2.06359 13.6413 2.12719 13.7933 2.19078 13.9149C2.50874 14.614 2.38156 15.2523 2.57234 15.9514L2.76312 15.9818C3.01749 16.3769 3.36725 17.1368 3.43084 17.5319C3.71701 18.079 4.19396 18.5957 4.7345 19.0213L5.14785 19.3252C5.27504 19.4164 5.43402 19.5076 5.59301 19.5988C5.75199 19.69 5.87917 19.7812 6.00636 19.8419C6.16534 19.9027 6.29253 19.9939 6.41971 20.0547C6.5151 20.1459 6.64229 20.2371 6.70588 20.2979C6.80127 20.3587 6.86486 20.3891 6.92846 20.4195C7.05564 20.4802 7.15103 20.4802 7.24642 20.4802C7.4372 20.4802 7.59619 20.4498 8.10493 20.6322C8.3911 20.845 8.83625 20.9666 9.2496 21.0881C9.66296 21.1793 10.0445 21.3009 10.2353 21.4225C9.75835 21.3313 9.47218 21.3313 9.18601 21.3313C9.02703 21.3313 8.89984 21.3009 8.70906 21.2705C8.55008 21.2401 8.32751 21.1793 8.10493 21.0578C8.26391 21.2097 7.85056 21.0578 7.469 20.9362C7.11924 20.8146 6.80127 20.693 7.18283 20.997C8.16852 21.3313 9.2496 21.696 10.3625 21.8784C10.6486 21.9088 10.903 21.9696 11.1892 21.9696C11.4754 21.9696 11.7297 21.9696 12.0159 22C12.5564 21.9392 13.0652 21.9088 13.4785 21.7568C13.4467 21.848 13.5739 21.848 13.8283 21.848C14.0509 21.848 14.3688 21.7568 14.7186 21.6657C14.8776 21.6353 15.0684 21.5745 15.2273 21.4833C15.3863 21.4225 15.5771 21.3617 15.7361 21.3009C16.0541 21.1489 16.3084 20.997 16.4992 20.9058L16.5628 20.9362C16.8808 20.7842 17.1351 20.6322 17.4531 20.4499C17.6121 20.3587 17.7393 20.2371 17.93 20.0851C18.0254 20.0243 18.089 19.9331 18.1844 19.8723C18.2798 19.7812 18.3752 19.69 18.4706 19.5988C19.4563 18.7173 20.2194 17.6839 20.7281 16.7416C21.1097 16.0426 21.3641 15.1915 21.5231 14.462C21.5548 14.2796 21.5866 14.0973 21.5866 13.9149C21.5866 13.8237 21.6184 13.7629 21.6184 13.6717C21.6184 13.5805 21.6184 13.5198 21.6184 13.4286C21.6184 13.1246 21.6184 12.8815 21.6184 12.7295C21.5866 13.7021 21.4277 14.614 21.1733 15.465C21.0143 15.8602 20.8871 16.2857 20.6645 16.6201C20.5692 16.8024 20.4738 16.9848 20.3784 17.1368C20.2512 17.2888 20.1558 17.4407 20.0286 17.5927C20.442 17.0456 20.5692 16.7112 20.7281 16.4377C20.7917 16.2857 20.8553 16.1641 20.9189 15.9818C20.9825 15.8298 21.0461 15.6474 21.1415 15.4043C21.0779 15.5866 21.0143 15.7386 20.9189 15.8906L21.0779 15.4954C21.0143 15.5866 21.0461 15.5258 21.0779 15.4043C21.1097 15.3131 21.1097 15.1611 21.1097 15.1915C21.0461 15.4347 20.9189 15.6778 20.8235 15.921C20.7599 16.0426 20.7281 16.1641 20.6645 16.2857L20.4738 16.6201C20.9189 15.8906 20.6645 16.3769 20.5692 16.6201L20.3784 16.9848C20.3148 17.1064 20.2194 17.1976 20.1558 17.3191C20.283 17.1672 20.5692 16.7416 20.2512 17.2584C20.1558 17.4103 20.0604 17.5623 19.9332 17.7143C19.806 17.8663 19.6789 18.0182 19.5517 18.1398C19.6789 17.9574 19.806 17.7751 19.9014 17.5927C19.3291 18.4134 18.6296 18.8085 17.8665 19.4164C17.7393 19.4468 17.6439 19.4468 17.5167 19.4772C17.2623 19.6292 16.9762 19.7812 16.69 19.9027L16.7536 19.8116L16.2448 20.0243C16.0858 20.0851 15.8951 20.1155 15.7361 20.1763C15.6089 20.2371 15.5135 20.2675 15.4181 20.2979C15.3227 20.3283 15.2591 20.3587 15.2273 20.3891C15.132 20.4498 15.1002 20.4802 15.0684 20.541C14.6232 20.6626 14.2099 20.7538 14.0191 20.7234C14.1781 20.6626 14.337 20.5714 14.496 20.5106L14.0191 20.541C14.337 20.541 13.6375 20.693 13.5421 20.7234C13.2878 20.7234 13.097 20.7538 12.9698 20.7538C12.8426 20.7538 12.7472 20.7234 12.6836 20.7234C12.5564 20.693 12.4611 20.693 12.1431 20.6018C11.8251 20.6018 11.4436 20.5714 11.1574 20.5106C10.8712 20.4499 10.6804 20.3891 10.6169 20.5106C9.44038 20.1155 8.3593 19.5076 7.5008 18.8389L7.02385 18.6565C6.83307 18.383 6.64229 18.2006 6.48331 17.9878C6.32432 17.7751 6.16534 17.6231 6.00636 17.4407C5.84738 17.2584 5.68839 17.076 5.52941 16.8936C5.46582 16.772 5.37043 16.6809 5.30684 16.5593C5.27504 16.4985 5.21145 16.4377 5.17965 16.3769C5.14785 16.3161 5.11606 16.2249 5.08426 16.1641L5.21145 16.2249C5.05246 16.0426 4.86169 15.8602 4.7027 15.6474C4.67091 15.4043 4.60731 15.1915 4.54372 15.0091C4.48013 14.8267 4.41653 14.6444 4.35294 14.4924C4.28935 14.31 4.22576 14.1277 4.22576 13.9149C4.22576 13.7933 4.19396 13.7021 4.19396 13.5805C4.19396 13.459 4.22575 13.307 4.25755 13.1854C4.28935 13.0334 4.28935 12.8815 4.28935 12.7599C4.32115 12.6383 4.32115 12.5167 4.32115 12.3951C4.32115 12.2736 4.32115 12.1824 4.28935 12.0608C4.28935 11.9696 4.28935 11.8784 4.25755 11.7872C4.19396 11.4225 4.03498 11.1489 3.87599 10.9058C3.87599 10.7538 3.90779 10.5714 3.93959 10.3891C4.00318 10.2371 4.09857 10.0547 4.19396 9.90274C4.25755 9.84195 4.28935 9.75076 4.35294 9.68997C4.41653 9.62918 4.48013 9.53799 4.51192 9.4772C4.63911 9.35562 4.7345 9.23404 4.79809 9.11246L4.7663 9.5076C4.89348 9.38602 5.02067 9.29483 5.17965 9.20365C5.56121 8.53496 5.72019 8.56535 6.26073 7.71429C7.469 6.95441 6.76947 6.49848 7.11924 5.82979C7.37361 5.769 7.65978 5.7386 7.91415 5.67781C8.16852 5.64742 8.45469 5.61702 8.70906 5.61702L8.61367 5.52584C8.74086 5.28267 8.83625 5.16109 8.96343 5.06991C9.05882 4.97872 9.18601 4.91793 9.34499 4.85714C9.50397 4.79635 9.69475 4.79635 9.98092 4.73556C10.2671 4.67477 10.6486 4.64438 11.1892 4.55319L11.062 4.21885C11.4436 4.37082 11.6979 4.31003 11.9841 4.21885C12.2703 4.12766 12.5882 4.03647 13.097 4.06687C13.2242 4.06687 13.3832 4.12766 13.6057 4.18845C13.7011 4.21885 13.8283 4.24924 13.9237 4.31003C14.0509 4.37082 14.1463 4.40122 14.2734 4.46201C14.7822 4.64438 15.2909 4.82675 15.7361 4.79635C16.0859 5.03951 16.4356 5.1307 16.7536 5.28268C16.9126 5.34347 17.0715 5.40426 17.2305 5.46505C17.3895 5.52584 17.5167 5.58663 17.6757 5.64742C17.8347 5.70821 17.9618 5.769 18.1208 5.82979C18.248 5.89058 18.407 5.98176 18.5342 6.07295C18.6614 6.16413 18.8203 6.25532 18.9475 6.3465C19.0747 6.46809 19.2019 6.58967 19.3291 6.74164C19.3927 6.83283 19.4563 6.92401 19.5199 6.9848C19.5835 7.07599 19.6471 7.13678 19.7107 7.22796C19.8378 7.37994 19.9332 7.50152 20.0286 7.6231C20.2194 7.83587 20.3148 8.01824 20.283 8.13982L20.1876 8.01824C20.1876 8.13982 20.1876 8.2614 20.1876 8.38298L20.3148 8.35258C20.5692 8.80851 20.9189 9.4772 20.9825 9.93313C21.0461 10.0243 21.0779 10.1155 21.1415 10.2067L21.2687 10.4802C21.3323 10.6626 21.4277 10.8754 21.4913 11.0578C21.3959 10.7538 21.3323 10.4498 21.2369 10.1155V10.1459C21.1733 9.99392 21.0779 9.75076 20.9825 9.4772C20.9507 9.41641 20.9189 9.35562 20.9189 9.29483C20.8871 9.23404 20.8553 9.17325 20.8235 9.11246C20.7599 8.99088 20.7281 8.8997 20.6963 8.80851L20.9189 9.20365C20.7281 8.71733 20.9507 9.08207 21.0143 9.23404C21.3323 10.2371 21.3323 9.93313 21.5231 10.693C21.5548 10.7842 21.5548 10.9058 21.5866 10.997C21.5866 11.0881 21.5866 11.1489 21.5866 11.0881C21.6184 11.3313 21.682 11.7264 21.7138 12.0912C21.7138 12.4559 21.7456 12.7599 21.7774 12.7903C21.7774 12.8207 21.7774 12.8511 21.7774 12.8815C21.8092 12.7903 21.841 12.6383 21.8728 12.3951C21.9046 12.2736 21.9046 12.1216 21.9364 12C21.9682 11.696 21.9682 11.5441 22 11.3617Z" fill="#242424"/>
<path d="M12.0715 16.9696C14.7232 16.9696 16.8728 14.9148 16.8728 12.3799C16.8728 9.84515 14.7232 7.79028 12.0715 7.79028C9.41987 7.79028 7.27026 9.84515 7.27026 12.3799C7.27026 14.9148 9.41987 16.9696 12.0715 16.9696Z" fill="#326867"/>
<path d="M17 11.6809C16.9841 11.4225 16.9364 11.1945 16.8887 10.997C16.8092 10.4498 16.6661 10.0243 16.4436 9.65957C16.2051 9.27964 15.9348 8.93009 15.5374 8.45897C15.442 8.35258 15.3466 8.2766 15.2512 8.18541C15.2035 8.13982 15.1558 8.09422 15.1081 8.06383C15.0604 8.03343 14.9968 7.98784 14.9491 7.95745C14.8378 7.88146 14.7424 7.80547 14.6471 7.74468C14.5358 7.68389 14.4404 7.6231 14.3291 7.56231C13.8998 7.34954 13.4388 7.16717 12.8824 7C12.8188 7.06079 12.7552 7.10638 12.6598 7.12158C12.5644 7.15198 12.469 7.16717 12.3577 7.16717C12.1192 7.16717 11.849 7.15198 11.5469 7.13678C11.2448 7.13678 10.9269 7.13678 10.6407 7.21277C10.5612 7.22796 10.4976 7.24316 10.434 7.27356C10.3704 7.30395 10.3068 7.33435 10.2432 7.36474C10.1161 7.41033 10.0048 7.48632 9.94118 7.56231C9.46423 7.86626 9.36884 8.20061 9.7663 8.12462C9.17806 8.47416 9.17806 8.17021 8.76471 8.61094C8.76471 8.51976 8.7806 8.42857 8.7806 8.32219C8.73291 8.33739 8.68522 8.36778 8.62162 8.38298C8.57393 8.39818 8.51033 8.42857 8.46264 8.45897C8.35135 8.51976 8.25596 8.58055 8.17647 8.68693C8.16057 8.80851 8.14467 8.93009 8.12878 9.05167C7.95389 9.14286 7.85851 9.26444 7.76312 9.38602C7.71542 9.44681 7.68362 9.5076 7.65183 9.56839C7.62003 9.62918 7.60413 9.70517 7.57234 9.76596C7.52464 9.90274 7.47695 10.0395 7.42925 10.1763C7.38156 10.3131 7.30207 10.465 7.20668 10.6322C7.50874 10.2371 7.23847 10.8754 7.39746 10.8754C7.36566 10.8906 7.33386 10.9362 7.30207 10.9818C7.27027 11.0274 7.25437 11.0881 7.22258 11.1337C7.17488 11.2249 7.12719 11.2857 7.12719 11.2097C7.09539 11.2857 7.07949 11.3617 7.06359 11.4377C7.04769 11.5137 7.0477 11.5897 7.0477 11.6657C7.0477 11.7416 7.0477 11.8024 7.0477 11.8784C7.0477 11.9544 7.06359 12.0152 7.06359 12.076C7.07949 12.2128 7.07949 12.3191 7.07949 12.4407C7.07949 12.5471 7.06359 12.6535 7 12.7447C7.0318 12.8207 7.06359 12.8967 7.09539 12.9574C7.25437 13.307 7.19078 13.6261 7.28617 13.9757L7.38156 13.9909C7.50874 14.1885 7.68362 14.5684 7.71542 14.766C7.85851 15.0395 8.09698 15.2979 8.36725 15.5106L8.57393 15.6626C8.63752 15.7082 8.71701 15.7538 8.7965 15.7994C8.87599 15.845 8.93959 15.8906 9.00318 15.921C9.08267 15.9514 9.14626 15.997 9.20986 16.0274C9.25755 16.0729 9.32115 16.1185 9.35294 16.1489C9.40064 16.1793 9.43243 16.1945 9.46423 16.2097C9.52782 16.2401 9.57552 16.2401 9.62321 16.2401C9.7186 16.2401 9.79809 16.2249 10.0525 16.3161C10.1955 16.4225 10.4181 16.4833 10.6248 16.5441C10.8315 16.5897 11.0223 16.6505 11.1176 16.7112C10.8792 16.6657 10.7361 16.6657 10.593 16.6657C10.5135 16.6657 10.4499 16.6505 10.3545 16.6353C10.275 16.6201 10.1638 16.5897 10.0525 16.5289C10.132 16.6049 9.92528 16.5289 9.7345 16.4681C9.55962 16.4073 9.40064 16.3465 9.59142 16.4985C10.0843 16.6657 10.6248 16.848 11.1812 16.9392C11.3243 16.9544 11.4515 16.9848 11.5946 16.9848C11.7377 16.9848 11.8649 16.9848 12.008 17C12.2782 16.9696 12.5326 16.9544 12.7393 16.8784C12.7234 16.924 12.787 16.924 12.9142 16.924C13.0254 16.924 13.1844 16.8784 13.3593 16.8328C13.4388 16.8176 13.5342 16.7872 13.6137 16.7416C13.6932 16.7112 13.7886 16.6809 13.868 16.6505C14.027 16.5745 14.1542 16.4985 14.2496 16.4529L14.2814 16.4681C14.4404 16.3921 14.5676 16.3161 14.7266 16.2249C14.806 16.1793 14.8696 16.1185 14.965 16.0426C15.0127 16.0122 15.0445 15.9666 15.0922 15.9362C15.1399 15.8906 15.1876 15.845 15.2353 15.7994C15.7281 15.3587 16.1097 14.8419 16.3641 14.3708C16.5548 14.0213 16.682 13.5957 16.7615 13.231C16.7774 13.1398 16.7933 13.0486 16.7933 12.9574C16.7933 12.9119 16.8092 12.8815 16.8092 12.8359C16.8092 12.7903 16.8092 12.7599 16.8092 12.7143C16.8092 12.5623 16.8092 12.4407 16.8092 12.3647C16.7933 12.8511 16.7138 13.307 16.5866 13.7325C16.5072 13.9301 16.4436 14.1429 16.3323 14.31C16.2846 14.4012 16.2369 14.4924 16.1892 14.5684C16.1256 14.6444 16.0779 14.7204 16.0143 14.7964C16.221 14.5228 16.2846 14.3556 16.3641 14.2188C16.3959 14.1429 16.4277 14.0821 16.4595 13.9909C16.4913 13.9149 16.5231 13.8237 16.5707 13.7021C16.539 13.7933 16.5072 13.8693 16.4595 13.9453L16.539 13.7477C16.5072 13.7933 16.5231 13.7629 16.539 13.7021C16.5549 13.6565 16.5548 13.5805 16.5548 13.5957C16.5231 13.7173 16.4595 13.8389 16.4118 13.9605C16.38 14.0213 16.3641 14.0821 16.3323 14.1429L16.2369 14.31C16.4595 13.9453 16.3323 14.1885 16.2846 14.31L16.1892 14.4924C16.1574 14.5532 16.1097 14.5988 16.0779 14.6596C16.1415 14.5836 16.2846 14.3708 16.1256 14.6292C16.0779 14.7052 16.0302 14.7812 15.9666 14.8571C15.903 14.9331 15.8394 15.0091 15.7758 15.0699C15.8394 14.9787 15.903 14.8875 15.9507 14.7964C15.6645 15.2067 15.3148 15.4043 14.9332 15.7082C14.8696 15.7234 14.8219 15.7234 14.7583 15.7386C14.6312 15.8146 14.4881 15.8906 14.345 15.9514L14.3768 15.9058L14.1224 16.0122C14.0429 16.0426 13.9475 16.0578 13.868 16.0881C13.8045 16.1185 13.7568 16.1337 13.7091 16.1489C13.6614 16.1641 13.6296 16.1793 13.6137 16.1945C13.566 16.2249 13.5501 16.2401 13.5342 16.2705C13.3116 16.3313 13.1049 16.3769 13.0095 16.3617C13.089 16.3313 13.1685 16.2857 13.248 16.2553L13.0095 16.2705C13.1685 16.2705 12.8188 16.3465 12.7711 16.3617C12.6439 16.3617 12.5485 16.3769 12.4849 16.3769C12.4213 16.3769 12.3736 16.3617 12.3418 16.3617C12.2782 16.3465 12.2305 16.3465 12.0715 16.3009C11.9126 16.3009 11.7218 16.2857 11.5787 16.2553C11.4356 16.2249 11.3402 16.1945 11.3084 16.2553C10.7202 16.0578 10.1797 15.7538 9.7504 15.4195L9.51192 15.3283C9.41653 15.1915 9.32114 15.1003 9.24165 14.9939C9.16216 14.8875 9.08267 14.8116 9.00318 14.7204C8.92369 14.6292 8.8442 14.538 8.76471 14.4468C8.73291 14.386 8.68521 14.3404 8.65342 14.2796C8.63752 14.2492 8.60572 14.2188 8.58983 14.1884C8.57393 14.1581 8.55803 14.1125 8.54213 14.0821L8.60572 14.1125C8.52623 14.0213 8.43084 13.9301 8.35135 13.8237C8.33545 13.7021 8.30366 13.5957 8.27186 13.5046C8.24006 13.4134 8.20827 13.3222 8.17647 13.2462C8.14467 13.155 8.11288 13.0638 8.11288 12.9574C8.11288 12.8967 8.09698 12.8511 8.09698 12.7903C8.09698 12.7295 8.11288 12.6535 8.12878 12.5927C8.14467 12.5167 8.14467 12.4407 8.14467 12.3799C8.16057 12.3191 8.16057 12.2584 8.16057 12.1976C8.16057 12.1368 8.16057 12.0912 8.14467 12.0304C8.14467 11.9848 8.14467 11.9392 8.12878 11.8936C8.09698 11.7112 8.01749 11.5745 7.938 11.4529C7.938 11.3769 7.95389 11.2857 7.96979 11.1945C8.00159 11.1185 8.04928 11.0274 8.09698 10.9514C8.12878 10.921 8.14467 10.8754 8.17647 10.845C8.20827 10.8146 8.24006 10.769 8.25596 10.7386C8.31956 10.6778 8.36725 10.617 8.39905 10.5562L8.38315 10.7538C8.44674 10.693 8.51033 10.6474 8.58983 10.6018C8.7806 10.2675 8.8601 10.2827 9.13037 9.85714C9.7345 9.4772 9.38474 9.24924 9.55962 8.91489C9.6868 8.8845 9.82989 8.8693 9.95707 8.83891C10.0843 8.82371 10.2273 8.80851 10.3545 8.80851L10.3068 8.76292C10.3704 8.64134 10.4181 8.58055 10.4817 8.53495C10.5294 8.48936 10.593 8.45897 10.6725 8.42857C10.752 8.39818 10.8474 8.39818 10.9905 8.36778C11.1335 8.33739 11.3243 8.32219 11.5946 8.2766L11.531 8.10942C11.7218 8.18541 11.849 8.15502 11.9921 8.10942C12.1351 8.06383 12.2941 8.01824 12.5485 8.03343C12.6121 8.03343 12.6916 8.06383 12.8029 8.09422C12.8506 8.10942 12.9142 8.12462 12.9618 8.15502C13.0254 8.18541 13.0731 8.20061 13.1367 8.231C13.3911 8.32219 13.6455 8.41337 13.868 8.39818C14.0429 8.51976 14.2178 8.56535 14.3768 8.64134C14.4563 8.67173 14.5358 8.70213 14.6153 8.73252C14.6948 8.76292 14.7583 8.79331 14.8378 8.82371C14.9173 8.8541 14.9809 8.8845 15.0604 8.91489C15.124 8.94529 15.2035 8.99088 15.2671 9.03647C15.3307 9.08207 15.4102 9.12766 15.4738 9.17325C15.5374 9.23404 15.601 9.29483 15.6645 9.37082C15.6963 9.41641 15.7281 9.46201 15.7599 9.4924C15.7917 9.53799 15.8235 9.56839 15.8553 9.61398C15.9189 9.68997 15.9666 9.75076 16.0143 9.81155C16.1097 9.91793 16.1574 10.0091 16.1415 10.0699L16.0938 10.0091C16.0938 10.0699 16.0938 10.1307 16.0938 10.1915L16.1574 10.1763C16.2846 10.4043 16.4595 10.7386 16.4913 10.9666C16.5231 11.0122 16.539 11.0578 16.5707 11.1033L16.6343 11.2401C16.6661 11.3313 16.7138 11.4377 16.7456 11.5289C16.6979 11.3769 16.6661 11.2249 16.6184 11.0578V11.0729C16.5866 10.997 16.539 10.8754 16.4913 10.7386C16.4754 10.7082 16.4595 10.6778 16.4595 10.6474C16.4436 10.617 16.4277 10.5866 16.4118 10.5562C16.38 10.4954 16.3641 10.4498 16.3482 10.4043L16.4595 10.6018C16.3641 10.3587 16.4754 10.541 16.5072 10.617C16.6661 11.1185 16.6661 10.9666 16.7615 11.3465C16.7774 11.3921 16.7774 11.4529 16.7933 11.4985C16.7933 11.5441 16.7933 11.5745 16.7933 11.5441C16.8092 11.6657 16.841 11.8632 16.8569 12.0456C16.8569 12.228 16.8728 12.3799 16.8887 12.3951C16.8887 12.4103 16.8887 12.4255 16.8887 12.4407C16.9046 12.3951 16.9205 12.3191 16.9364 12.1976C16.9523 12.1368 16.9523 12.0608 16.9682 12C16.9841 11.848 16.9841 11.772 17 11.6809Z" fill="#326867"/>
</svg>
