<svg width="24" height="24" viewBox="0 0 24 24" fill="none" xmlns="http://www.w3.org/2000/svg">
<path d="M22 11.3617C21.9682 10.845 21.8728 10.3891 21.7774 9.99392C21.6184 8.8997 21.3323 8.04863 20.8871 7.31915C20.4102 6.55927 19.8696 5.86018 19.0747 4.91793C18.8839 4.70517 18.6932 4.55319 18.5024 4.37082C18.407 4.27964 18.3116 4.18845 18.2162 4.12766C18.1208 4.06687 17.9936 3.97568 17.8983 3.91489C17.6757 3.76292 17.4849 3.61094 17.2941 3.48936C17.0715 3.36778 16.8808 3.2462 16.6582 3.12462C15.7997 2.69909 14.8776 2.33435 13.7647 2C13.6375 2.12158 13.5103 2.21277 13.3196 2.24316C13.1288 2.30395 12.938 2.33435 12.7154 2.33435C12.2385 2.33435 11.6979 2.30395 11.0938 2.27356C10.4897 2.27356 9.85374 2.27356 9.2814 2.42553C9.12242 2.45593 8.99523 2.48632 8.86804 2.54711C8.74086 2.6079 8.61367 2.66869 8.48649 2.72948C8.23212 2.82067 8.00954 2.97264 7.88235 3.12462C6.92846 3.73252 6.73768 4.40122 7.53259 4.24924C6.35612 4.94833 6.35612 4.34043 5.52941 5.22188C5.52941 5.03951 5.56121 4.85714 5.56121 4.64438C5.46582 4.67477 5.37043 4.73556 5.24324 4.76596C5.14786 4.79635 5.02067 4.85714 4.92528 4.91793C4.7027 5.03951 4.51192 5.16109 4.35294 5.37386C4.32115 5.61702 4.28935 5.86018 4.25755 6.10334C3.90779 6.28571 3.71701 6.52888 3.52623 6.77204C3.43084 6.89362 3.36725 7.0152 3.30366 7.13678C3.24006 7.25836 3.20827 7.41034 3.14467 7.53192C3.04928 7.80547 2.9539 8.07903 2.85851 8.35258C2.76312 8.62614 2.60413 8.93009 2.41336 9.26444C3.01749 8.47416 2.47695 9.75076 2.79491 9.75076C2.73132 9.78116 2.66773 9.87234 2.60413 9.96353C2.54054 10.0547 2.50874 10.1763 2.44515 10.2675C2.34976 10.4498 2.25437 10.5714 2.25437 10.4195C2.19078 10.5714 2.15898 10.7234 2.12719 10.8754C2.09539 11.0274 2.09539 11.1793 2.09539 11.3313C2.09539 11.4833 2.09539 11.6049 2.09539 11.7568C2.09539 11.9088 2.12719 12.0304 2.12719 12.152C2.15898 12.4255 2.15898 12.6383 2.15898 12.8815C2.15898 13.0942 2.12719 13.307 2 13.4894C2.06359 13.6413 2.12719 13.7933 2.19078 13.9149C2.50874 14.614 2.38156 15.2523 2.57234 15.9514L2.76312 15.9818C3.01749 16.3769 3.36725 17.1368 3.43084 17.5319C3.71701 18.079 4.19396 18.5957 4.7345 19.0213L5.14785 19.3252C5.27504 19.4164 5.43402 19.5076 5.59301 19.5988C5.75199 19.69 5.87917 19.7812 6.00636 19.8419C6.16534 19.9027 6.29253 19.9939 6.41971 20.0547C6.5151 20.1459 6.64229 20.2371 6.70588 20.2979C6.80127 20.3587 6.86486 20.3891 6.92846 20.4195C7.05564 20.4802 7.15103 20.4802 7.24642 20.4802C7.4372 20.4802 7.59619 20.4498 8.10493 20.6322C8.3911 20.845 8.83625 20.9666 9.2496 21.0881C9.66296 21.1793 10.0445 21.3009 10.2353 21.4225C9.75835 21.3313 9.47218 21.3313 9.18601 21.3313C9.02703 21.3313 8.89984 21.3009 8.70906 21.2705C8.55008 21.2401 8.32751 21.1793 8.10493 21.0578C8.26391 21.2097 7.85056 21.0578 7.469 20.9362C7.11924 20.8146 6.80127 20.693 7.18283 20.997C8.16852 21.3313 9.2496 21.696 10.3625 21.8784C10.6486 21.9088 10.903 21.9696 11.1892 21.9696C11.4754 21.9696 11.7297 21.9696 12.0159 22C12.5564 21.9392 13.0652 21.9088 13.4785 21.7568C13.4467 21.848 13.5739 21.848 13.8283 21.848C14.0509 21.848 14.3688 21.7568 14.7186 21.6657C14.8776 21.6353 15.0684 21.5745 15.2273 21.4833C15.3863 21.4225 15.5771 21.3617 15.7361 21.3009C16.0541 21.1489 16.3084 20.997 16.4992 20.9058L16.5628 20.9362C16.8808 20.7842 17.1351 20.6322 17.4531 20.4499C17.6121 20.3587 17.7393 20.2371 17.93 20.0851C18.0254 20.0243 18.089 19.9331 18.1844 19.8723C18.2798 19.7812 18.3752 19.69 18.4706 19.5988C19.4563 18.7173 20.2194 17.6839 20.7281 16.7416C21.1097 16.0426 21.3641 15.1915 21.5231 14.462C21.5548 14.2796 21.5866 14.0973 21.5866 13.9149C21.5866 13.8237 21.6184 13.7629 21.6184 13.6717C21.6184 13.5805 21.6184 13.5198 21.6184 13.4286C21.6184 13.1246 21.6184 12.8815 21.6184 12.7295C21.5866 13.7021 21.4277 14.614 21.1733 15.465C21.0143 15.8602 20.8871 16.2857 20.6645 16.6201C20.5692 16.8024 20.4738 16.9848 20.3784 17.1368C20.2512 17.2888 20.1558 17.4407 20.0286 17.5927C20.442 17.0456 20.5692 16.7112 20.7281 16.4377C20.7917 16.2857 20.8553 16.1641 20.9189 15.9818C20.9825 15.8298 21.0461 15.6474 21.1415 15.4043C21.0779 15.5866 21.0143 15.7386 20.9189 15.8906L21.0779 15.4954C21.0143 15.5866 21.0461 15.5258 21.0779 15.4043C21.1097 15.3131 21.1097 15.1611 21.1097 15.1915C21.0461 15.4347 20.9189 15.6778 20.8235 15.921C20.7599 16.0426 20.7281 16.1641 20.6645 16.2857L20.4738 16.6201C20.9189 15.8906 20.6645 16.3769 20.5692 16.6201L20.3784 16.9848C20.3148 17.1064 20.2194 17.1976 20.1558 17.3191C20.283 17.1672 20.5692 16.7416 20.2512 17.2584C20.1558 17.4103 20.0604 17.5623 19.9332 17.7143C19.806 17.8663 19.6789 18.0182 19.5517 18.1398C19.6789 17.9574 19.806 17.7751 19.9014 17.5927C19.3291 18.4134 18.6296 18.8085 17.8665 19.4164C17.7393 19.4468 17.6439 19.4468 17.5167 19.4772C17.2623 19.6292 16.9762 19.7812 16.69 19.9027L16.7536 19.8116L16.2448 20.0243C16.0858 20.0851 15.8951 20.1155 15.7361 20.1763C15.6089 20.2371 15.5135 20.2675 15.4181 20.2979C15.3227 20.3283 15.2591 20.3587 15.2273 20.3891C15.132 20.4498 15.1002 20.4802 15.0684 20.541C14.6232 20.6626 14.2099 20.7538 14.0191 20.7234C14.1781 20.6626 14.337 20.5714 14.496 20.5106L14.0191 20.541C14.337 20.541 13.6375 20.693 13.5421 20.7234C13.2878 20.7234 13.097 20.7538 12.9698 20.7538C12.8426 20.7538 12.7472 20.7234 12.6836 20.7234C12.5564 20.693 12.4611 20.693 12.1431 20.6018C11.8251 20.6018 11.4436 20.5714 11.1574 20.5106C10.8712 20.4499 10.6804 20.3891 10.6169 20.5106C9.44038 20.1155 8.3593 19.5076 7.5008 18.8389L7.02385 18.6565C6.83307 18.383 6.64229 18.2006 6.48331 17.9878C6.32432 17.7751 6.16534 17.6231 6.00636 17.4407C5.84738 17.2584 5.68839 17.076 5.52941 16.8936C5.46582 16.772 5.37043 16.6809 5.30684 16.5593C5.27504 16.4985 5.21145 16.4377 5.17965 16.3769C5.14785 16.3161 5.11606 16.2249 5.08426 16.1641L5.21145 16.2249C5.05246 16.0426 4.86169 15.8602 4.7027 15.6474C4.67091 15.4043 4.60731 15.1915 4.54372 15.0091C4.48013 14.8267 4.41653 14.6444 4.35294 14.4924C4.28935 14.31 4.22576 14.1277 4.22576 13.9149C4.22576 13.7933 4.19396 13.7021 4.19396 13.5805C4.19396 13.459 4.22575 13.307 4.25755 13.1854C4.28935 13.0334 4.28935 12.8815 4.28935 12.7599C4.32115 12.6383 4.32115 12.5167 4.32115 12.3951C4.32115 12.2736 4.32115 12.1824 4.28935 12.0608C4.28935 11.9696 4.28935 11.8784 4.25755 11.7872C4.19396 11.4225 4.03498 11.1489 3.87599 10.9058C3.87599 10.7538 3.90779 10.5714 3.93959 10.3891C4.00318 10.2371 4.09857 10.0547 4.19396 9.90274C4.25755 9.84195 4.28935 9.75076 4.35294 9.68997C4.41653 9.62918 4.48013 9.53799 4.51192 9.4772C4.63911 9.35562 4.7345 9.23404 4.79809 9.11246L4.7663 9.5076C4.89348 9.38602 5.02067 9.29483 5.17965 9.20365C5.56121 8.53496 5.72019 8.56535 6.26073 7.71429C7.469 6.95441 6.76947 6.49848 7.11924 5.82979C7.37361 5.769 7.65978 5.7386 7.91415 5.67781C8.16852 5.64742 8.45469 5.61702 8.70906 5.61702L8.61367 5.52584C8.74086 5.28267 8.83625 5.16109 8.96343 5.06991C9.05882 4.97872 9.18601 4.91793 9.34499 4.85714C9.50397 4.79635 9.69475 4.79635 9.98092 4.73556C10.2671 4.67477 10.6486 4.64438 11.1892 4.55319L11.062 4.21885C11.4436 4.37082 11.6979 4.31003 11.9841 4.21885C12.2703 4.12766 12.5882 4.03647 13.097 4.06687C13.2242 4.06687 13.3832 4.12766 13.6057 4.18845C13.7011 4.21885 13.8283 4.24924 13.9237 4.31003C14.0509 4.37082 14.1463 4.40122 14.2734 4.46201C14.7822 4.64438 15.2909 4.82675 15.7361 4.79635C16.0859 5.03951 16.4356 5.1307 16.7536 5.28268C16.9126 5.34347 17.0715 5.40426 17.2305 5.46505C17.3895 5.52584 17.5167 5.58663 17.6757 5.64742C17.8347 5.70821 17.9618 5.769 18.1208 5.82979C18.248 5.89058 18.407 5.98176 18.5342 6.07295C18.6614 6.16413 18.8203 6.25532 18.9475 6.3465C19.0747 6.46809 19.2019 6.58967 19.3291 6.74164C19.3927 6.83283 19.4563 6.92401 19.5199 6.9848C19.5835 7.07599 19.6471 7.13678 19.7107 7.22796C19.8378 7.37994 19.9332 7.50152 20.0286 7.6231C20.2194 7.83587 20.3148 8.01824 20.283 8.13982L20.1876 8.01824C20.1876 8.13982 20.1876 8.2614 20.1876 8.38298L20.3148 8.35258C20.5692 8.80851 20.9189 9.4772 20.9825 9.93313C21.0461 10.0243 21.0779 10.1155 21.1415 10.2067L21.2687 10.4802C21.3323 10.6626 21.4277 10.8754 21.4913 11.0578C21.3959 10.7538 21.3323 10.4498 21.2369 10.1155V10.1459C21.1733 9.99392 21.0779 9.75076 20.9825 9.4772C20.9507 9.41641 20.9189 9.35562 20.9189 9.29483C20.8871 9.23404 20.8553 9.17325 20.8235 9.11246C20.7599 8.99088 20.7281 8.8997 20.6963 8.80851L20.9189 9.20365C20.7281 8.71733 20.9507 9.08207 21.0143 9.23404C21.3323 10.2371 21.3323 9.93313 21.5231 10.693C21.5548 10.7842 21.5548 10.9058 21.5866 10.997C21.5866 11.0881 21.5866 11.1489 21.5866 11.0881C21.6184 11.3313 21.682 11.7264 21.7138 12.0912C21.7138 12.4559 21.7456 12.7599 21.7774 12.7903C21.7774 12.8207 21.7774 12.8511 21.7774 12.8815C21.8092 12.7903 21.841 12.6383 21.8728 12.3951C21.9046 12.2736 21.9046 12.1216 21.9364 12C21.9682 11.696 21.9682 11.5441 22 11.3617Z" fill="#242424"/>
</svg>
