<svg width="24" height="24" viewBox="0 0 24 24" fill="none" xmlns="http://www.w3.org/2000/svg">
<path d="M10.498 12.7551C10.5198 12.8892 10.5416 12.7551 10.5976 12.6927L10.498 12.7551Z" fill="#242424"/>
<path d="M10.5968 12.6927L10.6653 12.649C10.6513 12.6504 10.6378 12.6551 10.6259 12.6627C10.614 12.6703 10.604 12.6805 10.5968 12.6927Z" fill="#242424"/>
<path d="M11.165 12.1779C11.1187 12.3713 10.8933 12.4524 10.9118 12.624C11.0971 12.5523 11.2515 12.2995 11.165 12.1779Z" fill="#242424"/>
<path d="M10.9303 12.3245L10.9708 12.39L10.9832 12.1997L10.9303 12.3245Z" fill="#242424"/>
<path d="M10.8099 12.3619H10.8377C10.8747 12.287 10.9025 12.2059 10.9334 12.131C10.8963 12.209 10.8562 12.2902 10.8099 12.3619Z" fill="#242424"/>
<path d="M11.5541 11.7161L11.4738 11.8752C11.2978 11.9594 11.4244 11.7098 11.307 11.7629C11.1866 11.9438 11.4336 11.947 11.2422 12.1529C11.3348 12.1934 11.5046 11.7878 11.5973 11.9064C11.764 11.7317 11.5324 11.8471 11.5541 11.7161Z" fill="#242424"/>
<path d="M8.4323 3.47581V3.45709C8.41985 3.47581 8.42607 3.50389 8.4323 3.47581Z" fill="#242424"/>
<path d="M6.0062 3.52261H5.89722C5.91155 3.53554 5.92857 3.54513 5.94704 3.55069L6.0062 3.52261Z" fill="#242424"/>
<path d="M9.9762 4.01561C9.99311 4.04851 10.0129 4.07983 10.0354 4.10921C10.0286 4.07146 10.0074 4.03786 9.9762 4.01561Z" fill="#242424"/>
<path d="M4.84149 13.7285C4.82786 13.7362 4.81615 13.7469 4.80725 13.7597L4.85394 13.741L4.84149 13.7285Z" fill="#242424"/>
<path d="M3.92771 5.18565C3.9041 5.21308 3.8842 5.2435 3.86853 5.27614C3.91213 5.22934 3.92771 5.20437 3.92771 5.18565Z" fill="#242424"/>
<path d="M10.6773 4.68019L10.6524 4.64899L10.6742 4.69891L10.6773 4.68019Z" fill="#242424"/>
<path d="M6.79955 3.58191C6.77178 3.57652 6.74323 3.57652 6.71545 3.58191C6.7433 3.58645 6.7717 3.58645 6.79955 3.58191Z" fill="#242424"/>
<path d="M12.6226 9.16693C12.638 9.12354 12.638 9.07614 12.6226 9.03276C12.6082 9.05215 12.6004 9.07567 12.6004 9.09984C12.6004 9.12401 12.6082 9.14754 12.6226 9.16693Z" fill="#242424"/>
<path d="M12.644 8.08424C12.6627 8.08113 12.6596 8.07801 12.644 8.08424V8.08424Z" fill="#242424"/>
<path d="M12.5916 7.39157C12.5916 7.39157 12.6103 7.38845 12.5916 7.39157V7.39157Z" fill="#242424"/>
<path d="M12.6255 9.03276C12.6904 8.94852 12.8756 8.93292 12.6842 8.80187L12.6533 8.82371C12.7058 8.75819 12.6317 8.64899 12.6255 8.57098L12.5761 8.59594C12.5714 8.65483 12.5621 8.71325 12.5483 8.77067C12.4958 8.86428 12.5885 8.93292 12.6255 9.03276Z" fill="#242424"/>
<path d="M8.45386 3.44461C8.45386 3.48205 8.51613 3.47893 8.45386 3.44461V3.44461Z" fill="#242424"/>
<path d="M9.23878 3.62559L9.17029 3.58191C9.18792 3.60338 9.2119 3.61868 9.23878 3.62559Z" fill="#242424"/>
<path d="M11.2731 5.84399V5.82527C11.2514 5.83151 11.2607 5.84087 11.2731 5.84399Z" fill="#242424"/>
<path d="M9.10541 3.54446L9.1708 3.58191C9.16309 3.57146 9.15329 3.56274 9.14203 3.55629C9.13078 3.54984 9.1183 3.54582 9.10541 3.54446Z" fill="#242424"/>
<path d="M10.8809 4.99532C10.8828 4.9903 10.8828 4.98474 10.8809 4.97972C10.8795 4.98482 10.8795 4.99023 10.8809 4.99532Z" fill="#242424"/>
<path d="M15.9418 18.3713C15.8769 18.3432 15.8769 18.2777 15.8368 18.2246C15.6453 18.2465 16.0684 18.4056 15.8368 18.3775C15.8811 18.4096 15.9316 18.4319 15.985 18.443V18.287C15.8584 18.2496 16.0251 18.3713 15.9418 18.3713Z" fill="#242424"/>
<path d="M5.56067 14.3089L5.53288 14.287C5.53288 14.3494 5.51126 14.3619 5.62243 14.4243C5.74285 14.3682 5.62243 14.1966 5.82006 14.1466C5.77687 14.1452 5.73501 14.1311 5.69962 14.1061C5.74285 14.2028 5.6564 14.2621 5.56067 14.3089Z" fill="#242424"/>
<path d="M5.70024 14.1123C5.69758 14.0989 5.69229 14.0862 5.68467 14.0749C5.66174 14.0679 5.64052 14.0562 5.62238 14.0406C5.64045 14.0719 5.66761 14.0969 5.70024 14.1123Z" fill="#242424"/>
<path d="M14.2347 16.9485L14.1818 16.8923C14.2004 16.9204 14.216 16.9485 14.2347 16.9485Z" fill="#242424"/>
<path d="M2.80942 3.97815C2.82415 3.94395 2.83561 3.90843 2.84368 3.87207C2.81934 3.90185 2.8071 3.93973 2.80942 3.97815Z" fill="#242424"/>
<path d="M4.09793 13.4446L4.03878 13.3822C4.02258 13.3751 4.00696 13.3668 3.99207 13.3573L4.09793 13.4446Z" fill="#242424"/>
<path d="M8.83057 12.7863C8.87071 12.9298 8.846 12.7675 8.96335 12.7863L8.99115 12.6771C8.93105 12.7025 8.8765 12.7396 8.83057 12.7863Z" fill="#242424"/>
<path d="M12.3538 13.195L12.3787 13.2418C12.3741 13.2245 12.3656 13.2085 12.3538 13.195Z" fill="#242424"/>
<path d="M5.11602 13.8315C4.99116 13.775 4.86952 13.7114 4.75165 13.6412L4.84119 13.7286C4.92147 13.6942 5.02338 13.8939 5.11602 13.8315Z" fill="#242424"/>
<path d="M7.543 13.0764L7.50595 12.9922C7.36262 13.0804 7.19084 13.1084 7.02735 13.0702C6.95052 13.052 6.8708 13.0501 6.79321 13.0646C6.71562 13.0791 6.64185 13.1097 6.57653 13.1544C6.40671 12.9672 6.33877 13.0265 6.26776 13.0889C6.19674 13.1513 6.11645 13.2044 5.9775 13.0203V13.0671C5.40417 12.8573 4.88344 12.5229 4.45214 12.0874C4.03259 11.6649 3.6589 11.1984 3.33744 10.6958L3.39303 10.6708C3.21948 10.2491 3.08709 9.81124 2.99779 9.36349C2.9166 8.91499 2.88759 8.45843 2.91133 8.00312C2.9309 7.54918 3.01514 7.10047 3.16145 6.67083C3.29957 6.23938 3.50832 5.83439 3.779 5.4727C3.82841 5.30109 3.65548 5.30109 3.69254 5.13885C3.74194 5.09204 3.83149 4.97348 3.88707 5.02028C3.84075 5.14509 3.93648 5.13261 3.93339 5.18565C4.00346 5.09981 4.08096 5.02045 4.16498 4.94852C4.25154 4.88655 4.31898 4.8011 4.3595 4.70203L4.18658 4.73947C4.2082 4.65835 4.30701 4.59594 4.35642 4.55538C4.35642 4.61154 4.5108 4.63339 4.4861 4.68643C4.62814 4.26209 4.76709 4.57098 4.97088 4.32761C4.89986 4.11544 5.16542 3.75351 5.37847 3.5039H5.53594C5.35376 3.57566 5.5977 3.64431 5.37229 3.72231C5.57917 3.72231 5.71195 3.53822 5.90648 3.52886C5.89297 3.52131 5.8817 3.51023 5.87386 3.49679C5.86601 3.48334 5.86188 3.46802 5.86188 3.45242C5.86188 3.43681 5.86601 3.42149 5.87386 3.40805C5.8817 3.39461 5.89297 3.38353 5.90648 3.37598C6.0269 3.37598 6.06396 3.46958 6.19056 3.44462L6.08249 3.54446C6.18438 3.59438 6.23069 3.4727 6.30789 3.45086C6.35112 3.5351 6.54256 3.5195 6.52095 3.61934C6.67225 3.46958 6.74018 3.54134 6.91927 3.45398C6.71857 3.37285 6.9625 3.33541 6.94089 3.26365L6.71548 3.31045C7.02426 3.35413 6.61359 3.32917 6.65373 3.47894C6.49934 3.42902 6.83282 3.21061 6.5858 3.26677C6.69346 3.22795 6.80547 3.2028 6.91927 3.19189C7.03645 3.17245 7.15204 3.14429 7.2651 3.10764C7.07057 3.10764 7.30525 3.01092 7.20335 2.961C7.45346 2.961 7.26202 3.01404 7.33613 3.117C7.4689 3.117 7.50904 3.20125 7.6449 3.117C7.85179 3.19813 7.59858 3.22309 7.69739 3.30109C7.61711 3.37285 7.12307 3.13573 7.17247 3.46022C7.06749 3.46022 6.94706 3.60062 6.80194 3.5975C6.94545 3.66868 7.10741 3.69268 7.2651 3.66615L7.28055 3.48206C7.40097 3.48206 7.43493 3.36037 7.52448 3.3791C7.47198 3.43214 7.55227 3.50702 7.64799 3.51326C7.62638 3.48206 7.58624 3.48206 7.59859 3.45086C7.78077 3.46958 7.82709 3.34477 8.06176 3.35413C7.92842 3.28236 7.80226 3.19772 7.68505 3.1014C7.75298 2.98284 7.81782 3.1014 7.92589 3.1014C7.90737 3.117 7.88575 3.117 7.91045 3.14821L8.03705 3.10452C8.26554 3.21373 7.97221 3.27613 8.14512 3.38846C8.24393 3.53198 8.33966 3.38846 8.41994 3.46646V3.42902C8.43668 3.43461 8.45234 3.44305 8.46626 3.45398C8.58977 3.47582 8.71019 3.54134 8.77503 3.45398C8.77503 3.50078 8.8831 3.48518 8.93559 3.4727C8.98809 3.46022 9.22276 3.45086 9.24437 3.63495C9.38332 3.71919 9.45743 3.83775 9.40185 3.86271L9.59329 4.03432L9.50066 4.1248C9.71063 4.21841 9.72607 4.15601 9.93295 4.15289C10.0492 4.31368 10.2045 4.44154 10.3838 4.52418C10.4025 4.5498 10.4255 4.57196 10.4517 4.5897L10.4177 4.48362C10.5474 4.6209 10.5783 4.56162 10.6586 4.65835C10.6586 4.63027 10.6586 4.62402 10.6833 4.68955L10.7234 4.75195C10.708 4.75195 10.6925 4.73323 10.6802 4.70827L10.6617 4.75195C10.6617 4.95476 10.8778 4.87676 10.9303 5.04524C10.9144 5.03339 10.8999 5.01978 10.8871 5.00468C10.9118 5.1014 10.8377 5.31669 10.9488 5.27613C10.9488 5.30109 10.9859 5.31669 11.026 5.32605L11.0476 5.39158C11.0372 5.37095 11.0299 5.34887 11.026 5.32605C11.0785 5.34165 11.1403 5.35101 11.1187 5.36973L11.2144 5.58502C11.2292 5.6349 11.2595 5.67865 11.3008 5.70983L11.2761 5.76911C11.3225 5.84087 11.2978 5.85335 11.2761 5.85335C11.2236 6.19345 11.5571 6.22465 11.5015 6.58346C11.6034 6.61154 11.6004 6.47426 11.6405 6.4493C11.7177 6.47426 11.835 6.63339 11.9091 6.70827C11.8319 6.88924 11.8258 7.33229 11.6405 7.30109C11.6714 7.55382 11.7331 7.20125 11.8134 7.31669V7.34789C11.8208 7.25938 11.8554 7.17541 11.9122 7.10764C11.9987 7.06708 12.082 7.29797 12.0604 7.37598L11.9215 7.34789C12.0018 7.58502 12.1932 7.50702 12.3445 7.65991C12.3229 7.87208 12.187 7.76599 12.0728 7.81903L12.116 8.02808H12.0172C12.0512 8.15913 12.1438 8.19033 12.1129 8.37754C12.0203 8.24649 12.0172 8.65835 11.8937 8.47114C11.8566 8.57098 12.0481 8.60842 11.9153 8.65211C12.0203 8.73011 11.9709 8.56474 12.0049 8.5117C12.1592 8.47426 12.0728 8.74571 12.1006 8.87052C12.0203 8.87052 12.0141 8.78315 11.9493 8.92356C11.9658 8.93502 11.9794 8.95038 11.9887 8.96833C11.9981 8.98627 12.003 9.00624 12.003 9.02652C12.003 9.0468 11.9981 9.06678 11.9887 9.08472C11.9794 9.10266 11.9658 9.11802 11.9493 9.12949C12.0481 9.12949 11.9493 9.29797 11.9277 9.37598C11.9678 9.28861 12.0512 9.16381 12.1315 9.23869C12.1692 9.3392 12.1692 9.45019 12.1315 9.5507L12.1994 9.4415C12.3167 9.61934 12.0512 9.66615 12.0481 9.87208C12.0283 9.79079 12.0015 9.71143 11.9678 9.63495C12.0002 9.78368 12.0188 9.93514 12.0234 10.0874C11.9585 10.131 11.8999 10.1716 11.835 10.209C11.8968 10.2527 11.7671 10.3869 11.8628 10.4181C11.73 10.5959 11.8041 10.2184 11.7393 10.1778C11.5942 10.3963 11.8319 10.4337 11.5973 10.6084L11.5417 10.4961C11.5046 10.571 11.4923 10.7426 11.4429 10.7301C11.4738 10.7457 11.4799 10.702 11.4985 10.6552C11.6621 10.7832 11.4676 11.064 11.659 11.1264C11.6824 11.0943 11.7041 11.061 11.7239 11.0265C11.6806 11.2075 11.7393 11.3947 11.6034 11.4821C11.4676 11.5694 11.5262 11.3479 11.5046 11.2637C11.412 11.4072 11.6312 11.4977 11.5046 11.6693C11.5911 11.5944 11.6405 11.6474 11.6528 11.7348C11.727 11.6381 11.8937 11.4228 11.7918 11.4228L11.7547 11.4509C11.7146 11.4165 11.7269 11.3479 11.7208 11.3042C11.798 11.1576 11.8381 11.2793 11.8906 11.2668C12.045 11.0296 11.7177 11.1544 11.8288 10.9298H11.8813C11.8813 10.7956 11.9431 10.6178 11.8381 10.546C11.9987 10.4899 11.8813 10.2652 11.9894 10.1778C12.2797 10.2496 11.8412 10.5741 11.9307 10.7582C12.0357 10.6583 12.0326 10.883 12.0697 10.9641C12.0851 10.8144 12.1037 10.6521 12.1067 10.5179C12.1561 10.5179 12.3352 10.4275 12.2581 10.3214L12.2426 10.3526C12.2611 10.1778 12.1315 10.1872 12.2086 10.0624C12.2426 10.0468 12.2735 10.103 12.2889 10.1186C12.3538 9.99688 12.255 9.99376 12.2519 9.90016C12.3075 9.77535 12.3507 9.99376 12.4093 9.90016C12.3383 9.72231 12.4896 9.66303 12.5051 9.52262C12.3414 9.54758 12.3599 8.96412 12.1778 9.21061C12.1531 9.10452 12.1314 8.99844 12.0975 8.8986C12.1932 8.80811 12.3105 9.13573 12.4557 9.06396L12.4186 9.31981C12.5205 9.31981 12.5082 9.17317 12.4927 9.0078C12.4773 8.84243 12.4618 8.69579 12.5761 8.6053C12.5771 8.47792 12.6055 8.35228 12.6595 8.23713L12.4773 8.28393C12.486 8.24015 12.506 8.19948 12.5353 8.16604C12.5645 8.13261 12.6021 8.10762 12.644 8.0936C12.6334 8.01702 12.6334 7.9393 12.644 7.86271C12.6605 7.87314 12.6747 7.88679 12.6858 7.90287C12.697 7.91895 12.7048 7.93713 12.7089 7.95632C12.8077 7.84399 12.7675 7.81591 12.7089 7.78159C12.6636 7.71687 12.6398 7.63931 12.6409 7.56006L12.7181 7.62871C12.6965 7.57566 12.6687 7.51326 12.6348 7.51326C12.6292 7.47867 12.6188 7.44506 12.6039 7.41342C12.53 7.47038 12.4751 7.54875 12.4464 7.63807C12.4541 7.49256 12.4541 7.34675 12.4464 7.20125C12.43 7.06031 12.4394 6.91752 12.4742 6.78003C12.5267 6.78003 12.6193 6.87676 12.6162 6.83931C12.6162 6.69579 12.4865 6.57098 12.4124 6.60842L12.3847 6.53666C12.4058 6.51845 12.4222 6.49528 12.4325 6.46917C12.4427 6.44305 12.4464 6.4148 12.4433 6.3869C12.4539 6.35661 12.4539 6.32357 12.4433 6.29329C12.2889 6.29329 12.2797 6.01872 12.1901 5.98128C12.206 6.05163 12.2277 6.12051 12.255 6.18721C12.1284 6.11544 11.9925 6.06864 12.0295 5.96256C12.1963 6.11232 12.082 5.70359 12.2457 5.96256C12.326 5.68799 12.0759 5.90952 12.045 5.67239V5.5039C12.1469 5.47894 12.1901 5.70671 12.2117 5.65679L12.1561 5.5663C12.2735 5.62871 12.3908 6.01248 12.573 6.21529C12.5409 6.04774 12.4997 5.88212 12.4495 5.71919C12.3538 5.58502 12.2828 5.43526 12.1932 5.28549C12.1037 5.13573 12.0172 4.97348 11.9277 4.83931C11.833 4.70088 11.7298 4.56854 11.6189 4.44306C11.5153 4.33169 11.393 4.23978 11.2576 4.17161H11.273C11.2485 4.17707 11.2253 4.1877 11.2051 4.20281V4.16849L11.0785 4.14041C11.0785 3.98128 10.9334 3.82839 10.8531 3.62246C10.8932 3.75663 10.8932 3.75663 10.8531 3.82215C10.813 3.88768 10.7172 3.90328 10.6246 3.75351C10.6709 3.69423 10.7481 3.77223 10.6956 3.63807C10.7172 3.71295 10.6431 3.70671 10.5783 3.66927C10.5351 3.56942 10.4177 3.4571 10.461 3.39782C10.5104 3.39782 10.5227 3.45398 10.5382 3.48206C10.5536 3.51014 10.4363 3.31045 10.5814 3.34789L10.427 3.25117C10.3838 3.13261 10.5443 3.21685 10.5351 3.15757C10.2633 3.00156 10.0256 3.07644 9.78164 2.97036C9.81674 2.92945 9.84681 2.8844 9.87119 2.83619C9.70445 2.69579 9.38949 2.77691 9.17335 2.70515C9.22584 2.67083 9.29995 2.72075 9.37097 2.73323C8.76994 2.41632 8.13483 2.17029 7.47816 2L7.28981 2.16537L7.11071 2.04056C6.36965 1.9376 5.80149 2.16849 5.18085 2.45866C4.98632 2.54914 5.0172 2.39314 4.89986 2.3869C4.72727 2.44996 4.57399 2.55752 4.45522 2.69891C4.34266 2.8352 4.21982 2.96247 4.08778 3.07956C4.1094 3.00156 4.11866 2.81435 3.94883 2.92044C3.94883 2.98284 3.97044 3.06084 3.85311 3.1014L3.87163 3.0234C3.7296 3.0234 3.69255 3.15757 3.48875 3.27925C3.18289 3.54173 2.98203 3.90772 2.92368 4.30889C2.68592 4.56786 2.80326 4.16225 2.73224 4.18721C2.94221 4.03432 2.82179 4.0312 2.81253 3.95008C2.76003 4.08736 2.68284 4.23089 2.53771 4.20905C2.43485 4.33329 2.36664 4.483 2.3401 4.64275C2.35862 4.53978 2.46052 4.5117 2.45434 4.61466C2.3784 4.69393 2.30919 4.77952 2.24746 4.87051C2.17953 4.96412 2.1116 5.03276 2.04984 4.98284C1.59033 5.83094 1.3037 6.7635 1.20688 7.72543C1.2779 7.89392 1.24702 7.60686 1.29642 7.70047C1.38906 7.94072 1.23467 7.88144 1.29642 8.07176L1.21305 7.99064C1.2259 8.2832 1.30402 8.56905 1.44155 8.82683C1.34583 8.78939 1.37362 9.05148 1.30569 8.82683C1.32421 8.95476 0.922801 9.16381 1.0247 9.26053C1.14821 9.19189 1.27481 9.12637 1.40141 9.06396C1.44155 9.06396 1.44155 9.24805 1.46625 9.22621C1.39745 9.3342 1.35511 9.4572 1.34274 9.58502C1.25011 9.64431 1.24084 9.43838 1.22849 9.32605C1.05866 9.32605 1.176 9.72231 1 9.58502C1.06793 9.82527 1.07719 9.5351 1.16365 9.66927V9.88456L1.18218 9.70983C1.27172 9.8752 1.41067 9.90016 1.37362 10.1498C1.44536 10.2153 1.5206 10.2767 1.59902 10.3339C1.4786 10.3963 1.6299 10.5055 1.63916 10.6459L1.53418 10.6022C1.57732 10.7089 1.59529 10.8242 1.58668 10.9392C1.43846 10.8955 1.5558 10.7894 1.44155 10.7894C1.44733 10.8523 1.45661 10.9148 1.46934 10.9766C1.54036 10.9485 1.64225 11.0328 1.6299 10.8955C1.74621 10.9363 1.85202 11.0029 1.93963 11.0904C2.02724 11.1778 2.09443 11.2839 2.1363 11.4009C2.1116 11.6256 1.93559 11.2793 1.86148 11.4009C2.02822 11.8128 2.39876 11.7129 2.52536 11.9064C2.66122 12.1903 2.73842 12.1154 2.9453 12.3463C2.81252 12.3276 3.01323 12.5772 2.98852 12.6802L2.83722 12.6427C2.92059 12.6989 2.95765 12.7956 2.8928 12.8175C2.96382 12.7239 3.26643 13.0452 3.46713 13.1513L3.50728 13.0515C3.68651 13.1317 3.85383 13.2367 4.00441 13.3635C4.24217 13.4852 4.24525 13.3635 4.46757 13.3916C4.48632 13.4486 4.48556 13.5104 4.46541 13.567C4.44525 13.6236 4.40687 13.6717 4.35642 13.7036C4.32554 13.6193 4.2082 13.5757 4.12792 13.4852C3.95809 13.4321 3.79753 13.3978 3.64314 13.3448C3.48038 13.3041 3.33513 13.211 3.22937 13.0796C2.95147 13.1513 3.41464 13.2324 3.49492 13.3916C3.4892 13.3946 3.48285 13.3962 3.4764 13.3962C3.46995 13.3962 3.46359 13.3946 3.45787 13.3916C3.46951 13.3995 3.47904 13.4102 3.48566 13.4228C3.36524 13.3697 3.17688 13.2605 3.07498 13.3229C3.25098 13.4602 3.35597 13.2449 3.49183 13.4977C3.68328 13.5725 3.69563 13.8284 3.80061 13.9064C3.96735 13.9064 4.07543 13.7473 4.32554 13.947C4.26069 13.9657 4.19894 13.9782 4.1341 13.9906C4.44288 14.1841 4.38421 13.9002 4.67446 14.0655C4.57874 13.9969 4.83193 13.9938 4.64358 13.8908C4.72448 13.8858 4.8053 13.9019 4.87825 13.9376C4.96719 13.969 5.05217 14.0109 5.13144 14.0624C5.18085 14.0624 5.15615 14.0218 5.18085 13.9813C5.0419 13.8253 4.87207 13.9563 4.78561 13.7535L4.60035 13.8253C4.46757 13.6911 4.51389 13.5819 4.63432 13.5788C4.588 13.5788 4.54168 13.5601 4.52315 13.5195C4.60961 13.3105 4.66828 13.688 4.81032 13.5476L4.69607 13.5039C4.72386 13.351 5.00485 13.5257 5.12836 13.5944C5.26114 13.7192 5.40008 13.8034 5.37538 13.9064L5.13763 13.8596C5.22408 13.9813 5.4464 13.9376 5.56682 13.975C5.57233 13.9908 5.58193 14.0048 5.59461 14.0156C5.59131 14.0055 5.59131 13.9945 5.59461 13.9844C5.62267 13.9986 5.64542 14.0216 5.65946 14.0499C5.79658 14.0687 5.93262 14.0948 6.06704 14.1279V14.0343L6.03925 14.0842C5.93118 14.0593 5.80459 13.9563 5.90031 13.9126C6.14733 13.9126 6.16277 14.0811 6.20909 14.181C6.12572 14.312 5.96206 14.1404 5.82929 14.1498C5.87252 14.3151 6.07631 14.2246 6.32642 14.3588C6.19365 14.4992 6.01764 14.3058 5.9281 14.4368C6.14424 14.5023 6.22143 14.4025 6.44375 14.4774C6.4067 14.546 6.17821 14.5148 6.17821 14.6115L6.32333 14.6802C5.94354 14.6271 6.36348 14.8861 6.0547 14.8736C6.19056 14.961 6.27393 14.78 6.46537 14.9111C6.41288 14.8362 6.27393 14.6833 6.46537 14.6552L6.67534 14.7145C6.76179 14.7956 6.4314 14.8674 6.57035 14.9392L6.80812 14.9017C6.80812 14.8518 6.69387 14.8237 6.76488 14.7613C6.89457 14.8206 6.98721 14.5959 7.13233 14.5273C7.25275 14.5273 7.34539 14.5273 7.3917 14.5866C7.69913 14.4813 7.99588 14.3465 8.2779 14.1841C8.12042 14.3183 8.31804 14.3432 8.44773 14.3807C8.41446 14.3859 8.38299 14.3993 8.35612 14.4198C8.32925 14.4403 8.30782 14.4672 8.29376 14.4981C8.27969 14.529 8.27341 14.563 8.27549 14.5969C8.27758 14.6309 8.28795 14.6638 8.30568 14.6927C8.43846 14.6459 8.48478 14.4743 8.40759 14.4431C8.63917 14.4431 8.52801 14.3058 8.74106 14.3432C8.87693 14.3432 8.72563 14.5023 8.7843 14.5398C9.01897 14.468 8.78429 14.3526 9.04984 14.2933C9.04984 14.3183 9.02205 14.3307 9.04984 14.3495C9.11093 14.3415 9.16828 14.3153 9.2145 14.2741C9.26072 14.233 9.2937 14.1788 9.30921 14.1186C9.36203 14.1363 9.41861 14.1393 9.47296 14.1272C9.52731 14.1151 9.57742 14.0884 9.61799 14.0499C9.6921 13.9969 9.73842 13.9563 9.77547 14.0499C10.0318 13.819 9.67975 13.9938 9.70137 13.9002C9.78772 13.7774 9.91878 13.6944 10.0657 13.6693C10.0132 13.7098 9.98544 13.791 9.90824 13.8066L10.0348 13.8783C10.1213 13.8471 10.1676 13.8066 10.18 13.7722C10.1769 13.7387 10.1718 13.7053 10.1645 13.6724C10.1491 13.5975 10.1645 13.5133 10.2479 13.532C10.1892 13.6381 10.2479 13.6443 10.2479 13.7473C10.2479 13.7067 10.3405 13.7129 10.2726 13.6287C10.2929 13.6248 10.3138 13.6268 10.333 13.6346C10.3521 13.6423 10.3687 13.6554 10.3807 13.6724C10.4239 13.6256 10.4795 13.6162 10.5412 13.5538C10.5751 13.5891 10.5949 13.6358 10.5968 13.6849V13.7223L10.6184 13.7691C10.6184 13.8034 10.637 13.8315 10.6462 13.8565C11.0137 14.0468 11.1989 14.4119 11.588 14.6115L11.5664 14.5866C11.8041 14.8175 11.5664 14.3557 11.8227 14.5866C11.6899 14.6802 11.9122 14.8019 11.9462 14.9392C12.2179 15.273 12.5884 15.3105 12.8231 15.6412C12.8015 15.6661 12.7552 15.6786 12.6934 15.6412C12.886 15.8323 13.0924 16.0085 13.311 16.1685H13.2925C13.5487 16.5398 13.9502 16.6646 14.3207 16.9142C14.2805 16.9142 14.2373 16.9485 14.2034 16.9485C14.3577 17.117 14.6233 17.3635 14.8364 17.3479C14.9475 17.6381 15.0031 17.4197 15.1791 17.7566C15.1791 17.791 15.1359 17.7566 15.1143 17.7566C15.2192 17.8771 15.3385 17.984 15.4693 18.0749C15.8275 18.2246 16.0251 18.1186 16.337 18.4337C16.2258 18.6209 16.09 18.3151 15.9819 18.4337C16.0312 18.4366 16.0791 18.4515 16.1215 18.477C16.164 18.5025 16.1998 18.538 16.2259 18.5803C16.1178 18.6053 16.1795 18.6147 16.0931 18.6459C16.1332 18.7488 16.5254 18.6927 16.513 18.7051C16.5007 18.7176 16.513 18.6396 16.4574 18.5897C16.6149 18.546 16.8064 18.8424 17.0071 18.9267C16.9546 18.883 16.8063 18.7176 16.9329 18.6864C17.1337 18.8924 17.3313 18.7832 17.5505 18.8331C17.7018 19.0671 17.288 18.8612 17.2417 19.014C17.2417 19.0858 17.2417 19.2449 17.1337 19.2262C17.3066 19.3947 17.5196 19.3916 17.708 19.4883L17.6771 19.5195C17.9241 19.6817 18.2947 19.7129 18.4367 19.9282L18.3595 19.8128C18.412 19.8128 18.5232 19.9158 18.6405 19.8939C18.5911 19.947 18.7115 20.1123 18.6127 20.1123C18.8505 20.0031 19.2303 20.39 19.4773 20.2995C19.5082 20.39 19.4063 20.4306 19.3569 20.4587C19.2179 20.3339 19.1901 20.2621 19.0481 20.2777C19.1747 20.3651 19.2333 20.4805 19.1839 20.5086C19.3908 20.4836 19.7212 20.649 19.8663 20.5772C19.9157 20.702 19.9837 20.7956 19.8849 20.8674C20.311 21.0796 19.9003 20.4337 20.3357 20.7426C20.4685 20.9766 20.0547 20.7426 20.3048 20.9579L20.2431 20.9392C20.2708 21.3292 20.5055 20.858 20.7247 21.0234C20.663 21.1794 20.5024 21.0234 20.5889 21.2168C20.8205 21.3261 21.049 21.1856 21.225 21.3697L21.154 21.4072C21.2929 21.4883 21.5307 21.6911 21.6696 21.7691C21.6696 21.8003 21.6418 21.7691 21.6109 21.7691C21.8209 21.9875 21.7592 21.7691 21.8981 22L22 21.9719C21.929 21.8534 21.7808 21.6599 21.6017 21.6599C21.7808 21.6599 21.5183 21.3479 21.6603 21.2761L21.6048 21.3073C21.3474 20.8843 21.0206 20.5086 20.6383 20.1966C20.2832 20.1498 20.2338 19.8253 19.888 19.7223C19.7336 19.8502 19.8139 19.7223 19.5514 19.5788C19.6934 19.6505 19.6502 19.4696 19.5854 19.3916C19.5127 19.3932 19.4407 19.3771 19.3754 19.3448C19.3754 19.2574 19.1562 18.9111 18.9709 18.9392C18.8628 18.7832 19.0419 18.9142 19.0944 18.9048C19.0944 18.78 18.9338 18.8799 18.9246 18.7925C18.9298 18.7898 18.9356 18.7883 18.9416 18.7883C18.9475 18.7883 18.9533 18.7898 18.9585 18.7925C18.7671 18.6435 18.5856 18.4819 18.4151 18.3089C18.2854 18.4493 18.1495 18.2028 18.0075 18.181C18.0754 18.156 17.921 18.0281 17.8778 17.9501L17.6709 17.9719C17.4795 17.9719 17.5536 17.7785 17.3622 17.7129L17.3807 17.7691C17.1813 17.6483 17.0287 17.4623 16.9484 17.2418C16.4193 17.029 15.9527 16.6832 15.5929 16.2371C15.227 15.7798 14.8035 15.3728 14.333 15.0265C14.2281 15.0265 14.333 15.142 14.2188 15.1638C14.1316 15.1129 14.0489 15.0544 13.9718 14.9891C14.0304 15.0983 14.0551 15.039 14.0088 15.0702L14.1972 15.1513C14.1972 15.1513 14.1756 15.1513 14.1725 15.1919C14.248 15.2138 14.3184 15.2509 14.3794 15.3011C14.2528 15.2637 14.1416 15.351 14.0428 15.2044C14.0644 15.2044 14.086 15.2044 14.1262 15.2231C14.0273 15.1295 13.981 15.1763 13.9224 15.0827C13.8637 14.9891 13.8421 15.0328 13.8668 14.9766L13.6074 14.6646C13.3511 14.6646 13.2616 14.3963 13.2214 14.3526C13.3357 14.2808 13.4499 14.4836 13.6012 14.4493L13.5487 14.2902L13.4808 14.3619L13.3388 14.2153H13.3604C13.3172 14.2153 13.2739 14.2465 13.2554 14.1872C13.2369 14.1279 13.2554 14.1373 13.2801 14.1466L13.135 14.0998C13.2647 14.0718 13.0547 13.9969 13.135 13.9158C12.8108 13.5694 12.573 13.6537 12.3599 13.2574C12.3754 13.3479 12.1407 13.3198 12.0512 13.22C11.9616 13.1201 12.0141 13.117 12.079 13.1108L11.9122 13.0515C11.8941 12.9333 11.8309 12.8269 11.7362 12.7551L11.5942 12.6365C11.554 12.6022 11.4738 12.5242 11.3657 12.4181L11.4182 12.3931L10.745 12.1279L10.8191 12.0406C10.7706 12.0038 10.7115 11.984 10.6509 11.984C10.5902 11.984 10.5312 12.0038 10.4826 12.0406C10.3821 12.1134 10.2602 12.1497 10.1367 12.1435C10.1553 12.2527 10.3838 12.2808 10.4085 12.3963C10.3771 12.3644 10.3383 12.3411 10.2957 12.3286C10.253 12.316 10.2079 12.3146 10.1645 12.3245C10.0719 12.3245 10.0071 12.3775 10.0565 12.4056C9.74768 12.5803 9.83414 12.4992 9.79709 12.4836C9.74348 12.5346 9.69296 12.5888 9.64579 12.6459C9.43891 12.7707 9.49448 12.5616 9.55932 12.4493C9.52053 12.5049 9.47488 12.5552 9.42347 12.5991C9.39111 12.6308 9.35477 12.658 9.3154 12.6802C9.2382 12.7207 9.15791 12.7457 9.08689 12.7832L9.1116 12.7051L8.93869 12.7956C8.88311 12.9392 8.78739 12.9953 8.60212 13.0203L8.64534 12.8393C8.51566 12.8081 8.61446 12.908 8.59594 12.9423C8.46007 13.0764 8.38597 12.9922 8.28716 12.9423C8.23333 12.9883 8.1683 13.0189 8.0988 13.031C8.0293 13.0431 7.95787 13.0361 7.89192 13.0109C7.76532 12.9766 7.6449 12.9516 7.543 13.0764ZM11.2977 5.74415V5.70983C11.3595 5.75663 11.3996 5.77847 11.2977 5.74415ZM10.2973 4.33073C10.4888 4.43682 10.3899 4.43994 10.3745 4.4805C10.2572 4.30577 10.146 4.25585 10.0348 4.1092C10.0335 4.14424 10.024 4.17846 10.0071 4.20905C9.9796 4.1855 9.95967 4.15426 9.94978 4.11928C9.93989 4.08429 9.94048 4.04713 9.95148 4.01248C10.0318 3.98128 10.1275 4.0936 10.1985 4.19033C10.2695 4.28705 10.3004 4.39314 10.2973 4.33073ZM12.6749 7.76287L12.6409 7.73791L12.6749 7.76287ZM12.3352 6.62402C12.348 6.61227 12.358 6.59774 12.3644 6.58153C12.3708 6.56531 12.3735 6.54784 12.3723 6.53042C12.3414 6.56786 12.3167 6.59594 12.3352 6.62402ZM11.4676 4.43994C11.4676 4.35881 11.3873 4.27457 11.3163 4.21217C11.3541 4.29795 11.4007 4.37952 11.4552 4.45554L11.4676 4.43994ZM1.57432 9.07644C1.54036 9.01092 1.46934 8.87988 1.43229 9.0078C1.49404 9.06084 1.43228 9.18565 1.50639 9.22621C1.53449 9.179 1.55727 9.12877 1.57432 9.07644ZM5.82002 13.7566C5.79223 13.8128 5.7243 13.8658 5.74283 13.9189H5.72739C5.72739 13.9438 5.74592 13.9657 5.72739 13.975C5.76958 14.004 5.81856 14.0212 5.86943 14.025C5.93427 13.8003 6.04543 13.8003 5.81693 13.7473L5.82002 13.7566Z" fill="#242424"/>
<path d="M3.427 13.3635L3.48305 13.4041L3.427 13.3635Z" fill="#242424"/>
<path d="M5.85808 14C5.85808 14 5.80825 13.9501 5.73975 13.9095C5.74909 13.9376 5.78023 13.9657 5.85808 14Z" fill="#242424"/>
<path d="M11.3286 11.1545V11.0889L11.2174 11.1701C11.1982 11.2322 11.1955 11.2983 11.2096 11.3619C11.2237 11.4254 11.2541 11.4841 11.2977 11.532C11.3162 11.3198 11.4151 11.2449 11.5015 11.0172L11.3286 11.1545Z" fill="#242424"/>
<path d="M11.9647 11.376C12.0157 11.3666 12.0641 11.3464 12.1068 11.3167L12.0697 11.2574L11.9647 11.376Z" fill="#242424"/>
<path d="M12.9719 8.77068L12.9034 8.99532C12.9501 9.07333 13.0653 8.80812 12.9719 8.77068Z" fill="#242424"/>
<path d="M11.8134 9.56005L11.857 9.6755C11.9317 9.5975 11.9473 9.46957 11.8788 9.43837C11.8944 9.56629 11.8321 9.46021 11.8134 9.56005Z" fill="#242424"/>
<path d="M12.9997 8.156C12.8752 8.09048 13.0402 7.92511 12.925 7.88455C12.953 7.94383 12.869 8.14976 12.9997 8.156Z" fill="#242424"/>
<path d="M11.8602 8.32761C11.7512 8.38689 11.8446 8.48673 11.8166 8.6053C11.8166 8.49609 11.9474 8.36817 11.8602 8.32761Z" fill="#242424"/>
<path d="M12.5143 7.0078C12.5977 7.0078 12.6193 7.09204 12.6131 7.20125C12.5823 7.17005 12.5421 7.15444 12.5174 7.11388C12.5749 7.21243 12.6215 7.31706 12.6564 7.4259C12.6996 7.27925 12.7058 7.06084 12.8108 7.06396C12.7058 6.96412 12.5607 6.86739 12.5143 7.0078Z" fill="#242424"/>
<path d="M11.8319 8.03745C11.8041 8.13729 11.727 8.19969 11.7393 8.31826C11.7608 8.31351 11.7811 8.30443 11.7991 8.29156C11.817 8.2787 11.8322 8.26231 11.8437 8.24338C11.8552 8.22444 11.8629 8.20336 11.8662 8.18138C11.8694 8.1594 11.8683 8.13697 11.8628 8.11545L11.9647 8.16225C12.0326 8.02496 11.835 8.21841 11.8319 8.03745Z" fill="#242424"/>
<path d="M12.573 6.32761L12.5514 6.40873C12.6873 6.5429 12.6842 6.76442 12.8324 6.82683C12.7918 6.63993 12.7022 6.4675 12.573 6.32761Z" fill="#242424"/>
<path d="M11.9678 7.5195H11.8257C11.8257 7.66303 11.8721 7.5039 11.9122 7.54758C11.9006 7.56798 11.8944 7.59111 11.8944 7.61466C11.8944 7.63822 11.9006 7.66135 11.9122 7.68175C11.8813 7.52262 12.0326 7.65679 11.9678 7.5195Z" fill="#242424"/>
<path d="M11.7331 7.08581L11.6343 6.92668L11.517 7.09829C11.6158 7.2855 11.6034 7.08893 11.7331 7.08581Z" fill="#242424"/>
<path d="M11.764 6.84556L11.7856 6.81748C11.6968 6.74667 11.604 6.68104 11.5078 6.62091C11.5859 6.7039 11.6717 6.77913 11.764 6.84556Z" fill="#242424"/>
<path d="M10.6001 3.37909C10.5347 3.40093 10.6312 3.57878 10.6001 3.47582C10.6717 3.46022 10.5285 3.24181 10.6001 3.37909Z" fill="#242424"/>
<path d="M10.3498 4.67394C10.3282 4.5897 10.0935 4.47737 9.99469 4.43681C10.1028 4.50234 10.3004 4.75195 10.3498 4.67394Z" fill="#242424"/>
<path d="M9.94836 4.42122H9.99506C9.97965 4.41802 9.96377 4.41802 9.94836 4.42122Z" fill="#242424"/>
<path d="M6.00552 3.79407C5.99499 3.79981 5.98633 3.80848 5.98059 3.81903L6.00552 3.79407Z" fill="#242424"/>
<path d="M6.08559 3.7348C6.12684 3.73174 6.16656 3.71772 6.20072 3.69416C6.23488 3.6706 6.26227 3.63833 6.28012 3.60063C6.17894 3.64998 6.08618 3.71528 6.00531 3.79408C6.04545 3.77536 6.11029 3.81592 6.08559 3.7348Z" fill="#242424"/>
<path d="M5.2119 4.05616C5.23993 4 5.30844 3.9844 5.26484 3.94072C5.22125 3.89703 5.1652 4.03432 5.2119 4.05616Z" fill="#242424"/>
<path d="M1.29022 10.1747C1.29022 10.3058 1.33654 10.3713 1.41065 10.312C1.37051 10.1778 1.34271 10.2652 1.29022 10.1747Z" fill="#242424"/>
<path d="M1.47919 10.4618L1.44184 10.4899L1.40448 10.5897L1.47919 10.4618Z" fill="#242424"/>
<path d="M1.67361 11.3042C1.65184 11.3008 1.63198 11.2897 1.61755 11.273C1.6487 11.3261 1.67673 11.3604 1.67361 11.3042Z" fill="#242424"/>
<path d="M1.60211 11.2636L1.61769 11.2855L1.60211 11.2636Z" fill="#242424"/>
<path d="M1.60562 11.1981H1.5589L1.6025 11.2512C1.59759 11.2431 1.59526 11.2336 1.59582 11.2242C1.59638 11.2147 1.59979 11.2056 1.60562 11.1981Z" fill="#242424"/>
<path d="M1.77194 11.5632C1.77194 11.4945 1.79973 11.4228 1.81826 11.3541C1.68857 11.2231 1.83678 11.5632 1.63916 11.4696C1.68239 11.5039 1.72562 11.532 1.77194 11.5632Z" fill="#242424"/>
<path d="M2.09308 12.053C2.14557 12.2122 2.44509 12.2777 2.37098 12.4462C2.70755 12.7582 2.51303 12.2122 2.87122 12.5585C2.63963 12.1498 2.47906 12.5585 2.30614 12.1622C2.34319 12.39 2.16101 12.0905 2.09308 12.053Z" fill="#242424"/>
<path d="M2.27526 11.8471C2.19188 11.869 2.29688 12.0374 2.37408 12.0593C2.34937 12.0062 2.38643 11.869 2.27526 11.8471Z" fill="#242424"/>
<path d="M2.66742 12.7207L2.71101 12.8674L2.7733 12.8612L2.66742 12.7207Z" fill="#242424"/>
<path d="M2.99468 13.1295L2.83411 13.0983C2.89277 13.1045 3.02864 13.2543 2.99468 13.1295Z" fill="#242424"/>
<path d="M3.46716 13.7098C3.54744 13.8159 3.77592 13.7098 3.52891 13.585L3.57214 13.6318C3.53818 13.6474 3.60611 13.8003 3.46716 13.7098Z" fill="#242424"/>
<path d="M5.07585 14.2746C4.99866 14.2371 4.89676 14.2246 4.89368 14.2746L5.12834 14.3245L5.07585 14.2746Z" fill="#242424"/>
<path d="M5.23644 13.8003C5.23644 13.6505 5.0481 13.741 4.94312 13.6318C5.02593 13.7112 5.12659 13.769 5.23644 13.8003Z" fill="#242424"/>
<path d="M5.26109 14.546C5.18391 14.571 5.10363 14.5023 5.05115 14.4711C5.05115 14.5523 5.21169 14.5959 5.26109 14.546Z" fill="#242424"/>
<path d="M5.64093 14.6115C5.70269 14.6833 5.60388 14.6771 5.64093 14.727C5.70078 14.7778 5.77283 14.8117 5.84981 14.8254C5.92679 14.8391 6.00598 14.8321 6.0794 14.805C6.04235 14.7457 6.01456 14.5866 6.0794 14.5366C5.82002 14.5366 5.62858 14.7145 5.55138 14.5117L5.27039 14.6646C5.4958 14.7582 5.50198 14.5585 5.64093 14.6115Z" fill="#242424"/>
<path d="M5.27966 14.0468L5.37848 14.1654C5.37848 14.0874 5.47419 14.1123 5.5483 14.1061C5.56374 13.947 5.35377 14.0655 5.27966 14.0468Z" fill="#242424"/>
<path d="M7.09839 14.7176C7.20028 14.7176 7.296 14.6895 7.40716 14.674H7.31143L7.09839 14.7176Z" fill="#242424"/>
<path d="M7.29291 14.7675V14.8144C7.3701 14.7832 7.44422 14.7519 7.51832 14.7145C7.44113 14.7363 7.3701 14.7519 7.29291 14.7675Z" fill="#242424"/>
<path d="M7.61095 14.805L7.5739 14.8019L7.39789 14.8549L7.61095 14.805Z" fill="#242424"/>
<path d="M8.24086 14.7364L8.17293 14.6802C8.10191 14.7145 7.94135 14.6615 7.96914 14.752C8.01024 14.7285 8.05611 14.715 8.10321 14.7123C8.15031 14.7096 8.1974 14.7178 8.24086 14.7364Z" fill="#242424"/>
<path d="M9.19189 12.4399C9.17632 12.5055 9.22303 12.5211 9.27286 12.5398V12.3931C9.2604 12.4119 9.22304 12.4524 9.19189 12.4399Z" fill="#242424"/>
<path d="M9.70444 12.3463C9.78995 12.2517 9.88177 12.1631 9.97926 12.0811C9.83892 12.1209 9.70985 12.1936 9.60255 12.2933L9.47595 12.4118L9.34009 12.5367C9.38023 12.5367 9.44816 12.4711 9.51918 12.4118C9.5896 12.3472 9.67271 12.2983 9.76311 12.2683L9.70444 12.3463Z" fill="#242424"/>
<path d="M13.5209 14.4711C13.453 14.5273 13.4931 14.546 13.3449 14.4992C13.521 14.5922 13.6867 14.7041 13.839 14.8331C13.839 14.7675 14.0335 14.7987 13.9501 14.7644L13.7216 14.6459L13.7865 14.624C13.6907 14.4618 13.6383 14.6271 13.5209 14.4711Z" fill="#242424"/>
<path d="M21.0832 21.3354C21.0396 21.3572 21.0427 21.4072 21.0459 21.454C21.1984 21.5008 21.0521 21.326 21.0832 21.3354Z" fill="#242424"/>
</svg>
